<?xml version="1.0" encoding="UTF-8" standalone="no"?>
<!DOCTYPE svg PUBLIC "-//W3C//DTD SVG 1.1//EN"
 "http://www.w3.org/Graphics/SVG/1.1/DTD/svg11.dtd">
<!-- Generated by graphviz version 2.26.3 (20100126.1600)
 -->
<!-- Title: _anonymous_0 Pages: 1 -->
<svg width="548pt" height="596pt"
 viewBox="0.00 0.00 548.00 596.00" xmlns="http://www.w3.org/2000/svg" xmlns:xlink="http://www.w3.org/1999/xlink">
<g id="graph1" class="graph" transform="scale(1 1) rotate(0) translate(4 592)">
<title>_anonymous_0</title>
<polygon fill="white" stroke="white" points="-4,5 -4,-592 545,-592 545,5 -4,5"/>
<g id="graph2" class="cluster"><title>cluster1</title>
<polygon fill="none" stroke="black" points="8,-8 8,-580 310,-580 310,-8 8,-8"/>
</g>
<g id="graph3" class="cluster"><title>cluster2</title>
<polygon fill="none" stroke="black" points="52,-16 52,-212 266,-212 266,-16 52,-16"/>
</g>
<g id="graph4" class="cluster"><title>cluster3</title>
<polygon fill="none" stroke="black" points="16,-232 16,-572 302,-572 302,-232 16,-232"/>
</g>
<g id="graph5" class="cluster"><title>cluster4</title>
<polygon fill="none" stroke="black" points="318,-232 318,-428 532,-428 532,-232 318,-232"/>
</g>
<!-- 40913872 -->
<g id="node3" class="node"><title>40913872</title>
<ellipse fill="dodgerblue" stroke="black" cx="174" cy="-186" rx="27" ry="18"/>
</g>
<!-- 38976752 -->
<g id="node15" class="node"><title>38976752</title>
<ellipse fill="khaki" stroke="black" cx="51" cy="-258" rx="27" ry="18"/>
</g>
<!-- 40913872&#45;&gt;38976752 -->
<g id="edge38" class="edge"><title>40913872&#45;&gt;38976752</title>
<path fill="none" stroke="black" d="M152.081,-196.528C134.2,-205.366 108.479,-218.656 87,-232 83.7994,-233.989 80.5087,-236.165 77.2789,-238.386"/>
<polygon fill="black" stroke="black" points="75.1123,-235.632 68.9759,-244.269 79.159,-241.344 75.1123,-235.632"/>
</g>
<!-- 39079920 -->
<g id="node23" class="node"><title>39079920</title>
<ellipse fill="khaki" stroke="black" cx="497" cy="-258" rx="27" ry="18"/>
</g>
<!-- 40913872&#45;&gt;39079920 -->
<g id="edge14" class="edge"><title>40913872&#45;&gt;39079920</title>
<path fill="none" stroke="black" d="M201.096,-188.725C263.188,-195.227 414.02,-212.567 461,-232 464.74,-233.547 468.46,-235.553 472.011,-237.765"/>
<polygon fill="black" stroke="black" points="470.183,-240.755 480.405,-243.542 474.152,-234.989 470.183,-240.755"/>
</g>
<!-- 40814608 -->
<g id="node4" class="node"><title>40814608</title>
<ellipse fill="#6e8b3d" stroke="black" cx="151" cy="-114" rx="27" ry="18"/>
</g>
<!-- 40814608&#45;&gt;40913872 -->
<g id="edge72" class="edge"><title>40814608&#45;&gt;40913872</title>
<path fill="none" stroke="black" d="M156.685,-131.798C159.256,-139.846 162.353,-149.541 165.213,-158.493"/>
<polygon fill="black" stroke="black" points="161.923,-159.697 168.3,-168.157 168.591,-157.567 161.923,-159.697"/>
</g>
<!-- 38921376 -->
<g id="node5" class="node"><title>38921376</title>
<ellipse fill="khaki" stroke="black" cx="231" cy="-42" rx="27" ry="18"/>
</g>
<!-- 38921376&#45;&gt;40913872 -->
<g id="edge60" class="edge"><title>38921376&#45;&gt;40913872</title>
<path fill="none" stroke="black" d="M224.011,-59.6572C214.225,-84.3798 196.349,-129.539 184.832,-158.636"/>
<polygon fill="black" stroke="black" points="181.473,-157.612 181.046,-168.198 187.981,-160.188 181.473,-157.612"/>
</g>
<!-- 38921376&#45;&gt;40814608 -->
<g id="edge62" class="edge"><title>38921376&#45;&gt;40814608</title>
<path fill="none" stroke="black" d="M214.811,-56.5703C203.317,-66.9149 187.698,-80.9714 174.791,-92.5884"/>
<polygon fill="black" stroke="black" points="172.257,-90.1602 167.165,-99.4514 176.939,-95.3633 172.257,-90.1602"/>
</g>
<!-- 39530464 -->
<g id="node6" class="node"><title>39530464</title>
<ellipse fill="#eead0e" stroke="black" cx="159" cy="-42" rx="27" ry="18"/>
</g>
<!-- 39530464&#45;&gt;40913872 -->
<g id="edge64" class="edge"><title>39530464&#45;&gt;40913872</title>
<path fill="none" stroke="black" d="M170.308,-58.6742C176.578,-68.9456 183.748,-82.6623 187,-96 192.034,-116.642 188.182,-140.455 183.395,-158.4"/>
<polygon fill="black" stroke="black" points="179.972,-157.638 180.53,-168.219 186.691,-159.6 179.972,-157.638"/>
</g>
<!-- 39530464&#45;&gt;40814608 -->
<g id="edge66" class="edge"><title>39530464&#45;&gt;40814608</title>
<path fill="none" stroke="black" d="M156.981,-60.1686C156.126,-67.869 155.108,-77.0257 154.157,-85.5834"/>
<polygon fill="black" stroke="black" points="150.672,-85.2614 153.046,-95.5867 157.629,-86.0344 150.672,-85.2614"/>
</g>
<!-- 39640512 -->
<g id="node7" class="node"><title>39640512</title>
<ellipse fill="#eead0e" stroke="black" cx="87" cy="-42" rx="27" ry="18"/>
</g>
<!-- 39640512&#45;&gt;40913872 -->
<g id="edge68" class="edge"><title>39640512&#45;&gt;40913872</title>
<path fill="none" stroke="black" d="M89.7413,-60.0873C93.2623,-79.1517 100.705,-109.481 115,-132 123.384,-145.207 135.814,-157.247 147.107,-166.59"/>
<polygon fill="black" stroke="black" points="145.044,-169.422 155.054,-172.895 149.395,-163.938 145.044,-169.422"/>
</g>
<!-- 39640512&#45;&gt;40814608 -->
<g id="edge70" class="edge"><title>39640512&#45;&gt;40814608</title>
<path fill="none" stroke="black" d="M100.887,-57.6229C109.525,-67.341 120.789,-80.013 130.45,-90.8809"/>
<polygon fill="black" stroke="black" points="127.88,-93.2587 137.14,-98.4076 133.112,-88.6082 127.88,-93.2587"/>
</g>
<!-- 40490928 -->
<g id="node9" class="node"><title>40490928</title>
<ellipse fill="#8b008b" stroke="black" cx="197" cy="-546" rx="27" ry="18"/>
</g>
<!-- 40266112 -->
<g id="node10" class="node"><title>40266112</title>
<ellipse fill="#6e8b3d" stroke="black" cx="174" cy="-474" rx="27" ry="18"/>
</g>
<!-- 40266112&#45;&gt;40490928 -->
<g id="edge58" class="edge"><title>40266112&#45;&gt;40490928</title>
<path fill="none" stroke="black" d="M179.685,-491.798C182.256,-499.846 185.353,-509.541 188.213,-518.493"/>
<polygon fill="black" stroke="black" points="184.923,-519.697 191.3,-528.157 191.591,-517.567 184.923,-519.697"/>
</g>
<!-- 39777520 -->
<g id="node11" class="node"><title>39777520</title>
<ellipse fill="khaki" stroke="black" cx="254" cy="-402" rx="27" ry="18"/>
</g>
<!-- 39777520&#45;&gt;40490928 -->
<g id="edge22" class="edge"><title>39777520&#45;&gt;40490928</title>
<path fill="none" stroke="black" d="M247.011,-419.657C237.225,-444.38 219.349,-489.539 207.832,-518.636"/>
<polygon fill="black" stroke="black" points="204.473,-517.612 204.046,-528.198 210.981,-520.188 204.473,-517.612"/>
</g>
<!-- 39777520&#45;&gt;40266112 -->
<g id="edge24" class="edge"><title>39777520&#45;&gt;40266112</title>
<path fill="none" stroke="black" d="M237.811,-416.57C226.317,-426.915 210.698,-440.971 197.791,-452.588"/>
<polygon fill="black" stroke="black" points="195.257,-450.16 190.165,-459.451 199.939,-455.363 195.257,-450.16"/>
</g>
<!-- 40231168 -->
<g id="node12" class="node"><title>40231168</title>
<ellipse fill="dodgerblue" stroke="black" cx="182" cy="-402" rx="27" ry="18"/>
</g>
<!-- 40231168&#45;&gt;40490928 -->
<g id="edge26" class="edge"><title>40231168&#45;&gt;40490928</title>
<path fill="none" stroke="black" d="M193.308,-418.674C199.578,-428.946 206.748,-442.662 210,-456 215.034,-476.642 211.182,-500.455 206.395,-518.4"/>
<polygon fill="black" stroke="black" points="202.972,-517.638 203.53,-528.219 209.691,-519.6 202.972,-517.638"/>
</g>
<!-- 40231168&#45;&gt;40266112 -->
<g id="edge28" class="edge"><title>40231168&#45;&gt;40266112</title>
<path fill="none" stroke="black" d="M179.981,-420.169C179.126,-427.869 178.108,-437.026 177.157,-445.583"/>
<polygon fill="black" stroke="black" points="173.672,-445.261 176.046,-455.587 180.629,-446.034 173.672,-445.261"/>
</g>
<!-- 39815264 -->
<g id="node13" class="node"><title>39815264</title>
<ellipse fill="#6e8b3d" stroke="black" cx="169" cy="-330" rx="27" ry="18"/>
</g>
<!-- 39815264&#45;&gt;40231168 -->
<g id="edge48" class="edge"><title>39815264&#45;&gt;40231168</title>
<path fill="none" stroke="black" d="M172.28,-348.169C173.692,-355.988 175.375,-365.308 176.94,-373.978"/>
<polygon fill="black" stroke="black" points="173.544,-374.868 178.766,-384.087 180.433,-373.624 173.544,-374.868"/>
</g>
<!-- 38916400 -->
<g id="node20" class="node"><title>38916400</title>
<ellipse fill="dodgerblue" stroke="black" cx="399" cy="-402" rx="27" ry="18"/>
</g>
<!-- 39815264&#45;&gt;38916400 -->
<g id="edge52" class="edge"><title>39815264&#45;&gt;38916400</title>
<path fill="none" stroke="black" stroke-dasharray="1,5" d="M193.614,-337.705C234.748,-350.582 317.562,-376.506 364.494,-391.198"/>
<polygon fill="black" stroke="black" points="363.626,-394.594 374.215,-394.241 365.718,-387.914 363.626,-394.594"/>
</g>
<!-- 32523152 -->
<g id="node14" class="node"><title>32523152</title>
<ellipse fill="khaki" stroke="black" cx="123" cy="-258" rx="27" ry="18"/>
</g>
<!-- 32523152&#45;&gt;40231168 -->
<g id="edge30" class="edge"><title>32523152&#45;&gt;40231168</title>
<path fill="none" stroke="black" d="M121.819,-276.102C121.305,-294.911 122.527,-324.785 133,-348 138.531,-360.261 147.911,-371.646 156.993,-380.771"/>
<polygon fill="black" stroke="black" points="154.803,-383.517 164.461,-387.873 159.627,-378.445 154.803,-383.517"/>
</g>
<!-- 32523152&#45;&gt;39815264 -->
<g id="edge32" class="edge"><title>32523152&#45;&gt;39815264</title>
<path fill="none" stroke="black" d="M133.669,-274.699C139.359,-283.605 146.478,-294.748 152.832,-304.693"/>
<polygon fill="black" stroke="black" points="150.056,-306.849 158.389,-313.391 155.954,-303.08 150.056,-306.849"/>
</g>
<!-- 38976752&#45;&gt;40231168 -->
<g id="edge34" class="edge"><title>38976752&#45;&gt;40231168</title>
<path fill="none" stroke="black" d="M62.2907,-274.717C75.2533,-293.409 97.6225,-324.179 120,-348 131.168,-359.888 144.718,-371.922 156.299,-381.603"/>
<polygon fill="black" stroke="black" points="154.375,-384.552 164.322,-388.201 158.821,-379.146 154.375,-384.552"/>
</g>
<!-- 38976752&#45;&gt;39815264 -->
<g id="edge36" class="edge"><title>38976752&#45;&gt;39815264</title>
<path fill="none" stroke="black" d="M71.0171,-270.214C90.0035,-281.799 118.739,-299.332 140.188,-312.42"/>
<polygon fill="black" stroke="black" points="138.525,-315.505 148.885,-317.726 142.171,-309.53 138.525,-315.505"/>
</g>
<!-- 39203408 -->
<g id="node16" class="node"><title>39203408</title>
<ellipse fill="#eead0e" stroke="black" cx="267" cy="-258" rx="27" ry="18"/>
</g>
<!-- 39203408&#45;&gt;40231168 -->
<g id="edge40" class="edge"><title>39203408&#45;&gt;40231168</title>
<path fill="none" stroke="black" d="M257.083,-274.8C242.383,-299.704 214.685,-346.627 197.351,-375.993"/>
<polygon fill="black" stroke="black" points="194.186,-374.469 192.117,-384.86 200.215,-378.028 194.186,-374.469"/>
</g>
<!-- 39203408&#45;&gt;39815264 -->
<g id="edge42" class="edge"><title>39203408&#45;&gt;39815264</title>
<path fill="none" stroke="black" d="M248.567,-271.543C233.647,-282.504 212.431,-298.091 195.659,-310.414"/>
<polygon fill="black" stroke="black" points="193.337,-307.777 187.35,-316.518 197.482,-313.418 193.337,-307.777"/>
</g>
<!-- 38832272 -->
<g id="node17" class="node"><title>38832272</title>
<ellipse fill="#eead0e" stroke="black" cx="195" cy="-258" rx="27" ry="18"/>
</g>
<!-- 38832272&#45;&gt;40231168 -->
<g id="edge44" class="edge"><title>38832272&#45;&gt;40231168</title>
<path fill="none" stroke="black" d="M200.2,-275.738C204.801,-293.997 210.061,-323.2 205,-348 203.075,-357.43 199.44,-367.253 195.618,-375.894"/>
<polygon fill="black" stroke="black" points="192.394,-374.527 191.305,-385.065 198.728,-377.506 192.394,-374.527"/>
</g>
<!-- 38832272&#45;&gt;39815264 -->
<g id="edge46" class="edge"><title>38832272&#45;&gt;39815264</title>
<path fill="none" stroke="black" d="M188.573,-275.798C185.613,-283.994 182.037,-293.898 178.755,-302.985"/>
<polygon fill="black" stroke="black" points="175.458,-301.813 175.353,-312.407 182.041,-304.19 175.458,-301.813"/>
</g>
<!-- 38804272 -->
<g id="node18" class="node"><title>38804272</title>
<ellipse fill="#eead0e" stroke="black" cx="110" cy="-402" rx="27" ry="18"/>
</g>
<!-- 38804272&#45;&gt;40490928 -->
<g id="edge54" class="edge"><title>38804272&#45;&gt;40490928</title>
<path fill="none" stroke="black" d="M112.741,-420.087C116.262,-439.152 123.705,-469.481 138,-492 146.384,-505.207 158.814,-517.247 170.107,-526.59"/>
<polygon fill="black" stroke="black" points="168.044,-529.422 178.054,-532.895 172.395,-523.938 168.044,-529.422"/>
</g>
<!-- 38804272&#45;&gt;40266112 -->
<g id="edge56" class="edge"><title>38804272&#45;&gt;40266112</title>
<path fill="none" stroke="black" d="M123.887,-417.623C132.525,-427.341 143.789,-440.013 153.45,-450.881"/>
<polygon fill="black" stroke="black" points="150.88,-453.259 160.14,-458.408 156.112,-448.608 150.88,-453.259"/>
</g>
<!-- 38916400&#45;&gt;40231168 -->
<g id="edge50" class="edge"><title>38916400&#45;&gt;40231168</title>
<path fill="none" stroke="black" d="M378.139,-390.515C345.295,-374.001 279.827,-347.469 227,-366 218.769,-368.887 210.925,-373.984 204.159,-379.449"/>
<polygon fill="black" stroke="black" points="201.416,-377.2 196.217,-386.432 206.038,-382.457 201.416,-377.2"/>
</g>
<!-- 39033056 -->
<g id="node21" class="node"><title>39033056</title>
<ellipse fill="#6e8b3d" stroke="black" cx="399" cy="-330" rx="27" ry="18"/>
</g>
<!-- 39033056&#45;&gt;38916400 -->
<g id="edge20" class="edge"><title>39033056&#45;&gt;38916400</title>
<path fill="none" stroke="black" d="M399,-348.169C399,-355.869 399,-365.026 399,-373.583"/>
<polygon fill="black" stroke="black" points="395.5,-373.587 399,-383.587 402.5,-373.587 395.5,-373.587"/>
</g>
<!-- 38962112 -->
<g id="node22" class="node"><title>38962112</title>
<ellipse fill="khaki" stroke="black" cx="353" cy="-258" rx="27" ry="18"/>
</g>
<!-- 38962112&#45;&gt;38916400 -->
<g id="edge6" class="edge"><title>38962112&#45;&gt;38916400</title>
<path fill="none" stroke="black" d="M352.53,-276.158C352.615,-294.752 354.337,-324.218 363,-348 366.818,-358.481 373.067,-368.931 379.295,-377.807"/>
<polygon fill="black" stroke="black" points="376.668,-380.14 385.426,-386.101 382.297,-375.979 376.668,-380.14"/>
</g>
<!-- 38962112&#45;&gt;39033056 -->
<g id="edge8" class="edge"><title>38962112&#45;&gt;39033056</title>
<path fill="none" stroke="black" d="M363.669,-274.699C369.359,-283.605 376.478,-294.748 382.832,-304.693"/>
<polygon fill="black" stroke="black" points="380.056,-306.849 388.389,-313.391 385.954,-303.08 380.056,-306.849"/>
</g>
<!-- 39079920&#45;&gt;38916400 -->
<g id="edge10" class="edge"><title>39079920&#45;&gt;38916400</title>
<path fill="none" stroke="black" d="M487.466,-274.983C476.946,-293.378 459.216,-323.394 442,-348 434.846,-358.224 426.398,-369.065 418.892,-378.329"/>
<polygon fill="black" stroke="black" points="415.964,-376.38 412.328,-386.331 421.376,-380.819 415.964,-376.38"/>
</g>
<!-- 39079920&#45;&gt;39033056 -->
<g id="edge12" class="edge"><title>39079920&#45;&gt;39033056</title>
<path fill="none" stroke="black" d="M478.567,-271.543C463.647,-282.504 442.431,-298.091 425.659,-310.414"/>
<polygon fill="black" stroke="black" points="423.337,-307.777 417.35,-316.518 427.482,-313.418 423.337,-307.777"/>
</g>
<!-- 39532624 -->
<g id="node24" class="node"><title>39532624</title>
<ellipse fill="#eead0e" stroke="black" cx="425" cy="-258" rx="27" ry="18"/>
</g>
<!-- 39532624&#45;&gt;38916400 -->
<g id="edge16" class="edge"><title>39532624&#45;&gt;38916400</title>
<path fill="none" stroke="black" d="M431.04,-275.633C436.415,-294.059 442.38,-323.625 435,-348 431.734,-358.787 425.524,-369.389 419.169,-378.304"/>
<polygon fill="black" stroke="black" points="416.372,-376.2 413.123,-386.284 421.951,-380.427 416.372,-376.2"/>
</g>
<!-- 39532624&#45;&gt;39033056 -->
<g id="edge18" class="edge"><title>39532624&#45;&gt;39033056</title>
<path fill="none" stroke="black" d="M418.573,-275.798C415.613,-283.994 412.037,-293.898 408.755,-302.985"/>
<polygon fill="black" stroke="black" points="405.458,-301.813 405.353,-312.407 412.041,-304.19 405.458,-301.813"/>
</g>
</g>
</svg>
