<?xml version="1.0" encoding="UTF-8" standalone="no"?>
<!DOCTYPE svg PUBLIC "-//W3C//DTD SVG 1.1//EN"
 "http://www.w3.org/Graphics/SVG/1.1/DTD/svg11.dtd">
<!-- Generated by graphviz version 2.26.3 (20100126.1600)
 -->
<!-- Title: _anonymous_0 Pages: 1 -->
<svg width="2392pt" height="1132pt"
 viewBox="0.00 0.00 2392.00 1132.00" xmlns="http://www.w3.org/2000/svg" xmlns:xlink="http://www.w3.org/1999/xlink">
<g id="graph1" class="graph" transform="scale(1 1) rotate(0) translate(4 1128)">
<title>_anonymous_0</title>
<polygon fill="white" stroke="white" points="-4,5 -4,-1128 2389,-1128 2389,5 -4,5"/>
<!-- 40913872 -->
<g id="node3" class="node"><title>40913872</title>
<ellipse fill="firebrick" stroke="black" cx="1415" cy="-339" rx="300.02" ry="46.669"/>
<text text-anchor="middle" x="1415" y="-346.4" font-family="Times Roman,serif" font-size="24.00">exp: (gamma 1.000000 1.000000)</text>
<text text-anchor="middle" x="1415" y="-317.4" font-family="Times Roman,serif" font-size="24.00">value: 0.981780</text>
</g>
<!-- 38976752 -->
<g id="node15" class="node"><title>38976752</title>
<ellipse fill="gold" stroke="black" cx="1089" cy="-599" rx="149.2" ry="46.669"/>
<text text-anchor="middle" x="1089" y="-606.4" font-family="Times Roman,serif" font-size="24.00">exp: x</text>
<text text-anchor="middle" x="1089" y="-577.4" font-family="Times Roman,serif" font-size="24.00">value: 0.981780</text>
</g>
<!-- 40913872&#45;&gt;38976752 -->
<g id="edge44" class="edge"><title>40913872&#45;&gt;38976752</title>
<path fill="none" stroke="black" d="M1357.47,-384.884C1299.65,-430.995 1210.81,-501.85 1151.34,-549.278"/>
<polygon fill="black" stroke="black" points="1149.15,-546.549 1143.52,-555.52 1153.52,-552.021 1149.15,-546.549"/>
</g>
<!-- 39079920 -->
<g id="node23" class="node"><title>39079920</title>
<ellipse fill="darkseagreen" stroke="black" cx="1581" cy="-469" rx="149.2" ry="46.669"/>
<text text-anchor="middle" x="1581" y="-476.4" font-family="Times Roman,serif" font-size="24.00">exp: x</text>
<text text-anchor="middle" x="1581" y="-447.4" font-family="Times Roman,serif" font-size="24.00">value: 0.981780</text>
</g>
<!-- 40913872&#45;&gt;39079920 -->
<g id="edge16" class="edge"><title>40913872&#45;&gt;39079920</title>
<path fill="none" stroke="black" d="M1473.53,-384.833C1487.86,-396.059 1503.26,-408.122 1517.81,-419.51"/>
<polygon fill="black" stroke="black" points="1515.75,-422.348 1525.78,-425.758 1520.07,-416.837 1515.75,-422.348"/>
</g>
<!-- 40814608 -->
<g id="node4" class="node"><title>40814608</title>
<ellipse fill="#8f8f8f" stroke="black" cx="1351" cy="-230" rx="99.9096" ry="26.163"/>
<text text-anchor="middle" x="1351" y="-222.9" font-family="Times Roman,serif" font-size="24.00">request: []</text>
</g>
<!-- 40814608&#45;&gt;40913872 -->
<g id="edge80" class="edge"><title>40814608&#45;&gt;40913872</title>
<path fill="none" stroke="black" d="M1366.17,-255.831C1371.09,-264.218 1376.76,-273.871 1382.45,-283.564"/>
<polygon fill="black" stroke="black" points="1379.58,-285.589 1387.66,-292.441 1385.62,-282.045 1379.58,-285.589"/>
</g>
<!-- 38921376 -->
<g id="node5" class="node"><title>38921376</title>
<ellipse fill="#8f8f8f" stroke="black" cx="1088" cy="-121" rx="159.806" ry="46.669"/>
<text text-anchor="middle" x="1088" y="-128.4" font-family="Times Roman,serif" font-size="24.00">exp: gamma</text>
<text text-anchor="middle" x="1088" y="-99.4" font-family="Times Roman,serif" font-size="24.00">value: sp:gamma</text>
</g>
<!-- 38921376&#45;&gt;40913872 -->
<g id="edge66" class="edge"><title>38921376&#45;&gt;40913872</title>
<path fill="none" stroke="black" d="M1132.5,-165.872C1161.91,-193.992 1202.24,-229.749 1242,-256 1260.89,-268.471 1281.94,-280.169 1302.67,-290.626"/>
<polygon fill="black" stroke="black" points="1301.33,-293.869 1311.84,-295.185 1304.45,-287.6 1301.33,-293.869"/>
</g>
<!-- 38921376&#45;&gt;40814608 -->
<g id="edge68" class="edge"><title>38921376&#45;&gt;40814608</title>
<path fill="none" stroke="black" d="M1179.98,-159.123C1215.85,-173.986 1256.03,-190.64 1288.43,-204.069"/>
<polygon fill="black" stroke="black" points="1287.21,-207.351 1297.79,-207.946 1289.89,-200.884 1287.21,-207.351"/>
</g>
<!-- 39530464 -->
<g id="node6" class="node"><title>39530464</title>
<ellipse fill="#8f8f8f" stroke="black" cx="1415" cy="-121" rx="149.2" ry="46.669"/>
<text text-anchor="middle" x="1415" y="-128.4" font-family="Times Roman,serif" font-size="24.00">exp: 1.000000</text>
<text text-anchor="middle" x="1415" y="-99.4" font-family="Times Roman,serif" font-size="24.00">value: 1.000000</text>
</g>
<!-- 39530464&#45;&gt;40913872 -->
<g id="edge72" class="edge"><title>39530464&#45;&gt;40913872</title>
<path fill="none" stroke="black" d="M1444.99,-166.726C1451.17,-178.418 1456.78,-191.289 1460,-204 1465.68,-226.402 1465.68,-233.598 1460,-256 1457.67,-265.198 1454.09,-274.48 1449.95,-283.338"/>
<polygon fill="black" stroke="black" points="1446.76,-281.881 1445.45,-292.395 1453.03,-284.991 1446.76,-281.881"/>
</g>
<!-- 39530464&#45;&gt;40814608 -->
<g id="edge74" class="edge"><title>39530464&#45;&gt;40814608</title>
<path fill="none" stroke="black" d="M1388.04,-166.91C1382.46,-176.423 1376.66,-186.293 1371.36,-195.324"/>
<polygon fill="black" stroke="black" points="1368.29,-193.634 1366.25,-204.029 1374.33,-197.178 1368.29,-193.634"/>
</g>
<!-- 39640512 -->
<g id="node7" class="node"><title>39640512</title>
<ellipse fill="#8f8f8f" stroke="black" cx="1731" cy="-121" rx="149.2" ry="46.669"/>
<text text-anchor="middle" x="1731" y="-128.4" font-family="Times Roman,serif" font-size="24.00">exp: 1.000000</text>
<text text-anchor="middle" x="1731" y="-99.4" font-family="Times Roman,serif" font-size="24.00">value: 1.000000</text>
</g>
<!-- 39640512&#45;&gt;40913872 -->
<g id="edge76" class="edge"><title>39640512&#45;&gt;40913872</title>
<path fill="none" stroke="black" d="M1669.32,-163.55C1617.73,-199.144 1543.97,-250.024 1489.17,-287.835"/>
<polygon fill="black" stroke="black" points="1487.12,-284.991 1480.88,-293.551 1491.1,-290.753 1487.12,-284.991"/>
</g>
<!-- 39640512&#45;&gt;40814608 -->
<g id="edge78" class="edge"><title>39640512&#45;&gt;40814608</title>
<path fill="none" stroke="black" d="M1623.56,-153.224C1606.65,-158.218 1589.36,-163.282 1573,-168 1525.56,-181.68 1472.27,-196.576 1429.8,-208.338"/>
<polygon fill="black" stroke="black" points="1428.79,-204.988 1420.08,-211.028 1430.65,-211.734 1428.79,-204.988"/>
</g>
<!-- 40490928 -->
<g id="node9" class="node"><title>40490928</title>
<ellipse fill="#63b8ff" stroke="black" cx="1142" cy="-1077" rx="837.214" ry="46.669"/>
<text text-anchor="middle" x="1142" y="-1084.4" font-family="Times Roman,serif" font-size="24.00">exp: (normal (branch_exp x (quote (gamma x 2.000000)) (quote (normal x 2.000000))) 5.000000)</text>
<text text-anchor="middle" x="1142" y="-1055.4" font-family="Times Roman,serif" font-size="24.00">value: 10.000000</text>
</g>
<!-- 40266112 -->
<g id="node10" class="node"><title>40266112</title>
<ellipse fill="#63b8ff" stroke="black" cx="1078" cy="-968" rx="99.9096" ry="26.163"/>
<text text-anchor="middle" x="1078" y="-960.9" font-family="Times Roman,serif" font-size="24.00">request: []</text>
</g>
<!-- 40266112&#45;&gt;40490928 -->
<g id="edge64" class="edge"><title>40266112&#45;&gt;40490928</title>
<path fill="none" stroke="black" d="M1093.17,-993.831C1098.09,-1002.22 1103.76,-1011.87 1109.45,-1021.56"/>
<polygon fill="black" stroke="black" points="1106.58,-1023.59 1114.66,-1030.44 1112.62,-1020.05 1106.58,-1023.59"/>
</g>
<!-- 39777520 -->
<g id="node11" class="node"><title>39777520</title>
<ellipse fill="#8f8f8f" stroke="black" cx="295" cy="-859" rx="154.149" ry="46.669"/>
<text text-anchor="middle" x="295" y="-866.4" font-family="Times Roman,serif" font-size="24.00">exp: normal</text>
<text text-anchor="middle" x="295" y="-837.4" font-family="Times Roman,serif" font-size="24.00">value: sp:normal</text>
</g>
<!-- 39777520&#45;&gt;40490928 -->
<g id="edge24" class="edge"><title>39777520&#45;&gt;40490928</title>
<path fill="none" stroke="black" d="M405.768,-891.515C423.217,-896.471 441.078,-901.447 458,-906 620.756,-949.794 806.314,-995.949 943.058,-1029.25"/>
<polygon fill="black" stroke="black" points="942.275,-1032.67 952.819,-1031.63 943.93,-1025.86 942.275,-1032.67"/>
</g>
<!-- 39777520&#45;&gt;40266112 -->
<g id="edge26" class="edge"><title>39777520&#45;&gt;40266112</title>
<path fill="none" stroke="black" d="M401.737,-892.762C420.353,-897.791 439.636,-902.464 458,-906 635.065,-940.09 844.407,-956.072 968.922,-963.074"/>
<polygon fill="black" stroke="black" points="969.042,-966.586 979.22,-963.644 969.428,-959.597 969.042,-966.586"/>
</g>
<!-- 40231168 -->
<g id="node12" class="node"><title>40231168</title>
<ellipse fill="gold" stroke="black" cx="1142" cy="-859" rx="674.787" ry="46.669"/>
<text text-anchor="middle" x="1142" y="-866.4" font-family="Times Roman,serif" font-size="24.00">exp: (branch_exp x (quote (gamma x 2.000000)) (quote (normal x 2.000000)))</text>
<text text-anchor="middle" x="1142" y="-837.4" font-family="Times Roman,serif" font-size="24.00">value: 0.011688</text>
</g>
<!-- 40231168&#45;&gt;40490928 -->
<g id="edge30" class="edge"><title>40231168&#45;&gt;40490928</title>
<path fill="none" stroke="black" d="M1172.45,-905.605C1178.45,-917.061 1183.86,-929.607 1187,-942 1192.68,-964.402 1192.68,-971.598 1187,-994 1184.67,-1003.2 1181.09,-1012.48 1176.95,-1021.34"/>
<polygon fill="black" stroke="black" points="1173.76,-1019.88 1172.45,-1030.39 1180.03,-1022.99 1173.76,-1019.88"/>
</g>
<!-- 40231168&#45;&gt;40266112 -->
<g id="edge32" class="edge"><title>40231168&#45;&gt;40266112</title>
<path fill="none" stroke="black" d="M1114.67,-905.542C1109.23,-914.818 1103.59,-924.409 1098.43,-933.207"/>
<polygon fill="black" stroke="black" points="1095.29,-931.648 1093.24,-942.043 1101.32,-935.192 1095.29,-931.648"/>
</g>
<!-- 39815264 -->
<g id="node13" class="node"><title>39815264</title>
<ellipse fill="gold" stroke="black" cx="1026" cy="-729" rx="456.791" ry="26.163"/>
<text text-anchor="middle" x="1026" y="-721.9" font-family="Times Roman,serif" font-size="24.00">request: [(39815264, (gamma x 2.000000), &lt;env&gt;)]</text>
</g>
<!-- 39815264&#45;&gt;40231168 -->
<g id="edge54" class="edge"><title>39815264&#45;&gt;40231168</title>
<path fill="none" stroke="black" d="M1049.2,-754.995C1061.92,-769.26 1078.2,-787.502 1093.56,-804.713"/>
<polygon fill="black" stroke="black" points="1091.27,-807.399 1100.53,-812.53 1096.49,-802.739 1091.27,-807.399"/>
</g>
<!-- 38916400 -->
<g id="node20" class="node"><title>38916400</title>
<ellipse fill="darkseagreen" stroke="black" cx="1908" cy="-729" rx="231.224" ry="46.669"/>
<text text-anchor="middle" x="1908" y="-736.4" font-family="Times Roman,serif" font-size="24.00">exp: (gamma x 2.000000)</text>
<text text-anchor="middle" x="1908" y="-707.4" font-family="Times Roman,serif" font-size="24.00">value: 0.011688</text>
</g>
<!-- 39815264&#45;&gt;38916400 -->
<g id="edge58" class="edge"><title>39815264&#45;&gt;38916400</title>
<path fill="none" stroke="black" stroke-dasharray="1,5" d="M1483.37,-729C1544.38,-729 1605.4,-729 1666.42,-729"/>
<polygon fill="black" stroke="black" points="1666.61,-732.5 1676.61,-729 1666.61,-725.5 1666.61,-732.5"/>
</g>
<!-- 32523152 -->
<g id="node14" class="node"><title>32523152</title>
<ellipse fill="#8f8f8f" stroke="black" cx="154" cy="-599" rx="154.149" ry="46.669"/>
<text text-anchor="middle" x="154" y="-606.4" font-family="Times Roman,serif" font-size="24.00">exp: branch_exp</text>
<text text-anchor="middle" x="154" y="-577.4" font-family="Times Roman,serif" font-size="24.00">value: sp:branch</text>
</g>
<!-- 32523152&#45;&gt;40231168 -->
<g id="edge34" class="edge"><title>32523152&#45;&gt;40231168</title>
<path fill="none" stroke="black" d="M253.154,-634.717C289.39,-648.531 330.442,-665.081 367,-682 446.769,-718.916 457.463,-748.662 541,-776 586.261,-790.812 674.531,-805.516 769.781,-818.339"/>
<polygon fill="black" stroke="black" points="769.543,-821.839 779.918,-819.694 770.47,-814.9 769.543,-821.839"/>
</g>
<!-- 32523152&#45;&gt;39815264 -->
<g id="edge36" class="edge"><title>32523152&#45;&gt;39815264</title>
<path fill="none" stroke="black" d="M261.228,-632.619C279.702,-637.633 298.81,-642.339 317,-646 457.315,-674.244 615.326,-693.896 746.51,-706.961"/>
<polygon fill="black" stroke="black" points="746.411,-710.468 756.707,-707.969 747.1,-703.502 746.411,-710.468"/>
</g>
<!-- 38976752&#45;&gt;40231168 -->
<g id="edge40" class="edge"><title>38976752&#45;&gt;40231168</title>
<path fill="none" stroke="black" d="M1193.41,-632.348C1211.18,-637.363 1229.53,-642.14 1247,-646 1300.73,-657.875 1456.03,-640.356 1492,-682 1519.31,-713.616 1517.91,-743.227 1492,-776 1480.41,-790.658 1455.12,-802.999 1423.15,-813.304"/>
<polygon fill="black" stroke="black" points="1422.02,-809.993 1413.5,-816.297 1424.09,-816.679 1422.02,-809.993"/>
</g>
<!-- 38976752&#45;&gt;39815264 -->
<g id="edge42" class="edge"><title>38976752&#45;&gt;39815264</title>
<path fill="none" stroke="black" d="M1066.61,-645.199C1058.89,-661.124 1050.38,-678.695 1043.15,-693.618"/>
<polygon fill="black" stroke="black" points="1039.81,-692.472 1038.6,-702.998 1046.11,-695.525 1039.81,-692.472"/>
</g>
<!-- 39203408 -->
<g id="node16" class="node"><title>39203408</title>
<ellipse fill="#8f8f8f" stroke="black" cx="624" cy="-599" rx="297.899" ry="46.669"/>
<text text-anchor="middle" x="624" y="-606.4" font-family="Times Roman,serif" font-size="24.00">exp: (quote (gamma x 2.000000))</text>
<text text-anchor="middle" x="624" y="-577.4" font-family="Times Roman,serif" font-size="24.00">value: (gamma x 2.000000)</text>
</g>
<!-- 39203408&#45;&gt;40231168 -->
<g id="edge46" class="edge"><title>39203408&#45;&gt;40231168</title>
<path fill="none" stroke="black" d="M579.862,-645.43C571.718,-656.61 564.402,-669.082 560,-682 546.524,-721.545 532.623,-744.442 560,-776 574.485,-792.697 645.809,-807.598 733.848,-820.006"/>
<polygon fill="black" stroke="black" points="733.43,-823.482 743.817,-821.391 734.394,-816.548 733.43,-823.482"/>
</g>
<!-- 39203408&#45;&gt;39815264 -->
<g id="edge48" class="edge"><title>39203408&#45;&gt;39815264</title>
<path fill="none" stroke="black" d="M753.685,-640.938C813.646,-660.328 883.334,-682.864 937.203,-700.284"/>
<polygon fill="black" stroke="black" points="936.137,-703.618 946.729,-703.365 938.291,-696.958 936.137,-703.618"/>
</g>
<!-- 38832272 -->
<g id="node17" class="node"><title>38832272</title>
<ellipse fill="#8f8f8f" stroke="black" cx="1549" cy="-599" rx="292.949" ry="46.669"/>
<text text-anchor="middle" x="1549" y="-606.4" font-family="Times Roman,serif" font-size="24.00">exp: (quote (normal x 2.000000))</text>
<text text-anchor="middle" x="1549" y="-577.4" font-family="Times Roman,serif" font-size="24.00">value: (normal x 2.000000)</text>
</g>
<!-- 38832272&#45;&gt;40231168 -->
<g id="edge50" class="edge"><title>38832272&#45;&gt;40231168</title>
<path fill="none" stroke="black" d="M1553.12,-645.615C1553.95,-685.511 1548.25,-741.769 1515,-776 1500.57,-790.853 1471.01,-803.398 1434.54,-813.876"/>
<polygon fill="black" stroke="black" points="1433.3,-810.587 1424.6,-816.636 1435.17,-817.332 1433.3,-810.587"/>
</g>
<!-- 38832272&#45;&gt;39815264 -->
<g id="edge52" class="edge"><title>38832272&#45;&gt;39815264</title>
<path fill="none" stroke="black" d="M1391.02,-638.269C1309.43,-658.549 1211.81,-682.814 1138.06,-701.146"/>
<polygon fill="black" stroke="black" points="1137.14,-697.769 1128.27,-703.578 1138.82,-704.562 1137.14,-697.769"/>
</g>
<!-- 38804272 -->
<g id="node18" class="node"><title>38804272</title>
<ellipse fill="#8f8f8f" stroke="black" cx="1984" cy="-859" rx="149.2" ry="46.669"/>
<text text-anchor="middle" x="1984" y="-866.4" font-family="Times Roman,serif" font-size="24.00">exp: 5.000000</text>
<text text-anchor="middle" x="1984" y="-837.4" font-family="Times Roman,serif" font-size="24.00">value: 5.000000</text>
</g>
<!-- 38804272&#45;&gt;40490928 -->
<g id="edge60" class="edge"><title>38804272&#45;&gt;40490928</title>
<path fill="none" stroke="black" d="M1877.09,-891.496C1860.04,-896.48 1842.56,-901.469 1826,-906 1664.01,-950.32 1479.17,-996.253 1342.52,-1029.34"/>
<polygon fill="black" stroke="black" points="1341.66,-1025.95 1332.76,-1031.7 1343.31,-1032.75 1341.66,-1025.95"/>
</g>
<!-- 38804272&#45;&gt;40266112 -->
<g id="edge62" class="edge"><title>38804272&#45;&gt;40266112</title>
<path fill="none" stroke="black" d="M1881.49,-892.825C1863.17,-897.912 1844.14,-902.588 1826,-906 1601.99,-948.134 1334.87,-961.635 1188.14,-965.961"/>
<polygon fill="black" stroke="black" points="1187.68,-962.473 1177.79,-966.257 1187.88,-969.47 1187.68,-962.473"/>
</g>
<!-- 38916400&#45;&gt;40231168 -->
<g id="edge56" class="edge"><title>38916400&#45;&gt;40231168</title>
<path fill="none" stroke="black" d="M1731.3,-758.988C1634.9,-775.349 1513.64,-795.928 1406.22,-814.159"/>
<polygon fill="black" stroke="black" points="1405.47,-810.735 1396.2,-815.859 1406.64,-817.636 1405.47,-810.735"/>
</g>
<!-- 39033056 -->
<g id="node21" class="node"><title>39033056</title>
<ellipse fill="darkseagreen" stroke="black" cx="2036" cy="-599" rx="99.9096" ry="26.163"/>
<text text-anchor="middle" x="2036" y="-591.9" font-family="Times Roman,serif" font-size="24.00">request: []</text>
</g>
<!-- 39033056&#45;&gt;38916400 -->
<g id="edge22" class="edge"><title>39033056&#45;&gt;38916400</title>
<path fill="none" stroke="black" d="M2011.02,-624.374C1996.63,-638.986 1977.99,-657.918 1960.53,-675.654"/>
<polygon fill="black" stroke="black" points="1957.65,-673.584 1953.13,-683.165 1962.64,-678.495 1957.65,-673.584"/>
</g>
<!-- 38962112 -->
<g id="node22" class="node"><title>38962112</title>
<ellipse fill="darkseagreen" stroke="black" cx="1908" cy="-469" rx="159.806" ry="46.669"/>
<text text-anchor="middle" x="1908" y="-476.4" font-family="Times Roman,serif" font-size="24.00">exp: gamma</text>
<text text-anchor="middle" x="1908" y="-447.4" font-family="Times Roman,serif" font-size="24.00">value: sp:gamma</text>
</g>
<!-- 38962112&#45;&gt;38916400 -->
<g id="edge6" class="edge"><title>38962112&#45;&gt;38916400</title>
<path fill="none" stroke="black" d="M1908,-515.783C1908,-559.55 1908,-625.027 1908,-671.865"/>
<polygon fill="black" stroke="black" points="1904.5,-672.155 1908,-682.155 1911.5,-672.155 1904.5,-672.155"/>
</g>
<!-- 38962112&#45;&gt;39033056 -->
<g id="edge8" class="edge"><title>38962112&#45;&gt;39033056</title>
<path fill="none" stroke="black" d="M1952.05,-513.739C1968.95,-530.907 1987.92,-550.17 2003.54,-566.037"/>
<polygon fill="black" stroke="black" points="2001.41,-568.859 2010.92,-573.529 2006.4,-563.948 2001.41,-568.859"/>
</g>
<!-- 39079920&#45;&gt;38916400 -->
<g id="edge12" class="edge"><title>39079920&#45;&gt;38916400</title>
<path fill="none" stroke="black" d="M1689.4,-501.094C1763.12,-523.116 1847.86,-548.905 1851,-552 1883.06,-583.639 1897.11,-633.371 1903.25,-672.073"/>
<polygon fill="black" stroke="black" points="1899.81,-672.77 1904.72,-682.164 1906.74,-671.765 1899.81,-672.77"/>
</g>
<!-- 39079920&#45;&gt;39033056 -->
<g id="edge14" class="edge"><title>39079920&#45;&gt;39033056</title>
<path fill="none" stroke="black" d="M1687.9,-501.52C1704.95,-506.5 1722.43,-511.482 1739,-516 1803.06,-533.471 1820.03,-534.185 1884,-552 1909.96,-559.229 1938.2,-567.774 1963.22,-575.581"/>
<polygon fill="black" stroke="black" points="1962.42,-578.996 1973.01,-578.646 1964.51,-572.316 1962.42,-578.996"/>
</g>
<!-- 39532624 -->
<g id="node24" class="node"><title>39532624</title>
<ellipse fill="darkseagreen" stroke="black" cx="2235" cy="-469" rx="149.2" ry="46.669"/>
<text text-anchor="middle" x="2235" y="-476.4" font-family="Times Roman,serif" font-size="24.00">exp: 2.000000</text>
<text text-anchor="middle" x="2235" y="-447.4" font-family="Times Roman,serif" font-size="24.00">value: 2.000000</text>
</g>
<!-- 39532624&#45;&gt;38916400 -->
<g id="edge18" class="edge"><title>39532624&#45;&gt;38916400</title>
<path fill="none" stroke="black" d="M2222.17,-515.429C2208.93,-555.203 2184.57,-611.389 2145,-646 2123.72,-664.614 2098.01,-679.124 2071.48,-690.414"/>
<polygon fill="black" stroke="black" points="2069.99,-687.241 2062.07,-694.275 2072.65,-693.717 2069.99,-687.241"/>
</g>
<!-- 39532624&#45;&gt;39033056 -->
<g id="edge20" class="edge"><title>39532624&#45;&gt;39033056</title>
<path fill="none" stroke="black" d="M2170.67,-511.028C2141.69,-529.956 2108.15,-551.867 2081.79,-569.086"/>
<polygon fill="black" stroke="black" points="2079.6,-566.336 2073.14,-574.735 2083.43,-572.196 2079.6,-566.336"/>
</g>
<!-- 33325200 -->
<g id="node27" class="node"><title>33325200</title>
<ellipse fill="none" stroke="black" cx="1498" cy="-19" rx="62.9325" ry="18.3848"/>
<text text-anchor="middle" x="1498" y="-15.4" font-family="Times Roman,serif" font-size="14.00">33325200</text>
</g>
<!-- 33325200&#45;&gt;38921376 -->
<g id="edge70" class="edge"><title>33325200&#45;&gt;38921376</title>
<path fill="none" stroke="black" d="M1447.06,-29.8994C1398.16,-40.5313 1322.32,-57.4732 1257,-74 1242.47,-77.6766 1227.28,-81.6767 1212.22,-85.7401"/>
<polygon fill="black" stroke="black" points="1211.09,-82.4211 1202.35,-88.4168 1212.92,-89.177 1211.09,-82.4211"/>
</g>
<!-- 33325200&#45;&gt;38962112 -->
<g id="edge10" class="edge"><title>33325200&#45;&gt;38962112</title>
<path fill="none" stroke="black" d="M1559.43,-23.3809C1663.92,-31.4474 1867.14,-50.0397 1889,-74 1973.46,-166.577 1947.14,-327.938 1925.08,-412.939"/>
<polygon fill="black" stroke="black" points="1921.68,-412.103 1922.48,-422.667 1928.44,-413.906 1921.68,-412.103"/>
</g>
<!-- 33439504 -->
<g id="node37" class="node"><title>33439504</title>
<ellipse fill="none" stroke="black" cx="295" cy="-729" rx="62.9325" ry="18.3848"/>
<text text-anchor="middle" x="295" y="-725.4" font-family="Times Roman,serif" font-size="14.00">33439504</text>
</g>
<!-- 33439504&#45;&gt;39777520 -->
<g id="edge28" class="edge"><title>33439504&#45;&gt;39777520</title>
<path fill="none" stroke="black" d="M295,-747.626C295,-761.974 295,-782.614 295,-802.236"/>
<polygon fill="black" stroke="black" points="291.5,-802.365 295,-812.365 298.5,-802.365 291.5,-802.365"/>
</g>
<!-- 34154224 -->
<g id="node43" class="node"><title>34154224</title>
<ellipse fill="none" stroke="black" cx="154" cy="-469" rx="62.9325" ry="18.3848"/>
<text text-anchor="middle" x="154" y="-465.4" font-family="Times Roman,serif" font-size="14.00">34154224</text>
</g>
<!-- 34154224&#45;&gt;32523152 -->
<g id="edge38" class="edge"><title>34154224&#45;&gt;32523152</title>
<path fill="none" stroke="black" d="M154,-487.626C154,-501.974 154,-522.614 154,-542.236"/>
<polygon fill="black" stroke="black" points="150.5,-542.365 154,-552.365 157.5,-542.365 150.5,-542.365"/>
</g>
</g>
</svg>
