<?xml version="1.0" encoding="UTF-8" standalone="no"?>
<!DOCTYPE svg PUBLIC "-//W3C//DTD SVG 1.1//EN"
 "http://www.w3.org/Graphics/SVG/1.1/DTD/svg11.dtd">
<!-- Generated by graphviz version 2.26.3 (20100126.1600)
 -->
<!-- Title: _anonymous_0 Pages: 1 -->
<svg width="479pt" height="620pt"
 viewBox="0.00 0.00 479.00 620.00" xmlns="http://www.w3.org/2000/svg" xmlns:xlink="http://www.w3.org/1999/xlink">
<g id="graph1" class="graph" transform="scale(1 1) rotate(0) translate(4 616)">
<title>_anonymous_0</title>
<polygon fill="white" stroke="white" points="-4,5 -4,-616 476,-616 476,5 -4,5"/>
<!-- 40913872 -->
<g id="node3" class="node"><title>40913872</title>
<ellipse fill="firebrick" stroke="black" cx="302" cy="-162" rx="27" ry="18"/>
</g>
<!-- 38976752 -->
<g id="node15" class="node"><title>38976752</title>
<ellipse fill="gold" stroke="black" cx="99" cy="-306" rx="27" ry="18"/>
</g>
<!-- 40913872&#45;&gt;38976752 -->
<g id="edge38" class="edge"><title>40913872&#45;&gt;38976752</title>
<path fill="none" stroke="black" d="M283.266,-175.289C247.162,-200.9 167.827,-257.177 126.013,-286.838"/>
<polygon fill="black" stroke="black" points="123.82,-284.103 117.689,-292.743 127.87,-289.812 123.82,-284.103"/>
</g>
<!-- 39079920 -->
<g id="node23" class="node"><title>39079920</title>
<ellipse fill="gold" stroke="black" cx="370" cy="-234" rx="27" ry="18"/>
</g>
<!-- 40913872&#45;&gt;39079920 -->
<g id="edge14" class="edge"><title>40913872&#45;&gt;39079920</title>
<path fill="none" stroke="black" d="M316.421,-177.269C325.797,-187.197 338.187,-200.315 348.69,-211.436"/>
<polygon fill="black" stroke="black" points="346.189,-213.886 355.6,-218.753 351.278,-209.079 346.189,-213.886"/>
</g>
<!-- 40814608 -->
<g id="node4" class="node"><title>40814608</title>
<ellipse fill="#8f8f8f" stroke="black" cx="275" cy="-90" rx="27" ry="18"/>
</g>
<!-- 40814608&#45;&gt;40913872 -->
<g id="edge72" class="edge"><title>40814608&#45;&gt;40913872</title>
<path fill="none" stroke="black" d="M281.674,-107.798C284.748,-115.994 288.462,-125.898 291.87,-134.985"/>
<polygon fill="black" stroke="black" points="288.614,-136.273 295.403,-144.407 295.168,-133.815 288.614,-136.273"/>
</g>
<!-- 38921376 -->
<g id="node5" class="node"><title>38921376</title>
<ellipse fill="#8f8f8f" stroke="black" cx="222" cy="-18" rx="27" ry="18"/>
</g>
<!-- 38921376&#45;&gt;40913872 -->
<g id="edge60" class="edge"><title>38921376&#45;&gt;40913872</title>
<path fill="none" stroke="black" d="M221.962,-36.1202C222.679,-55.212 226.022,-85.5642 239,-108 247.322,-122.387 260.939,-134.774 273.388,-144.042"/>
<polygon fill="black" stroke="black" points="271.555,-147.032 281.741,-149.946 275.595,-141.316 271.555,-147.032"/>
</g>
<!-- 38921376&#45;&gt;40814608 -->
<g id="edge62" class="edge"><title>38921376&#45;&gt;40814608</title>
<path fill="none" stroke="black" d="M234.027,-34.3379C240.803,-43.5436 249.401,-55.2236 256.969,-65.5047"/>
<polygon fill="black" stroke="black" points="254.274,-67.7482 263.021,-73.7267 259.912,-63.5985 254.274,-67.7482"/>
</g>
<!-- 39530464 -->
<g id="node6" class="node"><title>39530464</title>
<ellipse fill="#8f8f8f" stroke="black" cx="295" cy="-18" rx="27" ry="18"/>
</g>
<!-- 39530464&#45;&gt;40913872 -->
<g id="edge64" class="edge"><title>39530464&#45;&gt;40913872</title>
<path fill="none" stroke="black" d="M301.653,-35.7104C305.204,-46.1139 309.204,-59.6139 311,-72 314,-92.6881 311.447,-116.198 308.304,-134"/>
<polygon fill="black" stroke="black" points="304.83,-133.531 306.369,-144.013 311.702,-134.859 304.83,-133.531"/>
</g>
<!-- 39530464&#45;&gt;40814608 -->
<g id="edge66" class="edge"><title>39530464&#45;&gt;40814608</title>
<path fill="none" stroke="black" d="M290.056,-35.7978C287.821,-43.8459 285.127,-53.5412 282.641,-62.4933"/>
<polygon fill="black" stroke="black" points="279.26,-61.5855 279.956,-72.1575 286.005,-63.459 279.26,-61.5855"/>
</g>
<!-- 39640512 -->
<g id="node7" class="node"><title>39640512</title>
<ellipse fill="#8f8f8f" stroke="black" cx="367" cy="-18" rx="27" ry="18"/>
</g>
<!-- 39640512&#45;&gt;40913872 -->
<g id="edge68" class="edge"><title>39640512&#45;&gt;40913872</title>
<path fill="none" stroke="black" d="M359.159,-35.3698C347.935,-60.2362 327.191,-106.193 314.02,-135.371"/>
<polygon fill="black" stroke="black" points="310.792,-134.014 309.868,-144.569 317.173,-136.894 310.792,-134.014"/>
</g>
<!-- 39640512&#45;&gt;40814608 -->
<g id="edge70" class="edge"><title>39640512&#45;&gt;40814608</title>
<path fill="none" stroke="black" d="M349.261,-31.8823C335.516,-42.6398 316.273,-57.6991 300.82,-69.7928"/>
<polygon fill="black" stroke="black" points="298.402,-67.2409 292.684,-76.1603 302.716,-72.7534 298.402,-67.2409"/>
</g>
<!-- 40490928 -->
<g id="node9" class="node"><title>40490928</title>
<ellipse fill="#63b8ff" stroke="black" cx="186" cy="-594" rx="27" ry="18"/>
</g>
<!-- 40266112 -->
<g id="node10" class="node"><title>40266112</title>
<ellipse fill="#63b8ff" stroke="black" cx="159" cy="-522" rx="27" ry="18"/>
</g>
<!-- 40266112&#45;&gt;40490928 -->
<g id="edge58" class="edge"><title>40266112&#45;&gt;40490928</title>
<path fill="none" stroke="black" d="M165.674,-539.798C168.748,-547.994 172.462,-557.898 175.87,-566.985"/>
<polygon fill="black" stroke="black" points="172.614,-568.273 179.403,-576.407 179.168,-565.815 172.614,-568.273"/>
</g>
<!-- 39777520 -->
<g id="node11" class="node"><title>39777520</title>
<ellipse fill="#8f8f8f" stroke="black" cx="104" cy="-450" rx="27" ry="18"/>
</g>
<!-- 39777520&#45;&gt;40490928 -->
<g id="edge22" class="edge"><title>39777520&#45;&gt;40490928</title>
<path fill="none" stroke="black" d="M104.445,-468.138C105.653,-487.244 109.726,-517.609 123,-540 131.475,-554.297 145.108,-566.675 157.527,-575.961"/>
<polygon fill="black" stroke="black" points="155.675,-578.938 165.853,-581.88 159.731,-573.233 155.675,-578.938"/>
</g>
<!-- 39777520&#45;&gt;40266112 -->
<g id="edge24" class="edge"><title>39777520&#45;&gt;40266112</title>
<path fill="none" stroke="black" d="M116.48,-466.338C123.512,-475.544 132.435,-487.224 140.288,-497.505"/>
<polygon fill="black" stroke="black" points="137.717,-499.905 146.569,-505.727 143.28,-495.655 137.717,-499.905"/>
</g>
<!-- 40231168 -->
<g id="node12" class="node"><title>40231168</title>
<ellipse fill="gold" stroke="black" cx="177" cy="-450" rx="27" ry="18"/>
</g>
<!-- 40231168&#45;&gt;40490928 -->
<g id="edge26" class="edge"><title>40231168&#45;&gt;40490928</title>
<path fill="none" stroke="black" d="M184.48,-467.636C188.474,-478.014 192.974,-491.514 195,-504 198.349,-524.635 195.781,-548.146 192.544,-565.963"/>
<polygon fill="black" stroke="black" points="189.069,-565.495 190.546,-575.986 195.934,-566.864 189.069,-565.495"/>
</g>
<!-- 40231168&#45;&gt;40266112 -->
<g id="edge28" class="edge"><title>40231168&#45;&gt;40266112</title>
<path fill="none" stroke="black" d="M172.551,-467.798C170.56,-475.759 168.167,-485.333 165.949,-494.204"/>
<polygon fill="black" stroke="black" points="162.491,-493.607 163.461,-504.157 169.282,-495.305 162.491,-493.607"/>
</g>
<!-- 39815264 -->
<g id="node13" class="node"><title>39815264</title>
<ellipse fill="gold" stroke="black" cx="150" cy="-378" rx="27" ry="18"/>
</g>
<!-- 39815264&#45;&gt;40231168 -->
<g id="edge48" class="edge"><title>39815264&#45;&gt;40231168</title>
<path fill="none" stroke="black" d="M156.674,-395.798C159.748,-403.994 163.462,-413.898 166.87,-422.985"/>
<polygon fill="black" stroke="black" points="163.614,-424.273 170.403,-432.407 170.168,-421.815 163.614,-424.273"/>
</g>
<!-- 38916400 -->
<g id="node20" class="node"><title>38916400</title>
<ellipse fill="#63b8ff" stroke="black" cx="353" cy="-378" rx="27" ry="18"/>
</g>
<!-- 39815264&#45;&gt;38916400 -->
<g id="edge52" class="edge"><title>39815264&#45;&gt;38916400</title>
<path fill="none" stroke="black" stroke-dasharray="1,5" d="M177.357,-378C223.487,-378 269.616,-378 315.745,-378"/>
<polygon fill="black" stroke="black" points="315.899,-381.5 325.899,-378 315.899,-374.5 315.899,-381.5"/>
</g>
<!-- 32523152 -->
<g id="node14" class="node"><title>32523152</title>
<ellipse fill="#8f8f8f" stroke="black" cx="27" cy="-306" rx="27" ry="18"/>
</g>
<!-- 32523152&#45;&gt;40231168 -->
<g id="edge30" class="edge"><title>32523152&#45;&gt;40231168</title>
<path fill="none" stroke="black" d="M37.9699,-322.845C50.8963,-341.927 73.7095,-373.315 98,-396 113.022,-410.029 131.975,-423.11 147.551,-432.883"/>
<polygon fill="black" stroke="black" points="145.923,-435.99 156.277,-438.237 149.584,-430.024 145.923,-435.99"/>
</g>
<!-- 32523152&#45;&gt;39815264 -->
<g id="edge32" class="edge"><title>32523152&#45;&gt;39815264</title>
<path fill="none" stroke="black" d="M47.3109,-317.889C67.3412,-329.614 98.1596,-347.654 120.811,-360.914"/>
<polygon fill="black" stroke="black" points="119.261,-364.062 129.659,-366.093 122.797,-358.021 119.261,-364.062"/>
</g>
<!-- 38976752&#45;&gt;40231168 -->
<g id="edge34" class="edge"><title>38976752&#45;&gt;40231168</title>
<path fill="none" stroke="black" d="M98.4774,-324.1C98.7008,-343.174 101.313,-373.512 114,-396 122.167,-410.476 135.769,-422.872 148.248,-432.122"/>
<polygon fill="black" stroke="black" points="146.433,-435.125 156.627,-438.011 150.458,-429.398 146.433,-435.125"/>
</g>
<!-- 38976752&#45;&gt;39815264 -->
<g id="edge36" class="edge"><title>38976752&#45;&gt;39815264</title>
<path fill="none" stroke="black" d="M110.573,-322.338C116.937,-331.323 124.972,-342.666 132.124,-352.764"/>
<polygon fill="black" stroke="black" points="129.483,-355.09 138.119,-361.227 135.195,-351.044 129.483,-355.09"/>
</g>
<!-- 39203408 -->
<g id="node16" class="node"><title>39203408</title>
<ellipse fill="#8f8f8f" stroke="black" cx="171" cy="-306" rx="27" ry="18"/>
</g>
<!-- 39203408&#45;&gt;40231168 -->
<g id="edge40" class="edge"><title>39203408&#45;&gt;40231168</title>
<path fill="none" stroke="black" d="M177.238,-323.745C180.568,-334.16 184.318,-347.66 186,-360 188.823,-380.713 186.277,-404.221 183.181,-422.017"/>
<polygon fill="black" stroke="black" points="179.708,-421.548 181.279,-432.026 186.585,-422.855 179.708,-421.548"/>
</g>
<!-- 39203408&#45;&gt;39815264 -->
<g id="edge42" class="edge"><title>39203408&#45;&gt;39815264</title>
<path fill="none" stroke="black" d="M165.809,-323.798C163.462,-331.846 160.634,-341.541 158.023,-350.493"/>
<polygon fill="black" stroke="black" points="154.644,-349.577 155.204,-360.157 161.364,-351.537 154.644,-349.577"/>
</g>
<!-- 38832272 -->
<g id="node17" class="node"><title>38832272</title>
<ellipse fill="#8f8f8f" stroke="black" cx="243" cy="-306" rx="27" ry="18"/>
</g>
<!-- 38832272&#45;&gt;40231168 -->
<g id="edge44" class="edge"><title>38832272&#45;&gt;40231168</title>
<path fill="none" stroke="black" d="M235.039,-323.37C223.642,-348.236 202.578,-394.193 189.205,-423.371"/>
<polygon fill="black" stroke="black" points="185.974,-422.02 184.989,-432.569 192.338,-424.936 185.974,-422.02"/>
</g>
<!-- 38832272&#45;&gt;39815264 -->
<g id="edge46" class="edge"><title>38832272&#45;&gt;39815264</title>
<path fill="none" stroke="black" d="M225.069,-319.882C211.174,-330.64 191.722,-345.699 176.101,-357.793"/>
<polygon fill="black" stroke="black" points="173.641,-355.271 167.876,-364.16 177.926,-360.806 173.641,-355.271"/>
</g>
<!-- 38804272 -->
<g id="node18" class="node"><title>38804272</title>
<ellipse fill="#8f8f8f" stroke="black" cx="251" cy="-450" rx="27" ry="18"/>
</g>
<!-- 38804272&#45;&gt;40490928 -->
<g id="edge54" class="edge"><title>38804272&#45;&gt;40490928</title>
<path fill="none" stroke="black" d="M243.159,-467.37C231.935,-492.236 211.191,-538.193 198.02,-567.371"/>
<polygon fill="black" stroke="black" points="194.792,-566.014 193.868,-576.569 201.173,-568.894 194.792,-566.014"/>
</g>
<!-- 38804272&#45;&gt;40266112 -->
<g id="edge56" class="edge"><title>38804272&#45;&gt;40266112</title>
<path fill="none" stroke="black" d="M233.261,-463.882C219.516,-474.64 200.273,-489.699 184.82,-501.793"/>
<polygon fill="black" stroke="black" points="182.402,-499.241 176.684,-508.16 186.716,-504.753 182.402,-499.241"/>
</g>
<!-- 38916400&#45;&gt;40231168 -->
<g id="edge50" class="edge"><title>38916400&#45;&gt;40231168</title>
<path fill="none" stroke="black" d="M328.861,-386.865C301.152,-397.176 254.443,-414.965 215,-432 212.795,-432.952 210.529,-433.957 208.254,-434.986"/>
<polygon fill="black" stroke="black" points="206.594,-431.897 198.985,-439.269 209.531,-438.251 206.594,-431.897"/>
</g>
<!-- 39033056 -->
<g id="node21" class="node"><title>39033056</title>
<ellipse fill="#63b8ff" stroke="black" cx="353" cy="-306" rx="27" ry="18"/>
</g>
<!-- 39033056&#45;&gt;38916400 -->
<g id="edge20" class="edge"><title>39033056&#45;&gt;38916400</title>
<path fill="none" stroke="black" d="M353,-324.169C353,-331.869 353,-341.026 353,-349.583"/>
<polygon fill="black" stroke="black" points="349.5,-349.587 353,-359.587 356.5,-349.587 349.5,-349.587"/>
</g>
<!-- 38962112 -->
<g id="node22" class="node"><title>38962112</title>
<ellipse fill="#8f8f8f" stroke="black" cx="298" cy="-234" rx="27" ry="18"/>
</g>
<!-- 38962112&#45;&gt;38916400 -->
<g id="edge6" class="edge"><title>38962112&#45;&gt;38916400</title>
<path fill="none" stroke="black" d="M299.79,-252.192C302.089,-270.812 307.034,-300.299 317,-324 321.324,-334.283 327.687,-344.688 333.866,-353.584"/>
<polygon fill="black" stroke="black" points="331.2,-355.87 339.901,-361.915 336.869,-351.763 331.2,-355.87"/>
</g>
<!-- 38962112&#45;&gt;39033056 -->
<g id="edge8" class="edge"><title>38962112&#45;&gt;39033056</title>
<path fill="none" stroke="black" d="M310.48,-250.338C317.512,-259.544 326.435,-271.224 334.288,-281.505"/>
<polygon fill="black" stroke="black" points="331.717,-283.905 340.569,-289.727 337.28,-279.655 331.717,-283.905"/>
</g>
<!-- 39079920&#45;&gt;38916400 -->
<g id="edge10" class="edge"><title>39079920&#45;&gt;38916400</title>
<path fill="none" stroke="black" d="M378.687,-251.139C386.778,-269.412 396.543,-299.087 389,-324 385.734,-334.787 379.524,-345.389 373.169,-354.304"/>
<polygon fill="black" stroke="black" points="370.372,-352.2 367.123,-362.284 375.951,-356.427 370.372,-352.2"/>
</g>
<!-- 39079920&#45;&gt;39033056 -->
<g id="edge12" class="edge"><title>39079920&#45;&gt;39033056</title>
<path fill="none" stroke="black" d="M365.798,-251.798C363.918,-259.759 361.658,-269.333 359.563,-278.204"/>
<polygon fill="black" stroke="black" points="356.104,-277.621 357.213,-288.157 362.917,-279.229 356.104,-277.621"/>
</g>
<!-- 39532624 -->
<g id="node24" class="node"><title>39532624</title>
<ellipse fill="#8f8f8f" stroke="black" cx="444" cy="-234" rx="27" ry="18"/>
</g>
<!-- 39532624&#45;&gt;38916400 -->
<g id="edge16" class="edge"><title>39532624&#45;&gt;38916400</title>
<path fill="none" stroke="black" d="M438.115,-251.819C431.441,-270.659 419.449,-300.803 404,-324 396.217,-335.687 385.827,-347.202 376.457,-356.576"/>
<polygon fill="black" stroke="black" points="373.964,-354.119 369.231,-363.598 378.842,-359.14 373.964,-354.119"/>
</g>
<!-- 39532624&#45;&gt;39033056 -->
<g id="edge18" class="edge"><title>39532624&#45;&gt;39033056</title>
<path fill="none" stroke="black" d="M426.454,-247.882C412.858,-258.64 393.825,-273.699 378.54,-285.793"/>
<polygon fill="black" stroke="black" points="376.162,-283.211 370.492,-292.16 380.506,-288.7 376.162,-283.211"/>
</g>
</g>
</svg>
