<?xml version="1.0" encoding="UTF-8" standalone="no"?>
<!DOCTYPE svg PUBLIC "-//W3C//DTD SVG 1.1//EN"
 "http://www.w3.org/Graphics/SVG/1.1/DTD/svg11.dtd">
<!-- Generated by graphviz version 2.26.3 (20100126.1600)
 -->
<!-- Title: _anonymous_0 Pages: 1 -->
<svg width="2000pt" height="960pt"
 viewBox="0.00 0.00 2000.00 960.00" xmlns="http://www.w3.org/2000/svg" xmlns:xlink="http://www.w3.org/1999/xlink">
<g id="graph1" class="graph" transform="scale(1 1) rotate(0) translate(4 956)">
<title>_anonymous_0</title>
<polygon fill="white" stroke="white" points="-4,5 -4,-956 1997,-956 1997,5 -4,5"/>
<!-- 40913872 -->
<g id="node3" class="node"><title>40913872</title>
<ellipse fill="firebrick" stroke="black" cx="1194" cy="-339" rx="300.02" ry="46.669"/>
<text text-anchor="middle" x="1194" y="-346.4" font-family="Times Roman,serif" font-size="24.00">exp: (gamma 1.000000 1.000000)</text>
<text text-anchor="middle" x="1194" y="-317.4" font-family="Times Roman,serif" font-size="24.00">value: </text>
</g>
<!-- 38976752 -->
<g id="node15" class="node"><title>38976752</title>
<ellipse fill="gold" stroke="black" cx="1124" cy="-469" rx="68.7979" ry="46.669"/>
<text text-anchor="middle" x="1124" y="-476.4" font-family="Times Roman,serif" font-size="24.00">exp: x</text>
<text text-anchor="middle" x="1124" y="-447.4" font-family="Times Roman,serif" font-size="24.00">value: </text>
</g>
<!-- 40913872&#45;&gt;38976752 -->
<g id="edge25" class="edge"><title>40913872&#45;&gt;38976752</title>
<path fill="none" stroke="black" d="M1168.93,-385.566C1163.64,-395.383 1158.02,-405.812 1152.62,-415.851"/>
<polygon fill="black" stroke="black" points="1149.39,-414.467 1147.73,-424.931 1155.55,-417.786 1149.39,-414.467"/>
</g>
<!-- 40814608 -->
<g id="node4" class="node"><title>40814608</title>
<ellipse fill="#8f8f8f" stroke="black" cx="1130" cy="-230" rx="99.9096" ry="26.163"/>
<text text-anchor="middle" x="1130" y="-222.9" font-family="Times Roman,serif" font-size="24.00">request: []</text>
</g>
<!-- 40814608&#45;&gt;40913872 -->
<g id="edge57" class="edge"><title>40814608&#45;&gt;40913872</title>
<path fill="none" stroke="black" d="M1145.17,-255.831C1150.09,-264.218 1155.76,-273.871 1161.45,-283.564"/>
<polygon fill="black" stroke="black" points="1158.58,-285.589 1166.66,-292.441 1164.62,-282.045 1158.58,-285.589"/>
</g>
<!-- 38921376 -->
<g id="node5" class="node"><title>38921376</title>
<ellipse fill="#8f8f8f" stroke="black" cx="867" cy="-121" rx="159.806" ry="46.669"/>
<text text-anchor="middle" x="867" y="-128.4" font-family="Times Roman,serif" font-size="24.00">exp: gamma</text>
<text text-anchor="middle" x="867" y="-99.4" font-family="Times Roman,serif" font-size="24.00">value: sp:gamma</text>
</g>
<!-- 38921376&#45;&gt;40913872 -->
<g id="edge43" class="edge"><title>38921376&#45;&gt;40913872</title>
<path fill="none" stroke="black" d="M911.501,-165.872C940.911,-193.992 981.241,-229.749 1021,-256 1039.89,-268.471 1060.94,-280.169 1081.67,-290.626"/>
<polygon fill="black" stroke="black" points="1080.33,-293.869 1090.84,-295.185 1083.45,-287.6 1080.33,-293.869"/>
</g>
<!-- 38921376&#45;&gt;40814608 -->
<g id="edge45" class="edge"><title>38921376&#45;&gt;40814608</title>
<path fill="none" stroke="black" d="M958.985,-159.123C994.847,-173.986 1035.03,-190.64 1067.43,-204.069"/>
<polygon fill="black" stroke="black" points="1066.21,-207.351 1076.79,-207.946 1068.89,-200.884 1066.21,-207.351"/>
</g>
<!-- 39530464 -->
<g id="node6" class="node"><title>39530464</title>
<ellipse fill="#8f8f8f" stroke="black" cx="1194" cy="-121" rx="149.2" ry="46.669"/>
<text text-anchor="middle" x="1194" y="-128.4" font-family="Times Roman,serif" font-size="24.00">exp: 1.000000</text>
<text text-anchor="middle" x="1194" y="-99.4" font-family="Times Roman,serif" font-size="24.00">value: 1.000000</text>
</g>
<!-- 39530464&#45;&gt;40913872 -->
<g id="edge49" class="edge"><title>39530464&#45;&gt;40913872</title>
<path fill="none" stroke="black" d="M1223.99,-166.726C1230.17,-178.418 1235.78,-191.289 1239,-204 1244.68,-226.402 1244.68,-233.598 1239,-256 1236.67,-265.198 1233.09,-274.48 1228.95,-283.338"/>
<polygon fill="black" stroke="black" points="1225.76,-281.881 1224.45,-292.395 1232.03,-284.991 1225.76,-281.881"/>
</g>
<!-- 39530464&#45;&gt;40814608 -->
<g id="edge51" class="edge"><title>39530464&#45;&gt;40814608</title>
<path fill="none" stroke="black" d="M1167.04,-166.91C1161.46,-176.423 1155.66,-186.293 1150.36,-195.324"/>
<polygon fill="black" stroke="black" points="1147.29,-193.634 1145.25,-204.029 1153.33,-197.178 1147.29,-193.634"/>
</g>
<!-- 39640512 -->
<g id="node7" class="node"><title>39640512</title>
<ellipse fill="#8f8f8f" stroke="black" cx="1510" cy="-121" rx="149.2" ry="46.669"/>
<text text-anchor="middle" x="1510" y="-128.4" font-family="Times Roman,serif" font-size="24.00">exp: 1.000000</text>
<text text-anchor="middle" x="1510" y="-99.4" font-family="Times Roman,serif" font-size="24.00">value: 1.000000</text>
</g>
<!-- 39640512&#45;&gt;40913872 -->
<g id="edge53" class="edge"><title>39640512&#45;&gt;40913872</title>
<path fill="none" stroke="black" d="M1448.32,-163.55C1396.73,-199.144 1322.97,-250.024 1268.17,-287.835"/>
<polygon fill="black" stroke="black" points="1266.12,-284.991 1259.88,-293.551 1270.1,-290.753 1266.12,-284.991"/>
</g>
<!-- 39640512&#45;&gt;40814608 -->
<g id="edge55" class="edge"><title>39640512&#45;&gt;40814608</title>
<path fill="none" stroke="black" d="M1402.56,-153.224C1385.65,-158.218 1368.36,-163.282 1352,-168 1304.56,-181.68 1251.27,-196.576 1208.8,-208.338"/>
<polygon fill="black" stroke="black" points="1207.79,-204.988 1199.08,-211.028 1209.65,-211.734 1207.79,-204.988"/>
</g>
<!-- 40490928 -->
<g id="node9" class="node"><title>40490928</title>
<ellipse fill="#63b8ff" stroke="black" cx="1001" cy="-905" rx="837.214" ry="46.669"/>
<text text-anchor="middle" x="1001" y="-912.4" font-family="Times Roman,serif" font-size="24.00">exp: (normal (branch_exp x (quote (gamma x 2.000000)) (quote (normal x 2.000000))) 5.000000)</text>
<text text-anchor="middle" x="1001" y="-883.4" font-family="Times Roman,serif" font-size="24.00">value: 10.000000</text>
</g>
<!-- 40266112 -->
<g id="node10" class="node"><title>40266112</title>
<ellipse fill="#63b8ff" stroke="black" cx="937" cy="-796" rx="99.9096" ry="26.163"/>
<text text-anchor="middle" x="937" y="-788.9" font-family="Times Roman,serif" font-size="24.00">request: []</text>
</g>
<!-- 40266112&#45;&gt;40490928 -->
<g id="edge41" class="edge"><title>40266112&#45;&gt;40490928</title>
<path fill="none" stroke="black" d="M952.167,-821.831C957.091,-830.218 962.759,-839.871 968.45,-849.564"/>
<polygon fill="black" stroke="black" points="965.581,-851.589 973.662,-858.441 971.617,-848.045 965.581,-851.589"/>
</g>
<!-- 39777520 -->
<g id="node11" class="node"><title>39777520</title>
<ellipse fill="#8f8f8f" stroke="black" cx="154" cy="-687" rx="154.149" ry="46.669"/>
<text text-anchor="middle" x="154" y="-694.4" font-family="Times Roman,serif" font-size="24.00">exp: normal</text>
<text text-anchor="middle" x="154" y="-665.4" font-family="Times Roman,serif" font-size="24.00">value: sp:normal</text>
</g>
<!-- 39777520&#45;&gt;40490928 -->
<g id="edge5" class="edge"><title>39777520&#45;&gt;40490928</title>
<path fill="none" stroke="black" d="M264.768,-719.515C282.217,-724.471 300.078,-729.447 317,-734 479.756,-777.794 665.314,-823.949 802.058,-857.254"/>
<polygon fill="black" stroke="black" points="801.275,-860.665 811.819,-859.63 802.93,-853.864 801.275,-860.665"/>
</g>
<!-- 39777520&#45;&gt;40266112 -->
<g id="edge7" class="edge"><title>39777520&#45;&gt;40266112</title>
<path fill="none" stroke="black" d="M260.737,-720.762C279.353,-725.791 298.636,-730.464 317,-734 494.065,-768.09 703.407,-784.072 827.922,-791.074"/>
<polygon fill="black" stroke="black" points="828.042,-794.586 838.22,-791.644 828.428,-787.597 828.042,-794.586"/>
</g>
<!-- 40231168 -->
<g id="node12" class="node"><title>40231168</title>
<ellipse fill="gold" stroke="black" cx="1001" cy="-687" rx="674.787" ry="46.669"/>
<text text-anchor="middle" x="1001" y="-694.4" font-family="Times Roman,serif" font-size="24.00">exp: (branch_exp x (quote (gamma x 2.000000)) (quote (normal x 2.000000)))</text>
<text text-anchor="middle" x="1001" y="-665.4" font-family="Times Roman,serif" font-size="24.00">value: </text>
</g>
<!-- 40231168&#45;&gt;40490928 -->
<g id="edge11" class="edge"><title>40231168&#45;&gt;40490928</title>
<path fill="none" stroke="black" d="M1031.45,-733.605C1037.45,-745.061 1042.86,-757.607 1046,-770 1051.68,-792.402 1051.68,-799.598 1046,-822 1043.67,-831.198 1040.09,-840.48 1035.95,-849.338"/>
<polygon fill="black" stroke="black" points="1032.76,-847.881 1031.45,-858.395 1039.03,-850.991 1032.76,-847.881"/>
</g>
<!-- 40231168&#45;&gt;40266112 -->
<g id="edge13" class="edge"><title>40231168&#45;&gt;40266112</title>
<path fill="none" stroke="black" d="M973.673,-733.542C968.226,-742.818 962.595,-752.409 957.429,-761.207"/>
<polygon fill="black" stroke="black" points="954.286,-759.648 952.241,-770.043 960.322,-763.192 954.286,-759.648"/>
</g>
<!-- 39815264 -->
<g id="node13" class="node"><title>39815264</title>
<ellipse fill="gold" stroke="black" cx="1001" cy="-578" rx="87.1802" ry="26.163"/>
<text text-anchor="middle" x="1001" y="-570.9" font-family="Times Roman,serif" font-size="24.00">request: </text>
</g>
<!-- 39815264&#45;&gt;40231168 -->
<g id="edge35" class="edge"><title>39815264&#45;&gt;40231168</title>
<path fill="none" stroke="black" d="M1001,-604.108C1001,-611.979 1001,-620.946 1001,-630.005"/>
<polygon fill="black" stroke="black" points="997.5,-630.218 1001,-640.218 1004.5,-630.218 997.5,-630.218"/>
</g>
<!-- 32523152 -->
<g id="node14" class="node"><title>32523152</title>
<ellipse fill="#8f8f8f" stroke="black" cx="883" cy="-469" rx="154.149" ry="46.669"/>
<text text-anchor="middle" x="883" y="-476.4" font-family="Times Roman,serif" font-size="24.00">exp: branch_exp</text>
<text text-anchor="middle" x="883" y="-447.4" font-family="Times Roman,serif" font-size="24.00">value: sp:branch</text>
</g>
<!-- 32523152&#45;&gt;40231168 -->
<g id="edge15" class="edge"><title>32523152&#45;&gt;40231168</title>
<path fill="none" stroke="black" d="M882.815,-515.651C884.541,-542.926 889.995,-577.157 905,-604 910.879,-614.517 918.627,-624.329 927.178,-633.256"/>
<polygon fill="black" stroke="black" points="924.96,-635.986 934.525,-640.543 929.89,-631.016 924.96,-635.986"/>
</g>
<!-- 32523152&#45;&gt;39815264 -->
<g id="edge17" class="edge"><title>32523152&#45;&gt;39815264</title>
<path fill="none" stroke="black" d="M930.995,-513.334C942.919,-524.349 955.465,-535.938 966.59,-546.214"/>
<polygon fill="black" stroke="black" points="964.319,-548.881 974.039,-553.096 969.069,-543.739 964.319,-548.881"/>
</g>
<!-- 38976752&#45;&gt;40231168 -->
<g id="edge21" class="edge"><title>38976752&#45;&gt;40231168</title>
<path fill="none" stroke="black" d="M1122.15,-515.724C1119.31,-543.025 1112.58,-577.257 1097,-604 1090.93,-614.41 1083.08,-624.16 1074.47,-633.057"/>
<polygon fill="black" stroke="black" points="1071.76,-630.815 1067.09,-640.326 1076.68,-635.802 1071.76,-630.815"/>
</g>
<!-- 38976752&#45;&gt;39815264 -->
<g id="edge23" class="edge"><title>38976752&#45;&gt;39815264</title>
<path fill="none" stroke="black" d="M1082.01,-506.207C1067.22,-519.32 1050.74,-533.923 1036.53,-546.517"/>
<polygon fill="black" stroke="black" points="1034.05,-544.034 1028.89,-553.285 1038.69,-549.273 1034.05,-544.034"/>
</g>
<!-- 39203408 -->
<g id="node16" class="node"><title>39203408</title>
<ellipse fill="#8f8f8f" stroke="black" cx="1509" cy="-469" rx="297.899" ry="46.669"/>
<text text-anchor="middle" x="1509" y="-476.4" font-family="Times Roman,serif" font-size="24.00">exp: (quote (gamma x 2.000000))</text>
<text text-anchor="middle" x="1509" y="-447.4" font-family="Times Roman,serif" font-size="24.00">value: (gamma x 2.000000)</text>
</g>
<!-- 39203408&#45;&gt;40231168 -->
<g id="edge27" class="edge"><title>39203408&#45;&gt;40231168</title>
<path fill="none" stroke="black" d="M1407.11,-512.722C1323.56,-548.58 1205.23,-599.359 1117.84,-636.86"/>
<polygon fill="black" stroke="black" points="1116.22,-633.746 1108.41,-640.905 1118.98,-640.178 1116.22,-633.746"/>
</g>
<!-- 39203408&#45;&gt;39815264 -->
<g id="edge29" class="edge"><title>39203408&#45;&gt;39815264</title>
<path fill="none" stroke="black" d="M1333.46,-506.664C1248.08,-524.984 1149.58,-546.119 1082.09,-560.6"/>
<polygon fill="black" stroke="black" points="1080.99,-557.256 1071.95,-562.777 1082.46,-564.101 1080.99,-557.256"/>
</g>
<!-- 38832272 -->
<g id="node17" class="node"><title>38832272</title>
<ellipse fill="#8f8f8f" stroke="black" cx="418" cy="-469" rx="292.949" ry="46.669"/>
<text text-anchor="middle" x="418" y="-476.4" font-family="Times Roman,serif" font-size="24.00">exp: (quote (normal x 2.000000))</text>
<text text-anchor="middle" x="418" y="-447.4" font-family="Times Roman,serif" font-size="24.00">value: (normal x 2.000000)</text>
</g>
<!-- 38832272&#45;&gt;40231168 -->
<g id="edge31" class="edge"><title>38832272&#45;&gt;40231168</title>
<path fill="none" stroke="black" d="M532.486,-511.81C629.199,-547.973 767.75,-599.781 869.095,-637.677"/>
<polygon fill="black" stroke="black" points="867.883,-640.961 878.476,-641.185 870.335,-634.404 867.883,-640.961"/>
</g>
<!-- 38832272&#45;&gt;39815264 -->
<g id="edge33" class="edge"><title>38832272&#45;&gt;39815264</title>
<path fill="none" stroke="black" d="M607.686,-504.464C712.078,-523.982 836.393,-547.225 916.91,-562.278"/>
<polygon fill="black" stroke="black" points="916.522,-565.766 926.995,-564.164 917.809,-558.886 916.522,-565.766"/>
</g>
<!-- 38804272 -->
<g id="node18" class="node"><title>38804272</title>
<ellipse fill="#8f8f8f" stroke="black" cx="1843" cy="-687" rx="149.2" ry="46.669"/>
<text text-anchor="middle" x="1843" y="-694.4" font-family="Times Roman,serif" font-size="24.00">exp: 5.000000</text>
<text text-anchor="middle" x="1843" y="-665.4" font-family="Times Roman,serif" font-size="24.00">value: 5.000000</text>
</g>
<!-- 38804272&#45;&gt;40490928 -->
<g id="edge37" class="edge"><title>38804272&#45;&gt;40490928</title>
<path fill="none" stroke="black" d="M1736.09,-719.496C1719.04,-724.48 1701.56,-729.469 1685,-734 1523.01,-778.32 1338.17,-824.253 1201.52,-857.339"/>
<polygon fill="black" stroke="black" points="1200.66,-853.946 1191.76,-859.699 1202.31,-860.75 1200.66,-853.946"/>
</g>
<!-- 38804272&#45;&gt;40266112 -->
<g id="edge39" class="edge"><title>38804272&#45;&gt;40266112</title>
<path fill="none" stroke="black" d="M1740.49,-720.825C1722.17,-725.912 1703.14,-730.588 1685,-734 1460.99,-776.134 1193.87,-789.635 1047.14,-793.961"/>
<polygon fill="black" stroke="black" points="1046.68,-790.473 1036.79,-794.257 1046.88,-797.47 1046.68,-790.473"/>
</g>
<!-- 33439504 -->
<g id="node21" class="node"><title>33439504</title>
<ellipse fill="none" stroke="black" cx="154" cy="-578" rx="62.9325" ry="18.3848"/>
<text text-anchor="middle" x="154" y="-574.4" font-family="Times Roman,serif" font-size="14.00">33439504</text>
</g>
<!-- 33439504&#45;&gt;39777520 -->
<g id="edge9" class="edge"><title>33439504&#45;&gt;39777520</title>
<path fill="none" stroke="black" d="M154,-596.986C154,-606.326 154,-618.131 154,-630.09"/>
<polygon fill="black" stroke="black" points="150.5,-630.122 154,-640.122 157.5,-630.122 150.5,-630.122"/>
</g>
<!-- 34154224 -->
<g id="node27" class="node"><title>34154224</title>
<ellipse fill="none" stroke="black" cx="813" cy="-339" rx="62.9325" ry="18.3848"/>
<text text-anchor="middle" x="813" y="-335.4" font-family="Times Roman,serif" font-size="14.00">34154224</text>
</g>
<!-- 34154224&#45;&gt;32523152 -->
<g id="edge19" class="edge"><title>34154224&#45;&gt;32523152</title>
<path fill="none" stroke="black" d="M822.881,-357.35C830.858,-372.165 842.515,-393.814 853.446,-414.114"/>
<polygon fill="black" stroke="black" points="850.414,-415.865 858.236,-423.01 856.577,-412.546 850.414,-415.865"/>
</g>
<!-- 33325200 -->
<g id="node42" class="node"><title>33325200</title>
<ellipse fill="none" stroke="black" cx="867" cy="-19" rx="62.9325" ry="18.3848"/>
<text text-anchor="middle" x="867" y="-15.4" font-family="Times Roman,serif" font-size="14.00">33325200</text>
</g>
<!-- 33325200&#45;&gt;38921376 -->
<g id="edge47" class="edge"><title>33325200&#45;&gt;38921376</title>
<path fill="none" stroke="black" d="M867,-37.7084C867,-45.3917 867,-54.7362 867,-64.3518"/>
<polygon fill="black" stroke="black" points="863.5,-64.4121 867,-74.4121 870.5,-64.4122 863.5,-64.4121"/>
</g>
</g>
</svg>
