<?xml version="1.0" encoding="UTF-8" standalone="no"?>
<!DOCTYPE svg PUBLIC "-//W3C//DTD SVG 1.1//EN"
 "http://www.w3.org/Graphics/SVG/1.1/DTD/svg11.dtd">
<!-- Generated by graphviz version 2.26.3 (20100126.1600)
 -->
<!-- Title: _anonymous_0 Pages: 1 -->
<svg width="548pt" height="588pt"
 viewBox="0.00 0.00 548.00 588.00" xmlns="http://www.w3.org/2000/svg" xmlns:xlink="http://www.w3.org/1999/xlink">
<g id="graph1" class="graph" transform="scale(1 1) rotate(0) translate(4 584)">
<title>_anonymous_0</title>
<polygon fill="white" stroke="white" points="-4,5 -4,-584 545,-584 545,5 -4,5"/>
<g id="graph2" class="cluster"><title>cluster1</title>
<polygon fill="none" stroke="black" points="8,-8 8,-508 532,-508 532,-8 8,-8"/>
</g>
<g id="graph3" class="cluster"><title>cluster2</title>
<polygon fill="none" stroke="black" points="163,-16 163,-212 305,-212 305,-16 163,-16"/>
</g>
<g id="graph4" class="cluster"><title>cluster3</title>
<polygon fill="none" stroke="black" points="16,-232 16,-428 230,-428 230,-232 16,-232"/>
</g>
<g id="graph5" class="cluster"><title>cluster4</title>
<polygon fill="none" stroke="black" points="196,-448 196,-500 266,-500 266,-448 196,-448"/>
</g>
<g id="graph6" class="cluster"><title>cluster5</title>
<polygon fill="none" stroke="black" points="238,-232 238,-428 524,-428 524,-232 238,-232"/>
</g>
<g id="graph7" class="cluster"><title>cluster6</title>
<polygon fill="none" stroke="black" points="239,-520 239,-572 309,-572 309,-520 239,-520"/>
</g>
<!-- 36427312 -->
<g id="node3" class="node"><title>36427312</title>
<ellipse fill="dodgerblue" stroke="black" cx="234" cy="-186" rx="27" ry="18"/>
</g>
<!-- 35779552 -->
<g id="node11" class="node"><title>35779552</title>
<ellipse fill="khaki" stroke="black" cx="195" cy="-258" rx="27" ry="18"/>
</g>
<!-- 36427312&#45;&gt;35779552 -->
<g id="edge44" class="edge"><title>36427312&#45;&gt;35779552</title>
<path fill="none" stroke="black" d="M224.758,-203.063C220.046,-211.761 214.218,-222.52 208.972,-232.205"/>
<polygon fill="black" stroke="black" points="205.861,-230.6 204.176,-241.059 212.017,-233.934 205.861,-230.6"/>
</g>
<!-- 34778800 -->
<g id="node19" class="node"><title>34778800</title>
<ellipse fill="khaki" stroke="black" cx="273" cy="-258" rx="27" ry="18"/>
</g>
<!-- 36427312&#45;&gt;34778800 -->
<g id="edge16" class="edge"><title>36427312&#45;&gt;34778800</title>
<path fill="none" stroke="black" d="M243.242,-203.063C247.954,-211.761 253.782,-222.52 259.028,-232.205"/>
<polygon fill="black" stroke="black" points="255.983,-233.934 263.824,-241.059 262.139,-230.6 255.983,-233.934"/>
</g>
<!-- 36065888 -->
<g id="node4" class="node"><title>36065888</title>
<ellipse fill="#6e8b3d" stroke="black" cx="234" cy="-114" rx="27" ry="18"/>
</g>
<!-- 36065888&#45;&gt;36427312 -->
<g id="edge60" class="edge"><title>36065888&#45;&gt;36427312</title>
<path fill="none" stroke="black" d="M234,-132.169C234,-139.869 234,-149.026 234,-157.583"/>
<polygon fill="black" stroke="black" points="230.5,-157.587 234,-167.587 237.5,-157.587 230.5,-157.587"/>
</g>
<!-- 34434816 -->
<g id="node5" class="node"><title>34434816</title>
<ellipse fill="khaki" stroke="black" cx="270" cy="-42" rx="27" ry="18"/>
</g>
<!-- 34434816&#45;&gt;36427312 -->
<g id="edge52" class="edge"><title>34434816&#45;&gt;36427312</title>
<path fill="none" stroke="black" d="M273.012,-60.0363C275.41,-78.5334 277.29,-107.923 270,-132 266.734,-142.787 260.524,-153.389 254.169,-162.304"/>
<polygon fill="black" stroke="black" points="251.372,-160.2 248.123,-170.284 256.951,-164.427 251.372,-160.2"/>
</g>
<!-- 34434816&#45;&gt;36065888 -->
<g id="edge54" class="edge"><title>34434816&#45;&gt;36065888</title>
<path fill="none" stroke="black" d="M261.285,-59.4292C257.04,-67.9193 251.846,-78.3071 247.134,-87.7326"/>
<polygon fill="black" stroke="black" points="243.976,-86.2218 242.634,-96.7313 250.237,-89.3523 243.976,-86.2218"/>
</g>
<!-- 34317760 -->
<g id="node6" class="node"><title>34317760</title>
<ellipse fill="#eead0e" stroke="black" cx="198" cy="-42" rx="27" ry="18"/>
</g>
<!-- 34317760&#45;&gt;36427312 -->
<g id="edge56" class="edge"><title>34317760&#45;&gt;36427312</title>
<path fill="none" stroke="black" d="M194.988,-60.0363C192.59,-78.5334 190.71,-107.923 198,-132 201.266,-142.787 207.476,-153.389 213.831,-162.304"/>
<polygon fill="black" stroke="black" points="211.049,-164.427 219.877,-170.284 216.628,-160.2 211.049,-164.427"/>
</g>
<!-- 34317760&#45;&gt;36065888 -->
<g id="edge58" class="edge"><title>34317760&#45;&gt;36065888</title>
<path fill="none" stroke="black" d="M206.715,-59.4292C210.96,-67.9193 216.154,-78.3071 220.866,-87.7326"/>
<polygon fill="black" stroke="black" points="217.763,-89.3523 225.366,-96.7313 224.024,-86.2218 217.763,-89.3523"/>
</g>
<!-- 35328704 -->
<g id="node8" class="node"><title>35328704</title>
<ellipse fill="dodgerblue" stroke="black" cx="169" cy="-402" rx="27" ry="18"/>
</g>
<!-- 34618016 -->
<g id="node14" class="node"><title>34618016</title>
<ellipse fill="khaki" stroke="black" cx="231" cy="-474" rx="27" ry="18"/>
</g>
<!-- 35328704&#45;&gt;34618016 -->
<g id="edge32" class="edge"><title>35328704&#45;&gt;34618016</title>
<path fill="none" stroke="black" d="M182.453,-417.623C190.627,-427.115 201.227,-439.425 210.436,-450.119"/>
<polygon fill="black" stroke="black" points="207.966,-452.615 217.144,-457.909 213.271,-448.047 207.966,-452.615"/>
</g>
<!-- 35290960 -->
<g id="node9" class="node"><title>35290960</title>
<ellipse fill="#6e8b3d" stroke="black" cx="123" cy="-330" rx="27" ry="18"/>
</g>
<!-- 35290960&#45;&gt;35328704 -->
<g id="edge50" class="edge"><title>35290960&#45;&gt;35328704</title>
<path fill="none" stroke="black" d="M133.669,-346.699C139.359,-355.605 146.478,-366.748 152.832,-376.693"/>
<polygon fill="black" stroke="black" points="150.056,-378.849 158.389,-385.391 155.954,-375.08 150.056,-378.849"/>
</g>
<!-- 35744608 -->
<g id="node10" class="node"><title>35744608</title>
<ellipse fill="khaki" stroke="black" cx="51" cy="-258" rx="27" ry="18"/>
</g>
<!-- 35744608&#45;&gt;35328704 -->
<g id="edge36" class="edge"><title>35744608&#45;&gt;35328704</title>
<path fill="none" stroke="black" d="M54.7576,-275.877C59.5634,-295.318 69.4437,-326.487 87,-348 100.549,-364.603 120.567,-377.922 137.431,-387.178"/>
<polygon fill="black" stroke="black" points="135.935,-390.345 146.415,-391.898 139.19,-384.148 135.935,-390.345"/>
</g>
<!-- 35744608&#45;&gt;35290960 -->
<g id="edge38" class="edge"><title>35744608&#45;&gt;35290960</title>
<path fill="none" stroke="black" d="M66.2693,-273.269C76.197,-283.197 89.3153,-296.315 100.436,-307.436"/>
<polygon fill="black" stroke="black" points="98.2067,-310.156 107.753,-314.753 103.156,-305.207 98.2067,-310.156"/>
</g>
<!-- 35779552&#45;&gt;35328704 -->
<g id="edge40" class="edge"><title>35779552&#45;&gt;35328704</title>
<path fill="none" stroke="black" d="M191.76,-275.947C187.322,-300.523 179.31,-344.899 174.073,-373.903"/>
<polygon fill="black" stroke="black" points="170.614,-373.364 172.281,-383.827 177.502,-374.608 170.614,-373.364"/>
</g>
<!-- 35779552&#45;&gt;35290960 -->
<g id="edge42" class="edge"><title>35779552&#45;&gt;35290960</title>
<path fill="none" stroke="black" d="M179.731,-273.269C169.803,-283.197 156.685,-296.315 145.564,-307.436"/>
<polygon fill="black" stroke="black" points="142.844,-305.207 138.247,-314.753 147.793,-310.156 142.844,-305.207"/>
</g>
<!-- 36004368 -->
<g id="node12" class="node"><title>36004368</title>
<ellipse fill="#eead0e" stroke="black" cx="123" cy="-258" rx="27" ry="18"/>
</g>
<!-- 36004368&#45;&gt;35328704 -->
<g id="edge46" class="edge"><title>36004368&#45;&gt;35328704</title>
<path fill="none" stroke="black" d="M136.574,-273.899C144.497,-284.105 153.909,-298.025 159,-312 166.208,-331.788 168.611,-355.51 169.263,-373.631"/>
<polygon fill="black" stroke="black" points="165.768,-373.915 169.47,-383.842 172.767,-373.773 165.768,-373.915"/>
</g>
<!-- 36004368&#45;&gt;35290960 -->
<g id="edge48" class="edge"><title>36004368&#45;&gt;35290960</title>
<path fill="none" stroke="black" d="M123,-276.169C123,-283.869 123,-293.026 123,-301.583"/>
<polygon fill="black" stroke="black" points="119.5,-301.587 123,-311.587 126.5,-301.587 119.5,-301.587"/>
</g>
<!-- 34780688 -->
<g id="node23" class="node"><title>34780688</title>
<ellipse fill="khaki" stroke="black" cx="274" cy="-546" rx="27" ry="18"/>
</g>
<!-- 34618016&#45;&gt;34780688 -->
<g id="edge34" class="edge"><title>34618016&#45;&gt;34780688</title>
<path fill="none" stroke="black" d="M241.19,-491.063C246.385,-499.761 252.811,-510.52 258.595,-520.205"/>
<polygon fill="black" stroke="black" points="255.75,-522.269 263.883,-529.059 261.76,-518.679 255.75,-522.269"/>
</g>
<!-- 34316512 -->
<g id="node16" class="node"><title>34316512</title>
<ellipse fill="dodgerblue" stroke="black" cx="348" cy="-402" rx="27" ry="18"/>
</g>
<!-- 36780592 -->
<g id="node17" class="node"><title>36780592</title>
<ellipse fill="#6e8b3d" stroke="black" cx="371" cy="-330" rx="27" ry="18"/>
</g>
<!-- 36780592&#45;&gt;34316512 -->
<g id="edge26" class="edge"><title>36780592&#45;&gt;34316512</title>
<path fill="none" stroke="black" d="M365.315,-347.798C362.744,-355.846 359.647,-365.541 356.787,-374.493"/>
<polygon fill="black" stroke="black" points="353.409,-373.567 353.7,-384.157 360.077,-375.697 353.409,-373.567"/>
</g>
<!-- 36780592&#45;&gt;34780688 -->
<g id="edge30" class="edge"><title>36780592&#45;&gt;34780688</title>
<path fill="none" stroke="black" stroke-dasharray="1,5" d="M377.947,-347.452C384.845,-367.415 393.172,-400.845 384,-428 369.462,-471.043 329.18,-506.917 301.617,-527.425"/>
<polygon fill="black" stroke="black" points="299.565,-524.589 293.514,-533.287 303.668,-530.261 299.565,-524.589"/>
</g>
<!-- 34610800 -->
<g id="node18" class="node"><title>34610800</title>
<ellipse fill="khaki" stroke="black" cx="345" cy="-258" rx="27" ry="18"/>
</g>
<!-- 34610800&#45;&gt;34316512 -->
<g id="edge8" class="edge"><title>34610800&#45;&gt;34316512</title>
<path fill="none" stroke="black" d="M340.585,-275.939C336.683,-294.11 332.036,-323.021 335,-348 336.034,-356.714 337.976,-366.056 340.049,-374.479"/>
<polygon fill="black" stroke="black" points="336.673,-375.404 342.591,-384.193 343.445,-373.632 336.673,-375.404"/>
</g>
<!-- 34610800&#45;&gt;36780592 -->
<g id="edge10" class="edge"><title>34610800&#45;&gt;36780592</title>
<path fill="none" stroke="black" d="M351.427,-275.798C354.387,-283.994 357.963,-293.898 361.245,-302.985"/>
<polygon fill="black" stroke="black" points="357.959,-304.19 364.647,-312.407 364.542,-301.813 357.959,-304.19"/>
</g>
<!-- 34778800&#45;&gt;34316512 -->
<g id="edge12" class="edge"><title>34778800&#45;&gt;34316512</title>
<path fill="none" stroke="black" d="M281.898,-275.084C294.866,-299.984 319.071,-346.456 334.316,-375.727"/>
<polygon fill="black" stroke="black" points="331.39,-377.686 339.114,-384.938 337.598,-374.452 331.39,-377.686"/>
</g>
<!-- 34778800&#45;&gt;36780592 -->
<g id="edge14" class="edge"><title>34778800&#45;&gt;36780592</title>
<path fill="none" stroke="black" d="M291.433,-271.543C306.353,-282.504 327.569,-298.091 344.341,-310.414"/>
<polygon fill="black" stroke="black" points="342.518,-313.418 352.65,-316.518 346.663,-307.777 342.518,-313.418"/>
</g>
<!-- 34742976 -->
<g id="node20" class="node"><title>34742976</title>
<ellipse fill="#eead0e" stroke="black" cx="489" cy="-258" rx="27" ry="18"/>
</g>
<!-- 34742976&#45;&gt;34316512 -->
<g id="edge18" class="edge"><title>34742976&#45;&gt;34316512</title>
<path fill="none" stroke="black" d="M477.557,-274.548C464.157,-293.359 440.755,-324.498 417,-348 404.226,-360.638 388.55,-373.11 375.369,-382.879"/>
<polygon fill="black" stroke="black" points="373.148,-380.167 367.123,-388.882 377.268,-385.826 373.148,-380.167"/>
</g>
<!-- 34742976&#45;&gt;36780592 -->
<g id="edge20" class="edge"><title>34742976&#45;&gt;36780592</title>
<path fill="none" stroke="black" d="M468.983,-270.214C449.997,-281.799 421.261,-299.332 399.812,-312.42"/>
<polygon fill="black" stroke="black" points="397.829,-309.53 391.115,-317.726 401.475,-315.505 397.829,-309.53"/>
</g>
<!-- 34511968 -->
<g id="node21" class="node"><title>34511968</title>
<ellipse fill="#eead0e" stroke="black" cx="417" cy="-258" rx="27" ry="18"/>
</g>
<!-- 34511968&#45;&gt;34316512 -->
<g id="edge22" class="edge"><title>34511968&#45;&gt;34316512</title>
<path fill="none" stroke="black" d="M418.612,-276.308C419.477,-295.285 418.537,-325.295 407,-348 399.914,-361.946 387.638,-374.075 376.114,-383.286"/>
<polygon fill="black" stroke="black" points="373.809,-380.64 367.939,-389.461 378.028,-386.226 373.809,-380.64"/>
</g>
<!-- 34511968&#45;&gt;36780592 -->
<g id="edge24" class="edge"><title>34511968&#45;&gt;36780592</title>
<path fill="none" stroke="black" d="M406.331,-274.699C400.641,-283.605 393.522,-294.748 387.168,-304.693"/>
<polygon fill="black" stroke="black" points="384.046,-303.08 381.611,-313.391 389.944,-306.849 384.046,-303.08"/>
</g>
<!-- 34780688&#45;&gt;34316512 -->
<g id="edge28" class="edge"><title>34780688&#45;&gt;34316512</title>
<path fill="none" stroke="black" d="M282.768,-528.938C295.557,-504.052 319.438,-457.581 334.485,-428.299"/>
<polygon fill="black" stroke="black" points="337.763,-429.578 339.221,-419.084 331.537,-426.379 337.763,-429.578"/>
</g>
</g>
</svg>
