<?xml version="1.0" encoding="UTF-8" standalone="no"?>
<!DOCTYPE svg PUBLIC "-//W3C//DTD SVG 1.1//EN"
 "http://www.w3.org/Graphics/SVG/1.1/DTD/svg11.dtd">
<!-- Generated by graphviz version 2.26.3 (20100126.1600)
 -->
<!-- Title: _anonymous_0 Pages: 1 -->
<svg width="1612pt" height="1308pt"
 viewBox="0.00 0.00 1612.00 1308.00" xmlns="http://www.w3.org/2000/svg" xmlns:xlink="http://www.w3.org/1999/xlink">
<g id="graph1" class="graph" transform="scale(1 1) rotate(0) translate(4 1304)">
<title>_anonymous_0</title>
<polygon fill="white" stroke="white" points="-4,5 -4,-1304 1609,-1304 1609,5 -4,5"/>
<!-- 60087712 -->
<g id="node3" class="node"><title>60087712</title>
<ellipse fill="#8f8f8f" stroke="black" cx="695" cy="-339" rx="300.02" ry="46.669"/>
<text text-anchor="middle" x="695" y="-346.4" font-family="Times Roman,serif" font-size="24.00">exp: (gamma 1.000000 1.000000)</text>
<text text-anchor="middle" x="695" y="-317.4" font-family="Times Roman,serif" font-size="24.00">value: 1.629912</text>
</g>
<!-- 59405008 -->
<g id="node12" class="node"><title>59405008</title>
<ellipse fill="#8f8f8f" stroke="black" cx="695" cy="-469" rx="149.2" ry="46.669"/>
<text text-anchor="middle" x="695" y="-476.4" font-family="Times Roman,serif" font-size="24.00">exp: alpha</text>
<text text-anchor="middle" x="695" y="-447.4" font-family="Times Roman,serif" font-size="24.00">value: 1.629912</text>
</g>
<!-- 60087712&#45;&gt;59405008 -->
<g id="edge49" class="edge"><title>60087712&#45;&gt;59405008</title>
<path fill="none" stroke="black" d="M695,-385.566C695,-394.154 695,-403.21 695,-412.063"/>
<polygon fill="black" stroke="black" points="691.5,-412.322 695,-422.322 698.5,-412.322 691.5,-412.322"/>
</g>
<!-- 59988448 -->
<g id="node4" class="node"><title>59988448</title>
<ellipse fill="#8f8f8f" stroke="black" cx="631" cy="-230" rx="99.9096" ry="26.163"/>
<text text-anchor="middle" x="631" y="-222.9" font-family="Times Roman,serif" font-size="24.00">request: []</text>
</g>
<!-- 59988448&#45;&gt;60087712 -->
<g id="edge71" class="edge"><title>59988448&#45;&gt;60087712</title>
<path fill="none" stroke="black" d="M646.167,-255.831C651.091,-264.218 656.759,-273.871 662.45,-283.564"/>
<polygon fill="black" stroke="black" points="659.581,-285.589 667.662,-292.441 665.617,-282.045 659.581,-285.589"/>
</g>
<!-- 60248784 -->
<g id="node5" class="node"><title>60248784</title>
<ellipse fill="#8f8f8f" stroke="black" cx="368" cy="-121" rx="159.806" ry="46.669"/>
<text text-anchor="middle" x="368" y="-128.4" font-family="Times Roman,serif" font-size="24.00">exp: gamma</text>
<text text-anchor="middle" x="368" y="-99.4" font-family="Times Roman,serif" font-size="24.00">value: sp:gamma</text>
</g>
<!-- 60248784&#45;&gt;60087712 -->
<g id="edge57" class="edge"><title>60248784&#45;&gt;60087712</title>
<path fill="none" stroke="black" d="M412.501,-165.872C441.911,-193.992 482.241,-229.749 522,-256 540.889,-268.471 561.938,-280.169 582.669,-290.626"/>
<polygon fill="black" stroke="black" points="581.331,-293.869 591.844,-295.185 584.446,-287.6 581.331,-293.869"/>
</g>
<!-- 60248784&#45;&gt;59988448 -->
<g id="edge59" class="edge"><title>60248784&#45;&gt;59988448</title>
<path fill="none" stroke="black" d="M459.985,-159.123C495.847,-173.986 536.031,-190.64 568.432,-204.069"/>
<polygon fill="black" stroke="black" points="567.21,-207.351 577.788,-207.946 569.89,-200.884 567.21,-207.351"/>
</g>
<!-- 58095216 -->
<g id="node6" class="node"><title>58095216</title>
<ellipse fill="#8f8f8f" stroke="black" cx="695" cy="-121" rx="149.2" ry="46.669"/>
<text text-anchor="middle" x="695" y="-128.4" font-family="Times Roman,serif" font-size="24.00">exp: 1.000000</text>
<text text-anchor="middle" x="695" y="-99.4" font-family="Times Roman,serif" font-size="24.00">value: 1.000000</text>
</g>
<!-- 58095216&#45;&gt;60087712 -->
<g id="edge63" class="edge"><title>58095216&#45;&gt;60087712</title>
<path fill="none" stroke="black" d="M724.992,-166.726C731.173,-178.418 736.776,-191.289 740,-204 745.682,-226.402 745.682,-233.598 740,-256 737.667,-265.198 734.088,-274.48 729.946,-283.338"/>
<polygon fill="black" stroke="black" points="726.762,-281.881 725.454,-292.395 733.033,-284.991 726.762,-281.881"/>
</g>
<!-- 58095216&#45;&gt;59988448 -->
<g id="edge65" class="edge"><title>58095216&#45;&gt;59988448</title>
<path fill="none" stroke="black" d="M668.044,-166.91C662.458,-176.423 656.663,-186.293 651.36,-195.324"/>
<polygon fill="black" stroke="black" points="648.294,-193.634 646.249,-204.029 654.33,-197.178 648.294,-193.634"/>
</g>
<!-- 58704304 -->
<g id="node7" class="node"><title>58704304</title>
<ellipse fill="#8f8f8f" stroke="black" cx="1011" cy="-121" rx="149.2" ry="46.669"/>
<text text-anchor="middle" x="1011" y="-128.4" font-family="Times Roman,serif" font-size="24.00">exp: 1.000000</text>
<text text-anchor="middle" x="1011" y="-99.4" font-family="Times Roman,serif" font-size="24.00">value: 1.000000</text>
</g>
<!-- 58704304&#45;&gt;60087712 -->
<g id="edge67" class="edge"><title>58704304&#45;&gt;60087712</title>
<path fill="none" stroke="black" d="M949.322,-163.55C897.727,-199.144 823.974,-250.024 769.166,-287.835"/>
<polygon fill="black" stroke="black" points="767.124,-284.991 760.88,-293.551 771.099,-290.753 767.124,-284.991"/>
</g>
<!-- 58704304&#45;&gt;59988448 -->
<g id="edge69" class="edge"><title>58704304&#45;&gt;59988448</title>
<path fill="none" stroke="black" d="M903.557,-153.224C886.652,-158.218 869.361,-163.282 853,-168 805.557,-181.68 752.275,-196.576 709.804,-208.338"/>
<polygon fill="black" stroke="black" points="708.788,-204.988 700.083,-211.028 710.655,-211.734 708.788,-204.988"/>
</g>
<!-- 58951360 -->
<g id="node9" class="node"><title>58951360</title>
<ellipse fill="#8f8f8f" stroke="black" cx="695" cy="-687" rx="372.145" ry="46.669"/>
<text text-anchor="middle" x="695" y="-694.4" font-family="Times Roman,serif" font-size="24.00">exp: (make_sym_dir_mult alpha 2.000000)</text>
<text text-anchor="middle" x="695" y="-665.4" font-family="Times Roman,serif" font-size="24.00">value: sp:sym_dir_mult</text>
</g>
<!-- 58206896 -->
<g id="node20" class="node"><title>58206896</title>
<ellipse fill="#8f8f8f" stroke="black" cx="912" cy="-817" rx="208.096" ry="46.669"/>
<text text-anchor="middle" x="912" y="-824.4" font-family="Times Roman,serif" font-size="24.00">exp: f</text>
<text text-anchor="middle" x="912" y="-795.4" font-family="Times Roman,serif" font-size="24.00">value: sp:sym_dir_mult</text>
</g>
<!-- 58951360&#45;&gt;58206896 -->
<g id="edge21" class="edge"><title>58951360&#45;&gt;58206896</title>
<path fill="none" stroke="black" d="M771.201,-732.65C790.369,-744.134 811.018,-756.504 830.437,-768.137"/>
<polygon fill="black" stroke="black" points="828.886,-771.288 839.263,-773.425 832.483,-765.283 828.886,-771.288"/>
</g>
<!-- 60446592 -->
<g id="node26" class="node"><title>60446592</title>
<ellipse fill="#8f8f8f" stroke="black" cx="478" cy="-817" rx="208.096" ry="46.669"/>
<text text-anchor="middle" x="478" y="-824.4" font-family="Times Roman,serif" font-size="24.00">exp: f</text>
<text text-anchor="middle" x="478" y="-795.4" font-family="Times Roman,serif" font-size="24.00">value: sp:sym_dir_mult</text>
</g>
<!-- 58951360&#45;&gt;60446592 -->
<g id="edge77" class="edge"><title>58951360&#45;&gt;60446592</title>
<path fill="none" stroke="black" d="M618.799,-732.65C599.631,-744.134 578.982,-756.504 559.563,-768.137"/>
<polygon fill="black" stroke="black" points="557.517,-765.283 550.737,-773.425 561.114,-771.288 557.517,-765.283"/>
</g>
<!-- 58006144 -->
<g id="node10" class="node"><title>58006144</title>
<ellipse fill="#8f8f8f" stroke="black" cx="631" cy="-578" rx="99.9096" ry="26.163"/>
<text text-anchor="middle" x="631" y="-570.9" font-family="Times Roman,serif" font-size="24.00">request: []</text>
</g>
<!-- 58006144&#45;&gt;58951360 -->
<g id="edge55" class="edge"><title>58006144&#45;&gt;58951360</title>
<path fill="none" stroke="black" d="M646.167,-603.831C651.091,-612.218 656.759,-621.871 662.45,-631.564"/>
<polygon fill="black" stroke="black" points="659.581,-633.589 667.662,-640.441 665.617,-630.045 659.581,-633.589"/>
</g>
<!-- 58989104 -->
<g id="node11" class="node"><title>58989104</title>
<ellipse fill="#8f8f8f" stroke="black" cx="264" cy="-469" rx="263.958" ry="46.669"/>
<text text-anchor="middle" x="264" y="-476.4" font-family="Times Roman,serif" font-size="24.00">exp: make_sym_dir_mult</text>
<text text-anchor="middle" x="264" y="-447.4" font-family="Times Roman,serif" font-size="24.00">value: sp:make_sym_dir_mult</text>
</g>
<!-- 58989104&#45;&gt;58951360 -->
<g id="edge39" class="edge"><title>58989104&#45;&gt;58951360</title>
<path fill="none" stroke="black" d="M346.7,-513.206C397.132,-539.93 463.024,-574.434 522,-604 543.986,-615.022 567.679,-626.59 590.266,-637.472"/>
<polygon fill="black" stroke="black" points="589.003,-640.748 599.532,-641.928 592.037,-634.439 589.003,-640.748"/>
</g>
<!-- 58989104&#45;&gt;58006144 -->
<g id="edge41" class="edge"><title>58989104&#45;&gt;58006144</title>
<path fill="none" stroke="black" d="M398.833,-509.046C451.602,-524.718 510.158,-542.11 555.262,-555.505"/>
<polygon fill="black" stroke="black" points="554.382,-558.895 564.965,-558.387 556.376,-552.185 554.382,-558.895"/>
</g>
<!-- 59405008&#45;&gt;58951360 -->
<g id="edge45" class="edge"><title>59405008&#45;&gt;58951360</title>
<path fill="none" stroke="black" d="M724.992,-514.726C731.173,-526.418 736.776,-539.289 740,-552 745.682,-574.402 745.682,-581.598 740,-604 737.667,-613.198 734.088,-622.48 729.946,-631.338"/>
<polygon fill="black" stroke="black" points="726.762,-629.881 725.454,-640.395 733.033,-632.991 726.762,-629.881"/>
</g>
<!-- 59405008&#45;&gt;58006144 -->
<g id="edge47" class="edge"><title>59405008&#45;&gt;58006144</title>
<path fill="none" stroke="black" d="M668.044,-514.91C662.458,-524.423 656.663,-534.293 651.36,-543.324"/>
<polygon fill="black" stroke="black" points="648.294,-541.634 646.249,-552.029 654.33,-545.178 648.294,-541.634"/>
</g>
<!-- 59439952 -->
<g id="node13" class="node"><title>59439952</title>
<ellipse fill="#8f8f8f" stroke="black" cx="1011" cy="-469" rx="149.2" ry="46.669"/>
<text text-anchor="middle" x="1011" y="-476.4" font-family="Times Roman,serif" font-size="24.00">exp: 2.000000</text>
<text text-anchor="middle" x="1011" y="-447.4" font-family="Times Roman,serif" font-size="24.00">value: 2.000000</text>
</g>
<!-- 59439952&#45;&gt;58951360 -->
<g id="edge51" class="edge"><title>59439952&#45;&gt;58951360</title>
<path fill="none" stroke="black" d="M949.322,-511.55C897.898,-547.026 824.462,-597.688 769.711,-635.459"/>
<polygon fill="black" stroke="black" points="767.676,-632.611 761.432,-641.17 771.651,-638.373 767.676,-632.611"/>
</g>
<!-- 59439952&#45;&gt;58006144 -->
<g id="edge53" class="edge"><title>59439952&#45;&gt;58006144</title>
<path fill="none" stroke="black" d="M903.557,-501.224C886.652,-506.218 869.361,-511.282 853,-516 805.557,-529.68 752.275,-544.576 709.804,-556.338"/>
<polygon fill="black" stroke="black" points="708.788,-552.988 700.083,-559.028 710.655,-559.734 708.788,-552.988"/>
</g>
<!-- 57976912 -->
<g id="node15" class="node"><title>57976912</title>
<ellipse fill="gold" stroke="black" cx="880" cy="-1253" rx="370.024" ry="46.669"/>
<text text-anchor="middle" x="880" y="-1260.4" font-family="Times Roman,serif" font-size="24.00">exp: (branch_exp (f) (quote (f)) (quote (f)))</text>
<text text-anchor="middle" x="880" y="-1231.4" font-family="Times Roman,serif" font-size="24.00">value: </text>
</g>
<!-- 59664768 -->
<g id="node16" class="node"><title>59664768</title>
<ellipse fill="#8f8f8f" stroke="black" cx="1043" cy="-1144" rx="297.192" ry="26.163"/>
<text text-anchor="middle" x="1043" y="-1136.9" font-family="Times Roman,serif" font-size="24.00">request: [(59664768, (f), &lt;env&gt;)]</text>
</g>
<!-- 59664768&#45;&gt;57976912 -->
<g id="edge33" class="edge"><title>59664768&#45;&gt;57976912</title>
<path fill="none" stroke="black" d="M1004.37,-1169.83C990.181,-1179.32 973.568,-1190.43 957.187,-1201.38"/>
<polygon fill="black" stroke="black" points="955.023,-1198.62 948.656,-1207.09 958.914,-1204.44 955.023,-1198.62"/>
</g>
<!-- 60439872 -->
<g id="node24" class="node"><title>60439872</title>
<ellipse fill="firebrick" stroke="black" cx="436" cy="-1035" rx="72.1249" ry="46.669"/>
<text text-anchor="middle" x="436" y="-1042.4" font-family="Times Roman,serif" font-size="24.00">exp: (f)</text>
<text text-anchor="middle" x="436" y="-1013.4" font-family="Times Roman,serif" font-size="24.00">value: </text>
</g>
<!-- 59664768&#45;&gt;60439872 -->
<g id="edge37" class="edge"><title>59664768&#45;&gt;60439872</title>
<path fill="none" stroke="black" stroke-dasharray="1,5" d="M820.152,-1126.79C703.05,-1115.95 572.56,-1100.51 517,-1082 509.733,-1079.58 502.398,-1076.46 495.266,-1072.98"/>
<polygon fill="black" stroke="black" points="496.854,-1069.86 486.36,-1068.4 493.654,-1076.08 496.854,-1069.86"/>
</g>
<!-- 51699168 -->
<g id="node17" class="node"><title>51699168</title>
<ellipse fill="#8f8f8f" stroke="black" cx="680" cy="-1035" rx="154.149" ry="46.669"/>
<text text-anchor="middle" x="680" y="-1042.4" font-family="Times Roman,serif" font-size="24.00">exp: branch_exp</text>
<text text-anchor="middle" x="680" y="-1013.4" font-family="Times Roman,serif" font-size="24.00">value: sp:branch</text>
</g>
<!-- 51699168&#45;&gt;57976912 -->
<g id="edge7" class="edge"><title>51699168&#45;&gt;57976912</title>
<path fill="none" stroke="black" d="M685.77,-1081.49C691.309,-1109.71 702.093,-1145 723,-1170 733.482,-1182.54 746.353,-1193.44 760.175,-1202.85"/>
<polygon fill="black" stroke="black" points="758.599,-1206 768.891,-1208.51 762.415,-1200.13 758.599,-1206"/>
</g>
<!-- 51699168&#45;&gt;59664768 -->
<g id="edge9" class="edge"><title>51699168&#45;&gt;59664768</title>
<path fill="none" stroke="black" d="M789.404,-1067.85C840.68,-1083.25 901.122,-1101.4 950.135,-1116.11"/>
<polygon fill="black" stroke="black" points="949.195,-1119.49 959.779,-1119.01 951.208,-1112.78 949.195,-1119.49"/>
</g>
<!-- 58403376 -->
<g id="node18" class="node"><title>58403376</title>
<ellipse fill="#8f8f8f" stroke="black" cx="932" cy="-1035" rx="79.9031" ry="46.669"/>
<text text-anchor="middle" x="932" y="-1042.4" font-family="Times Roman,serif" font-size="24.00">exp: (f)</text>
<text text-anchor="middle" x="932" y="-1013.4" font-family="Times Roman,serif" font-size="24.00">value: 1</text>
</g>
<!-- 58403376&#45;&gt;57976912 -->
<g id="edge13" class="edge"><title>58403376&#45;&gt;57976912</title>
<path fill="none" stroke="black" d="M874.239,-1067.19C863.969,-1072.43 853.271,-1077.58 843,-1082 797.303,-1101.68 765.978,-1077.56 737,-1118 723.54,-1136.79 725.467,-1149.97 737,-1170 744.031,-1182.21 753.623,-1192.79 764.536,-1201.92"/>
<polygon fill="black" stroke="black" points="762.666,-1204.9 772.698,-1208.3 766.981,-1199.38 762.666,-1204.9"/>
</g>
<!-- 58403376&#45;&gt;59664768 -->
<g id="edge15" class="edge"><title>58403376&#45;&gt;59664768</title>
<path fill="none" stroke="black" d="M973.017,-1075.28C984.973,-1087.02 997.893,-1099.71 1009.34,-1110.94"/>
<polygon fill="black" stroke="black" points="1007.03,-1113.59 1016.62,-1118.1 1011.94,-1108.59 1007.03,-1113.59"/>
</g>
<!-- 58136352 -->
<g id="node19" class="node"><title>58136352</title>
<ellipse fill="#8f8f8f" stroke="black" cx="895" cy="-926" rx="99.9096" ry="26.163"/>
<text text-anchor="middle" x="895" y="-918.9" font-family="Times Roman,serif" font-size="24.00">request: []</text>
</g>
<!-- 58136352&#45;&gt;58403376 -->
<g id="edge23" class="edge"><title>58136352&#45;&gt;58403376</title>
<path fill="none" stroke="black" d="M903.862,-952.108C906.684,-960.422 909.922,-969.958 913.172,-979.535"/>
<polygon fill="black" stroke="black" points="909.884,-980.736 916.413,-989.08 916.512,-978.486 909.884,-980.736"/>
</g>
<!-- 58206896&#45;&gt;58403376 -->
<g id="edge17" class="edge"><title>58206896&#45;&gt;58403376</title>
<path fill="none" stroke="black" d="M976.043,-861.605C987.397,-872.736 997.62,-885.651 1004,-900 1013.39,-921.118 1012.08,-930.348 1004,-952 999.169,-964.943 991.308,-977.205 982.52,-988.136"/>
<polygon fill="black" stroke="black" points="979.778,-985.958 975.987,-995.851 985.12,-990.482 979.778,-985.958"/>
</g>
<!-- 58206896&#45;&gt;58136352 -->
<g id="edge19" class="edge"><title>58206896&#45;&gt;58136352</title>
<path fill="none" stroke="black" d="M904.741,-863.542C903.368,-872.345 901.951,-881.432 900.637,-889.856"/>
<polygon fill="black" stroke="black" points="897.179,-889.319 899.096,-899.739 904.095,-890.398 897.179,-889.319"/>
</g>
<!-- 58090240 -->
<g id="node21" class="node"><title>58090240</title>
<ellipse fill="#8f8f8f" stroke="black" cx="1169" cy="-1035" rx="138.801" ry="46.669"/>
<text text-anchor="middle" x="1169" y="-1042.4" font-family="Times Roman,serif" font-size="24.00">exp: (quote (f))</text>
<text text-anchor="middle" x="1169" y="-1013.4" font-family="Times Roman,serif" font-size="24.00">value: (f)</text>
</g>
<!-- 58090240&#45;&gt;57976912 -->
<g id="edge25" class="edge"><title>58090240&#45;&gt;57976912</title>
<path fill="none" stroke="black" d="M1268.66,-1067.49C1327.42,-1091.91 1384.01,-1128.25 1349,-1170 1327,-1196.23 1270.17,-1214.18 1203.34,-1226.45"/>
<polygon fill="black" stroke="black" points="1202.64,-1223.02 1193.41,-1228.22 1203.87,-1229.91 1202.64,-1223.02"/>
</g>
<!-- 58090240&#45;&gt;59664768 -->
<g id="edge27" class="edge"><title>58090240&#45;&gt;59664768</title>
<path fill="none" stroke="black" d="M1118.84,-1078.39C1106.12,-1089.4 1092.66,-1101.04 1080.68,-1111.41"/>
<polygon fill="black" stroke="black" points="1078.31,-1108.83 1073.04,-1118.02 1082.89,-1114.12 1078.31,-1108.83"/>
</g>
<!-- 58150192 -->
<g id="node22" class="node"><title>58150192</title>
<ellipse fill="#8f8f8f" stroke="black" cx="1465" cy="-1035" rx="138.801" ry="46.669"/>
<text text-anchor="middle" x="1465" y="-1042.4" font-family="Times Roman,serif" font-size="24.00">exp: (quote (f))</text>
<text text-anchor="middle" x="1465" y="-1013.4" font-family="Times Roman,serif" font-size="24.00">value: (f)</text>
</g>
<!-- 58150192&#45;&gt;57976912 -->
<g id="edge29" class="edge"><title>58150192&#45;&gt;57976912</title>
<path fill="none" stroke="black" d="M1443.71,-1081.16C1427.33,-1111.33 1401.78,-1148.91 1368,-1170 1333.24,-1191.7 1256.64,-1208.75 1174.21,-1221.61"/>
<polygon fill="black" stroke="black" points="1173.49,-1218.18 1164.14,-1223.16 1174.55,-1225.1 1173.49,-1218.18"/>
</g>
<!-- 58150192&#45;&gt;59664768 -->
<g id="edge31" class="edge"><title>58150192&#45;&gt;59664768</title>
<path fill="none" stroke="black" d="M1365.83,-1067.77C1349.58,-1072.77 1332.87,-1077.69 1317,-1082 1268.99,-1095.03 1215.74,-1107.52 1169.05,-1117.83"/>
<polygon fill="black" stroke="black" points="1168.21,-1114.43 1159.19,-1120 1169.71,-1121.27 1168.21,-1114.43"/>
</g>
<!-- 60439872&#45;&gt;57976912 -->
<g id="edge35" class="edge"><title>60439872&#45;&gt;57976912</title>
<path fill="none" stroke="black" d="M489.346,-1066.53C498.519,-1071.79 507.996,-1077.12 517,-1082 593.176,-1123.32 612.631,-1133.01 691,-1170 715.139,-1181.39 741.231,-1193.18 766.096,-1204.18"/>
<polygon fill="black" stroke="black" points="764.997,-1207.52 775.559,-1208.35 767.82,-1201.11 764.997,-1207.52"/>
</g>
<!-- 60419392 -->
<g id="node25" class="node"><title>60419392</title>
<ellipse fill="#8f8f8f" stroke="black" cx="419" cy="-926" rx="99.9096" ry="26.163"/>
<text text-anchor="middle" x="419" y="-918.9" font-family="Times Roman,serif" font-size="24.00">request: []</text>
</g>
<!-- 60419392&#45;&gt;60439872 -->
<g id="edge79" class="edge"><title>60419392&#45;&gt;60439872</title>
<path fill="none" stroke="black" d="M423.072,-952.108C424.327,-960.156 425.761,-969.35 427.206,-978.617"/>
<polygon fill="black" stroke="black" points="423.772,-979.308 428.771,-988.649 430.688,-978.23 423.772,-979.308"/>
</g>
<!-- 60446592&#45;&gt;60439872 -->
<g id="edge73" class="edge"><title>60446592&#45;&gt;60439872</title>
<path fill="none" stroke="black" d="M512.933,-862.886C528.595,-889.282 540.947,-922.882 528,-952 520.694,-968.431 508.35,-982.982 495.036,-995.128"/>
<polygon fill="black" stroke="black" points="492.377,-992.801 487.117,-1002 496.964,-998.089 492.377,-992.801"/>
</g>
<!-- 60446592&#45;&gt;60419392 -->
<g id="edge75" class="edge"><title>60446592&#45;&gt;60419392</title>
<path fill="none" stroke="black" d="M452.979,-863.226C447.897,-872.614 442.634,-882.337 437.812,-891.246"/>
<polygon fill="black" stroke="black" points="434.654,-889.728 432.972,-900.188 440.81,-893.06 434.654,-889.728"/>
</g>
<!-- 51695328 -->
<g id="node29" class="node"><title>51695328</title>
<ellipse fill="none" stroke="black" cx="680" cy="-926" rx="62.9325" ry="18.3848"/>
<text text-anchor="middle" x="680" y="-922.4" font-family="Times Roman,serif" font-size="14.00">51695328</text>
</g>
<!-- 51695328&#45;&gt;51699168 -->
<g id="edge11" class="edge"><title>51695328&#45;&gt;51699168</title>
<path fill="none" stroke="black" d="M680,-944.986C680,-954.326 680,-966.131 680,-978.09"/>
<polygon fill="black" stroke="black" points="676.5,-978.122 680,-988.122 683.5,-978.122 676.5,-978.122"/>
</g>
<!-- 55793584 -->
<g id="node46" class="node"><title>55793584</title>
<ellipse fill="none" stroke="black" cx="264" cy="-339" rx="62.9325" ry="18.3848"/>
<text text-anchor="middle" x="264" y="-335.4" font-family="Times Roman,serif" font-size="14.00">55793584</text>
</g>
<!-- 55793584&#45;&gt;58989104 -->
<g id="edge43" class="edge"><title>55793584&#45;&gt;58989104</title>
<path fill="none" stroke="black" d="M264,-357.626C264,-371.974 264,-392.614 264,-412.236"/>
<polygon fill="black" stroke="black" points="260.5,-412.365 264,-422.365 267.5,-412.365 260.5,-412.365"/>
</g>
<!-- 52629264 -->
<g id="node56" class="node"><title>52629264</title>
<ellipse fill="none" stroke="black" cx="368" cy="-19" rx="62.9325" ry="18.3848"/>
<text text-anchor="middle" x="368" y="-15.4" font-family="Times Roman,serif" font-size="14.00">52629264</text>
</g>
<!-- 52629264&#45;&gt;60248784 -->
<g id="edge61" class="edge"><title>52629264&#45;&gt;60248784</title>
<path fill="none" stroke="black" d="M368,-37.7084C368,-45.3917 368,-54.7362 368,-64.3518"/>
<polygon fill="black" stroke="black" points="364.5,-64.4121 368,-74.4121 371.5,-64.4122 364.5,-64.4121"/>
</g>
</g>
</svg>
