<?xml version="1.0" encoding="UTF-8" standalone="no"?>
<!DOCTYPE svg PUBLIC "-//W3C//DTD SVG 1.1//EN"
 "http://www.w3.org/Graphics/SVG/1.1/DTD/svg11.dtd">
<!-- Generated by graphviz version 2.26.3 (20100126.1600)
 -->
<!-- Title: _anonymous_0 Pages: 1 -->
<svg width="1615pt" height="1308pt"
 viewBox="0.00 0.00 1615.00 1308.00" xmlns="http://www.w3.org/2000/svg" xmlns:xlink="http://www.w3.org/1999/xlink">
<g id="graph1" class="graph" transform="scale(1 1) rotate(0) translate(4 1304)">
<title>_anonymous_0</title>
<polygon fill="white" stroke="white" points="-4,5 -4,-1304 1612,-1304 1612,5 -4,5"/>
<!-- 60087712 -->
<g id="node3" class="node"><title>60087712</title>
<ellipse fill="#8f8f8f" stroke="black" cx="695" cy="-339" rx="300.02" ry="46.669"/>
<text text-anchor="middle" x="695" y="-346.4" font-family="Times Roman,serif" font-size="24.00">exp: (gamma 1.000000 1.000000)</text>
<text text-anchor="middle" x="695" y="-317.4" font-family="Times Roman,serif" font-size="24.00">value: 1.629912</text>
</g>
<!-- 59405008 -->
<g id="node12" class="node"><title>59405008</title>
<ellipse fill="#8f8f8f" stroke="black" cx="695" cy="-469" rx="149.2" ry="46.669"/>
<text text-anchor="middle" x="695" y="-476.4" font-family="Times Roman,serif" font-size="24.00">exp: alpha</text>
<text text-anchor="middle" x="695" y="-447.4" font-family="Times Roman,serif" font-size="24.00">value: 1.629912</text>
</g>
<!-- 60087712&#45;&gt;59405008 -->
<g id="edge49" class="edge"><title>60087712&#45;&gt;59405008</title>
<path fill="none" stroke="black" d="M695,-385.566C695,-394.154 695,-403.21 695,-412.063"/>
<polygon fill="black" stroke="black" points="691.5,-412.322 695,-422.322 698.5,-412.322 691.5,-412.322"/>
</g>
<!-- 59988448 -->
<g id="node4" class="node"><title>59988448</title>
<ellipse fill="#8f8f8f" stroke="black" cx="631" cy="-230" rx="99.9096" ry="26.163"/>
<text text-anchor="middle" x="631" y="-222.9" font-family="Times Roman,serif" font-size="24.00">request: []</text>
</g>
<!-- 59988448&#45;&gt;60087712 -->
<g id="edge71" class="edge"><title>59988448&#45;&gt;60087712</title>
<path fill="none" stroke="black" d="M646.167,-255.831C651.091,-264.218 656.759,-273.871 662.45,-283.564"/>
<polygon fill="black" stroke="black" points="659.581,-285.589 667.662,-292.441 665.617,-282.045 659.581,-285.589"/>
</g>
<!-- 60248784 -->
<g id="node5" class="node"><title>60248784</title>
<ellipse fill="#8f8f8f" stroke="black" cx="368" cy="-121" rx="159.806" ry="46.669"/>
<text text-anchor="middle" x="368" y="-128.4" font-family="Times Roman,serif" font-size="24.00">exp: gamma</text>
<text text-anchor="middle" x="368" y="-99.4" font-family="Times Roman,serif" font-size="24.00">value: sp:gamma</text>
</g>
<!-- 60248784&#45;&gt;60087712 -->
<g id="edge57" class="edge"><title>60248784&#45;&gt;60087712</title>
<path fill="none" stroke="black" d="M412.501,-165.872C441.911,-193.992 482.241,-229.749 522,-256 540.889,-268.471 561.938,-280.169 582.669,-290.626"/>
<polygon fill="black" stroke="black" points="581.331,-293.869 591.844,-295.185 584.446,-287.6 581.331,-293.869"/>
</g>
<!-- 60248784&#45;&gt;59988448 -->
<g id="edge59" class="edge"><title>60248784&#45;&gt;59988448</title>
<path fill="none" stroke="black" d="M459.985,-159.123C495.847,-173.986 536.031,-190.64 568.432,-204.069"/>
<polygon fill="black" stroke="black" points="567.21,-207.351 577.788,-207.946 569.89,-200.884 567.21,-207.351"/>
</g>
<!-- 58095216 -->
<g id="node6" class="node"><title>58095216</title>
<ellipse fill="#8f8f8f" stroke="black" cx="695" cy="-121" rx="149.2" ry="46.669"/>
<text text-anchor="middle" x="695" y="-128.4" font-family="Times Roman,serif" font-size="24.00">exp: 1.000000</text>
<text text-anchor="middle" x="695" y="-99.4" font-family="Times Roman,serif" font-size="24.00">value: 1.000000</text>
</g>
<!-- 58095216&#45;&gt;60087712 -->
<g id="edge63" class="edge"><title>58095216&#45;&gt;60087712</title>
<path fill="none" stroke="black" d="M724.992,-166.726C731.173,-178.418 736.776,-191.289 740,-204 745.682,-226.402 745.682,-233.598 740,-256 737.667,-265.198 734.088,-274.48 729.946,-283.338"/>
<polygon fill="black" stroke="black" points="726.762,-281.881 725.454,-292.395 733.033,-284.991 726.762,-281.881"/>
</g>
<!-- 58095216&#45;&gt;59988448 -->
<g id="edge65" class="edge"><title>58095216&#45;&gt;59988448</title>
<path fill="none" stroke="black" d="M668.044,-166.91C662.458,-176.423 656.663,-186.293 651.36,-195.324"/>
<polygon fill="black" stroke="black" points="648.294,-193.634 646.249,-204.029 654.33,-197.178 648.294,-193.634"/>
</g>
<!-- 58704304 -->
<g id="node7" class="node"><title>58704304</title>
<ellipse fill="#8f8f8f" stroke="black" cx="1011" cy="-121" rx="149.2" ry="46.669"/>
<text text-anchor="middle" x="1011" y="-128.4" font-family="Times Roman,serif" font-size="24.00">exp: 1.000000</text>
<text text-anchor="middle" x="1011" y="-99.4" font-family="Times Roman,serif" font-size="24.00">value: 1.000000</text>
</g>
<!-- 58704304&#45;&gt;60087712 -->
<g id="edge67" class="edge"><title>58704304&#45;&gt;60087712</title>
<path fill="none" stroke="black" d="M949.322,-163.55C897.727,-199.144 823.974,-250.024 769.166,-287.835"/>
<polygon fill="black" stroke="black" points="767.124,-284.991 760.88,-293.551 771.099,-290.753 767.124,-284.991"/>
</g>
<!-- 58704304&#45;&gt;59988448 -->
<g id="edge69" class="edge"><title>58704304&#45;&gt;59988448</title>
<path fill="none" stroke="black" d="M903.557,-153.224C886.652,-158.218 869.361,-163.282 853,-168 805.557,-181.68 752.275,-196.576 709.804,-208.338"/>
<polygon fill="black" stroke="black" points="708.788,-204.988 700.083,-211.028 710.655,-211.734 708.788,-204.988"/>
</g>
<!-- 58951360 -->
<g id="node9" class="node"><title>58951360</title>
<ellipse fill="#8f8f8f" stroke="black" cx="695" cy="-687" rx="372.145" ry="46.669"/>
<text text-anchor="middle" x="695" y="-694.4" font-family="Times Roman,serif" font-size="24.00">exp: (make_sym_dir_mult alpha 2.000000)</text>
<text text-anchor="middle" x="695" y="-665.4" font-family="Times Roman,serif" font-size="24.00">value: sp:sym_dir_mult</text>
</g>
<!-- 58206896 -->
<g id="node20" class="node"><title>58206896</title>
<ellipse fill="#8f8f8f" stroke="black" cx="912" cy="-817" rx="208.096" ry="46.669"/>
<text text-anchor="middle" x="912" y="-824.4" font-family="Times Roman,serif" font-size="24.00">exp: f</text>
<text text-anchor="middle" x="912" y="-795.4" font-family="Times Roman,serif" font-size="24.00">value: sp:sym_dir_mult</text>
</g>
<!-- 58951360&#45;&gt;58206896 -->
<g id="edge21" class="edge"><title>58951360&#45;&gt;58206896</title>
<path fill="none" stroke="black" d="M771.201,-732.65C790.369,-744.134 811.018,-756.504 830.437,-768.137"/>
<polygon fill="black" stroke="black" points="828.886,-771.288 839.263,-773.425 832.483,-765.283 828.886,-771.288"/>
</g>
<!-- 60446592 -->
<g id="node26" class="node"><title>60446592</title>
<ellipse fill="#8f8f8f" stroke="black" cx="478" cy="-817" rx="208.096" ry="46.669"/>
<text text-anchor="middle" x="478" y="-824.4" font-family="Times Roman,serif" font-size="24.00">exp: f</text>
<text text-anchor="middle" x="478" y="-795.4" font-family="Times Roman,serif" font-size="24.00">value: sp:sym_dir_mult</text>
</g>
<!-- 58951360&#45;&gt;60446592 -->
<g id="edge77" class="edge"><title>58951360&#45;&gt;60446592</title>
<path fill="none" stroke="black" d="M618.799,-732.65C599.631,-744.134 578.982,-756.504 559.563,-768.137"/>
<polygon fill="black" stroke="black" points="557.517,-765.283 550.737,-773.425 561.114,-771.288 557.517,-765.283"/>
</g>
<!-- 58006144 -->
<g id="node10" class="node"><title>58006144</title>
<ellipse fill="#8f8f8f" stroke="black" cx="631" cy="-578" rx="99.9096" ry="26.163"/>
<text text-anchor="middle" x="631" y="-570.9" font-family="Times Roman,serif" font-size="24.00">request: []</text>
</g>
<!-- 58006144&#45;&gt;58951360 -->
<g id="edge55" class="edge"><title>58006144&#45;&gt;58951360</title>
<path fill="none" stroke="black" d="M646.167,-603.831C651.091,-612.218 656.759,-621.871 662.45,-631.564"/>
<polygon fill="black" stroke="black" points="659.581,-633.589 667.662,-640.441 665.617,-630.045 659.581,-633.589"/>
</g>
<!-- 58989104 -->
<g id="node11" class="node"><title>58989104</title>
<ellipse fill="#8f8f8f" stroke="black" cx="264" cy="-469" rx="263.958" ry="46.669"/>
<text text-anchor="middle" x="264" y="-476.4" font-family="Times Roman,serif" font-size="24.00">exp: make_sym_dir_mult</text>
<text text-anchor="middle" x="264" y="-447.4" font-family="Times Roman,serif" font-size="24.00">value: sp:make_sym_dir_mult</text>
</g>
<!-- 58989104&#45;&gt;58951360 -->
<g id="edge39" class="edge"><title>58989104&#45;&gt;58951360</title>
<path fill="none" stroke="black" d="M346.7,-513.206C397.132,-539.93 463.024,-574.434 522,-604 543.986,-615.022 567.679,-626.59 590.266,-637.472"/>
<polygon fill="black" stroke="black" points="589.003,-640.748 599.532,-641.928 592.037,-634.439 589.003,-640.748"/>
</g>
<!-- 58989104&#45;&gt;58006144 -->
<g id="edge41" class="edge"><title>58989104&#45;&gt;58006144</title>
<path fill="none" stroke="black" d="M398.833,-509.046C451.602,-524.718 510.158,-542.11 555.262,-555.505"/>
<polygon fill="black" stroke="black" points="554.382,-558.895 564.965,-558.387 556.376,-552.185 554.382,-558.895"/>
</g>
<!-- 59405008&#45;&gt;58951360 -->
<g id="edge45" class="edge"><title>59405008&#45;&gt;58951360</title>
<path fill="none" stroke="black" d="M724.992,-514.726C731.173,-526.418 736.776,-539.289 740,-552 745.682,-574.402 745.682,-581.598 740,-604 737.667,-613.198 734.088,-622.48 729.946,-631.338"/>
<polygon fill="black" stroke="black" points="726.762,-629.881 725.454,-640.395 733.033,-632.991 726.762,-629.881"/>
</g>
<!-- 59405008&#45;&gt;58006144 -->
<g id="edge47" class="edge"><title>59405008&#45;&gt;58006144</title>
<path fill="none" stroke="black" d="M668.044,-514.91C662.458,-524.423 656.663,-534.293 651.36,-543.324"/>
<polygon fill="black" stroke="black" points="648.294,-541.634 646.249,-552.029 654.33,-545.178 648.294,-541.634"/>
</g>
<!-- 59439952 -->
<g id="node13" class="node"><title>59439952</title>
<ellipse fill="#8f8f8f" stroke="black" cx="1011" cy="-469" rx="149.2" ry="46.669"/>
<text text-anchor="middle" x="1011" y="-476.4" font-family="Times Roman,serif" font-size="24.00">exp: 2.000000</text>
<text text-anchor="middle" x="1011" y="-447.4" font-family="Times Roman,serif" font-size="24.00">value: 2.000000</text>
</g>
<!-- 59439952&#45;&gt;58951360 -->
<g id="edge51" class="edge"><title>59439952&#45;&gt;58951360</title>
<path fill="none" stroke="black" d="M949.322,-511.55C897.898,-547.026 824.462,-597.688 769.711,-635.459"/>
<polygon fill="black" stroke="black" points="767.676,-632.611 761.432,-641.17 771.651,-638.373 767.676,-632.611"/>
</g>
<!-- 59439952&#45;&gt;58006144 -->
<g id="edge53" class="edge"><title>59439952&#45;&gt;58006144</title>
<path fill="none" stroke="black" d="M903.557,-501.224C886.652,-506.218 869.361,-511.282 853,-516 805.557,-529.68 752.275,-544.576 709.804,-556.338"/>
<polygon fill="black" stroke="black" points="708.788,-552.988 700.083,-559.028 710.655,-559.734 708.788,-552.988"/>
</g>
<!-- 57976912 -->
<g id="node15" class="node"><title>57976912</title>
<ellipse fill="gold" stroke="black" cx="883" cy="-1253" rx="370.024" ry="46.669"/>
<text text-anchor="middle" x="883" y="-1260.4" font-family="Times Roman,serif" font-size="24.00">exp: (branch_exp (f) (quote (f)) (quote (f)))</text>
<text text-anchor="middle" x="883" y="-1231.4" font-family="Times Roman,serif" font-size="24.00">value: 1</text>
</g>
<!-- 59664768 -->
<g id="node16" class="node"><title>59664768</title>
<ellipse fill="#8f8f8f" stroke="black" cx="1046" cy="-1144" rx="297.192" ry="26.163"/>
<text text-anchor="middle" x="1046" y="-1136.9" font-family="Times Roman,serif" font-size="24.00">request: [(59664768, (f), &lt;env&gt;)]</text>
</g>
<!-- 59664768&#45;&gt;57976912 -->
<g id="edge33" class="edge"><title>59664768&#45;&gt;57976912</title>
<path fill="none" stroke="black" d="M1007.37,-1169.83C993.181,-1179.32 976.568,-1190.43 960.187,-1201.38"/>
<polygon fill="black" stroke="black" points="958.023,-1198.62 951.656,-1207.09 961.914,-1204.44 958.023,-1198.62"/>
</g>
<!-- 60439872 -->
<g id="node24" class="node"><title>60439872</title>
<ellipse fill="firebrick" stroke="black" cx="431" cy="-1035" rx="79.9031" ry="46.669"/>
<text text-anchor="middle" x="431" y="-1042.4" font-family="Times Roman,serif" font-size="24.00">exp: (f)</text>
<text text-anchor="middle" x="431" y="-1013.4" font-family="Times Roman,serif" font-size="24.00">value: 1</text>
</g>
<!-- 59664768&#45;&gt;60439872 -->
<g id="edge37" class="edge"><title>59664768&#45;&gt;60439872</title>
<path fill="none" stroke="black" stroke-dasharray="1,5" d="M827.551,-1126.34C709.494,-1115.19 576.577,-1099.6 520,-1082 512.085,-1079.54 504.048,-1076.37 496.204,-1072.85"/>
<polygon fill="black" stroke="black" points="497.645,-1069.66 487.106,-1068.58 494.668,-1076 497.645,-1069.66"/>
</g>
<!-- 51699168 -->
<g id="node17" class="node"><title>51699168</title>
<ellipse fill="#8f8f8f" stroke="black" cx="683" cy="-1035" rx="154.149" ry="46.669"/>
<text text-anchor="middle" x="683" y="-1042.4" font-family="Times Roman,serif" font-size="24.00">exp: branch_exp</text>
<text text-anchor="middle" x="683" y="-1013.4" font-family="Times Roman,serif" font-size="24.00">value: sp:branch</text>
</g>
<!-- 51699168&#45;&gt;57976912 -->
<g id="edge7" class="edge"><title>51699168&#45;&gt;57976912</title>
<path fill="none" stroke="black" d="M688.77,-1081.49C694.309,-1109.71 705.093,-1145 726,-1170 736.482,-1182.54 749.353,-1193.44 763.175,-1202.85"/>
<polygon fill="black" stroke="black" points="761.599,-1206 771.891,-1208.51 765.415,-1200.13 761.599,-1206"/>
</g>
<!-- 51699168&#45;&gt;59664768 -->
<g id="edge9" class="edge"><title>51699168&#45;&gt;59664768</title>
<path fill="none" stroke="black" d="M792.404,-1067.85C843.68,-1083.25 904.122,-1101.4 953.135,-1116.11"/>
<polygon fill="black" stroke="black" points="952.195,-1119.49 962.779,-1119.01 954.208,-1112.78 952.195,-1119.49"/>
</g>
<!-- 58403376 -->
<g id="node18" class="node"><title>58403376</title>
<ellipse fill="#8f8f8f" stroke="black" cx="935" cy="-1035" rx="79.9031" ry="46.669"/>
<text text-anchor="middle" x="935" y="-1042.4" font-family="Times Roman,serif" font-size="24.00">exp: (f)</text>
<text text-anchor="middle" x="935" y="-1013.4" font-family="Times Roman,serif" font-size="24.00">value: 1</text>
</g>
<!-- 58403376&#45;&gt;57976912 -->
<g id="edge13" class="edge"><title>58403376&#45;&gt;57976912</title>
<path fill="none" stroke="black" d="M877.239,-1067.19C866.969,-1072.43 856.271,-1077.58 846,-1082 800.303,-1101.68 768.978,-1077.56 740,-1118 726.54,-1136.79 728.467,-1149.97 740,-1170 747.031,-1182.21 756.623,-1192.79 767.536,-1201.92"/>
<polygon fill="black" stroke="black" points="765.666,-1204.9 775.698,-1208.3 769.981,-1199.38 765.666,-1204.9"/>
</g>
<!-- 58403376&#45;&gt;59664768 -->
<g id="edge15" class="edge"><title>58403376&#45;&gt;59664768</title>
<path fill="none" stroke="black" d="M976.017,-1075.28C987.973,-1087.02 1000.89,-1099.71 1012.34,-1110.94"/>
<polygon fill="black" stroke="black" points="1010.03,-1113.59 1019.62,-1118.1 1014.94,-1108.59 1010.03,-1113.59"/>
</g>
<!-- 58136352 -->
<g id="node19" class="node"><title>58136352</title>
<ellipse fill="#8f8f8f" stroke="black" cx="896" cy="-926" rx="99.9096" ry="26.163"/>
<text text-anchor="middle" x="896" y="-918.9" font-family="Times Roman,serif" font-size="24.00">request: []</text>
</g>
<!-- 58136352&#45;&gt;58403376 -->
<g id="edge23" class="edge"><title>58136352&#45;&gt;58403376</title>
<path fill="none" stroke="black" d="M905.341,-952.108C908.316,-960.422 911.728,-969.958 915.155,-979.535"/>
<polygon fill="black" stroke="black" points="911.906,-980.844 918.57,-989.08 918.497,-978.486 911.906,-980.844"/>
</g>
<!-- 58206896&#45;&gt;58403376 -->
<g id="edge17" class="edge"><title>58206896&#45;&gt;58403376</title>
<path fill="none" stroke="black" d="M976.727,-861.499C988.206,-872.638 998.543,-885.582 1005,-900 1014.45,-921.092 1012.93,-930.293 1005,-952 1000.36,-964.698 992.826,-976.796 984.384,-987.632"/>
<polygon fill="black" stroke="black" points="981.429,-985.715 977.784,-995.663 986.837,-990.16 981.429,-985.715"/>
</g>
<!-- 58206896&#45;&gt;58136352 -->
<g id="edge19" class="edge"><title>58206896&#45;&gt;58136352</title>
<path fill="none" stroke="black" d="M905.168,-863.542C903.89,-872.249 902.571,-881.232 901.346,-889.578"/>
<polygon fill="black" stroke="black" points="897.844,-889.337 899.855,-899.739 904.77,-890.353 897.844,-889.337"/>
</g>
<!-- 58090240 -->
<g id="node21" class="node"><title>58090240</title>
<ellipse fill="#8f8f8f" stroke="black" cx="1172" cy="-1035" rx="138.801" ry="46.669"/>
<text text-anchor="middle" x="1172" y="-1042.4" font-family="Times Roman,serif" font-size="24.00">exp: (quote (f))</text>
<text text-anchor="middle" x="1172" y="-1013.4" font-family="Times Roman,serif" font-size="24.00">value: (f)</text>
</g>
<!-- 58090240&#45;&gt;57976912 -->
<g id="edge25" class="edge"><title>58090240&#45;&gt;57976912</title>
<path fill="none" stroke="black" d="M1271.66,-1067.49C1330.42,-1091.91 1387.01,-1128.25 1352,-1170 1330,-1196.23 1273.17,-1214.18 1206.34,-1226.45"/>
<polygon fill="black" stroke="black" points="1205.64,-1223.02 1196.41,-1228.22 1206.87,-1229.91 1205.64,-1223.02"/>
</g>
<!-- 58090240&#45;&gt;59664768 -->
<g id="edge27" class="edge"><title>58090240&#45;&gt;59664768</title>
<path fill="none" stroke="black" d="M1121.84,-1078.39C1109.12,-1089.4 1095.66,-1101.04 1083.68,-1111.41"/>
<polygon fill="black" stroke="black" points="1081.31,-1108.83 1076.04,-1118.02 1085.89,-1114.12 1081.31,-1108.83"/>
</g>
<!-- 58150192 -->
<g id="node22" class="node"><title>58150192</title>
<ellipse fill="#8f8f8f" stroke="black" cx="1468" cy="-1035" rx="138.801" ry="46.669"/>
<text text-anchor="middle" x="1468" y="-1042.4" font-family="Times Roman,serif" font-size="24.00">exp: (quote (f))</text>
<text text-anchor="middle" x="1468" y="-1013.4" font-family="Times Roman,serif" font-size="24.00">value: (f)</text>
</g>
<!-- 58150192&#45;&gt;57976912 -->
<g id="edge29" class="edge"><title>58150192&#45;&gt;57976912</title>
<path fill="none" stroke="black" d="M1446.71,-1081.16C1430.33,-1111.33 1404.78,-1148.91 1371,-1170 1336.24,-1191.7 1259.64,-1208.75 1177.21,-1221.61"/>
<polygon fill="black" stroke="black" points="1176.49,-1218.18 1167.14,-1223.16 1177.55,-1225.1 1176.49,-1218.18"/>
</g>
<!-- 58150192&#45;&gt;59664768 -->
<g id="edge31" class="edge"><title>58150192&#45;&gt;59664768</title>
<path fill="none" stroke="black" d="M1368.83,-1067.77C1352.58,-1072.77 1335.87,-1077.69 1320,-1082 1271.99,-1095.03 1218.74,-1107.52 1172.05,-1117.83"/>
<polygon fill="black" stroke="black" points="1171.21,-1114.43 1162.19,-1120 1172.71,-1121.27 1171.21,-1114.43"/>
</g>
<!-- 60439872&#45;&gt;57976912 -->
<g id="edge35" class="edge"><title>60439872&#45;&gt;57976912</title>
<path fill="none" stroke="black" d="M490.287,-1066.49C500.193,-1071.7 510.376,-1077.03 520,-1082 596.986,-1121.79 615.631,-1133.01 694,-1170 718.139,-1181.39 744.231,-1193.18 769.096,-1204.18"/>
<polygon fill="black" stroke="black" points="767.997,-1207.52 778.559,-1208.35 770.82,-1201.11 767.997,-1207.52"/>
</g>
<!-- 60419392 -->
<g id="node25" class="node"><title>60419392</title>
<ellipse fill="#8f8f8f" stroke="black" cx="415" cy="-926" rx="99.9096" ry="26.163"/>
<text text-anchor="middle" x="415" y="-918.9" font-family="Times Roman,serif" font-size="24.00">request: []</text>
</g>
<!-- 60419392&#45;&gt;60439872 -->
<g id="edge79" class="edge"><title>60419392&#45;&gt;60439872</title>
<path fill="none" stroke="black" d="M418.832,-952.108C420.014,-960.156 421.363,-969.35 422.724,-978.617"/>
<polygon fill="black" stroke="black" points="419.281,-979.264 424.196,-988.649 426.207,-978.247 419.281,-979.264"/>
</g>
<!-- 60446592&#45;&gt;60439872 -->
<g id="edge73" class="edge"><title>60446592&#45;&gt;60439872</title>
<path fill="none" stroke="black" d="M510.889,-863.117C525.544,-889.588 536.904,-923.188 524,-952 516.901,-967.85 505.114,-981.919 492.276,-993.766"/>
<polygon fill="black" stroke="black" points="489.831,-991.255 484.623,-1000.48 494.448,-996.516 489.831,-991.255"/>
</g>
<!-- 60446592&#45;&gt;60419392 -->
<g id="edge75" class="edge"><title>60446592&#45;&gt;60419392</title>
<path fill="none" stroke="black" d="M451.282,-863.226C445.799,-872.713 440.118,-882.542 434.924,-891.528"/>
<polygon fill="black" stroke="black" points="431.893,-889.779 429.919,-900.188 437.953,-893.281 431.893,-889.779"/>
</g>
<!-- 51695328 -->
<g id="node29" class="node"><title>51695328</title>
<ellipse fill="none" stroke="black" cx="683" cy="-926" rx="62.9325" ry="18.3848"/>
<text text-anchor="middle" x="683" y="-922.4" font-family="Times Roman,serif" font-size="14.00">51695328</text>
</g>
<!-- 51695328&#45;&gt;51699168 -->
<g id="edge11" class="edge"><title>51695328&#45;&gt;51699168</title>
<path fill="none" stroke="black" d="M683,-944.986C683,-954.326 683,-966.131 683,-978.09"/>
<polygon fill="black" stroke="black" points="679.5,-978.122 683,-988.122 686.5,-978.122 679.5,-978.122"/>
</g>
<!-- 55793584 -->
<g id="node46" class="node"><title>55793584</title>
<ellipse fill="none" stroke="black" cx="264" cy="-339" rx="62.9325" ry="18.3848"/>
<text text-anchor="middle" x="264" y="-335.4" font-family="Times Roman,serif" font-size="14.00">55793584</text>
</g>
<!-- 55793584&#45;&gt;58989104 -->
<g id="edge43" class="edge"><title>55793584&#45;&gt;58989104</title>
<path fill="none" stroke="black" d="M264,-357.626C264,-371.974 264,-392.614 264,-412.236"/>
<polygon fill="black" stroke="black" points="260.5,-412.365 264,-422.365 267.5,-412.365 260.5,-412.365"/>
</g>
<!-- 52629264 -->
<g id="node56" class="node"><title>52629264</title>
<ellipse fill="none" stroke="black" cx="368" cy="-19" rx="62.9325" ry="18.3848"/>
<text text-anchor="middle" x="368" y="-15.4" font-family="Times Roman,serif" font-size="14.00">52629264</text>
</g>
<!-- 52629264&#45;&gt;60248784 -->
<g id="edge61" class="edge"><title>52629264&#45;&gt;60248784</title>
<path fill="none" stroke="black" d="M368,-37.7084C368,-45.3917 368,-54.7362 368,-64.3518"/>
<polygon fill="black" stroke="black" points="364.5,-64.4121 368,-74.4121 371.5,-64.4122 364.5,-64.4121"/>
</g>
</g>
</svg>
