<?xml version="1.0" encoding="UTF-8" standalone="no"?>
<!DOCTYPE svg PUBLIC "-//W3C//DTD SVG 1.1//EN"
 "http://www.w3.org/Graphics/SVG/1.1/DTD/svg11.dtd">
<!-- Generated by graphviz version 2.26.3 (20100126.1600)
 -->
<!-- Title: _anonymous_0 Pages: 1 -->
<svg width="365pt" height="764pt"
 viewBox="0.00 0.00 365.00 764.00" xmlns="http://www.w3.org/2000/svg" xmlns:xlink="http://www.w3.org/1999/xlink">
<g id="graph1" class="graph" transform="scale(1 1) rotate(0) translate(4 760)">
<title>_anonymous_0</title>
<polygon fill="white" stroke="white" points="-4,5 -4,-760 362,-760 362,5 -4,5"/>
<!-- 60087712 -->
<g id="node3" class="node"><title>60087712</title>
<ellipse fill="#8f8f8f" stroke="black" cx="107" cy="-162" rx="27" ry="18"/>
</g>
<!-- 59405008 -->
<g id="node12" class="node"><title>59405008</title>
<ellipse fill="#8f8f8f" stroke="black" cx="107" cy="-234" rx="27" ry="18"/>
</g>
<!-- 60087712&#45;&gt;59405008 -->
<g id="edge45" class="edge"><title>60087712&#45;&gt;59405008</title>
<path fill="none" stroke="black" d="M107,-180.169C107,-187.869 107,-197.026 107,-205.583"/>
<polygon fill="black" stroke="black" points="103.5,-205.587 107,-215.587 110.5,-205.587 103.5,-205.587"/>
</g>
<!-- 59988448 -->
<g id="node4" class="node"><title>59988448</title>
<ellipse fill="#8f8f8f" stroke="black" cx="80" cy="-90" rx="27" ry="18"/>
</g>
<!-- 59988448&#45;&gt;60087712 -->
<g id="edge65" class="edge"><title>59988448&#45;&gt;60087712</title>
<path fill="none" stroke="black" d="M86.6742,-107.798C89.7476,-115.994 93.4616,-125.898 96.8695,-134.985"/>
<polygon fill="black" stroke="black" points="93.6142,-136.273 100.403,-144.407 100.168,-133.815 93.6142,-136.273"/>
</g>
<!-- 60248784 -->
<g id="node5" class="node"><title>60248784</title>
<ellipse fill="#8f8f8f" stroke="black" cx="27" cy="-18" rx="27" ry="18"/>
</g>
<!-- 60248784&#45;&gt;60087712 -->
<g id="edge53" class="edge"><title>60248784&#45;&gt;60087712</title>
<path fill="none" stroke="black" d="M26.9622,-36.1202C27.6785,-55.212 31.0218,-85.5642 44,-108 52.3222,-122.387 65.9393,-134.774 78.3883,-144.042"/>
<polygon fill="black" stroke="black" points="76.5546,-147.032 86.7408,-149.946 80.5952,-141.316 76.5546,-147.032"/>
</g>
<!-- 60248784&#45;&gt;59988448 -->
<g id="edge55" class="edge"><title>60248784&#45;&gt;59988448</title>
<path fill="none" stroke="black" d="M39.0265,-34.3379C45.8029,-43.5436 54.4007,-55.2236 61.9687,-65.5047"/>
<polygon fill="black" stroke="black" points="59.2742,-67.7482 68.0211,-73.7267 64.9115,-63.5985 59.2742,-67.7482"/>
</g>
<!-- 58095216 -->
<g id="node6" class="node"><title>58095216</title>
<ellipse fill="#8f8f8f" stroke="black" cx="100" cy="-18" rx="27" ry="18"/>
</g>
<!-- 58095216&#45;&gt;60087712 -->
<g id="edge57" class="edge"><title>58095216&#45;&gt;60087712</title>
<path fill="none" stroke="black" d="M106.653,-35.7104C110.204,-46.1139 114.204,-59.6139 116,-72 119,-92.6881 116.447,-116.198 113.304,-134"/>
<polygon fill="black" stroke="black" points="109.83,-133.531 111.369,-144.013 116.702,-134.859 109.83,-133.531"/>
</g>
<!-- 58095216&#45;&gt;59988448 -->
<g id="edge59" class="edge"><title>58095216&#45;&gt;59988448</title>
<path fill="none" stroke="black" d="M95.0562,-35.7978C92.8206,-43.8459 90.1274,-53.5412 87.6407,-62.4933"/>
<polygon fill="black" stroke="black" points="84.2605,-61.5855 84.9563,-72.1575 91.0051,-63.459 84.2605,-61.5855"/>
</g>
<!-- 58704304 -->
<g id="node7" class="node"><title>58704304</title>
<ellipse fill="#8f8f8f" stroke="black" cx="172" cy="-18" rx="27" ry="18"/>
</g>
<!-- 58704304&#45;&gt;60087712 -->
<g id="edge61" class="edge"><title>58704304&#45;&gt;60087712</title>
<path fill="none" stroke="black" d="M164.159,-35.3698C152.935,-60.2362 132.191,-106.193 119.02,-135.371"/>
<polygon fill="black" stroke="black" points="115.792,-134.014 114.868,-144.569 122.173,-136.894 115.792,-134.014"/>
</g>
<!-- 58704304&#45;&gt;59988448 -->
<g id="edge63" class="edge"><title>58704304&#45;&gt;59988448</title>
<path fill="none" stroke="black" d="M154.261,-31.8823C140.516,-42.6398 121.273,-57.6991 105.82,-69.7928"/>
<polygon fill="black" stroke="black" points="103.402,-67.2409 97.6841,-76.1603 107.716,-72.7534 103.402,-67.2409"/>
</g>
<!-- 58951360 -->
<g id="node9" class="node"><title>58951360</title>
<ellipse fill="#8f8f8f" stroke="black" cx="116" cy="-378" rx="27" ry="18"/>
</g>
<!-- 58206896 -->
<g id="node20" class="node"><title>58206896</title>
<ellipse fill="#8f8f8f" stroke="black" cx="152" cy="-450" rx="27" ry="18"/>
</g>
<!-- 58951360&#45;&gt;58206896 -->
<g id="edge19" class="edge"><title>58951360&#45;&gt;58206896</title>
<path fill="none" stroke="black" d="M124.715,-395.429C128.96,-403.919 134.154,-414.307 138.866,-423.733"/>
<polygon fill="black" stroke="black" points="135.763,-425.352 143.366,-432.731 142.024,-422.222 135.763,-425.352"/>
</g>
<!-- 60446592 -->
<g id="node26" class="node"><title>60446592</title>
<ellipse fill="#8f8f8f" stroke="black" cx="80" cy="-450" rx="27" ry="18"/>
</g>
<!-- 58951360&#45;&gt;60446592 -->
<g id="edge71" class="edge"><title>58951360&#45;&gt;60446592</title>
<path fill="none" stroke="black" d="M107.285,-395.429C103.04,-403.919 97.8464,-414.307 93.1337,-423.733"/>
<polygon fill="black" stroke="black" points="89.976,-422.222 88.6343,-432.731 96.237,-425.352 89.976,-422.222"/>
</g>
<!-- 58006144 -->
<g id="node10" class="node"><title>58006144</title>
<ellipse fill="#8f8f8f" stroke="black" cx="89" cy="-306" rx="27" ry="18"/>
</g>
<!-- 58006144&#45;&gt;58951360 -->
<g id="edge51" class="edge"><title>58006144&#45;&gt;58951360</title>
<path fill="none" stroke="black" d="M95.6742,-323.798C98.7476,-331.994 102.462,-341.898 105.87,-350.985"/>
<polygon fill="black" stroke="black" points="102.614,-352.273 109.403,-360.407 109.168,-349.815 102.614,-352.273"/>
</g>
<!-- 58989104 -->
<g id="node11" class="node"><title>58989104</title>
<ellipse fill="#8f8f8f" stroke="black" cx="34" cy="-234" rx="27" ry="18"/>
</g>
<!-- 58989104&#45;&gt;58951360 -->
<g id="edge37" class="edge"><title>58989104&#45;&gt;58951360</title>
<path fill="none" stroke="black" d="M34.4453,-252.138C35.653,-271.244 39.7263,-301.609 53,-324 61.4754,-338.297 75.1076,-350.675 87.527,-359.961"/>
<polygon fill="black" stroke="black" points="85.6748,-362.938 95.853,-365.88 89.731,-357.233 85.6748,-362.938"/>
</g>
<!-- 58989104&#45;&gt;58006144 -->
<g id="edge39" class="edge"><title>58989104&#45;&gt;58006144</title>
<path fill="none" stroke="black" d="M46.4804,-250.338C53.5124,-259.544 62.4347,-271.224 70.2883,-281.505"/>
<polygon fill="black" stroke="black" points="67.7172,-283.905 76.569,-289.727 73.28,-279.655 67.7172,-283.905"/>
</g>
<!-- 59405008&#45;&gt;58951360 -->
<g id="edge41" class="edge"><title>59405008&#45;&gt;58951360</title>
<path fill="none" stroke="black" d="M114.48,-251.636C118.474,-262.014 122.974,-275.514 125,-288 128.349,-308.635 125.781,-332.146 122.544,-349.963"/>
<polygon fill="black" stroke="black" points="119.069,-349.495 120.546,-359.986 125.934,-350.864 119.069,-349.495"/>
</g>
<!-- 59405008&#45;&gt;58006144 -->
<g id="edge43" class="edge"><title>59405008&#45;&gt;58006144</title>
<path fill="none" stroke="black" d="M102.551,-251.798C100.56,-259.759 98.1668,-269.333 95.9489,-278.204"/>
<polygon fill="black" stroke="black" points="92.4906,-277.607 93.4606,-288.157 99.2816,-279.305 92.4906,-277.607"/>
</g>
<!-- 59439952 -->
<g id="node13" class="node"><title>59439952</title>
<ellipse fill="#8f8f8f" stroke="black" cx="181" cy="-234" rx="27" ry="18"/>
</g>
<!-- 59439952&#45;&gt;58951360 -->
<g id="edge47" class="edge"><title>59439952&#45;&gt;58951360</title>
<path fill="none" stroke="black" d="M173.159,-251.37C161.935,-276.236 141.191,-322.193 128.02,-351.371"/>
<polygon fill="black" stroke="black" points="124.792,-350.014 123.868,-360.569 131.173,-352.894 124.792,-350.014"/>
</g>
<!-- 59439952&#45;&gt;58006144 -->
<g id="edge49" class="edge"><title>59439952&#45;&gt;58006144</title>
<path fill="none" stroke="black" d="M163.261,-247.882C149.516,-258.64 130.273,-273.699 114.82,-285.793"/>
<polygon fill="black" stroke="black" points="112.402,-283.241 106.684,-292.16 116.716,-288.753 112.402,-283.241"/>
</g>
<!-- 57976912 -->
<g id="node15" class="node"><title>57976912</title>
<ellipse fill="gold" stroke="black" cx="179" cy="-738" rx="27" ry="18"/>
</g>
<!-- 59664768 -->
<g id="node16" class="node"><title>59664768</title>
<ellipse fill="#8f8f8f" stroke="black" cx="207" cy="-666" rx="27" ry="18"/>
</g>
<!-- 59664768&#45;&gt;57976912 -->
<g id="edge31" class="edge"><title>59664768&#45;&gt;57976912</title>
<path fill="none" stroke="black" d="M200.222,-683.429C197.013,-691.681 193.106,-701.726 189.524,-710.938"/>
<polygon fill="black" stroke="black" points="186.175,-709.893 185.813,-720.482 192.699,-712.43 186.175,-709.893"/>
</g>
<!-- 60439872 -->
<g id="node24" class="node"><title>60439872</title>
<ellipse fill="firebrick" stroke="black" cx="42" cy="-594" rx="27" ry="18"/>
</g>
<!-- 59664768&#45;&gt;60439872 -->
<g id="edge35" class="edge"><title>59664768&#45;&gt;60439872</title>
<path fill="none" stroke="black" stroke-dasharray="1,5" d="M183.491,-656.712C157.476,-646.306 114.413,-628.702 78,-612 76.2375,-611.192 74.434,-610.347 72.6193,-609.483"/>
<polygon fill="black" stroke="black" points="74.1115,-606.317 63.5881,-605.089 71.0485,-612.611 74.1115,-606.317"/>
</g>
<!-- 51699168 -->
<g id="node17" class="node"><title>51699168</title>
<ellipse fill="#8f8f8f" stroke="black" cx="114" cy="-594" rx="27" ry="18"/>
</g>
<!-- 51699168&#45;&gt;57976912 -->
<g id="edge7" class="edge"><title>51699168&#45;&gt;57976912</title>
<path fill="none" stroke="black" d="M121.841,-611.37C133.065,-636.236 153.809,-682.193 166.98,-711.371"/>
<polygon fill="black" stroke="black" points="163.827,-712.894 171.132,-720.569 170.208,-710.014 163.827,-712.894"/>
</g>
<!-- 51699168&#45;&gt;59664768 -->
<g id="edge9" class="edge"><title>51699168&#45;&gt;59664768</title>
<path fill="none" stroke="black" d="M131.931,-607.882C145.826,-618.64 165.278,-633.699 180.899,-645.793"/>
<polygon fill="black" stroke="black" points="179.074,-648.806 189.124,-652.16 183.359,-643.271 179.074,-648.806"/>
</g>
<!-- 58403376 -->
<g id="node18" class="node"><title>58403376</title>
<ellipse fill="#8f8f8f" stroke="black" cx="186" cy="-594" rx="27" ry="18"/>
</g>
<!-- 58403376&#45;&gt;57976912 -->
<g id="edge11" class="edge"><title>58403376&#45;&gt;57976912</title>
<path fill="none" stroke="black" d="M179.762,-611.745C176.432,-622.16 172.682,-635.66 171,-648 168.18,-668.691 170.456,-692.201 173.291,-710.002"/>
<polygon fill="black" stroke="black" points="169.871,-710.766 175.039,-720.015 176.767,-709.562 169.871,-710.766"/>
</g>
<!-- 58403376&#45;&gt;59664768 -->
<g id="edge13" class="edge"><title>58403376&#45;&gt;59664768</title>
<path fill="none" stroke="black" d="M191.191,-611.798C193.538,-619.846 196.366,-629.541 198.977,-638.493"/>
<polygon fill="black" stroke="black" points="195.636,-639.537 201.796,-648.157 202.356,-637.577 195.636,-639.537"/>
</g>
<!-- 58136352 -->
<g id="node19" class="node"><title>58136352</title>
<ellipse fill="#8f8f8f" stroke="black" cx="144" cy="-522" rx="27" ry="18"/>
</g>
<!-- 58136352&#45;&gt;58403376 -->
<g id="edge21" class="edge"><title>58136352&#45;&gt;58403376</title>
<path fill="none" stroke="black" d="M153.953,-539.063C159.027,-547.761 165.303,-558.52 170.953,-568.205"/>
<polygon fill="black" stroke="black" points="168.056,-570.185 176.118,-577.059 174.103,-566.658 168.056,-570.185"/>
</g>
<!-- 58206896&#45;&gt;58403376 -->
<g id="edge15" class="edge"><title>58206896&#45;&gt;58403376</title>
<path fill="none" stroke="black" d="M162.987,-466.758C169.143,-477.059 176.306,-490.778 180,-504 185.61,-524.078 187.008,-547.612 187.057,-565.578"/>
<polygon fill="black" stroke="black" points="183.556,-565.666 186.946,-575.704 190.556,-565.743 183.556,-565.666"/>
</g>
<!-- 58206896&#45;&gt;58136352 -->
<g id="edge17" class="edge"><title>58206896&#45;&gt;58136352</title>
<path fill="none" stroke="black" d="M149.981,-468.169C149.126,-475.869 148.108,-485.026 147.157,-493.583"/>
<polygon fill="black" stroke="black" points="143.672,-493.261 146.046,-503.587 150.629,-494.034 143.672,-493.261"/>
</g>
<!-- 58090240 -->
<g id="node21" class="node"><title>58090240</title>
<ellipse fill="#8f8f8f" stroke="black" cx="258" cy="-594" rx="27" ry="18"/>
</g>
<!-- 58090240&#45;&gt;57976912 -->
<g id="edge23" class="edge"><title>58090240&#45;&gt;57976912</title>
<path fill="none" stroke="black" d="M258.557,-612.119C258.363,-631.21 255.774,-661.561 243,-684 234.702,-698.576 220.884,-710.982 208.207,-720.213"/>
<polygon fill="black" stroke="black" points="205.939,-717.526 199.695,-726.085 209.914,-723.288 205.939,-717.526"/>
</g>
<!-- 58090240&#45;&gt;59664768 -->
<g id="edge25" class="edge"><title>58090240&#45;&gt;59664768</title>
<path fill="none" stroke="black" d="M246.427,-610.338C240.063,-619.323 232.028,-630.666 224.876,-640.764"/>
<polygon fill="black" stroke="black" points="221.805,-639.044 218.881,-649.227 227.517,-643.09 221.805,-639.044"/>
</g>
<!-- 58150192 -->
<g id="node22" class="node"><title>58150192</title>
<ellipse fill="#8f8f8f" stroke="black" cx="330" cy="-594" rx="27" ry="18"/>
</g>
<!-- 58150192&#45;&gt;57976912 -->
<g id="edge27" class="edge"><title>58150192&#45;&gt;57976912</title>
<path fill="none" stroke="black" d="M319.958,-611.02C308.045,-630.264 286.778,-661.8 263,-684 246.962,-698.974 226.251,-712.341 209.407,-722.029"/>
<polygon fill="black" stroke="black" points="207.514,-719.078 200.502,-727.02 210.936,-725.185 207.514,-719.078"/>
</g>
<!-- 58150192&#45;&gt;59664768 -->
<g id="edge29" class="edge"><title>58150192&#45;&gt;59664768</title>
<path fill="none" stroke="black" d="M309.689,-605.889C289.659,-617.614 258.84,-635.654 236.189,-648.914"/>
<polygon fill="black" stroke="black" points="234.203,-646.021 227.341,-654.093 237.739,-652.062 234.203,-646.021"/>
</g>
<!-- 60439872&#45;&gt;57976912 -->
<g id="edge33" class="edge"><title>60439872&#45;&gt;57976912</title>
<path fill="none" stroke="black" d="M56.6614,-609.411C80.867,-634.853 129.302,-685.763 157.424,-715.321"/>
<polygon fill="black" stroke="black" points="155.015,-717.868 164.444,-722.7 160.087,-713.043 155.015,-717.868"/>
</g>
<!-- 60419392 -->
<g id="node25" class="node"><title>60419392</title>
<ellipse fill="#8f8f8f" stroke="black" cx="30" cy="-522" rx="27" ry="18"/>
</g>
<!-- 60419392&#45;&gt;60439872 -->
<g id="edge73" class="edge"><title>60419392&#45;&gt;60439872</title>
<path fill="none" stroke="black" d="M33.0281,-540.169C34.3313,-547.988 35.8846,-557.308 37.3297,-565.978"/>
<polygon fill="black" stroke="black" points="33.918,-566.798 39.0144,-576.087 40.8227,-565.647 33.918,-566.798"/>
</g>
<!-- 60446592&#45;&gt;60439872 -->
<g id="edge67" class="edge"><title>60446592&#45;&gt;60439872</title>
<path fill="none" stroke="black" d="M78.5843,-468.237C76.827,-486.64 73.1443,-515.729 66,-540 63.2637,-549.296 59.2795,-559.083 55.3406,-567.734"/>
<polygon fill="black" stroke="black" points="52.1018,-566.395 50.9818,-576.931 58.4273,-569.393 52.1018,-566.395"/>
</g>
<!-- 60446592&#45;&gt;60419392 -->
<g id="edge69" class="edge"><title>60446592&#45;&gt;60419392</title>
<path fill="none" stroke="black" d="M68.6542,-466.338C62.4145,-475.323 54.5377,-486.666 47.5251,-496.764"/>
<polygon fill="black" stroke="black" points="44.4771,-495.017 41.6479,-505.227 50.2267,-499.01 44.4771,-495.017"/>
</g>
</g>
</svg>
