<?xml version="1.0" encoding="UTF-8" standalone="no"?>
<!DOCTYPE svg PUBLIC "-//W3C//DTD SVG 1.1//EN"
 "http://www.w3.org/Graphics/SVG/1.1/DTD/svg11.dtd">
<!-- Generated by graphviz version 2.26.3 (20100126.1600)
 -->
<!-- Title: _anonymous_0 Pages: 1 -->
<svg width="2261pt" height="1392pt"
 viewBox="0.00 0.00 2261.00 1392.00" xmlns="http://www.w3.org/2000/svg" xmlns:xlink="http://www.w3.org/1999/xlink">
<g id="graph1" class="graph" transform="scale(1 1) rotate(0) translate(4 1388)">
<title>_anonymous_0</title>
<polygon fill="white" stroke="white" points="-4,5 -4,-1388 2258,-1388 2258,5 -4,5"/>
<!-- 52093376 -->
<g id="node3" class="node"><title>52093376</title>
<ellipse fill="#8f8f8f" stroke="black" cx="1153" cy="-339" rx="300.02" ry="46.669"/>
<text text-anchor="middle" x="1153" y="-346.4" font-family="Times Roman,serif" font-size="24.00">exp: (gamma 1.000000 1.000000)</text>
<text text-anchor="middle" x="1153" y="-317.4" font-family="Times Roman,serif" font-size="24.00">value: 1.413356</text>
</g>
<!-- 51507648 -->
<g id="node12" class="node"><title>51507648</title>
<ellipse fill="#8f8f8f" stroke="black" cx="1242" cy="-469" rx="149.2" ry="46.669"/>
<text text-anchor="middle" x="1242" y="-476.4" font-family="Times Roman,serif" font-size="24.00">exp: alpha</text>
<text text-anchor="middle" x="1242" y="-447.4" font-family="Times Roman,serif" font-size="24.00">value: 1.413356</text>
</g>
<!-- 52093376&#45;&gt;51507648 -->
<g id="edge18" class="edge"><title>52093376&#45;&gt;51507648</title>
<path fill="none" stroke="black" d="M1184.88,-385.566C1191.36,-395.032 1198.23,-405.068 1204.88,-414.774"/>
<polygon fill="black" stroke="black" points="1202.1,-416.921 1210.64,-423.195 1207.88,-412.967 1202.1,-416.921"/>
</g>
<!-- 53523952 -->
<g id="node20" class="node"><title>53523952</title>
<ellipse fill="#8f8f8f" stroke="black" cx="1087" cy="-1077" rx="149.2" ry="46.669"/>
<text text-anchor="middle" x="1087" y="-1084.4" font-family="Times Roman,serif" font-size="24.00">exp: alpha</text>
<text text-anchor="middle" x="1087" y="-1055.4" font-family="Times Roman,serif" font-size="24.00">value: 1.413356</text>
</g>
<!-- 52093376&#45;&gt;53523952 -->
<g id="edge36" class="edge"><title>52093376&#45;&gt;53523952</title>
<path fill="none" stroke="black" d="M1107,-385.004C1098.02,-396.297 1089.64,-408.924 1084,-422 1056.33,-486.13 1065,-508.154 1065,-578 1065,-578 1065,-578 1065,-817 1065,-887.074 1073.03,-967.394 1079.39,-1019.99"/>
<polygon fill="black" stroke="black" points="1075.94,-1020.63 1080.64,-1030.13 1082.89,-1019.78 1075.94,-1020.63"/>
</g>
<!-- 52055632 -->
<g id="node4" class="node"><title>52055632</title>
<ellipse fill="#8f8f8f" stroke="black" cx="1089" cy="-230" rx="99.9096" ry="26.163"/>
<text text-anchor="middle" x="1089" y="-222.9" font-family="Times Roman,serif" font-size="24.00">request: []</text>
</g>
<!-- 52055632&#45;&gt;52093376 -->
<g id="edge76" class="edge"><title>52055632&#45;&gt;52093376</title>
<path fill="none" stroke="black" d="M1104.17,-255.831C1109.09,-264.218 1114.76,-273.871 1120.45,-283.564"/>
<polygon fill="black" stroke="black" points="1117.58,-285.589 1125.66,-292.441 1123.62,-282.045 1117.58,-285.589"/>
</g>
<!-- 52544224 -->
<g id="node5" class="node"><title>52544224</title>
<ellipse fill="#8f8f8f" stroke="black" cx="826" cy="-121" rx="159.806" ry="46.669"/>
<text text-anchor="middle" x="826" y="-128.4" font-family="Times Roman,serif" font-size="24.00">exp: gamma</text>
<text text-anchor="middle" x="826" y="-99.4" font-family="Times Roman,serif" font-size="24.00">value: sp:gamma</text>
</g>
<!-- 52544224&#45;&gt;52093376 -->
<g id="edge62" class="edge"><title>52544224&#45;&gt;52093376</title>
<path fill="none" stroke="black" d="M870.501,-165.872C899.911,-193.992 940.241,-229.749 980,-256 998.889,-268.471 1019.94,-280.169 1040.67,-290.626"/>
<polygon fill="black" stroke="black" points="1039.33,-293.869 1049.84,-295.185 1042.45,-287.6 1039.33,-293.869"/>
</g>
<!-- 52544224&#45;&gt;52055632 -->
<g id="edge64" class="edge"><title>52544224&#45;&gt;52055632</title>
<path fill="none" stroke="black" d="M917.985,-159.123C953.847,-173.986 994.031,-190.64 1026.43,-204.069"/>
<polygon fill="black" stroke="black" points="1025.21,-207.351 1035.79,-207.946 1027.89,-200.884 1025.21,-207.351"/>
</g>
<!-- 53241904 -->
<g id="node6" class="node"><title>53241904</title>
<ellipse fill="#8f8f8f" stroke="black" cx="1153" cy="-121" rx="149.2" ry="46.669"/>
<text text-anchor="middle" x="1153" y="-128.4" font-family="Times Roman,serif" font-size="24.00">exp: 1.000000</text>
<text text-anchor="middle" x="1153" y="-99.4" font-family="Times Roman,serif" font-size="24.00">value: 1.000000</text>
</g>
<!-- 53241904&#45;&gt;52093376 -->
<g id="edge68" class="edge"><title>53241904&#45;&gt;52093376</title>
<path fill="none" stroke="black" d="M1182.99,-166.726C1189.17,-178.418 1194.78,-191.289 1198,-204 1203.68,-226.402 1203.68,-233.598 1198,-256 1195.67,-265.198 1192.09,-274.48 1187.95,-283.338"/>
<polygon fill="black" stroke="black" points="1184.76,-281.881 1183.45,-292.395 1191.03,-284.991 1184.76,-281.881"/>
</g>
<!-- 53241904&#45;&gt;52055632 -->
<g id="edge70" class="edge"><title>53241904&#45;&gt;52055632</title>
<path fill="none" stroke="black" d="M1126.04,-166.91C1120.46,-176.423 1114.66,-186.293 1109.36,-195.324"/>
<polygon fill="black" stroke="black" points="1106.29,-193.634 1104.25,-204.029 1112.33,-197.178 1106.29,-193.634"/>
</g>
<!-- 51199488 -->
<g id="node7" class="node"><title>51199488</title>
<ellipse fill="#8f8f8f" stroke="black" cx="1469" cy="-121" rx="149.2" ry="46.669"/>
<text text-anchor="middle" x="1469" y="-128.4" font-family="Times Roman,serif" font-size="24.00">exp: 1.000000</text>
<text text-anchor="middle" x="1469" y="-99.4" font-family="Times Roman,serif" font-size="24.00">value: 1.000000</text>
</g>
<!-- 51199488&#45;&gt;52093376 -->
<g id="edge72" class="edge"><title>51199488&#45;&gt;52093376</title>
<path fill="none" stroke="black" d="M1407.32,-163.55C1355.73,-199.144 1281.97,-250.024 1227.17,-287.835"/>
<polygon fill="black" stroke="black" points="1225.12,-284.991 1218.88,-293.551 1229.1,-290.753 1225.12,-284.991"/>
</g>
<!-- 51199488&#45;&gt;52055632 -->
<g id="edge74" class="edge"><title>51199488&#45;&gt;52055632</title>
<path fill="none" stroke="black" d="M1361.56,-153.224C1344.65,-158.218 1327.36,-163.282 1311,-168 1263.56,-181.68 1210.27,-196.576 1167.8,-208.338"/>
<polygon fill="black" stroke="black" points="1166.79,-204.988 1158.08,-211.028 1168.65,-211.734 1166.79,-204.988"/>
</g>
<!-- 44802352 -->
<g id="node9" class="node"><title>44802352</title>
<ellipse fill="#8f8f8f" stroke="black" cx="1545" cy="-687" rx="372.145" ry="46.669"/>
<text text-anchor="middle" x="1545" y="-694.4" font-family="Times Roman,serif" font-size="24.00">exp: (make_sym_dir_mult alpha 2.000000)</text>
<text text-anchor="middle" x="1545" y="-665.4" font-family="Times Roman,serif" font-size="24.00">value: sp:sym_dir_mult</text>
</g>
<!-- 51311168 -->
<g id="node15" class="node"><title>51311168</title>
<ellipse fill="#8f8f8f" stroke="black" cx="1501" cy="-817" rx="208.096" ry="46.669"/>
<text text-anchor="middle" x="1501" y="-824.4" font-family="Times Roman,serif" font-size="24.00">exp: f</text>
<text text-anchor="middle" x="1501" y="-795.4" font-family="Times Roman,serif" font-size="24.00">value: sp:sym_dir_mult</text>
</g>
<!-- 44802352&#45;&gt;51311168 -->
<g id="edge52" class="edge"><title>44802352&#45;&gt;51311168</title>
<path fill="none" stroke="black" d="M1529.24,-733.566C1526.27,-742.34 1523.13,-751.603 1520.08,-760.64"/>
<polygon fill="black" stroke="black" points="1516.69,-759.728 1516.8,-770.322 1523.32,-761.972 1516.69,-759.728"/>
</g>
<!-- 51808576 -->
<g id="node10" class="node"><title>51808576</title>
<ellipse fill="#8f8f8f" stroke="black" cx="1673" cy="-578" rx="99.9096" ry="26.163"/>
<text text-anchor="middle" x="1673" y="-570.9" font-family="Times Roman,serif" font-size="24.00">request: []</text>
</g>
<!-- 51808576&#45;&gt;44802352 -->
<g id="edge24" class="edge"><title>51808576&#45;&gt;44802352</title>
<path fill="none" stroke="black" d="M1643.63,-603.007C1632.69,-612.324 1619.82,-623.286 1607.05,-634.161"/>
<polygon fill="black" stroke="black" points="1604.47,-631.756 1599.13,-640.904 1609.01,-637.086 1604.47,-631.756"/>
</g>
<!-- 51254864 -->
<g id="node11" class="node"><title>51254864</title>
<ellipse fill="#8f8f8f" stroke="black" cx="1673" cy="-469" rx="263.958" ry="46.669"/>
<text text-anchor="middle" x="1673" y="-476.4" font-family="Times Roman,serif" font-size="24.00">exp: make_sym_dir_mult</text>
<text text-anchor="middle" x="1673" y="-447.4" font-family="Times Roman,serif" font-size="24.00">value: sp:make_sym_dir_mult</text>
</g>
<!-- 51254864&#45;&gt;44802352 -->
<g id="edge8" class="edge"><title>51254864&#45;&gt;44802352</title>
<path fill="none" stroke="black" d="M1597.6,-513.792C1584.55,-524.737 1572.48,-537.531 1564,-552 1550.33,-575.334 1545.08,-604.732 1543.45,-630.132"/>
<polygon fill="black" stroke="black" points="1539.94,-630.224 1542.97,-640.376 1546.94,-630.55 1539.94,-630.224"/>
</g>
<!-- 51254864&#45;&gt;51808576 -->
<g id="edge10" class="edge"><title>51254864&#45;&gt;51808576</title>
<path fill="none" stroke="black" d="M1673,-515.542C1673,-524.249 1673,-533.232 1673,-541.578"/>
<polygon fill="black" stroke="black" points="1669.5,-541.739 1673,-551.739 1676.5,-541.739 1669.5,-541.739"/>
</g>
<!-- 51507648&#45;&gt;44802352 -->
<g id="edge14" class="edge"><title>51507648&#45;&gt;44802352</title>
<path fill="none" stroke="black" d="M1301.5,-511.81C1350.66,-547.179 1420.62,-597.513 1472.95,-635.161"/>
<polygon fill="black" stroke="black" points="1471.03,-638.09 1481.19,-641.09 1475.12,-632.408 1471.03,-638.09"/>
</g>
<!-- 51507648&#45;&gt;51808576 -->
<g id="edge16" class="edge"><title>51507648&#45;&gt;51808576</title>
<path fill="none" stroke="black" d="M1348.39,-501.689C1365.59,-506.673 1383.25,-511.612 1400,-516 1461.52,-532.118 1531.48,-547.958 1585.17,-559.592"/>
<polygon fill="black" stroke="black" points="1584.49,-563.026 1595,-561.715 1585.97,-556.183 1584.49,-563.026"/>
</g>
<!-- 51110384 -->
<g id="node13" class="node"><title>51110384</title>
<ellipse fill="#8f8f8f" stroke="black" cx="2104" cy="-469" rx="149.2" ry="46.669"/>
<text text-anchor="middle" x="2104" y="-476.4" font-family="Times Roman,serif" font-size="24.00">exp: 2.000000</text>
<text text-anchor="middle" x="2104" y="-447.4" font-family="Times Roman,serif" font-size="24.00">value: 2.000000</text>
</g>
<!-- 51110384&#45;&gt;44802352 -->
<g id="edge20" class="edge"><title>51110384&#45;&gt;44802352</title>
<path fill="none" stroke="black" d="M2017.45,-506.952C1952.95,-534.827 1862.49,-573.066 1782,-604 1750.33,-616.171 1716.02,-628.612 1683.59,-640.034"/>
<polygon fill="black" stroke="black" points="1682.32,-636.77 1674.05,-643.386 1684.64,-643.374 1682.32,-636.77"/>
</g>
<!-- 51110384&#45;&gt;51808576 -->
<g id="edge22" class="edge"><title>51110384&#45;&gt;51808576</title>
<path fill="none" stroke="black" d="M1997.61,-501.689C1980.41,-506.673 1962.75,-511.612 1946,-516 1884.48,-532.118 1814.52,-547.958 1760.83,-559.592"/>
<polygon fill="black" stroke="black" points="1760.03,-556.183 1751,-561.715 1761.51,-563.026 1760.03,-556.183"/>
</g>
<!-- 51082384 -->
<g id="node26" class="node"><title>51082384</title>
<ellipse fill="#8f8f8f" stroke="black" cx="1414" cy="-947" rx="208.096" ry="46.669"/>
<text text-anchor="middle" x="1414" y="-954.4" font-family="Times Roman,serif" font-size="24.00">exp: g</text>
<text text-anchor="middle" x="1414" y="-925.4" font-family="Times Roman,serif" font-size="24.00">value: sp:sym_dir_mult</text>
</g>
<!-- 51311168&#45;&gt;51082384 -->
<g id="edge58" class="edge"><title>51311168&#45;&gt;51082384</title>
<path fill="none" stroke="black" d="M1470.08,-863.199C1463.74,-872.682 1457,-882.749 1450.48,-892.493"/>
<polygon fill="black" stroke="black" points="1447.47,-890.692 1444.82,-900.95 1453.29,-894.586 1447.47,-890.692"/>
</g>
<!-- 51194512 -->
<g id="node17" class="node"><title>51194512</title>
<ellipse fill="gold" stroke="black" cx="884" cy="-1337" rx="408.207" ry="46.669"/>
<text text-anchor="middle" x="884" y="-1344.4" font-family="Times Roman,serif" font-size="24.00">exp: (branch_exp alpha (quote (g)) (quote (g)))</text>
<text text-anchor="middle" x="884" y="-1315.4" font-family="Times Roman,serif" font-size="24.00">value: </text>
</g>
<!-- 53546816 -->
<g id="node18" class="node"><title>53546816</title>
<ellipse fill="#8f8f8f" stroke="black" cx="719" cy="-1207" rx="302.141" ry="26.163"/>
<text text-anchor="middle" x="719" y="-1199.9" font-family="Times Roman,serif" font-size="24.00">request: [(53546816, (g), &lt;env&gt;)]</text>
</g>
<!-- 53546816&#45;&gt;51194512 -->
<g id="edge46" class="edge"><title>53546816&#45;&gt;51194512</title>
<path fill="none" stroke="black" d="M751.994,-1232.99C770.754,-1247.78 794.934,-1266.83 817.463,-1284.58"/>
<polygon fill="black" stroke="black" points="815.33,-1287.35 825.351,-1290.79 819.662,-1281.85 815.33,-1287.35"/>
</g>
<!-- 51810736 -->
<g id="node24" class="node"><title>51810736</title>
<ellipse fill="firebrick" stroke="black" cx="1286" cy="-1207" rx="77.0746" ry="46.669"/>
<text text-anchor="middle" x="1286" y="-1214.4" font-family="Times Roman,serif" font-size="24.00">exp: (g)</text>
<text text-anchor="middle" x="1286" y="-1185.4" font-family="Times Roman,serif" font-size="24.00">value: </text>
</g>
<!-- 53546816&#45;&gt;51810736 -->
<g id="edge50" class="edge"><title>53546816&#45;&gt;51810736</title>
<path fill="none" stroke="black" stroke-dasharray="1,5" d="M1021.05,-1207C1080.24,-1207 1139.43,-1207 1198.62,-1207"/>
<polygon fill="black" stroke="black" points="1198.9,-1210.5 1208.9,-1207 1198.9,-1203.5 1198.9,-1210.5"/>
</g>
<!-- 51481088 -->
<g id="node19" class="node"><title>51481088</title>
<ellipse fill="#8f8f8f" stroke="black" cx="154" cy="-1077" rx="154.149" ry="46.669"/>
<text text-anchor="middle" x="154" y="-1084.4" font-family="Times Roman,serif" font-size="24.00">exp: branch_exp</text>
<text text-anchor="middle" x="154" y="-1055.4" font-family="Times Roman,serif" font-size="24.00">value: sp:branch</text>
</g>
<!-- 51481088&#45;&gt;51194512 -->
<g id="edge26" class="edge"><title>51481088&#45;&gt;51194512</title>
<path fill="none" stroke="black" d="M199.196,-1121.73C243.629,-1162.94 315.324,-1222.34 389,-1254 428.749,-1271.08 512.136,-1287.4 599.328,-1300.97"/>
<polygon fill="black" stroke="black" points="599.007,-1304.47 609.424,-1302.53 600.075,-1297.55 599.007,-1304.47"/>
</g>
<!-- 51481088&#45;&gt;53546816 -->
<g id="edge28" class="edge"><title>51481088&#45;&gt;53546816</title>
<path fill="none" stroke="black" d="M263.287,-1109.77C281.175,-1114.77 299.559,-1119.69 317,-1124 404.578,-1145.63 503.837,-1166.17 581.812,-1181.4"/>
<polygon fill="black" stroke="black" points="581.213,-1184.85 591.697,-1183.32 582.551,-1177.98 581.213,-1184.85"/>
</g>
<!-- 53523952&#45;&gt;51194512 -->
<g id="edge32" class="edge"><title>53523952&#45;&gt;51194512</title>
<path fill="none" stroke="black" d="M1088.99,-1123.72C1088.26,-1162.34 1081.48,-1216.69 1053,-1254 1043.23,-1266.8 1030.95,-1277.75 1017.51,-1287.09"/>
<polygon fill="black" stroke="black" points="1015.42,-1284.27 1009,-1292.69 1019.27,-1290.11 1015.42,-1284.27"/>
</g>
<!-- 53523952&#45;&gt;53546816 -->
<g id="edge34" class="edge"><title>53523952&#45;&gt;53546816</title>
<path fill="none" stroke="black" d="M987.899,-1112.01C929.157,-1132.76 855.63,-1158.73 800.316,-1178.27"/>
<polygon fill="black" stroke="black" points="798.82,-1175.09 790.556,-1181.72 801.151,-1181.69 798.82,-1175.09"/>
</g>
<!-- 53551152 -->
<g id="node21" class="node"><title>53551152</title>
<ellipse fill="#8f8f8f" stroke="black" cx="470" cy="-1077" rx="144.25" ry="46.669"/>
<text text-anchor="middle" x="470" y="-1084.4" font-family="Times Roman,serif" font-size="24.00">exp: (quote (g))</text>
<text text-anchor="middle" x="470" y="-1055.4" font-family="Times Roman,serif" font-size="24.00">value: (g)</text>
</g>
<!-- 53551152&#45;&gt;51194512 -->
<g id="edge38" class="edge"><title>53551152&#45;&gt;51194512</title>
<path fill="none" stroke="black" d="M428.494,-1121.83C420.1,-1133.45 412.48,-1146.52 408,-1160 394.827,-1199.65 381.115,-1222.02 408,-1254 428.72,-1278.65 479.818,-1295.97 541.211,-1308.16"/>
<polygon fill="black" stroke="black" points="540.668,-1311.62 551.149,-1310.07 541.991,-1304.74 540.668,-1311.62"/>
</g>
<!-- 53551152&#45;&gt;53546816 -->
<g id="edge40" class="edge"><title>53551152&#45;&gt;53546816</title>
<path fill="none" stroke="black" d="M546.061,-1116.71C582.953,-1135.97 626.568,-1158.74 660.767,-1176.6"/>
<polygon fill="black" stroke="black" points="659.214,-1179.73 669.699,-1181.26 662.454,-1173.53 659.214,-1179.73"/>
</g>
<!-- 53544432 -->
<g id="node22" class="node"><title>53544432</title>
<ellipse fill="#8f8f8f" stroke="black" cx="776" cy="-1077" rx="144.25" ry="46.669"/>
<text text-anchor="middle" x="776" y="-1084.4" font-family="Times Roman,serif" font-size="24.00">exp: (quote (g))</text>
<text text-anchor="middle" x="776" y="-1055.4" font-family="Times Roman,serif" font-size="24.00">value: (g)</text>
</g>
<!-- 53544432&#45;&gt;51194512 -->
<g id="edge42" class="edge"><title>53544432&#45;&gt;51194512</title>
<path fill="none" stroke="black" d="M879.718,-1109.39C948.872,-1131.23 1027.57,-1156.65 1030,-1160 1054.53,-1193.82 1051.01,-1217.89 1030,-1254 1022.92,-1266.17 1013.32,-1276.7 1002.4,-1285.78"/>
<polygon fill="black" stroke="black" points="999.971,-1283.23 994.228,-1292.13 1004.27,-1288.75 999.971,-1283.23"/>
</g>
<!-- 53544432&#45;&gt;53546816 -->
<g id="edge44" class="edge"><title>53544432&#45;&gt;53546816</title>
<path fill="none" stroke="black" d="M755.743,-1123.2C748.761,-1139.12 741.057,-1156.7 734.514,-1171.62"/>
<polygon fill="black" stroke="black" points="731.211,-1170.43 730.401,-1181 737.622,-1173.24 731.211,-1170.43"/>
</g>
<!-- 51810736&#45;&gt;51194512 -->
<g id="edge48" class="edge"><title>51810736&#45;&gt;51194512</title>
<path fill="none" stroke="black" d="M1217.81,-1229.05C1166.35,-1245.69 1093.87,-1269.13 1029.6,-1289.92"/>
<polygon fill="black" stroke="black" points="1028.21,-1286.69 1019.77,-1293.09 1030.36,-1293.35 1028.21,-1286.69"/>
</g>
<!-- 51358032 -->
<g id="node25" class="node"><title>51358032</title>
<ellipse fill="#8f8f8f" stroke="black" cx="1414" cy="-1077" rx="99.9096" ry="26.163"/>
<text text-anchor="middle" x="1414" y="-1069.9" font-family="Times Roman,serif" font-size="24.00">request: []</text>
</g>
<!-- 51358032&#45;&gt;51810736 -->
<g id="edge60" class="edge"><title>51358032&#45;&gt;51810736</title>
<path fill="none" stroke="black" d="M1389.02,-1102.37C1373.02,-1118.62 1351.76,-1140.21 1332.71,-1159.56"/>
<polygon fill="black" stroke="black" points="1330.05,-1157.27 1325.53,-1166.85 1335.04,-1162.18 1330.05,-1157.27"/>
</g>
<!-- 51082384&#45;&gt;51810736 -->
<g id="edge54" class="edge"><title>51082384&#45;&gt;51810736</title>
<path fill="none" stroke="black" d="M1339.33,-990.647C1325.89,-1001.81 1313.47,-1014.98 1305,-1030 1284.46,-1066.42 1280.33,-1113.77 1280.99,-1150.34"/>
<polygon fill="black" stroke="black" points="1277.49,-1150.46 1281.3,-1160.35 1284.49,-1150.24 1277.49,-1150.46"/>
</g>
<!-- 51082384&#45;&gt;51358032 -->
<g id="edge56" class="edge"><title>51082384&#45;&gt;51358032</title>
<path fill="none" stroke="black" d="M1414,-993.566C1414,-1009.04 1414,-1026.04 1414,-1040.63"/>
<polygon fill="black" stroke="black" points="1410.5,-1040.78 1414,-1050.78 1417.5,-1040.78 1410.5,-1040.78"/>
</g>
<!-- 48424208 -->
<g id="node29" class="node"><title>48424208</title>
<ellipse fill="none" stroke="black" cx="1673" cy="-339" rx="62.9325" ry="18.3848"/>
<text text-anchor="middle" x="1673" y="-335.4" font-family="Times Roman,serif" font-size="14.00">48424208</text>
</g>
<!-- 48424208&#45;&gt;51254864 -->
<g id="edge12" class="edge"><title>48424208&#45;&gt;51254864</title>
<path fill="none" stroke="black" d="M1673,-357.626C1673,-371.974 1673,-392.614 1673,-412.236"/>
<polygon fill="black" stroke="black" points="1669.5,-412.365 1673,-422.365 1676.5,-412.365 1669.5,-412.365"/>
</g>
<!-- 46432768 -->
<g id="node39" class="node"><title>46432768</title>
<ellipse fill="none" stroke="black" cx="154" cy="-947" rx="62.9325" ry="18.3848"/>
<text text-anchor="middle" x="154" y="-943.4" font-family="Times Roman,serif" font-size="14.00">46432768</text>
</g>
<!-- 46432768&#45;&gt;51481088 -->
<g id="edge30" class="edge"><title>46432768&#45;&gt;51481088</title>
<path fill="none" stroke="black" d="M154,-965.626C154,-979.974 154,-1000.61 154,-1020.24"/>
<polygon fill="black" stroke="black" points="150.5,-1020.37 154,-1030.37 157.5,-1020.37 150.5,-1020.37"/>
</g>
<!-- 45732960 -->
<g id="node58" class="node"><title>45732960</title>
<ellipse fill="none" stroke="black" cx="826" cy="-19" rx="62.9325" ry="18.3848"/>
<text text-anchor="middle" x="826" y="-15.4" font-family="Times Roman,serif" font-size="14.00">45732960</text>
</g>
<!-- 45732960&#45;&gt;52544224 -->
<g id="edge66" class="edge"><title>45732960&#45;&gt;52544224</title>
<path fill="none" stroke="black" d="M826,-37.7084C826,-45.3917 826,-54.7362 826,-64.3518"/>
<polygon fill="black" stroke="black" points="822.5,-64.4121 826,-74.4121 829.5,-64.4122 822.5,-64.4121"/>
</g>
</g>
</svg>
