<?xml version="1.0" encoding="UTF-8" standalone="no"?>
<!DOCTYPE svg PUBLIC "-//W3C//DTD SVG 1.1//EN"
 "http://www.w3.org/Graphics/SVG/1.1/DTD/svg11.dtd">
<!-- Generated by graphviz version 2.26.3 (20100126.1600)
 -->
<!-- Title: _anonymous_0 Pages: 1 -->
<svg width="2262pt" height="1132pt"
 viewBox="0.00 0.00 2262.00 1132.00" xmlns="http://www.w3.org/2000/svg" xmlns:xlink="http://www.w3.org/1999/xlink">
<g id="graph1" class="graph" transform="scale(1 1) rotate(0) translate(4 1128)">
<title>_anonymous_0</title>
<polygon fill="white" stroke="white" points="-4,5 -4,-1128 2259,-1128 2259,5 -4,5"/>
<!-- 36427312 -->
<g id="node3" class="node"><title>36427312</title>
<ellipse fill="firebrick" stroke="black" cx="1123" cy="-339" rx="241.123" ry="46.669"/>
<text text-anchor="middle" x="1123" y="-346.4" font-family="Times Roman,serif" font-size="24.00">exp: (snormal 100.000000)</text>
<text text-anchor="middle" x="1123" y="-317.4" font-family="Times Roman,serif" font-size="24.00">value: 100.676407</text>
</g>
<!-- 35779552 -->
<g id="node11" class="node"><title>35779552</title>
<ellipse fill="gold" stroke="black" cx="1222" cy="-469" rx="169.913" ry="46.669"/>
<text text-anchor="middle" x="1222" y="-476.4" font-family="Times Roman,serif" font-size="24.00">exp: alpha</text>
<text text-anchor="middle" x="1222" y="-447.4" font-family="Times Roman,serif" font-size="24.00">value: 100.676407</text>
</g>
<!-- 36427312&#45;&gt;35779552 -->
<g id="edge48" class="edge"><title>36427312&#45;&gt;35779552</title>
<path fill="none" stroke="black" d="M1158.18,-385.199C1165.56,-394.892 1173.41,-405.195 1180.98,-415.139"/>
<polygon fill="black" stroke="black" points="1178.42,-417.552 1187.26,-423.387 1183.99,-413.311 1178.42,-417.552"/>
</g>
<!-- 34778800 -->
<g id="node19" class="node"><title>34778800</title>
<ellipse fill="gold" stroke="black" cx="1056" cy="-817" rx="169.913" ry="46.669"/>
<text text-anchor="middle" x="1056" y="-824.4" font-family="Times Roman,serif" font-size="24.00">exp: alpha</text>
<text text-anchor="middle" x="1056" y="-795.4" font-family="Times Roman,serif" font-size="24.00">value: 100.676407</text>
</g>
<!-- 36427312&#45;&gt;34778800 -->
<g id="edge18" class="edge"><title>36427312&#45;&gt;34778800</title>
<path fill="none" stroke="black" d="M1067.59,-384.379C1057.56,-395.536 1048.54,-408.266 1043,-422 997.33,-535.192 1021.41,-681.806 1040.35,-760.736"/>
<polygon fill="black" stroke="black" points="1036.96,-761.609 1042.75,-770.484 1043.76,-759.938 1036.96,-761.609"/>
</g>
<!-- 36065888 -->
<g id="node4" class="node"><title>36065888</title>
<ellipse fill="#8f8f8f" stroke="black" cx="1123" cy="-230" rx="99.9096" ry="26.163"/>
<text text-anchor="middle" x="1123" y="-222.9" font-family="Times Roman,serif" font-size="24.00">request: []</text>
</g>
<!-- 36065888&#45;&gt;36427312 -->
<g id="edge66" class="edge"><title>36065888&#45;&gt;36427312</title>
<path fill="none" stroke="black" d="M1123,-256.108C1123,-263.979 1123,-272.946 1123,-282.005"/>
<polygon fill="black" stroke="black" points="1119.5,-282.218 1123,-292.218 1126.5,-282.218 1119.5,-282.218"/>
</g>
<!-- 34434816 -->
<g id="node5" class="node"><title>34434816</title>
<ellipse fill="#8f8f8f" stroke="black" cx="941" cy="-121" rx="154.149" ry="46.669"/>
<text text-anchor="middle" x="941" y="-128.4" font-family="Times Roman,serif" font-size="24.00">exp: snormal</text>
<text text-anchor="middle" x="941" y="-99.4" font-family="Times Roman,serif" font-size="24.00">value: sp:normal</text>
</g>
<!-- 34434816&#45;&gt;36427312 -->
<g id="edge56" class="edge"><title>34434816&#45;&gt;36427312</title>
<path fill="none" stroke="black" d="M959.984,-167.159C972.721,-194.752 991.305,-229.481 1014,-256 1023.71,-267.34 1035.2,-278.108 1047.03,-287.903"/>
<polygon fill="black" stroke="black" points="1044.85,-290.644 1054.83,-294.196 1049.25,-285.194 1044.85,-290.644"/>
</g>
<!-- 34434816&#45;&gt;36065888 -->
<g id="edge58" class="edge"><title>34434816&#45;&gt;36065888</title>
<path fill="none" stroke="black" d="M1010.59,-162.675C1031.82,-175.392 1054.7,-189.096 1074.24,-200.8"/>
<polygon fill="black" stroke="black" points="1072.59,-203.89 1082.97,-206.026 1076.19,-197.885 1072.59,-203.89"/>
</g>
<!-- 34317760 -->
<g id="node6" class="node"><title>34317760</title>
<ellipse fill="#8f8f8f" stroke="black" cx="1283" cy="-121" rx="169.913" ry="46.669"/>
<text text-anchor="middle" x="1283" y="-128.4" font-family="Times Roman,serif" font-size="24.00">exp: 100.000000</text>
<text text-anchor="middle" x="1283" y="-99.4" font-family="Times Roman,serif" font-size="24.00">value: 100.000000</text>
</g>
<!-- 34317760&#45;&gt;36427312 -->
<g id="edge62" class="edge"><title>34317760&#45;&gt;36427312</title>
<path fill="none" stroke="black" d="M1272.34,-167.623C1264.41,-195.217 1251.54,-229.787 1232,-256 1223.39,-267.543 1212.77,-278.268 1201.55,-287.916"/>
<polygon fill="black" stroke="black" points="1199.17,-285.342 1193.71,-294.42 1203.64,-290.729 1199.17,-285.342"/>
</g>
<!-- 34317760&#45;&gt;36065888 -->
<g id="edge64" class="edge"><title>34317760&#45;&gt;36065888</title>
<path fill="none" stroke="black" d="M1219.3,-164.393C1201.95,-176.215 1183.53,-188.764 1167.49,-199.688"/>
<polygon fill="black" stroke="black" points="1165.15,-197.052 1158.85,-205.574 1169.09,-202.837 1165.15,-197.052"/>
</g>
<!-- 35328704 -->
<g id="node8" class="node"><title>35328704</title>
<ellipse fill="#ffaeb9" stroke="black" cx="1546" cy="-687" rx="372.145" ry="46.669"/>
<text text-anchor="middle" x="1546" y="-694.4" font-family="Times Roman,serif" font-size="24.00">exp: (make_sym_dir_mult alpha 2.000000)</text>
<text text-anchor="middle" x="1546" y="-665.4" font-family="Times Roman,serif" font-size="24.00">value: sp:sym_dir_mult</text>
</g>
<!-- 34618016 -->
<g id="node14" class="node"><title>34618016</title>
<ellipse fill="#8f8f8f" stroke="black" cx="1483" cy="-817" rx="208.096" ry="46.669"/>
<text text-anchor="middle" x="1483" y="-824.4" font-family="Times Roman,serif" font-size="24.00">exp: f</text>
<text text-anchor="middle" x="1483" y="-795.4" font-family="Times Roman,serif" font-size="24.00">value: sp:sym_dir_mult</text>
</g>
<!-- 35328704&#45;&gt;34618016 -->
<g id="edge34" class="edge"><title>35328704&#45;&gt;34618016</title>
<path fill="none" stroke="black" d="M1523.43,-733.566C1519.04,-742.636 1514.39,-752.229 1509.87,-761.553"/>
<polygon fill="black" stroke="black" points="1506.62,-760.234 1505.41,-770.759 1512.92,-763.287 1506.62,-760.234"/>
</g>
<!-- 35290960 -->
<g id="node9" class="node"><title>35290960</title>
<ellipse fill="#63b8ff" stroke="black" cx="1674" cy="-578" rx="99.9096" ry="26.163"/>
<text text-anchor="middle" x="1674" y="-570.9" font-family="Times Roman,serif" font-size="24.00">request: []</text>
</g>
<!-- 35290960&#45;&gt;35328704 -->
<g id="edge54" class="edge"><title>35290960&#45;&gt;35328704</title>
<path fill="none" stroke="black" d="M1644.63,-603.007C1633.69,-612.324 1620.82,-623.286 1608.05,-634.161"/>
<polygon fill="black" stroke="black" points="1605.47,-631.756 1600.13,-640.904 1610.01,-637.086 1605.47,-631.756"/>
</g>
<!-- 35744608 -->
<g id="node10" class="node"><title>35744608</title>
<ellipse fill="#8f8f8f" stroke="black" cx="1674" cy="-469" rx="263.958" ry="46.669"/>
<text text-anchor="middle" x="1674" y="-476.4" font-family="Times Roman,serif" font-size="24.00">exp: make_sym_dir_mult</text>
<text text-anchor="middle" x="1674" y="-447.4" font-family="Times Roman,serif" font-size="24.00">value: sp:make_sym_dir_mult</text>
</g>
<!-- 35744608&#45;&gt;35328704 -->
<g id="edge38" class="edge"><title>35744608&#45;&gt;35328704</title>
<path fill="none" stroke="black" d="M1598.6,-513.792C1585.55,-524.737 1573.48,-537.531 1565,-552 1551.33,-575.334 1546.08,-604.732 1544.45,-630.132"/>
<polygon fill="black" stroke="black" points="1540.94,-630.224 1543.97,-640.376 1547.94,-630.55 1540.94,-630.224"/>
</g>
<!-- 35744608&#45;&gt;35290960 -->
<g id="edge40" class="edge"><title>35744608&#45;&gt;35290960</title>
<path fill="none" stroke="black" d="M1674,-515.542C1674,-524.249 1674,-533.232 1674,-541.578"/>
<polygon fill="black" stroke="black" points="1670.5,-541.739 1674,-551.739 1677.5,-541.739 1670.5,-541.739"/>
</g>
<!-- 35779552&#45;&gt;35328704 -->
<g id="edge44" class="edge"><title>35779552&#45;&gt;35328704</title>
<path fill="none" stroke="black" d="M1286.4,-512.33C1339.06,-547.763 1413.66,-597.955 1469.38,-635.449"/>
<polygon fill="black" stroke="black" points="1467.56,-638.441 1477.81,-641.119 1471.47,-632.633 1467.56,-638.441"/>
</g>
<!-- 35779552&#45;&gt;35290960 -->
<g id="edge46" class="edge"><title>35779552&#45;&gt;35290960</title>
<path fill="none" stroke="black" d="M1343.66,-501.53C1362.82,-506.484 1382.43,-511.455 1401,-516 1463.11,-531.202 1533.48,-547.154 1587.22,-559.069"/>
<polygon fill="black" stroke="black" points="1586.54,-562.502 1597.06,-561.246 1588.05,-555.668 1586.54,-562.502"/>
</g>
<!-- 36004368 -->
<g id="node12" class="node"><title>36004368</title>
<ellipse fill="#8f8f8f" stroke="black" cx="2105" cy="-469" rx="149.2" ry="46.669"/>
<text text-anchor="middle" x="2105" y="-476.4" font-family="Times Roman,serif" font-size="24.00">exp: 2.000000</text>
<text text-anchor="middle" x="2105" y="-447.4" font-family="Times Roman,serif" font-size="24.00">value: 2.000000</text>
</g>
<!-- 36004368&#45;&gt;35328704 -->
<g id="edge50" class="edge"><title>36004368&#45;&gt;35328704</title>
<path fill="none" stroke="black" d="M2018.45,-506.952C1953.95,-534.827 1863.49,-573.066 1783,-604 1751.33,-616.171 1717.02,-628.612 1684.59,-640.034"/>
<polygon fill="black" stroke="black" points="1683.32,-636.77 1675.05,-643.386 1685.64,-643.374 1683.32,-636.77"/>
</g>
<!-- 36004368&#45;&gt;35290960 -->
<g id="edge52" class="edge"><title>36004368&#45;&gt;35290960</title>
<path fill="none" stroke="black" d="M1998.61,-501.689C1981.41,-506.673 1963.75,-511.612 1947,-516 1885.48,-532.118 1815.52,-547.958 1761.83,-559.592"/>
<polygon fill="black" stroke="black" points="1761.03,-556.183 1752,-561.715 1762.51,-563.026 1761.03,-556.183"/>
</g>
<!-- 34780688 -->
<g id="node23" class="node"><title>34780688</title>
<ellipse fill="darkseagreen" stroke="black" cx="1387" cy="-947" rx="208.096" ry="46.669"/>
<text text-anchor="middle" x="1387" y="-954.4" font-family="Times Roman,serif" font-size="24.00">exp: g</text>
<text text-anchor="middle" x="1387" y="-925.4" font-family="Times Roman,serif" font-size="24.00">value: sp:sym_dir_mult</text>
</g>
<!-- 34618016&#45;&gt;34780688 -->
<g id="edge36" class="edge"><title>34618016&#45;&gt;34780688</title>
<path fill="none" stroke="black" d="M1448.88,-863.199C1441.81,-872.778 1434.3,-882.952 1427.03,-892.788"/>
<polygon fill="black" stroke="black" points="1424.13,-890.826 1421.01,-900.95 1429.76,-894.984 1424.13,-890.826"/>
</g>
<!-- 34316512 -->
<g id="node16" class="node"><title>34316512</title>
<ellipse fill="gold" stroke="black" cx="859" cy="-1077" rx="382.752" ry="46.669"/>
<text text-anchor="middle" x="859" y="-1084.4" font-family="Times Roman,serif" font-size="24.00">exp: (branch_exp alpha (quote g) (quote g))</text>
<text text-anchor="middle" x="859" y="-1055.4" font-family="Times Roman,serif" font-size="24.00">value: sp:sym_dir_mult</text>
</g>
<!-- 36780592 -->
<g id="node17" class="node"><title>36780592</title>
<ellipse fill="gold" stroke="black" cx="700" cy="-947" rx="289.914" ry="26.163"/>
<text text-anchor="middle" x="700" y="-939.9" font-family="Times Roman,serif" font-size="24.00">request: [(36780592, g, &lt;env&gt;)]</text>
</g>
<!-- 36780592&#45;&gt;34316512 -->
<g id="edge28" class="edge"><title>36780592&#45;&gt;34316512</title>
<path fill="none" stroke="black" d="M731.794,-972.995C749.793,-987.711 772.969,-1006.66 794.598,-1024.34"/>
<polygon fill="black" stroke="black" points="792.526,-1027.17 802.483,-1030.79 796.957,-1021.75 792.526,-1027.17"/>
</g>
<!-- 36780592&#45;&gt;34780688 -->
<g id="edge32" class="edge"><title>36780592&#45;&gt;34780688</title>
<path fill="none" stroke="black" stroke-dasharray="1,5" d="M990.164,-947C1049.63,-947 1109.1,-947 1168.57,-947"/>
<polygon fill="black" stroke="black" points="1168.89,-950.5 1178.89,-947 1168.89,-943.5 1168.89,-950.5"/>
</g>
<!-- 34610800 -->
<g id="node18" class="node"><title>34610800</title>
<ellipse fill="#8f8f8f" stroke="black" cx="154" cy="-817" rx="154.149" ry="46.669"/>
<text text-anchor="middle" x="154" y="-824.4" font-family="Times Roman,serif" font-size="24.00">exp: branch_exp</text>
<text text-anchor="middle" x="154" y="-795.4" font-family="Times Roman,serif" font-size="24.00">value: sp:branch</text>
</g>
<!-- 34610800&#45;&gt;34316512 -->
<g id="edge8" class="edge"><title>34610800&#45;&gt;34316512</title>
<path fill="none" stroke="black" d="M197.868,-861.657C241.041,-902.809 310.817,-962.169 383,-994 421.623,-1011.03 503.443,-1027.5 588.528,-1041.21"/>
<polygon fill="black" stroke="black" points="588.221,-1044.71 598.647,-1042.83 589.325,-1037.8 588.221,-1044.71"/>
</g>
<!-- 34610800&#45;&gt;36780592 -->
<g id="edge10" class="edge"><title>34610800&#45;&gt;36780592</title>
<path fill="none" stroke="black" d="M263.764,-849.742C281.508,-854.719 299.723,-859.642 317,-864 400.971,-885.179 496.123,-905.816 570.579,-921.215"/>
<polygon fill="black" stroke="black" points="569.979,-924.665 580.48,-923.257 571.393,-917.809 569.979,-924.665"/>
</g>
<!-- 34778800&#45;&gt;34316512 -->
<g id="edge14" class="edge"><title>34778800&#45;&gt;34316512</title>
<path fill="none" stroke="black" d="M1057.85,-863.614C1057.03,-902.167 1050.21,-956.487 1022,-994 1012.44,-1006.72 1000.37,-1017.63 987.156,-1026.97"/>
<polygon fill="black" stroke="black" points="985.145,-1024.1 978.789,-1032.58 989.044,-1029.92 985.145,-1024.1"/>
</g>
<!-- 34778800&#45;&gt;36780592 -->
<g id="edge16" class="edge"><title>34778800&#45;&gt;36780592</title>
<path fill="none" stroke="black" d="M953.985,-854.253C898.278,-874.595 830.349,-899.401 778.762,-918.238"/>
<polygon fill="black" stroke="black" points="777.52,-914.966 769.327,-921.684 779.921,-921.541 777.52,-914.966"/>
</g>
<!-- 34742976 -->
<g id="node20" class="node"><title>34742976</title>
<ellipse fill="#8f8f8f" stroke="black" cx="457" cy="-817" rx="131.022" ry="46.669"/>
<text text-anchor="middle" x="457" y="-824.4" font-family="Times Roman,serif" font-size="24.00">exp: (quote g)</text>
<text text-anchor="middle" x="457" y="-795.4" font-family="Times Roman,serif" font-size="24.00">value: g</text>
</g>
<!-- 34742976&#45;&gt;34316512 -->
<g id="edge20" class="edge"><title>34742976&#45;&gt;34316512</title>
<path fill="none" stroke="black" d="M421.492,-861.901C395.398,-900.684 369.495,-956.273 401,-994 421.619,-1018.69 473.711,-1036.05 535.705,-1048.25"/>
<polygon fill="black" stroke="black" points="535.258,-1051.73 545.737,-1050.17 536.57,-1044.86 535.258,-1051.73"/>
</g>
<!-- 34742976&#45;&gt;36780592 -->
<g id="edge22" class="edge"><title>34742976&#45;&gt;36780592</title>
<path fill="none" stroke="black" d="M529.579,-855.828C565.91,-875.265 609.247,-898.449 643.128,-916.575"/>
<polygon fill="black" stroke="black" points="641.504,-919.675 651.972,-921.306 644.806,-913.503 641.504,-919.675"/>
</g>
<!-- 34511968 -->
<g id="node21" class="node"><title>34511968</title>
<ellipse fill="#8f8f8f" stroke="black" cx="737" cy="-817" rx="131.022" ry="46.669"/>
<text text-anchor="middle" x="737" y="-824.4" font-family="Times Roman,serif" font-size="24.00">exp: (quote g)</text>
<text text-anchor="middle" x="737" y="-795.4" font-family="Times Roman,serif" font-size="24.00">value: g</text>
</g>
<!-- 34511968&#45;&gt;34316512 -->
<g id="edge24" class="edge"><title>34511968&#45;&gt;34316512</title>
<path fill="none" stroke="black" d="M831.733,-849.331C846.844,-854.335 862.329,-859.374 877,-864 930.917,-880.999 965.151,-854.72 999,-900 1024.01,-933.462 1019.68,-957.699 999,-994 992.078,-1006.15 982.601,-1016.7 971.815,-1025.83"/>
<polygon fill="black" stroke="black" points="969.412,-1023.26 963.747,-1032.22 973.759,-1028.75 969.412,-1023.26"/>
</g>
<!-- 34511968&#45;&gt;36780592 -->
<g id="edge26" class="edge"><title>34511968&#45;&gt;36780592</title>
<path fill="none" stroke="black" d="M723.747,-863.566C719.299,-879.193 714.41,-896.371 710.23,-911.056"/>
<polygon fill="black" stroke="black" points="706.835,-910.2 707.464,-920.776 713.568,-912.116 706.835,-910.2"/>
</g>
<!-- 34780688&#45;&gt;34316512 -->
<g id="edge30" class="edge"><title>34780688&#45;&gt;34316512</title>
<path fill="none" stroke="black" d="M1246.89,-981.496C1182.98,-997.233 1106.53,-1016.06 1038.46,-1032.81"/>
<polygon fill="black" stroke="black" points="1037.36,-1029.48 1028.48,-1035.27 1039.03,-1036.28 1037.36,-1029.48"/>
</g>
<!-- 25372240 -->
<g id="node26" class="node"><title>25372240</title>
<ellipse fill="none" stroke="black" cx="154" cy="-687" rx="62.9325" ry="18.3848"/>
<text text-anchor="middle" x="154" y="-683.4" font-family="Times Roman,serif" font-size="14.00">25372240</text>
</g>
<!-- 25372240&#45;&gt;34610800 -->
<g id="edge12" class="edge"><title>25372240&#45;&gt;34610800</title>
<path fill="none" stroke="black" d="M154,-705.626C154,-719.974 154,-740.614 154,-760.236"/>
<polygon fill="black" stroke="black" points="150.5,-760.365 154,-770.365 157.5,-760.365 150.5,-760.365"/>
</g>
<!-- 27994928 -->
<g id="node42" class="node"><title>27994928</title>
<ellipse fill="none" stroke="black" cx="1674" cy="-339" rx="62.9325" ry="18.3848"/>
<text text-anchor="middle" x="1674" y="-335.4" font-family="Times Roman,serif" font-size="14.00">27994928</text>
</g>
<!-- 27994928&#45;&gt;35744608 -->
<g id="edge42" class="edge"><title>27994928&#45;&gt;35744608</title>
<path fill="none" stroke="black" d="M1674,-357.626C1674,-371.974 1674,-392.614 1674,-412.236"/>
<polygon fill="black" stroke="black" points="1670.5,-412.365 1674,-422.365 1677.5,-412.365 1670.5,-412.365"/>
</g>
<!-- 34208304 -->
<g id="node52" class="node"><title>34208304</title>
<ellipse fill="none" stroke="black" cx="941" cy="-19" rx="62.9325" ry="18.3848"/>
<text text-anchor="middle" x="941" y="-15.4" font-family="Times Roman,serif" font-size="14.00">34208304</text>
</g>
<!-- 34208304&#45;&gt;34434816 -->
<g id="edge60" class="edge"><title>34208304&#45;&gt;34434816</title>
<path fill="none" stroke="black" d="M941,-37.7084C941,-45.3917 941,-54.7362 941,-64.3518"/>
<polygon fill="black" stroke="black" points="937.5,-64.4121 941,-74.4121 944.5,-64.4122 937.5,-64.4121"/>
</g>
</g>
</svg>
