<?xml version="1.0" encoding="UTF-8" standalone="no"?>
<!DOCTYPE svg PUBLIC "-//W3C//DTD SVG 1.1//EN"
 "http://www.w3.org/Graphics/SVG/1.1/DTD/svg11.dtd">
<!-- Generated by graphviz version 2.26.3 (20100126.1600)
 -->
<!-- Title: _anonymous_0 Pages: 1 -->
<svg width="373pt" height="620pt"
 viewBox="0.00 0.00 373.00 620.00" xmlns="http://www.w3.org/2000/svg" xmlns:xlink="http://www.w3.org/1999/xlink">
<g id="graph1" class="graph" transform="scale(1 1) rotate(0) translate(4 616)">
<title>_anonymous_0</title>
<polygon fill="white" stroke="white" points="-4,5 -4,-616 370,-616 370,5 -4,5"/>
<!-- 36427312 -->
<g id="node3" class="node"><title>36427312</title>
<ellipse fill="firebrick" stroke="black" cx="175" cy="-162" rx="27" ry="18"/>
</g>
<!-- 35779552 -->
<g id="node11" class="node"><title>35779552</title>
<ellipse fill="gold" stroke="black" cx="264" cy="-234" rx="27" ry="18"/>
</g>
<!-- 36427312&#45;&gt;35779552 -->
<g id="edge44" class="edge"><title>36427312&#45;&gt;35779552</title>
<path fill="none" stroke="black" d="M192.584,-176.225C205.834,-186.944 224.185,-201.79 238.966,-213.748"/>
<polygon fill="black" stroke="black" points="236.78,-216.481 246.756,-220.05 241.183,-211.039 236.78,-216.481"/>
</g>
<!-- 34778800 -->
<g id="node19" class="node"><title>34778800</title>
<ellipse fill="gold" stroke="black" cx="99" cy="-450" rx="27" ry="18"/>
</g>
<!-- 36427312&#45;&gt;34778800 -->
<g id="edge16" class="edge"><title>36427312&#45;&gt;34778800</title>
<path fill="none" stroke="black" d="M168.216,-179.854C164.371,-190.305 159.621,-203.805 156,-216 134.175,-289.505 114.369,-377.774 104.889,-421.938"/>
<polygon fill="black" stroke="black" points="101.421,-421.42 102.76,-431.93 108.267,-422.879 101.421,-421.42"/>
</g>
<!-- 36065888 -->
<g id="node4" class="node"><title>36065888</title>
<ellipse fill="#8f8f8f" stroke="black" cx="175" cy="-90" rx="27" ry="18"/>
</g>
<!-- 36065888&#45;&gt;36427312 -->
<g id="edge60" class="edge"><title>36065888&#45;&gt;36427312</title>
<path fill="none" stroke="black" d="M175,-108.169C175,-115.869 175,-125.026 175,-133.583"/>
<polygon fill="black" stroke="black" points="171.5,-133.587 175,-143.587 178.5,-133.587 171.5,-133.587"/>
</g>
<!-- 34434816 -->
<g id="node5" class="node"><title>34434816</title>
<ellipse fill="#8f8f8f" stroke="black" cx="139" cy="-18" rx="27" ry="18"/>
</g>
<!-- 34434816&#45;&gt;36427312 -->
<g id="edge52" class="edge"><title>34434816&#45;&gt;36427312</title>
<path fill="none" stroke="black" d="M135.988,-36.0363C133.59,-54.5334 131.71,-83.9232 139,-108 142.266,-118.787 148.476,-129.389 154.831,-138.304"/>
<polygon fill="black" stroke="black" points="152.049,-140.427 160.877,-146.284 157.628,-136.2 152.049,-140.427"/>
</g>
<!-- 34434816&#45;&gt;36065888 -->
<g id="edge54" class="edge"><title>34434816&#45;&gt;36065888</title>
<path fill="none" stroke="black" d="M147.715,-35.4292C151.96,-43.9193 157.154,-54.3071 161.866,-63.7326"/>
<polygon fill="black" stroke="black" points="158.763,-65.3523 166.366,-72.7313 165.024,-62.2218 158.763,-65.3523"/>
</g>
<!-- 34317760 -->
<g id="node6" class="node"><title>34317760</title>
<ellipse fill="#8f8f8f" stroke="black" cx="220" cy="-18" rx="27" ry="18"/>
</g>
<!-- 34317760&#45;&gt;36427312 -->
<g id="edge56" class="edge"><title>34317760&#45;&gt;36427312</title>
<path fill="none" stroke="black" d="M220.723,-36.1499C220.885,-54.7374 219.522,-84.1981 211,-108 207.24,-118.502 201.004,-128.957 194.77,-137.831"/>
<polygon fill="black" stroke="black" points="191.768,-136.002 188.628,-146.121 197.393,-140.169 191.768,-136.002"/>
</g>
<!-- 34317760&#45;&gt;36065888 -->
<g id="edge58" class="edge"><title>34317760&#45;&gt;36065888</title>
<path fill="none" stroke="black" d="M209.563,-34.6992C204.077,-43.4776 197.231,-54.4297 191.084,-64.2661"/>
<polygon fill="black" stroke="black" points="188.025,-62.5564 185.693,-72.8914 193.961,-66.2664 188.025,-62.5564"/>
</g>
<!-- 35328704 -->
<g id="node8" class="node"><title>35328704</title>
<ellipse fill="gold" stroke="black" cx="302" cy="-378" rx="27" ry="18"/>
</g>
<!-- 34618016 -->
<g id="node14" class="node"><title>34618016</title>
<ellipse fill="#8f8f8f" stroke="black" cx="315" cy="-450" rx="27" ry="18"/>
</g>
<!-- 35328704&#45;&gt;34618016 -->
<g id="edge32" class="edge"><title>35328704&#45;&gt;34618016</title>
<path fill="none" stroke="black" d="M305.28,-396.169C306.692,-403.988 308.375,-413.308 309.94,-421.978"/>
<polygon fill="black" stroke="black" points="306.544,-422.868 311.766,-432.087 313.433,-421.624 306.544,-422.868"/>
</g>
<!-- 35290960 -->
<g id="node9" class="node"><title>35290960</title>
<ellipse fill="#63b8ff" stroke="black" cx="247" cy="-306" rx="27" ry="18"/>
</g>
<!-- 35290960&#45;&gt;35328704 -->
<g id="edge50" class="edge"><title>35290960&#45;&gt;35328704</title>
<path fill="none" stroke="black" d="M259.48,-322.338C266.512,-331.544 275.435,-343.224 283.288,-353.505"/>
<polygon fill="black" stroke="black" points="280.717,-355.905 289.569,-361.727 286.28,-351.655 280.717,-355.905"/>
</g>
<!-- 35744608 -->
<g id="node10" class="node"><title>35744608</title>
<ellipse fill="#8f8f8f" stroke="black" cx="192" cy="-234" rx="27" ry="18"/>
</g>
<!-- 35744608&#45;&gt;35328704 -->
<g id="edge36" class="edge"><title>35744608&#45;&gt;35328704</title>
<path fill="none" stroke="black" d="M191.688,-252.267C192.24,-271.762 195.748,-302.71 211,-324 225.067,-343.636 248.69,-357.346 268.341,-366.038"/>
<polygon fill="black" stroke="black" points="267.033,-369.285 277.61,-369.906 269.729,-362.825 267.033,-369.285"/>
</g>
<!-- 35744608&#45;&gt;35290960 -->
<g id="edge38" class="edge"><title>35744608&#45;&gt;35290960</title>
<path fill="none" stroke="black" d="M204.48,-250.338C211.512,-259.544 220.435,-271.224 228.288,-281.505"/>
<polygon fill="black" stroke="black" points="225.717,-283.905 234.569,-289.727 231.28,-279.655 225.717,-283.905"/>
</g>
<!-- 35779552&#45;&gt;35328704 -->
<g id="edge40" class="edge"><title>35779552&#45;&gt;35328704</title>
<path fill="none" stroke="black" d="M270.926,-251.813C274.818,-262.251 279.568,-275.751 283,-288 288.736,-308.471 293.644,-331.989 297.035,-349.849"/>
<polygon fill="black" stroke="black" points="293.634,-350.708 298.897,-359.903 300.517,-349.433 293.634,-350.708"/>
</g>
<!-- 35779552&#45;&gt;35290960 -->
<g id="edge42" class="edge"><title>35779552&#45;&gt;35290960</title>
<path fill="none" stroke="black" d="M259.798,-251.798C257.918,-259.759 255.658,-269.333 253.563,-278.204"/>
<polygon fill="black" stroke="black" points="250.104,-277.621 251.213,-288.157 256.917,-279.229 250.104,-277.621"/>
</g>
<!-- 36004368 -->
<g id="node12" class="node"><title>36004368</title>
<ellipse fill="#8f8f8f" stroke="black" cx="338" cy="-234" rx="27" ry="18"/>
</g>
<!-- 36004368&#45;&gt;35328704 -->
<g id="edge46" class="edge"><title>36004368&#45;&gt;35328704</title>
<path fill="none" stroke="black" d="M333.691,-251.948C329.308,-270.126 322.285,-299.043 316,-324 313.848,-332.546 311.457,-341.84 309.268,-350.27"/>
<polygon fill="black" stroke="black" points="305.863,-349.457 306.729,-360.016 312.637,-351.221 305.863,-349.457"/>
</g>
<!-- 36004368&#45;&gt;35290960 -->
<g id="edge48" class="edge"><title>36004368&#45;&gt;35290960</title>
<path fill="none" stroke="black" d="M320.454,-247.882C306.858,-258.64 287.825,-273.699 272.54,-285.793"/>
<polygon fill="black" stroke="black" points="270.162,-283.211 264.492,-292.16 274.506,-288.7 270.162,-283.211"/>
</g>
<!-- 34780688 -->
<g id="node23" class="node"><title>34780688</title>
<ellipse fill="#8f8f8f" stroke="black" cx="306" cy="-522" rx="27" ry="18"/>
</g>
<!-- 34618016&#45;&gt;34780688 -->
<g id="edge34" class="edge"><title>34618016&#45;&gt;34780688</title>
<path fill="none" stroke="black" d="M312.729,-468.169C311.766,-475.869 310.622,-485.026 309.552,-493.583"/>
<polygon fill="black" stroke="black" points="306.069,-493.23 308.302,-503.587 313.015,-494.098 306.069,-493.23"/>
</g>
<!-- 34316512 -->
<g id="node16" class="node"><title>34316512</title>
<ellipse fill="gold" stroke="black" cx="177" cy="-594" rx="27" ry="18"/>
</g>
<!-- 36780592 -->
<g id="node17" class="node"><title>36780592</title>
<ellipse fill="gold" stroke="black" cx="150" cy="-522" rx="27" ry="18"/>
</g>
<!-- 36780592&#45;&gt;34316512 -->
<g id="edge26" class="edge"><title>36780592&#45;&gt;34316512</title>
<path fill="none" stroke="black" d="M156.674,-539.798C159.748,-547.994 163.462,-557.898 166.87,-566.985"/>
<polygon fill="black" stroke="black" points="163.614,-568.273 170.403,-576.407 170.168,-565.815 163.614,-568.273"/>
</g>
<!-- 36780592&#45;&gt;34780688 -->
<g id="edge30" class="edge"><title>36780592&#45;&gt;34780688</title>
<path fill="none" stroke="black" stroke-dasharray="1,5" d="M177.117,-522C207.573,-522 238.029,-522 268.485,-522"/>
<polygon fill="black" stroke="black" points="268.814,-525.5 278.814,-522 268.814,-518.5 268.814,-525.5"/>
</g>
<!-- 34610800 -->
<g id="node18" class="node"><title>34610800</title>
<ellipse fill="#8f8f8f" stroke="black" cx="27" cy="-450" rx="27" ry="18"/>
</g>
<!-- 34610800&#45;&gt;34316512 -->
<g id="edge8" class="edge"><title>34610800&#45;&gt;34316512</title>
<path fill="none" stroke="black" d="M37.9699,-466.845C50.8963,-485.927 73.7095,-517.315 98,-540 113.022,-554.029 131.975,-567.11 147.551,-576.883"/>
<polygon fill="black" stroke="black" points="145.923,-579.99 156.277,-582.237 149.584,-574.024 145.923,-579.99"/>
</g>
<!-- 34610800&#45;&gt;36780592 -->
<g id="edge10" class="edge"><title>34610800&#45;&gt;36780592</title>
<path fill="none" stroke="black" d="M47.3109,-461.889C67.3412,-473.614 98.1596,-491.654 120.811,-504.914"/>
<polygon fill="black" stroke="black" points="119.261,-508.062 129.659,-510.093 122.797,-502.021 119.261,-508.062"/>
</g>
<!-- 34778800&#45;&gt;34316512 -->
<g id="edge12" class="edge"><title>34778800&#45;&gt;34316512</title>
<path fill="none" stroke="black" d="M98.4774,-468.1C98.7008,-487.174 101.313,-517.512 114,-540 122.167,-554.476 135.769,-566.872 148.248,-576.122"/>
<polygon fill="black" stroke="black" points="146.433,-579.125 156.627,-582.011 150.458,-573.398 146.433,-579.125"/>
</g>
<!-- 34778800&#45;&gt;36780592 -->
<g id="edge14" class="edge"><title>34778800&#45;&gt;36780592</title>
<path fill="none" stroke="black" d="M110.573,-466.338C116.937,-475.323 124.972,-486.666 132.124,-496.764"/>
<polygon fill="black" stroke="black" points="129.483,-499.09 138.119,-505.227 135.195,-495.044 129.483,-499.09"/>
</g>
<!-- 34742976 -->
<g id="node20" class="node"><title>34742976</title>
<ellipse fill="#8f8f8f" stroke="black" cx="171" cy="-450" rx="27" ry="18"/>
</g>
<!-- 34742976&#45;&gt;34316512 -->
<g id="edge18" class="edge"><title>34742976&#45;&gt;34316512</title>
<path fill="none" stroke="black" d="M177.238,-467.745C180.568,-478.16 184.318,-491.66 186,-504 188.823,-524.713 186.277,-548.221 183.181,-566.017"/>
<polygon fill="black" stroke="black" points="179.708,-565.548 181.279,-576.026 186.585,-566.855 179.708,-565.548"/>
</g>
<!-- 34742976&#45;&gt;36780592 -->
<g id="edge20" class="edge"><title>34742976&#45;&gt;36780592</title>
<path fill="none" stroke="black" d="M165.809,-467.798C163.462,-475.846 160.634,-485.541 158.023,-494.493"/>
<polygon fill="black" stroke="black" points="154.644,-493.577 155.204,-504.157 161.364,-495.537 154.644,-493.577"/>
</g>
<!-- 34511968 -->
<g id="node21" class="node"><title>34511968</title>
<ellipse fill="#8f8f8f" stroke="black" cx="243" cy="-450" rx="27" ry="18"/>
</g>
<!-- 34511968&#45;&gt;34316512 -->
<g id="edge22" class="edge"><title>34511968&#45;&gt;34316512</title>
<path fill="none" stroke="black" d="M235.039,-467.37C223.642,-492.236 202.578,-538.193 189.205,-567.371"/>
<polygon fill="black" stroke="black" points="185.974,-566.02 184.989,-576.569 192.338,-568.936 185.974,-566.02"/>
</g>
<!-- 34511968&#45;&gt;36780592 -->
<g id="edge24" class="edge"><title>34511968&#45;&gt;36780592</title>
<path fill="none" stroke="black" d="M225.069,-463.882C211.174,-474.64 191.722,-489.699 176.101,-501.793"/>
<polygon fill="black" stroke="black" points="173.641,-499.271 167.876,-508.16 177.926,-504.806 173.641,-499.271"/>
</g>
<!-- 34780688&#45;&gt;34316512 -->
<g id="edge28" class="edge"><title>34780688&#45;&gt;34316512</title>
<path fill="none" stroke="black" d="M285.274,-533.568C264.148,-545.359 231.159,-563.772 207.144,-577.176"/>
<polygon fill="black" stroke="black" points="205.129,-574.292 198.103,-582.221 208.541,-580.404 205.129,-574.292"/>
</g>
</g>
</svg>
