<?xml version="1.0" encoding="UTF-8" standalone="no"?>
<!DOCTYPE svg PUBLIC "-//W3C//DTD SVG 1.1//EN"
 "http://www.w3.org/Graphics/SVG/1.1/DTD/svg11.dtd">
<!-- Generated by graphviz version 2.26.3 (20100126.1600)
 -->
<!-- Title: _anonymous_0 Pages: 1 -->
<svg width="497pt" height="476pt"
 viewBox="0.00 0.00 497.00 476.00" xmlns="http://www.w3.org/2000/svg" xmlns:xlink="http://www.w3.org/1999/xlink">
<g id="graph1" class="graph" transform="scale(1 1) rotate(0) translate(4 472)">
<title>_anonymous_0</title>
<polygon fill="white" stroke="white" points="-4,5 -4,-472 494,-472 494,5 -4,5"/>
<!-- 36427312 -->
<g id="node3" class="node"><title>36427312</title>
<ellipse fill="firebrick" stroke="black" cx="246" cy="-162" rx="27" ry="18"/>
</g>
<!-- 35779552 -->
<g id="node11" class="node"><title>35779552</title>
<ellipse fill="gold" stroke="black" cx="174" cy="-234" rx="27" ry="18"/>
</g>
<!-- 36427312&#45;&gt;35779552 -->
<g id="edge37" class="edge"><title>36427312&#45;&gt;35779552</title>
<path fill="none" stroke="black" d="M230.731,-177.269C220.803,-187.197 207.685,-200.315 196.564,-211.436"/>
<polygon fill="black" stroke="black" points="193.844,-209.207 189.247,-218.753 198.793,-214.156 193.844,-209.207"/>
</g>
<!-- 34778800 -->
<g id="node19" class="node"><title>34778800</title>
<ellipse fill="gold" stroke="black" cx="318" cy="-234" rx="27" ry="18"/>
</g>
<!-- 36427312&#45;&gt;34778800 -->
<g id="edge15" class="edge"><title>36427312&#45;&gt;34778800</title>
<path fill="none" stroke="black" d="M261.269,-177.269C271.197,-187.197 284.315,-200.315 295.436,-211.436"/>
<polygon fill="black" stroke="black" points="293.207,-214.156 302.753,-218.753 298.156,-209.207 293.207,-214.156"/>
</g>
<!-- 36065888 -->
<g id="node4" class="node"><title>36065888</title>
<ellipse fill="#8f8f8f" stroke="black" cx="246" cy="-90" rx="27" ry="18"/>
</g>
<!-- 36065888&#45;&gt;36427312 -->
<g id="edge53" class="edge"><title>36065888&#45;&gt;36427312</title>
<path fill="none" stroke="black" d="M246,-108.169C246,-115.869 246,-125.026 246,-133.583"/>
<polygon fill="black" stroke="black" points="242.5,-133.587 246,-143.587 249.5,-133.587 242.5,-133.587"/>
</g>
<!-- 34434816 -->
<g id="node5" class="node"><title>34434816</title>
<ellipse fill="#8f8f8f" stroke="black" cx="210" cy="-18" rx="27" ry="18"/>
</g>
<!-- 34434816&#45;&gt;36427312 -->
<g id="edge45" class="edge"><title>34434816&#45;&gt;36427312</title>
<path fill="none" stroke="black" d="M206.988,-36.0363C204.59,-54.5334 202.71,-83.9232 210,-108 213.266,-118.787 219.476,-129.389 225.831,-138.304"/>
<polygon fill="black" stroke="black" points="223.049,-140.427 231.877,-146.284 228.628,-136.2 223.049,-140.427"/>
</g>
<!-- 34434816&#45;&gt;36065888 -->
<g id="edge47" class="edge"><title>34434816&#45;&gt;36065888</title>
<path fill="none" stroke="black" d="M218.715,-35.4292C222.96,-43.9193 228.154,-54.3071 232.866,-63.7326"/>
<polygon fill="black" stroke="black" points="229.763,-65.3523 237.366,-72.7313 236.024,-62.2218 229.763,-65.3523"/>
</g>
<!-- 34317760 -->
<g id="node6" class="node"><title>34317760</title>
<ellipse fill="#8f8f8f" stroke="black" cx="291" cy="-18" rx="27" ry="18"/>
</g>
<!-- 34317760&#45;&gt;36427312 -->
<g id="edge49" class="edge"><title>34317760&#45;&gt;36427312</title>
<path fill="none" stroke="black" d="M291.723,-36.1499C291.885,-54.7374 290.522,-84.1981 282,-108 278.24,-118.502 272.004,-128.957 265.77,-137.831"/>
<polygon fill="black" stroke="black" points="262.768,-136.002 259.628,-146.121 268.393,-140.169 262.768,-136.002"/>
</g>
<!-- 34317760&#45;&gt;36065888 -->
<g id="edge51" class="edge"><title>34317760&#45;&gt;36065888</title>
<path fill="none" stroke="black" d="M280.563,-34.6992C275.077,-43.4776 268.231,-54.4297 262.084,-64.2661"/>
<polygon fill="black" stroke="black" points="259.025,-62.5564 256.693,-72.8914 264.961,-66.2664 259.025,-62.5564"/>
</g>
<!-- 35328704 -->
<g id="node8" class="node"><title>35328704</title>
<ellipse fill="#ffaeb9" stroke="black" cx="109" cy="-378" rx="27" ry="18"/>
</g>
<!-- 34618016 -->
<g id="node14" class="node"><title>34618016</title>
<ellipse fill="#8f8f8f" stroke="black" cx="109" cy="-450" rx="27" ry="18"/>
</g>
<!-- 35328704&#45;&gt;34618016 -->
<g id="edge27" class="edge"><title>35328704&#45;&gt;34618016</title>
<path fill="none" stroke="black" d="M109,-396.169C109,-403.869 109,-413.026 109,-421.583"/>
<polygon fill="black" stroke="black" points="105.5,-421.587 109,-431.587 112.5,-421.587 105.5,-421.587"/>
</g>
<!-- 35290960 -->
<g id="node9" class="node"><title>35290960</title>
<ellipse fill="#63b8ff" stroke="black" cx="82" cy="-306" rx="27" ry="18"/>
</g>
<!-- 35290960&#45;&gt;35328704 -->
<g id="edge43" class="edge"><title>35290960&#45;&gt;35328704</title>
<path fill="none" stroke="black" d="M88.6742,-323.798C91.7476,-331.994 95.4616,-341.898 98.8695,-350.985"/>
<polygon fill="black" stroke="black" points="95.6142,-352.273 102.403,-360.407 102.168,-349.815 95.6142,-352.273"/>
</g>
<!-- 35744608 -->
<g id="node10" class="node"><title>35744608</title>
<ellipse fill="#8f8f8f" stroke="black" cx="100" cy="-234" rx="27" ry="18"/>
</g>
<!-- 35744608&#45;&gt;35328704 -->
<g id="edge29" class="edge"><title>35744608&#45;&gt;35328704</title>
<path fill="none" stroke="black" d="M107.48,-251.636C111.474,-262.014 115.974,-275.514 118,-288 121.349,-308.635 118.781,-332.146 115.544,-349.963"/>
<polygon fill="black" stroke="black" points="112.069,-349.495 113.546,-359.986 118.934,-350.864 112.069,-349.495"/>
</g>
<!-- 35744608&#45;&gt;35290960 -->
<g id="edge31" class="edge"><title>35744608&#45;&gt;35290960</title>
<path fill="none" stroke="black" d="M95.5506,-251.798C93.5602,-259.759 91.1668,-269.333 88.9489,-278.204"/>
<polygon fill="black" stroke="black" points="85.4906,-277.607 86.4606,-288.157 92.2816,-279.305 85.4906,-277.607"/>
</g>
<!-- 35779552&#45;&gt;35328704 -->
<g id="edge33" class="edge"><title>35779552&#45;&gt;35328704</title>
<path fill="none" stroke="black" d="M166.159,-251.37C154.935,-276.236 134.191,-322.193 121.02,-351.371"/>
<polygon fill="black" stroke="black" points="117.792,-350.014 116.868,-360.569 124.173,-352.894 117.792,-350.014"/>
</g>
<!-- 35779552&#45;&gt;35290960 -->
<g id="edge35" class="edge"><title>35779552&#45;&gt;35290960</title>
<path fill="none" stroke="black" d="M156.261,-247.882C142.516,-258.64 123.273,-273.699 107.82,-285.793"/>
<polygon fill="black" stroke="black" points="105.402,-283.241 99.6841,-292.16 109.716,-288.753 105.402,-283.241"/>
</g>
<!-- 36004368 -->
<g id="node12" class="node"><title>36004368</title>
<ellipse fill="#8f8f8f" stroke="black" cx="27" cy="-234" rx="27" ry="18"/>
</g>
<!-- 36004368&#45;&gt;35328704 -->
<g id="edge39" class="edge"><title>36004368&#45;&gt;35328704</title>
<path fill="none" stroke="black" d="M27.4453,-252.138C28.653,-271.244 32.7263,-301.609 46,-324 54.4754,-338.297 68.1076,-350.675 80.527,-359.961"/>
<polygon fill="black" stroke="black" points="78.6748,-362.938 88.853,-365.88 82.731,-357.233 78.6748,-362.938"/>
</g>
<!-- 36004368&#45;&gt;35290960 -->
<g id="edge41" class="edge"><title>36004368&#45;&gt;35290960</title>
<path fill="none" stroke="black" d="M39.4804,-250.338C46.5124,-259.544 55.4347,-271.224 63.2883,-281.505"/>
<polygon fill="black" stroke="black" points="60.7172,-283.905 69.569,-289.727 66.28,-279.655 60.7172,-283.905"/>
</g>
<!-- 34316512 -->
<g id="node16" class="node"><title>34316512</title>
<ellipse fill="gold" stroke="black" cx="358" cy="-378" rx="27" ry="18"/>
</g>
<!-- 36780592 -->
<g id="node17" class="node"><title>36780592</title>
<ellipse fill="gold" stroke="black" cx="358" cy="-306" rx="27" ry="18"/>
</g>
<!-- 36780592&#45;&gt;34316512 -->
<g id="edge25" class="edge"><title>36780592&#45;&gt;34316512</title>
<path fill="none" stroke="black" d="M358,-324.169C358,-331.869 358,-341.026 358,-349.583"/>
<polygon fill="black" stroke="black" points="354.5,-349.587 358,-359.587 361.5,-349.587 354.5,-349.587"/>
</g>
<!-- 34610800 -->
<g id="node18" class="node"><title>34610800</title>
<ellipse fill="#8f8f8f" stroke="black" cx="246" cy="-234" rx="27" ry="18"/>
</g>
<!-- 34610800&#45;&gt;34316512 -->
<g id="edge7" class="edge"><title>34610800&#45;&gt;34316512</title>
<path fill="none" stroke="black" d="M257.307,-250.589C269.943,-268.902 291.23,-299.09 311,-324 319.127,-334.24 328.51,-345.182 336.746,-354.52"/>
<polygon fill="black" stroke="black" points="334.365,-357.11 343.627,-362.256 339.595,-352.458 334.365,-357.11"/>
</g>
<!-- 34610800&#45;&gt;36780592 -->
<g id="edge9" class="edge"><title>34610800&#45;&gt;36780592</title>
<path fill="none" stroke="black" d="M265.509,-246.541C283.307,-257.983 309.814,-275.024 329.895,-287.933"/>
<polygon fill="black" stroke="black" points="328.034,-290.897 338.339,-293.361 331.82,-285.009 328.034,-290.897"/>
</g>
<!-- 34778800&#45;&gt;34316512 -->
<g id="edge11" class="edge"><title>34778800&#45;&gt;34316512</title>
<path fill="none" stroke="black" d="M316.009,-252.096C314.606,-270.64 314.17,-300.067 322,-324 325.469,-334.602 331.638,-345.079 337.901,-353.943"/>
<polygon fill="black" stroke="black" points="335.301,-356.311 344.099,-362.215 340.903,-352.113 335.301,-356.311"/>
</g>
<!-- 34778800&#45;&gt;36780592 -->
<g id="edge13" class="edge"><title>34778800&#45;&gt;36780592</title>
<path fill="none" stroke="black" d="M327.479,-251.063C332.311,-259.761 338.289,-270.52 343.67,-280.205"/>
<polygon fill="black" stroke="black" points="340.673,-282.018 348.589,-289.059 346.792,-278.618 340.673,-282.018"/>
</g>
<!-- 34742976 -->
<g id="node20" class="node"><title>34742976</title>
<ellipse fill="#8f8f8f" stroke="black" cx="390" cy="-234" rx="27" ry="18"/>
</g>
<!-- 34742976&#45;&gt;34316512 -->
<g id="edge17" class="edge"><title>34742976&#45;&gt;34316512</title>
<path fill="none" stroke="black" d="M394.258,-252.026C397.834,-270.516 401.297,-299.899 394,-324 390.734,-334.787 384.524,-345.389 378.169,-354.304"/>
<polygon fill="black" stroke="black" points="375.372,-352.2 372.123,-362.284 380.951,-356.427 375.372,-352.2"/>
</g>
<!-- 34742976&#45;&gt;36780592 -->
<g id="edge19" class="edge"><title>34742976&#45;&gt;36780592</title>
<path fill="none" stroke="black" d="M382.254,-251.429C378.52,-259.831 373.96,-270.091 369.805,-279.438"/>
<polygon fill="black" stroke="black" points="366.538,-278.172 365.675,-288.731 372.935,-281.015 366.538,-278.172"/>
</g>
<!-- 34511968 -->
<g id="node21" class="node"><title>34511968</title>
<ellipse fill="#8f8f8f" stroke="black" cx="462" cy="-234" rx="27" ry="18"/>
</g>
<!-- 34511968&#45;&gt;34316512 -->
<g id="edge21" class="edge"><title>34511968&#45;&gt;34316512</title>
<path fill="none" stroke="black" d="M453.575,-251.355C444.133,-270.069 427.798,-300.355 410,-324 401.477,-335.323 390.797,-346.783 381.336,-356.216"/>
<polygon fill="black" stroke="black" points="378.786,-353.814 374.075,-363.304 383.675,-358.823 378.786,-353.814"/>
</g>
<!-- 34511968&#45;&gt;36780592 -->
<g id="edge23" class="edge"><title>34511968&#45;&gt;36780592</title>
<path fill="none" stroke="black" d="M442.925,-247.206C426.799,-258.37 403.496,-274.503 385.378,-287.046"/>
<polygon fill="black" stroke="black" points="383.184,-284.308 376.954,-292.878 387.168,-290.063 383.184,-284.308"/>
</g>
</g>
</svg>
