<?xml version="1.0" encoding="UTF-8" standalone="no"?>
<!DOCTYPE svg PUBLIC "-//W3C//DTD SVG 1.1//EN"
 "http://www.w3.org/Graphics/SVG/1.1/DTD/svg11.dtd">
<!-- Generated by graphviz version 2.26.3 (20100126.1600)
 -->
<!-- Title: _anonymous_0 Pages: 1 -->
<svg width="2178pt" height="872pt"
 viewBox="0.00 0.00 2178.00 872.00" xmlns="http://www.w3.org/2000/svg" xmlns:xlink="http://www.w3.org/1999/xlink">
<g id="graph1" class="graph" transform="scale(1 1) rotate(0) translate(4 868)">
<title>_anonymous_0</title>
<polygon fill="white" stroke="white" points="-4,5 -4,-868 2175,-868 2175,5 -4,5"/>
<!-- 36427312 -->
<g id="node3" class="node"><title>36427312</title>
<ellipse fill="firebrick" stroke="black" cx="1213" cy="-339" rx="241.123" ry="46.669"/>
<text text-anchor="middle" x="1213" y="-346.4" font-family="Times Roman,serif" font-size="24.00">exp: (snormal 100.000000)</text>
<text text-anchor="middle" x="1213" y="-317.4" font-family="Times Roman,serif" font-size="24.00">value: </text>
</g>
<!-- 35779552 -->
<g id="node11" class="node"><title>35779552</title>
<ellipse fill="gold" stroke="black" cx="963" cy="-469" rx="101.116" ry="46.669"/>
<text text-anchor="middle" x="963" y="-476.4" font-family="Times Roman,serif" font-size="24.00">exp: alpha</text>
<text text-anchor="middle" x="963" y="-447.4" font-family="Times Roman,serif" font-size="24.00">value: </text>
</g>
<!-- 36427312&#45;&gt;35779552 -->
<g id="edge41" class="edge"><title>36427312&#45;&gt;35779552</title>
<path fill="none" stroke="black" d="M1129.06,-382.65C1100,-397.759 1067.62,-414.599 1039.22,-429.367"/>
<polygon fill="black" stroke="black" points="1037.4,-426.365 1030.15,-434.084 1040.63,-432.576 1037.4,-426.365"/>
</g>
<!-- 34778800 -->
<g id="node19" class="node"><title>34778800</title>
<ellipse fill="gold" stroke="black" cx="1463" cy="-469" rx="101.116" ry="46.669"/>
<text text-anchor="middle" x="1463" y="-476.4" font-family="Times Roman,serif" font-size="24.00">exp: alpha</text>
<text text-anchor="middle" x="1463" y="-447.4" font-family="Times Roman,serif" font-size="24.00">value: </text>
</g>
<!-- 36427312&#45;&gt;34778800 -->
<g id="edge17" class="edge"><title>36427312&#45;&gt;34778800</title>
<path fill="none" stroke="black" d="M1296.94,-382.65C1326,-397.759 1358.38,-414.599 1386.78,-429.367"/>
<polygon fill="black" stroke="black" points="1385.37,-432.576 1395.85,-434.084 1388.6,-426.365 1385.37,-432.576"/>
</g>
<!-- 36065888 -->
<g id="node4" class="node"><title>36065888</title>
<ellipse fill="#8f8f8f" stroke="black" cx="1213" cy="-230" rx="99.9096" ry="26.163"/>
<text text-anchor="middle" x="1213" y="-222.9" font-family="Times Roman,serif" font-size="24.00">request: []</text>
</g>
<!-- 36065888&#45;&gt;36427312 -->
<g id="edge59" class="edge"><title>36065888&#45;&gt;36427312</title>
<path fill="none" stroke="black" d="M1213,-256.108C1213,-263.979 1213,-272.946 1213,-282.005"/>
<polygon fill="black" stroke="black" points="1209.5,-282.218 1213,-292.218 1216.5,-282.218 1209.5,-282.218"/>
</g>
<!-- 34434816 -->
<g id="node5" class="node"><title>34434816</title>
<ellipse fill="#8f8f8f" stroke="black" cx="1053" cy="-121" rx="154.149" ry="46.669"/>
<text text-anchor="middle" x="1053" y="-128.4" font-family="Times Roman,serif" font-size="24.00">exp: snormal</text>
<text text-anchor="middle" x="1053" y="-99.4" font-family="Times Roman,serif" font-size="24.00">value: sp:normal</text>
</g>
<!-- 34434816&#45;&gt;36427312 -->
<g id="edge49" class="edge"><title>34434816&#45;&gt;36427312</title>
<path fill="none" stroke="black" d="M1063.66,-167.623C1071.59,-195.217 1084.46,-229.787 1104,-256 1112.61,-267.543 1123.23,-278.268 1134.45,-287.916"/>
<polygon fill="black" stroke="black" points="1132.36,-290.729 1142.29,-294.42 1136.83,-285.342 1132.36,-290.729"/>
</g>
<!-- 34434816&#45;&gt;36065888 -->
<g id="edge51" class="edge"><title>34434816&#45;&gt;36065888</title>
<path fill="none" stroke="black" d="M1115.78,-163.767C1133.52,-175.855 1152.45,-188.751 1168.85,-199.922"/>
<polygon fill="black" stroke="black" points="1166.94,-202.855 1177.17,-205.592 1170.88,-197.07 1166.94,-202.855"/>
</g>
<!-- 34317760 -->
<g id="node6" class="node"><title>34317760</title>
<ellipse fill="#8f8f8f" stroke="black" cx="1395" cy="-121" rx="169.913" ry="46.669"/>
<text text-anchor="middle" x="1395" y="-128.4" font-family="Times Roman,serif" font-size="24.00">exp: 100.000000</text>
<text text-anchor="middle" x="1395" y="-99.4" font-family="Times Roman,serif" font-size="24.00">value: 100.000000</text>
</g>
<!-- 34317760&#45;&gt;36427312 -->
<g id="edge55" class="edge"><title>34317760&#45;&gt;36427312</title>
<path fill="none" stroke="black" d="M1375.87,-167.476C1363.14,-195.017 1344.61,-229.582 1322,-256 1312.29,-267.34 1300.8,-278.108 1288.97,-287.903"/>
<polygon fill="black" stroke="black" points="1286.75,-285.194 1281.17,-294.196 1291.15,-290.644 1286.75,-285.194"/>
</g>
<!-- 34317760&#45;&gt;36065888 -->
<g id="edge57" class="edge"><title>34317760&#45;&gt;36065888</title>
<path fill="none" stroke="black" d="M1324.37,-163.298C1303.4,-175.857 1280.91,-189.326 1261.67,-200.85"/>
<polygon fill="black" stroke="black" points="1259.86,-197.857 1253.08,-205.998 1263.45,-203.862 1259.86,-197.857"/>
</g>
<!-- 35328704 -->
<g id="node8" class="node"><title>35328704</title>
<ellipse fill="#ffaeb9" stroke="black" cx="580" cy="-687" rx="372.145" ry="46.669"/>
<text text-anchor="middle" x="580" y="-694.4" font-family="Times Roman,serif" font-size="24.00">exp: (make_sym_dir_mult alpha 2.000000)</text>
<text text-anchor="middle" x="580" y="-665.4" font-family="Times Roman,serif" font-size="24.00">value: </text>
</g>
<!-- 34618016 -->
<g id="node14" class="node"><title>34618016</title>
<ellipse fill="#8f8f8f" stroke="black" cx="580" cy="-817" rx="82.0244" ry="46.669"/>
<text text-anchor="middle" x="580" y="-824.4" font-family="Times Roman,serif" font-size="24.00">exp: f</text>
<text text-anchor="middle" x="580" y="-795.4" font-family="Times Roman,serif" font-size="24.00">value: []</text>
</g>
<!-- 35328704&#45;&gt;34618016 -->
<g id="edge29" class="edge"><title>35328704&#45;&gt;34618016</title>
<path fill="none" stroke="black" d="M580,-733.566C580,-742.154 580,-751.21 580,-760.063"/>
<polygon fill="black" stroke="black" points="576.5,-760.322 580,-770.322 583.5,-760.322 576.5,-760.322"/>
</g>
<!-- 35290960 -->
<g id="node9" class="node"><title>35290960</title>
<ellipse fill="#63b8ff" stroke="black" cx="516" cy="-578" rx="99.9096" ry="26.163"/>
<text text-anchor="middle" x="516" y="-570.9" font-family="Times Roman,serif" font-size="24.00">request: []</text>
</g>
<!-- 35290960&#45;&gt;35328704 -->
<g id="edge47" class="edge"><title>35290960&#45;&gt;35328704</title>
<path fill="none" stroke="black" d="M531.167,-603.831C536.091,-612.218 541.759,-621.871 547.45,-631.564"/>
<polygon fill="black" stroke="black" points="544.581,-633.589 552.662,-640.441 550.617,-630.045 544.581,-633.589"/>
</g>
<!-- 35744608 -->
<g id="node10" class="node"><title>35744608</title>
<ellipse fill="#8f8f8f" stroke="black" cx="580" cy="-469" rx="263.958" ry="46.669"/>
<text text-anchor="middle" x="580" y="-476.4" font-family="Times Roman,serif" font-size="24.00">exp: make_sym_dir_mult</text>
<text text-anchor="middle" x="580" y="-447.4" font-family="Times Roman,serif" font-size="24.00">value: sp:make_sym_dir_mult</text>
</g>
<!-- 35744608&#45;&gt;35328704 -->
<g id="edge31" class="edge"><title>35744608&#45;&gt;35328704</title>
<path fill="none" stroke="black" d="M610.454,-515.605C616.451,-527.061 621.857,-539.607 625,-552 630.682,-574.402 630.682,-581.598 625,-604 622.667,-613.198 619.088,-622.48 614.946,-631.338"/>
<polygon fill="black" stroke="black" points="611.762,-629.881 610.454,-640.395 618.033,-632.991 611.762,-629.881"/>
</g>
<!-- 35744608&#45;&gt;35290960 -->
<g id="edge33" class="edge"><title>35744608&#45;&gt;35290960</title>
<path fill="none" stroke="black" d="M552.673,-515.542C547.226,-524.818 541.595,-534.409 536.429,-543.207"/>
<polygon fill="black" stroke="black" points="533.286,-541.648 531.241,-552.043 539.322,-545.192 533.286,-541.648"/>
</g>
<!-- 35779552&#45;&gt;35328704 -->
<g id="edge37" class="edge"><title>35779552&#45;&gt;35328704</title>
<path fill="none" stroke="black" d="M899.325,-505.243C836.396,-541.062 739.574,-596.172 669.038,-636.32"/>
<polygon fill="black" stroke="black" points="667.096,-633.398 660.137,-641.387 670.559,-639.482 667.096,-633.398"/>
</g>
<!-- 35779552&#45;&gt;35290960 -->
<g id="edge39" class="edge"><title>35779552&#45;&gt;35290960</title>
<path fill="none" stroke="black" d="M891.959,-502.061C879.17,-507.231 865.825,-512.133 853,-516 775.259,-539.442 684.616,-555.512 616.929,-565.407"/>
<polygon fill="black" stroke="black" points="616.09,-561.991 606.691,-566.882 617.088,-568.92 616.09,-561.991"/>
</g>
<!-- 36004368 -->
<g id="node12" class="node"><title>36004368</title>
<ellipse fill="#8f8f8f" stroke="black" cx="149" cy="-469" rx="149.2" ry="46.669"/>
<text text-anchor="middle" x="149" y="-476.4" font-family="Times Roman,serif" font-size="24.00">exp: 2.000000</text>
<text text-anchor="middle" x="149" y="-447.4" font-family="Times Roman,serif" font-size="24.00">value: 2.000000</text>
</g>
<!-- 36004368&#45;&gt;35328704 -->
<g id="edge43" class="edge"><title>36004368&#45;&gt;35328704</title>
<path fill="none" stroke="black" d="M224.282,-509.272C275.551,-536.481 345.087,-572.962 407,-604 428.986,-615.022 452.679,-626.59 475.266,-637.472"/>
<polygon fill="black" stroke="black" points="474.003,-640.748 484.532,-641.928 477.037,-634.439 474.003,-640.748"/>
</g>
<!-- 36004368&#45;&gt;35290960 -->
<g id="edge45" class="edge"><title>36004368&#45;&gt;35290960</title>
<path fill="none" stroke="black" d="M256.937,-501.12C273.697,-506.104 290.814,-511.192 307,-516 351.075,-529.093 400.384,-543.721 440.034,-555.48"/>
<polygon fill="black" stroke="black" points="439.054,-558.84 449.637,-558.327 441.045,-552.128 439.054,-558.84"/>
</g>
<!-- 34316512 -->
<g id="node16" class="node"><title>34316512</title>
<ellipse fill="gold" stroke="black" cx="1590" cy="-687" rx="382.752" ry="46.669"/>
<text text-anchor="middle" x="1590" y="-694.4" font-family="Times Roman,serif" font-size="24.00">exp: (branch_exp alpha (quote g) (quote g))</text>
<text text-anchor="middle" x="1590" y="-665.4" font-family="Times Roman,serif" font-size="24.00">value: </text>
</g>
<!-- 36780592 -->
<g id="node17" class="node"><title>36780592</title>
<ellipse fill="gold" stroke="black" cx="1590" cy="-578" rx="87.1802" ry="26.163"/>
<text text-anchor="middle" x="1590" y="-570.9" font-family="Times Roman,serif" font-size="24.00">request: </text>
</g>
<!-- 36780592&#45;&gt;34316512 -->
<g id="edge27" class="edge"><title>36780592&#45;&gt;34316512</title>
<path fill="none" stroke="black" d="M1590,-604.108C1590,-611.979 1590,-620.946 1590,-630.005"/>
<polygon fill="black" stroke="black" points="1586.5,-630.218 1590,-640.218 1593.5,-630.218 1586.5,-630.218"/>
</g>
<!-- 34610800 -->
<g id="node18" class="node"><title>34610800</title>
<ellipse fill="#8f8f8f" stroke="black" cx="2016" cy="-469" rx="154.149" ry="46.669"/>
<text text-anchor="middle" x="2016" y="-476.4" font-family="Times Roman,serif" font-size="24.00">exp: branch_exp</text>
<text text-anchor="middle" x="2016" y="-447.4" font-family="Times Roman,serif" font-size="24.00">value: sp:branch</text>
</g>
<!-- 34610800&#45;&gt;34316512 -->
<g id="edge7" class="edge"><title>34610800&#45;&gt;34316512</title>
<path fill="none" stroke="black" d="M1937.37,-509.239C1866.91,-545.296 1763.29,-598.321 1687.56,-637.073"/>
<polygon fill="black" stroke="black" points="1685.78,-634.055 1678.47,-641.726 1688.97,-640.287 1685.78,-634.055"/>
</g>
<!-- 34610800&#45;&gt;36780592 -->
<g id="edge9" class="edge"><title>34610800&#45;&gt;36780592</title>
<path fill="none" stroke="black" d="M1905.73,-501.593C1888.13,-506.563 1870.09,-511.523 1853,-516 1791.82,-532.021 1722.14,-548.362 1669.88,-560.243"/>
<polygon fill="black" stroke="black" points="1668.98,-556.859 1660,-562.483 1670.53,-563.685 1668.98,-556.859"/>
</g>
<!-- 34778800&#45;&gt;34316512 -->
<g id="edge13" class="edge"><title>34778800&#45;&gt;34316512</title>
<path fill="none" stroke="black" d="M1466.46,-515.769C1470.2,-543.086 1477.94,-577.319 1494,-604 1500.45,-614.724 1508.77,-624.776 1517.81,-633.927"/>
<polygon fill="black" stroke="black" points="1515.57,-636.628 1525.19,-641.067 1520.44,-631.598 1515.57,-636.628"/>
</g>
<!-- 34778800&#45;&gt;36780592 -->
<g id="edge15" class="edge"><title>34778800&#45;&gt;36780592</title>
<path fill="none" stroke="black" d="M1511.01,-510.208C1524.97,-522.19 1540,-535.085 1553.16,-546.379"/>
<polygon fill="black" stroke="black" points="1551.21,-549.324 1561.08,-553.181 1555.77,-544.012 1551.21,-549.324"/>
</g>
<!-- 34742976 -->
<g id="node20" class="node"><title>34742976</title>
<ellipse fill="#8f8f8f" stroke="black" cx="1213" cy="-469" rx="131.022" ry="46.669"/>
<text text-anchor="middle" x="1213" y="-476.4" font-family="Times Roman,serif" font-size="24.00">exp: (quote g)</text>
<text text-anchor="middle" x="1213" y="-447.4" font-family="Times Roman,serif" font-size="24.00">value: g</text>
</g>
<!-- 34742976&#45;&gt;34316512 -->
<g id="edge19" class="edge"><title>34742976&#45;&gt;34316512</title>
<path fill="none" stroke="black" d="M1281.71,-508.731C1343.6,-544.52 1434.91,-597.32 1502.1,-636.173"/>
<polygon fill="black" stroke="black" points="1500.59,-639.343 1511,-641.319 1504.1,-633.283 1500.59,-639.343"/>
</g>
<!-- 34742976&#45;&gt;36780592 -->
<g id="edge21" class="edge"><title>34742976&#45;&gt;36780592</title>
<path fill="none" stroke="black" d="M1306.85,-501.485C1322.22,-506.521 1338.01,-511.53 1353,-516 1405.89,-531.776 1466.06,-547.489 1512.53,-559.15"/>
<polygon fill="black" stroke="black" points="1511.69,-562.545 1522.24,-561.575 1513.38,-555.754 1511.69,-562.545"/>
</g>
<!-- 34511968 -->
<g id="node21" class="node"><title>34511968</title>
<ellipse fill="#8f8f8f" stroke="black" cx="1713" cy="-469" rx="131.022" ry="46.669"/>
<text text-anchor="middle" x="1713" y="-476.4" font-family="Times Roman,serif" font-size="24.00">exp: (quote g)</text>
<text text-anchor="middle" x="1713" y="-447.4" font-family="Times Roman,serif" font-size="24.00">value: g</text>
</g>
<!-- 34511968&#45;&gt;34316512 -->
<g id="edge23" class="edge"><title>34511968&#45;&gt;34316512</title>
<path fill="none" stroke="black" d="M1711.15,-515.724C1708.31,-543.025 1701.58,-577.257 1686,-604 1679.79,-614.664 1671.69,-624.636 1662.84,-633.708"/>
<polygon fill="black" stroke="black" points="1660.31,-631.292 1655.6,-640.786 1665.2,-636.297 1660.31,-631.292"/>
</g>
<!-- 34511968&#45;&gt;36780592 -->
<g id="edge25" class="edge"><title>34511968&#45;&gt;36780592</title>
<path fill="none" stroke="black" d="M1664.03,-512.393C1651.17,-523.789 1637.55,-535.861 1625.54,-546.501"/>
<polygon fill="black" stroke="black" points="1623.07,-544.013 1617.91,-553.265 1627.72,-549.252 1623.07,-544.013"/>
</g>
<!-- 25372240 -->
<g id="node24" class="node"><title>25372240</title>
<ellipse fill="none" stroke="black" cx="2016" cy="-339" rx="62.9325" ry="18.3848"/>
<text text-anchor="middle" x="2016" y="-335.4" font-family="Times Roman,serif" font-size="14.00">25372240</text>
</g>
<!-- 25372240&#45;&gt;34610800 -->
<g id="edge11" class="edge"><title>25372240&#45;&gt;34610800</title>
<path fill="none" stroke="black" d="M2016,-357.626C2016,-371.974 2016,-392.614 2016,-412.236"/>
<polygon fill="black" stroke="black" points="2012.5,-412.365 2016,-422.365 2019.5,-412.365 2012.5,-412.365"/>
</g>
<!-- 27994928 -->
<g id="node37" class="node"><title>27994928</title>
<ellipse fill="none" stroke="black" cx="580" cy="-339" rx="62.9325" ry="18.3848"/>
<text text-anchor="middle" x="580" y="-335.4" font-family="Times Roman,serif" font-size="14.00">27994928</text>
</g>
<!-- 27994928&#45;&gt;35744608 -->
<g id="edge35" class="edge"><title>27994928&#45;&gt;35744608</title>
<path fill="none" stroke="black" d="M580,-357.626C580,-371.974 580,-392.614 580,-412.236"/>
<polygon fill="black" stroke="black" points="576.5,-412.365 580,-422.365 583.5,-412.365 576.5,-412.365"/>
</g>
<!-- 34208304 -->
<g id="node47" class="node"><title>34208304</title>
<ellipse fill="none" stroke="black" cx="1053" cy="-19" rx="62.9325" ry="18.3848"/>
<text text-anchor="middle" x="1053" y="-15.4" font-family="Times Roman,serif" font-size="14.00">34208304</text>
</g>
<!-- 34208304&#45;&gt;34434816 -->
<g id="edge53" class="edge"><title>34208304&#45;&gt;34434816</title>
<path fill="none" stroke="black" d="M1053,-37.7084C1053,-45.3917 1053,-54.7362 1053,-64.3518"/>
<polygon fill="black" stroke="black" points="1049.5,-64.4121 1053,-74.4121 1056.5,-64.4122 1049.5,-64.4121"/>
</g>
</g>
</svg>
