<?xml version="1.0" encoding="UTF-8" standalone="no"?>
<!DOCTYPE svg PUBLIC "-//W3C//DTD SVG 1.1//EN"
 "http://www.w3.org/Graphics/SVG/1.1/DTD/svg11.dtd">
<!-- Generated by graphviz version 2.26.3 (20100126.1600)
 -->
<!-- Title: _anonymous_0 Pages: 1 -->
<svg width="362pt" height="764pt"
 viewBox="0.00 0.00 362.48 764.00" xmlns="http://www.w3.org/2000/svg" xmlns:xlink="http://www.w3.org/1999/xlink">
<g id="graph1" class="graph" transform="scale(1 1) rotate(0) translate(4 760)">
<title>_anonymous_0</title>
<polygon fill="white" stroke="white" points="-4,5 -4,-760 359.477,-760 359.477,5 -4,5"/>
<!-- 52093376 -->
<g id="node3" class="node"><title>52093376</title>
<ellipse fill="#8f8f8f" stroke="black" cx="194" cy="-162" rx="27" ry="18"/>
</g>
<!-- 51507648 -->
<g id="node12" class="node"><title>51507648</title>
<ellipse fill="#8f8f8f" stroke="black" cx="239" cy="-234" rx="27" ry="18"/>
</g>
<!-- 52093376&#45;&gt;51507648 -->
<g id="edge16" class="edge"><title>52093376&#45;&gt;51507648</title>
<path fill="none" stroke="black" d="M204.437,-178.699C209.923,-187.478 216.769,-198.43 222.916,-208.266"/>
<polygon fill="black" stroke="black" points="220.039,-210.266 228.307,-216.891 225.975,-206.556 220.039,-210.266"/>
</g>
<!-- 53523952 -->
<g id="node20" class="node"><title>53523952</title>
<ellipse fill="#8f8f8f" stroke="black" cx="99" cy="-594" rx="27" ry="18"/>
</g>
<!-- 52093376&#45;&gt;53523952 -->
<g id="edge32" class="edge"><title>52093376&#45;&gt;53523952</title>
<path fill="none" stroke="black" d="M174.232,-174.354C160.241,-184.064 142.068,-198.797 131,-216 108.472,-251.015 105,-264.364 105,-306 105,-306 105,-306 105,-450 105,-490.159 102.642,-536.563 100.882,-565.597"/>
<polygon fill="black" stroke="black" points="97.3736,-565.626 100.243,-575.825 104.36,-566.062 97.3736,-565.626"/>
</g>
<!-- 52055632 -->
<g id="node4" class="node"><title>52055632</title>
<ellipse fill="#8f8f8f" stroke="black" cx="167" cy="-90" rx="27" ry="18"/>
</g>
<!-- 52055632&#45;&gt;52093376 -->
<g id="edge70" class="edge"><title>52055632&#45;&gt;52093376</title>
<path fill="none" stroke="black" d="M173.674,-107.798C176.748,-115.994 180.462,-125.898 183.87,-134.985"/>
<polygon fill="black" stroke="black" points="180.614,-136.273 187.403,-144.407 187.168,-133.815 180.614,-136.273"/>
</g>
<!-- 52544224 -->
<g id="node5" class="node"><title>52544224</title>
<ellipse fill="#8f8f8f" stroke="black" cx="114" cy="-18" rx="27" ry="18"/>
</g>
<!-- 52544224&#45;&gt;52093376 -->
<g id="edge58" class="edge"><title>52544224&#45;&gt;52093376</title>
<path fill="none" stroke="black" d="M113.962,-36.1202C114.679,-55.212 118.022,-85.5642 131,-108 139.322,-122.387 152.939,-134.774 165.388,-144.042"/>
<polygon fill="black" stroke="black" points="163.555,-147.032 173.741,-149.946 167.595,-141.316 163.555,-147.032"/>
</g>
<!-- 52544224&#45;&gt;52055632 -->
<g id="edge60" class="edge"><title>52544224&#45;&gt;52055632</title>
<path fill="none" stroke="black" d="M126.027,-34.3379C132.803,-43.5436 141.401,-55.2236 148.969,-65.5047"/>
<polygon fill="black" stroke="black" points="146.274,-67.7482 155.021,-73.7267 151.912,-63.5985 146.274,-67.7482"/>
</g>
<!-- 53241904 -->
<g id="node6" class="node"><title>53241904</title>
<ellipse fill="#8f8f8f" stroke="black" cx="187" cy="-18" rx="27" ry="18"/>
</g>
<!-- 53241904&#45;&gt;52093376 -->
<g id="edge62" class="edge"><title>53241904&#45;&gt;52093376</title>
<path fill="none" stroke="black" d="M193.653,-35.7104C197.204,-46.1139 201.204,-59.6139 203,-72 206,-92.6881 203.447,-116.198 200.304,-134"/>
<polygon fill="black" stroke="black" points="196.83,-133.531 198.369,-144.013 203.702,-134.859 196.83,-133.531"/>
</g>
<!-- 53241904&#45;&gt;52055632 -->
<g id="edge64" class="edge"><title>53241904&#45;&gt;52055632</title>
<path fill="none" stroke="black" d="M182.056,-35.7978C179.821,-43.8459 177.127,-53.5412 174.641,-62.4933"/>
<polygon fill="black" stroke="black" points="171.26,-61.5855 171.956,-72.1575 178.005,-63.459 171.26,-61.5855"/>
</g>
<!-- 51199488 -->
<g id="node7" class="node"><title>51199488</title>
<ellipse fill="#8f8f8f" stroke="black" cx="259" cy="-18" rx="27" ry="18"/>
</g>
<!-- 51199488&#45;&gt;52093376 -->
<g id="edge66" class="edge"><title>51199488&#45;&gt;52093376</title>
<path fill="none" stroke="black" d="M251.159,-35.3698C239.935,-60.2362 219.191,-106.193 206.02,-135.371"/>
<polygon fill="black" stroke="black" points="202.792,-134.014 201.868,-144.569 209.173,-136.894 202.792,-134.014"/>
</g>
<!-- 51199488&#45;&gt;52055632 -->
<g id="edge68" class="edge"><title>51199488&#45;&gt;52055632</title>
<path fill="none" stroke="black" d="M241.261,-31.8823C227.516,-42.6398 208.273,-57.6991 192.82,-69.7928"/>
<polygon fill="black" stroke="black" points="190.402,-67.2409 184.684,-76.1603 194.716,-72.7534 190.402,-67.2409"/>
</g>
<!-- 44802352 -->
<g id="node9" class="node"><title>44802352</title>
<ellipse fill="#8f8f8f" stroke="black" cx="277" cy="-378" rx="27" ry="18"/>
</g>
<!-- 51311168 -->
<g id="node15" class="node"><title>51311168</title>
<ellipse fill="#8f8f8f" stroke="black" cx="302" cy="-450" rx="27" ry="18"/>
</g>
<!-- 44802352&#45;&gt;51311168 -->
<g id="edge48" class="edge"><title>44802352&#45;&gt;51311168</title>
<path fill="none" stroke="black" d="M283.18,-395.798C285.995,-403.906 289.391,-413.687 292.519,-422.695"/>
<polygon fill="black" stroke="black" points="289.305,-424.108 295.891,-432.407 295.917,-421.812 289.305,-424.108"/>
</g>
<!-- 51808576 -->
<g id="node10" class="node"><title>51808576</title>
<ellipse fill="#8f8f8f" stroke="black" cx="222" cy="-306" rx="27" ry="18"/>
</g>
<!-- 51808576&#45;&gt;44802352 -->
<g id="edge22" class="edge"><title>51808576&#45;&gt;44802352</title>
<path fill="none" stroke="black" d="M234.48,-322.338C241.512,-331.544 250.435,-343.224 258.288,-353.505"/>
<polygon fill="black" stroke="black" points="255.717,-355.905 264.569,-361.727 261.28,-351.655 255.717,-355.905"/>
</g>
<!-- 51254864 -->
<g id="node11" class="node"><title>51254864</title>
<ellipse fill="#8f8f8f" stroke="black" cx="167" cy="-234" rx="27" ry="18"/>
</g>
<!-- 51254864&#45;&gt;44802352 -->
<g id="edge8" class="edge"><title>51254864&#45;&gt;44802352</title>
<path fill="none" stroke="black" d="M166.688,-252.267C167.24,-271.762 170.748,-302.71 186,-324 200.067,-343.636 223.69,-357.346 243.341,-366.038"/>
<polygon fill="black" stroke="black" points="242.033,-369.285 252.61,-369.906 244.729,-362.825 242.033,-369.285"/>
</g>
<!-- 51254864&#45;&gt;51808576 -->
<g id="edge10" class="edge"><title>51254864&#45;&gt;51808576</title>
<path fill="none" stroke="black" d="M179.48,-250.338C186.512,-259.544 195.435,-271.224 203.288,-281.505"/>
<polygon fill="black" stroke="black" points="200.717,-283.905 209.569,-289.727 206.28,-279.655 200.717,-283.905"/>
</g>
<!-- 51507648&#45;&gt;44802352 -->
<g id="edge12" class="edge"><title>51507648&#45;&gt;44802352</title>
<path fill="none" stroke="black" d="M245.926,-251.813C249.818,-262.251 254.568,-275.751 258,-288 263.736,-308.471 268.644,-331.989 272.035,-349.849"/>
<polygon fill="black" stroke="black" points="268.634,-350.708 273.897,-359.903 275.517,-349.433 268.634,-350.708"/>
</g>
<!-- 51507648&#45;&gt;51808576 -->
<g id="edge14" class="edge"><title>51507648&#45;&gt;51808576</title>
<path fill="none" stroke="black" d="M234.798,-251.798C232.918,-259.759 230.658,-269.333 228.563,-278.204"/>
<polygon fill="black" stroke="black" points="225.104,-277.621 226.213,-288.157 231.917,-279.229 225.104,-277.621"/>
</g>
<!-- 51110384 -->
<g id="node13" class="node"><title>51110384</title>
<ellipse fill="#8f8f8f" stroke="black" cx="313" cy="-234" rx="27" ry="18"/>
</g>
<!-- 51110384&#45;&gt;44802352 -->
<g id="edge18" class="edge"><title>51110384&#45;&gt;44802352</title>
<path fill="none" stroke="black" d="M308.691,-251.948C304.308,-270.126 297.285,-299.043 291,-324 288.848,-332.546 286.457,-341.84 284.268,-350.27"/>
<polygon fill="black" stroke="black" points="280.863,-349.457 281.729,-360.016 287.637,-351.221 280.863,-349.457"/>
</g>
<!-- 51110384&#45;&gt;51808576 -->
<g id="edge20" class="edge"><title>51110384&#45;&gt;51808576</title>
<path fill="none" stroke="black" d="M295.454,-247.882C281.858,-258.64 262.825,-273.699 247.54,-285.793"/>
<polygon fill="black" stroke="black" points="245.162,-283.211 239.492,-292.16 249.506,-288.7 245.162,-283.211"/>
</g>
<!-- 51082384 -->
<g id="node26" class="node"><title>51082384</title>
<ellipse fill="#8f8f8f" stroke="black" cx="315" cy="-522" rx="27" ry="18"/>
</g>
<!-- 51311168&#45;&gt;51082384 -->
<g id="edge54" class="edge"><title>51311168&#45;&gt;51082384</title>
<path fill="none" stroke="black" d="M305.28,-468.169C306.692,-475.988 308.375,-485.308 309.94,-493.978"/>
<polygon fill="black" stroke="black" points="306.544,-494.868 311.766,-504.087 313.433,-493.624 306.544,-494.868"/>
</g>
<!-- 51194512 -->
<g id="node17" class="node"><title>51194512</title>
<ellipse fill="gold" stroke="black" cx="177" cy="-738" rx="27" ry="18"/>
</g>
<!-- 53546816 -->
<g id="node18" class="node"><title>53546816</title>
<ellipse fill="#8f8f8f" stroke="black" cx="150" cy="-666" rx="27" ry="18"/>
</g>
<!-- 53546816&#45;&gt;51194512 -->
<g id="edge42" class="edge"><title>53546816&#45;&gt;51194512</title>
<path fill="none" stroke="black" d="M156.674,-683.798C159.748,-691.994 163.462,-701.898 166.87,-710.985"/>
<polygon fill="black" stroke="black" points="163.614,-712.273 170.403,-720.407 170.168,-709.815 163.614,-712.273"/>
</g>
<!-- 51810736 -->
<g id="node24" class="node"><title>51810736</title>
<ellipse fill="firebrick" stroke="black" cx="315" cy="-666" rx="27" ry="18"/>
</g>
<!-- 53546816&#45;&gt;51810736 -->
<g id="edge46" class="edge"><title>53546816&#45;&gt;51810736</title>
<path fill="none" stroke="black" stroke-dasharray="1,5" d="M177.07,-666C210.517,-666 243.964,-666 277.411,-666"/>
<polygon fill="black" stroke="black" points="277.791,-669.5 287.791,-666 277.791,-662.5 277.791,-669.5"/>
</g>
<!-- 51481088 -->
<g id="node19" class="node"><title>51481088</title>
<ellipse fill="#8f8f8f" stroke="black" cx="27" cy="-594" rx="27" ry="18"/>
</g>
<!-- 51481088&#45;&gt;51194512 -->
<g id="edge24" class="edge"><title>51481088&#45;&gt;51194512</title>
<path fill="none" stroke="black" d="M37.9699,-610.845C50.8963,-629.927 73.7095,-661.315 98,-684 113.022,-698.029 131.975,-711.11 147.551,-720.883"/>
<polygon fill="black" stroke="black" points="145.923,-723.99 156.277,-726.237 149.584,-718.024 145.923,-723.99"/>
</g>
<!-- 51481088&#45;&gt;53546816 -->
<g id="edge26" class="edge"><title>51481088&#45;&gt;53546816</title>
<path fill="none" stroke="black" d="M47.3109,-605.889C67.3412,-617.614 98.1596,-635.654 120.811,-648.914"/>
<polygon fill="black" stroke="black" points="119.261,-652.062 129.659,-654.093 122.797,-646.021 119.261,-652.062"/>
</g>
<!-- 53523952&#45;&gt;51194512 -->
<g id="edge28" class="edge"><title>53523952&#45;&gt;51194512</title>
<path fill="none" stroke="black" d="M98.4774,-612.1C98.7008,-631.174 101.313,-661.512 114,-684 122.167,-698.476 135.769,-710.872 148.248,-720.122"/>
<polygon fill="black" stroke="black" points="146.433,-723.125 156.627,-726.011 150.458,-717.398 146.433,-723.125"/>
</g>
<!-- 53523952&#45;&gt;53546816 -->
<g id="edge30" class="edge"><title>53523952&#45;&gt;53546816</title>
<path fill="none" stroke="black" d="M110.573,-610.338C116.937,-619.323 124.972,-630.666 132.124,-640.764"/>
<polygon fill="black" stroke="black" points="129.483,-643.09 138.119,-649.227 135.195,-639.044 129.483,-643.09"/>
</g>
<!-- 53551152 -->
<g id="node21" class="node"><title>53551152</title>
<ellipse fill="#8f8f8f" stroke="black" cx="171" cy="-594" rx="27" ry="18"/>
</g>
<!-- 53551152&#45;&gt;51194512 -->
<g id="edge34" class="edge"><title>53551152&#45;&gt;51194512</title>
<path fill="none" stroke="black" d="M177.238,-611.745C180.568,-622.16 184.318,-635.66 186,-648 188.823,-668.713 186.277,-692.221 183.181,-710.017"/>
<polygon fill="black" stroke="black" points="179.708,-709.548 181.279,-720.026 186.585,-710.855 179.708,-709.548"/>
</g>
<!-- 53551152&#45;&gt;53546816 -->
<g id="edge36" class="edge"><title>53551152&#45;&gt;53546816</title>
<path fill="none" stroke="black" d="M165.809,-611.798C163.462,-619.846 160.634,-629.541 158.023,-638.493"/>
<polygon fill="black" stroke="black" points="154.644,-637.577 155.204,-648.157 161.364,-639.537 154.644,-637.577"/>
</g>
<!-- 53544432 -->
<g id="node22" class="node"><title>53544432</title>
<ellipse fill="#8f8f8f" stroke="black" cx="243" cy="-594" rx="27" ry="18"/>
</g>
<!-- 53544432&#45;&gt;51194512 -->
<g id="edge38" class="edge"><title>53544432&#45;&gt;51194512</title>
<path fill="none" stroke="black" d="M235.039,-611.37C223.642,-636.236 202.578,-682.193 189.205,-711.371"/>
<polygon fill="black" stroke="black" points="185.974,-710.02 184.989,-720.569 192.338,-712.936 185.974,-710.02"/>
</g>
<!-- 53544432&#45;&gt;53546816 -->
<g id="edge40" class="edge"><title>53544432&#45;&gt;53546816</title>
<path fill="none" stroke="black" d="M225.069,-607.882C211.174,-618.64 191.722,-633.699 176.101,-645.793"/>
<polygon fill="black" stroke="black" points="173.641,-643.271 167.876,-652.16 177.926,-648.806 173.641,-643.271"/>
</g>
<!-- 51810736&#45;&gt;51194512 -->
<g id="edge44" class="edge"><title>51810736&#45;&gt;51194512</title>
<path fill="none" stroke="black" d="M293.438,-677.25C270.348,-689.297 233.521,-708.511 207.474,-722.1"/>
<polygon fill="black" stroke="black" points="205.658,-719.1 198.411,-726.829 208.896,-725.306 205.658,-719.1"/>
</g>
<!-- 51358032 -->
<g id="node25" class="node"><title>51358032</title>
<ellipse fill="#8f8f8f" stroke="black" cx="315" cy="-594" rx="27" ry="18"/>
</g>
<!-- 51358032&#45;&gt;51810736 -->
<g id="edge56" class="edge"><title>51358032&#45;&gt;51810736</title>
<path fill="none" stroke="black" d="M315,-612.169C315,-619.869 315,-629.026 315,-637.583"/>
<polygon fill="black" stroke="black" points="311.5,-637.587 315,-647.587 318.5,-637.587 311.5,-637.587"/>
</g>
<!-- 51082384&#45;&gt;51810736 -->
<g id="edge50" class="edge"><title>51082384&#45;&gt;51810736</title>
<path fill="none" stroke="black" d="M329.123,-537.716C337.253,-547.853 346.69,-561.765 351,-576 355.637,-591.313 355.637,-596.687 351,-612 347.734,-622.787 341.524,-633.389 335.169,-642.304"/>
<polygon fill="black" stroke="black" points="332.372,-640.2 329.123,-650.284 337.951,-644.427 332.372,-640.2"/>
</g>
<!-- 51082384&#45;&gt;51358032 -->
<g id="edge52" class="edge"><title>51082384&#45;&gt;51358032</title>
<path fill="none" stroke="black" d="M315,-540.169C315,-547.869 315,-557.026 315,-565.583"/>
<polygon fill="black" stroke="black" points="311.5,-565.587 315,-575.587 318.5,-565.587 311.5,-565.587"/>
</g>
</g>
</svg>
