<?xml version="1.0" encoding="UTF-8" standalone="no"?>
<!DOCTYPE svg PUBLIC "-//W3C//DTD SVG 1.1//EN"
 "http://www.w3.org/Graphics/SVG/1.1/DTD/svg11.dtd">
<!-- Generated by graphviz version 2.26.3 (20100126.1600)
 -->
<!-- Title: _anonymous_0 Pages: 1 -->
<svg width="3678pt" height="1226pt"
 viewBox="0.00 0.00 3678.00 1226.00" xmlns="http://www.w3.org/2000/svg" xmlns:xlink="http://www.w3.org/1999/xlink">
<g id="graph1" class="graph" transform="scale(1 1) rotate(0) translate(4 1222)">
<title>_anonymous_0</title>
<polygon fill="white" stroke="white" points="-4,5 -4,-1222 3675,-1222 3675,5 -4,5"/>
<g id="graph2" class="cluster"><title>cluster1</title>
<polygon fill="none" stroke="black" points="134,-46 134,-1210 3662,-1210 3662,-46 134,-46"/>
<text text-anchor="middle" x="1898" y="-57.4" font-family="Times Roman,serif" font-size="24.00">Venture Families</text>
</g>
<g id="graph3" class="cluster"><title>cluster2</title>
<polygon fill="none" stroke="black" points="1639,-91 1639,-456 2321,-456 2321,-91 1639,-91"/>
<text text-anchor="middle" x="1980" y="-102.4" font-family="Times Roman,serif" font-size="24.00">1</text>
</g>
<g id="graph4" class="cluster"><title>cluster3</title>
<polygon fill="none" stroke="black" points="971,-464 971,-829 2169,-829 2169,-464 971,-464"/>
<text text-anchor="middle" x="1570" y="-475.4" font-family="Times Roman,serif" font-size="24.00">2</text>
</g>
<g id="graph5" class="cluster"><title>cluster4</title>
<polygon fill="none" stroke="black" points="142,-837 142,-1202 574,-1202 574,-837 142,-837"/>
<text text-anchor="middle" x="358" y="-848.4" font-family="Times Roman,serif" font-size="24.00">3</text>
</g>
<g id="graph6" class="cluster"><title>cluster5</title>
<polygon fill="none" stroke="black" points="582,-837 582,-1202 1014,-1202 1014,-837 582,-837"/>
<text text-anchor="middle" x="798" y="-848.4" font-family="Times Roman,serif" font-size="24.00">4</text>
</g>
<g id="graph7" class="cluster"><title>cluster6</title>
<polygon fill="none" stroke="black" points="1022,-837 1022,-1202 1454,-1202 1454,-837 1022,-837"/>
<text text-anchor="middle" x="1238" y="-848.4" font-family="Times Roman,serif" font-size="24.00">5</text>
</g>
<g id="graph8" class="cluster"><title>cluster7</title>
<polygon fill="none" stroke="black" points="1462,-837 1462,-1202 1894,-1202 1894,-837 1462,-837"/>
<text text-anchor="middle" x="1678" y="-848.4" font-family="Times Roman,serif" font-size="24.00">6</text>
</g>
<g id="graph9" class="cluster"><title>cluster8</title>
<polygon fill="none" stroke="black" points="1902,-837 1902,-1202 2334,-1202 2334,-837 1902,-837"/>
<text text-anchor="middle" x="2118" y="-848.4" font-family="Times Roman,serif" font-size="24.00">7</text>
</g>
<g id="graph10" class="cluster"><title>cluster9</title>
<polygon fill="none" stroke="black" points="2342,-837 2342,-1202 2774,-1202 2774,-837 2342,-837"/>
<text text-anchor="middle" x="2558" y="-848.4" font-family="Times Roman,serif" font-size="24.00">8</text>
</g>
<g id="graph11" class="cluster"><title>cluster10</title>
<polygon fill="none" stroke="black" points="2782,-837 2782,-1202 3214,-1202 3214,-837 2782,-837"/>
<text text-anchor="middle" x="2998" y="-848.4" font-family="Times Roman,serif" font-size="24.00">9</text>
</g>
<g id="graph12" class="cluster"><title>cluster11</title>
<polygon fill="none" stroke="black" points="3222,-837 3222,-1202 3654,-1202 3654,-837 3222,-837"/>
<text text-anchor="middle" x="3438" y="-848.4" font-family="Times Roman,serif" font-size="24.00">10</text>
</g>
<!-- 36305200 -->
<g id="node3" class="node"><title>36305200</title>
<ellipse fill="dodgerblue" stroke="black" cx="2001" cy="-401" rx="241.123" ry="46.669"/>
<text text-anchor="middle" x="2001" y="-408.4" font-family="Times Roman,serif" font-size="24.00">exp: (snormal 100.000000)</text>
<text text-anchor="middle" x="2001" y="-379.4" font-family="Times Roman,serif" font-size="24.00">value: 99.683107</text>
</g>
<!-- 28358400 -->
<g id="node11" class="node"><title>28358400</title>
<ellipse fill="khaki" stroke="black" cx="2001" cy="-556" rx="159.806" ry="46.669"/>
<text text-anchor="middle" x="2001" y="-563.4" font-family="Times Roman,serif" font-size="24.00">exp: alpha</text>
<text text-anchor="middle" x="2001" y="-534.4" font-family="Times Roman,serif" font-size="24.00">value: 99.683107</text>
</g>
<!-- 36305200&#45;&gt;28358400 -->
<g id="edge23" class="edge"><title>36305200&#45;&gt;28358400</title>
<path fill="none" stroke="black" d="M2001,-447.505C2001,-463.677 2001,-482.005 2001,-498.933"/>
<polygon fill="black" stroke="black" points="1997.5,-499.26 2001,-509.26 2004.5,-499.26 1997.5,-499.26"/>
</g>
<!-- 39687808 -->
<g id="node4" class="node"><title>39687808</title>
<ellipse fill="#6e8b3d" stroke="black" cx="2001" cy="-292" rx="99.9096" ry="26.163"/>
<text text-anchor="middle" x="2001" y="-284.9" font-family="Times Roman,serif" font-size="24.00">request: []</text>
</g>
<!-- 39687808&#45;&gt;36305200 -->
<g id="edge97" class="edge"><title>39687808&#45;&gt;36305200</title>
<path fill="none" stroke="black" d="M2001,-318.108C2001,-325.979 2001,-334.946 2001,-344.005"/>
<polygon fill="black" stroke="black" points="1997.5,-344.218 2001,-354.218 2004.5,-344.218 1997.5,-344.218"/>
</g>
<!-- 39664544 -->
<g id="node5" class="node"><title>39664544</title>
<ellipse fill="khaki" stroke="black" cx="2159" cy="-183" rx="154.149" ry="46.669"/>
<text text-anchor="middle" x="2159" y="-190.4" font-family="Times Roman,serif" font-size="24.00">exp: snormal</text>
<text text-anchor="middle" x="2159" y="-161.4" font-family="Times Roman,serif" font-size="24.00">value: sp:normal</text>
</g>
<!-- 39664544&#45;&gt;36305200 -->
<g id="edge87" class="edge"><title>39664544&#45;&gt;36305200</title>
<path fill="none" stroke="black" d="M2149.12,-229.623C2141.63,-257.217 2129.28,-291.787 2110,-318 2101.47,-329.599 2090.88,-340.353 2079.68,-350.014"/>
<polygon fill="black" stroke="black" points="2077.3,-347.44 2071.85,-356.524 2081.78,-352.823 2077.3,-347.44"/>
</g>
<!-- 39664544&#45;&gt;39687808 -->
<g id="edge89" class="edge"><title>39664544&#45;&gt;39687808</title>
<path fill="none" stroke="black" d="M2097.01,-225.767C2079.65,-237.744 2061.14,-250.514 2045.05,-261.614"/>
<polygon fill="black" stroke="black" points="2042.62,-259.033 2036.38,-267.592 2046.6,-264.795 2042.62,-259.033"/>
</g>
<!-- 37525184 -->
<g id="node6" class="node"><title>37525184</title>
<ellipse fill="#eead0e" stroke="black" cx="1817" cy="-183" rx="169.913" ry="46.669"/>
<text text-anchor="middle" x="1817" y="-190.4" font-family="Times Roman,serif" font-size="24.00">exp: 100.000000</text>
<text text-anchor="middle" x="1817" y="-161.4" font-family="Times Roman,serif" font-size="24.00">value: 100.000000</text>
</g>
<!-- 37525184&#45;&gt;36305200 -->
<g id="edge93" class="edge"><title>37525184&#45;&gt;36305200</title>
<path fill="none" stroke="black" d="M1836.89,-229.45C1850.06,-256.982 1869.1,-291.547 1892,-318 1901.83,-329.359 1913.45,-340.165 1925.37,-350"/>
<polygon fill="black" stroke="black" points="1923.25,-352.783 1933.23,-356.319 1927.63,-347.326 1923.25,-352.783"/>
</g>
<!-- 37525184&#45;&gt;39687808 -->
<g id="edge95" class="edge"><title>37525184&#45;&gt;39687808</title>
<path fill="none" stroke="black" d="M1888.4,-225.298C1909.69,-237.909 1932.53,-251.438 1952.03,-262.993"/>
<polygon fill="black" stroke="black" points="1950.36,-266.067 1960.74,-268.153 1953.92,-260.045 1950.36,-266.067"/>
</g>
<!-- 31055760 -->
<g id="node8" class="node"><title>31055760</title>
<ellipse fill="dodgerblue" stroke="black" cx="1678" cy="-774" rx="372.145" ry="46.669"/>
<text text-anchor="middle" x="1678" y="-781.4" font-family="Times Roman,serif" font-size="24.00">exp: (make_sym_dir_mult alpha 2.000000)</text>
<text text-anchor="middle" x="1678" y="-752.4" font-family="Times Roman,serif" font-size="24.00">value: sp:sym_dir_mult</text>
</g>
<!-- 38700016 -->
<g id="node16" class="node"><title>38700016</title>
<ellipse fill="khaki" stroke="black" cx="358" cy="-929" rx="208.096" ry="46.669"/>
<text text-anchor="middle" x="358" y="-936.4" font-family="Times Roman,serif" font-size="24.00">exp: f</text>
<text text-anchor="middle" x="358" y="-907.4" font-family="Times Roman,serif" font-size="24.00">value: sp:sym_dir_mult</text>
</g>
<!-- 31055760&#45;&gt;38700016 -->
<g id="edge67" class="edge"><title>31055760&#45;&gt;38700016</title>
<path fill="none" stroke="black" d="M1311.09,-781.748C1046.35,-789.847 712.786,-805.917 578,-837 534.584,-847.012 488.791,-864.866 450.292,-882.198"/>
<polygon fill="black" stroke="black" points="448.826,-879.02 441.178,-886.352 451.729,-885.389 448.826,-879.02"/>
</g>
<!-- 33092592 -->
<g id="node20" class="node"><title>33092592</title>
<ellipse fill="khaki" stroke="black" cx="798" cy="-929" rx="208.096" ry="46.669"/>
<text text-anchor="middle" x="798" y="-936.4" font-family="Times Roman,serif" font-size="24.00">exp: f</text>
<text text-anchor="middle" x="798" y="-907.4" font-family="Times Roman,serif" font-size="24.00">value: sp:sym_dir_mult</text>
</g>
<!-- 31055760&#45;&gt;33092592 -->
<g id="edge75" class="edge"><title>31055760&#45;&gt;33092592</title>
<path fill="none" stroke="black" d="M1350.62,-796.101C1217.97,-806.964 1081.29,-821.134 1018,-837 975.52,-847.649 930.581,-865.207 892.47,-882.145"/>
<polygon fill="black" stroke="black" points="890.618,-879.14 882.934,-886.433 893.489,-885.524 890.618,-879.14"/>
</g>
<!-- 31328816 -->
<g id="node24" class="node"><title>31328816</title>
<ellipse fill="khaki" stroke="black" cx="1238" cy="-929" rx="208.096" ry="46.669"/>
<text text-anchor="middle" x="1238" y="-936.4" font-family="Times Roman,serif" font-size="24.00">exp: f</text>
<text text-anchor="middle" x="1238" y="-907.4" font-family="Times Roman,serif" font-size="24.00">value: sp:sym_dir_mult</text>
</g>
<!-- 31055760&#45;&gt;31328816 -->
<g id="edge83" class="edge"><title>31055760&#45;&gt;31328816</title>
<path fill="none" stroke="black" d="M1521.94,-816.234C1500.33,-822.794 1478.52,-829.797 1458,-837 1419.02,-850.68 1377,-867.674 1340.23,-883.321"/>
<polygon fill="black" stroke="black" points="1338.82,-880.117 1331,-887.267 1341.57,-886.554 1338.82,-880.117"/>
</g>
<!-- 31341232 -->
<g id="node28" class="node"><title>31341232</title>
<ellipse fill="khaki" stroke="black" cx="1678" cy="-929" rx="208.096" ry="46.669"/>
<text text-anchor="middle" x="1678" y="-936.4" font-family="Times Roman,serif" font-size="24.00">exp: f</text>
<text text-anchor="middle" x="1678" y="-907.4" font-family="Times Roman,serif" font-size="24.00">value: sp:sym_dir_mult</text>
</g>
<!-- 31055760&#45;&gt;31341232 -->
<g id="edge103" class="edge"><title>31055760&#45;&gt;31341232</title>
<path fill="none" stroke="black" d="M1678,-820.505C1678,-836.677 1678,-855.005 1678,-871.933"/>
<polygon fill="black" stroke="black" points="1674.5,-872.26 1678,-882.26 1681.5,-872.26 1674.5,-872.26"/>
</g>
<!-- 32857776 -->
<g id="node32" class="node"><title>32857776</title>
<ellipse fill="khaki" stroke="black" cx="2118" cy="-929" rx="208.096" ry="46.669"/>
<text text-anchor="middle" x="2118" y="-936.4" font-family="Times Roman,serif" font-size="24.00">exp: f</text>
<text text-anchor="middle" x="2118" y="-907.4" font-family="Times Roman,serif" font-size="24.00">value: sp:sym_dir_mult</text>
</g>
<!-- 31055760&#45;&gt;32857776 -->
<g id="edge51" class="edge"><title>31055760&#45;&gt;32857776</title>
<path fill="none" stroke="black" d="M1834.06,-816.234C1855.67,-822.794 1877.48,-829.797 1898,-837 1936.98,-850.68 1979,-867.674 2015.77,-883.321"/>
<polygon fill="black" stroke="black" points="2014.43,-886.554 2025,-887.267 2017.18,-880.117 2014.43,-886.554"/>
</g>
<!-- 31339040 -->
<g id="node36" class="node"><title>31339040</title>
<ellipse fill="khaki" stroke="black" cx="2558" cy="-929" rx="208.096" ry="46.669"/>
<text text-anchor="middle" x="2558" y="-936.4" font-family="Times Roman,serif" font-size="24.00">exp: f</text>
<text text-anchor="middle" x="2558" y="-907.4" font-family="Times Roman,serif" font-size="24.00">value: sp:sym_dir_mult</text>
</g>
<!-- 31055760&#45;&gt;31339040 -->
<g id="edge59" class="edge"><title>31055760&#45;&gt;31339040</title>
<path fill="none" stroke="black" d="M2005.38,-796.101C2138.03,-806.964 2274.71,-821.134 2338,-837 2380.48,-847.649 2425.42,-865.207 2463.53,-882.145"/>
<polygon fill="black" stroke="black" points="2462.51,-885.524 2473.07,-886.433 2465.38,-879.14 2462.51,-885.524"/>
</g>
<!-- 33103552 -->
<g id="node40" class="node"><title>33103552</title>
<ellipse fill="khaki" stroke="black" cx="2998" cy="-929" rx="208.096" ry="46.669"/>
<text text-anchor="middle" x="2998" y="-936.4" font-family="Times Roman,serif" font-size="24.00">exp: f</text>
<text text-anchor="middle" x="2998" y="-907.4" font-family="Times Roman,serif" font-size="24.00">value: sp:sym_dir_mult</text>
</g>
<!-- 31055760&#45;&gt;33103552 -->
<g id="edge43" class="edge"><title>31055760&#45;&gt;33103552</title>
<path fill="none" stroke="black" d="M2044.91,-781.748C2309.65,-789.847 2643.21,-805.917 2778,-837 2821.42,-847.012 2867.21,-864.866 2905.71,-882.198"/>
<polygon fill="black" stroke="black" points="2904.27,-885.389 2914.82,-886.352 2907.17,-879.02 2904.27,-885.389"/>
</g>
<!-- 31289616 -->
<g id="node44" class="node"><title>31289616</title>
<ellipse fill="khaki" stroke="black" cx="3438" cy="-929" rx="208.096" ry="46.669"/>
<text text-anchor="middle" x="3438" y="-936.4" font-family="Times Roman,serif" font-size="24.00">exp: f</text>
<text text-anchor="middle" x="3438" y="-907.4" font-family="Times Roman,serif" font-size="24.00">value: sp:sym_dir_mult</text>
</g>
<!-- 31055760&#45;&gt;31289616 -->
<g id="edge35" class="edge"><title>31055760&#45;&gt;31289616</title>
<path fill="none" stroke="black" d="M2044.57,-782.196C2463.83,-792.642 3106.94,-812.341 3218,-837 3261.68,-846.699 3307.7,-864.608 3346.29,-882.065"/>
<polygon fill="black" stroke="black" points="3344.87,-885.266 3355.42,-886.25 3347.79,-878.902 3344.87,-885.266"/>
</g>
<!-- 38243120 -->
<g id="node9" class="node"><title>38243120</title>
<ellipse fill="#6e8b3d" stroke="black" cx="1678" cy="-665" rx="99.9096" ry="26.163"/>
<text text-anchor="middle" x="1678" y="-657.9" font-family="Times Roman,serif" font-size="24.00">request: []</text>
</g>
<!-- 38243120&#45;&gt;31055760 -->
<g id="edge29" class="edge"><title>38243120&#45;&gt;31055760</title>
<path fill="none" stroke="black" d="M1678,-691.108C1678,-698.979 1678,-707.946 1678,-717.005"/>
<polygon fill="black" stroke="black" points="1674.5,-717.218 1678,-727.218 1681.5,-717.218 1674.5,-717.218"/>
</g>
<!-- 30852832 -->
<g id="node10" class="node"><title>30852832</title>
<ellipse fill="khaki" stroke="black" cx="1559" cy="-556" rx="263.958" ry="46.669"/>
<text text-anchor="middle" x="1559" y="-563.4" font-family="Times Roman,serif" font-size="24.00">exp: make_sym_dir_mult</text>
<text text-anchor="middle" x="1559" y="-534.4" font-family="Times Roman,serif" font-size="24.00">value: sp:make_sym_dir_mult</text>
</g>
<!-- 30852832&#45;&gt;31055760 -->
<g id="edge13" class="edge"><title>30852832&#45;&gt;31055760</title>
<path fill="none" stroke="black" d="M1553.28,-602.716C1552.1,-630.015 1554.49,-664.247 1569,-691 1575.14,-702.33 1583.57,-712.582 1593.04,-721.705"/>
<polygon fill="black" stroke="black" points="1590.71,-724.318 1600.46,-728.46 1595.42,-719.141 1590.71,-724.318"/>
</g>
<!-- 30852832&#45;&gt;38243120 -->
<g id="edge15" class="edge"><title>30852832&#45;&gt;38243120</title>
<path fill="none" stroke="black" d="M1609.12,-601.91C1620.57,-612.397 1632.5,-623.32 1643.14,-633.071"/>
<polygon fill="black" stroke="black" points="1640.9,-635.768 1650.64,-639.942 1645.63,-630.606 1640.9,-635.768"/>
</g>
<!-- 28358400&#45;&gt;31055760 -->
<g id="edge19" class="edge"><title>28358400&#45;&gt;31055760</title>
<path fill="none" stroke="black" d="M1937.57,-598.81C1885.06,-634.252 1810.28,-684.721 1754.46,-722.393"/>
<polygon fill="black" stroke="black" points="1752.35,-719.594 1746.02,-728.09 1756.27,-725.396 1752.35,-719.594"/>
</g>
<!-- 28358400&#45;&gt;38243120 -->
<g id="edge21" class="edge"><title>28358400&#45;&gt;38243120</title>
<path fill="none" stroke="black" d="M1896.58,-591.239C1848.26,-607.545 1792.11,-626.493 1748.82,-641.1"/>
<polygon fill="black" stroke="black" points="1747.59,-637.823 1739.23,-644.337 1749.82,-644.456 1747.59,-637.823"/>
</g>
<!-- 31082928 -->
<g id="node12" class="node"><title>31082928</title>
<ellipse fill="#eead0e" stroke="black" cx="1128" cy="-556" rx="149.2" ry="46.669"/>
<text text-anchor="middle" x="1128" y="-563.4" font-family="Times Roman,serif" font-size="24.00">exp: 2.000000</text>
<text text-anchor="middle" x="1128" y="-534.4" font-family="Times Roman,serif" font-size="24.00">value: 2.000000</text>
</g>
<!-- 31082928&#45;&gt;31055760 -->
<g id="edge25" class="edge"><title>31082928&#45;&gt;31055760</title>
<path fill="none" stroke="black" d="M1220.37,-592.611C1312.64,-629.187 1454.99,-685.608 1556.41,-725.806"/>
<polygon fill="black" stroke="black" points="1555.2,-729.091 1565.79,-729.522 1557.78,-722.584 1555.2,-729.091"/>
</g>
<!-- 31082928&#45;&gt;38243120 -->
<g id="edge27" class="edge"><title>31082928&#45;&gt;38243120</title>
<path fill="none" stroke="black" d="M1232.45,-589.184C1250.21,-594.219 1268.56,-599.044 1286,-603 1383.95,-625.212 1497.44,-642.23 1577.03,-652.768"/>
<polygon fill="black" stroke="black" points="1576.68,-656.252 1587.05,-654.084 1577.59,-649.312 1576.68,-656.252"/>
</g>
<!-- 33936992 -->
<g id="node14" class="node"><title>33936992</title>
<ellipse fill="#8b008b" stroke="black" cx="352" cy="-1147" rx="79.9031" ry="46.669"/>
<text text-anchor="middle" x="352" y="-1154.4" font-family="Times Roman,serif" font-size="24.00">exp: (f)</text>
<text text-anchor="middle" x="352" y="-1125.4" font-family="Times Roman,serif" font-size="24.00">value: 1</text>
</g>
<!-- 36919568 -->
<g id="node15" class="node"><title>36919568</title>
<ellipse fill="#6e8b3d" stroke="black" cx="412" cy="-1038" rx="99.9096" ry="26.163"/>
<text text-anchor="middle" x="412" y="-1030.9" font-family="Times Roman,serif" font-size="24.00">request: []</text>
</g>
<!-- 36919568&#45;&gt;33936992 -->
<g id="edge69" class="edge"><title>36919568&#45;&gt;33936992</title>
<path fill="none" stroke="black" d="M397.781,-1063.83C392.849,-1072.79 387.122,-1083.19 381.423,-1093.55"/>
<polygon fill="black" stroke="black" points="378.198,-1092.15 376.442,-1102.6 384.331,-1095.52 378.198,-1092.15"/>
</g>
<!-- 38700016&#45;&gt;33936992 -->
<g id="edge63" class="edge"><title>38700016&#45;&gt;33936992</title>
<path fill="none" stroke="black" d="M320.847,-974.855C313.514,-986.341 306.889,-999.09 303,-1012 296.334,-1034.13 296.91,-1041.71 303,-1064 305.869,-1074.5 310.447,-1085.03 315.678,-1094.89"/>
<polygon fill="black" stroke="black" points="312.694,-1096.73 320.635,-1103.74 318.8,-1093.31 312.694,-1096.73"/>
</g>
<!-- 38700016&#45;&gt;36919568 -->
<g id="edge65" class="edge"><title>38700016&#45;&gt;36919568</title>
<path fill="none" stroke="black" d="M380.901,-975.226C385.503,-984.515 390.267,-994.133 394.643,-1002.96"/>
<polygon fill="black" stroke="black" points="391.637,-1004.78 399.212,-1012.19 397.909,-1001.67 391.637,-1004.78"/>
</g>
<!-- 33943744 -->
<g id="node18" class="node"><title>33943744</title>
<ellipse fill="#8b008b" stroke="black" cx="792" cy="-1147" rx="79.9031" ry="46.669"/>
<text text-anchor="middle" x="792" y="-1154.4" font-family="Times Roman,serif" font-size="24.00">exp: (f)</text>
<text text-anchor="middle" x="792" y="-1125.4" font-family="Times Roman,serif" font-size="24.00">value: 1</text>
</g>
<!-- 29656560 -->
<g id="node19" class="node"><title>29656560</title>
<ellipse fill="#6e8b3d" stroke="black" cx="852" cy="-1038" rx="99.9096" ry="26.163"/>
<text text-anchor="middle" x="852" y="-1030.9" font-family="Times Roman,serif" font-size="24.00">request: []</text>
</g>
<!-- 29656560&#45;&gt;33943744 -->
<g id="edge77" class="edge"><title>29656560&#45;&gt;33943744</title>
<path fill="none" stroke="black" d="M837.781,-1063.83C832.849,-1072.79 827.122,-1083.19 821.423,-1093.55"/>
<polygon fill="black" stroke="black" points="818.198,-1092.15 816.442,-1102.6 824.331,-1095.52 818.198,-1092.15"/>
</g>
<!-- 33092592&#45;&gt;33943744 -->
<g id="edge71" class="edge"><title>33092592&#45;&gt;33943744</title>
<path fill="none" stroke="black" d="M760.847,-974.855C753.514,-986.341 746.889,-999.09 743,-1012 736.334,-1034.13 736.91,-1041.71 743,-1064 745.869,-1074.5 750.447,-1085.03 755.678,-1094.89"/>
<polygon fill="black" stroke="black" points="752.694,-1096.73 760.635,-1103.74 758.8,-1093.31 752.694,-1096.73"/>
</g>
<!-- 33092592&#45;&gt;29656560 -->
<g id="edge73" class="edge"><title>33092592&#45;&gt;29656560</title>
<path fill="none" stroke="black" d="M820.901,-975.226C825.503,-984.515 830.267,-994.133 834.643,-1002.96"/>
<polygon fill="black" stroke="black" points="831.637,-1004.78 839.212,-1012.19 837.909,-1001.67 831.637,-1004.78"/>
</g>
<!-- 34036272 -->
<g id="node22" class="node"><title>34036272</title>
<ellipse fill="#8b008b" stroke="black" cx="1232" cy="-1147" rx="79.9031" ry="46.669"/>
<text text-anchor="middle" x="1232" y="-1154.4" font-family="Times Roman,serif" font-size="24.00">exp: (f)</text>
<text text-anchor="middle" x="1232" y="-1125.4" font-family="Times Roman,serif" font-size="24.00">value: 1</text>
</g>
<!-- 30415904 -->
<g id="node23" class="node"><title>30415904</title>
<ellipse fill="#6e8b3d" stroke="black" cx="1292" cy="-1038" rx="99.9096" ry="26.163"/>
<text text-anchor="middle" x="1292" y="-1030.9" font-family="Times Roman,serif" font-size="24.00">request: []</text>
</g>
<!-- 30415904&#45;&gt;34036272 -->
<g id="edge85" class="edge"><title>30415904&#45;&gt;34036272</title>
<path fill="none" stroke="black" d="M1277.78,-1063.83C1272.85,-1072.79 1267.12,-1083.19 1261.42,-1093.55"/>
<polygon fill="black" stroke="black" points="1258.2,-1092.15 1256.44,-1102.6 1264.33,-1095.52 1258.2,-1092.15"/>
</g>
<!-- 31328816&#45;&gt;34036272 -->
<g id="edge79" class="edge"><title>31328816&#45;&gt;34036272</title>
<path fill="none" stroke="black" d="M1200.85,-974.855C1193.51,-986.341 1186.89,-999.09 1183,-1012 1176.33,-1034.13 1176.91,-1041.71 1183,-1064 1185.87,-1074.5 1190.45,-1085.03 1195.68,-1094.89"/>
<polygon fill="black" stroke="black" points="1192.69,-1096.73 1200.64,-1103.74 1198.8,-1093.31 1192.69,-1096.73"/>
</g>
<!-- 31328816&#45;&gt;30415904 -->
<g id="edge81" class="edge"><title>31328816&#45;&gt;30415904</title>
<path fill="none" stroke="black" d="M1260.9,-975.226C1265.5,-984.515 1270.27,-994.133 1274.64,-1002.96"/>
<polygon fill="black" stroke="black" points="1271.64,-1004.78 1279.21,-1012.19 1277.91,-1001.67 1271.64,-1004.78"/>
</g>
<!-- 37271520 -->
<g id="node26" class="node"><title>37271520</title>
<ellipse fill="#8b008b" stroke="black" cx="1672" cy="-1147" rx="79.9031" ry="46.669"/>
<text text-anchor="middle" x="1672" y="-1154.4" font-family="Times Roman,serif" font-size="24.00">exp: (f)</text>
<text text-anchor="middle" x="1672" y="-1125.4" font-family="Times Roman,serif" font-size="24.00">value: 1</text>
</g>
<!-- 30868272 -->
<g id="node27" class="node"><title>30868272</title>
<ellipse fill="#6e8b3d" stroke="black" cx="1732" cy="-1038" rx="99.9096" ry="26.163"/>
<text text-anchor="middle" x="1732" y="-1030.9" font-family="Times Roman,serif" font-size="24.00">request: []</text>
</g>
<!-- 30868272&#45;&gt;37271520 -->
<g id="edge105" class="edge"><title>30868272&#45;&gt;37271520</title>
<path fill="none" stroke="black" d="M1717.78,-1063.83C1712.85,-1072.79 1707.12,-1083.19 1701.42,-1093.55"/>
<polygon fill="black" stroke="black" points="1698.2,-1092.15 1696.44,-1102.6 1704.33,-1095.52 1698.2,-1092.15"/>
</g>
<!-- 31341232&#45;&gt;37271520 -->
<g id="edge99" class="edge"><title>31341232&#45;&gt;37271520</title>
<path fill="none" stroke="black" d="M1640.85,-974.855C1633.51,-986.341 1626.89,-999.09 1623,-1012 1616.33,-1034.13 1616.91,-1041.71 1623,-1064 1625.87,-1074.5 1630.45,-1085.03 1635.68,-1094.89"/>
<polygon fill="black" stroke="black" points="1632.69,-1096.73 1640.64,-1103.74 1638.8,-1093.31 1632.69,-1096.73"/>
</g>
<!-- 31341232&#45;&gt;30868272 -->
<g id="edge101" class="edge"><title>31341232&#45;&gt;30868272</title>
<path fill="none" stroke="black" d="M1700.9,-975.226C1705.5,-984.515 1710.27,-994.133 1714.64,-1002.96"/>
<polygon fill="black" stroke="black" points="1711.64,-1004.78 1719.21,-1012.19 1717.91,-1001.67 1711.64,-1004.78"/>
</g>
<!-- 31983280 -->
<g id="node30" class="node"><title>31983280</title>
<ellipse fill="#8b008b" stroke="black" cx="2112" cy="-1147" rx="79.9031" ry="46.669"/>
<text text-anchor="middle" x="2112" y="-1154.4" font-family="Times Roman,serif" font-size="24.00">exp: (f)</text>
<text text-anchor="middle" x="2112" y="-1125.4" font-family="Times Roman,serif" font-size="24.00">value: 1</text>
</g>
<!-- 30881168 -->
<g id="node31" class="node"><title>30881168</title>
<ellipse fill="#6e8b3d" stroke="black" cx="2172" cy="-1038" rx="99.9096" ry="26.163"/>
<text text-anchor="middle" x="2172" y="-1030.9" font-family="Times Roman,serif" font-size="24.00">request: []</text>
</g>
<!-- 30881168&#45;&gt;31983280 -->
<g id="edge53" class="edge"><title>30881168&#45;&gt;31983280</title>
<path fill="none" stroke="black" d="M2157.78,-1063.83C2152.85,-1072.79 2147.12,-1083.19 2141.42,-1093.55"/>
<polygon fill="black" stroke="black" points="2138.2,-1092.15 2136.44,-1102.6 2144.33,-1095.52 2138.2,-1092.15"/>
</g>
<!-- 32857776&#45;&gt;31983280 -->
<g id="edge47" class="edge"><title>32857776&#45;&gt;31983280</title>
<path fill="none" stroke="black" d="M2080.85,-974.855C2073.51,-986.341 2066.89,-999.09 2063,-1012 2056.33,-1034.13 2056.91,-1041.71 2063,-1064 2065.87,-1074.5 2070.45,-1085.03 2075.68,-1094.89"/>
<polygon fill="black" stroke="black" points="2072.69,-1096.73 2080.64,-1103.74 2078.8,-1093.31 2072.69,-1096.73"/>
</g>
<!-- 32857776&#45;&gt;30881168 -->
<g id="edge49" class="edge"><title>32857776&#45;&gt;30881168</title>
<path fill="none" stroke="black" d="M2140.9,-975.226C2145.5,-984.515 2150.27,-994.133 2154.64,-1002.96"/>
<polygon fill="black" stroke="black" points="2151.64,-1004.78 2159.21,-1012.19 2157.91,-1001.67 2151.64,-1004.78"/>
</g>
<!-- 32904704 -->
<g id="node34" class="node"><title>32904704</title>
<ellipse fill="#8b008b" stroke="black" cx="2552" cy="-1147" rx="79.9031" ry="46.669"/>
<text text-anchor="middle" x="2552" y="-1154.4" font-family="Times Roman,serif" font-size="24.00">exp: (f)</text>
<text text-anchor="middle" x="2552" y="-1125.4" font-family="Times Roman,serif" font-size="24.00">value: 1</text>
</g>
<!-- 30487200 -->
<g id="node35" class="node"><title>30487200</title>
<ellipse fill="#6e8b3d" stroke="black" cx="2612" cy="-1038" rx="99.9096" ry="26.163"/>
<text text-anchor="middle" x="2612" y="-1030.9" font-family="Times Roman,serif" font-size="24.00">request: []</text>
</g>
<!-- 30487200&#45;&gt;32904704 -->
<g id="edge61" class="edge"><title>30487200&#45;&gt;32904704</title>
<path fill="none" stroke="black" d="M2597.78,-1063.83C2592.85,-1072.79 2587.12,-1083.19 2581.42,-1093.55"/>
<polygon fill="black" stroke="black" points="2578.2,-1092.15 2576.44,-1102.6 2584.33,-1095.52 2578.2,-1092.15"/>
</g>
<!-- 31339040&#45;&gt;32904704 -->
<g id="edge55" class="edge"><title>31339040&#45;&gt;32904704</title>
<path fill="none" stroke="black" d="M2520.85,-974.855C2513.51,-986.341 2506.89,-999.09 2503,-1012 2496.33,-1034.13 2496.91,-1041.71 2503,-1064 2505.87,-1074.5 2510.45,-1085.03 2515.68,-1094.89"/>
<polygon fill="black" stroke="black" points="2512.69,-1096.73 2520.64,-1103.74 2518.8,-1093.31 2512.69,-1096.73"/>
</g>
<!-- 31339040&#45;&gt;30487200 -->
<g id="edge57" class="edge"><title>31339040&#45;&gt;30487200</title>
<path fill="none" stroke="black" d="M2580.9,-975.226C2585.5,-984.515 2590.27,-994.133 2594.64,-1002.96"/>
<polygon fill="black" stroke="black" points="2591.64,-1004.78 2599.21,-1012.19 2597.91,-1001.67 2591.64,-1004.78"/>
</g>
<!-- 31869600 -->
<g id="node38" class="node"><title>31869600</title>
<ellipse fill="#8b008b" stroke="black" cx="2992" cy="-1147" rx="79.9031" ry="46.669"/>
<text text-anchor="middle" x="2992" y="-1154.4" font-family="Times Roman,serif" font-size="24.00">exp: (f)</text>
<text text-anchor="middle" x="2992" y="-1125.4" font-family="Times Roman,serif" font-size="24.00">value: 1</text>
</g>
<!-- 30588672 -->
<g id="node39" class="node"><title>30588672</title>
<ellipse fill="#6e8b3d" stroke="black" cx="3052" cy="-1038" rx="99.9096" ry="26.163"/>
<text text-anchor="middle" x="3052" y="-1030.9" font-family="Times Roman,serif" font-size="24.00">request: []</text>
</g>
<!-- 30588672&#45;&gt;31869600 -->
<g id="edge45" class="edge"><title>30588672&#45;&gt;31869600</title>
<path fill="none" stroke="black" d="M3037.78,-1063.83C3032.85,-1072.79 3027.12,-1083.19 3021.42,-1093.55"/>
<polygon fill="black" stroke="black" points="3018.2,-1092.15 3016.44,-1102.6 3024.33,-1095.52 3018.2,-1092.15"/>
</g>
<!-- 33103552&#45;&gt;31869600 -->
<g id="edge39" class="edge"><title>33103552&#45;&gt;31869600</title>
<path fill="none" stroke="black" d="M2960.85,-974.855C2953.51,-986.341 2946.89,-999.09 2943,-1012 2936.33,-1034.13 2936.91,-1041.71 2943,-1064 2945.87,-1074.5 2950.45,-1085.03 2955.68,-1094.89"/>
<polygon fill="black" stroke="black" points="2952.69,-1096.73 2960.64,-1103.74 2958.8,-1093.31 2952.69,-1096.73"/>
</g>
<!-- 33103552&#45;&gt;30588672 -->
<g id="edge41" class="edge"><title>33103552&#45;&gt;30588672</title>
<path fill="none" stroke="black" d="M3020.9,-975.226C3025.5,-984.515 3030.27,-994.133 3034.64,-1002.96"/>
<polygon fill="black" stroke="black" points="3031.64,-1004.78 3039.21,-1012.19 3037.91,-1001.67 3031.64,-1004.78"/>
</g>
<!-- 31861488 -->
<g id="node42" class="node"><title>31861488</title>
<ellipse fill="#8b008b" stroke="black" cx="3432" cy="-1147" rx="79.9031" ry="46.669"/>
<text text-anchor="middle" x="3432" y="-1154.4" font-family="Times Roman,serif" font-size="24.00">exp: (f)</text>
<text text-anchor="middle" x="3432" y="-1125.4" font-family="Times Roman,serif" font-size="24.00">value: 1</text>
</g>
<!-- 33946736 -->
<g id="node43" class="node"><title>33946736</title>
<ellipse fill="#6e8b3d" stroke="black" cx="3492" cy="-1038" rx="99.9096" ry="26.163"/>
<text text-anchor="middle" x="3492" y="-1030.9" font-family="Times Roman,serif" font-size="24.00">request: []</text>
</g>
<!-- 33946736&#45;&gt;31861488 -->
<g id="edge37" class="edge"><title>33946736&#45;&gt;31861488</title>
<path fill="none" stroke="black" d="M3477.78,-1063.83C3472.85,-1072.79 3467.12,-1083.19 3461.42,-1093.55"/>
<polygon fill="black" stroke="black" points="3458.2,-1092.15 3456.44,-1102.6 3464.33,-1095.52 3458.2,-1092.15"/>
</g>
<!-- 31289616&#45;&gt;31861488 -->
<g id="edge31" class="edge"><title>31289616&#45;&gt;31861488</title>
<path fill="none" stroke="black" d="M3400.85,-974.855C3393.51,-986.341 3386.89,-999.09 3383,-1012 3376.33,-1034.13 3376.91,-1041.71 3383,-1064 3385.87,-1074.5 3390.45,-1085.03 3395.68,-1094.89"/>
<polygon fill="black" stroke="black" points="3392.69,-1096.73 3400.64,-1103.74 3398.8,-1093.31 3392.69,-1096.73"/>
</g>
<!-- 31289616&#45;&gt;33946736 -->
<g id="edge33" class="edge"><title>31289616&#45;&gt;33946736</title>
<path fill="none" stroke="black" d="M3460.9,-975.226C3465.5,-984.515 3470.27,-994.133 3474.64,-1002.96"/>
<polygon fill="black" stroke="black" points="3471.64,-1004.78 3479.21,-1012.19 3477.91,-1001.67 3471.64,-1004.78"/>
</g>
<!-- 38918304 -->
<g id="node47" class="node"><title>38918304</title>
<ellipse fill="none" stroke="black" cx="63" cy="-401" rx="62.9325" ry="18.3848"/>
<text text-anchor="middle" x="63" y="-397.4" font-family="Times Roman,serif" font-size="14.00">38918304</text>
</g>
<!-- 38918304&#45;&gt;30852832 -->
<g id="edge17" class="edge"><title>38918304&#45;&gt;30852832</title>
<path fill="none" stroke="black" d="M125.969,-401.973C343.185,-405.685 1060.18,-420.979 1286,-464 1339.43,-474.179 1396.73,-492.312 1444.97,-509.804"/>
<polygon fill="black" stroke="black" points="1443.9,-513.14 1454.5,-513.292 1446.31,-506.567 1443.9,-513.14"/>
</g>
<!-- 38711088 -->
<g id="node85" class="node"><title>38711088</title>
<ellipse fill="none" stroke="black" cx="2159" cy="-19" rx="62.9325" ry="18.3848"/>
<text text-anchor="middle" x="2159" y="-15.4" font-family="Times Roman,serif" font-size="14.00">38711088</text>
</g>
<!-- 38711088&#45;&gt;39664544 -->
<g id="edge91" class="edge"><title>38711088&#45;&gt;39664544</title>
<path fill="none" stroke="black" d="M2159,-37.8129C2159,-59.2806 2159,-95.4093 2159,-126.255"/>
<polygon fill="black" stroke="black" points="2155.5,-126.484 2159,-136.484 2162.5,-126.484 2155.5,-126.484"/>
</g>
</g>
</svg>
