<?xml version="1.0" encoding="UTF-8" standalone="no"?>
<!DOCTYPE svg PUBLIC "-//W3C//DTD SVG 1.1//EN"
 "http://www.w3.org/Graphics/SVG/1.1/DTD/svg11.dtd">
<!-- Generated by graphviz version 2.26.3 (20100126.1600)
 -->
<!-- Title: _anonymous_0 Pages: 1 -->
<svg width="2110pt" height="1226pt"
 viewBox="0.00 0.00 2110.00 1226.00" xmlns="http://www.w3.org/2000/svg" xmlns:xlink="http://www.w3.org/1999/xlink">
<g id="graph1" class="graph" transform="scale(1 1) rotate(0) translate(4 1222)">
<title>_anonymous_0</title>
<polygon fill="white" stroke="white" points="-4,5 -4,-1222 2107,-1222 2107,5 -4,5"/>
<g id="graph2" class="cluster"><title>cluster1</title>
<polygon fill="none" stroke="black" points="134,-46 134,-1210 2094,-1210 2094,-46 134,-46"/>
<text text-anchor="middle" x="1114" y="-57.4" font-family="Times Roman,serif" font-size="24.00">Venture Families</text>
</g>
<g id="graph3" class="cluster"><title>cluster2</title>
<polygon fill="none" stroke="black" points="892,-91 892,-456 1574,-456 1574,-91 892,-91"/>
<text text-anchor="middle" x="1233" y="-102.4" font-family="Times Roman,serif" font-size="24.00">1</text>
</g>
<g id="graph4" class="cluster"><title>cluster3</title>
<polygon fill="none" stroke="black" points="283,-464 283,-829 1363,-829 1363,-464 283,-464"/>
<text text-anchor="middle" x="823" y="-475.4" font-family="Times Roman,serif" font-size="24.00">2</text>
</g>
<g id="graph5" class="cluster"><title>cluster4</title>
<polygon fill="none" stroke="black" points="142,-837 142,-1202 378,-1202 378,-837 142,-837"/>
<text text-anchor="middle" x="260" y="-848.4" font-family="Times Roman,serif" font-size="24.00">3</text>
</g>
<g id="graph6" class="cluster"><title>cluster5</title>
<polygon fill="none" stroke="black" points="386,-837 386,-1202 622,-1202 622,-837 386,-837"/>
<text text-anchor="middle" x="504" y="-848.4" font-family="Times Roman,serif" font-size="24.00">4</text>
</g>
<g id="graph7" class="cluster"><title>cluster6</title>
<polygon fill="none" stroke="black" points="630,-837 630,-1202 866,-1202 866,-837 630,-837"/>
<text text-anchor="middle" x="748" y="-848.4" font-family="Times Roman,serif" font-size="24.00">5</text>
</g>
<g id="graph8" class="cluster"><title>cluster7</title>
<polygon fill="none" stroke="black" points="874,-837 874,-1202 1110,-1202 1110,-837 874,-837"/>
<text text-anchor="middle" x="992" y="-848.4" font-family="Times Roman,serif" font-size="24.00">6</text>
</g>
<g id="graph9" class="cluster"><title>cluster8</title>
<polygon fill="none" stroke="black" points="1118,-837 1118,-1202 1354,-1202 1354,-837 1118,-837"/>
<text text-anchor="middle" x="1236" y="-848.4" font-family="Times Roman,serif" font-size="24.00">7</text>
</g>
<g id="graph10" class="cluster"><title>cluster9</title>
<polygon fill="none" stroke="black" points="1362,-837 1362,-1202 1598,-1202 1598,-837 1362,-837"/>
<text text-anchor="middle" x="1480" y="-848.4" font-family="Times Roman,serif" font-size="24.00">8</text>
</g>
<g id="graph11" class="cluster"><title>cluster10</title>
<polygon fill="none" stroke="black" points="1606,-837 1606,-1202 1842,-1202 1842,-837 1606,-837"/>
<text text-anchor="middle" x="1724" y="-848.4" font-family="Times Roman,serif" font-size="24.00">9</text>
</g>
<g id="graph12" class="cluster"><title>cluster11</title>
<polygon fill="none" stroke="black" points="1850,-837 1850,-1202 2086,-1202 2086,-837 1850,-837"/>
<text text-anchor="middle" x="1968" y="-848.4" font-family="Times Roman,serif" font-size="24.00">10</text>
</g>
<!-- 58793328 -->
<g id="node3" class="node"><title>58793328</title>
<ellipse fill="firebrick" stroke="black" cx="1254" cy="-401" rx="241.123" ry="46.669"/>
<text text-anchor="middle" x="1254" y="-408.4" font-family="Times Roman,serif" font-size="24.00">exp: (snormal 100.000000)</text>
<text text-anchor="middle" x="1254" y="-379.4" font-family="Times Roman,serif" font-size="24.00">value: </text>
</g>
<!-- 52404240 -->
<g id="node11" class="node"><title>52404240</title>
<ellipse fill="gold" stroke="black" cx="1254" cy="-556" rx="101.116" ry="46.669"/>
<text text-anchor="middle" x="1254" y="-563.4" font-family="Times Roman,serif" font-size="24.00">exp: alpha</text>
<text text-anchor="middle" x="1254" y="-534.4" font-family="Times Roman,serif" font-size="24.00">value: </text>
</g>
<!-- 58793328&#45;&gt;52404240 -->
<g id="edge63" class="edge"><title>58793328&#45;&gt;52404240</title>
<path fill="none" stroke="black" d="M1254,-447.505C1254,-463.677 1254,-482.005 1254,-498.933"/>
<polygon fill="black" stroke="black" points="1250.5,-499.26 1254,-509.26 1257.5,-499.26 1250.5,-499.26"/>
</g>
<!-- 59782368 -->
<g id="node4" class="node"><title>59782368</title>
<ellipse fill="#999999" stroke="black" cx="1254" cy="-292" rx="99.9096" ry="26.163"/>
<text text-anchor="middle" x="1254" y="-284.9" font-family="Times Roman,serif" font-size="24.00">request: []</text>
</g>
<!-- 59782368&#45;&gt;58793328 -->
<g id="edge97" class="edge"><title>59782368&#45;&gt;58793328</title>
<path fill="none" stroke="black" d="M1254,-318.108C1254,-325.979 1254,-334.946 1254,-344.005"/>
<polygon fill="black" stroke="black" points="1250.5,-344.218 1254,-354.218 1257.5,-344.218 1250.5,-344.218"/>
</g>
<!-- 60176752 -->
<g id="node5" class="node"><title>60176752</title>
<ellipse fill="#999999" stroke="black" cx="1412" cy="-183" rx="154.149" ry="46.669"/>
<text text-anchor="middle" x="1412" y="-190.4" font-family="Times Roman,serif" font-size="24.00">exp: snormal</text>
<text text-anchor="middle" x="1412" y="-161.4" font-family="Times Roman,serif" font-size="24.00">value: sp:normal</text>
</g>
<!-- 60176752&#45;&gt;58793328 -->
<g id="edge87" class="edge"><title>60176752&#45;&gt;58793328</title>
<path fill="none" stroke="black" d="M1402.12,-229.623C1394.63,-257.217 1382.28,-291.787 1363,-318 1354.47,-329.599 1343.88,-340.353 1332.68,-350.014"/>
<polygon fill="black" stroke="black" points="1330.3,-347.44 1324.85,-356.524 1334.78,-352.823 1330.3,-347.44"/>
</g>
<!-- 60176752&#45;&gt;59782368 -->
<g id="edge89" class="edge"><title>60176752&#45;&gt;59782368</title>
<path fill="none" stroke="black" d="M1350.01,-225.767C1332.65,-237.744 1314.14,-250.514 1298.05,-261.614"/>
<polygon fill="black" stroke="black" points="1295.62,-259.033 1289.38,-267.592 1299.6,-264.795 1295.62,-259.033"/>
</g>
<!-- 55978896 -->
<g id="node6" class="node"><title>55978896</title>
<ellipse fill="#999999" stroke="black" cx="1070" cy="-183" rx="169.913" ry="46.669"/>
<text text-anchor="middle" x="1070" y="-190.4" font-family="Times Roman,serif" font-size="24.00">exp: 100.000000</text>
<text text-anchor="middle" x="1070" y="-161.4" font-family="Times Roman,serif" font-size="24.00">value: 100.000000</text>
</g>
<!-- 55978896&#45;&gt;58793328 -->
<g id="edge93" class="edge"><title>55978896&#45;&gt;58793328</title>
<path fill="none" stroke="black" d="M1089.89,-229.45C1103.06,-256.982 1122.1,-291.547 1145,-318 1154.83,-329.359 1166.45,-340.165 1178.37,-350"/>
<polygon fill="black" stroke="black" points="1176.25,-352.783 1186.23,-356.319 1180.63,-347.326 1176.25,-352.783"/>
</g>
<!-- 55978896&#45;&gt;59782368 -->
<g id="edge95" class="edge"><title>55978896&#45;&gt;59782368</title>
<path fill="none" stroke="black" d="M1141.4,-225.298C1162.69,-237.909 1185.53,-251.438 1205.03,-262.993"/>
<polygon fill="black" stroke="black" points="1203.36,-266.067 1213.74,-268.153 1206.92,-260.045 1203.36,-266.067"/>
</g>
<!-- 55107072 -->
<g id="node8" class="node"><title>55107072</title>
<ellipse fill="#ffaeb9" stroke="black" cx="983" cy="-774" rx="372.145" ry="46.669"/>
<text text-anchor="middle" x="983" y="-781.4" font-family="Times Roman,serif" font-size="24.00">exp: (make_sym_dir_mult alpha 2.000000)</text>
<text text-anchor="middle" x="983" y="-752.4" font-family="Times Roman,serif" font-size="24.00">value: </text>
</g>
<!-- 53085776 -->
<g id="node16" class="node"><title>53085776</title>
<ellipse fill="#999999" stroke="black" cx="270" cy="-929" rx="82.0244" ry="46.669"/>
<text text-anchor="middle" x="270" y="-936.4" font-family="Times Roman,serif" font-size="24.00">exp: f</text>
<text text-anchor="middle" x="270" y="-907.4" font-family="Times Roman,serif" font-size="24.00">value: []</text>
</g>
<!-- 55107072&#45;&gt;53085776 -->
<g id="edge103" class="edge"><title>55107072&#45;&gt;53085776</title>
<path fill="none" stroke="black" d="M642.586,-792.841C534.738,-802.443 430.879,-816.561 382,-837 357.821,-847.111 334.778,-864.222 315.949,-880.964"/>
<polygon fill="black" stroke="black" points="313.439,-878.517 308.414,-887.844 318.159,-883.686 313.439,-878.517"/>
</g>
<!-- 55036928 -->
<g id="node20" class="node"><title>55036928</title>
<ellipse fill="#999999" stroke="black" cx="514" cy="-929" rx="82.0244" ry="46.669"/>
<text text-anchor="middle" x="514" y="-936.4" font-family="Times Roman,serif" font-size="24.00">exp: f</text>
<text text-anchor="middle" x="514" y="-907.4" font-family="Times Roman,serif" font-size="24.00">value: []</text>
</g>
<!-- 55107072&#45;&gt;55036928 -->
<g id="edge49" class="edge"><title>55107072&#45;&gt;55036928</title>
<path fill="none" stroke="black" d="M734.842,-808.646C688.549,-817.265 647.87,-826.939 626,-837 602.597,-847.766 580,-864.635 561.308,-881.003"/>
<polygon fill="black" stroke="black" points="558.651,-878.684 553.545,-887.968 563.326,-883.895 558.651,-878.684"/>
</g>
<!-- 53080080 -->
<g id="node24" class="node"><title>53080080</title>
<ellipse fill="#999999" stroke="black" cx="758" cy="-929" rx="82.0244" ry="46.669"/>
<text text-anchor="middle" x="758" y="-936.4" font-family="Times Roman,serif" font-size="24.00">exp: f</text>
<text text-anchor="middle" x="758" y="-907.4" font-family="Times Roman,serif" font-size="24.00">value: []</text>
</g>
<!-- 55107072&#45;&gt;53080080 -->
<g id="edge41" class="edge"><title>55107072&#45;&gt;53080080</title>
<path fill="none" stroke="black" d="M897.773,-819.343C888.252,-825.045 878.817,-830.992 870,-837 849.53,-850.948 828.243,-867.772 809.793,-883.199"/>
<polygon fill="black" stroke="black" points="807.458,-880.589 802.07,-889.712 811.971,-885.94 807.458,-880.589"/>
</g>
<!-- 53333456 -->
<g id="node28" class="node"><title>53333456</title>
<ellipse fill="#999999" stroke="black" cx="983" cy="-929" rx="82.0244" ry="46.669"/>
<text text-anchor="middle" x="983" y="-936.4" font-family="Times Roman,serif" font-size="24.00">exp: f</text>
<text text-anchor="middle" x="983" y="-907.4" font-family="Times Roman,serif" font-size="24.00">value: []</text>
</g>
<!-- 55107072&#45;&gt;53333456 -->
<g id="edge17" class="edge"><title>55107072&#45;&gt;53333456</title>
<path fill="none" stroke="black" d="M983,-820.505C983,-836.677 983,-855.005 983,-871.933"/>
<polygon fill="black" stroke="black" points="979.5,-872.26 983,-882.26 986.5,-872.26 979.5,-872.26"/>
</g>
<!-- 53345520 -->
<g id="node32" class="node"><title>53345520</title>
<ellipse fill="#999999" stroke="black" cx="1208" cy="-929" rx="82.0244" ry="46.669"/>
<text text-anchor="middle" x="1208" y="-936.4" font-family="Times Roman,serif" font-size="24.00">exp: f</text>
<text text-anchor="middle" x="1208" y="-907.4" font-family="Times Roman,serif" font-size="24.00">value: []</text>
</g>
<!-- 55107072&#45;&gt;53345520 -->
<g id="edge83" class="edge"><title>55107072&#45;&gt;53345520</title>
<path fill="none" stroke="black" d="M1084.67,-818.75C1094.85,-824.444 1104.8,-830.553 1114,-837 1131.68,-849.392 1149.11,-865.177 1164.08,-880.159"/>
<polygon fill="black" stroke="black" points="1161.72,-882.747 1171.22,-887.431 1166.71,-877.843 1161.72,-882.747"/>
</g>
<!-- 51119600 -->
<g id="node36" class="node"><title>51119600</title>
<ellipse fill="#999999" stroke="black" cx="1452" cy="-929" rx="82.0244" ry="46.669"/>
<text text-anchor="middle" x="1452" y="-936.4" font-family="Times Roman,serif" font-size="24.00">exp: f</text>
<text text-anchor="middle" x="1452" y="-907.4" font-family="Times Roman,serif" font-size="24.00">value: []</text>
</g>
<!-- 55107072&#45;&gt;51119600 -->
<g id="edge25" class="edge"><title>55107072&#45;&gt;51119600</title>
<path fill="none" stroke="black" d="M1246.26,-806.942C1294.06,-815.588 1335.79,-825.701 1358,-837 1377.94,-847.142 1396.38,-862.996 1411.56,-878.703"/>
<polygon fill="black" stroke="black" points="1409.35,-881.465 1418.74,-886.377 1414.46,-876.683 1409.35,-881.465"/>
</g>
<!-- 56354352 -->
<g id="node40" class="node"><title>56354352</title>
<ellipse fill="#999999" stroke="black" cx="1696" cy="-929" rx="82.0244" ry="46.669"/>
<text text-anchor="middle" x="1696" y="-936.4" font-family="Times Roman,serif" font-size="24.00">exp: f</text>
<text text-anchor="middle" x="1696" y="-907.4" font-family="Times Roman,serif" font-size="24.00">value: []</text>
</g>
<!-- 55107072&#45;&gt;56354352 -->
<g id="edge75" class="edge"><title>55107072&#45;&gt;56354352</title>
<path fill="none" stroke="black" d="M1333.41,-789.769C1445.04,-799.066 1552.42,-813.776 1602,-837 1622.44,-846.572 1641.1,-862.465 1656.32,-878.371"/>
<polygon fill="black" stroke="black" points="1654.15,-881.181 1663.51,-886.153 1659.29,-876.432 1654.15,-881.181"/>
</g>
<!-- 51139232 -->
<g id="node44" class="node"><title>51139232</title>
<ellipse fill="#999999" stroke="black" cx="1940" cy="-929" rx="82.0244" ry="46.669"/>
<text text-anchor="middle" x="1940" y="-936.4" font-family="Times Roman,serif" font-size="24.00">exp: f</text>
<text text-anchor="middle" x="1940" y="-907.4" font-family="Times Roman,serif" font-size="24.00">value: []</text>
</g>
<!-- 55107072&#45;&gt;51139232 -->
<g id="edge33" class="edge"><title>55107072&#45;&gt;51139232</title>
<path fill="none" stroke="black" d="M1336.88,-788.38C1553.9,-799.198 1798.97,-815.786 1846,-837 1866.76,-846.364 1885.61,-862.394 1900.89,-878.475"/>
<polygon fill="black" stroke="black" points="1898.31,-880.842 1907.65,-885.843 1903.47,-876.109 1898.31,-880.842"/>
</g>
<!-- 58183536 -->
<g id="node9" class="node"><title>58183536</title>
<ellipse fill="#63b8ff" stroke="black" cx="986" cy="-665" rx="99.9096" ry="26.163"/>
<text text-anchor="middle" x="986" y="-657.9" font-family="Times Roman,serif" font-size="24.00">request: []</text>
</g>
<!-- 58183536&#45;&gt;55107072 -->
<g id="edge69" class="edge"><title>58183536&#45;&gt;55107072</title>
<path fill="none" stroke="black" d="M985.281,-691.108C985.065,-698.979 984.818,-707.946 984.569,-717.005"/>
<polygon fill="black" stroke="black" points="981.064,-717.126 984.288,-727.218 988.061,-717.318 981.064,-717.126"/>
</g>
<!-- 53296304 -->
<g id="node10" class="node"><title>53296304</title>
<ellipse fill="#999999" stroke="black" cx="871" cy="-556" rx="263.958" ry="46.669"/>
<text text-anchor="middle" x="871" y="-563.4" font-family="Times Roman,serif" font-size="24.00">exp: make_sym_dir_mult</text>
<text text-anchor="middle" x="871" y="-534.4" font-family="Times Roman,serif" font-size="24.00">value: sp:make_sym_dir_mult</text>
</g>
<!-- 53296304&#45;&gt;55107072 -->
<g id="edge53" class="edge"><title>53296304&#45;&gt;55107072</title>
<path fill="none" stroke="black" d="M863.76,-602.527C861.721,-629.759 863.093,-663.988 877,-691 882.741,-702.15 890.731,-712.272 899.777,-721.308"/>
<polygon fill="black" stroke="black" points="897.552,-724.02 907.235,-728.32 902.347,-718.92 897.552,-724.02"/>
</g>
<!-- 53296304&#45;&gt;58183536 -->
<g id="edge55" class="edge"><title>53296304&#45;&gt;58183536</title>
<path fill="none" stroke="black" d="M919.437,-601.91C930.296,-612.203 941.598,-622.915 951.74,-632.527"/>
<polygon fill="black" stroke="black" points="949.577,-635.3 959.243,-639.639 954.393,-630.219 949.577,-635.3"/>
</g>
<!-- 52404240&#45;&gt;55107072 -->
<g id="edge59" class="edge"><title>52404240&#45;&gt;55107072</title>
<path fill="none" stroke="black" d="M1207.03,-597.299C1175.73,-624.463 1133.43,-660.497 1095,-691 1082.21,-701.154 1068.37,-711.723 1054.94,-721.783"/>
<polygon fill="black" stroke="black" points="1052.56,-719.189 1046.64,-727.972 1056.75,-724.8 1052.56,-719.189"/>
</g>
<!-- 52404240&#45;&gt;58183536 -->
<g id="edge61" class="edge"><title>52404240&#45;&gt;58183536</title>
<path fill="none" stroke="black" d="M1180.16,-587.906C1168.1,-593.014 1155.72,-598.197 1144,-603 1113.75,-615.396 1080.04,-628.694 1051.55,-639.783"/>
<polygon fill="black" stroke="black" points="1050.15,-636.57 1042.1,-643.454 1052.69,-643.095 1050.15,-636.57"/>
</g>
<!-- 57853120 -->
<g id="node12" class="node"><title>57853120</title>
<ellipse fill="#999999" stroke="black" cx="440" cy="-556" rx="149.2" ry="46.669"/>
<text text-anchor="middle" x="440" y="-563.4" font-family="Times Roman,serif" font-size="24.00">exp: 2.000000</text>
<text text-anchor="middle" x="440" y="-534.4" font-family="Times Roman,serif" font-size="24.00">value: 2.000000</text>
</g>
<!-- 57853120&#45;&gt;55107072 -->
<g id="edge65" class="edge"><title>57853120&#45;&gt;55107072</title>
<path fill="none" stroke="black" d="M531.499,-592.734C622.56,-629.293 762.791,-685.592 862.793,-725.74"/>
<polygon fill="black" stroke="black" points="861.758,-729.096 872.342,-729.574 864.366,-722.6 861.758,-729.096"/>
</g>
<!-- 57853120&#45;&gt;58183536 -->
<g id="edge67" class="edge"><title>57853120&#45;&gt;58183536</title>
<path fill="none" stroke="black" d="M544.88,-589.281C562.511,-594.275 580.699,-599.062 598,-603 694.636,-624.995 806.554,-641.994 885.283,-652.583"/>
<polygon fill="black" stroke="black" points="884.824,-656.053 895.199,-653.907 885.75,-649.114 884.824,-656.053"/>
</g>
<!-- 60085760 -->
<g id="node14" class="node"><title>60085760</title>
<ellipse fill="#999999" stroke="black" cx="250" cy="-1147" rx="79.9031" ry="46.669"/>
<text text-anchor="middle" x="250" y="-1154.4" font-family="Times Roman,serif" font-size="24.00">exp: (f)</text>
<text text-anchor="middle" x="250" y="-1125.4" font-family="Times Roman,serif" font-size="24.00">value: 1</text>
</g>
<!-- 60248128 -->
<g id="node15" class="node"><title>60248128</title>
<ellipse fill="#999999" stroke="black" cx="270" cy="-1038" rx="99.9096" ry="26.163"/>
<text text-anchor="middle" x="270" y="-1030.9" font-family="Times Roman,serif" font-size="24.00">request: []</text>
</g>
<!-- 60248128&#45;&gt;60085760 -->
<g id="edge105" class="edge"><title>60248128&#45;&gt;60085760</title>
<path fill="none" stroke="black" d="M265.21,-1064.11C263.733,-1072.16 262.046,-1081.35 260.346,-1090.62"/>
<polygon fill="black" stroke="black" points="256.867,-1090.18 258.505,-1100.65 263.752,-1091.45 256.867,-1090.18"/>
</g>
<!-- 53085776&#45;&gt;60085760 -->
<g id="edge99" class="edge"><title>53085776&#45;&gt;60085760</title>
<path fill="none" stroke="black" d="M209.378,-960.355C190.312,-973.533 171.507,-990.794 161,-1012 150.74,-1032.71 151.785,-1042.81 161,-1064 167.558,-1079.08 178.357,-1092.67 190.211,-1104.27"/>
<polygon fill="black" stroke="black" points="187.993,-1106.99 197.7,-1111.23 192.76,-1101.86 187.993,-1106.99"/>
</g>
<!-- 53085776&#45;&gt;60248128 -->
<g id="edge101" class="edge"><title>53085776&#45;&gt;60248128</title>
<path fill="none" stroke="black" d="M270,-975.542C270,-984.249 270,-993.232 270,-1001.58"/>
<polygon fill="black" stroke="black" points="266.5,-1001.74 270,-1011.74 273.5,-1001.74 266.5,-1001.74"/>
</g>
<!-- 54608032 -->
<g id="node18" class="node"><title>54608032</title>
<ellipse fill="#999999" stroke="black" cx="494" cy="-1147" rx="79.9031" ry="46.669"/>
<text text-anchor="middle" x="494" y="-1154.4" font-family="Times Roman,serif" font-size="24.00">exp: (f)</text>
<text text-anchor="middle" x="494" y="-1125.4" font-family="Times Roman,serif" font-size="24.00">value: 1</text>
</g>
<!-- 60205760 -->
<g id="node19" class="node"><title>60205760</title>
<ellipse fill="#999999" stroke="black" cx="514" cy="-1038" rx="99.9096" ry="26.163"/>
<text text-anchor="middle" x="514" y="-1030.9" font-family="Times Roman,serif" font-size="24.00">request: []</text>
</g>
<!-- 60205760&#45;&gt;54608032 -->
<g id="edge51" class="edge"><title>60205760&#45;&gt;54608032</title>
<path fill="none" stroke="black" d="M509.21,-1064.11C507.733,-1072.16 506.046,-1081.35 504.346,-1090.62"/>
<polygon fill="black" stroke="black" points="500.867,-1090.18 502.505,-1100.65 507.752,-1091.45 500.867,-1090.18"/>
</g>
<!-- 55036928&#45;&gt;54608032 -->
<g id="edge45" class="edge"><title>55036928&#45;&gt;54608032</title>
<path fill="none" stroke="black" d="M453.378,-960.355C434.312,-973.533 415.507,-990.794 405,-1012 394.74,-1032.71 395.785,-1042.81 405,-1064 411.558,-1079.08 422.357,-1092.67 434.211,-1104.27"/>
<polygon fill="black" stroke="black" points="431.993,-1106.99 441.7,-1111.23 436.76,-1101.86 431.993,-1106.99"/>
</g>
<!-- 55036928&#45;&gt;60205760 -->
<g id="edge47" class="edge"><title>55036928&#45;&gt;60205760</title>
<path fill="none" stroke="black" d="M514,-975.542C514,-984.249 514,-993.232 514,-1001.58"/>
<polygon fill="black" stroke="black" points="510.5,-1001.74 514,-1011.74 517.5,-1001.74 510.5,-1001.74"/>
</g>
<!-- 53080768 -->
<g id="node22" class="node"><title>53080768</title>
<ellipse fill="#999999" stroke="black" cx="738" cy="-1147" rx="79.9031" ry="46.669"/>
<text text-anchor="middle" x="738" y="-1154.4" font-family="Times Roman,serif" font-size="24.00">exp: (f)</text>
<text text-anchor="middle" x="738" y="-1125.4" font-family="Times Roman,serif" font-size="24.00">value: 1</text>
</g>
<!-- 48783584 -->
<g id="node23" class="node"><title>48783584</title>
<ellipse fill="#999999" stroke="black" cx="758" cy="-1038" rx="99.9096" ry="26.163"/>
<text text-anchor="middle" x="758" y="-1030.9" font-family="Times Roman,serif" font-size="24.00">request: []</text>
</g>
<!-- 48783584&#45;&gt;53080768 -->
<g id="edge43" class="edge"><title>48783584&#45;&gt;53080768</title>
<path fill="none" stroke="black" d="M753.21,-1064.11C751.733,-1072.16 750.046,-1081.35 748.346,-1090.62"/>
<polygon fill="black" stroke="black" points="744.867,-1090.18 746.505,-1100.65 751.752,-1091.45 744.867,-1090.18"/>
</g>
<!-- 53080080&#45;&gt;53080768 -->
<g id="edge37" class="edge"><title>53080080&#45;&gt;53080768</title>
<path fill="none" stroke="black" d="M697.378,-960.355C678.312,-973.533 659.507,-990.794 649,-1012 638.74,-1032.71 639.785,-1042.81 649,-1064 655.558,-1079.08 666.357,-1092.67 678.211,-1104.27"/>
<polygon fill="black" stroke="black" points="675.993,-1106.99 685.7,-1111.23 680.76,-1101.86 675.993,-1106.99"/>
</g>
<!-- 53080080&#45;&gt;48783584 -->
<g id="edge39" class="edge"><title>53080080&#45;&gt;48783584</title>
<path fill="none" stroke="black" d="M758,-975.542C758,-984.249 758,-993.232 758,-1001.58"/>
<polygon fill="black" stroke="black" points="754.5,-1001.74 758,-1011.74 761.5,-1001.74 754.5,-1001.74"/>
</g>
<!-- 50481568 -->
<g id="node26" class="node"><title>50481568</title>
<ellipse fill="#999999" stroke="black" cx="982" cy="-1147" rx="79.9031" ry="46.669"/>
<text text-anchor="middle" x="982" y="-1154.4" font-family="Times Roman,serif" font-size="24.00">exp: (f)</text>
<text text-anchor="middle" x="982" y="-1125.4" font-family="Times Roman,serif" font-size="24.00">value: 1</text>
</g>
<!-- 53215552 -->
<g id="node27" class="node"><title>53215552</title>
<ellipse fill="#999999" stroke="black" cx="1002" cy="-1038" rx="99.9096" ry="26.163"/>
<text text-anchor="middle" x="1002" y="-1030.9" font-family="Times Roman,serif" font-size="24.00">request: []</text>
</g>
<!-- 53215552&#45;&gt;50481568 -->
<g id="edge19" class="edge"><title>53215552&#45;&gt;50481568</title>
<path fill="none" stroke="black" d="M997.21,-1064.11C995.733,-1072.16 994.046,-1081.35 992.346,-1090.62"/>
<polygon fill="black" stroke="black" points="988.867,-1090.18 990.505,-1100.65 995.752,-1091.45 988.867,-1090.18"/>
</g>
<!-- 53333456&#45;&gt;50481568 -->
<g id="edge13" class="edge"><title>53333456&#45;&gt;50481568</title>
<path fill="none" stroke="black" d="M930.124,-964.661C915.282,-977.648 901.018,-993.699 893,-1012 883.726,-1033.17 883.785,-1042.81 893,-1064 899.558,-1079.08 910.357,-1092.67 922.211,-1104.27"/>
<polygon fill="black" stroke="black" points="919.993,-1106.99 929.7,-1111.23 924.76,-1101.86 919.993,-1106.99"/>
</g>
<!-- 53333456&#45;&gt;53215552 -->
<g id="edge15" class="edge"><title>53333456&#45;&gt;53215552</title>
<path fill="none" stroke="black" d="M991.113,-975.542C992.647,-984.345 994.231,-993.432 995.7,-1001.86"/>
<polygon fill="black" stroke="black" points="992.257,-1002.49 997.422,-1011.74 999.153,-1001.29 992.257,-1002.49"/>
</g>
<!-- 57253040 -->
<g id="node30" class="node"><title>57253040</title>
<ellipse fill="#999999" stroke="black" cx="1226" cy="-1147" rx="79.9031" ry="46.669"/>
<text text-anchor="middle" x="1226" y="-1154.4" font-family="Times Roman,serif" font-size="24.00">exp: (f)</text>
<text text-anchor="middle" x="1226" y="-1125.4" font-family="Times Roman,serif" font-size="24.00">value: 1</text>
</g>
<!-- 50247536 -->
<g id="node31" class="node"><title>50247536</title>
<ellipse fill="#999999" stroke="black" cx="1246" cy="-1038" rx="99.9096" ry="26.163"/>
<text text-anchor="middle" x="1246" y="-1030.9" font-family="Times Roman,serif" font-size="24.00">request: []</text>
</g>
<!-- 50247536&#45;&gt;57253040 -->
<g id="edge85" class="edge"><title>50247536&#45;&gt;57253040</title>
<path fill="none" stroke="black" d="M1241.21,-1064.11C1239.73,-1072.16 1238.05,-1081.35 1236.35,-1090.62"/>
<polygon fill="black" stroke="black" points="1232.87,-1090.18 1234.5,-1100.65 1239.75,-1091.45 1232.87,-1090.18"/>
</g>
<!-- 53345520&#45;&gt;57253040 -->
<g id="edge79" class="edge"><title>53345520&#45;&gt;57253040</title>
<path fill="none" stroke="black" d="M1164.24,-968.669C1153.21,-981.313 1142.85,-996.169 1137,-1012 1128.99,-1033.68 1127.78,-1042.81 1137,-1064 1143.56,-1079.08 1154.36,-1092.67 1166.21,-1104.27"/>
<polygon fill="black" stroke="black" points="1163.99,-1106.99 1173.7,-1111.23 1168.76,-1101.86 1163.99,-1106.99"/>
</g>
<!-- 53345520&#45;&gt;50247536 -->
<g id="edge81" class="edge"><title>53345520&#45;&gt;50247536</title>
<path fill="none" stroke="black" d="M1224.01,-974.91C1227.22,-984.125 1230.55,-993.677 1233.61,-1002.47"/>
<polygon fill="black" stroke="black" points="1230.35,-1003.74 1236.95,-1012.03 1236.96,-1001.43 1230.35,-1003.74"/>
</g>
<!-- 52397680 -->
<g id="node34" class="node"><title>52397680</title>
<ellipse fill="#999999" stroke="black" cx="1470" cy="-1147" rx="79.9031" ry="46.669"/>
<text text-anchor="middle" x="1470" y="-1154.4" font-family="Times Roman,serif" font-size="24.00">exp: (f)</text>
<text text-anchor="middle" x="1470" y="-1125.4" font-family="Times Roman,serif" font-size="24.00">value: 1</text>
</g>
<!-- 54602032 -->
<g id="node35" class="node"><title>54602032</title>
<ellipse fill="#999999" stroke="black" cx="1490" cy="-1038" rx="99.9096" ry="26.163"/>
<text text-anchor="middle" x="1490" y="-1030.9" font-family="Times Roman,serif" font-size="24.00">request: []</text>
</g>
<!-- 54602032&#45;&gt;52397680 -->
<g id="edge27" class="edge"><title>54602032&#45;&gt;52397680</title>
<path fill="none" stroke="black" d="M1485.21,-1064.11C1483.73,-1072.16 1482.05,-1081.35 1480.35,-1090.62"/>
<polygon fill="black" stroke="black" points="1476.87,-1090.18 1478.5,-1100.65 1483.75,-1091.45 1476.87,-1090.18"/>
</g>
<!-- 51119600&#45;&gt;52397680 -->
<g id="edge21" class="edge"><title>51119600&#45;&gt;52397680</title>
<path fill="none" stroke="black" d="M1408.24,-968.669C1397.21,-981.313 1386.85,-996.169 1381,-1012 1372.99,-1033.68 1371.78,-1042.81 1381,-1064 1387.56,-1079.08 1398.36,-1092.67 1410.21,-1104.27"/>
<polygon fill="black" stroke="black" points="1407.99,-1106.99 1417.7,-1111.23 1412.76,-1101.86 1407.99,-1106.99"/>
</g>
<!-- 51119600&#45;&gt;54602032 -->
<g id="edge23" class="edge"><title>51119600&#45;&gt;54602032</title>
<path fill="none" stroke="black" d="M1468.01,-974.91C1471.22,-984.125 1474.55,-993.677 1477.61,-1002.47"/>
<polygon fill="black" stroke="black" points="1474.35,-1003.74 1480.95,-1012.03 1480.96,-1001.43 1474.35,-1003.74"/>
</g>
<!-- 55551824 -->
<g id="node38" class="node"><title>55551824</title>
<ellipse fill="#999999" stroke="black" cx="1714" cy="-1147" rx="79.9031" ry="46.669"/>
<text text-anchor="middle" x="1714" y="-1154.4" font-family="Times Roman,serif" font-size="24.00">exp: (f)</text>
<text text-anchor="middle" x="1714" y="-1125.4" font-family="Times Roman,serif" font-size="24.00">value: 1</text>
</g>
<!-- 55519360 -->
<g id="node39" class="node"><title>55519360</title>
<ellipse fill="#999999" stroke="black" cx="1734" cy="-1038" rx="99.9096" ry="26.163"/>
<text text-anchor="middle" x="1734" y="-1030.9" font-family="Times Roman,serif" font-size="24.00">request: []</text>
</g>
<!-- 55519360&#45;&gt;55551824 -->
<g id="edge77" class="edge"><title>55519360&#45;&gt;55551824</title>
<path fill="none" stroke="black" d="M1729.21,-1064.11C1727.73,-1072.16 1726.05,-1081.35 1724.35,-1090.62"/>
<polygon fill="black" stroke="black" points="1720.87,-1090.18 1722.5,-1100.65 1727.75,-1091.45 1720.87,-1090.18"/>
</g>
<!-- 56354352&#45;&gt;55551824 -->
<g id="edge71" class="edge"><title>56354352&#45;&gt;55551824</title>
<path fill="none" stroke="black" d="M1652.24,-968.669C1641.21,-981.313 1630.85,-996.169 1625,-1012 1616.99,-1033.68 1615.78,-1042.81 1625,-1064 1631.56,-1079.08 1642.36,-1092.67 1654.21,-1104.27"/>
<polygon fill="black" stroke="black" points="1651.99,-1106.99 1661.7,-1111.23 1656.76,-1101.86 1651.99,-1106.99"/>
</g>
<!-- 56354352&#45;&gt;55519360 -->
<g id="edge73" class="edge"><title>56354352&#45;&gt;55519360</title>
<path fill="none" stroke="black" d="M1712.01,-974.91C1715.22,-984.125 1718.55,-993.677 1721.61,-1002.47"/>
<polygon fill="black" stroke="black" points="1718.35,-1003.74 1724.95,-1012.03 1724.96,-1001.43 1718.35,-1003.74"/>
</g>
<!-- 52407360 -->
<g id="node42" class="node"><title>52407360</title>
<ellipse fill="#999999" stroke="black" cx="1958" cy="-1147" rx="79.9031" ry="46.669"/>
<text text-anchor="middle" x="1958" y="-1154.4" font-family="Times Roman,serif" font-size="24.00">exp: (f)</text>
<text text-anchor="middle" x="1958" y="-1125.4" font-family="Times Roman,serif" font-size="24.00">value: 1</text>
</g>
<!-- 52991392 -->
<g id="node43" class="node"><title>52991392</title>
<ellipse fill="#999999" stroke="black" cx="1978" cy="-1038" rx="99.9096" ry="26.163"/>
<text text-anchor="middle" x="1978" y="-1030.9" font-family="Times Roman,serif" font-size="24.00">request: []</text>
</g>
<!-- 52991392&#45;&gt;52407360 -->
<g id="edge35" class="edge"><title>52991392&#45;&gt;52407360</title>
<path fill="none" stroke="black" d="M1973.21,-1064.11C1971.73,-1072.16 1970.05,-1081.35 1968.35,-1090.62"/>
<polygon fill="black" stroke="black" points="1964.87,-1090.18 1966.5,-1100.65 1971.75,-1091.45 1964.87,-1090.18"/>
</g>
<!-- 51139232&#45;&gt;52407360 -->
<g id="edge29" class="edge"><title>51139232&#45;&gt;52407360</title>
<path fill="none" stroke="black" d="M1896.24,-968.669C1885.21,-981.313 1874.85,-996.169 1869,-1012 1860.99,-1033.68 1859.78,-1042.81 1869,-1064 1875.56,-1079.08 1886.36,-1092.67 1898.21,-1104.27"/>
<polygon fill="black" stroke="black" points="1895.99,-1106.99 1905.7,-1111.23 1900.76,-1101.86 1895.99,-1106.99"/>
</g>
<!-- 51139232&#45;&gt;52991392 -->
<g id="edge31" class="edge"><title>51139232&#45;&gt;52991392</title>
<path fill="none" stroke="black" d="M1956.01,-974.91C1959.22,-984.125 1962.55,-993.677 1965.61,-1002.47"/>
<polygon fill="black" stroke="black" points="1962.35,-1003.74 1968.95,-1012.03 1968.96,-1001.43 1962.35,-1003.74"/>
</g>
<!-- 59959936 -->
<g id="node67" class="node"><title>59959936</title>
<ellipse fill="none" stroke="black" cx="63" cy="-401" rx="62.9325" ry="18.3848"/>
<text text-anchor="middle" x="63" y="-397.4" font-family="Times Roman,serif" font-size="14.00">59959936</text>
</g>
<!-- 59959936&#45;&gt;53296304 -->
<g id="edge57" class="edge"><title>59959936&#45;&gt;53296304</title>
<path fill="none" stroke="black" d="M125.491,-404.141C226.075,-410.136 429.65,-426.154 598,-464 649.587,-475.597 705.123,-493.305 752.549,-510.099"/>
<polygon fill="black" stroke="black" points="751.637,-513.49 762.232,-513.555 753.99,-506.897 751.637,-513.49"/>
</g>
<!-- 61483744 -->
<g id="node85" class="node"><title>61483744</title>
<ellipse fill="none" stroke="black" cx="1412" cy="-19" rx="62.9325" ry="18.3848"/>
<text text-anchor="middle" x="1412" y="-15.4" font-family="Times Roman,serif" font-size="14.00">61483744</text>
</g>
<!-- 61483744&#45;&gt;60176752 -->
<g id="edge91" class="edge"><title>61483744&#45;&gt;60176752</title>
<path fill="none" stroke="black" d="M1412,-37.8129C1412,-59.2806 1412,-95.4093 1412,-126.255"/>
<polygon fill="black" stroke="black" points="1408.5,-126.484 1412,-136.484 1415.5,-126.484 1408.5,-126.484"/>
</g>
</g>
</svg>
