<?xml version="1.0" encoding="UTF-8" standalone="no"?>
<!DOCTYPE svg PUBLIC "-//W3C//DTD SVG 1.1//EN"
 "http://www.w3.org/Graphics/SVG/1.1/DTD/svg11.dtd">
<!-- Generated by graphviz version 2.26.3 (20100126.1600)
 -->
<!-- Title: _anonymous_0 Pages: 1 -->
<svg width="488pt" height="836pt"
 viewBox="0.00 0.00 488.00 836.00" xmlns="http://www.w3.org/2000/svg" xmlns:xlink="http://www.w3.org/1999/xlink">
<g id="graph1" class="graph" transform="scale(1 1) rotate(0) translate(4 832)">
<title>_anonymous_0</title>
<polygon fill="white" stroke="white" points="-4,5 -4,-832 485,-832 485,5 -4,5"/>
<!-- 36193792 -->
<g id="node3" class="node"><title>36193792</title>
<ellipse fill="#8f8f8f" stroke="black" cx="100" cy="-18" rx="27" ry="18"/>
</g>
<!-- 36703008 -->
<g id="node8" class="node"><title>36703008</title>
<ellipse fill="#8f8f8f" stroke="black" cx="100" cy="-90" rx="27" ry="18"/>
</g>
<!-- 36193792&#45;&gt;36703008 -->
<g id="edge30" class="edge"><title>36193792&#45;&gt;36703008</title>
<path fill="none" stroke="black" d="M100,-36.1686C100,-43.869 100,-53.0257 100,-61.5834"/>
<polygon fill="black" stroke="black" points="96.5001,-61.5867 100,-71.5867 103.5,-61.5868 96.5001,-61.5867"/>
</g>
<!-- 36155040 -->
<g id="node5" class="node"><title>36155040</title>
<ellipse fill="firebrick" stroke="black" cx="107" cy="-234" rx="27" ry="18"/>
</g>
<!-- 35923424 -->
<g id="node17" class="node"><title>35923424</title>
<ellipse fill="gold" stroke="black" cx="107" cy="-306" rx="27" ry="18"/>
</g>
<!-- 36155040&#45;&gt;35923424 -->
<g id="edge54" class="edge"><title>36155040&#45;&gt;35923424</title>
<path fill="none" stroke="black" d="M107,-252.169C107,-259.869 107,-269.026 107,-277.583"/>
<polygon fill="black" stroke="black" points="103.5,-277.587 107,-287.587 110.5,-277.587 103.5,-277.587"/>
</g>
<!-- 35936176 -->
<g id="node6" class="node"><title>35936176</title>
<ellipse fill="#8f8f8f" stroke="black" cx="80" cy="-162" rx="27" ry="18"/>
</g>
<!-- 35936176&#45;&gt;36155040 -->
<g id="edge36" class="edge"><title>35936176&#45;&gt;36155040</title>
<path fill="none" stroke="black" d="M86.6742,-179.798C89.7476,-187.994 93.4616,-197.898 96.8695,-206.985"/>
<polygon fill="black" stroke="black" points="93.6142,-208.273 100.403,-216.407 100.168,-205.815 93.6142,-208.273"/>
</g>
<!-- 36566000 -->
<g id="node7" class="node"><title>36566000</title>
<ellipse fill="#8f8f8f" stroke="black" cx="27" cy="-90" rx="27" ry="18"/>
</g>
<!-- 36566000&#45;&gt;36155040 -->
<g id="edge22" class="edge"><title>36566000&#45;&gt;36155040</title>
<path fill="none" stroke="black" d="M26.9622,-108.12C27.6785,-127.212 31.0218,-157.564 44,-180 52.3222,-194.387 65.9393,-206.774 78.3883,-216.042"/>
<polygon fill="black" stroke="black" points="76.5546,-219.032 86.7408,-221.946 80.5952,-213.316 76.5546,-219.032"/>
</g>
<!-- 36566000&#45;&gt;35936176 -->
<g id="edge24" class="edge"><title>36566000&#45;&gt;35936176</title>
<path fill="none" stroke="black" d="M39.0265,-106.338C45.8029,-115.544 54.4007,-127.224 61.9687,-137.505"/>
<polygon fill="black" stroke="black" points="59.2742,-139.748 68.0211,-145.727 64.9115,-135.598 59.2742,-139.748"/>
</g>
<!-- 36703008&#45;&gt;36155040 -->
<g id="edge26" class="edge"><title>36703008&#45;&gt;36155040</title>
<path fill="none" stroke="black" d="M106.653,-107.71C110.204,-118.114 114.204,-131.614 116,-144 119,-164.688 116.447,-188.198 113.304,-206"/>
<polygon fill="black" stroke="black" points="109.83,-205.531 111.369,-216.013 116.702,-206.859 109.83,-205.531"/>
</g>
<!-- 36703008&#45;&gt;35936176 -->
<g id="edge28" class="edge"><title>36703008&#45;&gt;35936176</title>
<path fill="none" stroke="black" d="M95.0562,-107.798C92.8206,-115.846 90.1274,-125.541 87.6407,-134.493"/>
<polygon fill="black" stroke="black" points="84.2605,-133.585 84.9563,-144.157 91.0051,-135.459 84.2605,-133.585"/>
</g>
<!-- 36740752 -->
<g id="node9" class="node"><title>36740752</title>
<ellipse fill="#8f8f8f" stroke="black" cx="172" cy="-90" rx="27" ry="18"/>
</g>
<!-- 36740752&#45;&gt;36155040 -->
<g id="edge32" class="edge"><title>36740752&#45;&gt;36155040</title>
<path fill="none" stroke="black" d="M164.159,-107.37C152.935,-132.236 132.191,-178.193 119.02,-207.371"/>
<polygon fill="black" stroke="black" points="115.792,-206.014 114.868,-216.569 122.173,-208.894 115.792,-206.014"/>
</g>
<!-- 36740752&#45;&gt;35936176 -->
<g id="edge34" class="edge"><title>36740752&#45;&gt;35936176</title>
<path fill="none" stroke="black" d="M154.261,-103.882C140.516,-114.64 121.273,-129.699 105.82,-141.793"/>
<polygon fill="black" stroke="black" points="103.402,-139.241 97.6841,-148.16 107.716,-144.753 103.402,-139.241"/>
</g>
<!-- 37191600 -->
<g id="node11" class="node"><title>37191600</title>
<ellipse fill="#63b8ff" stroke="black" cx="194" cy="-594" rx="27" ry="18"/>
</g>
<!-- 36005408 -->
<g id="node25" class="node"><title>36005408</title>
<ellipse fill="#8f8f8f" stroke="black" cx="194" cy="-666" rx="27" ry="18"/>
</g>
<!-- 37191600&#45;&gt;36005408 -->
<g id="edge84" class="edge"><title>37191600&#45;&gt;36005408</title>
<path fill="none" stroke="black" d="M194,-612.169C194,-619.869 194,-629.026 194,-637.583"/>
<polygon fill="black" stroke="black" points="190.5,-637.587 194,-647.587 197.5,-637.587 190.5,-637.587"/>
</g>
<!-- 37889280 -->
<g id="node12" class="node"><title>37889280</title>
<ellipse fill="#63b8ff" stroke="black" cx="167" cy="-522" rx="27" ry="18"/>
</g>
<!-- 37889280&#45;&gt;37191600 -->
<g id="edge74" class="edge"><title>37889280&#45;&gt;37191600</title>
<path fill="none" stroke="black" d="M173.674,-539.798C176.748,-547.994 180.462,-557.898 183.87,-566.985"/>
<polygon fill="black" stroke="black" points="180.614,-568.273 187.403,-576.407 187.168,-565.815 180.614,-568.273"/>
</g>
<!-- 35728768 -->
<g id="node13" class="node"><title>35728768</title>
<ellipse fill="#8f8f8f" stroke="black" cx="112" cy="-450" rx="27" ry="18"/>
</g>
<!-- 35728768&#45;&gt;37191600 -->
<g id="edge38" class="edge"><title>35728768&#45;&gt;37191600</title>
<path fill="none" stroke="black" d="M112.445,-468.138C113.653,-487.244 117.726,-517.609 131,-540 139.475,-554.297 153.108,-566.675 165.527,-575.961"/>
<polygon fill="black" stroke="black" points="163.675,-578.938 173.853,-581.88 167.731,-573.233 163.675,-578.938"/>
</g>
<!-- 35728768&#45;&gt;37889280 -->
<g id="edge40" class="edge"><title>35728768&#45;&gt;37889280</title>
<path fill="none" stroke="black" d="M124.48,-466.338C131.512,-475.544 140.435,-487.224 148.288,-497.505"/>
<polygon fill="black" stroke="black" points="145.717,-499.905 154.569,-505.727 151.28,-495.655 145.717,-499.905"/>
</g>
<!-- 29451344 -->
<g id="node14" class="node"><title>29451344</title>
<ellipse fill="gold" stroke="black" cx="185" cy="-450" rx="27" ry="18"/>
</g>
<!-- 29451344&#45;&gt;37191600 -->
<g id="edge42" class="edge"><title>29451344&#45;&gt;37191600</title>
<path fill="none" stroke="black" d="M192.48,-467.636C196.474,-478.014 200.974,-491.514 203,-504 206.349,-524.635 203.781,-548.146 200.544,-565.963"/>
<polygon fill="black" stroke="black" points="197.069,-565.495 198.546,-575.986 203.934,-566.864 197.069,-565.495"/>
</g>
<!-- 29451344&#45;&gt;37889280 -->
<g id="edge44" class="edge"><title>29451344&#45;&gt;37889280</title>
<path fill="none" stroke="black" d="M180.551,-467.798C178.56,-475.759 176.167,-485.333 173.949,-494.204"/>
<polygon fill="black" stroke="black" points="170.491,-493.607 171.461,-504.157 177.282,-495.305 170.491,-493.607"/>
</g>
<!-- 36022848 -->
<g id="node15" class="node"><title>36022848</title>
<ellipse fill="gold" stroke="black" cx="158" cy="-378" rx="27" ry="18"/>
</g>
<!-- 36022848&#45;&gt;29451344 -->
<g id="edge64" class="edge"><title>36022848&#45;&gt;29451344</title>
<path fill="none" stroke="black" d="M164.674,-395.798C167.748,-403.994 171.462,-413.898 174.87,-422.985"/>
<polygon fill="black" stroke="black" points="171.614,-424.273 178.403,-432.407 178.168,-421.815 171.614,-424.273"/>
</g>
<!-- 35876352 -->
<g id="node28" class="node"><title>35876352</title>
<ellipse fill="darkseagreen" stroke="black" cx="361" cy="-378" rx="27" ry="18"/>
</g>
<!-- 36022848&#45;&gt;35876352 -->
<g id="edge68" class="edge"><title>36022848&#45;&gt;35876352</title>
<path fill="none" stroke="black" stroke-dasharray="1,5" d="M185.357,-378C231.487,-378 277.616,-378 323.745,-378"/>
<polygon fill="black" stroke="black" points="323.899,-381.5 333.899,-378 323.899,-374.5 323.899,-381.5"/>
</g>
<!-- 36192736 -->
<g id="node16" class="node"><title>36192736</title>
<ellipse fill="#8f8f8f" stroke="black" cx="35" cy="-306" rx="27" ry="18"/>
</g>
<!-- 36192736&#45;&gt;29451344 -->
<g id="edge46" class="edge"><title>36192736&#45;&gt;29451344</title>
<path fill="none" stroke="black" d="M45.9699,-322.845C58.8963,-341.927 81.7095,-373.315 106,-396 121.022,-410.029 139.975,-423.11 155.551,-432.883"/>
<polygon fill="black" stroke="black" points="153.923,-435.99 164.277,-438.237 157.584,-430.024 153.923,-435.99"/>
</g>
<!-- 36192736&#45;&gt;36022848 -->
<g id="edge48" class="edge"><title>36192736&#45;&gt;36022848</title>
<path fill="none" stroke="black" d="M55.3109,-317.889C75.3412,-329.614 106.16,-347.654 128.811,-360.914"/>
<polygon fill="black" stroke="black" points="127.261,-364.062 137.659,-366.093 130.797,-358.021 127.261,-364.062"/>
</g>
<!-- 35923424&#45;&gt;29451344 -->
<g id="edge50" class="edge"><title>35923424&#45;&gt;29451344</title>
<path fill="none" stroke="black" d="M106.477,-324.1C106.701,-343.174 109.313,-373.512 122,-396 130.167,-410.476 143.769,-422.872 156.248,-432.122"/>
<polygon fill="black" stroke="black" points="154.433,-435.125 164.627,-438.011 158.458,-429.398 154.433,-435.125"/>
</g>
<!-- 35923424&#45;&gt;36022848 -->
<g id="edge52" class="edge"><title>35923424&#45;&gt;36022848</title>
<path fill="none" stroke="black" d="M118.573,-322.338C124.937,-331.323 132.972,-342.666 140.124,-352.764"/>
<polygon fill="black" stroke="black" points="137.483,-355.09 146.119,-361.227 143.195,-351.044 137.483,-355.09"/>
</g>
<!-- 35924240 -->
<g id="node18" class="node"><title>35924240</title>
<ellipse fill="#8f8f8f" stroke="black" cx="179" cy="-306" rx="27" ry="18"/>
</g>
<!-- 35924240&#45;&gt;29451344 -->
<g id="edge56" class="edge"><title>35924240&#45;&gt;29451344</title>
<path fill="none" stroke="black" d="M185.238,-323.745C188.568,-334.16 192.318,-347.66 194,-360 196.823,-380.713 194.277,-404.221 191.181,-422.017"/>
<polygon fill="black" stroke="black" points="187.708,-421.548 189.279,-432.026 194.585,-422.855 187.708,-421.548"/>
</g>
<!-- 35924240&#45;&gt;36022848 -->
<g id="edge58" class="edge"><title>35924240&#45;&gt;36022848</title>
<path fill="none" stroke="black" d="M173.809,-323.798C171.462,-331.846 168.634,-341.541 166.023,-350.493"/>
<polygon fill="black" stroke="black" points="162.644,-349.577 163.204,-360.157 169.364,-351.537 162.644,-349.577"/>
</g>
<!-- 36189776 -->
<g id="node19" class="node"><title>36189776</title>
<ellipse fill="#8f8f8f" stroke="black" cx="251" cy="-306" rx="27" ry="18"/>
</g>
<!-- 36189776&#45;&gt;29451344 -->
<g id="edge60" class="edge"><title>36189776&#45;&gt;29451344</title>
<path fill="none" stroke="black" d="M243.039,-323.37C231.642,-348.236 210.578,-394.193 197.205,-423.371"/>
<polygon fill="black" stroke="black" points="193.974,-422.02 192.989,-432.569 200.338,-424.936 193.974,-422.02"/>
</g>
<!-- 36189776&#45;&gt;36022848 -->
<g id="edge62" class="edge"><title>36189776&#45;&gt;36022848</title>
<path fill="none" stroke="black" d="M233.069,-319.882C219.174,-330.64 199.722,-345.699 184.101,-357.793"/>
<polygon fill="black" stroke="black" points="181.641,-355.271 175.876,-364.16 185.926,-360.806 181.641,-355.271"/>
</g>
<!-- 35842096 -->
<g id="node20" class="node"><title>35842096</title>
<ellipse fill="#8f8f8f" stroke="black" cx="259" cy="-450" rx="27" ry="18"/>
</g>
<!-- 35842096&#45;&gt;37191600 -->
<g id="edge70" class="edge"><title>35842096&#45;&gt;37191600</title>
<path fill="none" stroke="black" d="M251.159,-467.37C239.935,-492.236 219.191,-538.193 206.02,-567.371"/>
<polygon fill="black" stroke="black" points="202.792,-566.014 201.868,-576.569 209.173,-568.894 202.792,-566.014"/>
</g>
<!-- 35842096&#45;&gt;37889280 -->
<g id="edge72" class="edge"><title>35842096&#45;&gt;37889280</title>
<path fill="none" stroke="black" d="M241.261,-463.882C227.516,-474.64 208.273,-489.699 192.82,-501.793"/>
<polygon fill="black" stroke="black" points="190.402,-499.241 184.684,-508.16 194.716,-504.753 190.402,-499.241"/>
</g>
<!-- 38188544 -->
<g id="node22" class="node"><title>38188544</title>
<ellipse fill="#8f8f8f" stroke="black" cx="203" cy="-810" rx="27" ry="18"/>
</g>
<!-- 35875824 -->
<g id="node23" class="node"><title>35875824</title>
<ellipse fill="#8f8f8f" stroke="black" cx="176" cy="-738" rx="27" ry="18"/>
</g>
<!-- 35875824&#45;&gt;38188544 -->
<g id="edge90" class="edge"><title>35875824&#45;&gt;38188544</title>
<path fill="none" stroke="black" d="M182.674,-755.798C185.748,-763.994 189.462,-773.898 192.87,-782.985"/>
<polygon fill="black" stroke="black" points="189.614,-784.273 196.403,-792.407 196.168,-781.815 189.614,-784.273"/>
</g>
<!-- 36025648 -->
<g id="node24" class="node"><title>36025648</title>
<ellipse fill="#8f8f8f" stroke="black" cx="121" cy="-666" rx="27" ry="18"/>
</g>
<!-- 36025648&#45;&gt;38188544 -->
<g id="edge76" class="edge"><title>36025648&#45;&gt;38188544</title>
<path fill="none" stroke="black" d="M121.445,-684.138C122.653,-703.244 126.726,-733.609 140,-756 148.475,-770.297 162.108,-782.675 174.527,-791.961"/>
<polygon fill="black" stroke="black" points="172.675,-794.938 182.853,-797.88 176.731,-789.233 172.675,-794.938"/>
</g>
<!-- 36025648&#45;&gt;35875824 -->
<g id="edge78" class="edge"><title>36025648&#45;&gt;35875824</title>
<path fill="none" stroke="black" d="M133.48,-682.338C140.512,-691.544 149.435,-703.224 157.288,-713.505"/>
<polygon fill="black" stroke="black" points="154.717,-715.905 163.569,-721.727 160.28,-711.655 154.717,-715.905"/>
</g>
<!-- 36005408&#45;&gt;38188544 -->
<g id="edge80" class="edge"><title>36005408&#45;&gt;38188544</title>
<path fill="none" stroke="black" d="M201.48,-683.636C205.474,-694.014 209.974,-707.514 212,-720 215.349,-740.635 212.781,-764.146 209.544,-781.963"/>
<polygon fill="black" stroke="black" points="206.069,-781.495 207.546,-791.986 212.934,-782.864 206.069,-781.495"/>
</g>
<!-- 36005408&#45;&gt;35875824 -->
<g id="edge82" class="edge"><title>36005408&#45;&gt;35875824</title>
<path fill="none" stroke="black" d="M189.551,-683.798C187.56,-691.759 185.167,-701.333 182.949,-710.204"/>
<polygon fill="black" stroke="black" points="179.491,-709.607 180.461,-720.157 186.282,-711.305 179.491,-709.607"/>
</g>
<!-- 36458112 -->
<g id="node26" class="node"><title>36458112</title>
<ellipse fill="#8f8f8f" stroke="black" cx="268" cy="-666" rx="27" ry="18"/>
</g>
<!-- 36458112&#45;&gt;38188544 -->
<g id="edge86" class="edge"><title>36458112&#45;&gt;38188544</title>
<path fill="none" stroke="black" d="M260.159,-683.37C248.935,-708.236 228.191,-754.193 215.02,-783.371"/>
<polygon fill="black" stroke="black" points="211.792,-782.014 210.868,-792.569 218.173,-784.894 211.792,-782.014"/>
</g>
<!-- 36458112&#45;&gt;35875824 -->
<g id="edge88" class="edge"><title>36458112&#45;&gt;35875824</title>
<path fill="none" stroke="black" d="M250.261,-679.882C236.516,-690.64 217.273,-705.699 201.82,-717.793"/>
<polygon fill="black" stroke="black" points="199.402,-715.241 193.684,-724.16 203.716,-720.753 199.402,-715.241"/>
</g>
<!-- 35876352&#45;&gt;29451344 -->
<g id="edge66" class="edge"><title>35876352&#45;&gt;29451344</title>
<path fill="none" stroke="black" d="M336.861,-386.865C309.152,-397.176 262.443,-414.965 223,-432 220.795,-432.952 218.529,-433.957 216.254,-434.986"/>
<polygon fill="black" stroke="black" points="214.594,-431.897 206.985,-439.269 217.531,-438.251 214.594,-431.897"/>
</g>
<!-- 36114912 -->
<g id="node29" class="node"><title>36114912</title>
<ellipse fill="darkseagreen" stroke="black" cx="361" cy="-306" rx="27" ry="18"/>
</g>
<!-- 36114912&#45;&gt;35876352 -->
<g id="edge20" class="edge"><title>36114912&#45;&gt;35876352</title>
<path fill="none" stroke="black" d="M361,-324.169C361,-331.869 361,-341.026 361,-349.583"/>
<polygon fill="black" stroke="black" points="357.5,-349.587 361,-359.587 364.5,-349.587 357.5,-349.587"/>
</g>
<!-- 37951056 -->
<g id="node30" class="node"><title>37951056</title>
<ellipse fill="darkseagreen" stroke="black" cx="306" cy="-234" rx="27" ry="18"/>
</g>
<!-- 37951056&#45;&gt;35876352 -->
<g id="edge8" class="edge"><title>37951056&#45;&gt;35876352</title>
<path fill="none" stroke="black" d="M307.79,-252.192C310.089,-270.812 315.034,-300.299 325,-324 329.324,-334.283 335.687,-344.688 341.866,-353.584"/>
<polygon fill="black" stroke="black" points="339.2,-355.87 347.901,-361.915 344.869,-351.763 339.2,-355.87"/>
</g>
<!-- 37951056&#45;&gt;36114912 -->
<g id="edge10" class="edge"><title>37951056&#45;&gt;36114912</title>
<path fill="none" stroke="black" d="M318.48,-250.338C325.512,-259.544 334.435,-271.224 342.288,-281.505"/>
<polygon fill="black" stroke="black" points="339.717,-283.905 348.569,-289.727 345.28,-279.655 339.717,-283.905"/>
</g>
<!-- 35757968 -->
<g id="node31" class="node"><title>35757968</title>
<ellipse fill="darkseagreen" stroke="black" cx="380" cy="-234" rx="27" ry="18"/>
</g>
<!-- 35757968&#45;&gt;35876352 -->
<g id="edge12" class="edge"><title>35757968&#45;&gt;35876352</title>
<path fill="none" stroke="black" d="M388.074,-251.181C395.565,-269.489 404.511,-299.193 397,-324 393.734,-334.787 387.524,-345.389 381.169,-354.304"/>
<polygon fill="black" stroke="black" points="378.372,-352.2 375.123,-362.284 383.951,-356.427 378.372,-352.2"/>
</g>
<!-- 35757968&#45;&gt;36114912 -->
<g id="edge14" class="edge"><title>35757968&#45;&gt;36114912</title>
<path fill="none" stroke="black" d="M375.303,-251.798C373.202,-259.759 370.676,-269.333 368.335,-278.204"/>
<polygon fill="black" stroke="black" points="364.876,-277.595 365.708,-288.157 371.644,-279.382 364.876,-277.595"/>
</g>
<!-- 35958752 -->
<g id="node32" class="node"><title>35958752</title>
<ellipse fill="darkseagreen" stroke="black" cx="453" cy="-234" rx="27" ry="18"/>
</g>
<!-- 35958752&#45;&gt;35876352 -->
<g id="edge16" class="edge"><title>35958752&#45;&gt;35876352</title>
<path fill="none" stroke="black" d="M446.883,-251.809C439.971,-270.641 427.621,-300.778 412,-324 404.163,-335.651 393.765,-347.16 384.404,-356.541"/>
<polygon fill="black" stroke="black" points="381.909,-354.085 377.187,-363.569 386.793,-359.1 381.909,-354.085"/>
</g>
<!-- 35958752&#45;&gt;36114912 -->
<g id="edge18" class="edge"><title>35958752&#45;&gt;36114912</title>
<path fill="none" stroke="black" d="M435.261,-247.882C421.516,-258.64 402.273,-273.699 386.82,-285.793"/>
<polygon fill="black" stroke="black" points="384.402,-283.241 378.684,-292.16 388.716,-288.753 384.402,-283.241"/>
</g>
</g>
</svg>
