<?xml version="1.0" encoding="UTF-8" standalone="no"?>
<!DOCTYPE svg PUBLIC "-//W3C//DTD SVG 1.1//EN"
 "http://www.w3.org/Graphics/SVG/1.1/DTD/svg11.dtd">
<!-- Generated by graphviz version 2.26.3 (20100126.1600)
 -->
<!-- Title: _anonymous_0 Pages: 1 -->
<svg width="2172pt" height="1268pt"
 viewBox="0.00 0.00 2172.00 1268.00" xmlns="http://www.w3.org/2000/svg" xmlns:xlink="http://www.w3.org/1999/xlink">
<g id="graph1" class="graph" transform="scale(1 1) rotate(0) translate(4 1264)">
<title>_anonymous_0</title>
<polygon fill="white" stroke="white" points="-4,5 -4,-1264 2169,-1264 2169,5 -4,5"/>
<g id="graph2" class="cluster"><title>cluster1</title>
<polygon fill="none" stroke="black" points="8,-46 8,-1252 1822,-1252 1822,-46 8,-46"/>
<text text-anchor="middle" x="915" y="-57.4" font-family="Times Roman,serif" font-size="24.00">Venture Families</text>
</g>
<g id="graph3" class="cluster"><title>cluster2</title>
<polygon fill="none" stroke="black" points="1101,-91 1101,-456 1771,-456 1771,-91 1101,-91"/>
<text text-anchor="middle" x="1436" y="-102.4" font-family="Times Roman,serif" font-size="24.00">1</text>
</g>
<g id="graph4" class="cluster"><title>cluster3</title>
<polygon fill="none" stroke="black" points="16,-464 16,-871 1814,-871 1814,-464 16,-464"/>
<text text-anchor="middle" x="915" y="-475.4" font-family="Times Roman,serif" font-size="24.00">2</text>
</g>
<g id="graph5" class="cluster"><title>cluster4</title>
<polygon fill="none" stroke="black" points="1032,-879 1032,-1244 1702,-1244 1702,-879 1032,-879"/>
<text text-anchor="middle" x="1367" y="-890.4" font-family="Times Roman,serif" font-size="24.00">3</text>
</g>
<g id="graph6" class="cluster"><title>cluster5</title>
<polygon fill="none" stroke="black" points="1830,-631 1830,-741 2144,-741 2144,-631 1830,-631"/>
</g>
<!-- 49832560 -->
<g id="node3" class="node"><title>49832560</title>
<ellipse fill="dodgerblue" stroke="black" cx="1355" cy="-401" rx="224.86" ry="46.669"/>
<text text-anchor="middle" x="1355" y="-408.4" font-family="Times Roman,serif" font-size="24.00">exp: (bernoulli 0.100000)</text>
<text text-anchor="middle" x="1355" y="-379.4" font-family="Times Roman,serif" font-size="24.00">value: #f</text>
</g>
<!-- 51433840 -->
<g id="node11" class="node"><title>51433840</title>
<ellipse fill="khaki" stroke="black" cx="1313" cy="-556" rx="167.084" ry="46.669"/>
<text text-anchor="middle" x="1313" y="-563.4" font-family="Times Roman,serif" font-size="24.00">exp: coin_is_tricky</text>
<text text-anchor="middle" x="1313" y="-534.4" font-family="Times Roman,serif" font-size="24.00">value: #f</text>
</g>
<!-- 49832560&#45;&gt;51433840 -->
<g id="edge43" class="edge"><title>49832560&#45;&gt;51433840</title>
<path fill="none" stroke="black" d="M1342.4,-447.505C1337.95,-463.904 1332.91,-482.521 1328.27,-499.645"/>
<polygon fill="black" stroke="black" points="1324.83,-498.96 1325.59,-509.528 1331.59,-500.791 1324.83,-498.96"/>
</g>
<!-- 49914976 -->
<g id="node4" class="node"><title>49914976</title>
<ellipse fill="#6e8b3d" stroke="black" cx="1377" cy="-292" rx="99.9096" ry="26.163"/>
<text text-anchor="middle" x="1377" y="-284.9" font-family="Times Roman,serif" font-size="24.00">request: []</text>
</g>
<!-- 49914976&#45;&gt;49832560 -->
<g id="edge17" class="edge"><title>49914976&#45;&gt;49832560</title>
<path fill="none" stroke="black" d="M1371.73,-318.108C1370.12,-326.064 1368.29,-335.139 1366.44,-344.297"/>
<polygon fill="black" stroke="black" points="1362.99,-343.723 1364.44,-354.218 1369.85,-345.108 1362.99,-343.723"/>
</g>
<!-- 50659200 -->
<g id="node5" class="node"><title>50659200</title>
<ellipse fill="khaki" stroke="black" cx="1594" cy="-183" rx="168.999" ry="46.669"/>
<text text-anchor="middle" x="1594" y="-190.4" font-family="Times Roman,serif" font-size="24.00">exp: bernoulli</text>
<text text-anchor="middle" x="1594" y="-161.4" font-family="Times Roman,serif" font-size="24.00">value: sp:bernoulli</text>
</g>
<!-- 50659200&#45;&gt;49832560 -->
<g id="edge7" class="edge"><title>50659200&#45;&gt;49832560</title>
<path fill="none" stroke="black" d="M1563.3,-228.732C1543.3,-256.501 1515.51,-291.567 1486,-318 1472.63,-329.973 1457.34,-341.338 1442.04,-351.601"/>
<polygon fill="black" stroke="black" points="1439.98,-348.765 1433.55,-357.185 1443.83,-354.614 1439.98,-348.765"/>
</g>
<!-- 50659200&#45;&gt;49914976 -->
<g id="edge9" class="edge"><title>50659200&#45;&gt;49914976</title>
<path fill="none" stroke="black" d="M1512.58,-223.898C1485.81,-237.343 1456.7,-251.967 1432.33,-264.206"/>
<polygon fill="black" stroke="black" points="1430.61,-261.156 1423.24,-268.772 1433.75,-267.411 1430.61,-261.156"/>
</g>
<!-- 50696944 -->
<g id="node6" class="node"><title>50696944</title>
<ellipse fill="#eead0e" stroke="black" cx="1258" cy="-183" rx="149.2" ry="46.669"/>
<text text-anchor="middle" x="1258" y="-190.4" font-family="Times Roman,serif" font-size="24.00">exp: 0.100000</text>
<text text-anchor="middle" x="1258" y="-161.4" font-family="Times Roman,serif" font-size="24.00">value: 0.100000</text>
</g>
<!-- 50696944&#45;&gt;49832560 -->
<g id="edge13" class="edge"><title>50696944&#45;&gt;49832560</title>
<path fill="none" stroke="black" d="M1253.37,-229.786C1252.63,-256.788 1255.1,-290.695 1268,-318 1273.16,-328.912 1280.42,-339.128 1288.58,-348.406"/>
<polygon fill="black" stroke="black" points="1286.24,-351.033 1295.61,-355.974 1291.37,-346.267 1286.24,-351.033"/>
</g>
<!-- 50696944&#45;&gt;49914976 -->
<g id="edge15" class="edge"><title>50696944&#45;&gt;49914976</title>
<path fill="none" stroke="black" d="M1306.06,-227.02C1318.11,-238.062 1330.82,-249.7 1342.09,-260.028"/>
<polygon fill="black" stroke="black" points="1339.91,-262.772 1349.65,-266.945 1344.64,-257.61 1339.91,-262.772"/>
</g>
<!-- 51013584 -->
<g id="node8" class="node"><title>51013584</title>
<ellipse fill="dodgerblue" stroke="black" cx="1077" cy="-816" rx="729.234" ry="46.669"/>
<text text-anchor="middle" x="1077" y="-823.4" font-family="Times Roman,serif" font-size="24.00">exp: (branch_exp coin_is_tricky (quote (beta 1.000000 1.000000)) (quote 0.500000))</text>
<text text-anchor="middle" x="1077" y="-794.4" font-family="Times Roman,serif" font-size="24.00">value: 0.500000</text>
</g>
<!-- 50595280 -->
<g id="node18" class="node"><title>50595280</title>
<ellipse fill="khaki" stroke="black" cx="1189" cy="-971" rx="149.2" ry="46.669"/>
<text text-anchor="middle" x="1189" y="-978.4" font-family="Times Roman,serif" font-size="24.00">exp: weight</text>
<text text-anchor="middle" x="1189" y="-949.4" font-family="Times Roman,serif" font-size="24.00">value: 0.500000</text>
</g>
<!-- 51013584&#45;&gt;50595280 -->
<g id="edge29" class="edge"><title>51013584&#45;&gt;50595280</title>
<path fill="none" stroke="black" d="M1110.6,-862.505C1123.01,-879.671 1137.17,-899.265 1150.01,-917.036"/>
<polygon fill="black" stroke="black" points="1147.5,-919.539 1156.19,-925.594 1153.17,-915.439 1147.5,-919.539"/>
</g>
<!-- 51795264 -->
<g id="node9" class="node"><title>51795264</title>
<ellipse fill="#6e8b3d" stroke="black" cx="1077" cy="-686" rx="358.003" ry="26.163"/>
<text text-anchor="middle" x="1077" y="-678.9" font-family="Times Roman,serif" font-size="24.00">request: [(51795264, 0.500000, &lt;env&gt;)]</text>
</g>
<!-- 51795264&#45;&gt;51013584 -->
<g id="edge53" class="edge"><title>51795264&#45;&gt;51013584</title>
<path fill="none" stroke="black" d="M1077,-712.307C1077,-725.886 1077,-743.006 1077,-759.401"/>
<polygon fill="black" stroke="black" points="1073.5,-759.477 1077,-769.477 1080.5,-759.477 1073.5,-759.477"/>
</g>
<!-- 51372320 -->
<g id="node10" class="node"><title>51372320</title>
<ellipse fill="khaki" stroke="black" cx="1652" cy="-556" rx="154.149" ry="46.669"/>
<text text-anchor="middle" x="1652" y="-563.4" font-family="Times Roman,serif" font-size="24.00">exp: branch_exp</text>
<text text-anchor="middle" x="1652" y="-534.4" font-family="Times Roman,serif" font-size="24.00">value: sp:branch</text>
</g>
<!-- 51372320&#45;&gt;51013584 -->
<g id="edge33" class="edge"><title>51372320&#45;&gt;51013584</title>
<path fill="none" stroke="black" d="M1617.65,-601.725C1582.8,-644.667 1524.87,-707.22 1460,-741 1439.93,-751.452 1404.26,-761.556 1362.49,-770.781"/>
<polygon fill="black" stroke="black" points="1361.66,-767.381 1352.62,-772.921 1363.14,-774.222 1361.66,-767.381"/>
</g>
<!-- 51372320&#45;&gt;51795264 -->
<g id="edge35" class="edge"><title>51372320&#45;&gt;51795264</title>
<path fill="none" stroke="black" d="M1542.73,-588.84C1524.84,-593.832 1506.45,-598.734 1489,-603 1400.64,-624.601 1300.63,-644.847 1221.28,-659.935"/>
<polygon fill="black" stroke="black" points="1220.38,-656.542 1211.21,-661.843 1221.69,-663.42 1220.38,-656.542"/>
</g>
<!-- 51433840&#45;&gt;51013584 -->
<g id="edge39" class="edge"><title>51433840&#45;&gt;51013584</title>
<path fill="none" stroke="black" d="M1408.68,-594.34C1422.81,-604.175 1435.46,-616.263 1444,-631 1468.52,-673.295 1474.92,-703.127 1444,-741 1434.69,-752.402 1417.2,-762.116 1394.72,-770.383"/>
<polygon fill="black" stroke="black" points="1393.44,-767.123 1385.15,-773.719 1395.74,-773.733 1393.44,-767.123"/>
</g>
<!-- 51433840&#45;&gt;51795264 -->
<g id="edge41" class="edge"><title>51433840&#45;&gt;51795264</title>
<path fill="none" stroke="black" d="M1237.35,-597.669C1203.49,-616.325 1164.25,-637.938 1133.07,-655.115"/>
<polygon fill="black" stroke="black" points="1131.15,-652.174 1124.08,-660.065 1134.53,-658.305 1131.15,-652.174"/>
</g>
<!-- 49684960 -->
<g id="node12" class="node"><title>49684960</title>
<ellipse fill="#eead0e" stroke="black" cx="786" cy="-556" rx="342.24" ry="46.669"/>
<text text-anchor="middle" x="786" y="-563.4" font-family="Times Roman,serif" font-size="24.00">exp: (quote (beta 1.000000 1.000000))</text>
<text text-anchor="middle" x="786" y="-534.4" font-family="Times Roman,serif" font-size="24.00">value: (beta 1.000000 1.000000)</text>
</g>
<!-- 49684960&#45;&gt;51013584 -->
<g id="edge45" class="edge"><title>49684960&#45;&gt;51013584</title>
<path fill="none" stroke="black" d="M728.481,-602.095C720.96,-610.848 714.362,-620.567 710,-631 691.142,-676.105 679.084,-703.127 710,-741 719.307,-752.402 736.796,-762.116 759.283,-770.383"/>
<polygon fill="black" stroke="black" points="758.259,-773.733 768.854,-773.719 760.563,-767.123 758.259,-773.733"/>
</g>
<!-- 49684960&#45;&gt;51795264 -->
<g id="edge47" class="edge"><title>49684960&#45;&gt;51795264</title>
<path fill="none" stroke="black" d="M885.739,-600.557C926.842,-618.919 973.371,-639.705 1010.24,-656.178"/>
<polygon fill="black" stroke="black" points="1008.84,-659.385 1019.4,-660.269 1011.7,-652.994 1008.84,-659.385"/>
</g>
<!-- 43408464 -->
<g id="node13" class="node"><title>43408464</title>
<ellipse fill="#eead0e" stroke="black" cx="225" cy="-556" rx="200.818" ry="46.669"/>
<text text-anchor="middle" x="225" y="-563.4" font-family="Times Roman,serif" font-size="24.00">exp: (quote 0.500000)</text>
<text text-anchor="middle" x="225" y="-534.4" font-family="Times Roman,serif" font-size="24.00">value: 0.500000</text>
</g>
<!-- 43408464&#45;&gt;51013584 -->
<g id="edge49" class="edge"><title>43408464&#45;&gt;51013584</title>
<path fill="none" stroke="black" d="M314.568,-597.703C406.543,-639.109 554.685,-701.899 688,-741 725.573,-752.02 765.673,-761.848 805.318,-770.469"/>
<polygon fill="black" stroke="black" points="804.601,-773.895 815.114,-772.577 806.074,-767.052 804.601,-773.895"/>
</g>
<!-- 43408464&#45;&gt;51795264 -->
<g id="edge51" class="edge"><title>43408464&#45;&gt;51795264</title>
<path fill="none" stroke="black" d="M365.562,-589.323C388.69,-594.269 412.464,-599.03 435,-603 577.247,-628.059 738.476,-648.876 863.776,-663.395"/>
<polygon fill="black" stroke="black" points="863.54,-666.891 873.875,-664.56 864.343,-659.937 863.54,-666.891"/>
</g>
<!-- 50507904 -->
<g id="node15" class="node"><title>50507904</title>
<ellipse fill="#8b008b" stroke="black" cx="1369" cy="-1189" rx="202.94" ry="46.669"/>
<text text-anchor="middle" x="1369" y="-1196.4" font-family="Times Roman,serif" font-size="24.00">exp: (bernoulli weight)</text>
<text text-anchor="middle" x="1369" y="-1167.4" font-family="Times Roman,serif" font-size="24.00">value: #t</text>
</g>
<!-- 50209568 -->
<g id="node16" class="node"><title>50209568</title>
<ellipse fill="#6e8b3d" stroke="black" cx="1369" cy="-1080" rx="99.9096" ry="26.163"/>
<text text-anchor="middle" x="1369" y="-1072.9" font-family="Times Roman,serif" font-size="24.00">request: []</text>
</g>
<!-- 50209568&#45;&gt;50507904 -->
<g id="edge31" class="edge"><title>50209568&#45;&gt;50507904</title>
<path fill="none" stroke="black" d="M1369,-1106.11C1369,-1113.98 1369,-1122.95 1369,-1132"/>
<polygon fill="black" stroke="black" points="1365.5,-1132.22 1369,-1142.22 1372.5,-1132.22 1365.5,-1132.22"/>
</g>
<!-- 50559104 -->
<g id="node17" class="node"><title>50559104</title>
<ellipse fill="khaki" stroke="black" cx="1525" cy="-971" rx="168.999" ry="46.669"/>
<text text-anchor="middle" x="1525" y="-978.4" font-family="Times Roman,serif" font-size="24.00">exp: bernoulli</text>
<text text-anchor="middle" x="1525" y="-949.4" font-family="Times Roman,serif" font-size="24.00">value: sp:bernoulli</text>
</g>
<!-- 50559104&#45;&gt;50507904 -->
<g id="edge19" class="edge"><title>50559104&#45;&gt;50507904</title>
<path fill="none" stroke="black" d="M1515.9,-1017.62C1508.86,-1045.21 1497.02,-1079.78 1478,-1106 1469.38,-1117.89 1458.57,-1128.87 1447.14,-1138.69"/>
<polygon fill="black" stroke="black" points="1444.62,-1136.24 1439.14,-1145.31 1449.08,-1141.63 1444.62,-1136.24"/>
</g>
<!-- 50559104&#45;&gt;50209568 -->
<g id="edge21" class="edge"><title>50559104&#45;&gt;50209568</title>
<path fill="none" stroke="black" d="M1462.9,-1014.39C1445.98,-1026.21 1428.02,-1038.76 1412.38,-1049.69"/>
<polygon fill="black" stroke="black" points="1410.15,-1046.98 1403.96,-1055.57 1414.16,-1052.72 1410.15,-1046.98"/>
</g>
<!-- 50595280&#45;&gt;50507904 -->
<g id="edge25" class="edge"><title>50595280&#45;&gt;50507904</title>
<path fill="none" stroke="black" d="M1207.23,-1017.18C1219.53,-1044.78 1237.6,-1079.51 1260,-1106 1269.83,-1117.62 1281.55,-1128.62 1293.61,-1138.57"/>
<polygon fill="black" stroke="black" points="1291.58,-1141.43 1301.57,-1144.96 1295.96,-1135.97 1291.58,-1141.43"/>
</g>
<!-- 50595280&#45;&gt;50209568 -->
<g id="edge27" class="edge"><title>50595280&#45;&gt;50209568</title>
<path fill="none" stroke="black" d="M1257.31,-1012.36C1278.44,-1025.16 1301.26,-1038.98 1320.74,-1050.78"/>
<polygon fill="black" stroke="black" points="1319.07,-1053.86 1329.44,-1056.04 1322.69,-1047.87 1319.07,-1053.86"/>
</g>
<!-- 49961600 -->
<g id="node20" class="node"><title>49961600</title>
<ellipse fill="#eead0e" stroke="black" cx="1987" cy="-686" rx="149.2" ry="46.669"/>
<text text-anchor="middle" x="1987" y="-693.4" font-family="Times Roman,serif" font-size="24.00">exp: 0.500000</text>
<text text-anchor="middle" x="1987" y="-664.4" font-family="Times Roman,serif" font-size="24.00">value: 0.500000</text>
</g>
<!-- 49961600&#45;&gt;51013584 -->
<g id="edge55" class="edge"><title>49961600&#45;&gt;51013584</title>
<path fill="none" stroke="black" d="M1890.11,-721.452C1866.76,-728.901 1841.7,-736.004 1818,-741 1740.5,-757.337 1657.66,-770.15 1576.48,-780.19"/>
<polygon fill="black" stroke="black" points="1575.57,-776.774 1566.07,-781.463 1576.42,-783.722 1575.57,-776.774"/>
</g>
<!-- 43380816 -->
<g id="node23" class="node"><title>43380816</title>
<ellipse fill="none" stroke="black" cx="1889" cy="-19" rx="62.9325" ry="18.3848"/>
<text text-anchor="middle" x="1889" y="-15.4" font-family="Times Roman,serif" font-size="14.00">43380816</text>
</g>
<!-- 43380816&#45;&gt;50659200 -->
<g id="edge11" class="edge"><title>43380816&#45;&gt;50659200</title>
<path fill="none" stroke="black" d="M1859.36,-35.4758C1817.31,-58.8565 1738.67,-102.575 1677.87,-136.374"/>
<polygon fill="black" stroke="black" points="1676.08,-133.367 1669.04,-141.285 1679.48,-139.485 1676.08,-133.367"/>
</g>
<!-- 43380816&#45;&gt;50559104 -->
<g id="edge23" class="edge"><title>43380816&#45;&gt;50559104</title>
<path fill="none" stroke="black" d="M1925.23,-34.3076C1999.91,-68.5612 2164,-158.966 2164,-292 2164,-292 2164,-292 2164,-686 2164,-860.379 1981.68,-810.864 1818,-871 1760.77,-892.027 1696.72,-914.054 1643.15,-932.067"/>
<polygon fill="black" stroke="black" points="1641.98,-928.767 1633.61,-935.267 1644.2,-935.403 1641.98,-928.767"/>
</g>
<!-- 45024496 -->
<g id="node37" class="node"><title>45024496</title>
<ellipse fill="none" stroke="black" cx="1893" cy="-401" rx="62.9325" ry="18.3848"/>
<text text-anchor="middle" x="1893" y="-397.4" font-family="Times Roman,serif" font-size="14.00">45024496</text>
</g>
<!-- 45024496&#45;&gt;51372320 -->
<g id="edge37" class="edge"><title>45024496&#45;&gt;51372320</title>
<path fill="none" stroke="black" d="M1866.75,-417.883C1833.26,-439.422 1773.95,-477.569 1726.13,-508.323"/>
<polygon fill="black" stroke="black" points="1724.17,-505.424 1717.65,-513.778 1727.95,-511.312 1724.17,-505.424"/>
</g>
</g>
</svg>
