<?xml version="1.0" encoding="UTF-8" standalone="no"?>
<!DOCTYPE svg PUBLIC "-//W3C//DTD SVG 1.1//EN"
 "http://www.w3.org/Graphics/SVG/1.1/DTD/svg11.dtd">
<!-- Generated by graphviz version 2.26.3 (20100126.1600)
 -->
<!-- Title: _anonymous_0 Pages: 1 -->
<svg width="654pt" height="500pt"
 viewBox="0.00 0.00 654.00 500.00" xmlns="http://www.w3.org/2000/svg" xmlns:xlink="http://www.w3.org/1999/xlink">
<g id="graph1" class="graph" transform="scale(1 1) rotate(0) translate(4 496)">
<title>_anonymous_0</title>
<polygon fill="white" stroke="white" points="-4,5 -4,-496 651,-496 651,5 -4,5"/>
<g id="graph3" class="cluster"><title>cluster1</title>
<polygon fill="none" stroke="black" points="8,-80 8,-412 536,-412 536,-80 8,-80"/>
</g>
<!-- nd -->
<g id="node2" class="node"><title>nd</title>
<ellipse fill="#5c5c5c" stroke="black" cx="523" cy="-26" rx="60.1041" ry="26.163"/>
<text text-anchor="middle" x="523" y="-18.9" font-family="Times Roman,serif" font-size="24.00">prefix</text>
</g>
<!-- parents -->
<g id="node4" class="node"><title>parents</title>
<ellipse fill="plum" stroke="black" cx="452" cy="-114" rx="75.8684" ry="26.163"/>
<text text-anchor="middle" x="452" y="-106.9" font-family="Times Roman,serif" font-size="24.00">parents</text>
</g>
<!-- nd&#45;&gt;parents -->
<g id="edge5" class="edge"><title>nd&#45;&gt;parents</title>
<path fill="none" stroke="black" d="M502.844,-50.9819C495.413,-60.1919 486.872,-70.7785 478.937,-80.6129"/>
<polygon fill="black" stroke="black" points="476.008,-78.6696 472.453,-88.6501 481.456,-83.0651 476.008,-78.6696"/>
</g>
<!-- insulated -->
<g id="node9" class="node"><title>insulated</title>
<ellipse fill="#5c5c5c" stroke="black" cx="556" cy="-466" rx="90.0096" ry="26.163"/>
<text text-anchor="middle" x="556" y="-458.9" font-family="Times Roman,serif" font-size="24.00">insulated</text>
</g>
<!-- nd&#45;&gt;insulated -->
<g id="edge21" class="edge"><title>nd&#45;&gt;insulated</title>
<path fill="none" stroke="black" d="M540.187,-50.9586C561.2,-83.9655 594,-144.67 594,-202 594,-202 594,-202 594,-290 594,-339.363 579.541,-394.795 568.461,-430.026"/>
<polygon fill="black" stroke="black" points="565.033,-429.252 565.296,-439.843 571.696,-431.4 565.033,-429.252"/>
</g>
<!-- drg -->
<g id="node5" class="node"><title>drg</title>
<ellipse fill="gold" stroke="black" cx="262" cy="-290" rx="246.073" ry="26.163"/>
<text text-anchor="middle" x="262" y="-282.9" font-family="Times Roman,serif" font-size="24.00">definite regeneration graph</text>
</g>
<!-- parents&#45;&gt;drg -->
<g id="edge7" class="edge"><title>parents&#45;&gt;drg</title>
<path fill="none" stroke="black" d="M410.809,-135.971C392.442,-146.765 371.134,-160.73 354,-176 327.451,-199.661 302.457,-231.485 285.24,-255.496"/>
<polygon fill="black" stroke="black" points="282.173,-253.772 279.261,-263.959 287.89,-257.811 282.173,-253.772"/>
</g>
<!-- brush -->
<g id="node6" class="node"><title>brush</title>
<ellipse fill="darkseagreen" stroke="black" cx="422" cy="-202" rx="58.8978" ry="26.163"/>
<text text-anchor="middle" x="422" y="-194.9" font-family="Times Roman,serif" font-size="24.00">brush</text>
</g>
<!-- parents&#45;&gt;brush -->
<g id="edge9" class="edge"><title>parents&#45;&gt;brush</title>
<path fill="none" stroke="black" d="M443.161,-139.927C440.323,-148.252 437.129,-157.622 434.099,-166.51"/>
<polygon fill="black" stroke="black" points="430.69,-165.664 430.776,-176.258 437.315,-167.923 430.69,-165.664"/>
</g>
<!-- absorbing -->
<g id="node7" class="node"><title>absorbing</title>
<ellipse fill="saddlebrown" stroke="black" cx="371" cy="-378" rx="156.978" ry="26.163"/>
<text text-anchor="middle" x="371" y="-370.9" font-family="Times Roman,serif" font-size="24.00">absorbing border</text>
</g>
<!-- parents&#45;&gt;absorbing -->
<g id="edge11" class="edge"><title>parents&#45;&gt;absorbing</title>
<path fill="none" stroke="black" d="M473.157,-139.205C504.192,-179.416 554.511,-259.318 517,-316 506.453,-331.938 490.894,-343.791 473.815,-352.603"/>
<polygon fill="black" stroke="black" points="472.271,-349.462 464.765,-356.939 475.295,-355.775 472.271,-349.462"/>
</g>
<!-- parents&#45;&gt;insulated -->
<g id="edge23" class="edge"><title>parents&#45;&gt;insulated</title>
<path fill="none" stroke="black" d="M485.051,-137.751C497.043,-148.119 509.48,-161.279 517,-176 559.532,-259.261 561.067,-372.693 558.569,-429.88"/>
<polygon fill="black" stroke="black" points="555.073,-429.721 558.065,-439.884 562.064,-430.073 555.073,-429.721"/>
</g>
<!-- drg&#45;&gt;brush -->
<g id="edge13" class="edge"><title>drg&#45;&gt;brush</title>
<path fill="none" stroke="black" d="M314.603,-264.473C335.792,-253.217 359.864,-239.99 379.874,-228.611"/>
<polygon fill="black" stroke="black" points="381.816,-231.532 388.757,-223.527 378.339,-225.457 381.816,-231.532"/>
</g>
<!-- drg&#45;&gt;absorbing -->
<g id="edge17" class="edge"><title>drg&#45;&gt;absorbing</title>
<path fill="none" stroke="black" d="M294.114,-315.927C305.756,-325.326 319.048,-336.057 331.268,-345.923"/>
<polygon fill="black" stroke="black" points="329.136,-348.7 339.115,-352.258 333.533,-343.253 329.136,-348.7"/>
</g>
<!-- brush&#45;&gt;drg -->
<g id="edge15" class="edge"><title>brush&#45;&gt;drg</title>
<path fill="none" stroke="black" d="M381.604,-221.095C360.239,-232.251 333.899,-246.593 311.349,-259.301"/>
<polygon fill="black" stroke="black" points="309.564,-256.289 302.589,-264.264 313.015,-262.38 309.564,-256.289"/>
</g>
<!-- absorbing&#45;&gt;insulated -->
<g id="edge19" class="edge"><title>absorbing&#45;&gt;insulated</title>
<path fill="none" stroke="black" d="M423.025,-402.747C447.001,-414.152 475.495,-427.706 499.946,-439.336"/>
<polygon fill="black" stroke="black" points="498.567,-442.556 509.101,-443.691 501.574,-436.235 498.567,-442.556"/>
</g>
</g>
</svg>
