<?xml version="1.0" encoding="UTF-8" standalone="no"?>
<!DOCTYPE svg PUBLIC "-//W3C//DTD SVG 1.1//EN"
 "http://www.w3.org/Graphics/SVG/1.1/DTD/svg11.dtd">
<!-- Generated by graphviz version 2.26.3 (20100126.1600)
 -->
<!-- Title: _anonymous_0 Pages: 1 -->
<svg width="662pt" height="534pt"
 viewBox="0.00 0.00 662.00 534.00" xmlns="http://www.w3.org/2000/svg" xmlns:xlink="http://www.w3.org/1999/xlink">
<g id="graph1" class="graph" transform="scale(1 1) rotate(0) translate(4 530)">
<title>_anonymous_0</title>
<polygon fill="white" stroke="white" points="-4,5 -4,-530 659,-530 659,5 -4,5"/>
<g id="graph3" class="cluster"><title>cluster1</title>
<polygon fill="none" stroke="black" points="8,-60 8,-446 544,-446 544,-60 8,-60"/>
<text text-anchor="middle" x="276" y="-71.4" font-family="Times Roman,serif" font-size="24.00">read</text>
</g>
<g id="graph4" class="cluster"><title>cluster2</title>
<polygon fill="none" stroke="black" points="16,-165 16,-358 524,-358 524,-165 16,-165"/>
<text text-anchor="middle" x="270" y="-176.4" font-family="Times Roman,serif" font-size="24.00">write</text>
</g>
<!-- nd -->
<g id="node2" class="node"><title>nd</title>
<ellipse fill="#5c5c5c" stroke="black" cx="531" cy="-26" rx="60.1041" ry="26.163"/>
<text text-anchor="middle" x="531" y="-18.9" font-family="Times Roman,serif" font-size="24.00">prefix</text>
</g>
<!-- parents -->
<g id="node4" class="node"><title>parents</title>
<ellipse fill="plum" stroke="black" cx="460" cy="-131" rx="75.8684" ry="26.163"/>
<text text-anchor="middle" x="460" y="-123.9" font-family="Times Roman,serif" font-size="24.00">parents</text>
</g>
<!-- nd&#45;&gt;parents -->
<g id="edge6" class="edge"><title>nd&#45;&gt;parents</title>
<path fill="none" stroke="black" d="M513.994,-51.1501C504.734,-64.8436 493.146,-81.9813 483.081,-96.8655"/>
<polygon fill="black" stroke="black" points="480.063,-95.0812 477.361,-105.326 485.862,-99.0023 480.063,-95.0812"/>
</g>
<!-- insulated -->
<g id="node10" class="node"><title>insulated</title>
<ellipse fill="#5c5c5c" stroke="black" cx="564" cy="-500" rx="90.0096" ry="26.163"/>
<text text-anchor="middle" x="564" y="-492.9" font-family="Times Roman,serif" font-size="24.00">insulated</text>
</g>
<!-- nd&#45;&gt;insulated -->
<g id="edge22" class="edge"><title>nd&#45;&gt;insulated</title>
<path fill="none" stroke="black" d="M545.539,-51.2562C566.311,-89.7858 602,-166.148 602,-236 602,-236 602,-236 602,-324 602,-378.578 602.36,-393.345 588,-446 586.299,-452.236 583.982,-458.672 581.455,-464.834"/>
<polygon fill="black" stroke="black" points="578.151,-463.655 577.37,-474.221 584.57,-466.449 578.151,-463.655"/>
</g>
<!-- drg -->
<g id="node6" class="node"><title>drg</title>
<ellipse fill="gold" stroke="black" cx="270" cy="-324" rx="246.073" ry="26.163"/>
<text text-anchor="middle" x="270" y="-316.9" font-family="Times Roman,serif" font-size="24.00">definite regeneration graph</text>
</g>
<!-- parents&#45;&gt;drg -->
<g id="edge8" class="edge"><title>parents&#45;&gt;drg</title>
<path fill="none" stroke="black" d="M396.233,-145.323C383.667,-150.149 371.224,-156.546 361,-165 321.455,-197.698 295.611,-252.331 281.906,-288.266"/>
<polygon fill="black" stroke="black" points="278.539,-287.278 278.36,-297.872 285.106,-289.702 278.539,-287.278"/>
</g>
<!-- brush -->
<g id="node7" class="node"><title>brush</title>
<ellipse fill="darkseagreen" stroke="black" cx="429" cy="-236" rx="58.8978" ry="26.163"/>
<text text-anchor="middle" x="429" y="-228.9" font-family="Times Roman,serif" font-size="24.00">brush</text>
</g>
<!-- parents&#45;&gt;brush -->
<g id="edge10" class="edge"><title>parents&#45;&gt;brush</title>
<path fill="none" stroke="black" d="M452.337,-156.955C448.499,-169.954 443.792,-185.899 439.612,-200.056"/>
<polygon fill="black" stroke="black" points="436.157,-199.398 436.682,-209.98 442.871,-201.38 436.157,-199.398"/>
</g>
<!-- absorbing -->
<g id="node8" class="node"><title>absorbing</title>
<ellipse fill="saddlebrown" stroke="black" cx="379" cy="-412" rx="156.978" ry="26.163"/>
<text text-anchor="middle" x="379" y="-404.9" font-family="Times Roman,serif" font-size="24.00">absorbing border</text>
</g>
<!-- parents&#45;&gt;absorbing -->
<g id="edge12" class="edge"><title>parents&#45;&gt;absorbing</title>
<path fill="none" stroke="black" d="M513.2,-149.775C519.061,-153.919 524.253,-158.937 528,-165 539.274,-183.242 540.312,-340.442 528,-358 520.646,-368.487 498.933,-378.489 474.277,-386.971"/>
<polygon fill="black" stroke="black" points="473.097,-383.675 464.708,-390.145 475.301,-390.319 473.097,-383.675"/>
</g>
<!-- parents&#45;&gt;insulated -->
<g id="edge24" class="edge"><title>parents&#45;&gt;insulated</title>
<path fill="none" stroke="black" d="M518.502,-147.8C526.078,-152.266 532.946,-157.899 538,-165 602.701,-255.9 585.235,-397.973 572.264,-464.01"/>
<polygon fill="black" stroke="black" points="568.809,-463.438 570.234,-473.936 575.667,-464.84 568.809,-463.438"/>
</g>
<!-- drg&#45;&gt;brush -->
<g id="edge14" class="edge"><title>drg&#45;&gt;brush</title>
<path fill="none" stroke="black" d="M322.379,-298.438C343.299,-287.256 367.032,-274.135 386.822,-262.814"/>
<polygon fill="black" stroke="black" points="388.692,-265.776 395.612,-257.753 385.2,-259.709 388.692,-265.776"/>
</g>
<!-- drg&#45;&gt;absorbing -->
<g id="edge18" class="edge"><title>drg&#45;&gt;absorbing</title>
<path fill="none" stroke="black" d="M302.114,-349.927C313.756,-359.326 327.048,-370.057 339.268,-379.923"/>
<polygon fill="black" stroke="black" points="337.136,-382.7 347.115,-386.258 341.533,-377.253 337.136,-382.7"/>
</g>
<!-- brush&#45;&gt;drg -->
<g id="edge16" class="edge"><title>brush&#45;&gt;drg</title>
<path fill="none" stroke="black" d="M388.821,-255.095C367.582,-266.251 341.406,-280.593 319,-293.301"/>
<polygon fill="black" stroke="black" points="317.249,-290.27 310.296,-298.264 320.717,-296.351 317.249,-290.27"/>
</g>
<!-- absorbing&#45;&gt;insulated -->
<g id="edge20" class="edge"><title>absorbing&#45;&gt;insulated</title>
<path fill="none" stroke="black" d="M431.025,-436.747C455.001,-448.152 483.495,-461.706 507.946,-473.336"/>
<polygon fill="black" stroke="black" points="506.567,-476.556 517.101,-477.691 509.574,-470.235 506.567,-476.556"/>
</g>
</g>
</svg>
