<?xml version="1.0" encoding="UTF-8" standalone="no"?>
<!DOCTYPE svg PUBLIC "-//W3C//DTD SVG 1.1//EN"
 "http://www.w3.org/Graphics/SVG/1.1/DTD/svg11.dtd">
<!-- Generated by graphviz version 2.26.3 (20100126.1600)
 -->
<!-- Title: _anonymous_0 Pages: 1 -->
<svg width="617pt" height="500pt"
 viewBox="0.00 0.00 616.60 500.00" xmlns="http://www.w3.org/2000/svg" xmlns:xlink="http://www.w3.org/1999/xlink">
<g id="graph1" class="graph" transform="scale(1 1) rotate(0) translate(4 496)">
<title>_anonymous_0</title>
<polygon fill="white" stroke="white" points="-4,5 -4,-496 613.6,-496 613.6,5 -4,5"/>
<g id="graph3" class="cluster"><title>cluster1</title>
<polygon fill="none" stroke="black" points="8,-80 8,-412 536,-412 536,-80 8,-80"/>
</g>
<!-- nd -->
<g id="node2" class="node"><title>nd</title>
<ellipse fill="#5c5c5c" stroke="black" cx="340" cy="-26" rx="60.1041" ry="26.163"/>
<text text-anchor="middle" x="340" y="-18.9" font-family="Times Roman,serif" font-size="24.00">prefix</text>
</g>
<!-- parents -->
<g id="node4" class="node"><title>parents</title>
<ellipse fill="plum" stroke="black" cx="340" cy="-114" rx="75.8684" ry="26.163"/>
<text text-anchor="middle" x="340" y="-106.9" font-family="Times Roman,serif" font-size="24.00">parents</text>
</g>
<!-- nd&#45;&gt;parents -->
<g id="edge5" class="edge"><title>nd&#45;&gt;parents</title>
<path fill="none" stroke="black" d="M340,-52.4029C340,-60.3932 340,-69.3106 340,-77.8241"/>
<polygon fill="black" stroke="black" points="336.5,-77.919 340,-87.919 343.5,-77.919 336.5,-77.919"/>
</g>
<!-- insulated -->
<g id="node9" class="node"><title>insulated</title>
<ellipse fill="#5c5c5c" stroke="black" cx="284" cy="-466" rx="90.0096" ry="26.163"/>
<text text-anchor="middle" x="284" y="-458.9" font-family="Times Roman,serif" font-size="24.00">insulated</text>
</g>
<!-- nd&#45;&gt;insulated -->
<g id="edge21" class="edge"><title>nd&#45;&gt;insulated</title>
<path fill="none" stroke="black" d="M397.393,-33.6848C450.133,-42.0627 522.67,-57.3707 540,-80 629.714,-197.15 632.949,-297.4 540,-412 519.902,-436.78 444.769,-450.625 381.056,-458.074"/>
<polygon fill="black" stroke="black" points="380.484,-454.616 370.939,-459.215 381.268,-461.572 380.484,-454.616"/>
</g>
<!-- drg -->
<g id="node5" class="node"><title>drg</title>
<ellipse fill="gold" stroke="black" cx="262" cy="-290" rx="246.073" ry="26.163"/>
<text text-anchor="middle" x="262" y="-282.9" font-family="Times Roman,serif" font-size="24.00">definite regeneration graph</text>
</g>
<!-- parents&#45;&gt;drg -->
<g id="edge7" class="edge"><title>parents&#45;&gt;drg</title>
<path fill="none" stroke="black" d="M305.056,-137.281C292.46,-147.584 279.511,-160.822 272,-176 260.156,-199.935 257.993,-230.163 258.61,-253.478"/>
<polygon fill="black" stroke="black" points="255.121,-253.822 259.064,-263.656 262.114,-253.51 255.121,-253.822"/>
</g>
<!-- brush -->
<g id="node6" class="node"><title>brush</title>
<ellipse fill="darkseagreen" stroke="black" cx="340" cy="-202" rx="58.8978" ry="26.163"/>
<text text-anchor="middle" x="340" y="-194.9" font-family="Times Roman,serif" font-size="24.00">brush</text>
</g>
<!-- parents&#45;&gt;brush -->
<g id="edge9" class="edge"><title>parents&#45;&gt;brush</title>
<path fill="none" stroke="black" d="M340,-140.403C340,-148.393 340,-157.311 340,-165.824"/>
<polygon fill="black" stroke="black" points="336.5,-165.919 340,-175.919 343.5,-165.919 336.5,-165.919"/>
</g>
<!-- absorbing -->
<g id="node7" class="node"><title>absorbing</title>
<ellipse fill="saddlebrown" stroke="black" cx="284" cy="-378" rx="156.978" ry="26.163"/>
<text text-anchor="middle" x="284" y="-370.9" font-family="Times Roman,serif" font-size="24.00">absorbing border</text>
</g>
<!-- parents&#45;&gt;absorbing -->
<g id="edge11" class="edge"><title>parents&#45;&gt;absorbing</title>
<path fill="none" stroke="black" d="M383.772,-135.336C451.836,-171.357 569.998,-247.055 517,-316 502.918,-334.319 457.651,-348.368 410.714,-358.423"/>
<polygon fill="black" stroke="black" points="409.762,-355.046 400.684,-360.509 411.187,-361.9 409.762,-355.046"/>
</g>
<!-- parents&#45;&gt;insulated -->
<g id="edge23" class="edge"><title>parents&#45;&gt;insulated</title>
<path fill="none" stroke="black" d="M401.202,-129.559C429.394,-139.196 461.685,-154.034 485,-176 532.473,-220.725 551.014,-254.604 529,-316 510.35,-368.014 495.656,-380.874 450,-412 425.697,-428.569 395.961,-440.336 368.405,-448.561"/>
<polygon fill="black" stroke="black" points="367.411,-445.205 358.762,-451.325 369.339,-451.934 367.411,-445.205"/>
</g>
<!-- drg&#45;&gt;brush -->
<g id="edge13" class="edge"><title>drg&#45;&gt;brush</title>
<path fill="none" stroke="black" d="M291.272,-263.993C299.822,-254.98 309.005,-244.75 317.109,-235.235"/>
<polygon fill="black" stroke="black" points="319.888,-237.367 323.625,-227.453 314.522,-232.873 319.888,-237.367"/>
</g>
<!-- drg&#45;&gt;absorbing -->
<g id="edge17" class="edge"><title>drg&#45;&gt;absorbing</title>
<path fill="none" stroke="black" d="M268.601,-316.403C270.62,-324.481 272.877,-333.507 275.026,-342.105"/>
<polygon fill="black" stroke="black" points="271.659,-343.066 277.48,-351.919 278.45,-341.369 271.659,-343.066"/>
</g>
<!-- brush&#45;&gt;drg -->
<g id="edge15" class="edge"><title>brush&#45;&gt;drg</title>
<path fill="none" stroke="black" d="M313.04,-225.582C304.099,-234.902 294.267,-245.793 285.596,-255.939"/>
<polygon fill="black" stroke="black" points="282.683,-253.965 278.93,-263.873 288.043,-258.468 282.683,-253.965"/>
</g>
<!-- absorbing&#45;&gt;insulated -->
<g id="edge19" class="edge"><title>absorbing&#45;&gt;insulated</title>
<path fill="none" stroke="black" d="M284,-404.403C284,-412.393 284,-421.311 284,-429.824"/>
<polygon fill="black" stroke="black" points="280.5,-429.919 284,-439.919 287.5,-429.919 280.5,-429.919"/>
</g>
</g>
</svg>
