<?xml version="1.0" encoding="UTF-8" standalone="no"?>
<!DOCTYPE svg PUBLIC "-//W3C//DTD SVG 1.1//EN"
 "http://www.w3.org/Graphics/SVG/1.1/DTD/svg11.dtd">
<!-- Generated by graphviz version 2.26.3 (20100126.1600)
 -->
<!-- Title: _anonymous_0 Pages: 1 -->
<svg width="612pt" height="534pt"
 viewBox="0.00 0.00 611.84 534.00" xmlns="http://www.w3.org/2000/svg" xmlns:xlink="http://www.w3.org/1999/xlink">
<g id="graph1" class="graph" transform="scale(1 1) rotate(0) translate(4 530)">
<title>_anonymous_0</title>
<polygon fill="white" stroke="white" points="-4,5 -4,-530 608.84,-530 608.84,5 -4,5"/>
<g id="graph3" class="cluster"><title>cluster1</title>
<polygon fill="none" stroke="black" points="8,-60 8,-446 544,-446 544,-60 8,-60"/>
<text text-anchor="middle" x="276" y="-71.4" font-family="Times Roman,serif" font-size="24.00">read</text>
</g>
<g id="graph4" class="cluster"><title>cluster2</title>
<polygon fill="none" stroke="black" points="16,-165 16,-358 524,-358 524,-165 16,-165"/>
<text text-anchor="middle" x="270" y="-176.4" font-family="Times Roman,serif" font-size="24.00">write</text>
</g>
<!-- nd -->
<g id="node2" class="node"><title>nd</title>
<ellipse fill="#5c5c5c" stroke="black" cx="348" cy="-26" rx="60.1041" ry="26.163"/>
<text text-anchor="middle" x="348" y="-18.9" font-family="Times Roman,serif" font-size="24.00">prefix</text>
</g>
<!-- parents -->
<g id="node4" class="node"><title>parents</title>
<ellipse fill="plum" stroke="black" cx="348" cy="-131" rx="75.8684" ry="26.163"/>
<text text-anchor="middle" x="348" y="-123.9" font-family="Times Roman,serif" font-size="24.00">parents</text>
</g>
<!-- nd&#45;&gt;parents -->
<g id="edge6" class="edge"><title>nd&#45;&gt;parents</title>
<path fill="none" stroke="black" d="M348,-52.2251C348,-65.0038 348,-80.5808 348,-94.4991"/>
<polygon fill="black" stroke="black" points="344.5,-94.7453 348,-104.745 351.5,-94.7454 344.5,-94.7453"/>
</g>
<!-- insulated -->
<g id="node10" class="node"><title>insulated</title>
<ellipse fill="#5c5c5c" stroke="black" cx="292" cy="-500" rx="90.0096" ry="26.163"/>
<text text-anchor="middle" x="292" y="-492.9" font-family="Times Roman,serif" font-size="24.00">insulated</text>
</g>
<!-- nd&#45;&gt;insulated -->
<g id="edge22" class="edge"><title>nd&#45;&gt;insulated</title>
<path fill="none" stroke="black" d="M407.946,-29.1088C459.276,-33.0088 527.977,-41.579 548,-60 645.712,-149.894 588.623,-226.685 569,-358 563.057,-397.768 576.805,-417.945 548,-446 525.182,-468.224 450.533,-482.304 387.69,-490.494"/>
<polygon fill="black" stroke="black" points="387.196,-487.029 377.716,-491.758 388.076,-493.973 387.196,-487.029"/>
</g>
<!-- drg -->
<g id="node6" class="node"><title>drg</title>
<ellipse fill="gold" stroke="black" cx="270" cy="-324" rx="246.073" ry="26.163"/>
<text text-anchor="middle" x="270" y="-316.9" font-family="Times Roman,serif" font-size="24.00">definite regeneration graph</text>
</g>
<!-- parents&#45;&gt;drg -->
<g id="edge8" class="edge"><title>parents&#45;&gt;drg</title>
<path fill="none" stroke="black" d="M295.152,-150C289.237,-154.109 283.936,-159.058 280,-165 255.917,-201.362 257.708,-253.256 262.636,-287.75"/>
<polygon fill="black" stroke="black" points="259.217,-288.533 264.241,-297.861 266.13,-287.436 259.217,-288.533"/>
</g>
<!-- brush -->
<g id="node7" class="node"><title>brush</title>
<ellipse fill="darkseagreen" stroke="black" cx="348" cy="-236" rx="58.8978" ry="26.163"/>
<text text-anchor="middle" x="348" y="-228.9" font-family="Times Roman,serif" font-size="24.00">brush</text>
</g>
<!-- parents&#45;&gt;brush -->
<g id="edge10" class="edge"><title>parents&#45;&gt;brush</title>
<path fill="none" stroke="black" d="M348,-157.225C348,-170.004 348,-185.581 348,-199.499"/>
<polygon fill="black" stroke="black" points="344.5,-199.745 348,-209.745 351.5,-199.745 344.5,-199.745"/>
</g>
<!-- absorbing -->
<g id="node8" class="node"><title>absorbing</title>
<ellipse fill="saddlebrown" stroke="black" cx="292" cy="-412" rx="156.978" ry="26.163"/>
<text text-anchor="middle" x="292" y="-404.9" font-family="Times Roman,serif" font-size="24.00">absorbing border</text>
</g>
<!-- parents&#45;&gt;absorbing -->
<g id="edge12" class="edge"><title>parents&#45;&gt;absorbing</title>
<path fill="none" stroke="black" d="M422.898,-135.677C466.086,-140.112 514.454,-148.656 528,-165 555.368,-198.022 554.732,-324.461 528,-358 520,-368.037 465.906,-380.79 411.526,-391.381"/>
<polygon fill="black" stroke="black" points="410.539,-388.007 401.38,-393.333 411.861,-394.881 410.539,-388.007"/>
</g>
<!-- parents&#45;&gt;insulated -->
<g id="edge24" class="edge"><title>parents&#45;&gt;insulated</title>
<path fill="none" stroke="black" d="M423.453,-134.285C471.887,-138.159 528.518,-146.601 544,-165 599.229,-230.634 575.552,-278.637 543,-358 515.091,-426.042 436.571,-462.752 374.709,-481.684"/>
<polygon fill="black" stroke="black" points="373.532,-478.382 364.934,-484.572 375.516,-485.095 373.532,-478.382"/>
</g>
<!-- drg&#45;&gt;brush -->
<g id="edge14" class="edge"><title>drg&#45;&gt;brush</title>
<path fill="none" stroke="black" d="M299.272,-297.993C307.822,-288.98 317.005,-278.75 325.109,-269.235"/>
<polygon fill="black" stroke="black" points="327.888,-271.367 331.625,-261.453 322.522,-266.873 327.888,-271.367"/>
</g>
<!-- drg&#45;&gt;absorbing -->
<g id="edge18" class="edge"><title>drg&#45;&gt;absorbing</title>
<path fill="none" stroke="black" d="M276.601,-350.403C278.62,-358.481 280.877,-367.507 283.026,-376.105"/>
<polygon fill="black" stroke="black" points="279.659,-377.066 285.48,-385.919 286.45,-375.369 279.659,-377.066"/>
</g>
<!-- brush&#45;&gt;drg -->
<g id="edge16" class="edge"><title>brush&#45;&gt;drg</title>
<path fill="none" stroke="black" d="M321.04,-259.582C312.099,-268.902 302.267,-279.793 293.596,-289.939"/>
<polygon fill="black" stroke="black" points="290.683,-287.965 286.93,-297.873 296.043,-292.468 290.683,-287.965"/>
</g>
<!-- absorbing&#45;&gt;insulated -->
<g id="edge20" class="edge"><title>absorbing&#45;&gt;insulated</title>
<path fill="none" stroke="black" d="M292,-438.403C292,-446.393 292,-455.311 292,-463.824"/>
<polygon fill="black" stroke="black" points="288.5,-463.919 292,-473.919 295.5,-463.919 288.5,-463.919"/>
</g>
</g>
</svg>
