<?xml version="1.0" encoding="UTF-8" standalone="no"?>
<!DOCTYPE svg PUBLIC "-//W3C//DTD SVG 1.1//EN"
 "http://www.w3.org/Graphics/SVG/1.1/DTD/svg11.dtd">
<!-- Generated by graphviz version 2.26.3 (20100126.1600)
 -->
<!-- Title: _anonymous_0 Pages: 1 -->
<svg width="1782pt" height="1155pt"
 viewBox="0.00 0.00 1782.00 1155.00" xmlns="http://www.w3.org/2000/svg" xmlns:xlink="http://www.w3.org/1999/xlink">
<g id="graph1" class="graph" transform="scale(1 1) rotate(0) translate(4 1151)">
<title>_anonymous_0</title>
<polygon fill="white" stroke="white" points="-4,5 -4,-1151 1779,-1151 1779,5 -4,5"/>
<g id="graph2" class="cluster"><title>cluster1</title>
<polygon fill="none" stroke="black" points="134,-46 134,-1139 1326,-1139 1326,-46 134,-46"/>
<text text-anchor="middle" x="730" y="-57.4" font-family="Times Roman,serif" font-size="24.00">Venture Families</text>
</g>
<g id="graph3" class="cluster"><title>cluster2</title>
<polygon fill="none" stroke="black" points="142,-91 142,-456 1318,-456 1318,-91 142,-91"/>
<text text-anchor="middle" x="730" y="-102.4" font-family="Times Roman,serif" font-size="24.00">1</text>
</g>
<g id="graph4" class="cluster"><title>cluster3</title>
<polygon fill="none" stroke="black" points="291,-464 291,-1131 1287,-1131 1287,-464 291,-464"/>
<text text-anchor="middle" x="789" y="-475.4" font-family="Times Roman,serif" font-size="24.00">2</text>
</g>
<g id="graph5" class="cluster"><title>cluster4</title>
<polygon fill="none" stroke="black" points="1334,-631 1334,-1001 1766,-1001 1766,-631 1334,-631"/>
</g>
<!-- 44708496 -->
<g id="node3" class="node"><title>44708496</title>
<ellipse fill="dodgerblue" stroke="black" cx="734" cy="-401" rx="405.172" ry="46.669"/>
<text text-anchor="middle" x="734" y="-408.4" font-family="Times Roman,serif" font-size="24.00">exp: (make_sym_dir_mult 1.000000 2.000000)</text>
<text text-anchor="middle" x="734" y="-379.4" font-family="Times Roman,serif" font-size="24.00">value: sp:sym_dir_mult</text>
</g>
<!-- 41891216 -->
<g id="node14" class="node"><title>41891216</title>
<ellipse fill="khaki" stroke="black" cx="734" cy="-556" rx="208.096" ry="46.669"/>
<text text-anchor="middle" x="734" y="-563.4" font-family="Times Roman,serif" font-size="24.00">exp: f</text>
<text text-anchor="middle" x="734" y="-534.4" font-family="Times Roman,serif" font-size="24.00">value: sp:sym_dir_mult</text>
</g>
<!-- 44708496&#45;&gt;41891216 -->
<g id="edge20" class="edge"><title>44708496&#45;&gt;41891216</title>
<path fill="none" stroke="black" d="M734,-447.505C734,-463.677 734,-482.005 734,-498.933"/>
<polygon fill="black" stroke="black" points="730.5,-499.26 734,-509.26 737.5,-499.26 730.5,-499.26"/>
</g>
<!-- 42299664 -->
<g id="node20" class="node"><title>42299664</title>
<ellipse fill="khaki" stroke="black" cx="1550" cy="-686" rx="208.096" ry="46.669"/>
<text text-anchor="middle" x="1550" y="-693.4" font-family="Times Roman,serif" font-size="24.00">exp: f</text>
<text text-anchor="middle" x="1550" y="-664.4" font-family="Times Roman,serif" font-size="24.00">value: sp:sym_dir_mult</text>
</g>
<!-- 44708496&#45;&gt;42299664 -->
<g id="edge42" class="edge"><title>44708496&#45;&gt;42299664</title>
<path fill="none" stroke="black" d="M1084.79,-424.341C1171.65,-433.795 1251.24,-446.688 1291,-464 1378.21,-501.967 1457.93,-579.669 1505.24,-632.308"/>
<polygon fill="black" stroke="black" points="1502.72,-634.74 1511.98,-639.885 1507.95,-630.087 1502.72,-634.74"/>
</g>
<!-- 52341248 -->
<g id="node4" class="node"><title>52341248</title>
<ellipse fill="#6e8b3d" stroke="black" cx="615" cy="-292" rx="99.9096" ry="26.163"/>
<text text-anchor="middle" x="615" y="-284.9" font-family="Times Roman,serif" font-size="24.00">request: []</text>
</g>
<!-- 52341248&#45;&gt;44708496 -->
<g id="edge60" class="edge"><title>52341248&#45;&gt;44708496</title>
<path fill="none" stroke="black" d="M642.6,-317.281C652.513,-326.361 664.103,-336.976 675.636,-347.54"/>
<polygon fill="black" stroke="black" points="673.45,-350.284 683.188,-354.458 678.178,-345.123 673.45,-350.284"/>
</g>
<!-- 45671424 -->
<g id="node5" class="node"><title>45671424</title>
<ellipse fill="khaki" stroke="black" cx="1046" cy="-183" rx="263.958" ry="46.669"/>
<text text-anchor="middle" x="1046" y="-190.4" font-family="Times Roman,serif" font-size="24.00">exp: make_sym_dir_mult</text>
<text text-anchor="middle" x="1046" y="-161.4" font-family="Times Roman,serif" font-size="24.00">value: sp:make_sym_dir_mult</text>
</g>
<!-- 45671424&#45;&gt;44708496 -->
<g id="edge46" class="edge"><title>45671424&#45;&gt;44708496</title>
<path fill="none" stroke="black" d="M981.353,-228.17C930.949,-263.388 860.9,-312.333 808.208,-349.149"/>
<polygon fill="black" stroke="black" points="806.099,-346.353 799.906,-354.95 810.108,-352.091 806.099,-346.353"/>
</g>
<!-- 45671424&#45;&gt;52341248 -->
<g id="edge48" class="edge"><title>45671424&#45;&gt;52341248</title>
<path fill="none" stroke="black" d="M894.954,-221.199C828.227,-238.075 752.42,-257.246 696.535,-271.38"/>
<polygon fill="black" stroke="black" points="695.527,-268.024 686.69,-273.869 697.243,-274.811 695.527,-268.024"/>
</g>
<!-- 44783120 -->
<g id="node6" class="node"><title>44783120</title>
<ellipse fill="#eead0e" stroke="black" cx="615" cy="-183" rx="149.2" ry="46.669"/>
<text text-anchor="middle" x="615" y="-190.4" font-family="Times Roman,serif" font-size="24.00">exp: 1.000000</text>
<text text-anchor="middle" x="615" y="-161.4" font-family="Times Roman,serif" font-size="24.00">value: 1.000000</text>
</g>
<!-- 44783120&#45;&gt;44708496 -->
<g id="edge52" class="edge"><title>44783120&#45;&gt;44708496</title>
<path fill="none" stroke="black" d="M686.981,-223.926C701.581,-235.616 715.155,-249.692 724,-266 736.753,-289.513 740.143,-318.804 739.974,-344.087"/>
<polygon fill="black" stroke="black" points="736.47,-344.199 739.717,-354.284 743.468,-344.375 736.47,-344.199"/>
</g>
<!-- 44783120&#45;&gt;52341248 -->
<g id="edge54" class="edge"><title>44783120&#45;&gt;52341248</title>
<path fill="none" stroke="black" d="M615,-229.542C615,-238.249 615,-247.232 615,-255.578"/>
<polygon fill="black" stroke="black" points="611.5,-255.739 615,-265.739 618.5,-255.739 611.5,-255.739"/>
</g>
<!-- 49423840 -->
<g id="node7" class="node"><title>49423840</title>
<ellipse fill="#eead0e" stroke="black" cx="299" cy="-183" rx="149.2" ry="46.669"/>
<text text-anchor="middle" x="299" y="-190.4" font-family="Times Roman,serif" font-size="24.00">exp: 2.000000</text>
<text text-anchor="middle" x="299" y="-161.4" font-family="Times Roman,serif" font-size="24.00">value: 2.000000</text>
</g>
<!-- 49423840&#45;&gt;44708496 -->
<g id="edge56" class="edge"><title>49423840&#45;&gt;44708496</title>
<path fill="none" stroke="black" d="M357.078,-226.045C397.43,-254.636 453.231,-291.624 506,-318 531.982,-330.987 560.509,-342.999 588.326,-353.62"/>
<polygon fill="black" stroke="black" points="587.135,-356.912 597.727,-357.168 589.607,-350.363 587.135,-356.912"/>
</g>
<!-- 49423840&#45;&gt;52341248 -->
<g id="edge58" class="edge"><title>49423840&#45;&gt;52341248</title>
<path fill="none" stroke="black" d="M398.984,-217.488C446.558,-233.898 502.279,-253.119 545.213,-267.928"/>
<polygon fill="black" stroke="black" points="544.131,-271.257 554.726,-271.209 546.414,-264.64 544.131,-271.257"/>
</g>
<!-- 39368448 -->
<g id="node9" class="node"><title>39368448</title>
<ellipse fill="dodgerblue" stroke="black" cx="888" cy="-1076" rx="306.177" ry="46.669"/>
<text text-anchor="middle" x="888" y="-1083.4" font-family="Times Roman,serif" font-size="24.00">exp: (branch_exp (f) (quote (f)) #t)</text>
<text text-anchor="middle" x="888" y="-1054.4" font-family="Times Roman,serif" font-size="24.00">value: 0</text>
</g>
<!-- 41866000 -->
<g id="node10" class="node"><title>41866000</title>
<ellipse fill="#6e8b3d" stroke="black" cx="804" cy="-946" rx="297.192" ry="26.163"/>
<text text-anchor="middle" x="804" y="-938.9" font-family="Times Roman,serif" font-size="24.00">request: [(41866000, (f), &lt;env&gt;)]</text>
</g>
<!-- 41866000&#45;&gt;39368448 -->
<g id="edge32" class="edge"><title>41866000&#45;&gt;39368448</title>
<path fill="none" stroke="black" d="M820.797,-971.995C829.848,-986.003 841.377,-1003.85 852.32,-1020.78"/>
<polygon fill="black" stroke="black" points="849.606,-1023.03 857.973,-1029.53 855.486,-1019.23 849.606,-1023.03"/>
</g>
<!-- 41497248 -->
<g id="node18" class="node"><title>41497248</title>
<ellipse fill="dodgerblue" stroke="black" cx="1431" cy="-946" rx="79.9031" ry="46.669"/>
<text text-anchor="middle" x="1431" y="-953.4" font-family="Times Roman,serif" font-size="24.00">exp: (f)</text>
<text text-anchor="middle" x="1431" y="-924.4" font-family="Times Roman,serif" font-size="24.00">value: 0</text>
</g>
<!-- 41866000&#45;&gt;41497248 -->
<g id="edge36" class="edge"><title>41866000&#45;&gt;41497248</title>
<path fill="none" stroke="black" stroke-dasharray="1,5" d="M1101.27,-946C1181.04,-946 1260.82,-946 1340.59,-946"/>
<polygon fill="black" stroke="black" points="1340.82,-949.5 1350.82,-946 1340.82,-942.5 1340.82,-949.5"/>
</g>
<!-- 41425952 -->
<g id="node11" class="node"><title>41425952</title>
<ellipse fill="khaki" stroke="black" cx="453" cy="-816" rx="154.149" ry="46.669"/>
<text text-anchor="middle" x="453" y="-823.4" font-family="Times Roman,serif" font-size="24.00">exp: branch_exp</text>
<text text-anchor="middle" x="453" y="-794.4" font-family="Times Roman,serif" font-size="24.00">value: sp:branch</text>
</g>
<!-- 41425952&#45;&gt;39368448 -->
<g id="edge6" class="edge"><title>41425952&#45;&gt;39368448</title>
<path fill="none" stroke="black" d="M444.24,-862.585C439.287,-904.316 439.764,-964.419 474,-1001 495.557,-1024.03 549.701,-1040.06 611.987,-1051.19"/>
<polygon fill="black" stroke="black" points="611.598,-1054.68 622.049,-1052.93 612.794,-1047.78 611.598,-1054.68"/>
</g>
<!-- 41425952&#45;&gt;41866000 -->
<g id="edge8" class="edge"><title>41425952&#45;&gt;41866000</title>
<path fill="none" stroke="black" d="M550.773,-852.212C606.152,-872.723 674.471,-898.026 726.184,-917.179"/>
<polygon fill="black" stroke="black" points="725.047,-920.491 735.64,-920.682 727.479,-913.926 725.047,-920.491"/>
</g>
<!-- 42065808 -->
<g id="node12" class="node"><title>42065808</title>
<ellipse fill="dodgerblue" stroke="black" cx="705" cy="-816" rx="79.9031" ry="46.669"/>
<text text-anchor="middle" x="705" y="-823.4" font-family="Times Roman,serif" font-size="24.00">exp: (f)</text>
<text text-anchor="middle" x="705" y="-794.4" font-family="Times Roman,serif" font-size="24.00">value: 1</text>
</g>
<!-- 42065808&#45;&gt;39368448 -->
<g id="edge12" class="edge"><title>42065808&#45;&gt;39368448</title>
<path fill="none" stroke="black" d="M647.354,-848.464C637.071,-853.67 626.339,-858.738 616,-863 565.307,-883.896 530.628,-854.933 498,-899 471.024,-935.434 469.13,-966.049 498,-1001 516.071,-1022.88 562.837,-1038.44 617.978,-1049.49"/>
<polygon fill="black" stroke="black" points="617.513,-1052.96 627.996,-1051.43 618.845,-1046.09 617.513,-1052.96"/>
</g>
<!-- 42065808&#45;&gt;41866000 -->
<g id="edge14" class="edge"><title>42065808&#45;&gt;41866000</title>
<path fill="none" stroke="black" d="M737.416,-858.567C750.574,-875.845 765.567,-895.533 777.991,-911.846"/>
<polygon fill="black" stroke="black" points="775.387,-914.204 784.23,-920.039 780.956,-909.963 775.387,-914.204"/>
</g>
<!-- 41862880 -->
<g id="node13" class="node"><title>41862880</title>
<ellipse fill="#6e8b3d" stroke="black" cx="764" cy="-686" rx="99.9096" ry="26.163"/>
<text text-anchor="middle" x="764" y="-678.9" font-family="Times Roman,serif" font-size="24.00">request: []</text>
</g>
<!-- 41862880&#45;&gt;42065808 -->
<g id="edge22" class="edge"><title>41862880&#45;&gt;42065808</title>
<path fill="none" stroke="black" d="M752.202,-711.995C745.761,-726.187 737.534,-744.315 729.758,-761.449"/>
<polygon fill="black" stroke="black" points="726.444,-760.281 725.499,-770.834 732.818,-763.174 726.444,-760.281"/>
</g>
<!-- 41891216&#45;&gt;42065808 -->
<g id="edge16" class="edge"><title>41891216&#45;&gt;42065808</title>
<path fill="none" stroke="black" d="M675.016,-600.943C666.874,-609.951 659.702,-620.053 655,-631 637.109,-672.654 642.86,-689.322 655,-733 657.966,-743.672 662.714,-754.345 668.131,-764.312"/>
<polygon fill="black" stroke="black" points="665.247,-766.319 673.262,-773.248 671.317,-762.833 665.247,-766.319"/>
</g>
<!-- 41891216&#45;&gt;41862880 -->
<g id="edge18" class="edge"><title>41891216&#45;&gt;41862880</title>
<path fill="none" stroke="black" d="M744.746,-602.566C748.318,-618.043 752.24,-635.04 755.607,-649.632"/>
<polygon fill="black" stroke="black" points="752.289,-650.819 757.948,-659.776 759.11,-649.245 752.289,-650.819"/>
</g>
<!-- 40466096 -->
<g id="node15" class="node"><title>40466096</title>
<ellipse fill="#eead0e" stroke="black" cx="1140" cy="-816" rx="138.801" ry="46.669"/>
<text text-anchor="middle" x="1140" y="-823.4" font-family="Times Roman,serif" font-size="24.00">exp: (quote (f))</text>
<text text-anchor="middle" x="1140" y="-794.4" font-family="Times Roman,serif" font-size="24.00">value: (f)</text>
</g>
<!-- 40466096&#45;&gt;39368448 -->
<g id="edge24" class="edge"><title>40466096&#45;&gt;39368448</title>
<path fill="none" stroke="black" d="M1149.84,-862.594C1155.64,-903.466 1156.72,-962.262 1126,-1001 1116.48,-1013.01 1094.04,-1024.11 1066.55,-1033.88"/>
<polygon fill="black" stroke="black" points="1065.37,-1030.59 1057.05,-1037.15 1067.64,-1037.21 1065.37,-1030.59"/>
</g>
<!-- 40466096&#45;&gt;41866000 -->
<g id="edge26" class="edge"><title>40466096&#45;&gt;41866000</title>
<path fill="none" stroke="black" d="M1049.07,-851.18C995.85,-871.772 929.451,-897.462 879.196,-916.906"/>
<polygon fill="black" stroke="black" points="877.752,-913.712 869.689,-920.585 880.278,-920.24 877.752,-913.712"/>
</g>
<!-- 44684320 -->
<g id="node16" class="node"><title>44684320</title>
<ellipse fill="#eead0e" stroke="black" cx="893" cy="-816" rx="90.0096" ry="46.669"/>
<text text-anchor="middle" x="893" y="-823.4" font-family="Times Roman,serif" font-size="24.00">exp: #t</text>
<text text-anchor="middle" x="893" y="-794.4" font-family="Times Roman,serif" font-size="24.00">value: #t</text>
</g>
<!-- 44684320&#45;&gt;39368448 -->
<g id="edge28" class="edge"><title>44684320&#45;&gt;39368448</title>
<path fill="none" stroke="black" d="M957.906,-848.477C969.152,-853.623 980.823,-858.669 992,-863 1043.13,-882.811 1077.37,-854.933 1110,-899 1136.98,-935.434 1136.43,-964.17 1110,-1001 1101.82,-1012.39 1081.95,-1023.09 1057.27,-1032.64"/>
<polygon fill="black" stroke="black" points="1055.75,-1029.47 1047.59,-1036.24 1058.19,-1036.03 1055.75,-1029.47"/>
</g>
<!-- 44684320&#45;&gt;41866000 -->
<g id="edge30" class="edge"><title>44684320&#45;&gt;41866000</title>
<path fill="none" stroke="black" d="M862.869,-860.012C851.38,-876.793 838.461,-895.664 827.658,-911.443"/>
<polygon fill="black" stroke="black" points="824.658,-909.63 821.897,-919.859 830.434,-913.584 824.658,-909.63"/>
</g>
<!-- 41497248&#45;&gt;39368448 -->
<g id="edge34" class="edge"><title>41497248&#45;&gt;39368448</title>
<path fill="none" stroke="black" d="M1367.06,-974.079C1343.49,-983.638 1316.35,-993.732 1291,-1001 1234.9,-1017.08 1173.39,-1030.56 1115.69,-1041.44"/>
<polygon fill="black" stroke="black" points="1114.9,-1038.03 1105.71,-1043.31 1116.18,-1044.91 1114.9,-1038.03"/>
</g>
<!-- 43605376 -->
<g id="node19" class="node"><title>43605376</title>
<ellipse fill="#6e8b3d" stroke="black" cx="1550" cy="-816" rx="99.9096" ry="26.163"/>
<text text-anchor="middle" x="1550" y="-808.9" font-family="Times Roman,serif" font-size="24.00">request: []</text>
</g>
<!-- 43605376&#45;&gt;41497248 -->
<g id="edge44" class="edge"><title>43605376&#45;&gt;41497248</title>
<path fill="none" stroke="black" d="M1526.77,-841.374C1512.2,-857.291 1492.94,-878.333 1475.51,-897.372"/>
<polygon fill="black" stroke="black" points="1472.86,-895.091 1468.69,-904.831 1478.02,-899.818 1472.86,-895.091"/>
</g>
<!-- 42299664&#45;&gt;41497248 -->
<g id="edge38" class="edge"><title>42299664&#45;&gt;41497248</title>
<path fill="none" stroke="black" d="M1474.47,-729.556C1461.17,-740.693 1449.03,-753.875 1441,-769 1421.47,-805.773 1419.79,-853.108 1422.55,-889.574"/>
<polygon fill="black" stroke="black" points="1419.06,-889.902 1423.43,-899.554 1426.03,-889.284 1419.06,-889.902"/>
</g>
<!-- 42299664&#45;&gt;43605376 -->
<g id="edge40" class="edge"><title>42299664&#45;&gt;43605376</title>
<path fill="none" stroke="black" d="M1550,-732.566C1550,-748.043 1550,-765.04 1550,-779.632"/>
<polygon fill="black" stroke="black" points="1546.5,-779.776 1550,-789.776 1553.5,-779.776 1546.5,-779.776"/>
</g>
<!-- 47762976 -->
<g id="node23" class="node"><title>47762976</title>
<ellipse fill="none" stroke="black" cx="63" cy="-686" rx="62.9325" ry="18.3848"/>
<text text-anchor="middle" x="63" y="-682.4" font-family="Times Roman,serif" font-size="14.00">47762976</text>
</g>
<!-- 47762976&#45;&gt;41425952 -->
<g id="edge10" class="edge"><title>47762976&#45;&gt;41425952</title>
<path fill="none" stroke="black" d="M104.737,-699.912C160.441,-718.48 261.22,-752.073 340.086,-778.362"/>
<polygon fill="black" stroke="black" points="338.997,-781.688 349.591,-781.53 341.211,-775.048 338.997,-781.688"/>
</g>
<!-- 50455120 -->
<g id="node44" class="node"><title>50455120</title>
<ellipse fill="none" stroke="black" cx="1046" cy="-19" rx="62.9325" ry="18.3848"/>
<text text-anchor="middle" x="1046" y="-15.4" font-family="Times Roman,serif" font-size="14.00">50455120</text>
</g>
<!-- 50455120&#45;&gt;45671424 -->
<g id="edge50" class="edge"><title>50455120&#45;&gt;45671424</title>
<path fill="none" stroke="black" d="M1046,-37.8129C1046,-59.2806 1046,-95.4093 1046,-126.255"/>
<polygon fill="black" stroke="black" points="1042.5,-126.484 1046,-136.484 1049.5,-126.484 1042.5,-126.484"/>
</g>
</g>
</svg>
