<?xml version="1.0" encoding="UTF-8" standalone="no"?>
<!DOCTYPE svg PUBLIC "-//W3C//DTD SVG 1.1//EN"
 "http://www.w3.org/Graphics/SVG/1.1/DTD/svg11.dtd">
<!-- Generated by graphviz version 2.26.3 (20100126.1600)
 -->
<!-- Title: _anonymous_0 Pages: 1 -->
<svg width="362pt" height="548pt"
 viewBox="0.00 0.00 362.00 548.00" xmlns="http://www.w3.org/2000/svg" xmlns:xlink="http://www.w3.org/1999/xlink">
<g id="graph1" class="graph" transform="scale(1 1) rotate(0) translate(4 544)">
<title>_anonymous_0</title>
<polygon fill="white" stroke="white" points="-4,5 -4,-544 359,-544 359,5 -4,5"/>
<!-- 39664544 -->
<g id="node3" class="node"><title>39664544</title>
<ellipse fill="#999999" stroke="black" cx="113" cy="-162" rx="27" ry="18"/>
</g>
<!-- 30868272 -->
<g id="node14" class="node"><title>30868272</title>
<ellipse fill="#999999" stroke="black" cx="149" cy="-234" rx="27" ry="18"/>
</g>
<!-- 39664544&#45;&gt;30868272 -->
<g id="edge26" class="edge"><title>39664544&#45;&gt;30868272</title>
<path fill="none" stroke="black" d="M121.715,-179.429C125.96,-187.919 131.154,-198.307 135.866,-207.733"/>
<polygon fill="black" stroke="black" points="132.763,-209.352 140.366,-216.731 139.024,-206.222 132.763,-209.352"/>
</g>
<!-- 31861488 -->
<g id="node20" class="node"><title>31861488</title>
<ellipse fill="darkseagreen" stroke="black" cx="77" cy="-234" rx="27" ry="18"/>
</g>
<!-- 39664544&#45;&gt;31861488 -->
<g id="edge10" class="edge"><title>39664544&#45;&gt;31861488</title>
<path fill="none" stroke="black" d="M104.285,-179.429C100.04,-187.919 94.8464,-198.307 90.1337,-207.733"/>
<polygon fill="black" stroke="black" points="86.976,-206.222 85.6343,-216.731 93.237,-209.352 86.976,-206.222"/>
</g>
<!-- 31055760 -->
<g id="node4" class="node"><title>31055760</title>
<ellipse fill="#999999" stroke="black" cx="86" cy="-90" rx="27" ry="18"/>
</g>
<!-- 31055760&#45;&gt;39664544 -->
<g id="edge56" class="edge"><title>31055760&#45;&gt;39664544</title>
<path fill="none" stroke="black" d="M92.6742,-107.798C95.7476,-115.994 99.4616,-125.898 102.87,-134.985"/>
<polygon fill="black" stroke="black" points="99.6142,-136.273 106.403,-144.407 106.168,-133.815 99.6142,-136.273"/>
</g>
<!-- 33936992 -->
<g id="node5" class="node"><title>33936992</title>
<ellipse fill="#999999" stroke="black" cx="33" cy="-18" rx="27" ry="18"/>
</g>
<!-- 33936992&#45;&gt;39664544 -->
<g id="edge44" class="edge"><title>33936992&#45;&gt;39664544</title>
<path fill="none" stroke="black" d="M32.9622,-36.1202C33.6785,-55.212 37.0218,-85.5642 50,-108 58.3222,-122.387 71.9393,-134.774 84.3883,-144.042"/>
<polygon fill="black" stroke="black" points="82.5546,-147.032 92.7408,-149.946 86.5952,-141.316 82.5546,-147.032"/>
</g>
<!-- 33936992&#45;&gt;31055760 -->
<g id="edge46" class="edge"><title>33936992&#45;&gt;31055760</title>
<path fill="none" stroke="black" d="M45.0265,-34.3379C51.8029,-43.5436 60.4007,-55.2236 67.9687,-65.5047"/>
<polygon fill="black" stroke="black" points="65.2742,-67.7482 74.0211,-73.7267 70.9115,-63.5985 65.2742,-67.7482"/>
</g>
<!-- 31082928 -->
<g id="node6" class="node"><title>31082928</title>
<ellipse fill="#999999" stroke="black" cx="106" cy="-18" rx="27" ry="18"/>
</g>
<!-- 31082928&#45;&gt;39664544 -->
<g id="edge48" class="edge"><title>31082928&#45;&gt;39664544</title>
<path fill="none" stroke="black" d="M112.653,-35.7104C116.204,-46.1139 120.204,-59.6139 122,-72 125,-92.6881 122.447,-116.198 119.304,-134"/>
<polygon fill="black" stroke="black" points="115.83,-133.531 117.369,-144.013 122.702,-134.859 115.83,-133.531"/>
</g>
<!-- 31082928&#45;&gt;31055760 -->
<g id="edge50" class="edge"><title>31082928&#45;&gt;31055760</title>
<path fill="none" stroke="black" d="M101.056,-35.7978C98.8206,-43.8459 96.1274,-53.5412 93.6407,-62.4933"/>
<polygon fill="black" stroke="black" points="90.2605,-61.5855 90.9563,-72.1575 97.0051,-63.459 90.2605,-61.5855"/>
</g>
<!-- 31983280 -->
<g id="node7" class="node"><title>31983280</title>
<ellipse fill="#999999" stroke="black" cx="178" cy="-18" rx="27" ry="18"/>
</g>
<!-- 31983280&#45;&gt;39664544 -->
<g id="edge52" class="edge"><title>31983280&#45;&gt;39664544</title>
<path fill="none" stroke="black" d="M170.159,-35.3698C158.935,-60.2362 138.191,-106.193 125.02,-135.371"/>
<polygon fill="black" stroke="black" points="121.792,-134.014 120.868,-144.569 128.173,-136.894 121.792,-134.014"/>
</g>
<!-- 31983280&#45;&gt;31055760 -->
<g id="edge54" class="edge"><title>31983280&#45;&gt;31055760</title>
<path fill="none" stroke="black" d="M160.261,-31.8823C146.516,-42.6398 127.273,-57.6991 111.82,-69.7928"/>
<polygon fill="black" stroke="black" points="109.402,-67.2409 103.684,-76.1603 113.716,-72.7534 109.402,-67.2409"/>
</g>
<!-- 37271520 -->
<g id="node9" class="node"><title>37271520</title>
<ellipse fill="gold" stroke="black" cx="176" cy="-522" rx="27" ry="18"/>
</g>
<!-- 30415904 -->
<g id="node10" class="node"><title>30415904</title>
<ellipse fill="gold" stroke="black" cx="204" cy="-450" rx="27" ry="18"/>
</g>
<!-- 30415904&#45;&gt;37271520 -->
<g id="edge38" class="edge"><title>30415904&#45;&gt;37271520</title>
<path fill="none" stroke="black" d="M197.222,-467.429C194.013,-475.681 190.106,-485.726 186.524,-494.938"/>
<polygon fill="black" stroke="black" points="183.175,-493.893 182.813,-504.482 189.699,-496.43 183.175,-493.893"/>
</g>
<!-- 30588672 -->
<g id="node18" class="node"><title>30588672</title>
<ellipse fill="darkseagreen" stroke="black" cx="39" cy="-378" rx="27" ry="18"/>
</g>
<!-- 30415904&#45;&gt;30588672 -->
<g id="edge42" class="edge"><title>30415904&#45;&gt;30588672</title>
<path fill="none" stroke="black" stroke-dasharray="1,5" d="M180.491,-440.712C154.476,-430.306 111.413,-412.702 75,-396 73.2375,-395.192 71.434,-394.347 69.6193,-393.483"/>
<polygon fill="black" stroke="black" points="71.1115,-390.317 60.5881,-389.089 68.0485,-396.611 71.1115,-390.317"/>
</g>
<!-- 31328816 -->
<g id="node11" class="node"><title>31328816</title>
<ellipse fill="#999999" stroke="black" cx="111" cy="-378" rx="27" ry="18"/>
</g>
<!-- 31328816&#45;&gt;37271520 -->
<g id="edge14" class="edge"><title>31328816&#45;&gt;37271520</title>
<path fill="none" stroke="black" d="M118.841,-395.37C130.065,-420.236 150.809,-466.193 163.98,-495.371"/>
<polygon fill="black" stroke="black" points="160.827,-496.894 168.132,-504.569 167.208,-494.014 160.827,-496.894"/>
</g>
<!-- 31328816&#45;&gt;30415904 -->
<g id="edge16" class="edge"><title>31328816&#45;&gt;30415904</title>
<path fill="none" stroke="black" d="M128.931,-391.882C142.826,-402.64 162.278,-417.699 177.899,-429.793"/>
<polygon fill="black" stroke="black" points="176.074,-432.806 186.124,-436.16 180.359,-427.271 176.074,-432.806"/>
</g>
<!-- 31341232 -->
<g id="node12" class="node"><title>31341232</title>
<ellipse fill="firebrick" stroke="black" cx="183" cy="-378" rx="27" ry="18"/>
</g>
<!-- 31341232&#45;&gt;37271520 -->
<g id="edge18" class="edge"><title>31341232&#45;&gt;37271520</title>
<path fill="none" stroke="black" d="M176.762,-395.745C173.432,-406.16 169.682,-419.66 168,-432 165.18,-452.691 167.456,-476.201 170.291,-494.002"/>
<polygon fill="black" stroke="black" points="166.871,-494.766 172.039,-504.015 173.767,-493.562 166.871,-494.766"/>
</g>
<!-- 31341232&#45;&gt;30415904 -->
<g id="edge20" class="edge"><title>31341232&#45;&gt;30415904</title>
<path fill="none" stroke="black" d="M188.191,-395.798C190.538,-403.846 193.366,-413.541 195.977,-422.493"/>
<polygon fill="black" stroke="black" points="192.636,-423.537 198.796,-432.157 199.356,-421.577 192.636,-423.537"/>
</g>
<!-- 34036272 -->
<g id="node13" class="node"><title>34036272</title>
<ellipse fill="#999999" stroke="black" cx="141" cy="-306" rx="27" ry="18"/>
</g>
<!-- 34036272&#45;&gt;31341232 -->
<g id="edge28" class="edge"><title>34036272&#45;&gt;31341232</title>
<path fill="none" stroke="black" d="M150.953,-323.063C156.027,-331.761 162.303,-342.52 167.953,-352.205"/>
<polygon fill="black" stroke="black" points="165.056,-354.185 173.118,-361.059 171.103,-350.658 165.056,-354.185"/>
</g>
<!-- 30868272&#45;&gt;31341232 -->
<g id="edge22" class="edge"><title>30868272&#45;&gt;31341232</title>
<path fill="none" stroke="black" d="M159.987,-250.758C166.143,-261.059 173.306,-274.778 177,-288 182.61,-308.078 184.008,-331.612 184.057,-349.578"/>
<polygon fill="black" stroke="black" points="180.556,-349.666 183.946,-359.704 187.556,-349.743 180.556,-349.666"/>
</g>
<!-- 30868272&#45;&gt;34036272 -->
<g id="edge24" class="edge"><title>30868272&#45;&gt;34036272</title>
<path fill="none" stroke="black" d="M146.981,-252.169C146.126,-259.869 145.108,-269.026 144.157,-277.583"/>
<polygon fill="black" stroke="black" points="140.672,-277.261 143.046,-287.587 147.629,-278.034 140.672,-277.261"/>
</g>
<!-- 32857776 -->
<g id="node15" class="node"><title>32857776</title>
<ellipse fill="#999999" stroke="black" cx="255" cy="-378" rx="27" ry="18"/>
</g>
<!-- 32857776&#45;&gt;37271520 -->
<g id="edge30" class="edge"><title>32857776&#45;&gt;37271520</title>
<path fill="none" stroke="black" d="M255.557,-396.119C255.363,-415.21 252.774,-445.561 240,-468 231.702,-482.576 217.884,-494.982 205.207,-504.213"/>
<polygon fill="black" stroke="black" points="202.939,-501.526 196.695,-510.085 206.914,-507.288 202.939,-501.526"/>
</g>
<!-- 32857776&#45;&gt;30415904 -->
<g id="edge32" class="edge"><title>32857776&#45;&gt;30415904</title>
<path fill="none" stroke="black" d="M243.427,-394.338C237.063,-403.323 229.028,-414.666 221.876,-424.764"/>
<polygon fill="black" stroke="black" points="218.805,-423.044 215.881,-433.227 224.517,-427.09 218.805,-423.044"/>
</g>
<!-- 30881168 -->
<g id="node16" class="node"><title>30881168</title>
<ellipse fill="#999999" stroke="black" cx="327" cy="-378" rx="27" ry="18"/>
</g>
<!-- 30881168&#45;&gt;37271520 -->
<g id="edge34" class="edge"><title>30881168&#45;&gt;37271520</title>
<path fill="none" stroke="black" d="M316.958,-395.02C305.045,-414.264 283.778,-445.8 260,-468 243.962,-482.974 223.251,-496.341 206.407,-506.029"/>
<polygon fill="black" stroke="black" points="204.514,-503.078 197.502,-511.02 207.936,-509.185 204.514,-503.078"/>
</g>
<!-- 30881168&#45;&gt;30415904 -->
<g id="edge36" class="edge"><title>30881168&#45;&gt;30415904</title>
<path fill="none" stroke="black" d="M306.689,-389.889C286.659,-401.614 255.84,-419.654 233.189,-432.914"/>
<polygon fill="black" stroke="black" points="231.203,-430.021 224.341,-438.093 234.739,-436.062 231.203,-430.021"/>
</g>
<!-- 30588672&#45;&gt;37271520 -->
<g id="edge40" class="edge"><title>30588672&#45;&gt;37271520</title>
<path fill="none" stroke="black" d="M53.6614,-393.411C77.867,-418.853 126.302,-469.763 154.424,-499.321"/>
<polygon fill="black" stroke="black" points="152.015,-501.868 161.444,-506.7 157.087,-497.043 152.015,-501.868"/>
</g>
<!-- 31339040 -->
<g id="node19" class="node"><title>31339040</title>
<ellipse fill="darkseagreen" stroke="black" cx="27" cy="-306" rx="27" ry="18"/>
</g>
<!-- 31339040&#45;&gt;30588672 -->
<g id="edge12" class="edge"><title>31339040&#45;&gt;30588672</title>
<path fill="none" stroke="black" d="M30.0281,-324.169C31.3313,-331.988 32.8846,-341.308 34.3297,-349.978"/>
<polygon fill="black" stroke="black" points="30.918,-350.798 36.0144,-360.087 37.8227,-349.647 30.918,-350.798"/>
</g>
<!-- 31861488&#45;&gt;30588672 -->
<g id="edge6" class="edge"><title>31861488&#45;&gt;30588672</title>
<path fill="none" stroke="black" d="M75.5843,-252.237C73.827,-270.64 70.1443,-299.729 63,-324 60.2637,-333.296 56.2795,-343.083 52.3406,-351.734"/>
<polygon fill="black" stroke="black" points="49.1018,-350.395 47.9818,-360.931 55.4273,-353.393 49.1018,-350.395"/>
</g>
<!-- 31861488&#45;&gt;31339040 -->
<g id="edge8" class="edge"><title>31861488&#45;&gt;31339040</title>
<path fill="none" stroke="black" d="M65.6542,-250.338C59.4145,-259.323 51.5377,-270.666 44.5251,-280.764"/>
<polygon fill="black" stroke="black" points="41.4771,-279.017 38.6479,-289.227 47.2267,-283.01 41.4771,-279.017"/>
</g>
</g>
</svg>
