<?xml version="1.0" encoding="UTF-8" standalone="no"?>
<!DOCTYPE svg PUBLIC "-//W3C//DTD SVG 1.1//EN"
 "http://www.w3.org/Graphics/SVG/1.1/DTD/svg11.dtd">
<!-- Generated by graphviz version 2.26.3 (20100126.1600)
 -->
<!-- Title: _anonymous_0 Pages: 1 -->
<svg width="287pt" height="548pt"
 viewBox="0.00 0.00 287.00 548.00" xmlns="http://www.w3.org/2000/svg" xmlns:xlink="http://www.w3.org/1999/xlink">
<g id="graph1" class="graph" transform="scale(1 1) rotate(0) translate(4 544)">
<title>_anonymous_0</title>
<polygon fill="white" stroke="white" points="-4,5 -4,-544 284,-544 284,5 -4,5"/>
<!-- 39664544 -->
<g id="node3" class="node"><title>39664544</title>
<ellipse fill="#999999" stroke="black" cx="107" cy="-162" rx="27" ry="18"/>
</g>
<!-- 30868272 -->
<g id="node14" class="node"><title>30868272</title>
<ellipse fill="#999999" stroke="black" cx="107" cy="-234" rx="27" ry="18"/>
</g>
<!-- 39664544&#45;&gt;30868272 -->
<g id="edge17" class="edge"><title>39664544&#45;&gt;30868272</title>
<path fill="none" stroke="black" d="M107,-180.169C107,-187.869 107,-197.026 107,-205.583"/>
<polygon fill="black" stroke="black" points="103.5,-205.587 107,-215.587 110.5,-205.587 103.5,-205.587"/>
</g>
<!-- 31055760 -->
<g id="node4" class="node"><title>31055760</title>
<ellipse fill="#999999" stroke="black" cx="80" cy="-90" rx="27" ry="18"/>
</g>
<!-- 31055760&#45;&gt;39664544 -->
<g id="edge43" class="edge"><title>31055760&#45;&gt;39664544</title>
<path fill="none" stroke="black" d="M86.6742,-107.798C89.7476,-115.994 93.4616,-125.898 96.8695,-134.985"/>
<polygon fill="black" stroke="black" points="93.6142,-136.273 100.403,-144.407 100.168,-133.815 93.6142,-136.273"/>
</g>
<!-- 33936992 -->
<g id="node5" class="node"><title>33936992</title>
<ellipse fill="#999999" stroke="black" cx="27" cy="-18" rx="27" ry="18"/>
</g>
<!-- 33936992&#45;&gt;39664544 -->
<g id="edge31" class="edge"><title>33936992&#45;&gt;39664544</title>
<path fill="none" stroke="black" d="M26.9622,-36.1202C27.6785,-55.212 31.0218,-85.5642 44,-108 52.3222,-122.387 65.9393,-134.774 78.3883,-144.042"/>
<polygon fill="black" stroke="black" points="76.5546,-147.032 86.7408,-149.946 80.5952,-141.316 76.5546,-147.032"/>
</g>
<!-- 33936992&#45;&gt;31055760 -->
<g id="edge33" class="edge"><title>33936992&#45;&gt;31055760</title>
<path fill="none" stroke="black" d="M39.0265,-34.3379C45.8029,-43.5436 54.4007,-55.2236 61.9687,-65.5047"/>
<polygon fill="black" stroke="black" points="59.2742,-67.7482 68.0211,-73.7267 64.9115,-63.5985 59.2742,-67.7482"/>
</g>
<!-- 31082928 -->
<g id="node6" class="node"><title>31082928</title>
<ellipse fill="#999999" stroke="black" cx="100" cy="-18" rx="27" ry="18"/>
</g>
<!-- 31082928&#45;&gt;39664544 -->
<g id="edge35" class="edge"><title>31082928&#45;&gt;39664544</title>
<path fill="none" stroke="black" d="M106.653,-35.7104C110.204,-46.1139 114.204,-59.6139 116,-72 119,-92.6881 116.447,-116.198 113.304,-134"/>
<polygon fill="black" stroke="black" points="109.83,-133.531 111.369,-144.013 116.702,-134.859 109.83,-133.531"/>
</g>
<!-- 31082928&#45;&gt;31055760 -->
<g id="edge37" class="edge"><title>31082928&#45;&gt;31055760</title>
<path fill="none" stroke="black" d="M95.0562,-35.7978C92.8206,-43.8459 90.1274,-53.5412 87.6407,-62.4933"/>
<polygon fill="black" stroke="black" points="84.2605,-61.5855 84.9563,-72.1575 91.0051,-63.459 84.2605,-61.5855"/>
</g>
<!-- 31983280 -->
<g id="node7" class="node"><title>31983280</title>
<ellipse fill="#999999" stroke="black" cx="172" cy="-18" rx="27" ry="18"/>
</g>
<!-- 31983280&#45;&gt;39664544 -->
<g id="edge39" class="edge"><title>31983280&#45;&gt;39664544</title>
<path fill="none" stroke="black" d="M164.159,-35.3698C152.935,-60.2362 132.191,-106.193 119.02,-135.371"/>
<polygon fill="black" stroke="black" points="115.792,-134.014 114.868,-144.569 122.173,-136.894 115.792,-134.014"/>
</g>
<!-- 31983280&#45;&gt;31055760 -->
<g id="edge41" class="edge"><title>31983280&#45;&gt;31055760</title>
<path fill="none" stroke="black" d="M154.261,-31.8823C140.516,-42.6398 121.273,-57.6991 105.82,-69.7928"/>
<polygon fill="black" stroke="black" points="103.402,-67.2409 97.6841,-76.1603 107.716,-72.7534 103.402,-67.2409"/>
</g>
<!-- 37271520 -->
<g id="node9" class="node"><title>37271520</title>
<ellipse fill="gold" stroke="black" cx="151" cy="-522" rx="27" ry="18"/>
</g>
<!-- 30415904 -->
<g id="node10" class="node"><title>30415904</title>
<ellipse fill="gold" stroke="black" cx="151" cy="-450" rx="27" ry="18"/>
</g>
<!-- 30415904&#45;&gt;37271520 -->
<g id="edge29" class="edge"><title>30415904&#45;&gt;37271520</title>
<path fill="none" stroke="black" d="M151,-468.169C151,-475.869 151,-485.026 151,-493.583"/>
<polygon fill="black" stroke="black" points="147.5,-493.587 151,-503.587 154.5,-493.587 147.5,-493.587"/>
</g>
<!-- 31328816 -->
<g id="node11" class="node"><title>31328816</title>
<ellipse fill="#999999" stroke="black" cx="36" cy="-378" rx="27" ry="18"/>
</g>
<!-- 31328816&#45;&gt;37271520 -->
<g id="edge5" class="edge"><title>31328816&#45;&gt;37271520</title>
<path fill="none" stroke="black" d="M47.687,-394.583C60.7405,-412.892 82.708,-443.075 103,-468 111.414,-478.335 121.112,-489.393 129.579,-498.794"/>
<polygon fill="black" stroke="black" points="127.033,-501.197 136.347,-506.248 132.216,-496.492 127.033,-501.197"/>
</g>
<!-- 31328816&#45;&gt;30415904 -->
<g id="edge7" class="edge"><title>31328816&#45;&gt;30415904</title>
<path fill="none" stroke="black" d="M55.7692,-390.377C74.1178,-401.865 101.644,-419.099 122.391,-432.088"/>
<polygon fill="black" stroke="black" points="120.771,-435.203 131.104,-437.543 124.485,-429.27 120.771,-435.203"/>
</g>
<!-- 31341232 -->
<g id="node12" class="node"><title>31341232</title>
<ellipse fill="firebrick" stroke="black" cx="108" cy="-378" rx="27" ry="18"/>
</g>
<!-- 31341232&#45;&gt;37271520 -->
<g id="edge9" class="edge"><title>31341232&#45;&gt;37271520</title>
<path fill="none" stroke="black" d="M106.771,-396.131C106.113,-414.703 106.757,-444.152 115,-468 118.644,-478.543 124.854,-489.007 131.099,-497.877"/>
<polygon fill="black" stroke="black" points="128.485,-500.227 137.264,-506.159 134.101,-496.047 128.485,-500.227"/>
</g>
<!-- 31341232&#45;&gt;30415904 -->
<g id="edge11" class="edge"><title>31341232&#45;&gt;30415904</title>
<path fill="none" stroke="black" d="M118.19,-395.063C123.385,-403.761 129.811,-414.52 135.595,-424.205"/>
<polygon fill="black" stroke="black" points="132.75,-426.269 140.883,-433.059 138.76,-422.679 132.75,-426.269"/>
</g>
<!-- 34036272 -->
<g id="node13" class="node"><title>34036272</title>
<ellipse fill="#999999" stroke="black" cx="80" cy="-306" rx="27" ry="18"/>
</g>
<!-- 34036272&#45;&gt;31341232 -->
<g id="edge19" class="edge"><title>34036272&#45;&gt;31341232</title>
<path fill="none" stroke="black" d="M86.778,-323.429C89.9872,-331.681 93.8935,-341.726 97.4758,-350.938"/>
<polygon fill="black" stroke="black" points="94.3008,-352.43 101.187,-360.482 100.825,-349.893 94.3008,-352.43"/>
</g>
<!-- 30868272&#45;&gt;31341232 -->
<g id="edge13" class="edge"><title>30868272&#45;&gt;31341232</title>
<path fill="none" stroke="black" d="M110.747,-251.907C112.747,-262.376 114.997,-275.876 116,-288 117.32,-303.945 117.176,-308.043 116,-324 115.373,-332.507 114.198,-341.706 112.938,-350.06"/>
<polygon fill="black" stroke="black" points="109.46,-349.645 111.332,-360.074 116.372,-350.755 109.46,-349.645"/>
</g>
<!-- 30868272&#45;&gt;34036272 -->
<g id="edge15" class="edge"><title>30868272&#45;&gt;34036272</title>
<path fill="none" stroke="black" d="M100.326,-251.798C97.2524,-259.994 93.5384,-269.898 90.1305,-278.985"/>
<polygon fill="black" stroke="black" points="86.8315,-277.815 86.5974,-288.407 93.3858,-280.273 86.8315,-277.815"/>
</g>
<!-- 32857776 -->
<g id="node15" class="node"><title>32857776</title>
<ellipse fill="#999999" stroke="black" cx="180" cy="-378" rx="27" ry="18"/>
</g>
<!-- 32857776&#45;&gt;37271520 -->
<g id="edge21" class="edge"><title>32857776&#45;&gt;37271520</title>
<path fill="none" stroke="black" d="M185.197,-396.006C189.658,-414.479 194.312,-443.85 187,-468 183.734,-478.787 177.524,-489.389 171.169,-498.304"/>
<polygon fill="black" stroke="black" points="168.372,-496.2 165.123,-506.284 173.951,-500.427 168.372,-496.2"/>
</g>
<!-- 32857776&#45;&gt;30415904 -->
<g id="edge23" class="edge"><title>32857776&#45;&gt;30415904</title>
<path fill="none" stroke="black" d="M172.98,-395.429C169.656,-403.681 165.61,-413.726 161.9,-422.938"/>
<polygon fill="black" stroke="black" points="158.546,-421.898 158.056,-432.482 165.039,-424.514 158.546,-421.898"/>
</g>
<!-- 30881168 -->
<g id="node16" class="node"><title>30881168</title>
<ellipse fill="#999999" stroke="black" cx="252" cy="-378" rx="27" ry="18"/>
</g>
<!-- 30881168&#45;&gt;37271520 -->
<g id="edge25" class="edge"><title>30881168&#45;&gt;37271520</title>
<path fill="none" stroke="black" d="M243.978,-395.352C234.966,-414.064 219.317,-444.348 202,-468 193.705,-479.33 183.24,-490.791 173.951,-500.222"/>
<polygon fill="black" stroke="black" points="171.445,-497.779 166.817,-507.31 176.378,-502.744 171.445,-497.779"/>
</g>
<!-- 30881168&#45;&gt;30415904 -->
<g id="edge27" class="edge"><title>30881168&#45;&gt;30415904</title>
<path fill="none" stroke="black" d="M233.475,-391.206C217.912,-402.3 195.466,-418.301 177.919,-430.81"/>
<polygon fill="black" stroke="black" points="175.861,-427.979 169.75,-436.634 179.924,-433.679 175.861,-427.979"/>
</g>
</g>
</svg>
