<?xml version="1.0" encoding="UTF-8" standalone="no"?>
<!DOCTYPE svg PUBLIC "-//W3C//DTD SVG 1.1//EN"
 "http://www.w3.org/Graphics/SVG/1.1/DTD/svg11.dtd">
<!-- Generated by graphviz version 2.26.3 (20100126.1600)
 -->
<!-- Title: _anonymous_0 Pages: 1 -->
<svg width="1342pt" height="1071pt"
 viewBox="0.00 0.00 1342.00 1071.00" xmlns="http://www.w3.org/2000/svg" xmlns:xlink="http://www.w3.org/1999/xlink">
<g id="graph1" class="graph" transform="scale(1 1) rotate(0) translate(4 1067)">
<title>_anonymous_0</title>
<polygon fill="white" stroke="white" points="-4,5 -4,-1067 1339,-1067 1339,5 -4,5"/>
<g id="graph2" class="cluster"><title>cluster1</title>
<polygon fill="none" stroke="black" points="134,-46 134,-1055 1326,-1055 1326,-46 134,-46"/>
<text text-anchor="middle" x="730" y="-57.4" font-family="Times Roman,serif" font-size="24.00">Venture Families</text>
</g>
<g id="graph3" class="cluster"><title>cluster2</title>
<polygon fill="none" stroke="black" points="142,-91 142,-456 1318,-456 1318,-91 142,-91"/>
<text text-anchor="middle" x="730" y="-102.4" font-family="Times Roman,serif" font-size="24.00">1</text>
</g>
<g id="graph4" class="cluster"><title>cluster3</title>
<polygon fill="none" stroke="black" points="142,-464 142,-1047 1122,-1047 1122,-464 142,-464"/>
<text text-anchor="middle" x="632" y="-475.4" font-family="Times Roman,serif" font-size="24.00">2</text>
</g>
<!-- 44708496 -->
<g id="node3" class="node"><title>44708496</title>
<ellipse fill="#999999" stroke="black" cx="734" cy="-401" rx="405.172" ry="46.669"/>
<text text-anchor="middle" x="734" y="-408.4" font-family="Times Roman,serif" font-size="24.00">exp: (make_sym_dir_mult 1.000000 2.000000)</text>
<text text-anchor="middle" x="734" y="-379.4" font-family="Times Roman,serif" font-size="24.00">value: sp:sym_dir_mult</text>
</g>
<!-- 41891216 -->
<g id="node14" class="node"><title>41891216</title>
<ellipse fill="#999999" stroke="black" cx="895" cy="-556" rx="208.096" ry="46.669"/>
<text text-anchor="middle" x="895" y="-563.4" font-family="Times Roman,serif" font-size="24.00">exp: f</text>
<text text-anchor="middle" x="895" y="-534.4" font-family="Times Roman,serif" font-size="24.00">value: sp:sym_dir_mult</text>
</g>
<!-- 44708496&#45;&gt;41891216 -->
<g id="edge19" class="edge"><title>44708496&#45;&gt;41891216</title>
<path fill="none" stroke="black" d="M782.305,-447.505C800.622,-465.139 821.601,-485.336 840.453,-503.486"/>
<polygon fill="black" stroke="black" points="838.205,-506.18 847.837,-510.594 843.06,-501.137 838.205,-506.18"/>
</g>
<!-- 52341248 -->
<g id="node4" class="node"><title>52341248</title>
<ellipse fill="#999999" stroke="black" cx="615" cy="-292" rx="99.9096" ry="26.163"/>
<text text-anchor="middle" x="615" y="-284.9" font-family="Times Roman,serif" font-size="24.00">request: []</text>
</g>
<!-- 52341248&#45;&gt;44708496 -->
<g id="edge47" class="edge"><title>52341248&#45;&gt;44708496</title>
<path fill="none" stroke="black" d="M642.6,-317.281C652.513,-326.361 664.103,-336.976 675.636,-347.54"/>
<polygon fill="black" stroke="black" points="673.45,-350.284 683.188,-354.458 678.178,-345.123 673.45,-350.284"/>
</g>
<!-- 45671424 -->
<g id="node5" class="node"><title>45671424</title>
<ellipse fill="#999999" stroke="black" cx="1046" cy="-183" rx="263.958" ry="46.669"/>
<text text-anchor="middle" x="1046" y="-190.4" font-family="Times Roman,serif" font-size="24.00">exp: make_sym_dir_mult</text>
<text text-anchor="middle" x="1046" y="-161.4" font-family="Times Roman,serif" font-size="24.00">value: sp:make_sym_dir_mult</text>
</g>
<!-- 45671424&#45;&gt;44708496 -->
<g id="edge33" class="edge"><title>45671424&#45;&gt;44708496</title>
<path fill="none" stroke="black" d="M981.353,-228.17C930.949,-263.388 860.9,-312.333 808.208,-349.149"/>
<polygon fill="black" stroke="black" points="806.099,-346.353 799.906,-354.95 810.108,-352.091 806.099,-346.353"/>
</g>
<!-- 45671424&#45;&gt;52341248 -->
<g id="edge35" class="edge"><title>45671424&#45;&gt;52341248</title>
<path fill="none" stroke="black" d="M894.954,-221.199C828.227,-238.075 752.42,-257.246 696.535,-271.38"/>
<polygon fill="black" stroke="black" points="695.527,-268.024 686.69,-273.869 697.243,-274.811 695.527,-268.024"/>
</g>
<!-- 44783120 -->
<g id="node6" class="node"><title>44783120</title>
<ellipse fill="#999999" stroke="black" cx="615" cy="-183" rx="149.2" ry="46.669"/>
<text text-anchor="middle" x="615" y="-190.4" font-family="Times Roman,serif" font-size="24.00">exp: 1.000000</text>
<text text-anchor="middle" x="615" y="-161.4" font-family="Times Roman,serif" font-size="24.00">value: 1.000000</text>
</g>
<!-- 44783120&#45;&gt;44708496 -->
<g id="edge39" class="edge"><title>44783120&#45;&gt;44708496</title>
<path fill="none" stroke="black" d="M686.981,-223.926C701.581,-235.616 715.155,-249.692 724,-266 736.753,-289.513 740.143,-318.804 739.974,-344.087"/>
<polygon fill="black" stroke="black" points="736.47,-344.199 739.717,-354.284 743.468,-344.375 736.47,-344.199"/>
</g>
<!-- 44783120&#45;&gt;52341248 -->
<g id="edge41" class="edge"><title>44783120&#45;&gt;52341248</title>
<path fill="none" stroke="black" d="M615,-229.542C615,-238.249 615,-247.232 615,-255.578"/>
<polygon fill="black" stroke="black" points="611.5,-255.739 615,-265.739 618.5,-255.739 611.5,-255.739"/>
</g>
<!-- 49423840 -->
<g id="node7" class="node"><title>49423840</title>
<ellipse fill="#999999" stroke="black" cx="299" cy="-183" rx="149.2" ry="46.669"/>
<text text-anchor="middle" x="299" y="-190.4" font-family="Times Roman,serif" font-size="24.00">exp: 2.000000</text>
<text text-anchor="middle" x="299" y="-161.4" font-family="Times Roman,serif" font-size="24.00">value: 2.000000</text>
</g>
<!-- 49423840&#45;&gt;44708496 -->
<g id="edge43" class="edge"><title>49423840&#45;&gt;44708496</title>
<path fill="none" stroke="black" d="M357.078,-226.045C397.43,-254.636 453.231,-291.624 506,-318 531.982,-330.987 560.509,-342.999 588.326,-353.62"/>
<polygon fill="black" stroke="black" points="587.135,-356.912 597.727,-357.168 589.607,-350.363 587.135,-356.912"/>
</g>
<!-- 49423840&#45;&gt;52341248 -->
<g id="edge45" class="edge"><title>49423840&#45;&gt;52341248</title>
<path fill="none" stroke="black" d="M398.984,-217.488C446.558,-233.898 502.279,-253.119 545.213,-267.928"/>
<polygon fill="black" stroke="black" points="544.131,-271.257 554.726,-271.209 546.414,-264.64 544.131,-271.257"/>
</g>
<!-- 39368448 -->
<g id="node9" class="node"><title>39368448</title>
<ellipse fill="gold" stroke="black" cx="654" cy="-992" rx="306.177" ry="46.669"/>
<text text-anchor="middle" x="654" y="-999.4" font-family="Times Roman,serif" font-size="24.00">exp: (branch_exp (f) (quote (f)) #t)</text>
<text text-anchor="middle" x="654" y="-970.4" font-family="Times Roman,serif" font-size="24.00">value: </text>
</g>
<!-- 41866000 -->
<g id="node10" class="node"><title>41866000</title>
<ellipse fill="gold" stroke="black" cx="654" cy="-883" rx="87.1802" ry="26.163"/>
<text text-anchor="middle" x="654" y="-875.9" font-family="Times Roman,serif" font-size="24.00">request: </text>
</g>
<!-- 41866000&#45;&gt;39368448 -->
<g id="edge31" class="edge"><title>41866000&#45;&gt;39368448</title>
<path fill="none" stroke="black" d="M654,-909.108C654,-916.979 654,-925.946 654,-935.005"/>
<polygon fill="black" stroke="black" points="650.5,-935.218 654,-945.218 657.5,-935.218 650.5,-935.218"/>
</g>
<!-- 41425952 -->
<g id="node11" class="node"><title>41425952</title>
<ellipse fill="#999999" stroke="black" cx="798" cy="-774" rx="154.149" ry="46.669"/>
<text text-anchor="middle" x="798" y="-781.4" font-family="Times Roman,serif" font-size="24.00">exp: branch_exp</text>
<text text-anchor="middle" x="798" y="-752.4" font-family="Times Roman,serif" font-size="24.00">value: sp:branch</text>
</g>
<!-- 41425952&#45;&gt;39368448 -->
<g id="edge5" class="edge"><title>41425952&#45;&gt;39368448</title>
<path fill="none" stroke="black" d="M787.827,-820.519C780.345,-847.911 768.253,-882.306 750,-909 742.667,-919.725 733.618,-929.912 724.034,-939.242"/>
<polygon fill="black" stroke="black" points="721.514,-936.807 716.619,-946.203 726.305,-941.91 721.514,-936.807"/>
</g>
<!-- 41425952&#45;&gt;41866000 -->
<g id="edge7" class="edge"><title>41425952&#45;&gt;41866000</title>
<path fill="none" stroke="black" d="M740.674,-817.393C725.201,-829.105 708.783,-841.532 694.447,-852.384"/>
<polygon fill="black" stroke="black" points="692.13,-849.748 686.269,-858.574 696.355,-855.33 692.13,-849.748"/>
</g>
<!-- 42065808 -->
<g id="node12" class="node"><title>42065808</title>
<ellipse fill="firebrick" stroke="black" cx="1042" cy="-774" rx="72.1249" ry="46.669"/>
<text text-anchor="middle" x="1042" y="-781.4" font-family="Times Roman,serif" font-size="24.00">exp: (f)</text>
<text text-anchor="middle" x="1042" y="-752.4" font-family="Times Roman,serif" font-size="24.00">value: </text>
</g>
<!-- 42065808&#45;&gt;39368448 -->
<g id="edge11" class="edge"><title>42065808&#45;&gt;39368448</title>
<path fill="none" stroke="black" d="M988.485,-805.229C979.331,-810.52 969.904,-815.937 961,-821 888.461,-862.243 805.801,-908.228 744.541,-942.114"/>
<polygon fill="black" stroke="black" points="742.719,-939.122 735.662,-947.024 746.107,-945.248 742.719,-939.122"/>
</g>
<!-- 42065808&#45;&gt;41866000 -->
<g id="edge13" class="edge"><title>42065808&#45;&gt;41866000</title>
<path fill="none" stroke="black" d="M990.955,-806.95C981.277,-812.227 971.033,-817.195 961,-821 891.169,-847.486 807.895,-863.399 745.706,-872.459"/>
<polygon fill="black" stroke="black" points="744.928,-869.035 735.521,-873.909 745.915,-875.965 744.928,-869.035"/>
</g>
<!-- 41862880 -->
<g id="node13" class="node"><title>41862880</title>
<ellipse fill="#999999" stroke="black" cx="1014" cy="-665" rx="99.9096" ry="26.163"/>
<text text-anchor="middle" x="1014" y="-657.9" font-family="Times Roman,serif" font-size="24.00">request: []</text>
</g>
<!-- 41862880&#45;&gt;42065808 -->
<g id="edge21" class="edge"><title>41862880&#45;&gt;42065808</title>
<path fill="none" stroke="black" d="M1020.71,-691.108C1022.82,-699.335 1025.24,-708.76 1027.68,-718.235"/>
<polygon fill="black" stroke="black" points="1024.33,-719.266 1030.2,-728.08 1031.11,-717.524 1024.33,-719.266"/>
</g>
<!-- 41891216&#45;&gt;42065808 -->
<g id="edge15" class="edge"><title>41891216&#45;&gt;42065808</title>
<path fill="none" stroke="black" d="M893.989,-602.626C894.097,-635.663 896.155,-676.574 905,-691 907.42,-694.948 944.417,-717.261 979.351,-737.757"/>
<polygon fill="black" stroke="black" points="977.768,-740.886 988.166,-742.917 981.304,-734.845 977.768,-740.886"/>
</g>
<!-- 41891216&#45;&gt;41862880 -->
<g id="edge17" class="edge"><title>41891216&#45;&gt;41862880</title>
<path fill="none" stroke="black" d="M944.433,-601.279C956.046,-611.916 968.186,-623.036 979.014,-632.954"/>
<polygon fill="black" stroke="black" points="976.901,-635.765 986.639,-639.939 981.629,-630.603 976.901,-635.765"/>
</g>
<!-- 40466096 -->
<g id="node15" class="node"><title>40466096</title>
<ellipse fill="#999999" stroke="black" cx="487" cy="-774" rx="138.801" ry="46.669"/>
<text text-anchor="middle" x="487" y="-781.4" font-family="Times Roman,serif" font-size="24.00">exp: (quote (f))</text>
<text text-anchor="middle" x="487" y="-752.4" font-family="Times Roman,serif" font-size="24.00">value: (f)</text>
</g>
<!-- 40466096&#45;&gt;39368448 -->
<g id="edge23" class="edge"><title>40466096&#45;&gt;39368448</title>
<path fill="none" stroke="black" d="M506.112,-820.324C518.62,-847.647 536.594,-882.039 558,-909 566.433,-919.622 576.362,-929.935 586.579,-939.473"/>
<polygon fill="black" stroke="black" points="584.3,-942.132 594.052,-946.275 589.012,-936.955 584.3,-942.132"/>
</g>
<!-- 40466096&#45;&gt;41866000 -->
<g id="edge25" class="edge"><title>40466096&#45;&gt;41866000</title>
<path fill="none" stroke="black" d="M550.612,-815.519C570.099,-828.238 591.119,-841.958 609.085,-853.685"/>
<polygon fill="black" stroke="black" points="607.352,-856.733 617.64,-859.268 611.179,-850.871 607.352,-856.733"/>
</g>
<!-- 44684320 -->
<g id="node16" class="node"><title>44684320</title>
<ellipse fill="#999999" stroke="black" cx="240" cy="-774" rx="90.0096" ry="46.669"/>
<text text-anchor="middle" x="240" y="-781.4" font-family="Times Roman,serif" font-size="24.00">exp: #t</text>
<text text-anchor="middle" x="240" y="-752.4" font-family="Times Roman,serif" font-size="24.00">value: #t</text>
</g>
<!-- 44684320&#45;&gt;39368448 -->
<g id="edge27" class="edge"><title>44684320&#45;&gt;39368448</title>
<path fill="none" stroke="black" d="M303.328,-807.347C371.813,-843.409 481.7,-901.272 560.209,-942.612"/>
<polygon fill="black" stroke="black" points="558.663,-945.754 569.142,-947.316 561.924,-939.56 558.663,-945.754"/>
</g>
<!-- 44684320&#45;&gt;41866000 -->
<g id="edge29" class="edge"><title>44684320&#45;&gt;41866000</title>
<path fill="none" stroke="black" d="M303.482,-806.976C315.094,-812.186 327.256,-817.124 339,-821 412.854,-845.375 499.781,-861.598 563.59,-871.314"/>
<polygon fill="black" stroke="black" points="563.218,-874.797 573.626,-872.818 564.255,-867.875 563.218,-874.797"/>
</g>
<!-- 47762976 -->
<g id="node19" class="node"><title>47762976</title>
<ellipse fill="none" stroke="black" cx="63" cy="-665" rx="62.9325" ry="18.3848"/>
<text text-anchor="middle" x="63" y="-661.4" font-family="Times Roman,serif" font-size="14.00">47762976</text>
</g>
<!-- 47762976&#45;&gt;41425952 -->
<g id="edge9" class="edge"><title>47762976&#45;&gt;41425952</title>
<path fill="none" stroke="black" d="M100.23,-680.056C112.116,-684.278 125.447,-688.416 138,-691 354.92,-735.651 416.974,-688.11 635,-727 650.487,-729.762 666.607,-733.418 682.422,-737.474"/>
<polygon fill="black" stroke="black" points="681.661,-740.893 692.222,-740.047 683.438,-734.122 681.661,-740.893"/>
</g>
<!-- 50455120 -->
<g id="node34" class="node"><title>50455120</title>
<ellipse fill="none" stroke="black" cx="1046" cy="-19" rx="62.9325" ry="18.3848"/>
<text text-anchor="middle" x="1046" y="-15.4" font-family="Times Roman,serif" font-size="14.00">50455120</text>
</g>
<!-- 50455120&#45;&gt;45671424 -->
<g id="edge37" class="edge"><title>50455120&#45;&gt;45671424</title>
<path fill="none" stroke="black" d="M1046,-37.8129C1046,-59.2806 1046,-95.4093 1046,-126.255"/>
<polygon fill="black" stroke="black" points="1042.5,-126.484 1046,-136.484 1049.5,-126.484 1042.5,-126.484"/>
</g>
</g>
</svg>
