<?xml version="1.0" encoding="UTF-8" standalone="no"?>
<!DOCTYPE svg PUBLIC "-//W3C//DTD SVG 1.1//EN"
 "http://www.w3.org/Graphics/SVG/1.1/DTD/svg11.dtd">
<!-- Generated by graphviz version 2.26.3 (20100126.1600)
 -->
<!-- Title: _anonymous_0 Pages: 1 -->
<svg width="1342pt" height="1071pt"
 viewBox="0.00 0.00 1342.00 1071.00" xmlns="http://www.w3.org/2000/svg" xmlns:xlink="http://www.w3.org/1999/xlink">
<g id="graph1" class="graph" transform="scale(1 1) rotate(0) translate(4 1067)">
<title>_anonymous_0</title>
<polygon fill="white" stroke="white" points="-4,5 -4,-1067 1339,-1067 1339,5 -4,5"/>
<g id="graph2" class="cluster"><title>cluster1</title>
<polygon fill="none" stroke="black" points="134,-46 134,-1055 1326,-1055 1326,-46 134,-46"/>
<text text-anchor="middle" x="730" y="-57.4" font-family="Times Roman,serif" font-size="24.00">Venture Families</text>
</g>
<g id="graph3" class="cluster"><title>cluster2</title>
<polygon fill="none" stroke="black" points="142,-91 142,-456 1318,-456 1318,-91 142,-91"/>
<text text-anchor="middle" x="730" y="-102.4" font-family="Times Roman,serif" font-size="24.00">1</text>
</g>
<g id="graph4" class="cluster"><title>cluster3</title>
<polygon fill="none" stroke="black" points="142,-464 142,-1047 1220,-1047 1220,-464 142,-464"/>
<text text-anchor="middle" x="681" y="-475.4" font-family="Times Roman,serif" font-size="24.00">2</text>
</g>
<!-- 39664544 -->
<g id="node3" class="node"><title>39664544</title>
<ellipse fill="#999999" stroke="black" cx="734" cy="-401" rx="405.172" ry="46.669"/>
<text text-anchor="middle" x="734" y="-408.4" font-family="Times Roman,serif" font-size="24.00">exp: (make_sym_dir_mult 1.000000 2.000000)</text>
<text text-anchor="middle" x="734" y="-379.4" font-family="Times Roman,serif" font-size="24.00">value: sp:sym_dir_mult</text>
</g>
<!-- 30868272 -->
<g id="node14" class="node"><title>30868272</title>
<ellipse fill="#999999" stroke="black" cx="993" cy="-556" rx="208.096" ry="46.669"/>
<text text-anchor="middle" x="993" y="-563.4" font-family="Times Roman,serif" font-size="24.00">exp: f</text>
<text text-anchor="middle" x="993" y="-534.4" font-family="Times Roman,serif" font-size="24.00">value: sp:sym_dir_mult</text>
</g>
<!-- 39664544&#45;&gt;30868272 -->
<g id="edge19" class="edge"><title>39664544&#45;&gt;30868272</title>
<path fill="none" stroke="black" d="M810.657,-446.876C842.29,-465.807 879,-487.776 911.154,-507.019"/>
<polygon fill="black" stroke="black" points="909.717,-510.237 920.095,-512.369 913.311,-504.231 909.717,-510.237"/>
</g>
<!-- 31055760 -->
<g id="node4" class="node"><title>31055760</title>
<ellipse fill="#999999" stroke="black" cx="615" cy="-292" rx="99.9096" ry="26.163"/>
<text text-anchor="middle" x="615" y="-284.9" font-family="Times Roman,serif" font-size="24.00">request: []</text>
</g>
<!-- 31055760&#45;&gt;39664544 -->
<g id="edge47" class="edge"><title>31055760&#45;&gt;39664544</title>
<path fill="none" stroke="black" d="M642.6,-317.281C652.513,-326.361 664.103,-336.976 675.636,-347.54"/>
<polygon fill="black" stroke="black" points="673.45,-350.284 683.188,-354.458 678.178,-345.123 673.45,-350.284"/>
</g>
<!-- 33936992 -->
<g id="node5" class="node"><title>33936992</title>
<ellipse fill="#999999" stroke="black" cx="1046" cy="-183" rx="263.958" ry="46.669"/>
<text text-anchor="middle" x="1046" y="-190.4" font-family="Times Roman,serif" font-size="24.00">exp: make_sym_dir_mult</text>
<text text-anchor="middle" x="1046" y="-161.4" font-family="Times Roman,serif" font-size="24.00">value: sp:make_sym_dir_mult</text>
</g>
<!-- 33936992&#45;&gt;39664544 -->
<g id="edge33" class="edge"><title>33936992&#45;&gt;39664544</title>
<path fill="none" stroke="black" d="M981.353,-228.17C930.949,-263.388 860.9,-312.333 808.208,-349.149"/>
<polygon fill="black" stroke="black" points="806.099,-346.353 799.906,-354.95 810.108,-352.091 806.099,-346.353"/>
</g>
<!-- 33936992&#45;&gt;31055760 -->
<g id="edge35" class="edge"><title>33936992&#45;&gt;31055760</title>
<path fill="none" stroke="black" d="M894.954,-221.199C828.227,-238.075 752.42,-257.246 696.535,-271.38"/>
<polygon fill="black" stroke="black" points="695.527,-268.024 686.69,-273.869 697.243,-274.811 695.527,-268.024"/>
</g>
<!-- 31082928 -->
<g id="node6" class="node"><title>31082928</title>
<ellipse fill="#999999" stroke="black" cx="615" cy="-183" rx="149.2" ry="46.669"/>
<text text-anchor="middle" x="615" y="-190.4" font-family="Times Roman,serif" font-size="24.00">exp: 1.000000</text>
<text text-anchor="middle" x="615" y="-161.4" font-family="Times Roman,serif" font-size="24.00">value: 1.000000</text>
</g>
<!-- 31082928&#45;&gt;39664544 -->
<g id="edge39" class="edge"><title>31082928&#45;&gt;39664544</title>
<path fill="none" stroke="black" d="M686.981,-223.926C701.581,-235.616 715.155,-249.692 724,-266 736.753,-289.513 740.143,-318.804 739.974,-344.087"/>
<polygon fill="black" stroke="black" points="736.47,-344.199 739.717,-354.284 743.468,-344.375 736.47,-344.199"/>
</g>
<!-- 31082928&#45;&gt;31055760 -->
<g id="edge41" class="edge"><title>31082928&#45;&gt;31055760</title>
<path fill="none" stroke="black" d="M615,-229.542C615,-238.249 615,-247.232 615,-255.578"/>
<polygon fill="black" stroke="black" points="611.5,-255.739 615,-265.739 618.5,-255.739 611.5,-255.739"/>
</g>
<!-- 31983280 -->
<g id="node7" class="node"><title>31983280</title>
<ellipse fill="#999999" stroke="black" cx="299" cy="-183" rx="149.2" ry="46.669"/>
<text text-anchor="middle" x="299" y="-190.4" font-family="Times Roman,serif" font-size="24.00">exp: 2.000000</text>
<text text-anchor="middle" x="299" y="-161.4" font-family="Times Roman,serif" font-size="24.00">value: 2.000000</text>
</g>
<!-- 31983280&#45;&gt;39664544 -->
<g id="edge43" class="edge"><title>31983280&#45;&gt;39664544</title>
<path fill="none" stroke="black" d="M357.078,-226.045C397.43,-254.636 453.231,-291.624 506,-318 531.982,-330.987 560.509,-342.999 588.326,-353.62"/>
<polygon fill="black" stroke="black" points="587.135,-356.912 597.727,-357.168 589.607,-350.363 587.135,-356.912"/>
</g>
<!-- 31983280&#45;&gt;31055760 -->
<g id="edge45" class="edge"><title>31983280&#45;&gt;31055760</title>
<path fill="none" stroke="black" d="M398.984,-217.488C446.558,-233.898 502.279,-253.119 545.213,-267.928"/>
<polygon fill="black" stroke="black" points="544.131,-271.257 554.726,-271.209 546.414,-264.64 544.131,-271.257"/>
</g>
<!-- 37271520 -->
<g id="node9" class="node"><title>37271520</title>
<ellipse fill="gold" stroke="black" cx="752" cy="-992" rx="370.024" ry="46.669"/>
<text text-anchor="middle" x="752" y="-999.4" font-family="Times Roman,serif" font-size="24.00">exp: (branch_exp (f) (quote (f)) (quote (f)))</text>
<text text-anchor="middle" x="752" y="-970.4" font-family="Times Roman,serif" font-size="24.00">value: </text>
</g>
<!-- 30415904 -->
<g id="node10" class="node"><title>30415904</title>
<ellipse fill="gold" stroke="black" cx="752" cy="-883" rx="87.1802" ry="26.163"/>
<text text-anchor="middle" x="752" y="-875.9" font-family="Times Roman,serif" font-size="24.00">request: </text>
</g>
<!-- 30415904&#45;&gt;37271520 -->
<g id="edge31" class="edge"><title>30415904&#45;&gt;37271520</title>
<path fill="none" stroke="black" d="M752,-909.108C752,-916.979 752,-925.946 752,-935.005"/>
<polygon fill="black" stroke="black" points="748.5,-935.218 752,-945.218 755.5,-935.218 748.5,-935.218"/>
</g>
<!-- 31328816 -->
<g id="node11" class="node"><title>31328816</title>
<ellipse fill="#999999" stroke="black" cx="896" cy="-774" rx="154.149" ry="46.669"/>
<text text-anchor="middle" x="896" y="-781.4" font-family="Times Roman,serif" font-size="24.00">exp: branch_exp</text>
<text text-anchor="middle" x="896" y="-752.4" font-family="Times Roman,serif" font-size="24.00">value: sp:branch</text>
</g>
<!-- 31328816&#45;&gt;37271520 -->
<g id="edge5" class="edge"><title>31328816&#45;&gt;37271520</title>
<path fill="none" stroke="black" d="M885.827,-820.519C878.345,-847.911 866.253,-882.306 848,-909 840.766,-919.58 831.862,-929.637 822.422,-938.863"/>
<polygon fill="black" stroke="black" points="819.991,-936.344 815.117,-945.751 824.793,-941.437 819.991,-936.344"/>
</g>
<!-- 31328816&#45;&gt;30415904 -->
<g id="edge7" class="edge"><title>31328816&#45;&gt;30415904</title>
<path fill="none" stroke="black" d="M838.674,-817.393C823.201,-829.105 806.783,-841.532 792.447,-852.384"/>
<polygon fill="black" stroke="black" points="790.13,-849.748 784.269,-858.574 794.355,-855.33 790.13,-849.748"/>
</g>
<!-- 31341232 -->
<g id="node12" class="node"><title>31341232</title>
<ellipse fill="firebrick" stroke="black" cx="1140" cy="-774" rx="72.1249" ry="46.669"/>
<text text-anchor="middle" x="1140" y="-781.4" font-family="Times Roman,serif" font-size="24.00">exp: (f)</text>
<text text-anchor="middle" x="1140" y="-752.4" font-family="Times Roman,serif" font-size="24.00">value: </text>
</g>
<!-- 31341232&#45;&gt;37271520 -->
<g id="edge11" class="edge"><title>31341232&#45;&gt;37271520</title>
<path fill="none" stroke="black" d="M1086.48,-805.229C1077.33,-810.52 1067.9,-815.937 1059,-821 986.84,-862.028 904.665,-907.747 843.503,-941.582"/>
<polygon fill="black" stroke="black" points="841.693,-938.583 834.636,-946.486 845.08,-944.709 841.693,-938.583"/>
</g>
<!-- 31341232&#45;&gt;30415904 -->
<g id="edge13" class="edge"><title>31341232&#45;&gt;30415904</title>
<path fill="none" stroke="black" d="M1088.96,-806.95C1079.28,-812.227 1069.03,-817.195 1059,-821 989.169,-847.486 905.895,-863.399 843.706,-872.459"/>
<polygon fill="black" stroke="black" points="842.928,-869.035 833.521,-873.909 843.915,-875.965 842.928,-869.035"/>
</g>
<!-- 34036272 -->
<g id="node13" class="node"><title>34036272</title>
<ellipse fill="#999999" stroke="black" cx="1112" cy="-665" rx="99.9096" ry="26.163"/>
<text text-anchor="middle" x="1112" y="-657.9" font-family="Times Roman,serif" font-size="24.00">request: []</text>
</g>
<!-- 34036272&#45;&gt;31341232 -->
<g id="edge21" class="edge"><title>34036272&#45;&gt;31341232</title>
<path fill="none" stroke="black" d="M1118.71,-691.108C1120.82,-699.335 1123.24,-708.76 1125.68,-718.235"/>
<polygon fill="black" stroke="black" points="1122.33,-719.266 1128.2,-728.08 1129.11,-717.524 1122.33,-719.266"/>
</g>
<!-- 30868272&#45;&gt;31341232 -->
<g id="edge15" class="edge"><title>30868272&#45;&gt;31341232</title>
<path fill="none" stroke="black" d="M991.989,-602.626C992.097,-635.663 994.155,-676.574 1003,-691 1005.42,-694.948 1042.42,-717.261 1077.35,-737.757"/>
<polygon fill="black" stroke="black" points="1075.77,-740.886 1086.17,-742.917 1079.3,-734.845 1075.77,-740.886"/>
</g>
<!-- 30868272&#45;&gt;34036272 -->
<g id="edge17" class="edge"><title>30868272&#45;&gt;34036272</title>
<path fill="none" stroke="black" d="M1042.43,-601.279C1054.05,-611.916 1066.19,-623.036 1077.01,-632.954"/>
<polygon fill="black" stroke="black" points="1074.9,-635.765 1084.64,-639.939 1079.63,-630.603 1074.9,-635.765"/>
</g>
<!-- 32857776 -->
<g id="node15" class="node"><title>32857776</title>
<ellipse fill="#999999" stroke="black" cx="585" cy="-774" rx="138.801" ry="46.669"/>
<text text-anchor="middle" x="585" y="-781.4" font-family="Times Roman,serif" font-size="24.00">exp: (quote (f))</text>
<text text-anchor="middle" x="585" y="-752.4" font-family="Times Roman,serif" font-size="24.00">value: (f)</text>
</g>
<!-- 32857776&#45;&gt;37271520 -->
<g id="edge23" class="edge"><title>32857776&#45;&gt;37271520</title>
<path fill="none" stroke="black" d="M604.112,-820.324C616.62,-847.647 634.594,-882.039 656,-909 664.378,-919.553 674.232,-929.8 684.378,-939.286"/>
<polygon fill="black" stroke="black" points="682.053,-941.902 691.801,-946.052 686.769,-936.729 682.053,-941.902"/>
</g>
<!-- 32857776&#45;&gt;30415904 -->
<g id="edge25" class="edge"><title>32857776&#45;&gt;30415904</title>
<path fill="none" stroke="black" d="M648.612,-815.519C668.099,-828.238 689.119,-841.958 707.085,-853.685"/>
<polygon fill="black" stroke="black" points="705.352,-856.733 715.64,-859.268 709.179,-850.871 705.352,-856.733"/>
</g>
<!-- 30881168 -->
<g id="node16" class="node"><title>30881168</title>
<ellipse fill="#999999" stroke="black" cx="289" cy="-774" rx="138.801" ry="46.669"/>
<text text-anchor="middle" x="289" y="-781.4" font-family="Times Roman,serif" font-size="24.00">exp: (quote (f))</text>
<text text-anchor="middle" x="289" y="-752.4" font-family="Times Roman,serif" font-size="24.00">value: (f)</text>
</g>
<!-- 30881168&#45;&gt;37271520 -->
<g id="edge27" class="edge"><title>30881168&#45;&gt;37271520</title>
<path fill="none" stroke="black" d="M369.648,-811.973C446.642,-848.224 563.066,-903.042 647.211,-942.661"/>
<polygon fill="black" stroke="black" points="645.738,-945.836 656.277,-946.929 648.72,-939.503 645.738,-945.836"/>
</g>
<!-- 30881168&#45;&gt;30415904 -->
<g id="edge29" class="edge"><title>30881168&#45;&gt;30415904</title>
<path fill="none" stroke="black" d="M387.267,-806.915C403.779,-811.953 420.809,-816.85 437,-821 513.618,-840.639 602.086,-857.556 665.724,-868.735"/>
<polygon fill="black" stroke="black" points="665.265,-872.208 675.718,-870.479 666.469,-865.312 665.265,-872.208"/>
</g>
<!-- 30852832 -->
<g id="node19" class="node"><title>30852832</title>
<ellipse fill="none" stroke="black" cx="63" cy="-665" rx="62.9325" ry="18.3848"/>
<text text-anchor="middle" x="63" y="-661.4" font-family="Times Roman,serif" font-size="14.00">30852832</text>
</g>
<!-- 30852832&#45;&gt;31328816 -->
<g id="edge9" class="edge"><title>30852832&#45;&gt;31328816</title>
<path fill="none" stroke="black" d="M99.8286,-680.011C111.81,-684.284 125.297,-688.464 138,-691 397.8,-742.871 471.917,-682.028 733,-727 748.623,-729.691 764.883,-733.329 780.82,-737.395"/>
<polygon fill="black" stroke="black" points="780.134,-740.833 790.694,-739.978 781.905,-734.061 780.134,-740.833"/>
</g>
<!-- 39748592 -->
<g id="node34" class="node"><title>39748592</title>
<ellipse fill="none" stroke="black" cx="1046" cy="-19" rx="62.9325" ry="18.3848"/>
<text text-anchor="middle" x="1046" y="-15.4" font-family="Times Roman,serif" font-size="14.00">39748592</text>
</g>
<!-- 39748592&#45;&gt;33936992 -->
<g id="edge37" class="edge"><title>39748592&#45;&gt;33936992</title>
<path fill="none" stroke="black" d="M1046,-37.8129C1046,-59.2806 1046,-95.4093 1046,-126.255"/>
<polygon fill="black" stroke="black" points="1042.5,-126.484 1046,-136.484 1049.5,-126.484 1042.5,-126.484"/>
</g>
</g>
</svg>
