<?xml version="1.0" encoding="UTF-8" standalone="no"?>
<!DOCTYPE svg PUBLIC "-//W3C//DTD SVG 1.1//EN"
 "http://www.w3.org/Graphics/SVG/1.1/DTD/svg11.dtd">
<!-- Generated by graphviz version 2.26.3 (20100126.1600)
 -->
<!-- Title: _anonymous_0 Pages: 1 -->
<svg width="2709pt" height="1308pt"
 viewBox="0.00 0.00 2709.00 1308.00" xmlns="http://www.w3.org/2000/svg" xmlns:xlink="http://www.w3.org/1999/xlink">
<g id="graph1" class="graph" transform="scale(1 1) rotate(0) translate(4 1304)">
<title>_anonymous_0</title>
<polygon fill="white" stroke="white" points="-4,5 -4,-1304 2706,-1304 2706,5 -4,5"/>
<!-- 36113584 -->
<g id="node3" class="node"><title>36113584</title>
<ellipse fill="dodgerblue" stroke="black" cx="658" cy="-339" rx="300.02" ry="46.669"/>
<text text-anchor="middle" x="658" y="-346.4" font-family="Times Roman,serif" font-size="24.00">exp: (gamma 1.000000 1.000000)</text>
<text text-anchor="middle" x="658" y="-317.4" font-family="Times Roman,serif" font-size="24.00">value: 0.685376</text>
</g>
<!-- 36074816 -->
<g id="node15" class="node"><title>36074816</title>
<ellipse fill="khaki" stroke="black" cx="1119" cy="-469" rx="149.2" ry="46.669"/>
<text text-anchor="middle" x="1119" y="-476.4" font-family="Times Roman,serif" font-size="24.00">exp: x</text>
<text text-anchor="middle" x="1119" y="-447.4" font-family="Times Roman,serif" font-size="24.00">value: 0.685376</text>
</g>
<!-- 36113584&#45;&gt;36074816 -->
<g id="edge61" class="edge"><title>36113584&#45;&gt;36074816</title>
<path fill="none" stroke="black" d="M807.673,-379.306C856.607,-392.669 911.178,-407.768 961,-422 974.175,-425.764 987.949,-429.763 1001.64,-433.78"/>
<polygon fill="black" stroke="black" points="1001,-437.24 1011.58,-436.704 1002.97,-430.524 1001,-437.24"/>
</g>
<!-- 36115744 -->
<g id="node29" class="node"><title>36115744</title>
<ellipse fill="khaki" stroke="black" cx="487" cy="-469" rx="149.2" ry="46.669"/>
<text text-anchor="middle" x="487" y="-476.4" font-family="Times Roman,serif" font-size="24.00">exp: x</text>
<text text-anchor="middle" x="487" y="-447.4" font-family="Times Roman,serif" font-size="24.00">value: 0.685376</text>
</g>
<!-- 36113584&#45;&gt;36115744 -->
<g id="edge93" class="edge"><title>36113584&#45;&gt;36115744</title>
<path fill="none" stroke="black" d="M597.712,-384.833C582.865,-396.12 566.904,-408.255 551.851,-419.698"/>
<polygon fill="black" stroke="black" points="549.437,-417.137 543.595,-425.975 553.673,-422.709 549.437,-417.137"/>
</g>
<!-- 35766656 -->
<g id="node4" class="node"><title>35766656</title>
<ellipse fill="#6e8b3d" stroke="black" cx="722" cy="-230" rx="99.9096" ry="26.163"/>
<text text-anchor="middle" x="722" y="-222.9" font-family="Times Roman,serif" font-size="24.00">request: []</text>
</g>
<!-- 35766656&#45;&gt;36113584 -->
<g id="edge21" class="edge"><title>35766656&#45;&gt;36113584</title>
<path fill="none" stroke="black" d="M706.833,-255.831C701.909,-264.218 696.241,-273.871 690.55,-283.564"/>
<polygon fill="black" stroke="black" points="687.383,-282.045 685.338,-292.441 693.419,-285.589 687.383,-282.045"/>
</g>
<!-- 36622800 -->
<g id="node5" class="node"><title>36622800</title>
<ellipse fill="khaki" stroke="black" cx="348" cy="-121" rx="159.806" ry="46.669"/>
<text text-anchor="middle" x="348" y="-128.4" font-family="Times Roman,serif" font-size="24.00">exp: gamma</text>
<text text-anchor="middle" x="348" y="-99.4" font-family="Times Roman,serif" font-size="24.00">value: sp:gamma</text>
</g>
<!-- 36622800&#45;&gt;36113584 -->
<g id="edge7" class="edge"><title>36622800&#45;&gt;36113584</title>
<path fill="none" stroke="black" d="M409.246,-164.07C459.745,-199.582 531.51,-250.049 584.99,-287.658"/>
<polygon fill="black" stroke="black" points="583.217,-290.689 593.41,-293.579 587.244,-284.964 583.217,-290.689"/>
</g>
<!-- 36622800&#45;&gt;35766656 -->
<g id="edge9" class="edge"><title>36622800&#45;&gt;35766656</title>
<path fill="none" stroke="black" d="M461.227,-153.999C520.935,-171.401 592.592,-192.285 645.67,-207.754"/>
<polygon fill="black" stroke="black" points="644.777,-211.139 655.357,-210.577 646.736,-204.419 644.777,-211.139"/>
</g>
<!-- 36660544 -->
<g id="node6" class="node"><title>36660544</title>
<ellipse fill="#eead0e" stroke="black" cx="675" cy="-121" rx="149.2" ry="46.669"/>
<text text-anchor="middle" x="675" y="-128.4" font-family="Times Roman,serif" font-size="24.00">exp: 1.000000</text>
<text text-anchor="middle" x="675" y="-99.4" font-family="Times Roman,serif" font-size="24.00">value: 1.000000</text>
</g>
<!-- 36660544&#45;&gt;36113584 -->
<g id="edge13" class="edge"><title>36660544&#45;&gt;36113584</title>
<path fill="none" stroke="black" d="M633.494,-165.828C625.1,-177.45 617.48,-190.516 613,-204 604.331,-230.09 611.702,-259.008 622.807,-283.365"/>
<polygon fill="black" stroke="black" points="619.706,-284.991 627.219,-292.461 626.004,-281.936 619.706,-284.991"/>
</g>
<!-- 36660544&#45;&gt;35766656 -->
<g id="edge15" class="edge"><title>36660544&#45;&gt;35766656</title>
<path fill="none" stroke="black" d="M694.932,-167.226C698.859,-176.332 702.921,-185.753 706.667,-194.442"/>
<polygon fill="black" stroke="black" points="703.565,-196.086 710.739,-203.883 709.993,-193.315 703.565,-196.086"/>
</g>
<!-- 36977184 -->
<g id="node7" class="node"><title>36977184</title>
<ellipse fill="#eead0e" stroke="black" cx="991" cy="-121" rx="149.2" ry="46.669"/>
<text text-anchor="middle" x="991" y="-128.4" font-family="Times Roman,serif" font-size="24.00">exp: 1.000000</text>
<text text-anchor="middle" x="991" y="-99.4" font-family="Times Roman,serif" font-size="24.00">value: 1.000000</text>
</g>
<!-- 36977184&#45;&gt;36113584 -->
<g id="edge17" class="edge"><title>36977184&#45;&gt;36113584</title>
<path fill="none" stroke="black" d="M944.826,-165.423C914.128,-193.536 872.047,-229.453 831,-256 811.872,-268.371 790.62,-280.055 769.742,-290.536"/>
<polygon fill="black" stroke="black" points="767.916,-287.535 760.507,-295.109 771.021,-293.809 767.916,-287.535"/>
</g>
<!-- 36977184&#45;&gt;35766656 -->
<g id="edge19" class="edge"><title>36977184&#45;&gt;35766656</title>
<path fill="none" stroke="black" d="M899.929,-157.902C862.312,-173.145 819.618,-190.445 785.482,-204.277"/>
<polygon fill="black" stroke="black" points="784.046,-201.082 776.092,-208.082 786.675,-207.57 784.046,-201.082"/>
</g>
<!-- 37335920 -->
<g id="node9" class="node"><title>37335920</title>
<ellipse fill="dodgerblue" stroke="black" cx="1236" cy="-905" rx="789.838" ry="46.669"/>
<text text-anchor="middle" x="1236" y="-912.4" font-family="Times Roman,serif" font-size="24.00">exp: (branch_exp (lt x 1.000000) (quote (gamma x 2.000000)) (quote (normal x 2.000000)))</text>
<text text-anchor="middle" x="1236" y="-883.4" font-family="Times Roman,serif" font-size="24.00">value: 0.545111</text>
</g>
<!-- 36558880 -->
<g id="node23" class="node"><title>36558880</title>
<ellipse fill="khaki" stroke="black" cx="961" cy="-1035" rx="149.2" ry="46.669"/>
<text text-anchor="middle" x="961" y="-1042.4" font-family="Times Roman,serif" font-size="24.00">exp: y</text>
<text text-anchor="middle" x="961" y="-1013.4" font-family="Times Roman,serif" font-size="24.00">value: 0.545111</text>
</g>
<!-- 37335920&#45;&gt;36558880 -->
<g id="edge33" class="edge"><title>37335920&#45;&gt;36558880</title>
<path fill="none" stroke="black" d="M1138.27,-951.199C1110.39,-964.378 1080.13,-978.686 1052.63,-991.686"/>
<polygon fill="black" stroke="black" points="1050.96,-988.603 1043.41,-996.041 1053.95,-994.932 1050.96,-988.603"/>
</g>
<!-- 38113408 -->
<g id="node10" class="node"><title>38113408</title>
<ellipse fill="#6e8b3d" stroke="black" cx="1478" cy="-796" rx="456.791" ry="26.163"/>
<text text-anchor="middle" x="1478" y="-788.9" font-family="Times Roman,serif" font-size="24.00">request: [(38113408, (gamma x 2.000000), &lt;env&gt;)]</text>
</g>
<!-- 38113408&#45;&gt;37335920 -->
<g id="edge77" class="edge"><title>38113408&#45;&gt;37335920</title>
<path fill="none" stroke="black" d="M1420.65,-821.831C1398.74,-831.7 1372.94,-843.321 1347.68,-854.697"/>
<polygon fill="black" stroke="black" points="1346.09,-851.575 1338.41,-858.873 1348.97,-857.957 1346.09,-851.575"/>
</g>
<!-- 38090544 -->
<g id="node26" class="node"><title>38090544</title>
<ellipse fill="dodgerblue" stroke="black" cx="552" cy="-687" rx="231.224" ry="46.669"/>
<text text-anchor="middle" x="552" y="-694.4" font-family="Times Roman,serif" font-size="24.00">exp: (gamma x 2.000000)</text>
<text text-anchor="middle" x="552" y="-665.4" font-family="Times Roman,serif" font-size="24.00">value: 0.545111</text>
</g>
<!-- 38113408&#45;&gt;38090544 -->
<g id="edge81" class="edge"><title>38113408&#45;&gt;38090544</title>
<path fill="none" stroke="black" stroke-dasharray="1,5" d="M1183.46,-776.089C1061.92,-766.133 919.854,-752.247 792,-734 769.198,-730.746 745.282,-726.76 721.748,-722.499"/>
<polygon fill="black" stroke="black" points="722.157,-719.016 711.69,-720.657 720.896,-725.901 722.157,-719.016"/>
</g>
<!-- 37397440 -->
<g id="node11" class="node"><title>37397440</title>
<ellipse fill="khaki" stroke="black" cx="955" cy="-687" rx="154.149" ry="46.669"/>
<text text-anchor="middle" x="955" y="-694.4" font-family="Times Roman,serif" font-size="24.00">exp: branch_exp</text>
<text text-anchor="middle" x="955" y="-665.4" font-family="Times Roman,serif" font-size="24.00">value: sp:branch</text>
</g>
<!-- 37397440&#45;&gt;37335920 -->
<g id="edge41" class="edge"><title>37397440&#45;&gt;37335920</title>
<path fill="none" stroke="black" d="M958.939,-733.655C963.69,-762.486 974.125,-798.366 997,-822 1009.44,-834.849 1023.96,-845.71 1039.6,-854.891"/>
<polygon fill="black" stroke="black" points="1037.96,-857.984 1048.39,-859.821 1041.38,-851.878 1037.96,-857.984"/>
</g>
<!-- 37397440&#45;&gt;38113408 -->
<g id="edge43" class="edge"><title>37397440&#45;&gt;38113408</title>
<path fill="none" stroke="black" d="M1063.73,-720.148C1081.77,-725.13 1100.35,-729.948 1118,-734 1178.19,-747.815 1244.67,-760.09 1303.95,-769.999"/>
<polygon fill="black" stroke="black" points="1303.72,-773.509 1314.16,-771.694 1304.87,-766.604 1303.72,-773.509"/>
</g>
<!-- 29368912 -->
<g id="node12" class="node"><title>29368912</title>
<ellipse fill="dodgerblue" stroke="black" cx="1305" cy="-687" rx="178.191" ry="46.669"/>
<text text-anchor="middle" x="1305" y="-694.4" font-family="Times Roman,serif" font-size="24.00">exp: (lt x 1.000000)</text>
<text text-anchor="middle" x="1305" y="-665.4" font-family="Times Roman,serif" font-size="24.00">value: #t</text>
</g>
<!-- 29368912&#45;&gt;37335920 -->
<g id="edge47" class="edge"><title>29368912&#45;&gt;37335920</title>
<path fill="none" stroke="black" d="M1177.47,-719.449C1100.99,-739.515 1017.46,-762.778 1012,-770 984.972,-805.748 1012.08,-833.998 1055.6,-855.218"/>
<polygon fill="black" stroke="black" points="1054.28,-858.461 1064.82,-859.504 1057.23,-852.114 1054.28,-858.461"/>
</g>
<!-- 29368912&#45;&gt;38113408 -->
<g id="edge49" class="edge"><title>29368912&#45;&gt;38113408</title>
<path fill="none" stroke="black" d="M1373.37,-730.08C1391.63,-741.583 1411.02,-753.796 1428.07,-764.544"/>
<polygon fill="black" stroke="black" points="1426.44,-767.65 1436.76,-770.019 1430.17,-761.727 1426.44,-767.65"/>
</g>
<!-- 37758864 -->
<g id="node13" class="node"><title>37758864</title>
<ellipse fill="#6e8b3d" stroke="black" cx="1408" cy="-578" rx="99.9096" ry="26.163"/>
<text text-anchor="middle" x="1408" y="-570.9" font-family="Times Roman,serif" font-size="24.00">request: []</text>
</g>
<!-- 37758864&#45;&gt;29368912 -->
<g id="edge67" class="edge"><title>37758864&#45;&gt;29368912</title>
<path fill="none" stroke="black" d="M1384.11,-603.281C1375.32,-612.581 1365.01,-623.492 1354.79,-634.308"/>
<polygon fill="black" stroke="black" points="1352.07,-632.088 1347.75,-641.761 1357.16,-636.896 1352.07,-632.088"/>
</g>
<!-- 35795904 -->
<g id="node14" class="node"><title>35795904</title>
<ellipse fill="khaki" stroke="black" cx="1395" cy="-469" rx="109.101" ry="46.669"/>
<text text-anchor="middle" x="1395" y="-476.4" font-family="Times Roman,serif" font-size="24.00">exp: lt</text>
<text text-anchor="middle" x="1395" y="-447.4" font-family="Times Roman,serif" font-size="24.00">value: sp:&lt;</text>
</g>
<!-- 35795904&#45;&gt;29368912 -->
<g id="edge51" class="edge"><title>35795904&#45;&gt;29368912</title>
<path fill="none" stroke="black" d="M1334.15,-507.829C1319.99,-520.098 1306.79,-534.969 1299,-552 1287.98,-576.096 1287.85,-605.206 1291.15,-630.217"/>
<polygon fill="black" stroke="black" points="1287.72,-630.94 1292.69,-640.297 1294.64,-629.883 1287.72,-630.94"/>
</g>
<!-- 35795904&#45;&gt;37758864 -->
<g id="edge53" class="edge"><title>35795904&#45;&gt;37758864</title>
<path fill="none" stroke="black" d="M1400.55,-515.542C1401.59,-524.249 1402.66,-533.232 1403.66,-541.578"/>
<polygon fill="black" stroke="black" points="1400.21,-542.224 1404.87,-551.739 1407.16,-541.395 1400.21,-542.224"/>
</g>
<!-- 36074816&#45;&gt;29368912 -->
<g id="edge57" class="edge"><title>36074816&#45;&gt;29368912</title>
<path fill="none" stroke="black" d="M1157.54,-514.17C1187.24,-548.983 1228.39,-597.209 1259.67,-633.874"/>
<polygon fill="black" stroke="black" points="1257.04,-636.178 1266.19,-641.514 1262.36,-631.635 1257.04,-636.178"/>
</g>
<!-- 36074816&#45;&gt;37758864 -->
<g id="edge59" class="edge"><title>36074816&#45;&gt;37758864</title>
<path fill="none" stroke="black" d="M1214.03,-504.842C1255.74,-520.572 1303.7,-538.661 1341.49,-552.916"/>
<polygon fill="black" stroke="black" points="1340.28,-556.2 1350.87,-556.454 1342.75,-549.65 1340.28,-556.2"/>
</g>
<!-- 35677552 -->
<g id="node16" class="node"><title>35677552</title>
<ellipse fill="#eead0e" stroke="black" cx="1671" cy="-469" rx="149.2" ry="46.669"/>
<text text-anchor="middle" x="1671" y="-476.4" font-family="Times Roman,serif" font-size="24.00">exp: 1.000000</text>
<text text-anchor="middle" x="1671" y="-447.4" font-family="Times Roman,serif" font-size="24.00">value: 1.000000</text>
</g>
<!-- 35677552&#45;&gt;29368912 -->
<g id="edge63" class="edge"><title>35677552&#45;&gt;29368912</title>
<path fill="none" stroke="black" d="M1628.44,-513.616C1599.19,-542.342 1558.31,-578.872 1517,-604 1489.38,-620.8 1457.77,-635.337 1427.54,-647.342"/>
<polygon fill="black" stroke="black" points="1426.25,-644.089 1418.2,-650.986 1428.79,-650.609 1426.25,-644.089"/>
</g>
<!-- 35677552&#45;&gt;37758864 -->
<g id="edge65" class="edge"><title>35677552&#45;&gt;37758864</title>
<path fill="none" stroke="black" d="M1581.23,-506.207C1544.93,-521.25 1503.9,-538.254 1470.89,-551.937"/>
<polygon fill="black" stroke="black" points="1469.25,-548.825 1461.36,-555.887 1471.93,-555.291 1469.25,-548.825"/>
</g>
<!-- 35878336 -->
<g id="node17" class="node"><title>35878336</title>
<ellipse fill="#eead0e" stroke="black" cx="1799" cy="-687" rx="297.899" ry="46.669"/>
<text text-anchor="middle" x="1799" y="-694.4" font-family="Times Roman,serif" font-size="24.00">exp: (quote (gamma x 2.000000))</text>
<text text-anchor="middle" x="1799" y="-665.4" font-family="Times Roman,serif" font-size="24.00">value: (gamma x 2.000000)</text>
</g>
<!-- 35878336&#45;&gt;37335920 -->
<g id="edge69" class="edge"><title>35878336&#45;&gt;37335920</title>
<path fill="none" stroke="black" d="M1906.35,-730.438C1921.4,-741.137 1934.83,-754.191 1944,-770 1955.59,-789.993 1959.36,-804.733 1944,-822 1927.3,-840.773 1849.94,-855.988 1752.1,-868.013"/>
<polygon fill="black" stroke="black" points="1751.46,-864.565 1741.95,-869.241 1752.3,-871.515 1751.46,-864.565"/>
</g>
<!-- 35878336&#45;&gt;38113408 -->
<g id="edge71" class="edge"><title>35878336&#45;&gt;38113408</title>
<path fill="none" stroke="black" d="M1674.43,-729.298C1637.38,-741.88 1597.64,-755.376 1563.66,-766.914"/>
<polygon fill="black" stroke="black" points="1562.12,-763.741 1553.77,-770.271 1564.37,-770.369 1562.12,-763.741"/>
</g>
<!-- 35761680 -->
<g id="node18" class="node"><title>35761680</title>
<ellipse fill="#eead0e" stroke="black" cx="2408" cy="-687" rx="292.949" ry="46.669"/>
<text text-anchor="middle" x="2408" y="-694.4" font-family="Times Roman,serif" font-size="24.00">exp: (quote (normal x 2.000000))</text>
<text text-anchor="middle" x="2408" y="-665.4" font-family="Times Roman,serif" font-size="24.00">value: (normal x 2.000000)</text>
</g>
<!-- 35761680&#45;&gt;37335920 -->
<g id="edge73" class="edge"><title>35761680&#45;&gt;37335920</title>
<path fill="none" stroke="black" d="M2288.64,-729.646C2199.9,-759.767 2075.26,-798.762 1963,-822 1876.82,-839.839 1784.04,-854.101 1694.55,-865.416"/>
<polygon fill="black" stroke="black" points="1693.99,-861.959 1684.5,-866.676 1694.86,-868.905 1693.99,-861.959"/>
</g>
<!-- 35761680&#45;&gt;38113408 -->
<g id="edge75" class="edge"><title>35761680&#45;&gt;38113408</title>
<path fill="none" stroke="black" d="M2203.53,-720.407C2170.95,-725.273 2137.58,-729.987 2106,-734 1986.26,-749.216 1853.27,-762.819 1740.61,-773.378"/>
<polygon fill="black" stroke="black" points="1740.09,-769.911 1730.46,-774.326 1740.74,-776.881 1740.09,-769.911"/>
</g>
<!-- 36471504 -->
<g id="node20" class="node"><title>36471504</title>
<ellipse fill="#8b008b" stroke="black" cx="961" cy="-1253" rx="225.775" ry="46.669"/>
<text text-anchor="middle" x="961" y="-1260.4" font-family="Times Roman,serif" font-size="24.00">exp: (normal y 5.000000)</text>
<text text-anchor="middle" x="961" y="-1231.4" font-family="Times Roman,serif" font-size="24.00">value: 10.000000</text>
</g>
<!-- 38111024 -->
<g id="node21" class="node"><title>38111024</title>
<ellipse fill="#6e8b3d" stroke="black" cx="897" cy="-1144" rx="99.9096" ry="26.163"/>
<text text-anchor="middle" x="897" y="-1136.9" font-family="Times Roman,serif" font-size="24.00">request: []</text>
</g>
<!-- 38111024&#45;&gt;36471504 -->
<g id="edge39" class="edge"><title>38111024&#45;&gt;36471504</title>
<path fill="none" stroke="black" d="M912.167,-1169.83C917.091,-1178.22 922.759,-1187.87 928.45,-1197.56"/>
<polygon fill="black" stroke="black" points="925.581,-1199.59 933.662,-1206.44 931.617,-1196.05 925.581,-1199.59"/>
</g>
<!-- 36522704 -->
<g id="node22" class="node"><title>36522704</title>
<ellipse fill="khaki" stroke="black" cx="640" cy="-1035" rx="154.149" ry="46.669"/>
<text text-anchor="middle" x="640" y="-1042.4" font-family="Times Roman,serif" font-size="24.00">exp: normal</text>
<text text-anchor="middle" x="640" y="-1013.4" font-family="Times Roman,serif" font-size="24.00">value: sp:normal</text>
</g>
<!-- 36522704&#45;&gt;36471504 -->
<g id="edge23" class="edge"><title>36522704&#45;&gt;36471504</title>
<path fill="none" stroke="black" d="M682.477,-1080C710.626,-1108.17 749.365,-1143.94 788,-1170 807.904,-1183.43 830.312,-1195.87 852.237,-1206.82"/>
<polygon fill="black" stroke="black" points="850.746,-1209.99 861.264,-1211.26 853.836,-1203.71 850.746,-1209.99"/>
</g>
<!-- 36522704&#45;&gt;38111024 -->
<g id="edge25" class="edge"><title>36522704&#45;&gt;38111024</title>
<path fill="none" stroke="black" d="M729.525,-1072.97C764.315,-1087.73 803.315,-1104.27 834.921,-1117.67"/>
<polygon fill="black" stroke="black" points="833.907,-1121.04 844.479,-1121.72 836.64,-1114.6 833.907,-1121.04"/>
</g>
<!-- 36558880&#45;&gt;36471504 -->
<g id="edge29" class="edge"><title>36558880&#45;&gt;36471504</title>
<path fill="none" stroke="black" d="M990.992,-1080.73C997.173,-1092.42 1002.78,-1105.29 1006,-1118 1011.68,-1140.4 1011.68,-1147.6 1006,-1170 1003.64,-1179.32 999.996,-1188.72 995.786,-1197.68"/>
<polygon fill="black" stroke="black" points="992.551,-1196.32 991.223,-1206.83 998.816,-1199.45 992.551,-1196.32"/>
</g>
<!-- 36558880&#45;&gt;38111024 -->
<g id="edge31" class="edge"><title>36558880&#45;&gt;38111024</title>
<path fill="none" stroke="black" d="M934.044,-1080.91C928.458,-1090.42 922.663,-1100.29 917.36,-1109.32"/>
<polygon fill="black" stroke="black" points="914.294,-1107.63 912.249,-1118.03 920.33,-1111.18 914.294,-1107.63"/>
</g>
<!-- 36610080 -->
<g id="node24" class="node"><title>36610080</title>
<ellipse fill="#eead0e" stroke="black" cx="1277" cy="-1035" rx="149.2" ry="46.669"/>
<text text-anchor="middle" x="1277" y="-1042.4" font-family="Times Roman,serif" font-size="24.00">exp: 5.000000</text>
<text text-anchor="middle" x="1277" y="-1013.4" font-family="Times Roman,serif" font-size="24.00">value: 5.000000</text>
</g>
<!-- 36610080&#45;&gt;36471504 -->
<g id="edge35" class="edge"><title>36610080&#45;&gt;36471504</title>
<path fill="none" stroke="black" d="M1215.32,-1077.55C1163.39,-1113.38 1089,-1164.7 1034.08,-1202.58"/>
<polygon fill="black" stroke="black" points="1032.03,-1199.75 1025.78,-1208.31 1036,-1205.51 1032.03,-1199.75"/>
</g>
<!-- 36610080&#45;&gt;38111024 -->
<g id="edge37" class="edge"><title>36610080&#45;&gt;38111024</title>
<path fill="none" stroke="black" d="M1169.56,-1067.22C1152.65,-1072.22 1135.36,-1077.28 1119,-1082 1071.56,-1095.68 1018.27,-1110.58 975.804,-1122.34"/>
<polygon fill="black" stroke="black" points="974.788,-1118.99 966.083,-1125.03 976.655,-1125.73 974.788,-1118.99"/>
</g>
<!-- 38090544&#45;&gt;37335920 -->
<g id="edge79" class="edge"><title>38090544&#45;&gt;37335920</title>
<path fill="none" stroke="black" d="M671.68,-726.932C753.792,-754.153 865.325,-790.782 964,-822 999.757,-833.313 1038.24,-845.219 1074.69,-856.372"/>
<polygon fill="black" stroke="black" points="1073.82,-859.767 1084.41,-859.343 1075.87,-853.072 1073.82,-859.767"/>
</g>
<!-- 36048256 -->
<g id="node27" class="node"><title>36048256</title>
<ellipse fill="#6e8b3d" stroke="black" cx="565" cy="-578" rx="99.9096" ry="26.163"/>
<text text-anchor="middle" x="565" y="-570.9" font-family="Times Roman,serif" font-size="24.00">request: []</text>
</g>
<!-- 36048256&#45;&gt;38090544 -->
<g id="edge99" class="edge"><title>36048256&#45;&gt;38090544</title>
<path fill="none" stroke="black" d="M561.886,-604.108C560.947,-611.979 559.878,-620.946 558.798,-630.005"/>
<polygon fill="black" stroke="black" points="555.288,-629.874 557.579,-640.218 562.239,-630.703 555.288,-629.874"/>
</g>
<!-- 35925200 -->
<g id="node28" class="node"><title>35925200</title>
<ellipse fill="khaki" stroke="black" cx="160" cy="-469" rx="159.806" ry="46.669"/>
<text text-anchor="middle" x="160" y="-476.4" font-family="Times Roman,serif" font-size="24.00">exp: gamma</text>
<text text-anchor="middle" x="160" y="-447.4" font-family="Times Roman,serif" font-size="24.00">value: sp:gamma</text>
</g>
<!-- 35925200&#45;&gt;38090544 -->
<g id="edge83" class="edge"><title>35925200&#45;&gt;38090544</title>
<path fill="none" stroke="black" d="M234.193,-510.26C299.514,-546.587 394.739,-599.544 463.911,-638.012"/>
<polygon fill="black" stroke="black" points="462.625,-641.301 473.066,-643.103 466.027,-635.184 462.625,-641.301"/>
</g>
<!-- 35925200&#45;&gt;36048256 -->
<g id="edge85" class="edge"><title>35925200&#45;&gt;36048256</title>
<path fill="none" stroke="black" d="M275.394,-501.33C293.329,-506.285 311.655,-511.31 329,-516 380.528,-529.933 438.506,-545.171 484.101,-557.053"/>
<polygon fill="black" stroke="black" points="483.371,-560.48 493.93,-559.613 485.135,-553.706 483.371,-560.48"/>
</g>
<!-- 36115744&#45;&gt;38090544 -->
<g id="edge89" class="edge"><title>36115744&#45;&gt;38090544</title>
<path fill="none" stroke="black" d="M462.156,-514.88C451.07,-541.73 443.098,-575.789 456,-604 461.206,-615.383 468.829,-625.802 477.541,-635.123"/>
<polygon fill="black" stroke="black" points="475.203,-637.736 484.735,-642.361 480.168,-632.801 475.203,-637.736"/>
</g>
<!-- 36115744&#45;&gt;36048256 -->
<g id="edge91" class="edge"><title>36115744&#45;&gt;36048256</title>
<path fill="none" stroke="black" d="M519.627,-514.594C526.659,-524.42 533.974,-534.644 540.626,-543.939"/>
<polygon fill="black" stroke="black" points="537.855,-546.082 546.521,-552.177 543.548,-542.008 537.855,-546.082"/>
</g>
<!-- 35649552 -->
<g id="node30" class="node"><title>35649552</title>
<ellipse fill="#eead0e" stroke="black" cx="803" cy="-469" rx="149.2" ry="46.669"/>
<text text-anchor="middle" x="803" y="-476.4" font-family="Times Roman,serif" font-size="24.00">exp: 2.000000</text>
<text text-anchor="middle" x="803" y="-447.4" font-family="Times Roman,serif" font-size="24.00">value: 2.000000</text>
</g>
<!-- 35649552&#45;&gt;38090544 -->
<g id="edge95" class="edge"><title>35649552&#45;&gt;38090544</title>
<path fill="none" stroke="black" d="M764.225,-514.183C739.677,-541.58 706.528,-576.448 674,-604 660.682,-615.28 645.813,-626.435 631.16,-636.732"/>
<polygon fill="black" stroke="black" points="628.793,-634.114 622.571,-642.69 632.783,-639.866 628.793,-634.114"/>
</g>
<!-- 35649552&#45;&gt;36048256 -->
<g id="edge97" class="edge"><title>35649552&#45;&gt;36048256</title>
<path fill="none" stroke="black" d="M719.09,-507.429C687.571,-521.864 652.446,-537.951 623.7,-551.116"/>
<polygon fill="black" stroke="black" points="622.238,-547.936 614.604,-555.282 625.153,-554.3 622.238,-547.936"/>
</g>
<!-- 29791344 -->
<g id="node33" class="node"><title>29791344</title>
<ellipse fill="none" stroke="black" cx="254" cy="-19" rx="62.9325" ry="18.3848"/>
<text text-anchor="middle" x="254" y="-15.4" font-family="Times Roman,serif" font-size="14.00">29791344</text>
</g>
<!-- 29791344&#45;&gt;36622800 -->
<g id="edge11" class="edge"><title>29791344&#45;&gt;36622800</title>
<path fill="none" stroke="black" d="M270.805,-37.2356C278.949,-46.0727 289.191,-57.1858 299.527,-68.4021"/>
<polygon fill="black" stroke="black" points="296.962,-70.7831 306.313,-75.7648 302.11,-66.0393 296.962,-70.7831"/>
</g>
<!-- 29791344&#45;&gt;35925200 -->
<g id="edge87" class="edge"><title>29791344&#45;&gt;35925200</title>
<path fill="none" stroke="black" d="M220.365,-34.8532C204.94,-43.9995 188.095,-57.074 179,-74 120.881,-182.166 134.696,-331.991 148.301,-412.471"/>
<polygon fill="black" stroke="black" points="144.869,-413.161 150.04,-422.408 151.764,-411.954 144.869,-413.161"/>
</g>
<!-- 35537792 -->
<g id="node42" class="node"><title>35537792</title>
<ellipse fill="none" stroke="black" cx="365" cy="-905" rx="62.9325" ry="18.3848"/>
<text text-anchor="middle" x="365" y="-901.4" font-family="Times Roman,serif" font-size="14.00">35537792</text>
</g>
<!-- 35537792&#45;&gt;36522704 -->
<g id="edge27" class="edge"><title>35537792&#45;&gt;36522704</title>
<path fill="none" stroke="black" d="M388.959,-922.29C402.643,-931.739 420.345,-943.261 437,-952 467.02,-967.752 500.715,-982.587 531.896,-995.238"/>
<polygon fill="black" stroke="black" points="530.902,-998.61 541.486,-999.092 533.513,-992.115 530.902,-998.61"/>
</g>
<!-- 31112272 -->
<g id="node52" class="node"><title>31112272</title>
<ellipse fill="none" stroke="black" cx="955" cy="-578" rx="62.9325" ry="18.3848"/>
<text text-anchor="middle" x="955" y="-574.4" font-family="Times Roman,serif" font-size="14.00">31112272</text>
</g>
<!-- 31112272&#45;&gt;37397440 -->
<g id="edge45" class="edge"><title>31112272&#45;&gt;37397440</title>
<path fill="none" stroke="black" d="M955,-596.986C955,-606.326 955,-618.131 955,-630.09"/>
<polygon fill="black" stroke="black" points="951.5,-630.122 955,-640.122 958.5,-630.122 951.5,-630.122"/>
</g>
<!-- 31553600 -->
<g id="node58" class="node"><title>31553600</title>
<ellipse fill="none" stroke="black" cx="1395" cy="-339" rx="62.9325" ry="18.3848"/>
<text text-anchor="middle" x="1395" y="-335.4" font-family="Times Roman,serif" font-size="14.00">31553600</text>
</g>
<!-- 31553600&#45;&gt;35795904 -->
<g id="edge55" class="edge"><title>31553600&#45;&gt;35795904</title>
<path fill="none" stroke="black" d="M1395,-357.626C1395,-371.974 1395,-392.614 1395,-412.236"/>
<polygon fill="black" stroke="black" points="1391.5,-412.365 1395,-422.365 1398.5,-412.365 1391.5,-412.365"/>
</g>
</g>
</svg>
