<?xml version="1.0" encoding="UTF-8" standalone="no"?>
<!DOCTYPE svg PUBLIC "-//W3C//DTD SVG 1.1//EN"
 "http://www.w3.org/Graphics/SVG/1.1/DTD/svg11.dtd">
<!-- Generated by graphviz version 2.26.3 (20100126.1600)
 -->
<!-- Title: _anonymous_0 Pages: 1 -->
<svg width="433pt" height="980pt"
 viewBox="0.00 0.00 433.00 980.00" xmlns="http://www.w3.org/2000/svg" xmlns:xlink="http://www.w3.org/1999/xlink">
<g id="graph1" class="graph" transform="scale(1 1) rotate(0) translate(4 976)">
<title>_anonymous_0</title>
<polygon fill="white" stroke="white" points="-4,5 -4,-976 430,-976 430,5 -4,5"/>
<!-- 30372512 -->
<g id="node3" class="node"><title>30372512</title>
<ellipse fill="dodgerblue" stroke="black" cx="144" cy="-162" rx="27" ry="18"/>
</g>
<!-- 30766480 -->
<g id="node11" class="node"><title>30766480</title>
<ellipse fill="khaki" stroke="black" cx="144" cy="-234" rx="27" ry="18"/>
</g>
<!-- 30372512&#45;&gt;30766480 -->
<g id="edge38" class="edge"><title>30372512&#45;&gt;30766480</title>
<path fill="none" stroke="black" d="M144,-180.169C144,-187.869 144,-197.026 144,-205.583"/>
<polygon fill="black" stroke="black" points="140.5,-205.587 144,-215.587 147.5,-205.587 140.5,-205.587"/>
</g>
<!-- 31225584 -->
<g id="node4" class="node"><title>31225584</title>
<ellipse fill="#6e8b3d" stroke="black" cx="144" cy="-90" rx="27" ry="18"/>
</g>
<!-- 31225584&#45;&gt;30372512 -->
<g id="edge16" class="edge"><title>31225584&#45;&gt;30372512</title>
<path fill="none" stroke="black" d="M144,-108.169C144,-115.869 144,-125.026 144,-133.583"/>
<polygon fill="black" stroke="black" points="140.5,-133.587 144,-143.587 147.5,-133.587 140.5,-133.587"/>
</g>
<!-- 33378608 -->
<g id="node5" class="node"><title>33378608</title>
<ellipse fill="khaki" stroke="black" cx="108" cy="-18" rx="27" ry="18"/>
</g>
<!-- 33378608&#45;&gt;30372512 -->
<g id="edge8" class="edge"><title>33378608&#45;&gt;30372512</title>
<path fill="none" stroke="black" d="M104.988,-36.0363C102.59,-54.5334 100.71,-83.9232 108,-108 111.266,-118.787 117.476,-129.389 123.831,-138.304"/>
<polygon fill="black" stroke="black" points="121.049,-140.427 129.877,-146.284 126.628,-136.2 121.049,-140.427"/>
</g>
<!-- 33378608&#45;&gt;31225584 -->
<g id="edge10" class="edge"><title>33378608&#45;&gt;31225584</title>
<path fill="none" stroke="black" d="M116.715,-35.4292C120.96,-43.9193 126.154,-54.3071 130.866,-63.7326"/>
<polygon fill="black" stroke="black" points="127.763,-65.3523 135.366,-72.7313 134.024,-62.2218 127.763,-65.3523"/>
</g>
<!-- 32496912 -->
<g id="node6" class="node"><title>32496912</title>
<ellipse fill="#eead0e" stroke="black" cx="189" cy="-18" rx="27" ry="18"/>
</g>
<!-- 32496912&#45;&gt;30372512 -->
<g id="edge12" class="edge"><title>32496912&#45;&gt;30372512</title>
<path fill="none" stroke="black" d="M189.723,-36.1499C189.885,-54.7374 188.522,-84.1981 180,-108 176.24,-118.502 170.004,-128.957 163.77,-137.831"/>
<polygon fill="black" stroke="black" points="160.768,-136.002 157.628,-146.121 166.393,-140.169 160.768,-136.002"/>
</g>
<!-- 32496912&#45;&gt;31225584 -->
<g id="edge14" class="edge"><title>32496912&#45;&gt;31225584</title>
<path fill="none" stroke="black" d="M178.563,-34.6992C173.077,-43.4776 166.231,-54.4297 160.084,-64.2661"/>
<polygon fill="black" stroke="black" points="157.025,-62.5564 154.693,-72.8914 162.961,-66.2664 157.025,-62.5564"/>
</g>
<!-- 31015344 -->
<g id="node8" class="node"><title>31015344</title>
<ellipse fill="dodgerblue" stroke="black" cx="99" cy="-378" rx="27" ry="18"/>
</g>
<!-- 32504208 -->
<g id="node19" class="node"><title>32504208</title>
<ellipse fill="khaki" stroke="black" cx="99" cy="-450" rx="27" ry="18"/>
</g>
<!-- 31015344&#45;&gt;32504208 -->
<g id="edge58" class="edge"><title>31015344&#45;&gt;32504208</title>
<path fill="none" stroke="black" d="M99,-396.169C99,-403.869 99,-413.026 99,-421.583"/>
<polygon fill="black" stroke="black" points="95.5001,-421.587 99,-431.587 102.5,-421.587 95.5001,-421.587"/>
</g>
<!-- 32878672 -->
<g id="node9" class="node"><title>32878672</title>
<ellipse fill="#6e8b3d" stroke="black" cx="99" cy="-306" rx="27" ry="18"/>
</g>
<!-- 32878672&#45;&gt;31015344 -->
<g id="edge40" class="edge"><title>32878672&#45;&gt;31015344</title>
<path fill="none" stroke="black" d="M99,-324.169C99,-331.869 99,-341.026 99,-349.583"/>
<polygon fill="black" stroke="black" points="95.5001,-349.587 99,-359.587 102.5,-349.587 95.5001,-349.587"/>
</g>
<!-- 30473984 -->
<g id="node10" class="node"><title>30473984</title>
<ellipse fill="khaki" stroke="black" cx="53" cy="-234" rx="27" ry="18"/>
</g>
<!-- 30473984&#45;&gt;31015344 -->
<g id="edge30" class="edge"><title>30473984&#45;&gt;31015344</title>
<path fill="none" stroke="black" d="M52.5302,-252.158C52.6151,-270.752 54.3368,-300.218 63,-324 66.8179,-334.481 73.0667,-344.931 79.2954,-353.807"/>
<polygon fill="black" stroke="black" points="76.6676,-356.14 85.4265,-362.101 82.2966,-351.979 76.6676,-356.14"/>
</g>
<!-- 30473984&#45;&gt;32878672 -->
<g id="edge32" class="edge"><title>30473984&#45;&gt;32878672</title>
<path fill="none" stroke="black" d="M63.6689,-250.699C69.3586,-259.605 76.4777,-270.748 82.8316,-280.693"/>
<polygon fill="black" stroke="black" points="80.0555,-282.849 88.3889,-289.391 85.9544,-279.08 80.0555,-282.849"/>
</g>
<!-- 30766480&#45;&gt;31015344 -->
<g id="edge34" class="edge"><title>30766480&#45;&gt;31015344</title>
<path fill="none" stroke="black" d="M144.723,-252.15C144.885,-270.737 143.522,-300.198 135,-324 131.24,-334.502 125.004,-344.957 118.77,-353.831"/>
<polygon fill="black" stroke="black" points="115.768,-352.002 112.628,-362.121 121.393,-356.169 115.768,-352.002"/>
</g>
<!-- 30766480&#45;&gt;32878672 -->
<g id="edge36" class="edge"><title>30766480&#45;&gt;32878672</title>
<path fill="none" stroke="black" d="M133.563,-250.699C128.077,-259.478 121.231,-270.43 115.084,-280.266"/>
<polygon fill="black" stroke="black" points="112.025,-278.556 109.693,-288.891 117.961,-282.266 112.025,-278.556"/>
</g>
<!-- 34460816 -->
<g id="node13" class="node"><title>34460816</title>
<ellipse fill="dodgerblue" stroke="black" cx="186" cy="-738" rx="27" ry="18"/>
</g>
<!-- 30301216 -->
<g id="node27" class="node"><title>30301216</title>
<ellipse fill="khaki" stroke="black" cx="186" cy="-810" rx="27" ry="18"/>
</g>
<!-- 34460816&#45;&gt;30301216 -->
<g id="edge26" class="edge"><title>34460816&#45;&gt;30301216</title>
<path fill="none" stroke="black" d="M186,-756.169C186,-763.869 186,-773.026 186,-781.583"/>
<polygon fill="black" stroke="black" points="182.5,-781.587 186,-791.587 189.5,-781.587 182.5,-781.587"/>
</g>
<!-- 34491664 -->
<g id="node14" class="node"><title>34491664</title>
<ellipse fill="#6e8b3d" stroke="black" cx="159" cy="-666" rx="27" ry="18"/>
</g>
<!-- 34491664&#45;&gt;34460816 -->
<g id="edge78" class="edge"><title>34491664&#45;&gt;34460816</title>
<path fill="none" stroke="black" d="M165.674,-683.798C168.748,-691.994 172.462,-701.898 175.87,-710.985"/>
<polygon fill="black" stroke="black" points="172.614,-712.273 179.403,-720.407 179.168,-709.815 172.614,-712.273"/>
</g>
<!-- 32454352 -->
<g id="node15" class="node"><title>32454352</title>
<ellipse fill="khaki" stroke="black" cx="104" cy="-594" rx="27" ry="18"/>
</g>
<!-- 32454352&#45;&gt;34460816 -->
<g id="edge42" class="edge"><title>32454352&#45;&gt;34460816</title>
<path fill="none" stroke="black" d="M104.445,-612.138C105.653,-631.244 109.726,-661.609 123,-684 131.475,-698.297 145.108,-710.675 157.527,-719.961"/>
<polygon fill="black" stroke="black" points="155.675,-722.938 165.853,-725.88 159.731,-717.233 155.675,-722.938"/>
</g>
<!-- 32454352&#45;&gt;34491664 -->
<g id="edge44" class="edge"><title>32454352&#45;&gt;34491664</title>
<path fill="none" stroke="black" d="M116.48,-610.338C123.512,-619.544 132.435,-631.224 140.288,-641.505"/>
<polygon fill="black" stroke="black" points="137.717,-643.905 146.569,-649.727 143.28,-639.655 137.717,-643.905"/>
</g>
<!-- 31227776 -->
<g id="node16" class="node"><title>31227776</title>
<ellipse fill="dodgerblue" stroke="black" cx="177" cy="-594" rx="27" ry="18"/>
</g>
<!-- 31227776&#45;&gt;34460816 -->
<g id="edge46" class="edge"><title>31227776&#45;&gt;34460816</title>
<path fill="none" stroke="black" d="M184.48,-611.636C188.474,-622.014 192.974,-635.514 195,-648 198.349,-668.635 195.781,-692.146 192.544,-709.963"/>
<polygon fill="black" stroke="black" points="189.069,-709.495 190.546,-719.986 195.934,-710.864 189.069,-709.495"/>
</g>
<!-- 31227776&#45;&gt;34491664 -->
<g id="edge48" class="edge"><title>31227776&#45;&gt;34491664</title>
<path fill="none" stroke="black" d="M172.551,-611.798C170.56,-619.759 168.167,-629.333 165.949,-638.204"/>
<polygon fill="black" stroke="black" points="162.491,-637.607 163.461,-648.157 169.282,-639.305 162.491,-637.607"/>
</g>
<!-- 34163504 -->
<g id="node17" class="node"><title>34163504</title>
<ellipse fill="#6e8b3d" stroke="black" cx="150" cy="-522" rx="27" ry="18"/>
</g>
<!-- 34163504&#45;&gt;31227776 -->
<g id="edge68" class="edge"><title>34163504&#45;&gt;31227776</title>
<path fill="none" stroke="black" d="M156.674,-539.798C159.748,-547.994 163.462,-557.898 166.87,-566.985"/>
<polygon fill="black" stroke="black" points="163.614,-568.273 170.403,-576.407 170.168,-565.815 163.614,-568.273"/>
</g>
<!-- 37253632 -->
<g id="node29" class="node"><title>37253632</title>
<ellipse fill="dodgerblue" stroke="black" cx="325" cy="-522" rx="27" ry="18"/>
</g>
<!-- 34163504&#45;&gt;37253632 -->
<g id="edge72" class="edge"><title>34163504&#45;&gt;37253632</title>
<path fill="none" stroke="black" stroke-dasharray="1,5" d="M177.002,-522C213.816,-522 250.631,-522 287.445,-522"/>
<polygon fill="black" stroke="black" points="287.829,-525.5 297.828,-522 287.828,-518.5 287.829,-525.5"/>
</g>
<!-- 35758960 -->
<g id="node18" class="node"><title>35758960</title>
<ellipse fill="khaki" stroke="black" cx="27" cy="-450" rx="27" ry="18"/>
</g>
<!-- 35758960&#45;&gt;31227776 -->
<g id="edge50" class="edge"><title>35758960&#45;&gt;31227776</title>
<path fill="none" stroke="black" d="M37.7429,-466.884C50.4209,-486.003 72.8519,-517.425 97,-540 112.144,-554.158 131.335,-567.243 147.125,-576.986"/>
<polygon fill="black" stroke="black" points="145.6,-580.154 155.972,-582.32 149.214,-574.159 145.6,-580.154"/>
</g>
<!-- 35758960&#45;&gt;34163504 -->
<g id="edge52" class="edge"><title>35758960&#45;&gt;34163504</title>
<path fill="none" stroke="black" d="M47.3109,-461.889C67.3412,-473.614 98.1596,-491.654 120.811,-504.914"/>
<polygon fill="black" stroke="black" points="119.261,-508.062 129.659,-510.093 122.797,-502.021 119.261,-508.062"/>
</g>
<!-- 32504208&#45;&gt;31227776 -->
<g id="edge54" class="edge"><title>32504208&#45;&gt;31227776</title>
<path fill="none" stroke="black" d="M98.4774,-468.1C98.7008,-487.174 101.313,-517.512 114,-540 122.167,-554.476 135.769,-566.872 148.248,-576.122"/>
<polygon fill="black" stroke="black" points="146.433,-579.125 156.627,-582.011 150.458,-573.398 146.433,-579.125"/>
</g>
<!-- 32504208&#45;&gt;34163504 -->
<g id="edge56" class="edge"><title>32504208&#45;&gt;34163504</title>
<path fill="none" stroke="black" d="M110.573,-466.338C116.937,-475.323 124.972,-486.666 132.124,-496.764"/>
<polygon fill="black" stroke="black" points="129.483,-499.09 138.119,-505.227 135.195,-495.044 129.483,-499.09"/>
</g>
<!-- 32794384 -->
<g id="node20" class="node"><title>32794384</title>
<ellipse fill="#eead0e" stroke="black" cx="171" cy="-450" rx="27" ry="18"/>
</g>
<!-- 32794384&#45;&gt;31227776 -->
<g id="edge60" class="edge"><title>32794384&#45;&gt;31227776</title>
<path fill="none" stroke="black" d="M177.238,-467.745C180.568,-478.16 184.318,-491.66 186,-504 188.823,-524.713 186.277,-548.221 183.181,-566.017"/>
<polygon fill="black" stroke="black" points="179.708,-565.548 181.279,-576.026 186.585,-566.855 179.708,-565.548"/>
</g>
<!-- 32794384&#45;&gt;34163504 -->
<g id="edge62" class="edge"><title>32794384&#45;&gt;34163504</title>
<path fill="none" stroke="black" d="M165.809,-467.798C163.462,-475.846 160.634,-485.541 158.023,-494.493"/>
<polygon fill="black" stroke="black" points="154.644,-493.577 155.204,-504.157 161.364,-495.537 154.644,-493.577"/>
</g>
<!-- 36008416 -->
<g id="node21" class="node"><title>36008416</title>
<ellipse fill="#eead0e" stroke="black" cx="243" cy="-450" rx="27" ry="18"/>
</g>
<!-- 36008416&#45;&gt;31227776 -->
<g id="edge64" class="edge"><title>36008416&#45;&gt;31227776</title>
<path fill="none" stroke="black" d="M235.039,-467.37C223.642,-492.236 202.578,-538.193 189.205,-567.371"/>
<polygon fill="black" stroke="black" points="185.974,-566.02 184.989,-576.569 192.338,-568.936 185.974,-566.02"/>
</g>
<!-- 36008416&#45;&gt;34163504 -->
<g id="edge66" class="edge"><title>36008416&#45;&gt;34163504</title>
<path fill="none" stroke="black" d="M225.069,-463.882C211.174,-474.64 191.722,-489.699 176.101,-501.793"/>
<polygon fill="black" stroke="black" points="173.641,-499.271 167.876,-508.16 177.926,-504.806 173.641,-499.271"/>
</g>
<!-- 37356800 -->
<g id="node22" class="node"><title>37356800</title>
<ellipse fill="#eead0e" stroke="black" cx="251" cy="-594" rx="27" ry="18"/>
</g>
<!-- 37356800&#45;&gt;34460816 -->
<g id="edge74" class="edge"><title>37356800&#45;&gt;34460816</title>
<path fill="none" stroke="black" d="M243.159,-611.37C231.935,-636.236 211.191,-682.193 198.02,-711.371"/>
<polygon fill="black" stroke="black" points="194.792,-710.014 193.868,-720.569 201.173,-712.894 194.792,-710.014"/>
</g>
<!-- 37356800&#45;&gt;34491664 -->
<g id="edge76" class="edge"><title>37356800&#45;&gt;34491664</title>
<path fill="none" stroke="black" d="M233.261,-607.882C219.516,-618.64 200.273,-633.699 184.82,-645.793"/>
<polygon fill="black" stroke="black" points="182.402,-643.241 176.684,-652.16 186.716,-648.753 182.402,-643.241"/>
</g>
<!-- 30753584 -->
<g id="node24" class="node"><title>30753584</title>
<ellipse fill="dodgerblue" stroke="black" cx="141" cy="-954" rx="27" ry="18"/>
</g>
<!-- 37540816 -->
<g id="node25" class="node"><title>37540816</title>
<ellipse fill="#6e8b3d" stroke="black" cx="141" cy="-882" rx="27" ry="18"/>
</g>
<!-- 37540816&#45;&gt;30753584 -->
<g id="edge28" class="edge"><title>37540816&#45;&gt;30753584</title>
<path fill="none" stroke="black" d="M141,-900.169C141,-907.869 141,-917.026 141,-925.583"/>
<polygon fill="black" stroke="black" points="137.5,-925.587 141,-935.587 144.5,-925.587 137.5,-925.587"/>
</g>
<!-- 30738144 -->
<g id="node26" class="node"><title>30738144</title>
<ellipse fill="khaki" stroke="black" cx="95" cy="-810" rx="27" ry="18"/>
</g>
<!-- 30738144&#45;&gt;30753584 -->
<g id="edge18" class="edge"><title>30738144&#45;&gt;30753584</title>
<path fill="none" stroke="black" d="M94.5302,-828.158C94.6151,-846.752 96.3368,-876.218 105,-900 108.818,-910.481 115.067,-920.931 121.295,-929.807"/>
<polygon fill="black" stroke="black" points="118.668,-932.14 127.426,-938.101 124.297,-927.979 118.668,-932.14"/>
</g>
<!-- 30738144&#45;&gt;37540816 -->
<g id="edge20" class="edge"><title>30738144&#45;&gt;37540816</title>
<path fill="none" stroke="black" d="M105.669,-826.699C111.359,-835.605 118.478,-846.748 124.832,-856.693"/>
<polygon fill="black" stroke="black" points="122.056,-858.849 130.389,-865.391 127.954,-855.08 122.056,-858.849"/>
</g>
<!-- 30301216&#45;&gt;30753584 -->
<g id="edge22" class="edge"><title>30301216&#45;&gt;30753584</title>
<path fill="none" stroke="black" d="M186.723,-828.15C186.885,-846.737 185.522,-876.198 177,-900 173.24,-910.502 167.004,-920.957 160.77,-929.831"/>
<polygon fill="black" stroke="black" points="157.768,-928.002 154.628,-938.121 163.393,-932.169 157.768,-928.002"/>
</g>
<!-- 30301216&#45;&gt;37540816 -->
<g id="edge24" class="edge"><title>30301216&#45;&gt;37540816</title>
<path fill="none" stroke="black" d="M175.563,-826.699C170.077,-835.478 163.231,-846.43 157.084,-856.266"/>
<polygon fill="black" stroke="black" points="154.025,-854.556 151.693,-864.891 159.961,-858.266 154.025,-854.556"/>
</g>
<!-- 37253632&#45;&gt;31227776 -->
<g id="edge70" class="edge"><title>37253632&#45;&gt;31227776</title>
<path fill="none" stroke="black" d="M303.162,-532.624C278.022,-544.854 236.54,-565.035 208.049,-578.895"/>
<polygon fill="black" stroke="black" points="206.389,-575.811 198.928,-583.333 209.451,-582.105 206.389,-575.811"/>
</g>
<!-- 37497584 -->
<g id="node30" class="node"><title>37497584</title>
<ellipse fill="#6e8b3d" stroke="black" cx="353" cy="-450" rx="27" ry="18"/>
</g>
<!-- 37497584&#45;&gt;37253632 -->
<g id="edge88" class="edge"><title>37497584&#45;&gt;37253632</title>
<path fill="none" stroke="black" d="M346.222,-467.429C343.013,-475.681 339.106,-485.726 335.524,-494.938"/>
<polygon fill="black" stroke="black" points="332.175,-493.893 331.813,-504.482 338.699,-496.43 332.175,-493.893"/>
</g>
<!-- 31215360 -->
<g id="node31" class="node"><title>31215360</title>
<ellipse fill="khaki" stroke="black" cx="398" cy="-378" rx="27" ry="18"/>
</g>
<!-- 31215360&#45;&gt;37253632 -->
<g id="edge80" class="edge"><title>31215360&#45;&gt;37253632</title>
<path fill="none" stroke="black" d="M400.022,-396.037C401.316,-415.059 400.929,-445.354 389,-468 381.183,-482.84 367.413,-495.272 354.643,-504.452"/>
<polygon fill="black" stroke="black" points="352.362,-501.77 346.047,-510.278 356.289,-507.565 352.362,-501.77"/>
</g>
<!-- 31215360&#45;&gt;37497584 -->
<g id="edge82" class="edge"><title>31215360&#45;&gt;37497584</title>
<path fill="none" stroke="black" d="M387.563,-394.699C382.077,-403.478 375.231,-414.43 369.084,-424.266"/>
<polygon fill="black" stroke="black" points="366.025,-422.556 363.693,-432.891 371.961,-426.266 366.025,-422.556"/>
</g>
<!-- 38779248 -->
<g id="node32" class="node"><title>38779248</title>
<ellipse fill="#eead0e" stroke="black" cx="307" cy="-378" rx="27" ry="18"/>
</g>
<!-- 38779248&#45;&gt;37253632 -->
<g id="edge84" class="edge"><title>38779248&#45;&gt;37253632</title>
<path fill="none" stroke="black" d="M308.836,-396.295C310.708,-414.496 313.788,-443.211 317,-468 318.096,-476.459 319.41,-485.644 320.654,-494"/>
<polygon fill="black" stroke="black" points="317.213,-494.658 322.169,-504.023 324.135,-493.612 317.213,-494.658"/>
</g>
<!-- 38779248&#45;&gt;37497584 -->
<g id="edge86" class="edge"><title>38779248&#45;&gt;37497584</title>
<path fill="none" stroke="black" d="M317.669,-394.699C323.359,-403.605 330.478,-414.748 336.832,-424.693"/>
<polygon fill="black" stroke="black" points="334.056,-426.849 342.389,-433.391 339.954,-423.08 334.056,-426.849"/>
</g>
</g>
</svg>
