<?xml version="1.0" encoding="UTF-8" standalone="no"?>
<!DOCTYPE svg PUBLIC "-//W3C//DTD SVG 1.1//EN"
 "http://www.w3.org/Graphics/SVG/1.1/DTD/svg11.dtd">
<!-- Generated by graphviz version 2.26.3 (20100126.1600)
 -->
<!-- Title: _anonymous_0 Pages: 1 -->
<svg width="2553pt" height="1817pt"
 viewBox="0.00 0.00 2552.69 1817.00" xmlns="http://www.w3.org/2000/svg" xmlns:xlink="http://www.w3.org/1999/xlink">
<g id="graph1" class="graph" transform="scale(1 1) rotate(0) translate(4 1813)">
<title>_anonymous_0</title>
<polygon fill="white" stroke="white" points="-4,5 -4,-1813 2549.69,-1813 2549.69,5 -4,5"/>
<g id="graph2" class="cluster"><title>cluster1</title>
<polygon fill="none" stroke="black" points="8,-46 8,-1801 1822,-1801 1822,-46 8,-46"/>
<text text-anchor="middle" x="915" y="-57.4" font-family="Times Roman,serif" font-size="24.00">Venture Families</text>
</g>
<g id="graph3" class="cluster"><title>cluster2</title>
<polygon fill="none" stroke="black" points="1105,-91 1105,-456 1745,-456 1745,-91 1105,-91"/>
<text text-anchor="middle" x="1425" y="-102.4" font-family="Times Roman,serif" font-size="24.00">1</text>
</g>
<g id="graph4" class="cluster"><title>cluster3</title>
<polygon fill="none" stroke="black" points="1132,-464 1132,-829 1784,-829 1784,-464 1132,-464"/>
<text text-anchor="middle" x="1458" y="-475.4" font-family="Times Roman,serif" font-size="24.00">2</text>
</g>
<g id="graph5" class="cluster"><title>cluster4</title>
<polygon fill="none" stroke="black" points="16,-837 16,-1420 1814,-1420 1814,-837 16,-837"/>
<text text-anchor="middle" x="915" y="-848.4" font-family="Times Roman,serif" font-size="24.00">3</text>
</g>
<g id="graph6" class="cluster"><title>cluster5</title>
<polygon fill="none" stroke="black" points="1031,-1428 1031,-1793 1683,-1793 1683,-1428 1031,-1428"/>
<text text-anchor="middle" x="1357" y="-1439.4" font-family="Times Roman,serif" font-size="24.00">4</text>
</g>
<g id="graph7" class="cluster"><title>cluster6</title>
<polygon fill="none" stroke="black" points="1861,-128 1861,-456 2501,-456 2501,-128 1861,-128"/>
</g>
<!-- 30372512 -->
<g id="node3" class="node"><title>30372512</title>
<ellipse fill="firebrick" stroke="black" cx="1357" cy="-401" rx="219.91" ry="46.669"/>
<text text-anchor="middle" x="1357" y="-408.4" font-family="Times Roman,serif" font-size="24.00">exp: (snormal 0.000000)</text>
<text text-anchor="middle" x="1357" y="-379.4" font-family="Times Roman,serif" font-size="24.00">value: &#45;0.463581</text>
</g>
<!-- 30766480 -->
<g id="node11" class="node"><title>30766480</title>
<ellipse fill="gold" stroke="black" cx="1295" cy="-556" rx="155.063" ry="46.669"/>
<text text-anchor="middle" x="1295" y="-563.4" font-family="Times Roman,serif" font-size="24.00">exp: x</text>
<text text-anchor="middle" x="1295" y="-534.4" font-family="Times Roman,serif" font-size="24.00">value: &#45;0.463581</text>
</g>
<!-- 30372512&#45;&gt;30766480 -->
<g id="edge44" class="edge"><title>30372512&#45;&gt;30766480</title>
<path fill="none" stroke="black" d="M1338.4,-447.505C1331.75,-464.133 1324.18,-483.04 1317.26,-500.36"/>
<polygon fill="black" stroke="black" points="1313.95,-499.21 1313.48,-509.795 1320.45,-501.81 1313.95,-499.21"/>
</g>
<!-- 31225584 -->
<g id="node4" class="node"><title>31225584</title>
<ellipse fill="#999999" stroke="black" cx="1381" cy="-292" rx="99.9096" ry="26.163"/>
<text text-anchor="middle" x="1381" y="-284.9" font-family="Times Roman,serif" font-size="24.00">request: []</text>
</g>
<!-- 31225584&#45;&gt;30372512 -->
<g id="edge18" class="edge"><title>31225584&#45;&gt;30372512</title>
<path fill="none" stroke="black" d="M1375.25,-318.108C1373.5,-326.064 1371.5,-335.139 1369.49,-344.297"/>
<polygon fill="black" stroke="black" points="1366.03,-343.7 1367.3,-354.218 1372.87,-345.205 1366.03,-343.7"/>
</g>
<!-- 33378608 -->
<g id="node5" class="node"><title>33378608</title>
<ellipse fill="#999999" stroke="black" cx="1583" cy="-183" rx="154.149" ry="46.669"/>
<text text-anchor="middle" x="1583" y="-190.4" font-family="Times Roman,serif" font-size="24.00">exp: snormal</text>
<text text-anchor="middle" x="1583" y="-161.4" font-family="Times Roman,serif" font-size="24.00">value: sp:normal</text>
</g>
<!-- 33378608&#45;&gt;30372512 -->
<g id="edge8" class="edge"><title>33378608&#45;&gt;30372512</title>
<path fill="none" stroke="black" d="M1557.8,-229.068C1541.04,-256.963 1517.16,-292.044 1490,-318 1477.05,-330.376 1461.97,-341.874 1446.71,-352.128"/>
<polygon fill="black" stroke="black" points="1444.66,-349.282 1438.22,-357.694 1448.5,-355.135 1444.66,-349.282"/>
</g>
<!-- 33378608&#45;&gt;31225584 -->
<g id="edge10" class="edge"><title>33378608&#45;&gt;31225584</title>
<path fill="none" stroke="black" d="M1507.78,-223.588C1483.14,-236.887 1456.29,-251.371 1433.68,-263.574"/>
<polygon fill="black" stroke="black" points="1431.73,-260.65 1424.59,-268.479 1435.05,-266.81 1431.73,-260.65"/>
</g>
<!-- 32496912 -->
<g id="node6" class="node"><title>32496912</title>
<ellipse fill="#999999" stroke="black" cx="1262" cy="-183" rx="149.2" ry="46.669"/>
<text text-anchor="middle" x="1262" y="-190.4" font-family="Times Roman,serif" font-size="24.00">exp: 0.000000</text>
<text text-anchor="middle" x="1262" y="-161.4" font-family="Times Roman,serif" font-size="24.00">value: 0.000000</text>
</g>
<!-- 32496912&#45;&gt;30372512 -->
<g id="edge14" class="edge"><title>32496912&#45;&gt;30372512</title>
<path fill="none" stroke="black" d="M1257.49,-229.73C1256.79,-256.713 1259.26,-290.621 1272,-318 1277.03,-328.81 1284.13,-338.971 1292.09,-348.224"/>
<polygon fill="black" stroke="black" points="1289.65,-350.737 1298.97,-355.778 1294.83,-346.026 1289.65,-350.737"/>
</g>
<!-- 32496912&#45;&gt;31225584 -->
<g id="edge16" class="edge"><title>32496912&#45;&gt;31225584</title>
<path fill="none" stroke="black" d="M1310.06,-227.02C1322.11,-238.062 1334.82,-249.7 1346.09,-260.028"/>
<polygon fill="black" stroke="black" points="1343.91,-262.772 1353.65,-266.945 1348.64,-257.61 1343.91,-262.772"/>
</g>
<!-- 31015344 -->
<g id="node8" class="node"><title>31015344</title>
<ellipse fill="#63b8ff" stroke="black" cx="1355" cy="-774" rx="155.063" ry="46.669"/>
<text text-anchor="middle" x="1355" y="-781.4" font-family="Times Roman,serif" font-size="24.00">exp: (snormal x)</text>
<text text-anchor="middle" x="1355" y="-752.4" font-family="Times Roman,serif" font-size="24.00">value: &#45;0.653720</text>
</g>
<!-- 32504208 -->
<g id="node19" class="node"><title>32504208</title>
<ellipse fill="#999999" stroke="black" cx="313" cy="-929" rx="155.063" ry="46.669"/>
<text text-anchor="middle" x="313" y="-936.4" font-family="Times Roman,serif" font-size="24.00">exp: y</text>
<text text-anchor="middle" x="313" y="-907.4" font-family="Times Roman,serif" font-size="24.00">value: &#45;0.653720</text>
</g>
<!-- 31015344&#45;&gt;32504208 -->
<g id="edge68" class="edge"><title>31015344&#45;&gt;32504208</title>
<path fill="none" stroke="black" d="M1200.04,-777.004C985.07,-782.558 608.009,-797.701 477,-837 444.41,-846.776 411.175,-863.84 383.22,-880.638"/>
<polygon fill="black" stroke="black" points="381.041,-877.869 374.337,-886.073 384.694,-883.84 381.041,-877.869"/>
</g>
<!-- 32878672 -->
<g id="node9" class="node"><title>32878672</title>
<ellipse fill="#63b8ff" stroke="black" cx="1414" cy="-665" rx="99.9096" ry="26.163"/>
<text text-anchor="middle" x="1414" y="-657.9" font-family="Times Roman,serif" font-size="24.00">request: []</text>
</g>
<!-- 32878672&#45;&gt;31015344 -->
<g id="edge46" class="edge"><title>32878672&#45;&gt;31015344</title>
<path fill="none" stroke="black" d="M1400.02,-690.831C1395.43,-699.315 1390.13,-709.093 1384.83,-718.898"/>
<polygon fill="black" stroke="black" points="1381.65,-717.412 1379.97,-727.873 1387.81,-720.745 1381.65,-717.412"/>
</g>
<!-- 30473984 -->
<g id="node10" class="node"><title>30473984</title>
<ellipse fill="#999999" stroke="black" cx="1622" cy="-556" rx="154.149" ry="46.669"/>
<text text-anchor="middle" x="1622" y="-563.4" font-family="Times Roman,serif" font-size="24.00">exp: snormal</text>
<text text-anchor="middle" x="1622" y="-534.4" font-family="Times Roman,serif" font-size="24.00">value: sp:normal</text>
</g>
<!-- 30473984&#45;&gt;31015344 -->
<g id="edge34" class="edge"><title>30473984&#45;&gt;31015344</title>
<path fill="none" stroke="black" d="M1596.1,-602.013C1578.36,-630.409 1552.71,-666.05 1523,-691 1503.86,-707.067 1481.09,-720.964 1458.58,-732.547"/>
<polygon fill="black" stroke="black" points="1457.01,-729.422 1449.64,-737.037 1460.15,-735.677 1457.01,-729.422"/>
</g>
<!-- 30473984&#45;&gt;32878672 -->
<g id="edge36" class="edge"><title>30473984&#45;&gt;32878672</title>
<path fill="none" stroke="black" d="M1544.84,-596.433C1519.23,-609.858 1491.27,-624.505 1467.81,-636.803"/>
<polygon fill="black" stroke="black" points="1465.95,-633.826 1458.72,-641.567 1469.2,-640.026 1465.95,-633.826"/>
</g>
<!-- 30766480&#45;&gt;31015344 -->
<g id="edge40" class="edge"><title>30766480&#45;&gt;31015344</title>
<path fill="none" stroke="black" d="M1293.16,-602.625C1293.42,-629.111 1295.95,-662.558 1305,-691 1308.06,-700.618 1312.43,-710.287 1317.33,-719.455"/>
<polygon fill="black" stroke="black" points="1314.43,-721.433 1322.38,-728.435 1320.53,-718.003 1314.43,-721.433"/>
</g>
<!-- 30766480&#45;&gt;32878672 -->
<g id="edge42" class="edge"><title>30766480&#45;&gt;32878672</title>
<path fill="none" stroke="black" d="M1343.4,-600.334C1355.32,-611.253 1367.86,-622.736 1379,-632.946"/>
<polygon fill="black" stroke="black" points="1376.74,-635.614 1386.47,-639.788 1381.46,-630.452 1376.74,-635.614"/>
</g>
<!-- 34460816 -->
<g id="node13" class="node"><title>34460816</title>
<ellipse fill="#999999" stroke="black" cx="1064" cy="-1365" rx="741.755" ry="46.669"/>
<text text-anchor="middle" x="1064" y="-1372.4" font-family="Times Roman,serif" font-size="24.00">exp: (snormal (branch_exp y (quote (snormal 0.000000)) (quote 5.000000)) 1.000000)</text>
<text text-anchor="middle" x="1064" y="-1343.4" font-family="Times Roman,serif" font-size="24.00">value: &#45;1.861920</text>
</g>
<!-- 30301216 -->
<g id="node27" class="node"><title>30301216</title>
<ellipse fill="#999999" stroke="black" cx="1194" cy="-1520" rx="155.063" ry="46.669"/>
<text text-anchor="middle" x="1194" y="-1527.4" font-family="Times Roman,serif" font-size="24.00">exp: w</text>
<text text-anchor="middle" x="1194" y="-1498.4" font-family="Times Roman,serif" font-size="24.00">value: &#45;1.861920</text>
</g>
<!-- 34460816&#45;&gt;30301216 -->
<g id="edge30" class="edge"><title>34460816&#45;&gt;30301216</title>
<path fill="none" stroke="black" d="M1103,-1411.51C1117.6,-1428.9 1134.28,-1448.8 1149.35,-1466.76"/>
<polygon fill="black" stroke="black" points="1147.03,-1469.45 1156.14,-1474.86 1152.4,-1464.95 1147.03,-1469.45"/>
</g>
<!-- 34491664 -->
<g id="node14" class="node"><title>34491664</title>
<ellipse fill="#999999" stroke="black" cx="1102" cy="-1256" rx="99.9096" ry="26.163"/>
<text text-anchor="middle" x="1102" y="-1248.9" font-family="Times Roman,serif" font-size="24.00">request: []</text>
</g>
<!-- 34491664&#45;&gt;34460816 -->
<g id="edge88" class="edge"><title>34491664&#45;&gt;34460816</title>
<path fill="none" stroke="black" d="M1092.9,-1282.11C1090.1,-1290.15 1086.89,-1299.33 1083.67,-1308.59"/>
<polygon fill="black" stroke="black" points="1080.3,-1307.62 1080.31,-1318.22 1086.91,-1309.93 1080.3,-1307.62"/>
</g>
<!-- 32454352 -->
<g id="node15" class="node"><title>32454352</title>
<ellipse fill="#999999" stroke="black" cx="1336" cy="-1147" rx="154.149" ry="46.669"/>
<text text-anchor="middle" x="1336" y="-1154.4" font-family="Times Roman,serif" font-size="24.00">exp: snormal</text>
<text text-anchor="middle" x="1336" y="-1125.4" font-family="Times Roman,serif" font-size="24.00">value: sp:normal</text>
</g>
<!-- 32454352&#45;&gt;34460816 -->
<g id="edge48" class="edge"><title>32454352&#45;&gt;34460816</title>
<path fill="none" stroke="black" d="M1300.24,-1192.3C1276.76,-1220.25 1244.33,-1255.65 1211,-1282 1196.84,-1293.19 1180.98,-1303.81 1165.07,-1313.47"/>
<polygon fill="black" stroke="black" points="1163.03,-1310.61 1156.23,-1318.74 1166.61,-1316.62 1163.03,-1310.61"/>
</g>
<!-- 32454352&#45;&gt;34491664 -->
<g id="edge50" class="edge"><title>32454352&#45;&gt;34491664</title>
<path fill="none" stroke="black" d="M1252.18,-1186.04C1221.67,-1200.26 1187.87,-1216 1160.07,-1228.95"/>
<polygon fill="black" stroke="black" points="1158.48,-1225.83 1150.89,-1233.23 1161.43,-1232.18 1158.48,-1225.83"/>
</g>
<!-- 31227776 -->
<g id="node16" class="node"><title>31227776</title>
<ellipse fill="#999999" stroke="black" cx="594" cy="-1147" rx="570.135" ry="46.669"/>
<text text-anchor="middle" x="594" y="-1154.4" font-family="Times Roman,serif" font-size="24.00">exp: (branch_exp y (quote (snormal 0.000000)) (quote 5.000000))</text>
<text text-anchor="middle" x="594" y="-1125.4" font-family="Times Roman,serif" font-size="24.00">value: &#45;1.226287</text>
</g>
<!-- 31227776&#45;&gt;34460816 -->
<g id="edge54" class="edge"><title>31227776&#45;&gt;34460816</title>
<path fill="none" stroke="black" d="M692.814,-1192.83C769.528,-1228.42 875.808,-1277.71 954.992,-1314.44"/>
<polygon fill="black" stroke="black" points="953.966,-1317.82 964.51,-1318.85 956.911,-1311.47 953.966,-1317.82"/>
</g>
<!-- 31227776&#45;&gt;34491664 -->
<g id="edge56" class="edge"><title>31227776&#45;&gt;34491664</title>
<path fill="none" stroke="black" d="M796.6,-1190.47C872.564,-1206.77 954.929,-1224.44 1014.96,-1237.32"/>
<polygon fill="black" stroke="black" points="1014.26,-1240.75 1024.77,-1239.43 1015.73,-1233.91 1014.26,-1240.75"/>
</g>
<!-- 34163504 -->
<g id="node17" class="node"><title>34163504</title>
<ellipse fill="#999999" stroke="black" cx="797" cy="-1038" rx="444.77" ry="26.163"/>
<text text-anchor="middle" x="797" y="-1030.9" font-family="Times Roman,serif" font-size="24.00">request: [(34163504, (snormal 0.000000), &lt;env&gt;)]</text>
</g>
<!-- 34163504&#45;&gt;31227776 -->
<g id="edge78" class="edge"><title>34163504&#45;&gt;31227776</title>
<path fill="none" stroke="black" d="M748.634,-1063.97C730.574,-1073.67 709.389,-1085.04 688.592,-1096.21"/>
<polygon fill="black" stroke="black" points="686.868,-1093.16 679.713,-1100.98 690.179,-1099.33 686.868,-1093.16"/>
</g>
<!-- 37253632 -->
<g id="node29" class="node"><title>37253632</title>
<ellipse fill="#999999" stroke="black" cx="2114" cy="-401" rx="219.91" ry="46.669"/>
<text text-anchor="middle" x="2114" y="-408.4" font-family="Times Roman,serif" font-size="24.00">exp: (snormal 0.000000)</text>
<text text-anchor="middle" x="2114" y="-379.4" font-family="Times Roman,serif" font-size="24.00">value: &#45;1.226287</text>
</g>
<!-- 34163504&#45;&gt;37253632 -->
<g id="edge82" class="edge"><title>34163504&#45;&gt;37253632</title>
<path fill="none" stroke="black" stroke-dasharray="1,5" d="M1110.46,-1019.54C1409.03,-1001.86 1813.47,-977.623 1815,-976 1817.37,-973.486 1814.8,-730.242 1816,-727 1859.6,-609.691 1968.73,-509.455 2042.11,-452.204"/>
<polygon fill="black" stroke="black" points="2044.66,-454.661 2050.43,-445.778 2040.38,-449.121 2044.66,-454.661"/>
</g>
<!-- 35758960 -->
<g id="node18" class="node"><title>35758960</title>
<ellipse fill="#999999" stroke="black" cx="640" cy="-929" rx="154.149" ry="46.669"/>
<text text-anchor="middle" x="640" y="-936.4" font-family="Times Roman,serif" font-size="24.00">exp: branch_exp</text>
<text text-anchor="middle" x="640" y="-907.4" font-family="Times Roman,serif" font-size="24.00">value: sp:branch</text>
</g>
<!-- 35758960&#45;&gt;31227776 -->
<g id="edge58" class="edge"><title>35758960&#45;&gt;31227776</title>
<path fill="none" stroke="black" d="M528.721,-961.38C511.421,-966.329 493.739,-971.338 477,-976 417.593,-992.543 380.525,-963.064 343,-1012 313.937,-1049.9 342.478,-1078.41 389.314,-1099.23"/>
<polygon fill="black" stroke="black" points="388.014,-1102.48 398.587,-1103.16 390.745,-1096.04 388.014,-1102.48"/>
</g>
<!-- 35758960&#45;&gt;34163504 -->
<g id="edge60" class="edge"><title>35758960&#45;&gt;34163504</title>
<path fill="none" stroke="black" d="M701.6,-971.767C718.126,-983.241 735.702,-995.443 751.205,-1006.21"/>
<polygon fill="black" stroke="black" points="749.374,-1009.2 759.585,-1012.02 753.366,-1003.45 749.374,-1009.2"/>
</g>
<!-- 32504208&#45;&gt;31227776 -->
<g id="edge64" class="edge"><title>32504208&#45;&gt;31227776</title>
<path fill="none" stroke="black" d="M306.26,-975.466C304.754,-1004.04 307.973,-1039.71 328,-1064 338.737,-1077.02 363.385,-1089.11 393.563,-1099.81"/>
<polygon fill="black" stroke="black" points="392.501,-1103.15 403.096,-1103.09 394.776,-1096.53 392.501,-1103.15"/>
</g>
<!-- 32504208&#45;&gt;34163504 -->
<g id="edge66" class="edge"><title>32504208&#45;&gt;34163504</title>
<path fill="none" stroke="black" d="M422.92,-961.936C440.922,-966.916 459.43,-971.789 477,-976 531.655,-989.1 592.067,-1001.37 645.542,-1011.48"/>
<polygon fill="black" stroke="black" points="644.968,-1014.93 655.443,-1013.34 646.262,-1008.05 644.968,-1014.93"/>
</g>
<!-- 32794384 -->
<g id="node20" class="node"><title>32794384</title>
<ellipse fill="#999999" stroke="black" cx="1519" cy="-929" rx="287.085" ry="46.669"/>
<text text-anchor="middle" x="1519" y="-936.4" font-family="Times Roman,serif" font-size="24.00">exp: (quote (snormal 0.000000))</text>
<text text-anchor="middle" x="1519" y="-907.4" font-family="Times Roman,serif" font-size="24.00">value: (snormal 0.000000)</text>
</g>
<!-- 32794384&#45;&gt;31227776 -->
<g id="edge70" class="edge"><title>32794384&#45;&gt;31227776</title>
<path fill="none" stroke="black" d="M1450.02,-974.214C1400.13,-1004.66 1329.99,-1042.96 1263,-1064 1208.21,-1081.21 1097.11,-1097.42 980.926,-1110.87"/>
<polygon fill="black" stroke="black" points="980.29,-1107.42 970.755,-1112.04 981.089,-1114.38 980.29,-1107.42"/>
</g>
<!-- 32794384&#45;&gt;34163504 -->
<g id="edge72" class="edge"><title>32794384&#45;&gt;34163504</title>
<path fill="none" stroke="black" d="M1314.84,-961.771C1284.07,-966.607 1252.71,-971.48 1223,-976 1142.03,-988.319 1052.33,-1001.45 976.202,-1012.44"/>
<polygon fill="black" stroke="black" points="975.429,-1009.02 966.032,-1013.91 976.429,-1015.95 975.429,-1009.02"/>
</g>
<!-- 36008416 -->
<g id="node21" class="node"><title>36008416</title>
<ellipse fill="#999999" stroke="black" cx="1013" cy="-929" rx="200.818" ry="46.669"/>
<text text-anchor="middle" x="1013" y="-936.4" font-family="Times Roman,serif" font-size="24.00">exp: (quote 5.000000)</text>
<text text-anchor="middle" x="1013" y="-907.4" font-family="Times Roman,serif" font-size="24.00">value: 5.000000</text>
</g>
<!-- 36008416&#45;&gt;31227776 -->
<g id="edge74" class="edge"><title>36008416&#45;&gt;31227776</title>
<path fill="none" stroke="black" d="M1158.48,-961.124C1229.59,-983.457 1291.92,-1017.59 1251,-1064 1232.83,-1084.61 1136.63,-1101.4 1023.2,-1114.35"/>
<polygon fill="black" stroke="black" points="1022.79,-1110.87 1013.24,-1115.47 1023.57,-1117.83 1022.79,-1110.87"/>
</g>
<!-- 36008416&#45;&gt;34163504 -->
<g id="edge76" class="edge"><title>36008416&#45;&gt;34163504</title>
<path fill="none" stroke="black" d="M929.18,-971.298C905.208,-983.395 879.56,-996.338 857.297,-1007.57"/>
<polygon fill="black" stroke="black" points="855.652,-1004.48 848.301,-1012.11 858.806,-1010.73 855.652,-1004.48"/>
</g>
<!-- 37356800 -->
<g id="node22" class="node"><title>37356800</title>
<ellipse fill="#999999" stroke="black" cx="1657" cy="-1147" rx="149.2" ry="46.669"/>
<text text-anchor="middle" x="1657" y="-1154.4" font-family="Times Roman,serif" font-size="24.00">exp: 1.000000</text>
<text text-anchor="middle" x="1657" y="-1125.4" font-family="Times Roman,serif" font-size="24.00">value: 1.000000</text>
</g>
<!-- 37356800&#45;&gt;34460816 -->
<g id="edge84" class="edge"><title>37356800&#45;&gt;34460816</title>
<path fill="none" stroke="black" d="M1560.4,-1182.51C1462.03,-1218.68 1308.69,-1275.05 1198.46,-1315.57"/>
<polygon fill="black" stroke="black" points="1197.12,-1312.33 1188.94,-1319.07 1199.53,-1318.9 1197.12,-1312.33"/>
</g>
<!-- 37356800&#45;&gt;34491664 -->
<g id="edge86" class="edge"><title>37356800&#45;&gt;34491664</title>
<path fill="none" stroke="black" d="M1552.56,-1180.21C1534.79,-1185.24 1516.45,-1190.06 1499,-1194 1399.49,-1216.47 1284.11,-1233.5 1203.47,-1243.97"/>
<polygon fill="black" stroke="black" points="1202.79,-1240.53 1193.32,-1245.28 1203.68,-1247.47 1202.79,-1240.53"/>
</g>
<!-- 30753584 -->
<g id="node24" class="node"><title>30753584</title>
<ellipse fill="#999999" stroke="black" cx="1368" cy="-1738" rx="155.063" ry="46.669"/>
<text text-anchor="middle" x="1368" y="-1745.4" font-family="Times Roman,serif" font-size="24.00">exp: (snormal w)</text>
<text text-anchor="middle" x="1368" y="-1716.4" font-family="Times Roman,serif" font-size="24.00">value: &#45;2.966628</text>
</g>
<!-- 37540816 -->
<g id="node25" class="node"><title>37540816</title>
<ellipse fill="#999999" stroke="black" cx="1368" cy="-1629" rx="99.9096" ry="26.163"/>
<text text-anchor="middle" x="1368" y="-1621.9" font-family="Times Roman,serif" font-size="24.00">request: []</text>
</g>
<!-- 37540816&#45;&gt;30753584 -->
<g id="edge32" class="edge"><title>37540816&#45;&gt;30753584</title>
<path fill="none" stroke="black" d="M1368,-1655.11C1368,-1662.98 1368,-1671.95 1368,-1681"/>
<polygon fill="black" stroke="black" points="1364.5,-1681.22 1368,-1691.22 1371.5,-1681.22 1364.5,-1681.22"/>
</g>
<!-- 30738144 -->
<g id="node26" class="node"><title>30738144</title>
<ellipse fill="#999999" stroke="black" cx="1521" cy="-1520" rx="154.149" ry="46.669"/>
<text text-anchor="middle" x="1521" y="-1527.4" font-family="Times Roman,serif" font-size="24.00">exp: snormal</text>
<text text-anchor="middle" x="1521" y="-1498.4" font-family="Times Roman,serif" font-size="24.00">value: sp:normal</text>
</g>
<!-- 30738144&#45;&gt;30753584 -->
<g id="edge20" class="edge"><title>30738144&#45;&gt;30753584</title>
<path fill="none" stroke="black" d="M1513.07,-1566.61C1506.7,-1594.2 1495.63,-1628.77 1477,-1655 1468.02,-1667.65 1456.54,-1679.24 1444.42,-1689.49"/>
<polygon fill="black" stroke="black" points="1441.93,-1687 1436.38,-1696.03 1446.35,-1692.43 1441.93,-1687"/>
</g>
<!-- 30738144&#45;&gt;37540816 -->
<g id="edge22" class="edge"><title>30738144&#45;&gt;37540816</title>
<path fill="none" stroke="black" d="M1460.53,-1563.08C1443.9,-1574.93 1426.21,-1587.53 1410.8,-1598.51"/>
<polygon fill="black" stroke="black" points="1408.6,-1595.77 1402.49,-1604.43 1412.67,-1601.48 1408.6,-1595.77"/>
</g>
<!-- 30301216&#45;&gt;30753584 -->
<g id="edge26" class="edge"><title>30301216&#45;&gt;30753584</title>
<path fill="none" stroke="black" d="M1210.08,-1566.56C1221.07,-1594.13 1237.54,-1628.7 1259,-1655 1269.15,-1667.44 1281.52,-1679.09 1294.24,-1689.5"/>
<polygon fill="black" stroke="black" points="1292.18,-1692.33 1302.19,-1695.82 1296.54,-1686.85 1292.18,-1692.33"/>
</g>
<!-- 30301216&#45;&gt;37540816 -->
<g id="edge28" class="edge"><title>30301216&#45;&gt;37540816</title>
<path fill="none" stroke="black" d="M1261.27,-1562.14C1281.16,-1574.6 1302.5,-1587.97 1320.83,-1599.45"/>
<polygon fill="black" stroke="black" points="1319.24,-1602.58 1329.57,-1604.93 1322.95,-1596.65 1319.24,-1602.58"/>
</g>
<!-- 37253632&#45;&gt;31227776 -->
<g id="edge80" class="edge"><title>37253632&#45;&gt;31227776</title>
<path fill="none" stroke="black" d="M2097.09,-447.511C2079.66,-499.709 2055,-587.275 2055,-665 2055,-665 2055,-665 2055,-929 2055,-984.124 1395.8,-1063.55 962.985,-1109.77"/>
<polygon fill="black" stroke="black" points="962.377,-1106.31 952.804,-1110.85 963.119,-1113.27 962.377,-1106.31"/>
</g>
<!-- 37497584 -->
<g id="node30" class="node"><title>37497584</title>
<ellipse fill="#999999" stroke="black" cx="2137" cy="-292" rx="99.9096" ry="26.163"/>
<text text-anchor="middle" x="2137" y="-284.9" font-family="Times Roman,serif" font-size="24.00">request: []</text>
</g>
<!-- 37497584&#45;&gt;37253632 -->
<g id="edge100" class="edge"><title>37497584&#45;&gt;37253632</title>
<path fill="none" stroke="black" d="M2131.49,-318.108C2129.81,-326.064 2127.9,-335.139 2125.96,-344.297"/>
<polygon fill="black" stroke="black" points="2122.51,-343.711 2123.87,-354.218 2129.36,-345.156 2122.51,-343.711"/>
</g>
<!-- 31215360 -->
<g id="node31" class="node"><title>31215360</title>
<ellipse fill="#999999" stroke="black" cx="2339" cy="-183" rx="154.149" ry="46.669"/>
<text text-anchor="middle" x="2339" y="-190.4" font-family="Times Roman,serif" font-size="24.00">exp: snormal</text>
<text text-anchor="middle" x="2339" y="-161.4" font-family="Times Roman,serif" font-size="24.00">value: sp:normal</text>
</g>
<!-- 31215360&#45;&gt;37253632 -->
<g id="edge90" class="edge"><title>31215360&#45;&gt;37253632</title>
<path fill="none" stroke="black" d="M2313.76,-229.035C2296.99,-256.918 2273.12,-291.998 2246,-318 2233.14,-330.331 2218.17,-341.807 2203.02,-352.053"/>
<polygon fill="black" stroke="black" points="2201.02,-349.184 2194.6,-357.617 2204.87,-355.025 2201.02,-349.184"/>
</g>
<!-- 31215360&#45;&gt;37497584 -->
<g id="edge92" class="edge"><title>31215360&#45;&gt;37497584</title>
<path fill="none" stroke="black" d="M2263.78,-223.588C2239.14,-236.887 2212.29,-251.371 2189.68,-263.574"/>
<polygon fill="black" stroke="black" points="2187.73,-260.65 2180.59,-268.479 2191.05,-266.81 2187.73,-260.65"/>
</g>
<!-- 38779248 -->
<g id="node32" class="node"><title>38779248</title>
<ellipse fill="#999999" stroke="black" cx="2018" cy="-183" rx="149.2" ry="46.669"/>
<text text-anchor="middle" x="2018" y="-190.4" font-family="Times Roman,serif" font-size="24.00">exp: 0.000000</text>
<text text-anchor="middle" x="2018" y="-161.4" font-family="Times Roman,serif" font-size="24.00">value: 0.000000</text>
</g>
<!-- 38779248&#45;&gt;37253632 -->
<g id="edge96" class="edge"><title>38779248&#45;&gt;37253632</title>
<path fill="none" stroke="black" d="M2013.43,-229.758C2012.71,-256.751 2015.18,-290.658 2028,-318 2033.09,-328.861 2040.27,-339.049 2048.34,-348.315"/>
<polygon fill="black" stroke="black" points="2045.94,-350.885 2055.29,-355.876 2051.1,-346.146 2045.94,-350.885"/>
</g>
<!-- 38779248&#45;&gt;37497584 -->
<g id="edge98" class="edge"><title>38779248&#45;&gt;37497584</title>
<path fill="none" stroke="black" d="M2066.06,-227.02C2078.11,-238.062 2090.82,-249.7 2102.09,-260.028"/>
<polygon fill="black" stroke="black" points="2099.91,-262.772 2109.65,-266.945 2104.64,-257.61 2099.91,-262.772"/>
</g>
<!-- 35914384 -->
<g id="node35" class="node"><title>35914384</title>
<ellipse fill="none" stroke="black" cx="1841" cy="-19" rx="62.9325" ry="18.3848"/>
<text text-anchor="middle" x="1841" y="-15.4" font-family="Times Roman,serif" font-size="14.00">35914384</text>
</g>
<!-- 35914384&#45;&gt;33378608 -->
<g id="edge12" class="edge"><title>35914384&#45;&gt;33378608</title>
<path fill="none" stroke="black" d="M1787.41,-28.7447C1771.89,-32.8029 1755.29,-38.3971 1741,-46 1699.93,-67.8548 1660.39,-102.156 1631.13,-130.968"/>
<polygon fill="black" stroke="black" points="1628.53,-128.622 1623.92,-138.164 1633.48,-133.577 1628.53,-128.622"/>
</g>
<!-- 35914384&#45;&gt;30473984 -->
<g id="edge38" class="edge"><title>35914384&#45;&gt;30473984</title>
<path fill="none" stroke="black" d="M1830.63,-37.2764C1829.27,-40.1373 1828,-43.1059 1827,-46 1766.34,-221.29 1845.3,-297.468 1749,-456 1736.76,-476.147 1718.88,-493.839 1700.38,-508.518"/>
<polygon fill="black" stroke="black" points="1698.23,-505.758 1692.43,-514.623 1702.49,-511.311 1698.23,-505.758"/>
</g>
<!-- 35914384&#45;&gt;32454352 -->
<g id="edge52" class="edge"><title>35914384&#45;&gt;32454352</title>
<path fill="none" stroke="black" d="M1839.44,-37.5914C1834.82,-98.4669 1823.46,-297.033 1857,-456 1892.63,-624.87 2027.64,-668.182 1965,-829 1932.8,-911.655 1904.17,-927.345 1830,-976 1797.51,-997.314 1587.39,-1066.64 1451.86,-1110.2"/>
<polygon fill="black" stroke="black" points="1450.68,-1106.91 1442.23,-1113.29 1452.82,-1113.57 1450.68,-1106.91"/>
</g>
<!-- 35914384&#45;&gt;30738144 -->
<g id="edge24" class="edge"><title>35914384&#45;&gt;30738144</title>
<path fill="none" stroke="black" d="M1904.07,-19.3089C2065.73,-20.3996 2483.71,-25.2246 2505,-46 2583.41,-122.526 2521,-182.436 2521,-292 2521,-292 2521,-292 2521,-1256 2521,-1427.21 1966.06,-1489.84 1682.98,-1510.65"/>
<polygon fill="black" stroke="black" points="1682.33,-1507.19 1672.61,-1511.41 1682.83,-1514.17 1682.33,-1507.19"/>
</g>
<!-- 35914384&#45;&gt;31215360 -->
<g id="edge94" class="edge"><title>35914384&#45;&gt;31215360</title>
<path fill="none" stroke="black" d="M1903.38,-21.9736C1993.35,-26.5741 2151.51,-35.942 2176,-46 2221.11,-64.5267 2263.02,-100.341 2293.04,-130.705"/>
<polygon fill="black" stroke="black" points="2290.54,-133.161 2300.02,-137.891 2295.56,-128.281 2290.54,-133.161"/>
</g>
<!-- 35567200 -->
<g id="node61" class="node"><title>35567200</title>
<ellipse fill="none" stroke="black" cx="1893" cy="-774" rx="62.9325" ry="18.3848"/>
<text text-anchor="middle" x="1893" y="-770.4" font-family="Times Roman,serif" font-size="14.00">35567200</text>
</g>
<!-- 35567200&#45;&gt;35758960 -->
<g id="edge62" class="edge"><title>35567200&#45;&gt;35758960</title>
<path fill="none" stroke="black" d="M1868.48,-791.158C1848.02,-804.376 1817.54,-821.603 1788,-829 1734.91,-842.291 855.871,-822.88 803,-837 769.57,-845.928 735.748,-863.347 707.645,-880.648"/>
<polygon fill="black" stroke="black" points="705.723,-877.722 699.114,-886.004 709.444,-883.651 705.723,-877.722"/>
</g>
</g>
</svg>
