<?xml version="1.0" encoding="UTF-8" standalone="no"?>
<!DOCTYPE svg PUBLIC "-//W3C//DTD SVG 1.1//EN"
 "http://www.w3.org/Graphics/SVG/1.1/DTD/svg11.dtd">
<!-- Generated by graphviz version 2.26.3 (20100126.1600)
 -->
<!-- Title: _anonymous_0 Pages: 1 -->
<svg width="433pt" height="980pt"
 viewBox="0.00 0.00 433.00 980.00" xmlns="http://www.w3.org/2000/svg" xmlns:xlink="http://www.w3.org/1999/xlink">
<g id="graph1" class="graph" transform="scale(1 1) rotate(0) translate(4 976)">
<title>_anonymous_0</title>
<polygon fill="white" stroke="white" points="-4,5 -4,-976 430,-976 430,5 -4,5"/>
<!-- 21616208 -->
<g id="node3" class="node"><title>21616208</title>
<ellipse fill="firebrick" stroke="black" cx="144" cy="-162" rx="27" ry="18"/>
</g>
<!-- 24988336 -->
<g id="node11" class="node"><title>24988336</title>
<ellipse fill="gold" stroke="black" cx="144" cy="-234" rx="27" ry="18"/>
</g>
<!-- 21616208&#45;&gt;24988336 -->
<g id="edge70" class="edge"><title>21616208&#45;&gt;24988336</title>
<path fill="none" stroke="black" d="M144,-180.169C144,-187.869 144,-197.026 144,-205.583"/>
<polygon fill="black" stroke="black" points="140.5,-205.587 144,-215.587 147.5,-205.587 140.5,-205.587"/>
</g>
<!-- 20391696 -->
<g id="node4" class="node"><title>20391696</title>
<ellipse fill="#999999" stroke="black" cx="144" cy="-90" rx="27" ry="18"/>
</g>
<!-- 20391696&#45;&gt;21616208 -->
<g id="edge26" class="edge"><title>20391696&#45;&gt;21616208</title>
<path fill="none" stroke="black" d="M144,-108.169C144,-115.869 144,-125.026 144,-133.583"/>
<polygon fill="black" stroke="black" points="140.5,-133.587 144,-143.587 147.5,-133.587 140.5,-133.587"/>
</g>
<!-- 19076864 -->
<g id="node5" class="node"><title>19076864</title>
<ellipse fill="#999999" stroke="black" cx="108" cy="-18" rx="27" ry="18"/>
</g>
<!-- 19076864&#45;&gt;21616208 -->
<g id="edge18" class="edge"><title>19076864&#45;&gt;21616208</title>
<path fill="none" stroke="black" d="M104.988,-36.0363C102.59,-54.5334 100.71,-83.9232 108,-108 111.266,-118.787 117.476,-129.389 123.831,-138.304"/>
<polygon fill="black" stroke="black" points="121.049,-140.427 129.877,-146.284 126.628,-136.2 121.049,-140.427"/>
</g>
<!-- 19076864&#45;&gt;20391696 -->
<g id="edge20" class="edge"><title>19076864&#45;&gt;20391696</title>
<path fill="none" stroke="black" d="M116.715,-35.4292C120.96,-43.9193 126.154,-54.3071 130.866,-63.7326"/>
<polygon fill="black" stroke="black" points="127.763,-65.3523 135.366,-72.7313 134.024,-62.2218 127.763,-65.3523"/>
</g>
<!-- 28719440 -->
<g id="node6" class="node"><title>28719440</title>
<ellipse fill="#999999" stroke="black" cx="189" cy="-18" rx="27" ry="18"/>
</g>
<!-- 28719440&#45;&gt;21616208 -->
<g id="edge22" class="edge"><title>28719440&#45;&gt;21616208</title>
<path fill="none" stroke="black" d="M189.723,-36.1499C189.885,-54.7374 188.522,-84.1981 180,-108 176.24,-118.502 170.004,-128.957 163.77,-137.831"/>
<polygon fill="black" stroke="black" points="160.768,-136.002 157.628,-146.121 166.393,-140.169 160.768,-136.002"/>
</g>
<!-- 28719440&#45;&gt;20391696 -->
<g id="edge24" class="edge"><title>28719440&#45;&gt;20391696</title>
<path fill="none" stroke="black" d="M178.563,-34.6992C173.077,-43.4776 166.231,-54.4297 160.084,-64.2661"/>
<polygon fill="black" stroke="black" points="157.025,-62.5564 154.693,-72.8914 162.961,-66.2664 157.025,-62.5564"/>
</g>
<!-- 23610064 -->
<g id="node8" class="node"><title>23610064</title>
<ellipse fill="#63b8ff" stroke="black" cx="99" cy="-378" rx="27" ry="18"/>
</g>
<!-- 21571136 -->
<g id="node19" class="node"><title>21571136</title>
<ellipse fill="#e5e5e5" stroke="black" cx="99" cy="-450" rx="27" ry="18"/>
</g>
<!-- 23610064&#45;&gt;21571136 -->
<g id="edge44" class="edge"><title>23610064&#45;&gt;21571136</title>
<path fill="none" stroke="black" d="M99,-396.169C99,-403.869 99,-413.026 99,-421.583"/>
<polygon fill="black" stroke="black" points="95.5001,-421.587 99,-431.587 102.5,-421.587 95.5001,-421.587"/>
</g>
<!-- 24940288 -->
<g id="node9" class="node"><title>24940288</title>
<ellipse fill="#63b8ff" stroke="black" cx="99" cy="-306" rx="27" ry="18"/>
</g>
<!-- 24940288&#45;&gt;23610064 -->
<g id="edge72" class="edge"><title>24940288&#45;&gt;23610064</title>
<path fill="none" stroke="black" d="M99,-324.169C99,-331.869 99,-341.026 99,-349.583"/>
<polygon fill="black" stroke="black" points="95.5001,-349.587 99,-359.587 102.5,-349.587 95.5001,-349.587"/>
</g>
<!-- 25014224 -->
<g id="node10" class="node"><title>25014224</title>
<ellipse fill="#999999" stroke="black" cx="53" cy="-234" rx="27" ry="18"/>
</g>
<!-- 25014224&#45;&gt;23610064 -->
<g id="edge62" class="edge"><title>25014224&#45;&gt;23610064</title>
<path fill="none" stroke="black" d="M52.5302,-252.158C52.6151,-270.752 54.3368,-300.218 63,-324 66.8179,-334.481 73.0667,-344.931 79.2954,-353.807"/>
<polygon fill="black" stroke="black" points="76.6676,-356.14 85.4265,-362.101 82.2966,-351.979 76.6676,-356.14"/>
</g>
<!-- 25014224&#45;&gt;24940288 -->
<g id="edge64" class="edge"><title>25014224&#45;&gt;24940288</title>
<path fill="none" stroke="black" d="M63.6689,-250.699C69.3586,-259.605 76.4777,-270.748 82.8316,-280.693"/>
<polygon fill="black" stroke="black" points="80.0555,-282.849 88.3889,-289.391 85.9544,-279.08 80.0555,-282.849"/>
</g>
<!-- 24988336&#45;&gt;23610064 -->
<g id="edge66" class="edge"><title>24988336&#45;&gt;23610064</title>
<path fill="none" stroke="black" d="M144.723,-252.15C144.885,-270.737 143.522,-300.198 135,-324 131.24,-334.502 125.004,-344.957 118.77,-353.831"/>
<polygon fill="black" stroke="black" points="115.768,-352.002 112.628,-362.121 121.393,-356.169 115.768,-352.002"/>
</g>
<!-- 24988336&#45;&gt;24940288 -->
<g id="edge68" class="edge"><title>24988336&#45;&gt;24940288</title>
<path fill="none" stroke="black" d="M133.563,-250.699C128.077,-259.478 121.231,-270.43 115.084,-280.266"/>
<polygon fill="black" stroke="black" points="112.025,-278.556 109.693,-288.891 117.961,-282.266 112.025,-278.556"/>
</g>
<!-- 23304768 -->
<g id="node13" class="node"><title>23304768</title>
<ellipse fill="#e5e5e5" stroke="black" cx="132" cy="-738" rx="27" ry="18"/>
</g>
<!-- 21586576 -->
<g id="node26" class="node"><title>21586576</title>
<ellipse fill="#e5e5e5" stroke="black" cx="132" cy="-810" rx="27" ry="18"/>
</g>
<!-- 23304768&#45;&gt;21586576 -->
<g id="edge82" class="edge"><title>23304768&#45;&gt;21586576</title>
<path fill="none" stroke="black" d="M132,-756.169C132,-763.869 132,-773.026 132,-781.583"/>
<polygon fill="black" stroke="black" points="128.5,-781.587 132,-791.587 135.5,-781.587 128.5,-781.587"/>
</g>
<!-- 24625888 -->
<g id="node14" class="node"><title>24625888</title>
<ellipse fill="#e5e5e5" stroke="black" cx="132" cy="-666" rx="27" ry="18"/>
</g>
<!-- 24625888&#45;&gt;23304768 -->
<g id="edge60" class="edge"><title>24625888&#45;&gt;23304768</title>
<path fill="none" stroke="black" d="M132,-684.169C132,-691.869 132,-701.026 132,-709.583"/>
<polygon fill="black" stroke="black" points="128.5,-709.587 132,-719.587 135.5,-709.587 128.5,-709.587"/>
</g>
<!-- 23710592 -->
<g id="node15" class="node"><title>23710592</title>
<ellipse fill="#e5e5e5" stroke="black" cx="86" cy="-594" rx="27" ry="18"/>
</g>
<!-- 23710592&#45;&gt;23304768 -->
<g id="edge28" class="edge"><title>23710592&#45;&gt;23304768</title>
<path fill="none" stroke="black" d="M85.5302,-612.158C85.6151,-630.752 87.3368,-660.218 96,-684 99.8179,-694.481 106.067,-704.931 112.295,-713.807"/>
<polygon fill="black" stroke="black" points="109.668,-716.14 118.426,-722.101 115.297,-711.979 109.668,-716.14"/>
</g>
<!-- 23710592&#45;&gt;24625888 -->
<g id="edge30" class="edge"><title>23710592&#45;&gt;24625888</title>
<path fill="none" stroke="black" d="M96.6689,-610.699C102.359,-619.605 109.478,-630.748 115.832,-640.693"/>
<polygon fill="black" stroke="black" points="113.056,-642.849 121.389,-649.391 118.954,-639.08 113.056,-642.849"/>
</g>
<!-- 24939776 -->
<g id="node16" class="node"><title>24939776</title>
<ellipse fill="#e5e5e5" stroke="black" cx="177" cy="-594" rx="27" ry="18"/>
</g>
<!-- 24939776&#45;&gt;23304768 -->
<g id="edge32" class="edge"><title>24939776&#45;&gt;23304768</title>
<path fill="none" stroke="black" d="M177.723,-612.15C177.885,-630.737 176.522,-660.198 168,-684 164.24,-694.502 158.004,-704.957 151.77,-713.831"/>
<polygon fill="black" stroke="black" points="148.768,-712.002 145.628,-722.121 154.393,-716.169 148.768,-712.002"/>
</g>
<!-- 24939776&#45;&gt;24625888 -->
<g id="edge34" class="edge"><title>24939776&#45;&gt;24625888</title>
<path fill="none" stroke="black" d="M166.563,-610.699C161.077,-619.478 154.231,-630.43 148.084,-640.266"/>
<polygon fill="black" stroke="black" points="145.025,-638.556 142.693,-648.891 150.961,-642.266 145.025,-638.556"/>
</g>
<!-- 22582864 -->
<g id="node17" class="node"><title>22582864</title>
<ellipse fill="#e5e5e5" stroke="black" cx="150" cy="-522" rx="27" ry="18"/>
</g>
<!-- 22582864&#45;&gt;24939776 -->
<g id="edge54" class="edge"><title>22582864&#45;&gt;24939776</title>
<path fill="none" stroke="black" d="M156.674,-539.798C159.748,-547.994 163.462,-557.898 166.87,-566.985"/>
<polygon fill="black" stroke="black" points="163.614,-568.273 170.403,-576.407 170.168,-565.815 163.614,-568.273"/>
</g>
<!-- 21574256 -->
<g id="node28" class="node"><title>21574256</title>
<ellipse fill="#e5e5e5" stroke="black" cx="325" cy="-522" rx="27" ry="18"/>
</g>
<!-- 22582864&#45;&gt;21574256 -->
<g id="edge58" class="edge"><title>22582864&#45;&gt;21574256</title>
<path fill="none" stroke="black" stroke-dasharray="1,5" d="M177.002,-522C213.816,-522 250.631,-522 287.445,-522"/>
<polygon fill="black" stroke="black" points="287.829,-525.5 297.828,-522 287.828,-518.5 287.829,-525.5"/>
</g>
<!-- 21801008 -->
<g id="node18" class="node"><title>21801008</title>
<ellipse fill="#e5e5e5" stroke="black" cx="27" cy="-450" rx="27" ry="18"/>
</g>
<!-- 21801008&#45;&gt;24939776 -->
<g id="edge36" class="edge"><title>21801008&#45;&gt;24939776</title>
<path fill="none" stroke="black" d="M37.7429,-466.884C50.4209,-486.003 72.8519,-517.425 97,-540 112.144,-554.158 131.335,-567.243 147.125,-576.986"/>
<polygon fill="black" stroke="black" points="145.6,-580.154 155.972,-582.32 149.214,-574.159 145.6,-580.154"/>
</g>
<!-- 21801008&#45;&gt;22582864 -->
<g id="edge38" class="edge"><title>21801008&#45;&gt;22582864</title>
<path fill="none" stroke="black" d="M47.3109,-461.889C67.3412,-473.614 98.1596,-491.654 120.811,-504.914"/>
<polygon fill="black" stroke="black" points="119.261,-508.062 129.659,-510.093 122.797,-502.021 119.261,-508.062"/>
</g>
<!-- 21571136&#45;&gt;24939776 -->
<g id="edge40" class="edge"><title>21571136&#45;&gt;24939776</title>
<path fill="none" stroke="black" d="M98.4774,-468.1C98.7008,-487.174 101.313,-517.512 114,-540 122.167,-554.476 135.769,-566.872 148.248,-576.122"/>
<polygon fill="black" stroke="black" points="146.433,-579.125 156.627,-582.011 150.458,-573.398 146.433,-579.125"/>
</g>
<!-- 21571136&#45;&gt;22582864 -->
<g id="edge42" class="edge"><title>21571136&#45;&gt;22582864</title>
<path fill="none" stroke="black" d="M110.573,-466.338C116.937,-475.323 124.972,-486.666 132.124,-496.764"/>
<polygon fill="black" stroke="black" points="129.483,-499.09 138.119,-505.227 135.195,-495.044 129.483,-499.09"/>
</g>
<!-- 22579328 -->
<g id="node20" class="node"><title>22579328</title>
<ellipse fill="#e5e5e5" stroke="black" cx="171" cy="-450" rx="27" ry="18"/>
</g>
<!-- 22579328&#45;&gt;24939776 -->
<g id="edge46" class="edge"><title>22579328&#45;&gt;24939776</title>
<path fill="none" stroke="black" d="M177.238,-467.745C180.568,-478.16 184.318,-491.66 186,-504 188.823,-524.713 186.277,-548.221 183.181,-566.017"/>
<polygon fill="black" stroke="black" points="179.708,-565.548 181.279,-576.026 186.585,-566.855 179.708,-565.548"/>
</g>
<!-- 22579328&#45;&gt;22582864 -->
<g id="edge48" class="edge"><title>22579328&#45;&gt;22582864</title>
<path fill="none" stroke="black" d="M165.809,-467.798C163.462,-475.846 160.634,-485.541 158.023,-494.493"/>
<polygon fill="black" stroke="black" points="154.644,-493.577 155.204,-504.157 161.364,-495.537 154.644,-493.577"/>
</g>
<!-- 22672608 -->
<g id="node21" class="node"><title>22672608</title>
<ellipse fill="#e5e5e5" stroke="black" cx="243" cy="-450" rx="27" ry="18"/>
</g>
<!-- 22672608&#45;&gt;24939776 -->
<g id="edge50" class="edge"><title>22672608&#45;&gt;24939776</title>
<path fill="none" stroke="black" d="M235.039,-467.37C223.642,-492.236 202.578,-538.193 189.205,-567.371"/>
<polygon fill="black" stroke="black" points="185.974,-566.02 184.989,-576.569 192.338,-568.936 185.974,-566.02"/>
</g>
<!-- 22672608&#45;&gt;22582864 -->
<g id="edge52" class="edge"><title>22672608&#45;&gt;22582864</title>
<path fill="none" stroke="black" d="M225.069,-463.882C211.174,-474.64 191.722,-489.699 176.101,-501.793"/>
<polygon fill="black" stroke="black" points="173.641,-499.271 167.876,-508.16 177.926,-504.806 173.641,-499.271"/>
</g>
<!-- 26590768 -->
<g id="node23" class="node"><title>26590768</title>
<ellipse fill="#e5e5e5" stroke="black" cx="87" cy="-954" rx="27" ry="18"/>
</g>
<!-- 21600256 -->
<g id="node24" class="node"><title>21600256</title>
<ellipse fill="#e5e5e5" stroke="black" cx="87" cy="-882" rx="27" ry="18"/>
</g>
<!-- 21600256&#45;&gt;26590768 -->
<g id="edge84" class="edge"><title>21600256&#45;&gt;26590768</title>
<path fill="none" stroke="black" d="M87,-900.169C87,-907.869 87,-917.026 87,-925.583"/>
<polygon fill="black" stroke="black" points="83.5001,-925.587 87,-935.587 90.5001,-925.587 83.5001,-925.587"/>
</g>
<!-- 24603856 -->
<g id="node25" class="node"><title>24603856</title>
<ellipse fill="#e5e5e5" stroke="black" cx="41" cy="-810" rx="27" ry="18"/>
</g>
<!-- 24603856&#45;&gt;26590768 -->
<g id="edge74" class="edge"><title>24603856&#45;&gt;26590768</title>
<path fill="none" stroke="black" d="M40.5302,-828.158C40.6151,-846.752 42.3368,-876.218 51,-900 54.8179,-910.481 61.0667,-920.931 67.2954,-929.807"/>
<polygon fill="black" stroke="black" points="64.6676,-932.14 73.4265,-938.101 70.2966,-927.979 64.6676,-932.14"/>
</g>
<!-- 24603856&#45;&gt;21600256 -->
<g id="edge76" class="edge"><title>24603856&#45;&gt;21600256</title>
<path fill="none" stroke="black" d="M51.6689,-826.699C57.3586,-835.605 64.4777,-846.748 70.8316,-856.693"/>
<polygon fill="black" stroke="black" points="68.0555,-858.849 76.3889,-865.391 73.9544,-855.08 68.0555,-858.849"/>
</g>
<!-- 21586576&#45;&gt;26590768 -->
<g id="edge78" class="edge"><title>21586576&#45;&gt;26590768</title>
<path fill="none" stroke="black" d="M132.723,-828.15C132.885,-846.737 131.522,-876.198 123,-900 119.24,-910.502 113.004,-920.957 106.77,-929.831"/>
<polygon fill="black" stroke="black" points="103.768,-928.002 100.628,-938.121 109.393,-932.169 103.768,-928.002"/>
</g>
<!-- 21586576&#45;&gt;21600256 -->
<g id="edge80" class="edge"><title>21586576&#45;&gt;21600256</title>
<path fill="none" stroke="black" d="M121.563,-826.699C116.077,-835.478 109.231,-846.43 103.084,-856.266"/>
<polygon fill="black" stroke="black" points="100.025,-854.556 97.6929,-864.891 105.961,-858.266 100.025,-854.556"/>
</g>
<!-- 21574256&#45;&gt;24939776 -->
<g id="edge56" class="edge"><title>21574256&#45;&gt;24939776</title>
<path fill="none" stroke="black" d="M303.162,-532.624C278.022,-544.854 236.54,-565.035 208.049,-578.895"/>
<polygon fill="black" stroke="black" points="206.389,-575.811 198.928,-583.333 209.451,-582.105 206.389,-575.811"/>
</g>
<!-- 21608528 -->
<g id="node29" class="node"><title>21608528</title>
<ellipse fill="#e5e5e5" stroke="black" cx="353" cy="-450" rx="27" ry="18"/>
</g>
<!-- 21608528&#45;&gt;21574256 -->
<g id="edge16" class="edge"><title>21608528&#45;&gt;21574256</title>
<path fill="none" stroke="black" d="M346.222,-467.429C343.013,-475.681 339.106,-485.726 335.524,-494.938"/>
<polygon fill="black" stroke="black" points="332.175,-493.893 331.813,-504.482 338.699,-496.43 332.175,-493.893"/>
</g>
<!-- 21564608 -->
<g id="node30" class="node"><title>21564608</title>
<ellipse fill="#e5e5e5" stroke="black" cx="398" cy="-378" rx="27" ry="18"/>
</g>
<!-- 21564608&#45;&gt;21574256 -->
<g id="edge8" class="edge"><title>21564608&#45;&gt;21574256</title>
<path fill="none" stroke="black" d="M400.022,-396.037C401.316,-415.059 400.929,-445.354 389,-468 381.183,-482.84 367.413,-495.272 354.643,-504.452"/>
<polygon fill="black" stroke="black" points="352.362,-501.77 346.047,-510.278 356.289,-507.565 352.362,-501.77"/>
</g>
<!-- 21564608&#45;&gt;21608528 -->
<g id="edge10" class="edge"><title>21564608&#45;&gt;21608528</title>
<path fill="none" stroke="black" d="M387.563,-394.699C382.077,-403.478 375.231,-414.43 369.084,-424.266"/>
<polygon fill="black" stroke="black" points="366.025,-422.556 363.693,-432.891 371.961,-426.266 366.025,-422.556"/>
</g>
<!-- 27074384 -->
<g id="node31" class="node"><title>27074384</title>
<ellipse fill="#e5e5e5" stroke="black" cx="307" cy="-378" rx="27" ry="18"/>
</g>
<!-- 27074384&#45;&gt;21574256 -->
<g id="edge12" class="edge"><title>27074384&#45;&gt;21574256</title>
<path fill="none" stroke="black" d="M308.836,-396.295C310.708,-414.496 313.788,-443.211 317,-468 318.096,-476.459 319.41,-485.644 320.654,-494"/>
<polygon fill="black" stroke="black" points="317.213,-494.658 322.169,-504.023 324.135,-493.612 317.213,-494.658"/>
</g>
<!-- 27074384&#45;&gt;21608528 -->
<g id="edge14" class="edge"><title>27074384&#45;&gt;21608528</title>
<path fill="none" stroke="black" d="M317.669,-394.699C323.359,-403.605 330.478,-414.748 336.832,-424.693"/>
<polygon fill="black" stroke="black" points="334.056,-426.849 342.389,-433.391 339.954,-423.08 334.056,-426.849"/>
</g>
</g>
</svg>
