<?xml version="1.0" encoding="UTF-8" standalone="no"?>
<!DOCTYPE svg PUBLIC "-//W3C//DTD SVG 1.1//EN"
 "http://www.w3.org/Graphics/SVG/1.1/DTD/svg11.dtd">
<!-- Generated by graphviz version 2.26.3 (20100126.1600)
 -->
<!-- Title: _anonymous_0 Pages: 1 -->
<svg width="2055pt" height="1561pt"
 viewBox="0.00 0.00 2055.00 1561.00" xmlns="http://www.w3.org/2000/svg" xmlns:xlink="http://www.w3.org/1999/xlink">
<g id="graph1" class="graph" transform="scale(1 1) rotate(0) translate(4 1557)">
<title>_anonymous_0</title>
<polygon fill="white" stroke="white" points="-4,5 -4,-1557 2052,-1557 2052,5 -4,5"/>
<g id="graph2" class="cluster"><title>cluster1</title>
<polygon fill="none" stroke="black" points="8,-8 8,-1545 1822,-1545 1822,-8 8,-8"/>
<text text-anchor="middle" x="915" y="-19.4" font-family="Times Roman,serif" font-size="24.00">Venture Families</text>
</g>
<g id="graph3" class="cluster"><title>cluster2</title>
<polygon fill="none" stroke="black" points="696,-53 696,-200 1010,-200 1010,-53 696,-53"/>
<text text-anchor="middle" x="853" y="-64.4" font-family="Times Roman,serif" font-size="24.00">1</text>
</g>
<g id="graph4" class="cluster"><title>cluster3</title>
<polygon fill="none" stroke="black" points="696,-208 696,-573 1336,-573 1336,-208 696,-208"/>
<text text-anchor="middle" x="1016" y="-219.4" font-family="Times Roman,serif" font-size="24.00">2</text>
</g>
<g id="graph5" class="cluster"><title>cluster4</title>
<polygon fill="none" stroke="black" points="16,-581 16,-1164 1814,-1164 1814,-581 16,-581"/>
<text text-anchor="middle" x="915" y="-592.4" font-family="Times Roman,serif" font-size="24.00">3</text>
</g>
<g id="graph6" class="cluster"><title>cluster5</title>
<polygon fill="none" stroke="black" points="1040,-1172 1040,-1537 1680,-1537 1680,-1172 1040,-1172"/>
<text text-anchor="middle" x="1360" y="-1183.4" font-family="Times Roman,serif" font-size="24.00">4</text>
</g>
<!-- 49603280 -->
<g id="node3" class="node"><title>49603280</title>
<ellipse fill="#e5e5e5" stroke="black" cx="853" cy="-145" rx="149.2" ry="46.669"/>
<text text-anchor="middle" x="853" y="-152.4" font-family="Times Roman,serif" font-size="24.00">exp: 0.000000</text>
<text text-anchor="middle" x="853" y="-123.4" font-family="Times Roman,serif" font-size="24.00">value: 0.000000</text>
</g>
<!-- 52681840 -->
<g id="node8" class="node"><title>52681840</title>
<ellipse fill="#999999" stroke="black" cx="853" cy="-300" rx="149.2" ry="46.669"/>
<text text-anchor="middle" x="853" y="-307.4" font-family="Times Roman,serif" font-size="24.00">exp: x</text>
<text text-anchor="middle" x="853" y="-278.4" font-family="Times Roman,serif" font-size="24.00">value: 0.000000</text>
</g>
<!-- 49603280&#45;&gt;52681840 -->
<g id="edge17" class="edge"><title>49603280&#45;&gt;52681840</title>
<path fill="none" stroke="black" d="M853,-191.505C853,-207.677 853,-226.005 853,-242.933"/>
<polygon fill="black" stroke="black" points="849.5,-243.26 853,-253.26 856.5,-243.26 849.5,-243.26"/>
</g>
<!-- 49578432 -->
<g id="node5" class="node"><title>49578432</title>
<ellipse fill="firebrick" stroke="black" cx="913" cy="-518" rx="149.907" ry="46.669"/>
<text text-anchor="middle" x="913" y="-525.4" font-family="Times Roman,serif" font-size="24.00">exp: (snormal x)</text>
<text text-anchor="middle" x="913" y="-496.4" font-family="Times Roman,serif" font-size="24.00">value: </text>
</g>
<!-- 48783584 -->
<g id="node16" class="node"><title>48783584</title>
<ellipse fill="gold" stroke="black" cx="376" cy="-673" rx="68.7979" ry="46.669"/>
<text text-anchor="middle" x="376" y="-680.4" font-family="Times Roman,serif" font-size="24.00">exp: y</text>
<text text-anchor="middle" x="376" y="-651.4" font-family="Times Roman,serif" font-size="24.00">value: </text>
</g>
<!-- 49578432&#45;&gt;48783584 -->
<g id="edge41" class="edge"><title>49578432&#45;&gt;48783584</title>
<path fill="none" stroke="black" d="M765.572,-526.818C652.173,-535.695 506.311,-552.288 454,-581 436.336,-590.695 420.931,-606.101 408.582,-621.554"/>
<polygon fill="black" stroke="black" points="405.713,-619.543 402.407,-629.609 411.268,-623.802 405.713,-619.543"/>
</g>
<!-- 49548896 -->
<g id="node6" class="node"><title>49548896</title>
<ellipse fill="#999999" stroke="black" cx="972" cy="-409" rx="99.9096" ry="26.163"/>
<text text-anchor="middle" x="972" y="-401.9" font-family="Times Roman,serif" font-size="24.00">request: []</text>
</g>
<!-- 49548896&#45;&gt;49578432 -->
<g id="edge19" class="edge"><title>49548896&#45;&gt;49578432</title>
<path fill="none" stroke="black" d="M958.018,-434.831C953.426,-443.315 948.133,-453.093 942.826,-462.898"/>
<polygon fill="black" stroke="black" points="939.65,-461.412 937.968,-471.873 945.806,-464.745 939.65,-461.412"/>
</g>
<!-- 57660304 -->
<g id="node7" class="node"><title>57660304</title>
<ellipse fill="#999999" stroke="black" cx="1174" cy="-300" rx="154.149" ry="46.669"/>
<text text-anchor="middle" x="1174" y="-307.4" font-family="Times Roman,serif" font-size="24.00">exp: snormal</text>
<text text-anchor="middle" x="1174" y="-278.4" font-family="Times Roman,serif" font-size="24.00">value: sp:normal</text>
</g>
<!-- 57660304&#45;&gt;49578432 -->
<g id="edge7" class="edge"><title>57660304&#45;&gt;49578432</title>
<path fill="none" stroke="black" d="M1150.23,-346.076C1133.79,-374.496 1109.73,-410.141 1081,-435 1062,-451.442 1039.16,-465.518 1016.54,-477.16"/>
<polygon fill="black" stroke="black" points="1014.93,-474.055 1007.56,-481.667 1018.07,-480.312 1014.93,-474.055"/>
</g>
<!-- 57660304&#45;&gt;49548896 -->
<g id="edge9" class="edge"><title>57660304&#45;&gt;49548896</title>
<path fill="none" stroke="black" d="M1098.78,-340.588C1074.14,-353.887 1047.29,-368.371 1024.68,-380.574"/>
<polygon fill="black" stroke="black" points="1022.73,-377.65 1015.59,-385.479 1026.05,-383.81 1022.73,-377.65"/>
</g>
<!-- 52681840&#45;&gt;49578432 -->
<g id="edge13" class="edge"><title>52681840&#45;&gt;49578432</title>
<path fill="none" stroke="black" d="M851.165,-346.625C851.418,-373.111 853.95,-406.558 863,-435 866.06,-444.618 870.433,-454.287 875.334,-463.455"/>
<polygon fill="black" stroke="black" points="872.431,-465.433 880.383,-472.435 878.533,-462.003 872.431,-465.433"/>
</g>
<!-- 52681840&#45;&gt;49548896 -->
<g id="edge15" class="edge"><title>52681840&#45;&gt;49548896</title>
<path fill="none" stroke="black" d="M901.059,-344.02C913.113,-355.062 925.819,-366.7 937.094,-377.028"/>
<polygon fill="black" stroke="black" points="934.908,-379.772 944.646,-383.945 939.636,-374.61 934.908,-379.772"/>
</g>
<!-- 52397680 -->
<g id="node10" class="node"><title>52397680</title>
<ellipse fill="#63b8ff" stroke="black" cx="1064" cy="-1109" rx="741.755" ry="46.669"/>
<text text-anchor="middle" x="1064" y="-1116.4" font-family="Times Roman,serif" font-size="24.00">exp: (snormal (branch_exp y (quote (snormal 0.000000)) (quote 5.000000)) 1.000000)</text>
<text text-anchor="middle" x="1064" y="-1087.4" font-family="Times Roman,serif" font-size="24.00">value: 0.967264</text>
</g>
<!-- 49620848 -->
<g id="node24" class="node"><title>49620848</title>
<ellipse fill="#e5e5e5" stroke="black" cx="1197" cy="-1264" rx="149.2" ry="46.669"/>
<text text-anchor="middle" x="1197" y="-1271.4" font-family="Times Roman,serif" font-size="24.00">exp: w</text>
<text text-anchor="middle" x="1197" y="-1242.4" font-family="Times Roman,serif" font-size="24.00">value: 0.967264</text>
</g>
<!-- 52397680&#45;&gt;49620848 -->
<g id="edge69" class="edge"><title>52397680&#45;&gt;49620848</title>
<path fill="none" stroke="black" d="M1103.9,-1155.51C1118.97,-1173.06 1136.21,-1193.16 1151.73,-1211.24"/>
<polygon fill="black" stroke="black" points="1149.1,-1213.55 1158.27,-1218.86 1154.41,-1208.99 1149.1,-1213.55"/>
</g>
<!-- 50247536 -->
<g id="node11" class="node"><title>50247536</title>
<ellipse fill="#63b8ff" stroke="black" cx="1297" cy="-1000" rx="99.9096" ry="26.163"/>
<text text-anchor="middle" x="1297" y="-992.9" font-family="Times Roman,serif" font-size="24.00">request: []</text>
</g>
<!-- 50247536&#45;&gt;52397680 -->
<g id="edge57" class="edge"><title>50247536&#45;&gt;52397680</title>
<path fill="none" stroke="black" d="M1248.16,-1022.85C1225.95,-1033.24 1198.73,-1045.97 1172.1,-1058.43"/>
<polygon fill="black" stroke="black" points="1170.29,-1055.41 1162.72,-1062.82 1173.26,-1061.75 1170.29,-1055.41"/>
</g>
<!-- 53333456 -->
<g id="node12" class="node"><title>53333456</title>
<ellipse fill="#999999" stroke="black" cx="1336" cy="-891" rx="154.149" ry="46.669"/>
<text text-anchor="middle" x="1336" y="-898.4" font-family="Times Roman,serif" font-size="24.00">exp: snormal</text>
<text text-anchor="middle" x="1336" y="-869.4" font-family="Times Roman,serif" font-size="24.00">value: sp:normal</text>
</g>
<!-- 53333456&#45;&gt;52397680 -->
<g id="edge21" class="edge"><title>53333456&#45;&gt;52397680</title>
<path fill="none" stroke="black" d="M1254.71,-930.535C1232.17,-943.077 1208.33,-957.912 1188,-974 1158.37,-997.446 1129.56,-1028.18 1107.17,-1054.4"/>
<polygon fill="black" stroke="black" points="1104.21,-1052.48 1100.44,-1062.38 1109.56,-1056.99 1104.21,-1052.48"/>
</g>
<!-- 53333456&#45;&gt;50247536 -->
<g id="edge23" class="edge"><title>53333456&#45;&gt;50247536</title>
<path fill="none" stroke="black" d="M1319.35,-937.542C1316.13,-946.525 1312.81,-955.803 1309.75,-964.371"/>
<polygon fill="black" stroke="black" points="1306.36,-963.449 1306.29,-974.043 1312.95,-965.807 1306.36,-963.449"/>
</g>
<!-- 53215552 -->
<g id="node13" class="node"><title>53215552</title>
<ellipse fill="gold" stroke="black" cx="594" cy="-891" rx="570.135" ry="46.669"/>
<text text-anchor="middle" x="594" y="-898.4" font-family="Times Roman,serif" font-size="24.00">exp: (branch_exp y (quote (snormal 0.000000)) (quote 5.000000))</text>
<text text-anchor="middle" x="594" y="-869.4" font-family="Times Roman,serif" font-size="24.00">value: </text>
</g>
<!-- 53215552&#45;&gt;52397680 -->
<g id="edge27" class="edge"><title>53215552&#45;&gt;52397680</title>
<path fill="none" stroke="black" d="M692.814,-936.833C769.528,-972.415 875.808,-1021.71 954.992,-1058.44"/>
<polygon fill="black" stroke="black" points="953.966,-1061.82 964.51,-1062.85 956.911,-1055.47 953.966,-1061.82"/>
</g>
<!-- 53215552&#45;&gt;50247536 -->
<g id="edge29" class="edge"><title>53215552&#45;&gt;50247536</title>
<path fill="none" stroke="black" d="M859.524,-932.169C979.36,-950.75 1113.4,-971.533 1201.15,-985.138"/>
<polygon fill="black" stroke="black" points="1200.67,-988.605 1211.08,-986.679 1201.74,-981.688 1200.67,-988.605"/>
</g>
<!-- 53080080 -->
<g id="node14" class="node"><title>53080080</title>
<ellipse fill="gold" stroke="black" cx="700" cy="-782" rx="87.1802" ry="26.163"/>
<text text-anchor="middle" x="700" y="-774.9" font-family="Times Roman,serif" font-size="24.00">request: </text>
</g>
<!-- 53080080&#45;&gt;53215552 -->
<g id="edge51" class="edge"><title>53080080&#45;&gt;53215552</title>
<path fill="none" stroke="black" d="M675.681,-807.007C666.941,-815.995 656.711,-826.514 646.506,-837.008"/>
<polygon fill="black" stroke="black" points="643.925,-834.641 639.463,-844.25 648.944,-839.521 643.925,-834.641"/>
</g>
<!-- 57253040 -->
<g id="node15" class="node"><title>57253040</title>
<ellipse fill="#999999" stroke="black" cx="617" cy="-673" rx="154.149" ry="46.669"/>
<text text-anchor="middle" x="617" y="-680.4" font-family="Times Roman,serif" font-size="24.00">exp: branch_exp</text>
<text text-anchor="middle" x="617" y="-651.4" font-family="Times Roman,serif" font-size="24.00">value: sp:branch</text>
</g>
<!-- 57253040&#45;&gt;53215552 -->
<g id="edge31" class="edge"><title>57253040&#45;&gt;53215552</title>
<path fill="none" stroke="black" d="M609.043,-719.441C607.194,-731.333 605.368,-744.118 604,-756 601.048,-781.638 598.788,-810.122 597.17,-834.292"/>
<polygon fill="black" stroke="black" points="593.672,-834.159 596.516,-844.365 600.657,-834.613 593.672,-834.159"/>
</g>
<!-- 57253040&#45;&gt;53080080 -->
<g id="edge33" class="edge"><title>57253040&#45;&gt;53080080</title>
<path fill="none" stroke="black" d="M651.719,-718.594C659.346,-728.611 667.288,-739.04 674.475,-748.479"/>
<polygon fill="black" stroke="black" points="671.727,-750.647 680.57,-756.483 677.296,-746.407 671.727,-750.647"/>
</g>
<!-- 48783584&#45;&gt;53215552 -->
<g id="edge37" class="edge"><title>48783584&#45;&gt;53215552</title>
<path fill="none" stroke="black" d="M414.723,-711.723C449.623,-746.623 501.281,-798.281 540.192,-837.192"/>
<polygon fill="black" stroke="black" points="537.756,-839.706 547.302,-844.302 542.706,-834.756 537.756,-839.706"/>
</g>
<!-- 48783584&#45;&gt;53080080 -->
<g id="edge39" class="edge"><title>48783584&#45;&gt;53080080</title>
<path fill="none" stroke="black" d="M425.202,-705.61C434.517,-710.922 444.367,-715.989 454,-720 505.435,-741.419 566.106,-756.809 614.325,-766.899"/>
<polygon fill="black" stroke="black" points="613.918,-770.388 624.418,-768.971 615.326,-763.531 613.918,-770.388"/>
</g>
<!-- 50481568 -->
<g id="node17" class="node"><title>50481568</title>
<ellipse fill="#999999" stroke="black" cx="1496" cy="-673" rx="287.085" ry="46.669"/>
<text text-anchor="middle" x="1496" y="-680.4" font-family="Times Roman,serif" font-size="24.00">exp: (quote (snormal 0.000000))</text>
<text text-anchor="middle" x="1496" y="-651.4" font-family="Times Roman,serif" font-size="24.00">value: (snormal 0.000000)</text>
</g>
<!-- 50481568&#45;&gt;53215552 -->
<g id="edge43" class="edge"><title>50481568&#45;&gt;53215552</title>
<path fill="none" stroke="black" d="M1336.04,-711.66C1182.48,-748.773 950.351,-804.875 786.687,-844.43"/>
<polygon fill="black" stroke="black" points="785.397,-841.141 776.499,-846.893 787.041,-847.946 785.397,-841.141"/>
</g>
<!-- 50481568&#45;&gt;53080080 -->
<g id="edge45" class="edge"><title>50481568&#45;&gt;53080080</title>
<path fill="none" stroke="black" d="M1293.92,-706.028C1262.51,-710.891 1230.4,-715.703 1200,-720 1057.65,-740.121 891.992,-759.961 791.627,-771.588"/>
<polygon fill="black" stroke="black" points="791.052,-768.131 781.521,-772.756 791.856,-775.084 791.052,-768.131"/>
</g>
<!-- 53080768 -->
<g id="node18" class="node"><title>53080768</title>
<ellipse fill="#999999" stroke="black" cx="990" cy="-673" rx="200.818" ry="46.669"/>
<text text-anchor="middle" x="990" y="-680.4" font-family="Times Roman,serif" font-size="24.00">exp: (quote 5.000000)</text>
<text text-anchor="middle" x="990" y="-651.4" font-family="Times Roman,serif" font-size="24.00">value: 5.000000</text>
</g>
<!-- 53080768&#45;&gt;53215552 -->
<g id="edge47" class="edge"><title>53080768&#45;&gt;53215552</title>
<path fill="none" stroke="black" d="M932.711,-717.833C895.172,-745.937 844.282,-781.692 796,-808 774.03,-819.971 749.964,-831.286 726.343,-841.487"/>
<polygon fill="black" stroke="black" points="724.789,-838.345 716.966,-845.489 727.537,-844.783 724.789,-838.345"/>
</g>
<!-- 53080768&#45;&gt;53080080 -->
<g id="edge49" class="edge"><title>53080768&#45;&gt;53080080</title>
<path fill="none" stroke="black" d="M884.483,-712.66C844.07,-727.849 799.228,-744.704 763.874,-757.992"/>
<polygon fill="black" stroke="black" points="762.295,-754.847 754.165,-761.641 764.758,-761.399 762.295,-754.847"/>
</g>
<!-- 55107072 -->
<g id="node19" class="node"><title>55107072</title>
<ellipse fill="#999999" stroke="black" cx="1657" cy="-891" rx="149.2" ry="46.669"/>
<text text-anchor="middle" x="1657" y="-898.4" font-family="Times Roman,serif" font-size="24.00">exp: 1.000000</text>
<text text-anchor="middle" x="1657" y="-869.4" font-family="Times Roman,serif" font-size="24.00">value: 1.000000</text>
</g>
<!-- 55107072&#45;&gt;52397680 -->
<g id="edge53" class="edge"><title>55107072&#45;&gt;52397680</title>
<path fill="none" stroke="black" d="M1590.78,-932.676C1541.42,-962.218 1471.5,-1000.91 1406,-1026 1370.23,-1039.7 1331.47,-1051.67 1293.34,-1061.93"/>
<polygon fill="black" stroke="black" points="1292.42,-1058.55 1283.66,-1064.5 1294.22,-1065.31 1292.42,-1058.55"/>
</g>
<!-- 55107072&#45;&gt;50247536 -->
<g id="edge55" class="edge"><title>55107072&#45;&gt;50247536</title>
<path fill="none" stroke="black" d="M1549.96,-923.408C1492.72,-940.741 1423.62,-961.662 1372.12,-977.256"/>
<polygon fill="black" stroke="black" points="1370.94,-973.955 1362.39,-980.203 1372.97,-980.655 1370.94,-973.955"/>
</g>
<!-- 53296304 -->
<g id="node21" class="node"><title>53296304</title>
<ellipse fill="#e5e5e5" stroke="black" cx="1367" cy="-1482" rx="154.149" ry="46.669"/>
<text text-anchor="middle" x="1367" y="-1489.4" font-family="Times Roman,serif" font-size="24.00">exp: (snormal w)</text>
<text text-anchor="middle" x="1367" y="-1460.4" font-family="Times Roman,serif" font-size="24.00">value: 0.914477</text>
</g>
<!-- 58648144 -->
<g id="node22" class="node"><title>58648144</title>
<ellipse fill="#e5e5e5" stroke="black" cx="1367" cy="-1373" rx="99.9096" ry="26.163"/>
<text text-anchor="middle" x="1367" y="-1365.9" font-family="Times Roman,serif" font-size="24.00">request: []</text>
</g>
<!-- 58648144&#45;&gt;53296304 -->
<g id="edge71" class="edge"><title>58648144&#45;&gt;53296304</title>
<path fill="none" stroke="black" d="M1367,-1399.11C1367,-1406.98 1367,-1415.95 1367,-1425"/>
<polygon fill="black" stroke="black" points="1363.5,-1425.22 1367,-1435.22 1370.5,-1425.22 1363.5,-1425.22"/>
</g>
<!-- 52404240 -->
<g id="node23" class="node"><title>52404240</title>
<ellipse fill="#e5e5e5" stroke="black" cx="1518" cy="-1264" rx="154.149" ry="46.669"/>
<text text-anchor="middle" x="1518" y="-1271.4" font-family="Times Roman,serif" font-size="24.00">exp: snormal</text>
<text text-anchor="middle" x="1518" y="-1242.4" font-family="Times Roman,serif" font-size="24.00">value: sp:normal</text>
</g>
<!-- 52404240&#45;&gt;53296304 -->
<g id="edge59" class="edge"><title>52404240&#45;&gt;53296304</title>
<path fill="none" stroke="black" d="M1510.86,-1310.6C1504.93,-1338.19 1494.37,-1372.76 1476,-1399 1467.1,-1411.71 1455.67,-1423.33 1443.56,-1433.59"/>
<polygon fill="black" stroke="black" points="1441.07,-1431.1 1435.53,-1440.13 1445.49,-1436.53 1441.07,-1431.1"/>
</g>
<!-- 52404240&#45;&gt;58648144 -->
<g id="edge61" class="edge"><title>52404240&#45;&gt;58648144</title>
<path fill="none" stroke="black" d="M1458.32,-1307.08C1441.91,-1318.93 1424.45,-1331.53 1409.24,-1342.51"/>
<polygon fill="black" stroke="black" points="1407.1,-1339.74 1401.04,-1348.43 1411.2,-1345.41 1407.1,-1339.74"/>
</g>
<!-- 49620848&#45;&gt;53296304 -->
<g id="edge65" class="edge"><title>49620848&#45;&gt;53296304</title>
<path fill="none" stroke="black" d="M1211.54,-1310.59C1221.66,-1338.17 1237.1,-1372.74 1258,-1399 1267.94,-1411.48 1280.15,-1423.12 1292.76,-1433.51"/>
<polygon fill="black" stroke="black" points="1290.65,-1436.3 1300.65,-1439.8 1295.02,-1430.83 1290.65,-1436.3"/>
</g>
<!-- 49620848&#45;&gt;58648144 -->
<g id="edge67" class="edge"><title>49620848&#45;&gt;58648144</title>
<path fill="none" stroke="black" d="M1262.24,-1305.83C1281.71,-1318.32 1302.65,-1331.74 1320.65,-1343.28"/>
<polygon fill="black" stroke="black" points="1318.92,-1346.33 1329.23,-1348.78 1322.7,-1340.44 1318.92,-1346.33"/>
</g>
<!-- 57663808 -->
<g id="node27" class="node"><title>57663808</title>
<ellipse fill="none" stroke="black" cx="1984" cy="-145" rx="62.9325" ry="18.3848"/>
<text text-anchor="middle" x="1984" y="-141.4" font-family="Times Roman,serif" font-size="14.00">57663808</text>
</g>
<!-- 57663808&#45;&gt;57660304 -->
<g id="edge11" class="edge"><title>57663808&#45;&gt;57660304</title>
<path fill="none" stroke="black" d="M1921.45,-147.631C1780.26,-154.12 1440.71,-172.96 1332,-208 1300.79,-218.061 1269.03,-234.986 1242.26,-251.596"/>
<polygon fill="black" stroke="black" points="1240.33,-248.671 1233.75,-256.969 1244.07,-254.59 1240.33,-248.671"/>
</g>
<!-- 57663808&#45;&gt;53333456 -->
<g id="edge25" class="edge"><title>57663808&#45;&gt;53333456</title>
<path fill="none" stroke="black" d="M1984,-163.564C1984,-206.667 1984,-316.875 1984,-409 1984,-409 1984,-409 1984,-673 1984,-686.836 1640.06,-796.221 1453.33,-854.588"/>
<polygon fill="black" stroke="black" points="1452.23,-851.262 1443.73,-857.585 1454.32,-857.944 1452.23,-851.262"/>
</g>
<!-- 57663808&#45;&gt;52404240 -->
<g id="edge63" class="edge"><title>57663808&#45;&gt;52404240</title>
<path fill="none" stroke="black" d="M1988.58,-163.753C1998.69,-206.804 2022,-316.157 2022,-409 2022,-409 2022,-409 2022,-1000 2022,-1159.08 1822.53,-1222.49 1674.57,-1247.64"/>
<polygon fill="black" stroke="black" points="1673.75,-1244.23 1664.45,-1249.31 1674.89,-1251.13 1673.75,-1244.23"/>
</g>
<!-- 55562944 -->
<g id="node40" class="node"><title>55562944</title>
<ellipse fill="none" stroke="black" cx="1893" cy="-518" rx="62.9325" ry="18.3848"/>
<text text-anchor="middle" x="1893" y="-514.4" font-family="Times Roman,serif" font-size="14.00">55562944</text>
</g>
<!-- 55562944&#45;&gt;57253040 -->
<g id="edge35" class="edge"><title>55562944&#45;&gt;57253040</title>
<path fill="none" stroke="black" d="M1835.01,-525.404C1734.44,-537.877 1521.09,-562.72 1340,-573 1308.94,-574.763 810.036,-572.879 780,-581 746.739,-589.993 713.068,-607.319 685.033,-624.532"/>
<polygon fill="black" stroke="black" points="683.139,-621.589 676.52,-629.861 686.853,-627.522 683.139,-621.589"/>
</g>
</g>
</svg>
