<?xml version="1.0" encoding="UTF-8" standalone="no"?>
<!DOCTYPE svg PUBLIC "-//W3C//DTD SVG 1.1//EN"
 "http://www.w3.org/Graphics/SVG/1.1/DTD/svg11.dtd">
<!-- Generated by graphviz version 2.26.3 (20100126.1600)
 -->
<!-- Title: _anonymous_0 Pages: 1 -->
<svg width="278pt" height="836pt"
 viewBox="0.00 0.00 278.00 836.00" xmlns="http://www.w3.org/2000/svg" xmlns:xlink="http://www.w3.org/1999/xlink">
<g id="graph1" class="graph" transform="scale(1 1) rotate(0) translate(4 832)">
<title>_anonymous_0</title>
<polygon fill="white" stroke="white" points="-4,5 -4,-832 275,-832 275,5 -4,5"/>
<!-- 29359040 -->
<g id="node3" class="node"><title>29359040</title>
<ellipse fill="#e5e5e5" stroke="black" cx="144" cy="-18" rx="27" ry="18"/>
</g>
<!-- 25977504 -->
<g id="node8" class="node"><title>25977504</title>
<ellipse fill="#999999" stroke="black" cx="144" cy="-90" rx="27" ry="18"/>
</g>
<!-- 29359040&#45;&gt;25977504 -->
<g id="edge61" class="edge"><title>29359040&#45;&gt;25977504</title>
<path fill="none" stroke="black" d="M144,-36.1686C144,-43.869 144,-53.0257 144,-61.5834"/>
<polygon fill="black" stroke="black" points="140.5,-61.5867 144,-71.5867 147.5,-61.5868 140.5,-61.5867"/>
</g>
<!-- 30136448 -->
<g id="node5" class="node"><title>30136448</title>
<ellipse fill="firebrick" stroke="black" cx="99" cy="-234" rx="27" ry="18"/>
</g>
<!-- 26078976 -->
<g id="node16" class="node"><title>26078976</title>
<ellipse fill="gold" stroke="black" cx="99" cy="-306" rx="27" ry="18"/>
</g>
<!-- 30136448&#45;&gt;26078976 -->
<g id="edge23" class="edge"><title>30136448&#45;&gt;26078976</title>
<path fill="none" stroke="black" d="M99,-252.169C99,-259.869 99,-269.026 99,-277.583"/>
<polygon fill="black" stroke="black" points="95.5001,-277.587 99,-287.587 102.5,-277.587 95.5001,-277.587"/>
</g>
<!-- 30137280 -->
<g id="node6" class="node"><title>30137280</title>
<ellipse fill="#999999" stroke="black" cx="99" cy="-162" rx="27" ry="18"/>
</g>
<!-- 30137280&#45;&gt;30136448 -->
<g id="edge63" class="edge"><title>30137280&#45;&gt;30136448</title>
<path fill="none" stroke="black" d="M99,-180.169C99,-187.869 99,-197.026 99,-205.583"/>
<polygon fill="black" stroke="black" points="95.5001,-205.587 99,-215.587 102.5,-205.587 95.5001,-205.587"/>
</g>
<!-- 31805840 -->
<g id="node7" class="node"><title>31805840</title>
<ellipse fill="#999999" stroke="black" cx="63" cy="-90" rx="27" ry="18"/>
</g>
<!-- 31805840&#45;&gt;30136448 -->
<g id="edge53" class="edge"><title>31805840&#45;&gt;30136448</title>
<path fill="none" stroke="black" d="M59.9883,-108.036C57.5895,-126.533 55.7101,-155.923 63,-180 66.2661,-190.787 72.4764,-201.389 78.8313,-210.304"/>
<polygon fill="black" stroke="black" points="76.0487,-212.427 84.8771,-218.284 81.6285,-208.2 76.0487,-212.427"/>
</g>
<!-- 31805840&#45;&gt;30137280 -->
<g id="edge55" class="edge"><title>31805840&#45;&gt;30137280</title>
<path fill="none" stroke="black" d="M71.7146,-107.429C75.9597,-115.919 81.1536,-126.307 85.8663,-135.733"/>
<polygon fill="black" stroke="black" points="82.763,-137.352 90.3657,-144.731 89.024,-134.222 82.763,-137.352"/>
</g>
<!-- 25977504&#45;&gt;30136448 -->
<g id="edge57" class="edge"><title>25977504&#45;&gt;30136448</title>
<path fill="none" stroke="black" d="M144.723,-108.15C144.885,-126.737 143.522,-156.198 135,-180 131.24,-190.502 125.004,-200.957 118.77,-209.831"/>
<polygon fill="black" stroke="black" points="115.768,-208.002 112.628,-218.121 121.393,-212.169 115.768,-208.002"/>
</g>
<!-- 25977504&#45;&gt;30137280 -->
<g id="edge59" class="edge"><title>25977504&#45;&gt;30137280</title>
<path fill="none" stroke="black" d="M133.563,-106.699C128.077,-115.478 121.231,-126.43 115.084,-136.266"/>
<polygon fill="black" stroke="black" points="112.025,-134.556 109.693,-144.891 117.961,-138.266 112.025,-134.556"/>
</g>
<!-- 26620336 -->
<g id="node10" class="node"><title>26620336</title>
<ellipse fill="#63b8ff" stroke="black" cx="151" cy="-594" rx="27" ry="18"/>
</g>
<!-- 23848704 -->
<g id="node24" class="node"><title>23848704</title>
<ellipse fill="#e5e5e5" stroke="black" cx="151" cy="-666" rx="27" ry="18"/>
</g>
<!-- 26620336&#45;&gt;23848704 -->
<g id="edge49" class="edge"><title>26620336&#45;&gt;23848704</title>
<path fill="none" stroke="black" d="M151,-612.169C151,-619.869 151,-629.026 151,-637.583"/>
<polygon fill="black" stroke="black" points="147.5,-637.587 151,-647.587 154.5,-637.587 147.5,-637.587"/>
</g>
<!-- 29399760 -->
<g id="node11" class="node"><title>29399760</title>
<ellipse fill="#63b8ff" stroke="black" cx="124" cy="-522" rx="27" ry="18"/>
</g>
<!-- 29399760&#45;&gt;26620336 -->
<g id="edge39" class="edge"><title>29399760&#45;&gt;26620336</title>
<path fill="none" stroke="black" d="M130.674,-539.798C133.748,-547.994 137.462,-557.898 140.87,-566.985"/>
<polygon fill="black" stroke="black" points="137.614,-568.273 144.403,-576.407 144.168,-565.815 137.614,-568.273"/>
</g>
<!-- 26830576 -->
<g id="node12" class="node"><title>26830576</title>
<ellipse fill="#999999" stroke="black" cx="69" cy="-450" rx="27" ry="18"/>
</g>
<!-- 26830576&#45;&gt;26620336 -->
<g id="edge7" class="edge"><title>26830576&#45;&gt;26620336</title>
<path fill="none" stroke="black" d="M69.4453,-468.138C70.653,-487.244 74.7263,-517.609 88,-540 96.4754,-554.297 110.108,-566.675 122.527,-575.961"/>
<polygon fill="black" stroke="black" points="120.675,-578.938 130.853,-581.88 124.731,-573.233 120.675,-578.938"/>
</g>
<!-- 26830576&#45;&gt;29399760 -->
<g id="edge9" class="edge"><title>26830576&#45;&gt;29399760</title>
<path fill="none" stroke="black" d="M81.4804,-466.338C88.5124,-475.544 97.4347,-487.224 105.288,-497.505"/>
<polygon fill="black" stroke="black" points="102.717,-499.905 111.569,-505.727 108.28,-495.655 102.717,-499.905"/>
</g>
<!-- 26358576 -->
<g id="node13" class="node"><title>26358576</title>
<ellipse fill="gold" stroke="black" cx="142" cy="-450" rx="27" ry="18"/>
</g>
<!-- 26358576&#45;&gt;26620336 -->
<g id="edge11" class="edge"><title>26358576&#45;&gt;26620336</title>
<path fill="none" stroke="black" d="M149.48,-467.636C153.474,-478.014 157.974,-491.514 160,-504 163.349,-524.635 160.781,-548.146 157.544,-565.963"/>
<polygon fill="black" stroke="black" points="154.069,-565.495 155.546,-575.986 160.934,-566.864 154.069,-565.495"/>
</g>
<!-- 26358576&#45;&gt;29399760 -->
<g id="edge13" class="edge"><title>26358576&#45;&gt;29399760</title>
<path fill="none" stroke="black" d="M137.551,-467.798C135.56,-475.759 133.167,-485.333 130.949,-494.204"/>
<polygon fill="black" stroke="black" points="127.491,-493.607 128.461,-504.157 134.282,-495.305 127.491,-493.607"/>
</g>
<!-- 28485744 -->
<g id="node14" class="node"><title>28485744</title>
<ellipse fill="gold" stroke="black" cx="142" cy="-378" rx="27" ry="18"/>
</g>
<!-- 28485744&#45;&gt;26358576 -->
<g id="edge33" class="edge"><title>28485744&#45;&gt;26358576</title>
<path fill="none" stroke="black" d="M142,-396.169C142,-403.869 142,-413.026 142,-421.583"/>
<polygon fill="black" stroke="black" points="138.5,-421.587 142,-431.587 145.5,-421.587 138.5,-421.587"/>
</g>
<!-- 27825008 -->
<g id="node15" class="node"><title>27825008</title>
<ellipse fill="#999999" stroke="black" cx="27" cy="-306" rx="27" ry="18"/>
</g>
<!-- 27825008&#45;&gt;26358576 -->
<g id="edge15" class="edge"><title>27825008&#45;&gt;26358576</title>
<path fill="none" stroke="black" d="M38.9509,-322.52C52.2776,-340.773 74.6412,-370.908 95,-396 103.237,-406.152 112.64,-417.078 120.86,-426.428"/>
<polygon fill="black" stroke="black" points="118.472,-429.011 127.72,-434.18 123.714,-424.372 118.472,-429.011"/>
</g>
<!-- 27825008&#45;&gt;28485744 -->
<g id="edge17" class="edge"><title>27825008&#45;&gt;28485744</title>
<path fill="none" stroke="black" d="M46.7692,-318.377C65.1178,-329.865 92.6439,-347.099 113.391,-360.088"/>
<polygon fill="black" stroke="black" points="111.771,-363.203 122.104,-365.543 115.485,-357.27 111.771,-363.203"/>
</g>
<!-- 26078976&#45;&gt;26358576 -->
<g id="edge19" class="edge"><title>26078976&#45;&gt;26358576</title>
<path fill="none" stroke="black" d="M97.7709,-324.131C97.1132,-342.703 97.7566,-372.152 106,-396 109.644,-406.543 115.854,-417.007 122.099,-425.877"/>
<polygon fill="black" stroke="black" points="119.485,-428.227 128.264,-434.159 125.101,-424.047 119.485,-428.227"/>
</g>
<!-- 26078976&#45;&gt;28485744 -->
<g id="edge21" class="edge"><title>26078976&#45;&gt;28485744</title>
<path fill="none" stroke="black" d="M109.19,-323.063C114.385,-331.761 120.811,-342.52 126.595,-352.205"/>
<polygon fill="black" stroke="black" points="123.75,-354.269 131.883,-361.059 129.76,-350.679 123.75,-354.269"/>
</g>
<!-- 25906208 -->
<g id="node17" class="node"><title>25906208</title>
<ellipse fill="#999999" stroke="black" cx="171" cy="-306" rx="27" ry="18"/>
</g>
<!-- 25906208&#45;&gt;26358576 -->
<g id="edge25" class="edge"><title>25906208&#45;&gt;26358576</title>
<path fill="none" stroke="black" d="M176.197,-324.006C180.658,-342.479 185.312,-371.85 178,-396 174.734,-406.787 168.524,-417.389 162.169,-426.304"/>
<polygon fill="black" stroke="black" points="159.372,-424.2 156.123,-434.284 164.951,-428.427 159.372,-424.2"/>
</g>
<!-- 25906208&#45;&gt;28485744 -->
<g id="edge27" class="edge"><title>25906208&#45;&gt;28485744</title>
<path fill="none" stroke="black" d="M163.98,-323.429C160.656,-331.681 156.61,-341.726 152.9,-350.938"/>
<polygon fill="black" stroke="black" points="149.546,-349.898 149.056,-360.482 156.039,-352.514 149.546,-349.898"/>
</g>
<!-- 32104320 -->
<g id="node18" class="node"><title>32104320</title>
<ellipse fill="#999999" stroke="black" cx="243" cy="-306" rx="27" ry="18"/>
</g>
<!-- 32104320&#45;&gt;26358576 -->
<g id="edge29" class="edge"><title>32104320&#45;&gt;26358576</title>
<path fill="none" stroke="black" d="M234.978,-323.352C225.966,-342.064 210.317,-372.348 193,-396 184.705,-407.33 174.24,-418.791 164.951,-428.222"/>
<polygon fill="black" stroke="black" points="162.445,-425.779 157.817,-435.31 167.378,-430.744 162.445,-425.779"/>
</g>
<!-- 32104320&#45;&gt;28485744 -->
<g id="edge31" class="edge"><title>32104320&#45;&gt;28485744</title>
<path fill="none" stroke="black" d="M224.475,-319.206C208.912,-330.3 186.466,-346.301 168.919,-358.81"/>
<polygon fill="black" stroke="black" points="166.861,-355.979 160.75,-364.634 170.924,-361.679 166.861,-355.979"/>
</g>
<!-- 31197024 -->
<g id="node19" class="node"><title>31197024</title>
<ellipse fill="#999999" stroke="black" cx="216" cy="-450" rx="27" ry="18"/>
</g>
<!-- 31197024&#45;&gt;26620336 -->
<g id="edge35" class="edge"><title>31197024&#45;&gt;26620336</title>
<path fill="none" stroke="black" d="M208.159,-467.37C196.935,-492.236 176.191,-538.193 163.02,-567.371"/>
<polygon fill="black" stroke="black" points="159.792,-566.014 158.868,-576.569 166.173,-568.894 159.792,-566.014"/>
</g>
<!-- 31197024&#45;&gt;29399760 -->
<g id="edge37" class="edge"><title>31197024&#45;&gt;29399760</title>
<path fill="none" stroke="black" d="M198.261,-463.882C184.516,-474.64 165.273,-489.699 149.82,-501.793"/>
<polygon fill="black" stroke="black" points="147.402,-499.241 141.684,-508.16 151.716,-504.753 147.402,-499.241"/>
</g>
<!-- 28401456 -->
<g id="node21" class="node"><title>28401456</title>
<ellipse fill="#e5e5e5" stroke="black" cx="106" cy="-810" rx="27" ry="18"/>
</g>
<!-- 32595744 -->
<g id="node22" class="node"><title>32595744</title>
<ellipse fill="#e5e5e5" stroke="black" cx="106" cy="-738" rx="27" ry="18"/>
</g>
<!-- 32595744&#45;&gt;28401456 -->
<g id="edge51" class="edge"><title>32595744&#45;&gt;28401456</title>
<path fill="none" stroke="black" d="M106,-756.169C106,-763.869 106,-773.026 106,-781.583"/>
<polygon fill="black" stroke="black" points="102.5,-781.587 106,-791.587 109.5,-781.587 102.5,-781.587"/>
</g>
<!-- 24384944 -->
<g id="node23" class="node"><title>24384944</title>
<ellipse fill="#e5e5e5" stroke="black" cx="60" cy="-666" rx="27" ry="18"/>
</g>
<!-- 24384944&#45;&gt;28401456 -->
<g id="edge41" class="edge"><title>24384944&#45;&gt;28401456</title>
<path fill="none" stroke="black" d="M59.5302,-684.158C59.6151,-702.752 61.3368,-732.218 70,-756 73.8179,-766.481 80.0667,-776.931 86.2954,-785.807"/>
<polygon fill="black" stroke="black" points="83.6676,-788.14 92.4265,-794.101 89.2966,-783.979 83.6676,-788.14"/>
</g>
<!-- 24384944&#45;&gt;32595744 -->
<g id="edge43" class="edge"><title>24384944&#45;&gt;32595744</title>
<path fill="none" stroke="black" d="M70.6689,-682.699C76.3586,-691.605 83.4777,-702.748 89.8316,-712.693"/>
<polygon fill="black" stroke="black" points="87.0555,-714.849 95.3889,-721.391 92.9544,-711.08 87.0555,-714.849"/>
</g>
<!-- 23848704&#45;&gt;28401456 -->
<g id="edge45" class="edge"><title>23848704&#45;&gt;28401456</title>
<path fill="none" stroke="black" d="M151.723,-684.15C151.885,-702.737 150.522,-732.198 142,-756 138.24,-766.502 132.004,-776.957 125.77,-785.831"/>
<polygon fill="black" stroke="black" points="122.768,-784.002 119.628,-794.121 128.393,-788.169 122.768,-784.002"/>
</g>
<!-- 23848704&#45;&gt;32595744 -->
<g id="edge47" class="edge"><title>23848704&#45;&gt;32595744</title>
<path fill="none" stroke="black" d="M140.563,-682.699C135.077,-691.478 128.231,-702.43 122.084,-712.266"/>
<polygon fill="black" stroke="black" points="119.025,-710.556 116.693,-720.891 124.961,-714.266 119.025,-710.556"/>
</g>
</g>
</svg>
