<?xml version="1.0" encoding="UTF-8" standalone="no"?>
<!DOCTYPE svg PUBLIC "-//W3C//DTD SVG 1.1//EN"
 "http://www.w3.org/Graphics/SVG/1.1/DTD/svg11.dtd">
<!-- Generated by graphviz version 2.26.3 (20100126.1600)
 -->
<!-- Title: _anonymous_0 Pages: 1 -->
<svg width="2419pt" height="1817pt"
 viewBox="0.00 0.00 2418.69 1817.00" xmlns="http://www.w3.org/2000/svg" xmlns:xlink="http://www.w3.org/1999/xlink">
<g id="graph1" class="graph" transform="scale(1 1) rotate(0) translate(4 1813)">
<title>_anonymous_0</title>
<polygon fill="white" stroke="white" points="-4,5 -4,-1813 2415.69,-1813 2415.69,5 -4,5"/>
<g id="graph2" class="cluster"><title>cluster1</title>
<polygon fill="none" stroke="black" points="8,-46 8,-1801 1688,-1801 1688,-46 8,-46"/>
<text text-anchor="middle" x="848" y="-57.4" font-family="Times Roman,serif" font-size="24.00">Venture Families</text>
</g>
<g id="graph3" class="cluster"><title>cluster2</title>
<polygon fill="none" stroke="black" points="957,-91 957,-456 1597,-456 1597,-91 957,-91"/>
<text text-anchor="middle" x="1277" y="-102.4" font-family="Times Roman,serif" font-size="24.00">1</text>
</g>
<g id="graph4" class="cluster"><title>cluster3</title>
<polygon fill="none" stroke="black" points="1010,-464 1010,-829 1650,-829 1650,-464 1010,-464"/>
<text text-anchor="middle" x="1330" y="-475.4" font-family="Times Roman,serif" font-size="24.00">2</text>
</g>
<g id="graph5" class="cluster"><title>cluster4</title>
<polygon fill="none" stroke="black" points="16,-837 16,-1420 1680,-1420 1680,-837 16,-837"/>
<text text-anchor="middle" x="848" y="-848.4" font-family="Times Roman,serif" font-size="24.00">3</text>
</g>
<g id="graph6" class="cluster"><title>cluster5</title>
<polygon fill="none" stroke="black" points="949,-1428 949,-1793 1589,-1793 1589,-1428 949,-1428"/>
<text text-anchor="middle" x="1269" y="-1439.4" font-family="Times Roman,serif" font-size="24.00">4</text>
</g>
<g id="graph7" class="cluster"><title>cluster6</title>
<polygon fill="none" stroke="black" points="1727,-128 1727,-456 2367,-456 2367,-128 1727,-128"/>
</g>
<!-- 33946736 -->
<g id="node3" class="node"><title>33946736</title>
<ellipse fill="firebrick" stroke="black" cx="1209" cy="-401" rx="219.91" ry="46.669"/>
<text text-anchor="middle" x="1209" y="-408.4" font-family="Times Roman,serif" font-size="24.00">exp: (snormal 0.000000)</text>
<text text-anchor="middle" x="1209" y="-379.4" font-family="Times Roman,serif" font-size="24.00">value: 0.517600</text>
</g>
<!-- 30588672 -->
<g id="node11" class="node"><title>30588672</title>
<ellipse fill="gold" stroke="black" cx="1167" cy="-556" rx="149.2" ry="46.669"/>
<text text-anchor="middle" x="1167" y="-563.4" font-family="Times Roman,serif" font-size="24.00">exp: x</text>
<text text-anchor="middle" x="1167" y="-534.4" font-family="Times Roman,serif" font-size="24.00">value: 0.517600</text>
</g>
<!-- 33946736&#45;&gt;30588672 -->
<g id="edge70" class="edge"><title>33946736&#45;&gt;30588672</title>
<path fill="none" stroke="black" d="M1196.4,-447.505C1191.95,-463.904 1186.91,-482.521 1182.27,-499.645"/>
<polygon fill="black" stroke="black" points="1178.83,-498.96 1179.59,-509.528 1185.59,-500.791 1178.83,-498.96"/>
</g>
<!-- 31289616 -->
<g id="node4" class="node"><title>31289616</title>
<ellipse fill="#999999" stroke="black" cx="1233" cy="-292" rx="99.9096" ry="26.163"/>
<text text-anchor="middle" x="1233" y="-284.9" font-family="Times Roman,serif" font-size="24.00">request: []</text>
</g>
<!-- 31289616&#45;&gt;33946736 -->
<g id="edge84" class="edge"><title>31289616&#45;&gt;33946736</title>
<path fill="none" stroke="black" d="M1227.25,-318.108C1225.5,-326.064 1223.5,-335.139 1221.49,-344.297"/>
<polygon fill="black" stroke="black" points="1218.03,-343.7 1219.3,-354.218 1224.87,-345.205 1218.03,-343.7"/>
</g>
<!-- 37220848 -->
<g id="node5" class="node"><title>37220848</title>
<ellipse fill="#999999" stroke="black" cx="1435" cy="-183" rx="154.149" ry="46.669"/>
<text text-anchor="middle" x="1435" y="-190.4" font-family="Times Roman,serif" font-size="24.00">exp: snormal</text>
<text text-anchor="middle" x="1435" y="-161.4" font-family="Times Roman,serif" font-size="24.00">value: sp:normal</text>
</g>
<!-- 37220848&#45;&gt;33946736 -->
<g id="edge74" class="edge"><title>37220848&#45;&gt;33946736</title>
<path fill="none" stroke="black" d="M1409.8,-229.068C1393.04,-256.963 1369.16,-292.044 1342,-318 1329.05,-330.376 1313.97,-341.874 1298.71,-352.128"/>
<polygon fill="black" stroke="black" points="1296.66,-349.282 1290.22,-357.694 1300.5,-355.135 1296.66,-349.282"/>
</g>
<!-- 37220848&#45;&gt;31289616 -->
<g id="edge76" class="edge"><title>37220848&#45;&gt;31289616</title>
<path fill="none" stroke="black" d="M1359.78,-223.588C1335.14,-236.887 1308.29,-251.371 1285.68,-263.574"/>
<polygon fill="black" stroke="black" points="1283.73,-260.65 1276.59,-268.479 1287.05,-266.81 1283.73,-260.65"/>
</g>
<!-- 37419920 -->
<g id="node6" class="node"><title>37419920</title>
<ellipse fill="#999999" stroke="black" cx="1114" cy="-183" rx="149.2" ry="46.669"/>
<text text-anchor="middle" x="1114" y="-190.4" font-family="Times Roman,serif" font-size="24.00">exp: 0.000000</text>
<text text-anchor="middle" x="1114" y="-161.4" font-family="Times Roman,serif" font-size="24.00">value: 0.000000</text>
</g>
<!-- 37419920&#45;&gt;33946736 -->
<g id="edge80" class="edge"><title>37419920&#45;&gt;33946736</title>
<path fill="none" stroke="black" d="M1109.49,-229.73C1108.79,-256.713 1111.26,-290.621 1124,-318 1129.03,-328.81 1136.13,-338.971 1144.09,-348.224"/>
<polygon fill="black" stroke="black" points="1141.65,-350.737 1150.97,-355.778 1146.83,-346.026 1141.65,-350.737"/>
</g>
<!-- 37419920&#45;&gt;31289616 -->
<g id="edge82" class="edge"><title>37419920&#45;&gt;31289616</title>
<path fill="none" stroke="black" d="M1162.06,-227.02C1174.11,-238.062 1186.82,-249.7 1198.09,-260.028"/>
<polygon fill="black" stroke="black" points="1195.91,-262.772 1205.65,-266.945 1200.64,-257.61 1195.91,-262.772"/>
</g>
<!-- 33103552 -->
<g id="node8" class="node"><title>33103552</title>
<ellipse fill="#63b8ff" stroke="black" cx="1238" cy="-774" rx="155.063" ry="46.669"/>
<text text-anchor="middle" x="1238" y="-781.4" font-family="Times Roman,serif" font-size="24.00">exp: (snormal x)</text>
<text text-anchor="middle" x="1238" y="-752.4" font-family="Times Roman,serif" font-size="24.00">value: &#45;2.019044</text>
</g>
<!-- 37271520 -->
<g id="node19" class="node"><title>37271520</title>
<ellipse fill="#e5e5e5" stroke="black" cx="1191" cy="-929" rx="155.063" ry="46.669"/>
<text text-anchor="middle" x="1191" y="-936.4" font-family="Times Roman,serif" font-size="24.00">exp: y</text>
<text text-anchor="middle" x="1191" y="-907.4" font-family="Times Roman,serif" font-size="24.00">value: &#45;2.019044</text>
</g>
<!-- 33103552&#45;&gt;37271520 -->
<g id="edge28" class="edge"><title>33103552&#45;&gt;37271520</title>
<path fill="none" stroke="black" d="M1223.9,-820.505C1218.93,-836.904 1213.28,-855.521 1208.09,-872.645"/>
<polygon fill="black" stroke="black" points="1204.64,-871.942 1205.09,-882.528 1211.34,-873.974 1204.64,-871.942"/>
</g>
<!-- 31861488 -->
<g id="node9" class="node"><title>31861488</title>
<ellipse fill="#63b8ff" stroke="black" cx="1286" cy="-665" rx="99.9096" ry="26.163"/>
<text text-anchor="middle" x="1286" y="-657.9" font-family="Times Roman,serif" font-size="24.00">request: []</text>
</g>
<!-- 31861488&#45;&gt;33103552 -->
<g id="edge72" class="edge"><title>31861488&#45;&gt;33103552</title>
<path fill="none" stroke="black" d="M1274.62,-690.831C1270.93,-699.228 1266.67,-708.894 1262.4,-718.598"/>
<polygon fill="black" stroke="black" points="1259.14,-717.31 1258.31,-727.873 1265.55,-720.132 1259.14,-717.31"/>
</g>
<!-- 31339040 -->
<g id="node10" class="node"><title>31339040</title>
<ellipse fill="#999999" stroke="black" cx="1488" cy="-556" rx="154.149" ry="46.669"/>
<text text-anchor="middle" x="1488" y="-563.4" font-family="Times Roman,serif" font-size="24.00">exp: snormal</text>
<text text-anchor="middle" x="1488" y="-534.4" font-family="Times Roman,serif" font-size="24.00">value: sp:normal</text>
</g>
<!-- 31339040&#45;&gt;33103552 -->
<g id="edge60" class="edge"><title>31339040&#45;&gt;33103552</title>
<path fill="none" stroke="black" d="M1463.81,-602.125C1447.28,-630.388 1423.28,-665.844 1395,-691 1377.84,-706.261 1357.38,-719.667 1336.99,-731.006"/>
<polygon fill="black" stroke="black" points="1335.07,-728.062 1327.95,-735.904 1338.41,-734.217 1335.07,-728.062"/>
</g>
<!-- 31339040&#45;&gt;31861488 -->
<g id="edge62" class="edge"><title>31339040&#45;&gt;31861488</title>
<path fill="none" stroke="black" d="M1412.78,-596.588C1388.14,-609.887 1361.29,-624.371 1338.68,-636.574"/>
<polygon fill="black" stroke="black" points="1336.73,-633.65 1329.59,-641.479 1340.05,-639.81 1336.73,-633.65"/>
</g>
<!-- 30588672&#45;&gt;33103552 -->
<g id="edge66" class="edge"><title>30588672&#45;&gt;33103552</title>
<path fill="none" stroke="black" d="M1164.18,-602.649C1164.1,-629.295 1166.62,-662.892 1177,-691 1180.75,-701.146 1186.13,-711.131 1192.17,-720.465"/>
<polygon fill="black" stroke="black" points="1189.34,-722.54 1197.86,-728.839 1195.13,-718.602 1189.34,-722.54"/>
</g>
<!-- 30588672&#45;&gt;31861488 -->
<g id="edge68" class="edge"><title>30588672&#45;&gt;31861488</title>
<path fill="none" stroke="black" d="M1215.06,-600.02C1227.11,-611.062 1239.82,-622.7 1251.09,-633.028"/>
<polygon fill="black" stroke="black" points="1248.91,-635.772 1258.65,-639.945 1253.64,-630.61 1248.91,-635.772"/>
</g>
<!-- 30881168 -->
<g id="node13" class="node"><title>30881168</title>
<ellipse fill="#e5e5e5" stroke="black" cx="1015" cy="-1365" rx="656.902" ry="46.669"/>
<text text-anchor="middle" x="1015" y="-1372.4" font-family="Times Roman,serif" font-size="24.00">exp: (snormal (branch_exp y (quote (snormal 0.000000)) (quote 5.000000)))</text>
<text text-anchor="middle" x="1015" y="-1343.4" font-family="Times Roman,serif" font-size="24.00">value: 2.001238</text>
</g>
<!-- 39664544 -->
<g id="node26" class="node"><title>39664544</title>
<ellipse fill="#e5e5e5" stroke="black" cx="1106" cy="-1520" rx="149.2" ry="46.669"/>
<text text-anchor="middle" x="1106" y="-1527.4" font-family="Times Roman,serif" font-size="24.00">exp: w</text>
<text text-anchor="middle" x="1106" y="-1498.4" font-family="Times Roman,serif" font-size="24.00">value: 2.001238</text>
</g>
<!-- 30881168&#45;&gt;39664544 -->
<g id="edge56" class="edge"><title>30881168&#45;&gt;39664544</title>
<path fill="none" stroke="black" d="M1042.3,-1411.51C1052.2,-1428.36 1063.47,-1447.56 1073.76,-1465.08"/>
<polygon fill="black" stroke="black" points="1070.95,-1467.21 1079.03,-1474.06 1076.99,-1463.67 1070.95,-1467.21"/>
</g>
<!-- 32857776 -->
<g id="node14" class="node"><title>32857776</title>
<ellipse fill="#e5e5e5" stroke="black" cx="1015" cy="-1256" rx="99.9096" ry="26.163"/>
<text text-anchor="middle" x="1015" y="-1248.9" font-family="Times Roman,serif" font-size="24.00">request: []</text>
</g>
<!-- 32857776&#45;&gt;30881168 -->
<g id="edge44" class="edge"><title>32857776&#45;&gt;30881168</title>
<path fill="none" stroke="black" d="M1015,-1282.11C1015,-1289.98 1015,-1298.95 1015,-1308"/>
<polygon fill="black" stroke="black" points="1011.5,-1308.22 1015,-1318.22 1018.5,-1308.22 1011.5,-1308.22"/>
</g>
<!-- 31983280 -->
<g id="node15" class="node"><title>31983280</title>
<ellipse fill="#e5e5e5" stroke="black" cx="1518" cy="-1147" rx="154.149" ry="46.669"/>
<text text-anchor="middle" x="1518" y="-1154.4" font-family="Times Roman,serif" font-size="24.00">exp: snormal</text>
<text text-anchor="middle" x="1518" y="-1125.4" font-family="Times Roman,serif" font-size="24.00">value: sp:normal</text>
</g>
<!-- 31983280&#45;&gt;30881168 -->
<g id="edge8" class="edge"><title>31983280&#45;&gt;30881168</title>
<path fill="none" stroke="black" d="M1429.81,-1185.22C1346.59,-1221.29 1221.35,-1275.57 1130.25,-1315.05"/>
<polygon fill="black" stroke="black" points="1128.78,-1311.87 1120.99,-1319.06 1131.56,-1318.3 1128.78,-1311.87"/>
</g>
<!-- 31983280&#45;&gt;32857776 -->
<g id="edge10" class="edge"><title>31983280&#45;&gt;32857776</title>
<path fill="none" stroke="black" d="M1409.24,-1180C1391.2,-1185 1372.63,-1189.86 1355,-1194 1273.3,-1213.18 1179.38,-1229.91 1110.98,-1241.14"/>
<polygon fill="black" stroke="black" points="1110.38,-1237.69 1101.08,-1242.76 1111.51,-1244.6 1110.38,-1237.69"/>
</g>
<!-- 30868272 -->
<g id="node16" class="node"><title>30868272</title>
<ellipse fill="#e5e5e5" stroke="black" cx="776" cy="-1147" rx="570.135" ry="46.669"/>
<text text-anchor="middle" x="776" y="-1154.4" font-family="Times Roman,serif" font-size="24.00">exp: (branch_exp y (quote (snormal 0.000000)) (quote 5.000000))</text>
<text text-anchor="middle" x="776" y="-1125.4" font-family="Times Roman,serif" font-size="24.00">value: 0.682989</text>
</g>
<!-- 30868272&#45;&gt;30881168 -->
<g id="edge14" class="edge"><title>30868272&#45;&gt;30881168</title>
<path fill="none" stroke="black" d="M817.383,-1193.41C842.142,-1220.29 874.775,-1254.19 906,-1282 917.439,-1292.19 930.019,-1302.5 942.444,-1312.23"/>
<polygon fill="black" stroke="black" points="940.526,-1315.17 950.573,-1318.54 944.816,-1309.64 940.526,-1315.17"/>
</g>
<!-- 30868272&#45;&gt;32857776 -->
<g id="edge16" class="edge"><title>30868272&#45;&gt;32857776</title>
<path fill="none" stroke="black" d="M876.665,-1192.91C903.694,-1205.24 932.042,-1218.17 955.989,-1229.09"/>
<polygon fill="black" stroke="black" points="954.729,-1232.36 965.279,-1233.32 957.633,-1225.99 954.729,-1232.36"/>
</g>
<!-- 31341232 -->
<g id="node17" class="node"><title>31341232</title>
<ellipse fill="#e5e5e5" stroke="black" cx="776" cy="-1038" rx="444.77" ry="26.163"/>
<text text-anchor="middle" x="776" y="-1030.9" font-family="Times Roman,serif" font-size="24.00">request: [(31341232, (snormal 0.000000), &lt;env&gt;)]</text>
</g>
<!-- 31341232&#45;&gt;30868272 -->
<g id="edge38" class="edge"><title>31341232&#45;&gt;30868272</title>
<path fill="none" stroke="black" d="M776,-1064.11C776,-1071.98 776,-1080.95 776,-1090"/>
<polygon fill="black" stroke="black" points="772.5,-1090.22 776,-1100.22 779.5,-1090.22 772.5,-1090.22"/>
</g>
<!-- 38700016 -->
<g id="node28" class="node"><title>38700016</title>
<ellipse fill="#e5e5e5" stroke="black" cx="1980" cy="-401" rx="219.91" ry="46.669"/>
<text text-anchor="middle" x="1980" y="-408.4" font-family="Times Roman,serif" font-size="24.00">exp: (snormal 0.000000)</text>
<text text-anchor="middle" x="1980" y="-379.4" font-family="Times Roman,serif" font-size="24.00">value: 0.682989</text>
</g>
<!-- 31341232&#45;&gt;38700016 -->
<g id="edge42" class="edge"><title>31341232&#45;&gt;38700016</title>
<path fill="none" stroke="black" stroke-dasharray="1,5" d="M1085.01,-1019.26C1345.12,-1003.12 1675.78,-981.565 1681,-976 1683.37,-973.477 1680.75,-730.225 1682,-727 1727.3,-610.137 1836.23,-509.608 1909.08,-452.194"/>
<polygon fill="black" stroke="black" points="1911.6,-454.662 1917.33,-445.75 1907.3,-449.144 1911.6,-454.662"/>
</g>
<!-- 30415904 -->
<g id="node18" class="node"><title>30415904</title>
<ellipse fill="#e5e5e5" stroke="black" cx="1518" cy="-929" rx="154.149" ry="46.669"/>
<text text-anchor="middle" x="1518" y="-936.4" font-family="Times Roman,serif" font-size="24.00">exp: branch_exp</text>
<text text-anchor="middle" x="1518" y="-907.4" font-family="Times Roman,serif" font-size="24.00">value: sp:branch</text>
</g>
<!-- 30415904&#45;&gt;30868272 -->
<g id="edge18" class="edge"><title>30415904&#45;&gt;30868272</title>
<path fill="none" stroke="black" d="M1447.11,-970.359C1392.46,-1000.54 1314.12,-1040.17 1241,-1064 1189.99,-1080.63 1134.68,-1094.18 1080.6,-1105.13"/>
<polygon fill="black" stroke="black" points="1079.63,-1101.76 1070.51,-1107.15 1081.01,-1108.62 1079.63,-1101.76"/>
</g>
<!-- 30415904&#45;&gt;31341232 -->
<g id="edge20" class="edge"><title>30415904&#45;&gt;31341232</title>
<path fill="none" stroke="black" d="M1411.24,-962.653C1392.63,-967.694 1373.35,-972.4 1355,-976 1262.15,-994.213 1159.81,-1007.4 1067.32,-1016.79"/>
<polygon fill="black" stroke="black" points="1066.85,-1013.32 1057.25,-1017.8 1067.55,-1020.29 1066.85,-1013.32"/>
</g>
<!-- 37271520&#45;&gt;30868272 -->
<g id="edge24" class="edge"><title>37271520&#45;&gt;30868272</title>
<path fill="none" stroke="black" d="M1223.39,-974.65C1239.27,-1003.08 1250.93,-1038.89 1230,-1064 1214.62,-1082.45 1181.54,-1096.81 1139.9,-1107.98"/>
<polygon fill="black" stroke="black" points="1138.82,-1104.65 1130.02,-1110.54 1140.57,-1111.42 1138.82,-1104.65"/>
</g>
<!-- 37271520&#45;&gt;31341232 -->
<g id="edge26" class="edge"><title>37271520&#45;&gt;31341232</title>
<path fill="none" stroke="black" d="M1079.56,-961.536C1062,-966.489 1044.03,-971.459 1027,-976 983.042,-987.724 934.547,-999.883 891.998,-1010.29"/>
<polygon fill="black" stroke="black" points="891.053,-1006.92 882.168,-1012.69 892.713,-1013.72 891.053,-1006.92"/>
</g>
<!-- 31328816 -->
<g id="node20" class="node"><title>31328816</title>
<ellipse fill="#e5e5e5" stroke="black" cx="731" cy="-929" rx="287.085" ry="46.669"/>
<text text-anchor="middle" x="731" y="-936.4" font-family="Times Roman,serif" font-size="24.00">exp: (quote (snormal 0.000000))</text>
<text text-anchor="middle" x="731" y="-907.4" font-family="Times Roman,serif" font-size="24.00">value: (snormal 0.000000)</text>
</g>
<!-- 31328816&#45;&gt;30868272 -->
<g id="edge30" class="edge"><title>31328816&#45;&gt;30868272</title>
<path fill="none" stroke="black" d="M535.532,-963.119C433.997,-981.787 329.423,-1002.92 322,-1012 307.373,-1029.89 307.2,-1046.25 322,-1064 337.382,-1082.45 370.46,-1096.81 412.102,-1107.98"/>
<polygon fill="black" stroke="black" points="411.427,-1111.42 421.985,-1110.54 413.179,-1104.65 411.427,-1111.42"/>
</g>
<!-- 31328816&#45;&gt;31341232 -->
<g id="edge32" class="edge"><title>31328816&#45;&gt;31341232</title>
<path fill="none" stroke="black" d="M750.215,-975.542C753.929,-984.539 757.765,-993.831 761.307,-1002.41"/>
<polygon fill="black" stroke="black" points="758.107,-1003.83 765.158,-1011.74 764.577,-1001.16 758.107,-1003.83"/>
</g>
<!-- 34036272 -->
<g id="node21" class="node"><title>34036272</title>
<ellipse fill="#e5e5e5" stroke="black" cx="225" cy="-929" rx="200.818" ry="46.669"/>
<text text-anchor="middle" x="225" y="-936.4" font-family="Times Roman,serif" font-size="24.00">exp: (quote 5.000000)</text>
<text text-anchor="middle" x="225" y="-907.4" font-family="Times Roman,serif" font-size="24.00">value: 5.000000</text>
</g>
<!-- 34036272&#45;&gt;30868272 -->
<g id="edge34" class="edge"><title>34036272&#45;&gt;30868272</title>
<path fill="none" stroke="black" d="M241.584,-975.641C254.69,-1005.61 275.994,-1042.79 307,-1064 332.159,-1081.21 381.733,-1095.4 439.57,-1106.87"/>
<polygon fill="black" stroke="black" points="439.204,-1110.36 449.688,-1108.83 440.538,-1103.49 439.204,-1110.36"/>
</g>
<!-- 34036272&#45;&gt;31341232 -->
<g id="edge36" class="edge"><title>34036272&#45;&gt;31341232</title>
<path fill="none" stroke="black" d="M367.733,-961.757C390.211,-966.681 413.214,-971.583 435,-976 496.322,-988.432 564.089,-1000.99 622.947,-1011.53"/>
<polygon fill="black" stroke="black" points="622.61,-1015.02 633.07,-1013.34 623.841,-1008.13 622.61,-1015.02"/>
</g>
<!-- 31082928 -->
<g id="node23" class="node"><title>31082928</title>
<ellipse fill="#e5e5e5" stroke="black" cx="1276" cy="-1738" rx="154.149" ry="46.669"/>
<text text-anchor="middle" x="1276" y="-1745.4" font-family="Times Roman,serif" font-size="24.00">exp: (snormal w)</text>
<text text-anchor="middle" x="1276" y="-1716.4" font-family="Times Roman,serif" font-size="24.00">value: 0.830295</text>
</g>
<!-- 33936992 -->
<g id="node24" class="node"><title>33936992</title>
<ellipse fill="#e5e5e5" stroke="black" cx="1276" cy="-1629" rx="99.9096" ry="26.163"/>
<text text-anchor="middle" x="1276" y="-1621.9" font-family="Times Roman,serif" font-size="24.00">request: []</text>
</g>
<!-- 33936992&#45;&gt;31082928 -->
<g id="edge58" class="edge"><title>33936992&#45;&gt;31082928</title>
<path fill="none" stroke="black" d="M1276,-1655.11C1276,-1662.98 1276,-1671.95 1276,-1681"/>
<polygon fill="black" stroke="black" points="1272.5,-1681.22 1276,-1691.22 1279.5,-1681.22 1272.5,-1681.22"/>
</g>
<!-- 31055760 -->
<g id="node25" class="node"><title>31055760</title>
<ellipse fill="#e5e5e5" stroke="black" cx="1427" cy="-1520" rx="154.149" ry="46.669"/>
<text text-anchor="middle" x="1427" y="-1527.4" font-family="Times Roman,serif" font-size="24.00">exp: snormal</text>
<text text-anchor="middle" x="1427" y="-1498.4" font-family="Times Roman,serif" font-size="24.00">value: sp:normal</text>
</g>
<!-- 31055760&#45;&gt;31082928 -->
<g id="edge46" class="edge"><title>31055760&#45;&gt;31082928</title>
<path fill="none" stroke="black" d="M1419.86,-1566.6C1413.93,-1594.19 1403.37,-1628.76 1385,-1655 1376.1,-1667.71 1364.67,-1679.33 1352.56,-1689.59"/>
<polygon fill="black" stroke="black" points="1350.07,-1687.1 1344.53,-1696.13 1354.49,-1692.53 1350.07,-1687.1"/>
</g>
<!-- 31055760&#45;&gt;33936992 -->
<g id="edge48" class="edge"><title>31055760&#45;&gt;33936992</title>
<path fill="none" stroke="black" d="M1367.32,-1563.08C1350.91,-1574.93 1333.45,-1587.53 1318.24,-1598.51"/>
<polygon fill="black" stroke="black" points="1316.1,-1595.74 1310.04,-1604.43 1320.2,-1601.41 1316.1,-1595.74"/>
</g>
<!-- 39664544&#45;&gt;31082928 -->
<g id="edge52" class="edge"><title>39664544&#45;&gt;31082928</title>
<path fill="none" stroke="black" d="M1120.54,-1566.59C1130.66,-1594.17 1146.1,-1628.74 1167,-1655 1176.94,-1667.48 1189.15,-1679.12 1201.76,-1689.51"/>
<polygon fill="black" stroke="black" points="1199.65,-1692.3 1209.65,-1695.8 1204.02,-1686.83 1199.65,-1692.3"/>
</g>
<!-- 39664544&#45;&gt;33936992 -->
<g id="edge54" class="edge"><title>39664544&#45;&gt;33936992</title>
<path fill="none" stroke="black" d="M1171.24,-1561.83C1190.71,-1574.32 1211.65,-1587.74 1229.65,-1599.28"/>
<polygon fill="black" stroke="black" points="1227.92,-1602.33 1238.23,-1604.78 1231.7,-1596.44 1227.92,-1602.33"/>
</g>
<!-- 38700016&#45;&gt;30868272 -->
<g id="edge40" class="edge"><title>38700016&#45;&gt;30868272</title>
<path fill="none" stroke="black" d="M1966.82,-447.784C1953.23,-500.224 1934,-588.003 1934,-665 1934,-665 1934,-665 1934,-929 1934,-1009.49 1496.32,-1073.41 1159.12,-1110.71"/>
<polygon fill="black" stroke="black" points="1158.73,-1107.23 1149.17,-1111.8 1159.5,-1114.19 1158.73,-1107.23"/>
</g>
<!-- 33092592 -->
<g id="node29" class="node"><title>33092592</title>
<ellipse fill="#e5e5e5" stroke="black" cx="2003" cy="-292" rx="99.9096" ry="26.163"/>
<text text-anchor="middle" x="2003" y="-284.9" font-family="Times Roman,serif" font-size="24.00">request: []</text>
</g>
<!-- 33092592&#45;&gt;38700016 -->
<g id="edge96" class="edge"><title>33092592&#45;&gt;38700016</title>
<path fill="none" stroke="black" d="M1997.49,-318.108C1995.81,-326.064 1993.9,-335.139 1991.96,-344.297"/>
<polygon fill="black" stroke="black" points="1988.51,-343.711 1989.87,-354.218 1995.36,-345.156 1988.51,-343.711"/>
</g>
<!-- 36919568 -->
<g id="node30" class="node"><title>36919568</title>
<ellipse fill="#e5e5e5" stroke="black" cx="2205" cy="-183" rx="154.149" ry="46.669"/>
<text text-anchor="middle" x="2205" y="-190.4" font-family="Times Roman,serif" font-size="24.00">exp: snormal</text>
<text text-anchor="middle" x="2205" y="-161.4" font-family="Times Roman,serif" font-size="24.00">value: sp:normal</text>
</g>
<!-- 36919568&#45;&gt;38700016 -->
<g id="edge86" class="edge"><title>36919568&#45;&gt;38700016</title>
<path fill="none" stroke="black" d="M2179.76,-229.035C2162.99,-256.918 2139.12,-291.998 2112,-318 2099.14,-330.331 2084.17,-341.807 2069.02,-352.053"/>
<polygon fill="black" stroke="black" points="2067.02,-349.184 2060.6,-357.617 2070.87,-355.025 2067.02,-349.184"/>
</g>
<!-- 36919568&#45;&gt;33092592 -->
<g id="edge88" class="edge"><title>36919568&#45;&gt;33092592</title>
<path fill="none" stroke="black" d="M2129.78,-223.588C2105.14,-236.887 2078.29,-251.371 2055.68,-263.574"/>
<polygon fill="black" stroke="black" points="2053.73,-260.65 2046.59,-268.479 2057.05,-266.81 2053.73,-260.65"/>
</g>
<!-- 29656560 -->
<g id="node31" class="node"><title>29656560</title>
<ellipse fill="#e5e5e5" stroke="black" cx="1884" cy="-183" rx="149.2" ry="46.669"/>
<text text-anchor="middle" x="1884" y="-190.4" font-family="Times Roman,serif" font-size="24.00">exp: 0.000000</text>
<text text-anchor="middle" x="1884" y="-161.4" font-family="Times Roman,serif" font-size="24.00">value: 0.000000</text>
</g>
<!-- 29656560&#45;&gt;38700016 -->
<g id="edge92" class="edge"><title>29656560&#45;&gt;38700016</title>
<path fill="none" stroke="black" d="M1879.43,-229.758C1878.71,-256.751 1881.18,-290.658 1894,-318 1899.09,-328.861 1906.27,-339.049 1914.34,-348.315"/>
<polygon fill="black" stroke="black" points="1911.94,-350.885 1921.29,-355.876 1917.1,-346.146 1911.94,-350.885"/>
</g>
<!-- 29656560&#45;&gt;33092592 -->
<g id="edge94" class="edge"><title>29656560&#45;&gt;33092592</title>
<path fill="none" stroke="black" d="M1932.06,-227.02C1944.11,-238.062 1956.82,-249.7 1968.09,-260.028"/>
<polygon fill="black" stroke="black" points="1965.91,-262.772 1975.65,-266.945 1970.64,-257.61 1965.91,-262.772"/>
</g>
<!-- 37203008 -->
<g id="node34" class="node"><title>37203008</title>
<ellipse fill="none" stroke="black" cx="1707" cy="-19" rx="62.9325" ry="18.3848"/>
<text text-anchor="middle" x="1707" y="-15.4" font-family="Times Roman,serif" font-size="14.00">37203008</text>
</g>
<!-- 37203008&#45;&gt;37220848 -->
<g id="edge78" class="edge"><title>37203008&#45;&gt;37220848</title>
<path fill="none" stroke="black" d="M1650.02,-26.8981C1631.18,-30.9495 1610.56,-37.0045 1593,-46 1551.45,-67.2887 1511.77,-101.761 1482.57,-130.8"/>
<polygon fill="black" stroke="black" points="1479.93,-128.488 1475.38,-138.054 1484.9,-133.417 1479.93,-128.488"/>
</g>
<!-- 37203008&#45;&gt;31339040 -->
<g id="edge64" class="edge"><title>37203008&#45;&gt;31339040</title>
<path fill="none" stroke="black" d="M1696.71,-37.3066C1695.34,-40.1632 1694.05,-43.1227 1693,-46 1629.04,-221.46 1695.98,-295.203 1601,-456 1589.95,-474.705 1574.2,-491.786 1557.96,-506.331"/>
<polygon fill="black" stroke="black" points="1555.23,-504.068 1549.96,-513.264 1559.81,-509.357 1555.23,-504.068"/>
</g>
<!-- 37203008&#45;&gt;31983280 -->
<g id="edge12" class="edge"><title>37203008&#45;&gt;31983280</title>
<path fill="none" stroke="black" d="M1705.44,-37.5914C1700.82,-98.4669 1689.46,-297.033 1723,-456 1758.63,-624.87 1893.64,-668.182 1831,-829 1784.88,-947.396 1669.37,-1044.62 1592.32,-1099.2"/>
<polygon fill="black" stroke="black" points="1590.23,-1096.39 1584.05,-1104.99 1594.25,-1102.12 1590.23,-1096.39"/>
</g>
<!-- 37203008&#45;&gt;31055760 -->
<g id="edge50" class="edge"><title>37203008&#45;&gt;31055760</title>
<path fill="none" stroke="black" d="M1770.07,-19.3089C1931.73,-20.3996 2349.71,-25.2246 2371,-46 2449.41,-122.526 2387,-182.436 2387,-292 2387,-292 2387,-292 2387,-1256 2387,-1419.81 1860.79,-1485.77 1587.54,-1508.98"/>
<polygon fill="black" stroke="black" points="1587.2,-1505.5 1577.53,-1509.82 1587.79,-1512.47 1587.2,-1505.5"/>
</g>
<!-- 37203008&#45;&gt;36919568 -->
<g id="edge90" class="edge"><title>37203008&#45;&gt;36919568</title>
<path fill="none" stroke="black" d="M1769.38,-21.9736C1859.35,-26.5741 2017.51,-35.942 2042,-46 2087.11,-64.5267 2129.02,-100.341 2159.04,-130.705"/>
<polygon fill="black" stroke="black" points="2156.54,-133.161 2166.02,-137.891 2161.56,-128.281 2156.54,-133.161"/>
</g>
<!-- 37283536 -->
<g id="node40" class="node"><title>37283536</title>
<ellipse fill="none" stroke="black" cx="1759" cy="-774" rx="62.9325" ry="18.3848"/>
<text text-anchor="middle" x="1759" y="-770.4" font-family="Times Roman,serif" font-size="14.00">37283536</text>
</g>
<!-- 37283536&#45;&gt;30415904 -->
<g id="edge22" class="edge"><title>37283536&#45;&gt;30415904</title>
<path fill="none" stroke="black" d="M1732.75,-790.883C1699.26,-812.422 1639.95,-850.569 1592.13,-881.323"/>
<polygon fill="black" stroke="black" points="1590.17,-878.424 1583.65,-886.778 1593.95,-884.312 1590.17,-878.424"/>
</g>
</g>
</svg>
