<?xml version="1.0" encoding="UTF-8" standalone="no"?>
<!DOCTYPE svg PUBLIC "-//W3C//DTD SVG 1.1//EN"
 "http://www.w3.org/Graphics/SVG/1.1/DTD/svg11.dtd">
<!-- Generated by graphviz version 2.26.3 (20100126.1600)
 -->
<!-- Title: _anonymous_0 Pages: 1 -->
<svg width="299pt" height="980pt"
 viewBox="0.00 0.00 299.00 980.00" xmlns="http://www.w3.org/2000/svg" xmlns:xlink="http://www.w3.org/1999/xlink">
<g id="graph1" class="graph" transform="scale(1 1) rotate(0) translate(4 976)">
<title>_anonymous_0</title>
<polygon fill="white" stroke="white" points="-4,5 -4,-976 296,-976 296,5 -4,5"/>
<!-- 21616208 -->
<g id="node3" class="node"><title>21616208</title>
<ellipse fill="#e5e5e5" stroke="black" cx="165" cy="-162" rx="27" ry="18"/>
</g>
<!-- 24988336 -->
<g id="node11" class="node"><title>24988336</title>
<ellipse fill="#999999" stroke="black" cx="165" cy="-234" rx="27" ry="18"/>
</g>
<!-- 21616208&#45;&gt;24988336 -->
<g id="edge55" class="edge"><title>21616208&#45;&gt;24988336</title>
<path fill="none" stroke="black" d="M165,-180.169C165,-187.869 165,-197.026 165,-205.583"/>
<polygon fill="black" stroke="black" points="161.5,-205.587 165,-215.587 168.5,-205.587 161.5,-205.587"/>
</g>
<!-- 20391696 -->
<g id="node4" class="node"><title>20391696</title>
<ellipse fill="#e5e5e5" stroke="black" cx="165" cy="-90" rx="27" ry="18"/>
</g>
<!-- 20391696&#45;&gt;21616208 -->
<g id="edge15" class="edge"><title>20391696&#45;&gt;21616208</title>
<path fill="none" stroke="black" d="M165,-108.169C165,-115.869 165,-125.026 165,-133.583"/>
<polygon fill="black" stroke="black" points="161.5,-133.587 165,-143.587 168.5,-133.587 161.5,-133.587"/>
</g>
<!-- 19076864 -->
<g id="node5" class="node"><title>19076864</title>
<ellipse fill="#e5e5e5" stroke="black" cx="129" cy="-18" rx="27" ry="18"/>
</g>
<!-- 19076864&#45;&gt;21616208 -->
<g id="edge7" class="edge"><title>19076864&#45;&gt;21616208</title>
<path fill="none" stroke="black" d="M125.988,-36.0363C123.59,-54.5334 121.71,-83.9232 129,-108 132.266,-118.787 138.476,-129.389 144.831,-138.304"/>
<polygon fill="black" stroke="black" points="142.049,-140.427 150.877,-146.284 147.628,-136.2 142.049,-140.427"/>
</g>
<!-- 19076864&#45;&gt;20391696 -->
<g id="edge9" class="edge"><title>19076864&#45;&gt;20391696</title>
<path fill="none" stroke="black" d="M137.715,-35.4292C141.96,-43.9193 147.154,-54.3071 151.866,-63.7326"/>
<polygon fill="black" stroke="black" points="148.763,-65.3523 156.366,-72.7313 155.024,-62.2218 148.763,-65.3523"/>
</g>
<!-- 28719440 -->
<g id="node6" class="node"><title>28719440</title>
<ellipse fill="#e5e5e5" stroke="black" cx="210" cy="-18" rx="27" ry="18"/>
</g>
<!-- 28719440&#45;&gt;21616208 -->
<g id="edge11" class="edge"><title>28719440&#45;&gt;21616208</title>
<path fill="none" stroke="black" d="M210.723,-36.1499C210.885,-54.7374 209.522,-84.1981 201,-108 197.24,-118.502 191.004,-128.957 184.77,-137.831"/>
<polygon fill="black" stroke="black" points="181.768,-136.002 178.628,-146.121 187.393,-140.169 181.768,-136.002"/>
</g>
<!-- 28719440&#45;&gt;20391696 -->
<g id="edge13" class="edge"><title>28719440&#45;&gt;20391696</title>
<path fill="none" stroke="black" d="M199.563,-34.6992C194.077,-43.4776 187.231,-54.4297 181.084,-64.2661"/>
<polygon fill="black" stroke="black" points="178.025,-62.5564 175.693,-72.8914 183.961,-66.2664 178.025,-62.5564"/>
</g>
<!-- 23610064 -->
<g id="node8" class="node"><title>23610064</title>
<ellipse fill="firebrick" stroke="black" cx="120" cy="-378" rx="27" ry="18"/>
</g>
<!-- 21571136 -->
<g id="node19" class="node"><title>21571136</title>
<ellipse fill="gold" stroke="black" cx="120" cy="-450" rx="27" ry="18"/>
</g>
<!-- 23610064&#45;&gt;21571136 -->
<g id="edge33" class="edge"><title>23610064&#45;&gt;21571136</title>
<path fill="none" stroke="black" d="M120,-396.169C120,-403.869 120,-413.026 120,-421.583"/>
<polygon fill="black" stroke="black" points="116.5,-421.587 120,-431.587 123.5,-421.587 116.5,-421.587"/>
</g>
<!-- 24940288 -->
<g id="node9" class="node"><title>24940288</title>
<ellipse fill="#999999" stroke="black" cx="120" cy="-306" rx="27" ry="18"/>
</g>
<!-- 24940288&#45;&gt;23610064 -->
<g id="edge57" class="edge"><title>24940288&#45;&gt;23610064</title>
<path fill="none" stroke="black" d="M120,-324.169C120,-331.869 120,-341.026 120,-349.583"/>
<polygon fill="black" stroke="black" points="116.5,-349.587 120,-359.587 123.5,-349.587 116.5,-349.587"/>
</g>
<!-- 25014224 -->
<g id="node10" class="node"><title>25014224</title>
<ellipse fill="#999999" stroke="black" cx="74" cy="-234" rx="27" ry="18"/>
</g>
<!-- 25014224&#45;&gt;23610064 -->
<g id="edge47" class="edge"><title>25014224&#45;&gt;23610064</title>
<path fill="none" stroke="black" d="M73.5302,-252.158C73.6151,-270.752 75.3368,-300.218 84,-324 87.8179,-334.481 94.0667,-344.931 100.295,-353.807"/>
<polygon fill="black" stroke="black" points="97.6676,-356.14 106.426,-362.101 103.297,-351.979 97.6676,-356.14"/>
</g>
<!-- 25014224&#45;&gt;24940288 -->
<g id="edge49" class="edge"><title>25014224&#45;&gt;24940288</title>
<path fill="none" stroke="black" d="M84.6689,-250.699C90.3586,-259.605 97.4777,-270.748 103.832,-280.693"/>
<polygon fill="black" stroke="black" points="101.056,-282.849 109.389,-289.391 106.954,-279.08 101.056,-282.849"/>
</g>
<!-- 24988336&#45;&gt;23610064 -->
<g id="edge51" class="edge"><title>24988336&#45;&gt;23610064</title>
<path fill="none" stroke="black" d="M165.723,-252.15C165.885,-270.737 164.522,-300.198 156,-324 152.24,-334.502 146.004,-344.957 139.77,-353.831"/>
<polygon fill="black" stroke="black" points="136.768,-352.002 133.628,-362.121 142.393,-356.169 136.768,-352.002"/>
</g>
<!-- 24988336&#45;&gt;24940288 -->
<g id="edge53" class="edge"><title>24988336&#45;&gt;24940288</title>
<path fill="none" stroke="black" d="M154.563,-250.699C149.077,-259.478 142.231,-270.43 136.084,-280.266"/>
<polygon fill="black" stroke="black" points="133.025,-278.556 130.693,-288.891 138.961,-282.266 133.025,-278.556"/>
</g>
<!-- 23304768 -->
<g id="node13" class="node"><title>23304768</title>
<ellipse fill="#63b8ff" stroke="black" cx="118" cy="-738" rx="27" ry="18"/>
</g>
<!-- 21586576 -->
<g id="node26" class="node"><title>21586576</title>
<ellipse fill="#e5e5e5" stroke="black" cx="118" cy="-810" rx="27" ry="18"/>
</g>
<!-- 23304768&#45;&gt;21586576 -->
<g id="edge67" class="edge"><title>23304768&#45;&gt;21586576</title>
<path fill="none" stroke="black" d="M118,-756.169C118,-763.869 118,-773.026 118,-781.583"/>
<polygon fill="black" stroke="black" points="114.5,-781.587 118,-791.587 121.5,-781.587 114.5,-781.587"/>
</g>
<!-- 24625888 -->
<g id="node14" class="node"><title>24625888</title>
<ellipse fill="#63b8ff" stroke="black" cx="118" cy="-666" rx="27" ry="18"/>
</g>
<!-- 24625888&#45;&gt;23304768 -->
<g id="edge45" class="edge"><title>24625888&#45;&gt;23304768</title>
<path fill="none" stroke="black" d="M118,-684.169C118,-691.869 118,-701.026 118,-709.583"/>
<polygon fill="black" stroke="black" points="114.5,-709.587 118,-719.587 121.5,-709.587 114.5,-709.587"/>
</g>
<!-- 23710592 -->
<g id="node15" class="node"><title>23710592</title>
<ellipse fill="#999999" stroke="black" cx="72" cy="-594" rx="27" ry="18"/>
</g>
<!-- 23710592&#45;&gt;23304768 -->
<g id="edge17" class="edge"><title>23710592&#45;&gt;23304768</title>
<path fill="none" stroke="black" d="M71.5302,-612.158C71.6151,-630.752 73.3368,-660.218 82,-684 85.8179,-694.481 92.0667,-704.931 98.2954,-713.807"/>
<polygon fill="black" stroke="black" points="95.6676,-716.14 104.426,-722.101 101.297,-711.979 95.6676,-716.14"/>
</g>
<!-- 23710592&#45;&gt;24625888 -->
<g id="edge19" class="edge"><title>23710592&#45;&gt;24625888</title>
<path fill="none" stroke="black" d="M82.6689,-610.699C88.3586,-619.605 95.4777,-630.748 101.832,-640.693"/>
<polygon fill="black" stroke="black" points="99.0555,-642.849 107.389,-649.391 104.954,-639.08 99.0555,-642.849"/>
</g>
<!-- 24939776 -->
<g id="node16" class="node"><title>24939776</title>
<ellipse fill="gold" stroke="black" cx="163" cy="-594" rx="27" ry="18"/>
</g>
<!-- 24939776&#45;&gt;23304768 -->
<g id="edge21" class="edge"><title>24939776&#45;&gt;23304768</title>
<path fill="none" stroke="black" d="M163.723,-612.15C163.885,-630.737 162.522,-660.198 154,-684 150.24,-694.502 144.004,-704.957 137.77,-713.831"/>
<polygon fill="black" stroke="black" points="134.768,-712.002 131.628,-722.121 140.393,-716.169 134.768,-712.002"/>
</g>
<!-- 24939776&#45;&gt;24625888 -->
<g id="edge23" class="edge"><title>24939776&#45;&gt;24625888</title>
<path fill="none" stroke="black" d="M152.563,-610.699C147.077,-619.478 140.231,-630.43 134.084,-640.266"/>
<polygon fill="black" stroke="black" points="131.025,-638.556 128.693,-648.891 136.961,-642.266 131.025,-638.556"/>
</g>
<!-- 22582864 -->
<g id="node17" class="node"><title>22582864</title>
<ellipse fill="gold" stroke="black" cx="163" cy="-522" rx="27" ry="18"/>
</g>
<!-- 22582864&#45;&gt;24939776 -->
<g id="edge43" class="edge"><title>22582864&#45;&gt;24939776</title>
<path fill="none" stroke="black" d="M163,-540.169C163,-547.869 163,-557.026 163,-565.583"/>
<polygon fill="black" stroke="black" points="159.5,-565.587 163,-575.587 166.5,-565.587 159.5,-565.587"/>
</g>
<!-- 21801008 -->
<g id="node18" class="node"><title>21801008</title>
<ellipse fill="#999999" stroke="black" cx="48" cy="-450" rx="27" ry="18"/>
</g>
<!-- 21801008&#45;&gt;24939776 -->
<g id="edge25" class="edge"><title>21801008&#45;&gt;24939776</title>
<path fill="none" stroke="black" d="M59.687,-466.583C72.7405,-484.892 94.708,-515.075 115,-540 123.414,-550.335 133.112,-561.393 141.579,-570.794"/>
<polygon fill="black" stroke="black" points="139.033,-573.197 148.347,-578.248 144.216,-568.492 139.033,-573.197"/>
</g>
<!-- 21801008&#45;&gt;22582864 -->
<g id="edge27" class="edge"><title>21801008&#45;&gt;22582864</title>
<path fill="none" stroke="black" d="M67.7692,-462.377C86.1178,-473.865 113.644,-491.099 134.391,-504.088"/>
<polygon fill="black" stroke="black" points="132.771,-507.203 143.104,-509.543 136.485,-501.27 132.771,-507.203"/>
</g>
<!-- 21571136&#45;&gt;24939776 -->
<g id="edge29" class="edge"><title>21571136&#45;&gt;24939776</title>
<path fill="none" stroke="black" d="M118.771,-468.131C118.113,-486.703 118.757,-516.152 127,-540 130.644,-550.543 136.854,-561.007 143.099,-569.877"/>
<polygon fill="black" stroke="black" points="140.485,-572.227 149.264,-578.159 146.101,-568.047 140.485,-572.227"/>
</g>
<!-- 21571136&#45;&gt;22582864 -->
<g id="edge31" class="edge"><title>21571136&#45;&gt;22582864</title>
<path fill="none" stroke="black" d="M130.19,-467.063C135.385,-475.761 141.811,-486.52 147.595,-496.205"/>
<polygon fill="black" stroke="black" points="144.75,-498.269 152.883,-505.059 150.76,-494.679 144.75,-498.269"/>
</g>
<!-- 22579328 -->
<g id="node20" class="node"><title>22579328</title>
<ellipse fill="#999999" stroke="black" cx="192" cy="-450" rx="27" ry="18"/>
</g>
<!-- 22579328&#45;&gt;24939776 -->
<g id="edge35" class="edge"><title>22579328&#45;&gt;24939776</title>
<path fill="none" stroke="black" d="M197.197,-468.006C201.658,-486.479 206.312,-515.85 199,-540 195.734,-550.787 189.524,-561.389 183.169,-570.304"/>
<polygon fill="black" stroke="black" points="180.372,-568.2 177.123,-578.284 185.951,-572.427 180.372,-568.2"/>
</g>
<!-- 22579328&#45;&gt;22582864 -->
<g id="edge37" class="edge"><title>22579328&#45;&gt;22582864</title>
<path fill="none" stroke="black" d="M184.98,-467.429C181.656,-475.681 177.61,-485.726 173.9,-494.938"/>
<polygon fill="black" stroke="black" points="170.546,-493.898 170.056,-504.482 177.039,-496.514 170.546,-493.898"/>
</g>
<!-- 22672608 -->
<g id="node21" class="node"><title>22672608</title>
<ellipse fill="#999999" stroke="black" cx="264" cy="-450" rx="27" ry="18"/>
</g>
<!-- 22672608&#45;&gt;24939776 -->
<g id="edge39" class="edge"><title>22672608&#45;&gt;24939776</title>
<path fill="none" stroke="black" d="M255.978,-467.352C246.966,-486.064 231.317,-516.348 214,-540 205.705,-551.33 195.24,-562.791 185.951,-572.222"/>
<polygon fill="black" stroke="black" points="183.445,-569.779 178.817,-579.31 188.378,-574.744 183.445,-569.779"/>
</g>
<!-- 22672608&#45;&gt;22582864 -->
<g id="edge41" class="edge"><title>22672608&#45;&gt;22582864</title>
<path fill="none" stroke="black" d="M245.475,-463.206C229.912,-474.3 207.466,-490.301 189.919,-502.81"/>
<polygon fill="black" stroke="black" points="187.861,-499.979 181.75,-508.634 191.924,-505.679 187.861,-499.979"/>
</g>
<!-- 26590768 -->
<g id="node23" class="node"><title>26590768</title>
<ellipse fill="#e5e5e5" stroke="black" cx="73" cy="-954" rx="27" ry="18"/>
</g>
<!-- 21600256 -->
<g id="node24" class="node"><title>21600256</title>
<ellipse fill="#e5e5e5" stroke="black" cx="73" cy="-882" rx="27" ry="18"/>
</g>
<!-- 21600256&#45;&gt;26590768 -->
<g id="edge69" class="edge"><title>21600256&#45;&gt;26590768</title>
<path fill="none" stroke="black" d="M73,-900.169C73,-907.869 73,-917.026 73,-925.583"/>
<polygon fill="black" stroke="black" points="69.5001,-925.587 73,-935.587 76.5001,-925.587 69.5001,-925.587"/>
</g>
<!-- 24603856 -->
<g id="node25" class="node"><title>24603856</title>
<ellipse fill="#e5e5e5" stroke="black" cx="27" cy="-810" rx="27" ry="18"/>
</g>
<!-- 24603856&#45;&gt;26590768 -->
<g id="edge59" class="edge"><title>24603856&#45;&gt;26590768</title>
<path fill="none" stroke="black" d="M26.5302,-828.158C26.6151,-846.752 28.3368,-876.218 37,-900 40.8179,-910.481 47.0667,-920.931 53.2954,-929.807"/>
<polygon fill="black" stroke="black" points="50.6676,-932.14 59.4265,-938.101 56.2966,-927.979 50.6676,-932.14"/>
</g>
<!-- 24603856&#45;&gt;21600256 -->
<g id="edge61" class="edge"><title>24603856&#45;&gt;21600256</title>
<path fill="none" stroke="black" d="M37.6689,-826.699C43.3586,-835.605 50.4777,-846.748 56.8316,-856.693"/>
<polygon fill="black" stroke="black" points="54.0555,-858.849 62.3889,-865.391 59.9544,-855.08 54.0555,-858.849"/>
</g>
<!-- 21586576&#45;&gt;26590768 -->
<g id="edge63" class="edge"><title>21586576&#45;&gt;26590768</title>
<path fill="none" stroke="black" d="M118.723,-828.15C118.885,-846.737 117.522,-876.198 109,-900 105.24,-910.502 99.004,-920.957 92.7697,-929.831"/>
<polygon fill="black" stroke="black" points="89.7685,-928.002 86.6276,-938.121 95.393,-932.169 89.7685,-928.002"/>
</g>
<!-- 21586576&#45;&gt;21600256 -->
<g id="edge65" class="edge"><title>21586576&#45;&gt;21600256</title>
<path fill="none" stroke="black" d="M107.563,-826.699C102.077,-835.478 95.2314,-846.43 89.0837,-856.266"/>
<polygon fill="black" stroke="black" points="86.0249,-854.556 83.6929,-864.891 91.9609,-858.266 86.0249,-854.556"/>
</g>
</g>
</svg>
