<?xml version="1.0" encoding="UTF-8" standalone="no"?>
<!DOCTYPE svg PUBLIC "-//W3C//DTD SVG 1.1//EN"
 "http://www.w3.org/Graphics/SVG/1.1/DTD/svg11.dtd">
<!-- Generated by graphviz version 2.26.3 (20100126.1600)
 -->
<!-- Title: _anonymous_0 Pages: 1 -->
<svg width="278pt" height="980pt"
 viewBox="0.00 0.00 278.00 980.00" xmlns="http://www.w3.org/2000/svg" xmlns:xlink="http://www.w3.org/1999/xlink">
<g id="graph1" class="graph" transform="scale(1 1) rotate(0) translate(4 976)">
<title>_anonymous_0</title>
<polygon fill="white" stroke="white" points="-4,5 -4,-976 275,-976 275,5 -4,5"/>
<!-- 30372512 -->
<g id="node3" class="node"><title>30372512</title>
<ellipse fill="#e5e5e5" stroke="black" cx="144" cy="-162" rx="27" ry="18"/>
</g>
<!-- 30766480 -->
<g id="node11" class="node"><title>30766480</title>
<ellipse fill="#999999" stroke="black" cx="144" cy="-234" rx="27" ry="18"/>
</g>
<!-- 30372512&#45;&gt;30766480 -->
<g id="edge37" class="edge"><title>30372512&#45;&gt;30766480</title>
<path fill="none" stroke="black" d="M144,-180.169C144,-187.869 144,-197.026 144,-205.583"/>
<polygon fill="black" stroke="black" points="140.5,-205.587 144,-215.587 147.5,-205.587 140.5,-205.587"/>
</g>
<!-- 31225584 -->
<g id="node4" class="node"><title>31225584</title>
<ellipse fill="#e5e5e5" stroke="black" cx="144" cy="-90" rx="27" ry="18"/>
</g>
<!-- 31225584&#45;&gt;30372512 -->
<g id="edge15" class="edge"><title>31225584&#45;&gt;30372512</title>
<path fill="none" stroke="black" d="M144,-108.169C144,-115.869 144,-125.026 144,-133.583"/>
<polygon fill="black" stroke="black" points="140.5,-133.587 144,-143.587 147.5,-133.587 140.5,-133.587"/>
</g>
<!-- 33378608 -->
<g id="node5" class="node"><title>33378608</title>
<ellipse fill="#e5e5e5" stroke="black" cx="108" cy="-18" rx="27" ry="18"/>
</g>
<!-- 33378608&#45;&gt;30372512 -->
<g id="edge7" class="edge"><title>33378608&#45;&gt;30372512</title>
<path fill="none" stroke="black" d="M104.988,-36.0363C102.59,-54.5334 100.71,-83.9232 108,-108 111.266,-118.787 117.476,-129.389 123.831,-138.304"/>
<polygon fill="black" stroke="black" points="121.049,-140.427 129.877,-146.284 126.628,-136.2 121.049,-140.427"/>
</g>
<!-- 33378608&#45;&gt;31225584 -->
<g id="edge9" class="edge"><title>33378608&#45;&gt;31225584</title>
<path fill="none" stroke="black" d="M116.715,-35.4292C120.96,-43.9193 126.154,-54.3071 130.866,-63.7326"/>
<polygon fill="black" stroke="black" points="127.763,-65.3523 135.366,-72.7313 134.024,-62.2218 127.763,-65.3523"/>
</g>
<!-- 32496912 -->
<g id="node6" class="node"><title>32496912</title>
<ellipse fill="#e5e5e5" stroke="black" cx="189" cy="-18" rx="27" ry="18"/>
</g>
<!-- 32496912&#45;&gt;30372512 -->
<g id="edge11" class="edge"><title>32496912&#45;&gt;30372512</title>
<path fill="none" stroke="black" d="M189.723,-36.1499C189.885,-54.7374 188.522,-84.1981 180,-108 176.24,-118.502 170.004,-128.957 163.77,-137.831"/>
<polygon fill="black" stroke="black" points="160.768,-136.002 157.628,-146.121 166.393,-140.169 160.768,-136.002"/>
</g>
<!-- 32496912&#45;&gt;31225584 -->
<g id="edge13" class="edge"><title>32496912&#45;&gt;31225584</title>
<path fill="none" stroke="black" d="M178.563,-34.6992C173.077,-43.4776 166.231,-54.4297 160.084,-64.2661"/>
<polygon fill="black" stroke="black" points="157.025,-62.5564 154.693,-72.8914 162.961,-66.2664 157.025,-62.5564"/>
</g>
<!-- 31015344 -->
<g id="node8" class="node"><title>31015344</title>
<ellipse fill="firebrick" stroke="black" cx="99" cy="-378" rx="27" ry="18"/>
</g>
<!-- 32504208 -->
<g id="node19" class="node"><title>32504208</title>
<ellipse fill="gold" stroke="black" cx="99" cy="-450" rx="27" ry="18"/>
</g>
<!-- 31015344&#45;&gt;32504208 -->
<g id="edge57" class="edge"><title>31015344&#45;&gt;32504208</title>
<path fill="none" stroke="black" d="M99,-396.169C99,-403.869 99,-413.026 99,-421.583"/>
<polygon fill="black" stroke="black" points="95.5001,-421.587 99,-431.587 102.5,-421.587 95.5001,-421.587"/>
</g>
<!-- 32878672 -->
<g id="node9" class="node"><title>32878672</title>
<ellipse fill="#999999" stroke="black" cx="99" cy="-306" rx="27" ry="18"/>
</g>
<!-- 32878672&#45;&gt;31015344 -->
<g id="edge39" class="edge"><title>32878672&#45;&gt;31015344</title>
<path fill="none" stroke="black" d="M99,-324.169C99,-331.869 99,-341.026 99,-349.583"/>
<polygon fill="black" stroke="black" points="95.5001,-349.587 99,-359.587 102.5,-349.587 95.5001,-349.587"/>
</g>
<!-- 30473984 -->
<g id="node10" class="node"><title>30473984</title>
<ellipse fill="#999999" stroke="black" cx="53" cy="-234" rx="27" ry="18"/>
</g>
<!-- 30473984&#45;&gt;31015344 -->
<g id="edge29" class="edge"><title>30473984&#45;&gt;31015344</title>
<path fill="none" stroke="black" d="M52.5302,-252.158C52.6151,-270.752 54.3368,-300.218 63,-324 66.8179,-334.481 73.0667,-344.931 79.2954,-353.807"/>
<polygon fill="black" stroke="black" points="76.6676,-356.14 85.4265,-362.101 82.2966,-351.979 76.6676,-356.14"/>
</g>
<!-- 30473984&#45;&gt;32878672 -->
<g id="edge31" class="edge"><title>30473984&#45;&gt;32878672</title>
<path fill="none" stroke="black" d="M63.6689,-250.699C69.3586,-259.605 76.4777,-270.748 82.8316,-280.693"/>
<polygon fill="black" stroke="black" points="80.0555,-282.849 88.3889,-289.391 85.9544,-279.08 80.0555,-282.849"/>
</g>
<!-- 30766480&#45;&gt;31015344 -->
<g id="edge33" class="edge"><title>30766480&#45;&gt;31015344</title>
<path fill="none" stroke="black" d="M144.723,-252.15C144.885,-270.737 143.522,-300.198 135,-324 131.24,-334.502 125.004,-344.957 118.77,-353.831"/>
<polygon fill="black" stroke="black" points="115.768,-352.002 112.628,-362.121 121.393,-356.169 115.768,-352.002"/>
</g>
<!-- 30766480&#45;&gt;32878672 -->
<g id="edge35" class="edge"><title>30766480&#45;&gt;32878672</title>
<path fill="none" stroke="black" d="M133.563,-250.699C128.077,-259.478 121.231,-270.43 115.084,-280.266"/>
<polygon fill="black" stroke="black" points="112.025,-278.556 109.693,-288.891 117.961,-282.266 112.025,-278.556"/>
</g>
<!-- 34460816 -->
<g id="node13" class="node"><title>34460816</title>
<ellipse fill="#63b8ff" stroke="black" cx="151" cy="-738" rx="27" ry="18"/>
</g>
<!-- 30301216 -->
<g id="node27" class="node"><title>30301216</title>
<ellipse fill="#e5e5e5" stroke="black" cx="151" cy="-810" rx="27" ry="18"/>
</g>
<!-- 34460816&#45;&gt;30301216 -->
<g id="edge25" class="edge"><title>34460816&#45;&gt;30301216</title>
<path fill="none" stroke="black" d="M151,-756.169C151,-763.869 151,-773.026 151,-781.583"/>
<polygon fill="black" stroke="black" points="147.5,-781.587 151,-791.587 154.5,-781.587 147.5,-781.587"/>
</g>
<!-- 34491664 -->
<g id="node14" class="node"><title>34491664</title>
<ellipse fill="#63b8ff" stroke="black" cx="124" cy="-666" rx="27" ry="18"/>
</g>
<!-- 34491664&#45;&gt;34460816 -->
<g id="edge73" class="edge"><title>34491664&#45;&gt;34460816</title>
<path fill="none" stroke="black" d="M130.674,-683.798C133.748,-691.994 137.462,-701.898 140.87,-710.985"/>
<polygon fill="black" stroke="black" points="137.614,-712.273 144.403,-720.407 144.168,-709.815 137.614,-712.273"/>
</g>
<!-- 32454352 -->
<g id="node15" class="node"><title>32454352</title>
<ellipse fill="#999999" stroke="black" cx="69" cy="-594" rx="27" ry="18"/>
</g>
<!-- 32454352&#45;&gt;34460816 -->
<g id="edge41" class="edge"><title>32454352&#45;&gt;34460816</title>
<path fill="none" stroke="black" d="M69.4453,-612.138C70.653,-631.244 74.7263,-661.609 88,-684 96.4754,-698.297 110.108,-710.675 122.527,-719.961"/>
<polygon fill="black" stroke="black" points="120.675,-722.938 130.853,-725.88 124.731,-717.233 120.675,-722.938"/>
</g>
<!-- 32454352&#45;&gt;34491664 -->
<g id="edge43" class="edge"><title>32454352&#45;&gt;34491664</title>
<path fill="none" stroke="black" d="M81.4804,-610.338C88.5124,-619.544 97.4347,-631.224 105.288,-641.505"/>
<polygon fill="black" stroke="black" points="102.717,-643.905 111.569,-649.727 108.28,-639.655 102.717,-643.905"/>
</g>
<!-- 31227776 -->
<g id="node16" class="node"><title>31227776</title>
<ellipse fill="gold" stroke="black" cx="142" cy="-594" rx="27" ry="18"/>
</g>
<!-- 31227776&#45;&gt;34460816 -->
<g id="edge45" class="edge"><title>31227776&#45;&gt;34460816</title>
<path fill="none" stroke="black" d="M149.48,-611.636C153.474,-622.014 157.974,-635.514 160,-648 163.349,-668.635 160.781,-692.146 157.544,-709.963"/>
<polygon fill="black" stroke="black" points="154.069,-709.495 155.546,-719.986 160.934,-710.864 154.069,-709.495"/>
</g>
<!-- 31227776&#45;&gt;34491664 -->
<g id="edge47" class="edge"><title>31227776&#45;&gt;34491664</title>
<path fill="none" stroke="black" d="M137.551,-611.798C135.56,-619.759 133.167,-629.333 130.949,-638.204"/>
<polygon fill="black" stroke="black" points="127.491,-637.607 128.461,-648.157 134.282,-639.305 127.491,-637.607"/>
</g>
<!-- 34163504 -->
<g id="node17" class="node"><title>34163504</title>
<ellipse fill="gold" stroke="black" cx="142" cy="-522" rx="27" ry="18"/>
</g>
<!-- 34163504&#45;&gt;31227776 -->
<g id="edge67" class="edge"><title>34163504&#45;&gt;31227776</title>
<path fill="none" stroke="black" d="M142,-540.169C142,-547.869 142,-557.026 142,-565.583"/>
<polygon fill="black" stroke="black" points="138.5,-565.587 142,-575.587 145.5,-565.587 138.5,-565.587"/>
</g>
<!-- 35758960 -->
<g id="node18" class="node"><title>35758960</title>
<ellipse fill="#999999" stroke="black" cx="27" cy="-450" rx="27" ry="18"/>
</g>
<!-- 35758960&#45;&gt;31227776 -->
<g id="edge49" class="edge"><title>35758960&#45;&gt;31227776</title>
<path fill="none" stroke="black" d="M38.687,-466.583C51.7405,-484.892 73.708,-515.075 94,-540 102.414,-550.335 112.112,-561.393 120.579,-570.794"/>
<polygon fill="black" stroke="black" points="118.033,-573.197 127.347,-578.248 123.216,-568.492 118.033,-573.197"/>
</g>
<!-- 35758960&#45;&gt;34163504 -->
<g id="edge51" class="edge"><title>35758960&#45;&gt;34163504</title>
<path fill="none" stroke="black" d="M46.7692,-462.377C65.1178,-473.865 92.6439,-491.099 113.391,-504.088"/>
<polygon fill="black" stroke="black" points="111.771,-507.203 122.104,-509.543 115.485,-501.27 111.771,-507.203"/>
</g>
<!-- 32504208&#45;&gt;31227776 -->
<g id="edge53" class="edge"><title>32504208&#45;&gt;31227776</title>
<path fill="none" stroke="black" d="M97.7709,-468.131C97.1132,-486.703 97.7566,-516.152 106,-540 109.644,-550.543 115.854,-561.007 122.099,-569.877"/>
<polygon fill="black" stroke="black" points="119.485,-572.227 128.264,-578.159 125.101,-568.047 119.485,-572.227"/>
</g>
<!-- 32504208&#45;&gt;34163504 -->
<g id="edge55" class="edge"><title>32504208&#45;&gt;34163504</title>
<path fill="none" stroke="black" d="M109.19,-467.063C114.385,-475.761 120.811,-486.52 126.595,-496.205"/>
<polygon fill="black" stroke="black" points="123.75,-498.269 131.883,-505.059 129.76,-494.679 123.75,-498.269"/>
</g>
<!-- 32794384 -->
<g id="node20" class="node"><title>32794384</title>
<ellipse fill="#999999" stroke="black" cx="171" cy="-450" rx="27" ry="18"/>
</g>
<!-- 32794384&#45;&gt;31227776 -->
<g id="edge59" class="edge"><title>32794384&#45;&gt;31227776</title>
<path fill="none" stroke="black" d="M176.197,-468.006C180.658,-486.479 185.312,-515.85 178,-540 174.734,-550.787 168.524,-561.389 162.169,-570.304"/>
<polygon fill="black" stroke="black" points="159.372,-568.2 156.123,-578.284 164.951,-572.427 159.372,-568.2"/>
</g>
<!-- 32794384&#45;&gt;34163504 -->
<g id="edge61" class="edge"><title>32794384&#45;&gt;34163504</title>
<path fill="none" stroke="black" d="M163.98,-467.429C160.656,-475.681 156.61,-485.726 152.9,-494.938"/>
<polygon fill="black" stroke="black" points="149.546,-493.898 149.056,-504.482 156.039,-496.514 149.546,-493.898"/>
</g>
<!-- 36008416 -->
<g id="node21" class="node"><title>36008416</title>
<ellipse fill="#999999" stroke="black" cx="243" cy="-450" rx="27" ry="18"/>
</g>
<!-- 36008416&#45;&gt;31227776 -->
<g id="edge63" class="edge"><title>36008416&#45;&gt;31227776</title>
<path fill="none" stroke="black" d="M234.978,-467.352C225.966,-486.064 210.317,-516.348 193,-540 184.705,-551.33 174.24,-562.791 164.951,-572.222"/>
<polygon fill="black" stroke="black" points="162.445,-569.779 157.817,-579.31 167.378,-574.744 162.445,-569.779"/>
</g>
<!-- 36008416&#45;&gt;34163504 -->
<g id="edge65" class="edge"><title>36008416&#45;&gt;34163504</title>
<path fill="none" stroke="black" d="M224.475,-463.206C208.912,-474.3 186.466,-490.301 168.919,-502.81"/>
<polygon fill="black" stroke="black" points="166.861,-499.979 160.75,-508.634 170.924,-505.679 166.861,-499.979"/>
</g>
<!-- 37356800 -->
<g id="node22" class="node"><title>37356800</title>
<ellipse fill="#999999" stroke="black" cx="216" cy="-594" rx="27" ry="18"/>
</g>
<!-- 37356800&#45;&gt;34460816 -->
<g id="edge69" class="edge"><title>37356800&#45;&gt;34460816</title>
<path fill="none" stroke="black" d="M208.159,-611.37C196.935,-636.236 176.191,-682.193 163.02,-711.371"/>
<polygon fill="black" stroke="black" points="159.792,-710.014 158.868,-720.569 166.173,-712.894 159.792,-710.014"/>
</g>
<!-- 37356800&#45;&gt;34491664 -->
<g id="edge71" class="edge"><title>37356800&#45;&gt;34491664</title>
<path fill="none" stroke="black" d="M198.261,-607.882C184.516,-618.64 165.273,-633.699 149.82,-645.793"/>
<polygon fill="black" stroke="black" points="147.402,-643.241 141.684,-652.16 151.716,-648.753 147.402,-643.241"/>
</g>
<!-- 30753584 -->
<g id="node24" class="node"><title>30753584</title>
<ellipse fill="#e5e5e5" stroke="black" cx="106" cy="-954" rx="27" ry="18"/>
</g>
<!-- 37540816 -->
<g id="node25" class="node"><title>37540816</title>
<ellipse fill="#e5e5e5" stroke="black" cx="106" cy="-882" rx="27" ry="18"/>
</g>
<!-- 37540816&#45;&gt;30753584 -->
<g id="edge27" class="edge"><title>37540816&#45;&gt;30753584</title>
<path fill="none" stroke="black" d="M106,-900.169C106,-907.869 106,-917.026 106,-925.583"/>
<polygon fill="black" stroke="black" points="102.5,-925.587 106,-935.587 109.5,-925.587 102.5,-925.587"/>
</g>
<!-- 30738144 -->
<g id="node26" class="node"><title>30738144</title>
<ellipse fill="#e5e5e5" stroke="black" cx="60" cy="-810" rx="27" ry="18"/>
</g>
<!-- 30738144&#45;&gt;30753584 -->
<g id="edge17" class="edge"><title>30738144&#45;&gt;30753584</title>
<path fill="none" stroke="black" d="M59.5302,-828.158C59.6151,-846.752 61.3368,-876.218 70,-900 73.8179,-910.481 80.0667,-920.931 86.2954,-929.807"/>
<polygon fill="black" stroke="black" points="83.6676,-932.14 92.4265,-938.101 89.2966,-927.979 83.6676,-932.14"/>
</g>
<!-- 30738144&#45;&gt;37540816 -->
<g id="edge19" class="edge"><title>30738144&#45;&gt;37540816</title>
<path fill="none" stroke="black" d="M70.6689,-826.699C76.3586,-835.605 83.4777,-846.748 89.8316,-856.693"/>
<polygon fill="black" stroke="black" points="87.0555,-858.849 95.3889,-865.391 92.9544,-855.08 87.0555,-858.849"/>
</g>
<!-- 30301216&#45;&gt;30753584 -->
<g id="edge21" class="edge"><title>30301216&#45;&gt;30753584</title>
<path fill="none" stroke="black" d="M151.723,-828.15C151.885,-846.737 150.522,-876.198 142,-900 138.24,-910.502 132.004,-920.957 125.77,-929.831"/>
<polygon fill="black" stroke="black" points="122.768,-928.002 119.628,-938.121 128.393,-932.169 122.768,-928.002"/>
</g>
<!-- 30301216&#45;&gt;37540816 -->
<g id="edge23" class="edge"><title>30301216&#45;&gt;37540816</title>
<path fill="none" stroke="black" d="M140.563,-826.699C135.077,-835.478 128.231,-846.43 122.084,-856.266"/>
<polygon fill="black" stroke="black" points="119.025,-854.556 116.693,-864.891 124.961,-858.266 119.025,-854.556"/>
</g>
</g>
</svg>
