<?xml version="1.0" encoding="UTF-8" standalone="no"?>
<!DOCTYPE svg PUBLIC "-//W3C//DTD SVG 1.1//EN"
 "http://www.w3.org/Graphics/SVG/1.1/DTD/svg11.dtd">
<!-- Generated by graphviz version 2.26.3 (20100126.1600)
 -->
<!-- Title: _anonymous_0 Pages: 1 -->
<svg width="1725pt" height="1817pt"
 viewBox="0.00 0.00 1724.53 1817.00" xmlns="http://www.w3.org/2000/svg" xmlns:xlink="http://www.w3.org/1999/xlink">
<g id="graph1" class="graph" transform="scale(1 1) rotate(0) translate(4 1813)">
<title>_anonymous_0</title>
<polygon fill="white" stroke="white" points="-4,5 -4,-1813 1721.53,-1813 1721.53,5 -4,5"/>
<g id="graph2" class="cluster"><title>cluster1</title>
<polygon fill="none" stroke="black" points="8,-46 8,-1801 1516,-1801 1516,-46 8,-46"/>
<text text-anchor="middle" x="762" y="-57.4" font-family="Times Roman,serif" font-size="24.00">Venture Families</text>
</g>
<g id="graph3" class="cluster"><title>cluster2</title>
<polygon fill="none" stroke="black" points="818,-91 818,-456 1458,-456 1458,-91 818,-91"/>
<text text-anchor="middle" x="1138" y="-102.4" font-family="Times Roman,serif" font-size="24.00">1</text>
</g>
<g id="graph4" class="cluster"><title>cluster3</title>
<polygon fill="none" stroke="black" points="856,-464 856,-829 1508,-829 1508,-464 856,-464"/>
<text text-anchor="middle" x="1182" y="-475.4" font-family="Times Roman,serif" font-size="24.00">2</text>
</g>
<g id="graph5" class="cluster"><title>cluster4</title>
<polygon fill="none" stroke="black" points="16,-837 16,-1420 1508,-1420 1508,-837 16,-837"/>
<text text-anchor="middle" x="762" y="-848.4" font-family="Times Roman,serif" font-size="24.00">3</text>
</g>
<g id="graph6" class="cluster"><title>cluster5</title>
<polygon fill="none" stroke="black" points="768,-1428 768,-1793 1420,-1793 1420,-1428 768,-1428"/>
<text text-anchor="middle" x="1094" y="-1439.4" font-family="Times Roman,serif" font-size="24.00">4</text>
</g>
<!-- 37726128 -->
<g id="node3" class="node"><title>37726128</title>
<ellipse fill="#e5e5e5" stroke="black" cx="1070" cy="-401" rx="219.91" ry="46.669"/>
<text text-anchor="middle" x="1070" y="-408.4" font-family="Times Roman,serif" font-size="24.00">exp: (snormal 0.000000)</text>
<text text-anchor="middle" x="1070" y="-379.4" font-family="Times Roman,serif" font-size="24.00">value: &#45;0.393445</text>
</g>
<!-- 37179568 -->
<g id="node11" class="node"><title>37179568</title>
<ellipse fill="#999999" stroke="black" cx="1019" cy="-556" rx="155.063" ry="46.669"/>
<text text-anchor="middle" x="1019" y="-563.4" font-family="Times Roman,serif" font-size="24.00">exp: x</text>
<text text-anchor="middle" x="1019" y="-534.4" font-family="Times Roman,serif" font-size="24.00">value: &#45;0.393445</text>
</g>
<!-- 37726128&#45;&gt;37179568 -->
<g id="edge65" class="edge"><title>37726128&#45;&gt;37179568</title>
<path fill="none" stroke="black" d="M1054.7,-447.505C1049.3,-463.904 1043.18,-482.521 1037.54,-499.645"/>
<polygon fill="black" stroke="black" points="1034.09,-498.935 1034.29,-509.528 1040.74,-501.123 1034.09,-498.935"/>
</g>
<!-- 42212608 -->
<g id="node4" class="node"><title>42212608</title>
<ellipse fill="#e5e5e5" stroke="black" cx="1094" cy="-292" rx="99.9096" ry="26.163"/>
<text text-anchor="middle" x="1094" y="-284.9" font-family="Times Roman,serif" font-size="24.00">request: []</text>
</g>
<!-- 42212608&#45;&gt;37726128 -->
<g id="edge79" class="edge"><title>42212608&#45;&gt;37726128</title>
<path fill="none" stroke="black" d="M1088.25,-318.108C1086.5,-326.064 1084.5,-335.139 1082.49,-344.297"/>
<polygon fill="black" stroke="black" points="1079.03,-343.7 1080.3,-354.218 1085.87,-345.205 1079.03,-343.7"/>
</g>
<!-- 36870592 -->
<g id="node5" class="node"><title>36870592</title>
<ellipse fill="#e5e5e5" stroke="black" cx="1296" cy="-183" rx="154.149" ry="46.669"/>
<text text-anchor="middle" x="1296" y="-190.4" font-family="Times Roman,serif" font-size="24.00">exp: snormal</text>
<text text-anchor="middle" x="1296" y="-161.4" font-family="Times Roman,serif" font-size="24.00">value: sp:normal</text>
</g>
<!-- 36870592&#45;&gt;37726128 -->
<g id="edge69" class="edge"><title>36870592&#45;&gt;37726128</title>
<path fill="none" stroke="black" d="M1270.8,-229.068C1254.04,-256.963 1230.16,-292.044 1203,-318 1190.05,-330.376 1174.97,-341.874 1159.71,-352.128"/>
<polygon fill="black" stroke="black" points="1157.66,-349.282 1151.22,-357.694 1161.5,-355.135 1157.66,-349.282"/>
</g>
<!-- 36870592&#45;&gt;42212608 -->
<g id="edge71" class="edge"><title>36870592&#45;&gt;42212608</title>
<path fill="none" stroke="black" d="M1220.78,-223.588C1196.14,-236.887 1169.29,-251.371 1146.68,-263.574"/>
<polygon fill="black" stroke="black" points="1144.73,-260.65 1137.59,-268.479 1148.05,-266.81 1144.73,-260.65"/>
</g>
<!-- 33142112 -->
<g id="node6" class="node"><title>33142112</title>
<ellipse fill="#e5e5e5" stroke="black" cx="975" cy="-183" rx="149.2" ry="46.669"/>
<text text-anchor="middle" x="975" y="-190.4" font-family="Times Roman,serif" font-size="24.00">exp: 0.000000</text>
<text text-anchor="middle" x="975" y="-161.4" font-family="Times Roman,serif" font-size="24.00">value: 0.000000</text>
</g>
<!-- 33142112&#45;&gt;37726128 -->
<g id="edge75" class="edge"><title>33142112&#45;&gt;37726128</title>
<path fill="none" stroke="black" d="M970.488,-229.73C969.787,-256.713 972.257,-290.621 985,-318 990.032,-328.81 997.126,-338.971 1005.09,-348.224"/>
<polygon fill="black" stroke="black" points="1002.65,-350.737 1011.97,-355.778 1007.83,-346.026 1002.65,-350.737"/>
</g>
<!-- 33142112&#45;&gt;42212608 -->
<g id="edge77" class="edge"><title>33142112&#45;&gt;42212608</title>
<path fill="none" stroke="black" d="M1023.06,-227.02C1035.11,-238.062 1047.82,-249.7 1059.09,-260.028"/>
<polygon fill="black" stroke="black" points="1056.91,-262.772 1066.65,-266.945 1061.64,-257.61 1056.91,-262.772"/>
</g>
<!-- 37254784 -->
<g id="node8" class="node"><title>37254784</title>
<ellipse fill="firebrick" stroke="black" cx="1121" cy="-774" rx="149.907" ry="46.669"/>
<text text-anchor="middle" x="1121" y="-781.4" font-family="Times Roman,serif" font-size="24.00">exp: (snormal x)</text>
<text text-anchor="middle" x="1121" y="-752.4" font-family="Times Roman,serif" font-size="24.00">value: </text>
</g>
<!-- 36243120 -->
<g id="node19" class="node"><title>36243120</title>
<ellipse fill="gold" stroke="black" cx="1105" cy="-929" rx="68.7979" ry="46.669"/>
<text text-anchor="middle" x="1105" y="-936.4" font-family="Times Roman,serif" font-size="24.00">exp: y</text>
<text text-anchor="middle" x="1105" y="-907.4" font-family="Times Roman,serif" font-size="24.00">value: </text>
</g>
<!-- 37254784&#45;&gt;36243120 -->
<g id="edge27" class="edge"><title>37254784&#45;&gt;36243120</title>
<path fill="none" stroke="black" d="M1116.2,-820.505C1114.52,-836.751 1112.62,-855.173 1110.87,-872.165"/>
<polygon fill="black" stroke="black" points="1107.34,-872.221 1109.8,-882.528 1114.31,-872.94 1107.34,-872.221"/>
</g>
<!-- 37154352 -->
<g id="node9" class="node"><title>37154352</title>
<ellipse fill="#999999" stroke="black" cx="1138" cy="-665" rx="99.9096" ry="26.163"/>
<text text-anchor="middle" x="1138" y="-657.9" font-family="Times Roman,serif" font-size="24.00">request: []</text>
</g>
<!-- 37154352&#45;&gt;37254784 -->
<g id="edge67" class="edge"><title>37154352&#45;&gt;37254784</title>
<path fill="none" stroke="black" d="M1133.93,-691.108C1132.69,-699.064 1131.27,-708.139 1129.84,-717.297"/>
<polygon fill="black" stroke="black" points="1126.38,-716.798 1128.3,-727.218 1133.3,-717.877 1126.38,-716.798"/>
</g>
<!-- 35549456 -->
<g id="node10" class="node"><title>35549456</title>
<ellipse fill="#999999" stroke="black" cx="1346" cy="-556" rx="154.149" ry="46.669"/>
<text text-anchor="middle" x="1346" y="-563.4" font-family="Times Roman,serif" font-size="24.00">exp: snormal</text>
<text text-anchor="middle" x="1346" y="-534.4" font-family="Times Roman,serif" font-size="24.00">value: sp:normal</text>
</g>
<!-- 35549456&#45;&gt;37254784 -->
<g id="edge55" class="edge"><title>35549456&#45;&gt;37254784</title>
<path fill="none" stroke="black" d="M1318.18,-602.044C1300.06,-629.762 1274.7,-664.662 1247,-691 1233.18,-704.143 1217.03,-716.523 1200.99,-727.512"/>
<polygon fill="black" stroke="black" points="1198.98,-724.648 1192.63,-733.129 1202.88,-730.459 1198.98,-724.648"/>
</g>
<!-- 35549456&#45;&gt;37154352 -->
<g id="edge57" class="edge"><title>35549456&#45;&gt;37154352</title>
<path fill="none" stroke="black" d="M1268.84,-596.433C1243.23,-609.858 1215.27,-624.505 1191.81,-636.803"/>
<polygon fill="black" stroke="black" points="1189.95,-633.826 1182.72,-641.567 1193.2,-640.026 1189.95,-633.826"/>
</g>
<!-- 37179568&#45;&gt;37254784 -->
<g id="edge61" class="edge"><title>37179568&#45;&gt;37254784</title>
<path fill="none" stroke="black" d="M1014.1,-602.606C1013.23,-629.705 1015.67,-663.772 1029,-691 1034.88,-703.008 1043.33,-714.078 1052.75,-723.958"/>
<polygon fill="black" stroke="black" points="1050.56,-726.713 1060.12,-731.277 1055.49,-721.747 1050.56,-726.713"/>
</g>
<!-- 37179568&#45;&gt;37154352 -->
<g id="edge63" class="edge"><title>37179568&#45;&gt;37154352</title>
<path fill="none" stroke="black" d="M1067.4,-600.334C1079.32,-611.253 1091.86,-622.736 1103,-632.946"/>
<polygon fill="black" stroke="black" points="1100.74,-635.614 1110.47,-639.788 1105.46,-630.452 1100.74,-635.614"/>
</g>
<!-- 34848512 -->
<g id="node13" class="node"><title>34848512</title>
<ellipse fill="#63b8ff" stroke="black" cx="843" cy="-1365" rx="656.902" ry="46.669"/>
<text text-anchor="middle" x="843" y="-1372.4" font-family="Times Roman,serif" font-size="24.00">exp: (snormal (branch_exp y (quote (snormal 0.000000)) (quote 5.000000)))</text>
<text text-anchor="middle" x="843" y="-1343.4" font-family="Times Roman,serif" font-size="24.00">value: &#45;0.974716</text>
</g>
<!-- 35315600 -->
<g id="node26" class="node"><title>35315600</title>
<ellipse fill="#e5e5e5" stroke="black" cx="931" cy="-1520" rx="155.063" ry="46.669"/>
<text text-anchor="middle" x="931" y="-1527.4" font-family="Times Roman,serif" font-size="24.00">exp: w</text>
<text text-anchor="middle" x="931" y="-1498.4" font-family="Times Roman,serif" font-size="24.00">value: &#45;0.974716</text>
</g>
<!-- 34848512&#45;&gt;35315600 -->
<g id="edge51" class="edge"><title>34848512&#45;&gt;35315600</title>
<path fill="none" stroke="black" d="M869.403,-1411.51C878.974,-1428.36 889.875,-1447.56 899.818,-1465.08"/>
<polygon fill="black" stroke="black" points="896.938,-1467.09 904.919,-1474.06 903.025,-1463.64 896.938,-1467.09"/>
</g>
<!-- 36839072 -->
<g id="node14" class="node"><title>36839072</title>
<ellipse fill="#63b8ff" stroke="black" cx="843" cy="-1256" rx="99.9096" ry="26.163"/>
<text text-anchor="middle" x="843" y="-1248.9" font-family="Times Roman,serif" font-size="24.00">request: []</text>
</g>
<!-- 36839072&#45;&gt;34848512 -->
<g id="edge39" class="edge"><title>36839072&#45;&gt;34848512</title>
<path fill="none" stroke="black" d="M843,-1282.11C843,-1289.98 843,-1298.95 843,-1308"/>
<polygon fill="black" stroke="black" points="839.5,-1308.22 843,-1318.22 846.5,-1308.22 839.5,-1308.22"/>
</g>
<!-- 36129440 -->
<g id="node15" class="node"><title>36129440</title>
<ellipse fill="#999999" stroke="black" cx="1346" cy="-1147" rx="154.149" ry="46.669"/>
<text text-anchor="middle" x="1346" y="-1154.4" font-family="Times Roman,serif" font-size="24.00">exp: snormal</text>
<text text-anchor="middle" x="1346" y="-1125.4" font-family="Times Roman,serif" font-size="24.00">value: sp:normal</text>
</g>
<!-- 36129440&#45;&gt;34848512 -->
<g id="edge7" class="edge"><title>36129440&#45;&gt;34848512</title>
<path fill="none" stroke="black" d="M1257.81,-1185.22C1174.59,-1221.29 1049.35,-1275.57 958.255,-1315.05"/>
<polygon fill="black" stroke="black" points="956.777,-1311.87 948.993,-1319.06 959.561,-1318.3 956.777,-1311.87"/>
</g>
<!-- 36129440&#45;&gt;36839072 -->
<g id="edge9" class="edge"><title>36129440&#45;&gt;36839072</title>
<path fill="none" stroke="black" d="M1237.24,-1180C1219.2,-1185 1200.63,-1189.86 1183,-1194 1101.3,-1213.18 1007.38,-1229.91 938.98,-1241.14"/>
<polygon fill="black" stroke="black" points="938.383,-1237.69 929.078,-1242.76 939.511,-1244.6 938.383,-1237.69"/>
</g>
<!-- 36593296 -->
<g id="node16" class="node"><title>36593296</title>
<ellipse fill="gold" stroke="black" cx="604" cy="-1147" rx="570.135" ry="46.669"/>
<text text-anchor="middle" x="604" y="-1154.4" font-family="Times Roman,serif" font-size="24.00">exp: (branch_exp y (quote (snormal 0.000000)) (quote 5.000000))</text>
<text text-anchor="middle" x="604" y="-1125.4" font-family="Times Roman,serif" font-size="24.00">value: </text>
</g>
<!-- 36593296&#45;&gt;34848512 -->
<g id="edge13" class="edge"><title>36593296&#45;&gt;34848512</title>
<path fill="none" stroke="black" d="M645.383,-1193.41C670.142,-1220.29 702.775,-1254.19 734,-1282 745.439,-1292.19 758.019,-1302.5 770.444,-1312.23"/>
<polygon fill="black" stroke="black" points="768.526,-1315.17 778.573,-1318.54 772.816,-1309.64 768.526,-1315.17"/>
</g>
<!-- 36593296&#45;&gt;36839072 -->
<g id="edge15" class="edge"><title>36593296&#45;&gt;36839072</title>
<path fill="none" stroke="black" d="M704.665,-1192.91C731.694,-1205.24 760.042,-1218.17 783.989,-1229.09"/>
<polygon fill="black" stroke="black" points="782.729,-1232.36 793.279,-1233.32 785.633,-1225.99 782.729,-1232.36"/>
</g>
<!-- 36640224 -->
<g id="node17" class="node"><title>36640224</title>
<ellipse fill="gold" stroke="black" cx="731" cy="-1038" rx="87.1802" ry="26.163"/>
<text text-anchor="middle" x="731" y="-1030.9" font-family="Times Roman,serif" font-size="24.00">request: </text>
</g>
<!-- 36640224&#45;&gt;36593296 -->
<g id="edge37" class="edge"><title>36640224&#45;&gt;36593296</title>
<path fill="none" stroke="black" d="M702.182,-1062.73C691.333,-1072.04 678.537,-1083.03 665.83,-1093.93"/>
<polygon fill="black" stroke="black" points="663.256,-1091.53 657.947,-1100.7 667.815,-1096.84 663.256,-1091.53"/>
</g>
<!-- 34747040 -->
<g id="node18" class="node"><title>34747040</title>
<ellipse fill="#999999" stroke="black" cx="1346" cy="-929" rx="154.149" ry="46.669"/>
<text text-anchor="middle" x="1346" y="-936.4" font-family="Times Roman,serif" font-size="24.00">exp: branch_exp</text>
<text text-anchor="middle" x="1346" y="-907.4" font-family="Times Roman,serif" font-size="24.00">value: sp:branch</text>
</g>
<!-- 34747040&#45;&gt;36593296 -->
<g id="edge17" class="edge"><title>34747040&#45;&gt;36593296</title>
<path fill="none" stroke="black" d="M1237.73,-962.085C1146.87,-989.719 1013.62,-1029.95 897,-1064 856.946,-1075.69 813.741,-1088.07 773.134,-1099.59"/>
<polygon fill="black" stroke="black" points="772.087,-1096.25 763.421,-1102.34 773.996,-1102.98 772.087,-1096.25"/>
</g>
<!-- 34747040&#45;&gt;36640224 -->
<g id="edge19" class="edge"><title>34747040&#45;&gt;36640224</title>
<path fill="none" stroke="black" d="M1238.27,-962.432C1219.94,-967.438 1201.01,-972.189 1183,-976 1060.13,-1002 916.073,-1019.58 824.206,-1029.19"/>
<polygon fill="black" stroke="black" points="823.684,-1025.73 814.098,-1030.24 824.406,-1032.69 823.684,-1025.73"/>
</g>
<!-- 36243120&#45;&gt;36593296 -->
<g id="edge23" class="edge"><title>36243120&#45;&gt;36593296</title>
<path fill="none" stroke="black" d="M1054.35,-960.796C1045.35,-966.075 1035.98,-971.342 1027,-976 935.424,-1023.49 827.552,-1066.92 743.662,-1098.12"/>
<polygon fill="black" stroke="black" points="742.233,-1094.92 734.072,-1101.67 744.665,-1101.48 742.233,-1094.92"/>
</g>
<!-- 36243120&#45;&gt;36640224 -->
<g id="edge25" class="edge"><title>36243120&#45;&gt;36640224</title>
<path fill="none" stroke="black" d="M1055.93,-961.933C1046.6,-967.212 1036.71,-972.184 1027,-976 960.941,-1001.96 882.112,-1017.79 822.419,-1026.95"/>
<polygon fill="black" stroke="black" points="821.628,-1023.53 812.257,-1028.47 822.666,-1030.45 821.628,-1023.53"/>
</g>
<!-- 35112672 -->
<g id="node20" class="node"><title>35112672</title>
<ellipse fill="#999999" stroke="black" cx="731" cy="-929" rx="287.085" ry="46.669"/>
<text text-anchor="middle" x="731" y="-936.4" font-family="Times Roman,serif" font-size="24.00">exp: (quote (snormal 0.000000))</text>
<text text-anchor="middle" x="731" y="-907.4" font-family="Times Roman,serif" font-size="24.00">value: (snormal 0.000000)</text>
</g>
<!-- 35112672&#45;&gt;36593296 -->
<g id="edge29" class="edge"><title>35112672&#45;&gt;36593296</title>
<path fill="none" stroke="black" d="M666.681,-974.477C654.664,-985.55 643.294,-998.22 635,-1012 620.885,-1035.45 613.194,-1064.73 609.004,-1090.03"/>
<polygon fill="black" stroke="black" points="605.496,-1089.82 607.464,-1100.23 612.417,-1090.87 605.496,-1089.82"/>
</g>
<!-- 35112672&#45;&gt;36640224 -->
<g id="edge31" class="edge"><title>35112672&#45;&gt;36640224</title>
<path fill="none" stroke="black" d="M731,-975.542C731,-984.249 731,-993.232 731,-1001.58"/>
<polygon fill="black" stroke="black" points="727.5,-1001.74 731,-1011.74 734.5,-1001.74 727.5,-1001.74"/>
</g>
<!-- 35588656 -->
<g id="node21" class="node"><title>35588656</title>
<ellipse fill="#999999" stroke="black" cx="225" cy="-929" rx="200.818" ry="46.669"/>
<text text-anchor="middle" x="225" y="-936.4" font-family="Times Roman,serif" font-size="24.00">exp: (quote 5.000000)</text>
<text text-anchor="middle" x="225" y="-907.4" font-family="Times Roman,serif" font-size="24.00">value: 5.000000</text>
</g>
<!-- 35588656&#45;&gt;36593296 -->
<g id="edge33" class="edge"><title>35588656&#45;&gt;36593296</title>
<path fill="none" stroke="black" d="M300.331,-972.33C362.081,-1007.85 449.617,-1058.2 514.853,-1095.72"/>
<polygon fill="black" stroke="black" points="513.491,-1098.98 523.905,-1100.93 516.982,-1092.91 513.491,-1098.98"/>
</g>
<!-- 35588656&#45;&gt;36640224 -->
<g id="edge35" class="edge"><title>35588656&#45;&gt;36640224</title>
<path fill="none" stroke="black" d="M368.973,-961.497C391.076,-966.406 413.64,-971.373 435,-976 507.276,-991.657 589.625,-1008.85 649.083,-1021.16"/>
<polygon fill="black" stroke="black" points="648.665,-1024.64 659.166,-1023.24 650.082,-1017.79 648.665,-1024.64"/>
</g>
<!-- 36828112 -->
<g id="node23" class="node"><title>36828112</title>
<ellipse fill="#e5e5e5" stroke="black" cx="1105" cy="-1738" rx="155.063" ry="46.669"/>
<text text-anchor="middle" x="1105" y="-1745.4" font-family="Times Roman,serif" font-size="24.00">exp: (snormal w)</text>
<text text-anchor="middle" x="1105" y="-1716.4" font-family="Times Roman,serif" font-size="24.00">value: &#45;2.236611</text>
</g>
<!-- 41282896 -->
<g id="node24" class="node"><title>41282896</title>
<ellipse fill="#e5e5e5" stroke="black" cx="1105" cy="-1629" rx="99.9096" ry="26.163"/>
<text text-anchor="middle" x="1105" y="-1621.9" font-family="Times Roman,serif" font-size="24.00">request: []</text>
</g>
<!-- 41282896&#45;&gt;36828112 -->
<g id="edge53" class="edge"><title>41282896&#45;&gt;36828112</title>
<path fill="none" stroke="black" d="M1105,-1655.11C1105,-1662.98 1105,-1671.95 1105,-1681"/>
<polygon fill="black" stroke="black" points="1101.5,-1681.22 1105,-1691.22 1108.5,-1681.22 1101.5,-1681.22"/>
</g>
<!-- 35141008 -->
<g id="node25" class="node"><title>35141008</title>
<ellipse fill="#e5e5e5" stroke="black" cx="1258" cy="-1520" rx="154.149" ry="46.669"/>
<text text-anchor="middle" x="1258" y="-1527.4" font-family="Times Roman,serif" font-size="24.00">exp: snormal</text>
<text text-anchor="middle" x="1258" y="-1498.4" font-family="Times Roman,serif" font-size="24.00">value: sp:normal</text>
</g>
<!-- 35141008&#45;&gt;36828112 -->
<g id="edge41" class="edge"><title>35141008&#45;&gt;36828112</title>
<path fill="none" stroke="black" d="M1250.07,-1566.61C1243.7,-1594.2 1232.63,-1628.77 1214,-1655 1205.02,-1667.65 1193.54,-1679.24 1181.42,-1689.49"/>
<polygon fill="black" stroke="black" points="1178.93,-1687 1173.38,-1696.03 1183.35,-1692.43 1178.93,-1687"/>
</g>
<!-- 35141008&#45;&gt;41282896 -->
<g id="edge43" class="edge"><title>35141008&#45;&gt;41282896</title>
<path fill="none" stroke="black" d="M1197.53,-1563.08C1180.9,-1574.93 1163.21,-1587.53 1147.8,-1598.51"/>
<polygon fill="black" stroke="black" points="1145.6,-1595.77 1139.49,-1604.43 1149.67,-1601.48 1145.6,-1595.77"/>
</g>
<!-- 35315600&#45;&gt;36828112 -->
<g id="edge47" class="edge"><title>35315600&#45;&gt;36828112</title>
<path fill="none" stroke="black" d="M947.075,-1566.56C958.068,-1594.13 974.54,-1628.7 996,-1655 1006.15,-1667.44 1018.52,-1679.09 1031.24,-1689.5"/>
<polygon fill="black" stroke="black" points="1029.18,-1692.33 1039.19,-1695.82 1033.54,-1686.85 1029.18,-1692.33"/>
</g>
<!-- 35315600&#45;&gt;41282896 -->
<g id="edge49" class="edge"><title>35315600&#45;&gt;41282896</title>
<path fill="none" stroke="black" d="M998.273,-1562.14C1018.16,-1574.6 1039.5,-1587.97 1057.83,-1599.45"/>
<polygon fill="black" stroke="black" points="1056.24,-1602.58 1066.57,-1604.93 1059.95,-1596.65 1056.24,-1602.58"/>
</g>
<!-- 41153760 -->
<g id="node29" class="node"><title>41153760</title>
<ellipse fill="none" stroke="black" cx="1581" cy="-19" rx="62.9325" ry="18.3848"/>
<text text-anchor="middle" x="1581" y="-15.4" font-family="Times Roman,serif" font-size="14.00">41153760</text>
</g>
<!-- 41153760&#45;&gt;36870592 -->
<g id="edge73" class="edge"><title>41153760&#45;&gt;36870592</title>
<path fill="none" stroke="black" d="M1521.41,-25.3171C1499.4,-29.2613 1474.78,-35.653 1454,-46 1412.05,-66.8824 1372.24,-101.53 1343.08,-130.756"/>
<polygon fill="black" stroke="black" points="1340.41,-128.473 1335.9,-138.058 1345.4,-133.382 1340.41,-128.473"/>
</g>
<!-- 41153760&#45;&gt;35549456 -->
<g id="edge59" class="edge"><title>41153760&#45;&gt;35549456</title>
<path fill="none" stroke="black" d="M1579.79,-37.5893C1574.92,-100.981 1552.38,-312.668 1462,-456 1450.07,-474.919 1433.46,-492.201 1416.52,-506.881"/>
<polygon fill="black" stroke="black" points="1414.13,-504.319 1408.74,-513.438 1418.64,-509.674 1414.13,-504.319"/>
</g>
<!-- 41153760&#45;&gt;36129440 -->
<g id="edge11" class="edge"><title>41153760&#45;&gt;36129440</title>
<path fill="none" stroke="black" d="M1592.51,-37.389C1618.2,-80.262 1678,-190.9 1678,-292 1678,-292 1678,-292 1678,-929 1678,-1028.9 1571.68,-1085.54 1479.37,-1115.9"/>
<polygon fill="black" stroke="black" points="1478.08,-1112.64 1469.62,-1119.02 1480.22,-1119.3 1478.08,-1112.64"/>
</g>
<!-- 41153760&#45;&gt;35141008 -->
<g id="edge45" class="edge"><title>41153760&#45;&gt;35141008</title>
<path fill="none" stroke="black" d="M1628.54,-31.2122C1636.19,-34.9271 1643.41,-39.7494 1649,-46 1724.51,-130.488 1716,-178.684 1716,-292 1716,-292 1716,-292 1716,-1256 1716,-1401.5 1540.36,-1468.03 1406.62,-1497.61"/>
<polygon fill="black" stroke="black" points="1405.69,-1494.23 1396.66,-1499.76 1407.17,-1501.07 1405.69,-1494.23"/>
</g>
<!-- 40760384 -->
<g id="node35" class="node"><title>40760384</title>
<ellipse fill="none" stroke="black" cx="1587" cy="-774" rx="62.9325" ry="18.3848"/>
<text text-anchor="middle" x="1587" y="-770.4" font-family="Times Roman,serif" font-size="14.00">40760384</text>
</g>
<!-- 40760384&#45;&gt;34747040 -->
<g id="edge21" class="edge"><title>40760384&#45;&gt;34747040</title>
<path fill="none" stroke="black" d="M1564.41,-791.397C1549.71,-802.501 1530.01,-817.008 1512,-829 1484.58,-847.257 1453.86,-866.176 1426.36,-882.579"/>
<polygon fill="black" stroke="black" points="1424.37,-879.695 1417.56,-887.813 1427.94,-885.712 1424.37,-879.695"/>
</g>
</g>
</svg>
