<?xml version="1.0" encoding="UTF-8" standalone="no"?>
<!DOCTYPE svg PUBLIC "-//W3C//DTD SVG 1.1//EN"
 "http://www.w3.org/Graphics/SVG/1.1/DTD/svg11.dtd">
<!-- Generated by graphviz version 2.26.3 (20100126.1600)
 -->
<!-- Title: _anonymous_0 Pages: 1 -->
<svg width="1725pt" height="1817pt"
 viewBox="0.00 0.00 1724.55 1817.00" xmlns="http://www.w3.org/2000/svg" xmlns:xlink="http://www.w3.org/1999/xlink">
<g id="graph1" class="graph" transform="scale(1 1) rotate(0) translate(4 1813)">
<title>_anonymous_0</title>
<polygon fill="white" stroke="white" points="-4,5 -4,-1813 1721.55,-1813 1721.55,5 -4,5"/>
<g id="graph2" class="cluster"><title>cluster1</title>
<polygon fill="none" stroke="black" points="8,-46 8,-1801 1516,-1801 1516,-46 8,-46"/>
<text text-anchor="middle" x="762" y="-57.4" font-family="Times Roman,serif" font-size="24.00">Venture Families</text>
</g>
<g id="graph3" class="cluster"><title>cluster2</title>
<polygon fill="none" stroke="black" points="821,-91 821,-456 1461,-456 1461,-91 821,-91"/>
<text text-anchor="middle" x="1141" y="-102.4" font-family="Times Roman,serif" font-size="24.00">1</text>
</g>
<g id="graph4" class="cluster"><title>cluster3</title>
<polygon fill="none" stroke="black" points="868,-464 868,-829 1508,-829 1508,-464 868,-464"/>
<text text-anchor="middle" x="1188" y="-475.4" font-family="Times Roman,serif" font-size="24.00">2</text>
</g>
<g id="graph5" class="cluster"><title>cluster4</title>
<polygon fill="none" stroke="black" points="16,-837 16,-1420 1508,-1420 1508,-837 16,-837"/>
<text text-anchor="middle" x="762" y="-848.4" font-family="Times Roman,serif" font-size="24.00">3</text>
</g>
<g id="graph6" class="cluster"><title>cluster5</title>
<polygon fill="none" stroke="black" points="777,-1428 777,-1793 1417,-1793 1417,-1428 777,-1428"/>
<text text-anchor="middle" x="1097" y="-1439.4" font-family="Times Roman,serif" font-size="24.00">4</text>
</g>
<!-- 21616208 -->
<g id="node3" class="node"><title>21616208</title>
<ellipse fill="#e5e5e5" stroke="black" cx="1073" cy="-401" rx="219.91" ry="46.669"/>
<text text-anchor="middle" x="1073" y="-408.4" font-family="Times Roman,serif" font-size="24.00">exp: (snormal 0.000000)</text>
<text text-anchor="middle" x="1073" y="-379.4" font-family="Times Roman,serif" font-size="24.00">value: 1.032905</text>
</g>
<!-- 24988336 -->
<g id="node11" class="node"><title>24988336</title>
<ellipse fill="#999999" stroke="black" cx="1025" cy="-556" rx="149.2" ry="46.669"/>
<text text-anchor="middle" x="1025" y="-563.4" font-family="Times Roman,serif" font-size="24.00">exp: x</text>
<text text-anchor="middle" x="1025" y="-534.4" font-family="Times Roman,serif" font-size="24.00">value: 1.032905</text>
</g>
<!-- 21616208&#45;&gt;24988336 -->
<g id="edge63" class="edge"><title>21616208&#45;&gt;24988336</title>
<path fill="none" stroke="black" d="M1058.6,-447.505C1053.52,-463.904 1047.75,-482.521 1042.45,-499.645"/>
<polygon fill="black" stroke="black" points="1039.01,-498.94 1039.39,-509.528 1045.69,-501.011 1039.01,-498.94"/>
</g>
<!-- 20391696 -->
<g id="node4" class="node"><title>20391696</title>
<ellipse fill="#e5e5e5" stroke="black" cx="1097" cy="-292" rx="99.9096" ry="26.163"/>
<text text-anchor="middle" x="1097" y="-284.9" font-family="Times Roman,serif" font-size="24.00">request: []</text>
</g>
<!-- 20391696&#45;&gt;21616208 -->
<g id="edge17" class="edge"><title>20391696&#45;&gt;21616208</title>
<path fill="none" stroke="black" d="M1091.25,-318.108C1089.5,-326.064 1087.5,-335.139 1085.49,-344.297"/>
<polygon fill="black" stroke="black" points="1082.03,-343.7 1083.3,-354.218 1088.87,-345.205 1082.03,-343.7"/>
</g>
<!-- 19076864 -->
<g id="node5" class="node"><title>19076864</title>
<ellipse fill="#e5e5e5" stroke="black" cx="1299" cy="-183" rx="154.149" ry="46.669"/>
<text text-anchor="middle" x="1299" y="-190.4" font-family="Times Roman,serif" font-size="24.00">exp: snormal</text>
<text text-anchor="middle" x="1299" y="-161.4" font-family="Times Roman,serif" font-size="24.00">value: sp:normal</text>
</g>
<!-- 19076864&#45;&gt;21616208 -->
<g id="edge7" class="edge"><title>19076864&#45;&gt;21616208</title>
<path fill="none" stroke="black" d="M1273.8,-229.068C1257.04,-256.963 1233.16,-292.044 1206,-318 1193.05,-330.376 1177.97,-341.874 1162.71,-352.128"/>
<polygon fill="black" stroke="black" points="1160.66,-349.282 1154.22,-357.694 1164.5,-355.135 1160.66,-349.282"/>
</g>
<!-- 19076864&#45;&gt;20391696 -->
<g id="edge9" class="edge"><title>19076864&#45;&gt;20391696</title>
<path fill="none" stroke="black" d="M1223.78,-223.588C1199.14,-236.887 1172.29,-251.371 1149.68,-263.574"/>
<polygon fill="black" stroke="black" points="1147.73,-260.65 1140.59,-268.479 1151.05,-266.81 1147.73,-260.65"/>
</g>
<!-- 28719440 -->
<g id="node6" class="node"><title>28719440</title>
<ellipse fill="#e5e5e5" stroke="black" cx="978" cy="-183" rx="149.2" ry="46.669"/>
<text text-anchor="middle" x="978" y="-190.4" font-family="Times Roman,serif" font-size="24.00">exp: 0.000000</text>
<text text-anchor="middle" x="978" y="-161.4" font-family="Times Roman,serif" font-size="24.00">value: 0.000000</text>
</g>
<!-- 28719440&#45;&gt;21616208 -->
<g id="edge13" class="edge"><title>28719440&#45;&gt;21616208</title>
<path fill="none" stroke="black" d="M973.488,-229.73C972.787,-256.713 975.257,-290.621 988,-318 993.032,-328.81 1000.13,-338.971 1008.09,-348.224"/>
<polygon fill="black" stroke="black" points="1005.65,-350.737 1014.97,-355.778 1010.83,-346.026 1005.65,-350.737"/>
</g>
<!-- 28719440&#45;&gt;20391696 -->
<g id="edge15" class="edge"><title>28719440&#45;&gt;20391696</title>
<path fill="none" stroke="black" d="M1026.06,-227.02C1038.11,-238.062 1050.82,-249.7 1062.09,-260.028"/>
<polygon fill="black" stroke="black" points="1059.91,-262.772 1069.65,-266.945 1064.64,-257.61 1059.91,-262.772"/>
</g>
<!-- 23610064 -->
<g id="node8" class="node"><title>23610064</title>
<ellipse fill="firebrick" stroke="black" cx="1124" cy="-774" rx="149.907" ry="46.669"/>
<text text-anchor="middle" x="1124" y="-781.4" font-family="Times Roman,serif" font-size="24.00">exp: (snormal x)</text>
<text text-anchor="middle" x="1124" y="-752.4" font-family="Times Roman,serif" font-size="24.00">value: </text>
</g>
<!-- 21571136 -->
<g id="node19" class="node"><title>21571136</title>
<ellipse fill="gold" stroke="black" cx="1105" cy="-929" rx="68.7979" ry="46.669"/>
<text text-anchor="middle" x="1105" y="-936.4" font-family="Times Roman,serif" font-size="24.00">exp: y</text>
<text text-anchor="middle" x="1105" y="-907.4" font-family="Times Roman,serif" font-size="24.00">value: </text>
</g>
<!-- 23610064&#45;&gt;21571136 -->
<g id="edge39" class="edge"><title>23610064&#45;&gt;21571136</title>
<path fill="none" stroke="black" d="M1118.3,-820.505C1116.31,-836.751 1114.05,-855.173 1111.97,-872.165"/>
<polygon fill="black" stroke="black" points="1108.44,-872.176 1110.7,-882.528 1115.39,-873.028 1108.44,-872.176"/>
</g>
<!-- 24940288 -->
<g id="node9" class="node"><title>24940288</title>
<ellipse fill="#999999" stroke="black" cx="1144" cy="-665" rx="99.9096" ry="26.163"/>
<text text-anchor="middle" x="1144" y="-657.9" font-family="Times Roman,serif" font-size="24.00">request: []</text>
</g>
<!-- 24940288&#45;&gt;23610064 -->
<g id="edge65" class="edge"><title>24940288&#45;&gt;23610064</title>
<path fill="none" stroke="black" d="M1139.21,-691.108C1137.75,-699.064 1136.08,-708.139 1134.4,-717.297"/>
<polygon fill="black" stroke="black" points="1130.95,-716.751 1132.58,-727.218 1137.83,-718.014 1130.95,-716.751"/>
</g>
<!-- 25014224 -->
<g id="node10" class="node"><title>25014224</title>
<ellipse fill="#999999" stroke="black" cx="1346" cy="-556" rx="154.149" ry="46.669"/>
<text text-anchor="middle" x="1346" y="-563.4" font-family="Times Roman,serif" font-size="24.00">exp: snormal</text>
<text text-anchor="middle" x="1346" y="-534.4" font-family="Times Roman,serif" font-size="24.00">value: sp:normal</text>
</g>
<!-- 25014224&#45;&gt;23610064 -->
<g id="edge53" class="edge"><title>25014224&#45;&gt;23610064</title>
<path fill="none" stroke="black" d="M1320.67,-601.936C1303.86,-629.782 1279.98,-664.857 1253,-691 1239.16,-704.414 1222.83,-716.878 1206.53,-727.857"/>
<polygon fill="black" stroke="black" points="1204.45,-725.037 1198.02,-733.46 1208.3,-730.883 1204.45,-725.037"/>
</g>
<!-- 25014224&#45;&gt;24940288 -->
<g id="edge55" class="edge"><title>25014224&#45;&gt;24940288</title>
<path fill="none" stroke="black" d="M1270.78,-596.588C1246.14,-609.887 1219.29,-624.371 1196.68,-636.574"/>
<polygon fill="black" stroke="black" points="1194.73,-633.65 1187.59,-641.479 1198.05,-639.81 1194.73,-633.65"/>
</g>
<!-- 24988336&#45;&gt;23610064 -->
<g id="edge59" class="edge"><title>24988336&#45;&gt;23610064</title>
<path fill="none" stroke="black" d="M1020.26,-602.525C1019.46,-629.597 1021.89,-663.663 1035,-691 1040.68,-702.841 1048.85,-713.826 1057.96,-723.671"/>
<polygon fill="black" stroke="black" points="1055.6,-726.262 1065.09,-730.973 1060.61,-721.372 1055.6,-726.262"/>
</g>
<!-- 24988336&#45;&gt;24940288 -->
<g id="edge61" class="edge"><title>24988336&#45;&gt;24940288</title>
<path fill="none" stroke="black" d="M1073.06,-600.02C1085.11,-611.062 1097.82,-622.7 1109.09,-633.028"/>
<polygon fill="black" stroke="black" points="1106.91,-635.772 1116.65,-639.945 1111.64,-630.61 1106.91,-635.772"/>
</g>
<!-- 23304768 -->
<g id="node13" class="node"><title>23304768</title>
<ellipse fill="#63b8ff" stroke="black" cx="843" cy="-1365" rx="656.902" ry="46.669"/>
<text text-anchor="middle" x="843" y="-1372.4" font-family="Times Roman,serif" font-size="24.00">exp: (snormal (branch_exp y (quote (snormal 0.000000)) (quote 5.000000)))</text>
<text text-anchor="middle" x="843" y="-1343.4" font-family="Times Roman,serif" font-size="24.00">value: 1.773910</text>
</g>
<!-- 21586576 -->
<g id="node26" class="node"><title>21586576</title>
<ellipse fill="#e5e5e5" stroke="black" cx="934" cy="-1520" rx="149.2" ry="46.669"/>
<text text-anchor="middle" x="934" y="-1527.4" font-family="Times Roman,serif" font-size="24.00">exp: w</text>
<text text-anchor="middle" x="934" y="-1498.4" font-family="Times Roman,serif" font-size="24.00">value: 1.773910</text>
</g>
<!-- 23304768&#45;&gt;21586576 -->
<g id="edge77" class="edge"><title>23304768&#45;&gt;21586576</title>
<path fill="none" stroke="black" d="M870.303,-1411.51C880.2,-1428.36 891.473,-1447.56 901.755,-1465.08"/>
<polygon fill="black" stroke="black" points="898.949,-1467.21 907.03,-1474.06 904.985,-1463.67 898.949,-1467.21"/>
</g>
<!-- 24625888 -->
<g id="node14" class="node"><title>24625888</title>
<ellipse fill="#63b8ff" stroke="black" cx="843" cy="-1256" rx="99.9096" ry="26.163"/>
<text text-anchor="middle" x="843" y="-1248.9" font-family="Times Roman,serif" font-size="24.00">request: []</text>
</g>
<!-- 24625888&#45;&gt;23304768 -->
<g id="edge51" class="edge"><title>24625888&#45;&gt;23304768</title>
<path fill="none" stroke="black" d="M843,-1282.11C843,-1289.98 843,-1298.95 843,-1308"/>
<polygon fill="black" stroke="black" points="839.5,-1308.22 843,-1318.22 846.5,-1308.22 839.5,-1308.22"/>
</g>
<!-- 23710592 -->
<g id="node15" class="node"><title>23710592</title>
<ellipse fill="#999999" stroke="black" cx="1346" cy="-1147" rx="154.149" ry="46.669"/>
<text text-anchor="middle" x="1346" y="-1154.4" font-family="Times Roman,serif" font-size="24.00">exp: snormal</text>
<text text-anchor="middle" x="1346" y="-1125.4" font-family="Times Roman,serif" font-size="24.00">value: sp:normal</text>
</g>
<!-- 23710592&#45;&gt;23304768 -->
<g id="edge19" class="edge"><title>23710592&#45;&gt;23304768</title>
<path fill="none" stroke="black" d="M1257.81,-1185.22C1174.59,-1221.29 1049.35,-1275.57 958.255,-1315.05"/>
<polygon fill="black" stroke="black" points="956.777,-1311.87 948.993,-1319.06 959.561,-1318.3 956.777,-1311.87"/>
</g>
<!-- 23710592&#45;&gt;24625888 -->
<g id="edge21" class="edge"><title>23710592&#45;&gt;24625888</title>
<path fill="none" stroke="black" d="M1237.24,-1180C1219.2,-1185 1200.63,-1189.86 1183,-1194 1101.3,-1213.18 1007.38,-1229.91 938.98,-1241.14"/>
<polygon fill="black" stroke="black" points="938.383,-1237.69 929.078,-1242.76 939.511,-1244.6 938.383,-1237.69"/>
</g>
<!-- 24939776 -->
<g id="node16" class="node"><title>24939776</title>
<ellipse fill="gold" stroke="black" cx="604" cy="-1147" rx="570.135" ry="46.669"/>
<text text-anchor="middle" x="604" y="-1154.4" font-family="Times Roman,serif" font-size="24.00">exp: (branch_exp y (quote (snormal 0.000000)) (quote 5.000000))</text>
<text text-anchor="middle" x="604" y="-1125.4" font-family="Times Roman,serif" font-size="24.00">value: </text>
</g>
<!-- 24939776&#45;&gt;23304768 -->
<g id="edge25" class="edge"><title>24939776&#45;&gt;23304768</title>
<path fill="none" stroke="black" d="M645.383,-1193.41C670.142,-1220.29 702.775,-1254.19 734,-1282 745.439,-1292.19 758.019,-1302.5 770.444,-1312.23"/>
<polygon fill="black" stroke="black" points="768.526,-1315.17 778.573,-1318.54 772.816,-1309.64 768.526,-1315.17"/>
</g>
<!-- 24939776&#45;&gt;24625888 -->
<g id="edge27" class="edge"><title>24939776&#45;&gt;24625888</title>
<path fill="none" stroke="black" d="M704.665,-1192.91C731.694,-1205.24 760.042,-1218.17 783.989,-1229.09"/>
<polygon fill="black" stroke="black" points="782.729,-1232.36 793.279,-1233.32 785.633,-1225.99 782.729,-1232.36"/>
</g>
<!-- 22582864 -->
<g id="node17" class="node"><title>22582864</title>
<ellipse fill="gold" stroke="black" cx="731" cy="-1038" rx="87.1802" ry="26.163"/>
<text text-anchor="middle" x="731" y="-1030.9" font-family="Times Roman,serif" font-size="24.00">request: </text>
</g>
<!-- 22582864&#45;&gt;24939776 -->
<g id="edge49" class="edge"><title>22582864&#45;&gt;24939776</title>
<path fill="none" stroke="black" d="M702.182,-1062.73C691.333,-1072.04 678.537,-1083.03 665.83,-1093.93"/>
<polygon fill="black" stroke="black" points="663.256,-1091.53 657.947,-1100.7 667.815,-1096.84 663.256,-1091.53"/>
</g>
<!-- 21801008 -->
<g id="node18" class="node"><title>21801008</title>
<ellipse fill="#999999" stroke="black" cx="1346" cy="-929" rx="154.149" ry="46.669"/>
<text text-anchor="middle" x="1346" y="-936.4" font-family="Times Roman,serif" font-size="24.00">exp: branch_exp</text>
<text text-anchor="middle" x="1346" y="-907.4" font-family="Times Roman,serif" font-size="24.00">value: sp:branch</text>
</g>
<!-- 21801008&#45;&gt;24939776 -->
<g id="edge29" class="edge"><title>21801008&#45;&gt;24939776</title>
<path fill="none" stroke="black" d="M1237.73,-962.085C1146.87,-989.719 1013.62,-1029.95 897,-1064 856.946,-1075.69 813.741,-1088.07 773.134,-1099.59"/>
<polygon fill="black" stroke="black" points="772.087,-1096.25 763.421,-1102.34 773.996,-1102.98 772.087,-1096.25"/>
</g>
<!-- 21801008&#45;&gt;22582864 -->
<g id="edge31" class="edge"><title>21801008&#45;&gt;22582864</title>
<path fill="none" stroke="black" d="M1238.27,-962.432C1219.94,-967.438 1201.01,-972.189 1183,-976 1060.13,-1002 916.073,-1019.58 824.206,-1029.19"/>
<polygon fill="black" stroke="black" points="823.684,-1025.73 814.098,-1030.24 824.406,-1032.69 823.684,-1025.73"/>
</g>
<!-- 21571136&#45;&gt;24939776 -->
<g id="edge35" class="edge"><title>21571136&#45;&gt;24939776</title>
<path fill="none" stroke="black" d="M1054.35,-960.796C1045.35,-966.075 1035.98,-971.342 1027,-976 935.424,-1023.49 827.552,-1066.92 743.662,-1098.12"/>
<polygon fill="black" stroke="black" points="742.233,-1094.92 734.072,-1101.67 744.665,-1101.48 742.233,-1094.92"/>
</g>
<!-- 21571136&#45;&gt;22582864 -->
<g id="edge37" class="edge"><title>21571136&#45;&gt;22582864</title>
<path fill="none" stroke="black" d="M1055.93,-961.933C1046.6,-967.212 1036.71,-972.184 1027,-976 960.941,-1001.96 882.112,-1017.79 822.419,-1026.95"/>
<polygon fill="black" stroke="black" points="821.628,-1023.53 812.257,-1028.47 822.666,-1030.45 821.628,-1023.53"/>
</g>
<!-- 22579328 -->
<g id="node20" class="node"><title>22579328</title>
<ellipse fill="#999999" stroke="black" cx="731" cy="-929" rx="287.085" ry="46.669"/>
<text text-anchor="middle" x="731" y="-936.4" font-family="Times Roman,serif" font-size="24.00">exp: (quote (snormal 0.000000))</text>
<text text-anchor="middle" x="731" y="-907.4" font-family="Times Roman,serif" font-size="24.00">value: (snormal 0.000000)</text>
</g>
<!-- 22579328&#45;&gt;24939776 -->
<g id="edge41" class="edge"><title>22579328&#45;&gt;24939776</title>
<path fill="none" stroke="black" d="M666.681,-974.477C654.664,-985.55 643.294,-998.22 635,-1012 620.885,-1035.45 613.194,-1064.73 609.004,-1090.03"/>
<polygon fill="black" stroke="black" points="605.496,-1089.82 607.464,-1100.23 612.417,-1090.87 605.496,-1089.82"/>
</g>
<!-- 22579328&#45;&gt;22582864 -->
<g id="edge43" class="edge"><title>22579328&#45;&gt;22582864</title>
<path fill="none" stroke="black" d="M731,-975.542C731,-984.249 731,-993.232 731,-1001.58"/>
<polygon fill="black" stroke="black" points="727.5,-1001.74 731,-1011.74 734.5,-1001.74 727.5,-1001.74"/>
</g>
<!-- 22672608 -->
<g id="node21" class="node"><title>22672608</title>
<ellipse fill="#999999" stroke="black" cx="225" cy="-929" rx="200.818" ry="46.669"/>
<text text-anchor="middle" x="225" y="-936.4" font-family="Times Roman,serif" font-size="24.00">exp: (quote 5.000000)</text>
<text text-anchor="middle" x="225" y="-907.4" font-family="Times Roman,serif" font-size="24.00">value: 5.000000</text>
</g>
<!-- 22672608&#45;&gt;24939776 -->
<g id="edge45" class="edge"><title>22672608&#45;&gt;24939776</title>
<path fill="none" stroke="black" d="M300.331,-972.33C362.081,-1007.85 449.617,-1058.2 514.853,-1095.72"/>
<polygon fill="black" stroke="black" points="513.491,-1098.98 523.905,-1100.93 516.982,-1092.91 513.491,-1098.98"/>
</g>
<!-- 22672608&#45;&gt;22582864 -->
<g id="edge47" class="edge"><title>22672608&#45;&gt;22582864</title>
<path fill="none" stroke="black" d="M368.973,-961.497C391.076,-966.406 413.64,-971.373 435,-976 507.276,-991.657 589.625,-1008.85 649.083,-1021.16"/>
<polygon fill="black" stroke="black" points="648.665,-1024.64 659.166,-1023.24 650.082,-1017.79 648.665,-1024.64"/>
</g>
<!-- 26590768 -->
<g id="node23" class="node"><title>26590768</title>
<ellipse fill="#e5e5e5" stroke="black" cx="1104" cy="-1738" rx="154.149" ry="46.669"/>
<text text-anchor="middle" x="1104" y="-1745.4" font-family="Times Roman,serif" font-size="24.00">exp: (snormal w)</text>
<text text-anchor="middle" x="1104" y="-1716.4" font-family="Times Roman,serif" font-size="24.00">value: 2.262583</text>
</g>
<!-- 21600256 -->
<g id="node24" class="node"><title>21600256</title>
<ellipse fill="#e5e5e5" stroke="black" cx="1104" cy="-1629" rx="99.9096" ry="26.163"/>
<text text-anchor="middle" x="1104" y="-1621.9" font-family="Times Roman,serif" font-size="24.00">request: []</text>
</g>
<!-- 21600256&#45;&gt;26590768 -->
<g id="edge79" class="edge"><title>21600256&#45;&gt;26590768</title>
<path fill="none" stroke="black" d="M1104,-1655.11C1104,-1662.98 1104,-1671.95 1104,-1681"/>
<polygon fill="black" stroke="black" points="1100.5,-1681.22 1104,-1691.22 1107.5,-1681.22 1100.5,-1681.22"/>
</g>
<!-- 24603856 -->
<g id="node25" class="node"><title>24603856</title>
<ellipse fill="#e5e5e5" stroke="black" cx="1255" cy="-1520" rx="154.149" ry="46.669"/>
<text text-anchor="middle" x="1255" y="-1527.4" font-family="Times Roman,serif" font-size="24.00">exp: snormal</text>
<text text-anchor="middle" x="1255" y="-1498.4" font-family="Times Roman,serif" font-size="24.00">value: sp:normal</text>
</g>
<!-- 24603856&#45;&gt;26590768 -->
<g id="edge67" class="edge"><title>24603856&#45;&gt;26590768</title>
<path fill="none" stroke="black" d="M1247.86,-1566.6C1241.93,-1594.19 1231.37,-1628.76 1213,-1655 1204.1,-1667.71 1192.67,-1679.33 1180.56,-1689.59"/>
<polygon fill="black" stroke="black" points="1178.07,-1687.1 1172.53,-1696.13 1182.49,-1692.53 1178.07,-1687.1"/>
</g>
<!-- 24603856&#45;&gt;21600256 -->
<g id="edge69" class="edge"><title>24603856&#45;&gt;21600256</title>
<path fill="none" stroke="black" d="M1195.32,-1563.08C1178.91,-1574.93 1161.45,-1587.53 1146.24,-1598.51"/>
<polygon fill="black" stroke="black" points="1144.1,-1595.74 1138.04,-1604.43 1148.2,-1601.41 1144.1,-1595.74"/>
</g>
<!-- 21586576&#45;&gt;26590768 -->
<g id="edge73" class="edge"><title>21586576&#45;&gt;26590768</title>
<path fill="none" stroke="black" d="M948.538,-1566.59C958.657,-1594.17 974.1,-1628.74 995,-1655 1004.94,-1667.48 1017.15,-1679.12 1029.76,-1689.51"/>
<polygon fill="black" stroke="black" points="1027.65,-1692.3 1037.65,-1695.8 1032.02,-1686.83 1027.65,-1692.3"/>
</g>
<!-- 21586576&#45;&gt;21600256 -->
<g id="edge75" class="edge"><title>21586576&#45;&gt;21600256</title>
<path fill="none" stroke="black" d="M999.24,-1561.83C1018.71,-1574.32 1039.65,-1587.74 1057.65,-1599.28"/>
<polygon fill="black" stroke="black" points="1055.92,-1602.33 1066.23,-1604.78 1059.7,-1596.44 1055.92,-1602.33"/>
</g>
<!-- 26990448 -->
<g id="node29" class="node"><title>26990448</title>
<ellipse fill="none" stroke="black" cx="1584" cy="-19" rx="62.9325" ry="18.3848"/>
<text text-anchor="middle" x="1584" y="-15.4" font-family="Times Roman,serif" font-size="14.00">26990448</text>
</g>
<!-- 26990448&#45;&gt;19076864 -->
<g id="edge11" class="edge"><title>26990448&#45;&gt;19076864</title>
<path fill="none" stroke="black" d="M1524.41,-25.3171C1502.4,-29.2613 1477.78,-35.653 1457,-46 1415.05,-66.8824 1375.24,-101.53 1346.08,-130.756"/>
<polygon fill="black" stroke="black" points="1343.41,-128.473 1338.9,-138.058 1348.4,-133.382 1343.41,-128.473"/>
</g>
<!-- 26990448&#45;&gt;25014224 -->
<g id="edge57" class="edge"><title>26990448&#45;&gt;25014224</title>
<path fill="none" stroke="black" d="M1582.86,-37.6323C1578.21,-101.162 1556.28,-313.24 1465,-456 1452.77,-475.124 1435.73,-492.477 1418.36,-507.159"/>
<polygon fill="black" stroke="black" points="1415.88,-504.664 1410.37,-513.713 1420.32,-510.075 1415.88,-504.664"/>
</g>
<!-- 26990448&#45;&gt;23710592 -->
<g id="edge23" class="edge"><title>26990448&#45;&gt;23710592</title>
<path fill="none" stroke="black" d="M1595.15,-37.4369C1620.05,-80.4105 1678,-191.245 1678,-292 1678,-292 1678,-292 1678,-929 1678,-1028.9 1571.68,-1085.54 1479.37,-1115.9"/>
<polygon fill="black" stroke="black" points="1478.08,-1112.64 1469.62,-1119.02 1480.22,-1119.3 1478.08,-1112.64"/>
</g>
<!-- 26990448&#45;&gt;24603856 -->
<g id="edge71" class="edge"><title>26990448&#45;&gt;24603856</title>
<path fill="none" stroke="black" d="M1630.51,-31.5794C1637.81,-35.2501 1644.68,-39.9624 1650,-46 1724.84,-130.933 1716,-178.8 1716,-292 1716,-292 1716,-292 1716,-1256 1716,-1402.33 1538.94,-1468.68 1404.28,-1497.99"/>
<polygon fill="black" stroke="black" points="1403.31,-1494.61 1394.25,-1500.12 1404.76,-1501.46 1403.31,-1494.61"/>
</g>
<!-- 26586752 -->
<g id="node41" class="node"><title>26586752</title>
<ellipse fill="none" stroke="black" cx="1587" cy="-774" rx="62.9325" ry="18.3848"/>
<text text-anchor="middle" x="1587" y="-770.4" font-family="Times Roman,serif" font-size="14.00">26586752</text>
</g>
<!-- 26586752&#45;&gt;21801008 -->
<g id="edge33" class="edge"><title>26586752&#45;&gt;21801008</title>
<path fill="none" stroke="black" d="M1564.41,-791.397C1549.71,-802.501 1530.01,-817.008 1512,-829 1484.58,-847.257 1453.86,-866.176 1426.36,-882.579"/>
<polygon fill="black" stroke="black" points="1424.37,-879.695 1417.56,-887.813 1427.94,-885.712 1424.37,-879.695"/>
</g>
</g>
</svg>
