<?xml version="1.0" encoding="UTF-8" standalone="no"?>
<!DOCTYPE svg PUBLIC "-//W3C//DTD SVG 1.1//EN"
 "http://www.w3.org/Graphics/SVG/1.1/DTD/svg11.dtd">
<!-- Generated by graphviz version 2.26.3 (20100126.1600)
 -->
<!-- Title: _anonymous_0 Pages: 1 -->
<svg width="2407pt" height="1817pt"
 viewBox="0.00 0.00 2406.69 1817.00" xmlns="http://www.w3.org/2000/svg" xmlns:xlink="http://www.w3.org/1999/xlink">
<g id="graph1" class="graph" transform="scale(1 1) rotate(0) translate(4 1813)">
<title>_anonymous_0</title>
<polygon fill="white" stroke="white" points="-4,5 -4,-1813 2403.69,-1813 2403.69,5 -4,5"/>
<g id="graph2" class="cluster"><title>cluster1</title>
<polygon fill="none" stroke="black" points="8,-46 8,-1801 1676,-1801 1676,-46 8,-46"/>
<text text-anchor="middle" x="842" y="-57.4" font-family="Times Roman,serif" font-size="24.00">Venture Families</text>
</g>
<g id="graph3" class="cluster"><title>cluster2</title>
<polygon fill="none" stroke="black" points="945,-91 945,-456 1585,-456 1585,-91 945,-91"/>
<text text-anchor="middle" x="1265" y="-102.4" font-family="Times Roman,serif" font-size="24.00">1</text>
</g>
<g id="graph4" class="cluster"><title>cluster3</title>
<polygon fill="none" stroke="black" points="998,-464 998,-829 1638,-829 1638,-464 998,-464"/>
<text text-anchor="middle" x="1318" y="-475.4" font-family="Times Roman,serif" font-size="24.00">2</text>
</g>
<g id="graph5" class="cluster"><title>cluster4</title>
<polygon fill="none" stroke="black" points="16,-837 16,-1420 1668,-1420 1668,-837 16,-837"/>
<text text-anchor="middle" x="842" y="-848.4" font-family="Times Roman,serif" font-size="24.00">3</text>
</g>
<g id="graph6" class="cluster"><title>cluster5</title>
<polygon fill="none" stroke="black" points="937,-1428 937,-1793 1577,-1793 1577,-1428 937,-1428"/>
<text text-anchor="middle" x="1257" y="-1439.4" font-family="Times Roman,serif" font-size="24.00">4</text>
</g>
<g id="graph7" class="cluster"><title>cluster6</title>
<polygon fill="none" stroke="black" points="1715,-128 1715,-456 2355,-456 2355,-128 1715,-128"/>
</g>
<!-- 21616208 -->
<g id="node3" class="node"><title>21616208</title>
<ellipse fill="#e5e5e5" stroke="black" cx="1197" cy="-401" rx="219.91" ry="46.669"/>
<text text-anchor="middle" x="1197" y="-408.4" font-family="Times Roman,serif" font-size="24.00">exp: (snormal 0.000000)</text>
<text text-anchor="middle" x="1197" y="-379.4" font-family="Times Roman,serif" font-size="24.00">value: 1.032905</text>
</g>
<!-- 24988336 -->
<g id="node11" class="node"><title>24988336</title>
<ellipse fill="#e5e5e5" stroke="black" cx="1155" cy="-556" rx="149.2" ry="46.669"/>
<text text-anchor="middle" x="1155" y="-563.4" font-family="Times Roman,serif" font-size="24.00">exp: x</text>
<text text-anchor="middle" x="1155" y="-534.4" font-family="Times Roman,serif" font-size="24.00">value: 1.032905</text>
</g>
<!-- 21616208&#45;&gt;24988336 -->
<g id="edge80" class="edge"><title>21616208&#45;&gt;24988336</title>
<path fill="none" stroke="black" d="M1184.4,-447.505C1179.95,-463.904 1174.91,-482.521 1170.27,-499.645"/>
<polygon fill="black" stroke="black" points="1166.83,-498.96 1167.59,-509.528 1173.59,-500.791 1166.83,-498.96"/>
</g>
<!-- 20391696 -->
<g id="node4" class="node"><title>20391696</title>
<ellipse fill="#e5e5e5" stroke="black" cx="1221" cy="-292" rx="99.9096" ry="26.163"/>
<text text-anchor="middle" x="1221" y="-284.9" font-family="Times Roman,serif" font-size="24.00">request: []</text>
</g>
<!-- 20391696&#45;&gt;21616208 -->
<g id="edge30" class="edge"><title>20391696&#45;&gt;21616208</title>
<path fill="none" stroke="black" d="M1215.25,-318.108C1213.5,-326.064 1211.5,-335.139 1209.49,-344.297"/>
<polygon fill="black" stroke="black" points="1206.03,-343.7 1207.3,-354.218 1212.87,-345.205 1206.03,-343.7"/>
</g>
<!-- 19076864 -->
<g id="node5" class="node"><title>19076864</title>
<ellipse fill="#e5e5e5" stroke="black" cx="1423" cy="-183" rx="154.149" ry="46.669"/>
<text text-anchor="middle" x="1423" y="-190.4" font-family="Times Roman,serif" font-size="24.00">exp: snormal</text>
<text text-anchor="middle" x="1423" y="-161.4" font-family="Times Roman,serif" font-size="24.00">value: sp:normal</text>
</g>
<!-- 19076864&#45;&gt;21616208 -->
<g id="edge20" class="edge"><title>19076864&#45;&gt;21616208</title>
<path fill="none" stroke="black" d="M1397.8,-229.068C1381.04,-256.963 1357.16,-292.044 1330,-318 1317.05,-330.376 1301.97,-341.874 1286.71,-352.128"/>
<polygon fill="black" stroke="black" points="1284.66,-349.282 1278.22,-357.694 1288.5,-355.135 1284.66,-349.282"/>
</g>
<!-- 19076864&#45;&gt;20391696 -->
<g id="edge22" class="edge"><title>19076864&#45;&gt;20391696</title>
<path fill="none" stroke="black" d="M1347.78,-223.588C1323.14,-236.887 1296.29,-251.371 1273.68,-263.574"/>
<polygon fill="black" stroke="black" points="1271.73,-260.65 1264.59,-268.479 1275.05,-266.81 1271.73,-260.65"/>
</g>
<!-- 28719440 -->
<g id="node6" class="node"><title>28719440</title>
<ellipse fill="#e5e5e5" stroke="black" cx="1102" cy="-183" rx="149.2" ry="46.669"/>
<text text-anchor="middle" x="1102" y="-190.4" font-family="Times Roman,serif" font-size="24.00">exp: 0.000000</text>
<text text-anchor="middle" x="1102" y="-161.4" font-family="Times Roman,serif" font-size="24.00">value: 0.000000</text>
</g>
<!-- 28719440&#45;&gt;21616208 -->
<g id="edge26" class="edge"><title>28719440&#45;&gt;21616208</title>
<path fill="none" stroke="black" d="M1097.49,-229.73C1096.79,-256.713 1099.26,-290.621 1112,-318 1117.03,-328.81 1124.13,-338.971 1132.09,-348.224"/>
<polygon fill="black" stroke="black" points="1129.65,-350.737 1138.97,-355.778 1134.83,-346.026 1129.65,-350.737"/>
</g>
<!-- 28719440&#45;&gt;20391696 -->
<g id="edge28" class="edge"><title>28719440&#45;&gt;20391696</title>
<path fill="none" stroke="black" d="M1150.06,-227.02C1162.11,-238.062 1174.82,-249.7 1186.09,-260.028"/>
<polygon fill="black" stroke="black" points="1183.91,-262.772 1193.65,-266.945 1188.64,-257.61 1183.91,-262.772"/>
</g>
<!-- 23610064 -->
<g id="node8" class="node"><title>23610064</title>
<ellipse fill="#e5e5e5" stroke="black" cx="1229" cy="-774" rx="149.907" ry="46.669"/>
<text text-anchor="middle" x="1229" y="-781.4" font-family="Times Roman,serif" font-size="24.00">exp: (snormal x)</text>
<text text-anchor="middle" x="1229" y="-752.4" font-family="Times Roman,serif" font-size="24.00">value: 0.310250</text>
</g>
<!-- 21571136 -->
<g id="node19" class="node"><title>21571136</title>
<ellipse fill="#e5e5e5" stroke="black" cx="1185" cy="-929" rx="149.2" ry="46.669"/>
<text text-anchor="middle" x="1185" y="-936.4" font-family="Times Roman,serif" font-size="24.00">exp: y</text>
<text text-anchor="middle" x="1185" y="-907.4" font-family="Times Roman,serif" font-size="24.00">value: 0.310250</text>
</g>
<!-- 23610064&#45;&gt;21571136 -->
<g id="edge52" class="edge"><title>23610064&#45;&gt;21571136</title>
<path fill="none" stroke="black" d="M1215.8,-820.505C1211.14,-836.904 1205.86,-855.521 1201,-872.645"/>
<polygon fill="black" stroke="black" points="1197.56,-871.952 1198.19,-882.528 1204.29,-873.864 1197.56,-871.952"/>
</g>
<!-- 24940288 -->
<g id="node9" class="node"><title>24940288</title>
<ellipse fill="#e5e5e5" stroke="black" cx="1274" cy="-665" rx="99.9096" ry="26.163"/>
<text text-anchor="middle" x="1274" y="-657.9" font-family="Times Roman,serif" font-size="24.00">request: []</text>
</g>
<!-- 24940288&#45;&gt;23610064 -->
<g id="edge82" class="edge"><title>24940288&#45;&gt;23610064</title>
<path fill="none" stroke="black" d="M1263.22,-691.108C1259.83,-699.327 1255.94,-708.742 1252.03,-718.208"/>
<polygon fill="black" stroke="black" points="1248.72,-717.071 1248.14,-727.649 1255.19,-719.742 1248.72,-717.071"/>
</g>
<!-- 25014224 -->
<g id="node10" class="node"><title>25014224</title>
<ellipse fill="#e5e5e5" stroke="black" cx="1476" cy="-556" rx="154.149" ry="46.669"/>
<text text-anchor="middle" x="1476" y="-563.4" font-family="Times Roman,serif" font-size="24.00">exp: snormal</text>
<text text-anchor="middle" x="1476" y="-534.4" font-family="Times Roman,serif" font-size="24.00">value: sp:normal</text>
</g>
<!-- 25014224&#45;&gt;23610064 -->
<g id="edge70" class="edge"><title>25014224&#45;&gt;23610064</title>
<path fill="none" stroke="black" d="M1451.74,-602.047C1435.18,-630.279 1411.18,-665.731 1383,-691 1365.96,-706.278 1345.61,-719.752 1325.37,-731.162"/>
<polygon fill="black" stroke="black" points="1323.49,-728.206 1316.41,-736.09 1326.86,-734.34 1323.49,-728.206"/>
</g>
<!-- 25014224&#45;&gt;24940288 -->
<g id="edge72" class="edge"><title>25014224&#45;&gt;24940288</title>
<path fill="none" stroke="black" d="M1400.78,-596.588C1376.14,-609.887 1349.29,-624.371 1326.68,-636.574"/>
<polygon fill="black" stroke="black" points="1324.73,-633.65 1317.59,-641.479 1328.05,-639.81 1324.73,-633.65"/>
</g>
<!-- 24988336&#45;&gt;23610064 -->
<g id="edge76" class="edge"><title>24988336&#45;&gt;23610064</title>
<path fill="none" stroke="black" d="M1151.94,-602.741C1151.77,-629.417 1154.29,-663.014 1165,-691 1168.93,-701.279 1174.58,-711.334 1180.91,-720.698"/>
<polygon fill="black" stroke="black" points="1178.24,-722.975 1186.89,-729.088 1183.94,-718.913 1178.24,-722.975"/>
</g>
<!-- 24988336&#45;&gt;24940288 -->
<g id="edge78" class="edge"><title>24988336&#45;&gt;24940288</title>
<path fill="none" stroke="black" d="M1203.06,-600.02C1215.11,-611.062 1227.82,-622.7 1239.09,-633.028"/>
<polygon fill="black" stroke="black" points="1236.91,-635.772 1246.65,-639.945 1241.64,-630.61 1236.91,-635.772"/>
</g>
<!-- 23304768 -->
<g id="node13" class="node"><title>23304768</title>
<ellipse fill="#e5e5e5" stroke="black" cx="1003" cy="-1365" rx="656.902" ry="46.669"/>
<text text-anchor="middle" x="1003" y="-1372.4" font-family="Times Roman,serif" font-size="24.00">exp: (snormal (branch_exp y (quote (snormal 0.000000)) (quote 5.000000)))</text>
<text text-anchor="middle" x="1003" y="-1343.4" font-family="Times Roman,serif" font-size="24.00">value: 1.773910</text>
</g>
<!-- 21586576 -->
<g id="node26" class="node"><title>21586576</title>
<ellipse fill="#999999" stroke="black" cx="1094" cy="-1520" rx="149.2" ry="46.669"/>
<text text-anchor="middle" x="1094" y="-1527.4" font-family="Times Roman,serif" font-size="24.00">exp: w</text>
<text text-anchor="middle" x="1094" y="-1498.4" font-family="Times Roman,serif" font-size="24.00">value: 1.773910</text>
</g>
<!-- 23304768&#45;&gt;21586576 -->
<g id="edge94" class="edge"><title>23304768&#45;&gt;21586576</title>
<path fill="none" stroke="black" d="M1030.3,-1411.51C1040.2,-1428.36 1051.47,-1447.56 1061.76,-1465.08"/>
<polygon fill="black" stroke="black" points="1058.95,-1467.21 1067.03,-1474.06 1064.99,-1463.67 1058.95,-1467.21"/>
</g>
<!-- 24625888 -->
<g id="node14" class="node"><title>24625888</title>
<ellipse fill="#e5e5e5" stroke="black" cx="1003" cy="-1256" rx="99.9096" ry="26.163"/>
<text text-anchor="middle" x="1003" y="-1248.9" font-family="Times Roman,serif" font-size="24.00">request: []</text>
</g>
<!-- 24625888&#45;&gt;23304768 -->
<g id="edge68" class="edge"><title>24625888&#45;&gt;23304768</title>
<path fill="none" stroke="black" d="M1003,-1282.11C1003,-1289.98 1003,-1298.95 1003,-1308"/>
<polygon fill="black" stroke="black" points="999.5,-1308.22 1003,-1318.22 1006.5,-1308.22 999.5,-1308.22"/>
</g>
<!-- 23710592 -->
<g id="node15" class="node"><title>23710592</title>
<ellipse fill="#e5e5e5" stroke="black" cx="1506" cy="-1147" rx="154.149" ry="46.669"/>
<text text-anchor="middle" x="1506" y="-1154.4" font-family="Times Roman,serif" font-size="24.00">exp: snormal</text>
<text text-anchor="middle" x="1506" y="-1125.4" font-family="Times Roman,serif" font-size="24.00">value: sp:normal</text>
</g>
<!-- 23710592&#45;&gt;23304768 -->
<g id="edge32" class="edge"><title>23710592&#45;&gt;23304768</title>
<path fill="none" stroke="black" d="M1417.81,-1185.22C1334.59,-1221.29 1209.35,-1275.57 1118.25,-1315.05"/>
<polygon fill="black" stroke="black" points="1116.78,-1311.87 1108.99,-1319.06 1119.56,-1318.3 1116.78,-1311.87"/>
</g>
<!-- 23710592&#45;&gt;24625888 -->
<g id="edge34" class="edge"><title>23710592&#45;&gt;24625888</title>
<path fill="none" stroke="black" d="M1397.24,-1180C1379.2,-1185 1360.63,-1189.86 1343,-1194 1261.3,-1213.18 1167.38,-1229.91 1098.98,-1241.14"/>
<polygon fill="black" stroke="black" points="1098.38,-1237.69 1089.08,-1242.76 1099.51,-1244.6 1098.38,-1237.69"/>
</g>
<!-- 24939776 -->
<g id="node16" class="node"><title>24939776</title>
<ellipse fill="#e5e5e5" stroke="black" cx="764" cy="-1147" rx="570.135" ry="46.669"/>
<text text-anchor="middle" x="764" y="-1154.4" font-family="Times Roman,serif" font-size="24.00">exp: (branch_exp y (quote (snormal 0.000000)) (quote 5.000000))</text>
<text text-anchor="middle" x="764" y="-1125.4" font-family="Times Roman,serif" font-size="24.00">value: 0.233948</text>
</g>
<!-- 24939776&#45;&gt;23304768 -->
<g id="edge38" class="edge"><title>24939776&#45;&gt;23304768</title>
<path fill="none" stroke="black" d="M805.383,-1193.41C830.142,-1220.29 862.775,-1254.19 894,-1282 905.439,-1292.19 918.019,-1302.5 930.444,-1312.23"/>
<polygon fill="black" stroke="black" points="928.526,-1315.17 938.573,-1318.54 932.816,-1309.64 928.526,-1315.17"/>
</g>
<!-- 24939776&#45;&gt;24625888 -->
<g id="edge40" class="edge"><title>24939776&#45;&gt;24625888</title>
<path fill="none" stroke="black" d="M864.665,-1192.91C891.694,-1205.24 920.042,-1218.17 943.989,-1229.09"/>
<polygon fill="black" stroke="black" points="942.729,-1232.36 953.279,-1233.32 945.633,-1225.99 942.729,-1232.36"/>
</g>
<!-- 22582864 -->
<g id="node17" class="node"><title>22582864</title>
<ellipse fill="#e5e5e5" stroke="black" cx="764" cy="-1038" rx="444.77" ry="26.163"/>
<text text-anchor="middle" x="764" y="-1030.9" font-family="Times Roman,serif" font-size="24.00">request: [(22582864, (snormal 0.000000), &lt;env&gt;)]</text>
</g>
<!-- 22582864&#45;&gt;24939776 -->
<g id="edge62" class="edge"><title>22582864&#45;&gt;24939776</title>
<path fill="none" stroke="black" d="M764,-1064.11C764,-1071.98 764,-1080.95 764,-1090"/>
<polygon fill="black" stroke="black" points="760.5,-1090.22 764,-1100.22 767.5,-1090.22 760.5,-1090.22"/>
</g>
<!-- 21574256 -->
<g id="node28" class="node"><title>21574256</title>
<ellipse fill="#e5e5e5" stroke="black" cx="1968" cy="-401" rx="219.91" ry="46.669"/>
<text text-anchor="middle" x="1968" y="-408.4" font-family="Times Roman,serif" font-size="24.00">exp: (snormal 0.000000)</text>
<text text-anchor="middle" x="1968" y="-379.4" font-family="Times Roman,serif" font-size="24.00">value: 0.233948</text>
</g>
<!-- 22582864&#45;&gt;21574256 -->
<g id="edge66" class="edge"><title>22582864&#45;&gt;21574256</title>
<path fill="none" stroke="black" stroke-dasharray="1,5" d="M1073.01,-1019.26C1333.12,-1003.12 1663.78,-981.565 1669,-976 1671.37,-973.477 1668.75,-730.225 1670,-727 1715.3,-610.137 1824.23,-509.608 1897.08,-452.194"/>
<polygon fill="black" stroke="black" points="1899.6,-454.662 1905.33,-445.75 1895.3,-449.144 1899.6,-454.662"/>
</g>
<!-- 21801008 -->
<g id="node18" class="node"><title>21801008</title>
<ellipse fill="#e5e5e5" stroke="black" cx="1506" cy="-929" rx="154.149" ry="46.669"/>
<text text-anchor="middle" x="1506" y="-936.4" font-family="Times Roman,serif" font-size="24.00">exp: branch_exp</text>
<text text-anchor="middle" x="1506" y="-907.4" font-family="Times Roman,serif" font-size="24.00">value: sp:branch</text>
</g>
<!-- 21801008&#45;&gt;24939776 -->
<g id="edge42" class="edge"><title>21801008&#45;&gt;24939776</title>
<path fill="none" stroke="black" d="M1435.11,-970.359C1380.46,-1000.54 1302.12,-1040.17 1229,-1064 1177.99,-1080.63 1122.68,-1094.18 1068.6,-1105.13"/>
<polygon fill="black" stroke="black" points="1067.63,-1101.76 1058.51,-1107.15 1069.01,-1108.62 1067.63,-1101.76"/>
</g>
<!-- 21801008&#45;&gt;22582864 -->
<g id="edge44" class="edge"><title>21801008&#45;&gt;22582864</title>
<path fill="none" stroke="black" d="M1399.24,-962.653C1380.63,-967.694 1361.35,-972.4 1343,-976 1250.15,-994.213 1147.81,-1007.4 1055.32,-1016.79"/>
<polygon fill="black" stroke="black" points="1054.85,-1013.32 1045.25,-1017.8 1055.55,-1020.29 1054.85,-1013.32"/>
</g>
<!-- 21571136&#45;&gt;24939776 -->
<g id="edge48" class="edge"><title>21571136&#45;&gt;24939776</title>
<path fill="none" stroke="black" d="M1214.45,-974.838C1228.69,-1003.34 1238.7,-1039.17 1218,-1064 1202.62,-1082.45 1169.54,-1096.81 1127.9,-1107.98"/>
<polygon fill="black" stroke="black" points="1126.82,-1104.65 1118.02,-1110.54 1128.57,-1111.42 1126.82,-1104.65"/>
</g>
<!-- 21571136&#45;&gt;22582864 -->
<g id="edge50" class="edge"><title>21571136&#45;&gt;22582864</title>
<path fill="none" stroke="black" d="M1078.57,-961.569C1061.38,-966.568 1043.73,-971.543 1027,-976 981.59,-988.096 931.449,-1000.22 887.231,-1010.5"/>
<polygon fill="black" stroke="black" points="886.257,-1007.13 877.305,-1012.79 887.836,-1013.95 886.257,-1007.13"/>
</g>
<!-- 22579328 -->
<g id="node20" class="node"><title>22579328</title>
<ellipse fill="#e5e5e5" stroke="black" cx="731" cy="-929" rx="287.085" ry="46.669"/>
<text text-anchor="middle" x="731" y="-936.4" font-family="Times Roman,serif" font-size="24.00">exp: (quote (snormal 0.000000))</text>
<text text-anchor="middle" x="731" y="-907.4" font-family="Times Roman,serif" font-size="24.00">value: (snormal 0.000000)</text>
</g>
<!-- 22579328&#45;&gt;24939776 -->
<g id="edge54" class="edge"><title>22579328&#45;&gt;24939776</title>
<path fill="none" stroke="black" d="M531.928,-962.57C426.759,-981.268 317.71,-1002.62 310,-1012 295.323,-1029.85 295.2,-1046.25 310,-1064 325.382,-1082.45 358.46,-1096.81 400.102,-1107.98"/>
<polygon fill="black" stroke="black" points="399.427,-1111.42 409.985,-1110.54 401.179,-1104.65 399.427,-1111.42"/>
</g>
<!-- 22579328&#45;&gt;22582864 -->
<g id="edge56" class="edge"><title>22579328&#45;&gt;22582864</title>
<path fill="none" stroke="black" d="M745.091,-975.542C747.785,-984.442 750.567,-993.631 753.141,-1002.13"/>
<polygon fill="black" stroke="black" points="749.802,-1003.18 756.049,-1011.74 756.502,-1001.15 749.802,-1003.18"/>
</g>
<!-- 22672608 -->
<g id="node21" class="node"><title>22672608</title>
<ellipse fill="#e5e5e5" stroke="black" cx="225" cy="-929" rx="200.818" ry="46.669"/>
<text text-anchor="middle" x="225" y="-936.4" font-family="Times Roman,serif" font-size="24.00">exp: (quote 5.000000)</text>
<text text-anchor="middle" x="225" y="-907.4" font-family="Times Roman,serif" font-size="24.00">value: 5.000000</text>
</g>
<!-- 22672608&#45;&gt;24939776 -->
<g id="edge58" class="edge"><title>22672608&#45;&gt;24939776</title>
<path fill="none" stroke="black" d="M237.422,-975.507C247.857,-1005.42 265.856,-1042.58 295,-1064 318.846,-1081.53 366.021,-1095.74 421.617,-1107.12"/>
<polygon fill="black" stroke="black" points="421.226,-1110.61 431.719,-1109.14 422.599,-1103.75 421.226,-1110.61"/>
</g>
<!-- 22672608&#45;&gt;22582864 -->
<g id="edge60" class="edge"><title>22672608&#45;&gt;22582864</title>
<path fill="none" stroke="black" d="M368.042,-961.696C390.426,-966.615 413.32,-971.532 435,-976 494.342,-988.228 559.906,-1000.78 616.787,-1011.36"/>
<polygon fill="black" stroke="black" points="616.465,-1014.86 626.936,-1013.24 617.743,-1007.98 616.465,-1014.86"/>
</g>
<!-- 26590768 -->
<g id="node23" class="node"><title>26590768</title>
<ellipse fill="firebrick" stroke="black" cx="1264" cy="-1738" rx="154.149" ry="46.669"/>
<text text-anchor="middle" x="1264" y="-1745.4" font-family="Times Roman,serif" font-size="24.00">exp: (snormal w)</text>
<text text-anchor="middle" x="1264" y="-1716.4" font-family="Times Roman,serif" font-size="24.00">value: 2.262583</text>
</g>
<!-- 21600256 -->
<g id="node24" class="node"><title>21600256</title>
<ellipse fill="#999999" stroke="black" cx="1264" cy="-1629" rx="99.9096" ry="26.163"/>
<text text-anchor="middle" x="1264" y="-1621.9" font-family="Times Roman,serif" font-size="24.00">request: []</text>
</g>
<!-- 21600256&#45;&gt;26590768 -->
<g id="edge96" class="edge"><title>21600256&#45;&gt;26590768</title>
<path fill="none" stroke="black" d="M1264,-1655.11C1264,-1662.98 1264,-1671.95 1264,-1681"/>
<polygon fill="black" stroke="black" points="1260.5,-1681.22 1264,-1691.22 1267.5,-1681.22 1260.5,-1681.22"/>
</g>
<!-- 24603856 -->
<g id="node25" class="node"><title>24603856</title>
<ellipse fill="#999999" stroke="black" cx="1415" cy="-1520" rx="154.149" ry="46.669"/>
<text text-anchor="middle" x="1415" y="-1527.4" font-family="Times Roman,serif" font-size="24.00">exp: snormal</text>
<text text-anchor="middle" x="1415" y="-1498.4" font-family="Times Roman,serif" font-size="24.00">value: sp:normal</text>
</g>
<!-- 24603856&#45;&gt;26590768 -->
<g id="edge84" class="edge"><title>24603856&#45;&gt;26590768</title>
<path fill="none" stroke="black" d="M1407.86,-1566.6C1401.93,-1594.19 1391.37,-1628.76 1373,-1655 1364.1,-1667.71 1352.67,-1679.33 1340.56,-1689.59"/>
<polygon fill="black" stroke="black" points="1338.07,-1687.1 1332.53,-1696.13 1342.49,-1692.53 1338.07,-1687.1"/>
</g>
<!-- 24603856&#45;&gt;21600256 -->
<g id="edge86" class="edge"><title>24603856&#45;&gt;21600256</title>
<path fill="none" stroke="black" d="M1355.32,-1563.08C1338.91,-1574.93 1321.45,-1587.53 1306.24,-1598.51"/>
<polygon fill="black" stroke="black" points="1304.1,-1595.74 1298.04,-1604.43 1308.2,-1601.41 1304.1,-1595.74"/>
</g>
<!-- 21586576&#45;&gt;26590768 -->
<g id="edge90" class="edge"><title>21586576&#45;&gt;26590768</title>
<path fill="none" stroke="black" d="M1108.54,-1566.59C1118.66,-1594.17 1134.1,-1628.74 1155,-1655 1164.94,-1667.48 1177.15,-1679.12 1189.76,-1689.51"/>
<polygon fill="black" stroke="black" points="1187.65,-1692.3 1197.65,-1695.8 1192.02,-1686.83 1187.65,-1692.3"/>
</g>
<!-- 21586576&#45;&gt;21600256 -->
<g id="edge92" class="edge"><title>21586576&#45;&gt;21600256</title>
<path fill="none" stroke="black" d="M1159.24,-1561.83C1178.71,-1574.32 1199.65,-1587.74 1217.65,-1599.28"/>
<polygon fill="black" stroke="black" points="1215.92,-1602.33 1226.23,-1604.78 1219.7,-1596.44 1215.92,-1602.33"/>
</g>
<!-- 21574256&#45;&gt;24939776 -->
<g id="edge64" class="edge"><title>21574256&#45;&gt;24939776</title>
<path fill="none" stroke="black" d="M1954.82,-447.784C1941.23,-500.224 1922,-588.003 1922,-665 1922,-665 1922,-665 1922,-929 1922,-1009.49 1484.32,-1073.41 1147.12,-1110.71"/>
<polygon fill="black" stroke="black" points="1146.73,-1107.23 1137.17,-1111.8 1147.5,-1114.19 1146.73,-1107.23"/>
</g>
<!-- 21608528 -->
<g id="node29" class="node"><title>21608528</title>
<ellipse fill="#e5e5e5" stroke="black" cx="1991" cy="-292" rx="99.9096" ry="26.163"/>
<text text-anchor="middle" x="1991" y="-284.9" font-family="Times Roman,serif" font-size="24.00">request: []</text>
</g>
<!-- 21608528&#45;&gt;21574256 -->
<g id="edge18" class="edge"><title>21608528&#45;&gt;21574256</title>
<path fill="none" stroke="black" d="M1985.49,-318.108C1983.81,-326.064 1981.9,-335.139 1979.96,-344.297"/>
<polygon fill="black" stroke="black" points="1976.51,-343.711 1977.87,-354.218 1983.36,-345.156 1976.51,-343.711"/>
</g>
<!-- 21564608 -->
<g id="node30" class="node"><title>21564608</title>
<ellipse fill="#e5e5e5" stroke="black" cx="2193" cy="-183" rx="154.149" ry="46.669"/>
<text text-anchor="middle" x="2193" y="-190.4" font-family="Times Roman,serif" font-size="24.00">exp: snormal</text>
<text text-anchor="middle" x="2193" y="-161.4" font-family="Times Roman,serif" font-size="24.00">value: sp:normal</text>
</g>
<!-- 21564608&#45;&gt;21574256 -->
<g id="edge8" class="edge"><title>21564608&#45;&gt;21574256</title>
<path fill="none" stroke="black" d="M2167.76,-229.035C2150.99,-256.918 2127.12,-291.998 2100,-318 2087.14,-330.331 2072.17,-341.807 2057.02,-352.053"/>
<polygon fill="black" stroke="black" points="2055.02,-349.184 2048.6,-357.617 2058.87,-355.025 2055.02,-349.184"/>
</g>
<!-- 21564608&#45;&gt;21608528 -->
<g id="edge10" class="edge"><title>21564608&#45;&gt;21608528</title>
<path fill="none" stroke="black" d="M2117.78,-223.588C2093.14,-236.887 2066.29,-251.371 2043.68,-263.574"/>
<polygon fill="black" stroke="black" points="2041.73,-260.65 2034.59,-268.479 2045.05,-266.81 2041.73,-260.65"/>
</g>
<!-- 27074384 -->
<g id="node31" class="node"><title>27074384</title>
<ellipse fill="#e5e5e5" stroke="black" cx="1872" cy="-183" rx="149.2" ry="46.669"/>
<text text-anchor="middle" x="1872" y="-190.4" font-family="Times Roman,serif" font-size="24.00">exp: 0.000000</text>
<text text-anchor="middle" x="1872" y="-161.4" font-family="Times Roman,serif" font-size="24.00">value: 0.000000</text>
</g>
<!-- 27074384&#45;&gt;21574256 -->
<g id="edge14" class="edge"><title>27074384&#45;&gt;21574256</title>
<path fill="none" stroke="black" d="M1867.43,-229.758C1866.71,-256.751 1869.18,-290.658 1882,-318 1887.09,-328.861 1894.27,-339.049 1902.34,-348.315"/>
<polygon fill="black" stroke="black" points="1899.94,-350.885 1909.29,-355.876 1905.1,-346.146 1899.94,-350.885"/>
</g>
<!-- 27074384&#45;&gt;21608528 -->
<g id="edge16" class="edge"><title>27074384&#45;&gt;21608528</title>
<path fill="none" stroke="black" d="M1920.06,-227.02C1932.11,-238.062 1944.82,-249.7 1956.09,-260.028"/>
<polygon fill="black" stroke="black" points="1953.91,-262.772 1963.65,-266.945 1958.64,-257.61 1953.91,-262.772"/>
</g>
<!-- 26990448 -->
<g id="node34" class="node"><title>26990448</title>
<ellipse fill="none" stroke="black" cx="1695" cy="-19" rx="62.9325" ry="18.3848"/>
<text text-anchor="middle" x="1695" y="-15.4" font-family="Times Roman,serif" font-size="14.00">26990448</text>
</g>
<!-- 26990448&#45;&gt;19076864 -->
<g id="edge24" class="edge"><title>26990448&#45;&gt;19076864</title>
<path fill="none" stroke="black" d="M1638.02,-26.8981C1619.18,-30.9495 1598.56,-37.0045 1581,-46 1539.45,-67.2887 1499.77,-101.761 1470.57,-130.8"/>
<polygon fill="black" stroke="black" points="1467.93,-128.488 1463.38,-138.054 1472.9,-133.417 1467.93,-128.488"/>
</g>
<!-- 26990448&#45;&gt;25014224 -->
<g id="edge74" class="edge"><title>26990448&#45;&gt;25014224</title>
<path fill="none" stroke="black" d="M1684.71,-37.3066C1683.34,-40.1632 1682.05,-43.1227 1681,-46 1617.04,-221.46 1683.98,-295.203 1589,-456 1577.95,-474.705 1562.2,-491.786 1545.96,-506.331"/>
<polygon fill="black" stroke="black" points="1543.23,-504.068 1537.96,-513.264 1547.81,-509.357 1543.23,-504.068"/>
</g>
<!-- 26990448&#45;&gt;23710592 -->
<g id="edge36" class="edge"><title>26990448&#45;&gt;23710592</title>
<path fill="none" stroke="black" d="M1693.44,-37.5914C1688.82,-98.4669 1677.46,-297.033 1711,-456 1746.63,-624.87 1881.64,-668.182 1819,-829 1772.88,-947.396 1657.37,-1044.62 1580.32,-1099.2"/>
<polygon fill="black" stroke="black" points="1578.23,-1096.39 1572.05,-1104.99 1582.25,-1102.12 1578.23,-1096.39"/>
</g>
<!-- 26990448&#45;&gt;24603856 -->
<g id="edge88" class="edge"><title>26990448&#45;&gt;24603856</title>
<path fill="none" stroke="black" d="M1758.07,-19.3089C1919.73,-20.3996 2337.71,-25.2246 2359,-46 2437.41,-122.526 2375,-182.436 2375,-292 2375,-292 2375,-292 2375,-1256 2375,-1419.81 1848.79,-1485.77 1575.54,-1508.98"/>
<polygon fill="black" stroke="black" points="1575.2,-1505.5 1565.53,-1509.82 1575.79,-1512.47 1575.2,-1505.5"/>
</g>
<!-- 26990448&#45;&gt;21564608 -->
<g id="edge12" class="edge"><title>26990448&#45;&gt;21564608</title>
<path fill="none" stroke="black" d="M1757.38,-21.9736C1847.35,-26.5741 2005.51,-35.942 2030,-46 2075.11,-64.5267 2117.02,-100.341 2147.04,-130.705"/>
<polygon fill="black" stroke="black" points="2144.54,-133.161 2154.02,-137.891 2149.56,-128.281 2144.54,-133.161"/>
</g>
<!-- 26586752 -->
<g id="node52" class="node"><title>26586752</title>
<ellipse fill="none" stroke="black" cx="1747" cy="-774" rx="62.9325" ry="18.3848"/>
<text text-anchor="middle" x="1747" y="-770.4" font-family="Times Roman,serif" font-size="14.00">26586752</text>
</g>
<!-- 26586752&#45;&gt;21801008 -->
<g id="edge46" class="edge"><title>26586752&#45;&gt;21801008</title>
<path fill="none" stroke="black" d="M1720.75,-790.883C1687.26,-812.422 1627.95,-850.569 1580.13,-881.323"/>
<polygon fill="black" stroke="black" points="1578.17,-878.424 1571.65,-886.778 1581.95,-884.312 1578.17,-878.424"/>
</g>
</g>
</svg>
