<?xml version="1.0" encoding="UTF-8" standalone="no"?>
<!DOCTYPE svg PUBLIC "-//W3C//DTD SVG 1.1//EN"
 "http://www.w3.org/Graphics/SVG/1.1/DTD/svg11.dtd">
<!-- Generated by graphviz version 2.26.3 (20100126.1600)
 -->
<!-- Title: _anonymous_0 Pages: 1 -->
<svg width="433pt" height="836pt"
 viewBox="0.00 0.00 433.00 836.00" xmlns="http://www.w3.org/2000/svg" xmlns:xlink="http://www.w3.org/1999/xlink">
<g id="graph1" class="graph" transform="scale(1 1) rotate(0) translate(4 832)">
<title>_anonymous_0</title>
<polygon fill="white" stroke="white" points="-4,5 -4,-832 430,-832 430,5 -4,5"/>
<!-- 49603280 -->
<g id="node3" class="node"><title>49603280</title>
<ellipse fill="#e5e5e5" stroke="black" cx="144" cy="-18" rx="27" ry="18"/>
</g>
<!-- 52681840 -->
<g id="node8" class="node"><title>52681840</title>
<ellipse fill="#e5e5e5" stroke="black" cx="144" cy="-90" rx="27" ry="18"/>
</g>
<!-- 49603280&#45;&gt;52681840 -->
<g id="edge16" class="edge"><title>49603280&#45;&gt;52681840</title>
<path fill="none" stroke="black" d="M144,-36.1686C144,-43.869 144,-53.0257 144,-61.5834"/>
<polygon fill="black" stroke="black" points="140.5,-61.5867 144,-71.5867 147.5,-61.5868 140.5,-61.5867"/>
</g>
<!-- 49578432 -->
<g id="node5" class="node"><title>49578432</title>
<ellipse fill="#e5e5e5" stroke="black" cx="99" cy="-234" rx="27" ry="18"/>
</g>
<!-- 48783584 -->
<g id="node16" class="node"><title>48783584</title>
<ellipse fill="#e5e5e5" stroke="black" cx="99" cy="-306" rx="27" ry="18"/>
</g>
<!-- 49578432&#45;&gt;48783584 -->
<g id="edge36" class="edge"><title>49578432&#45;&gt;48783584</title>
<path fill="none" stroke="black" d="M99,-252.169C99,-259.869 99,-269.026 99,-277.583"/>
<polygon fill="black" stroke="black" points="95.5001,-277.587 99,-287.587 102.5,-277.587 95.5001,-277.587"/>
</g>
<!-- 49548896 -->
<g id="node6" class="node"><title>49548896</title>
<ellipse fill="#e5e5e5" stroke="black" cx="99" cy="-162" rx="27" ry="18"/>
</g>
<!-- 49548896&#45;&gt;49578432 -->
<g id="edge18" class="edge"><title>49548896&#45;&gt;49578432</title>
<path fill="none" stroke="black" d="M99,-180.169C99,-187.869 99,-197.026 99,-205.583"/>
<polygon fill="black" stroke="black" points="95.5001,-205.587 99,-215.587 102.5,-205.587 95.5001,-205.587"/>
</g>
<!-- 57660304 -->
<g id="node7" class="node"><title>57660304</title>
<ellipse fill="#e5e5e5" stroke="black" cx="63" cy="-90" rx="27" ry="18"/>
</g>
<!-- 57660304&#45;&gt;49578432 -->
<g id="edge8" class="edge"><title>57660304&#45;&gt;49578432</title>
<path fill="none" stroke="black" d="M59.9883,-108.036C57.5895,-126.533 55.7101,-155.923 63,-180 66.2661,-190.787 72.4764,-201.389 78.8313,-210.304"/>
<polygon fill="black" stroke="black" points="76.0487,-212.427 84.8771,-218.284 81.6285,-208.2 76.0487,-212.427"/>
</g>
<!-- 57660304&#45;&gt;49548896 -->
<g id="edge10" class="edge"><title>57660304&#45;&gt;49548896</title>
<path fill="none" stroke="black" d="M71.7146,-107.429C75.9597,-115.919 81.1536,-126.307 85.8663,-135.733"/>
<polygon fill="black" stroke="black" points="82.763,-137.352 90.3657,-144.731 89.024,-134.222 82.763,-137.352"/>
</g>
<!-- 52681840&#45;&gt;49578432 -->
<g id="edge12" class="edge"><title>52681840&#45;&gt;49578432</title>
<path fill="none" stroke="black" d="M144.723,-108.15C144.885,-126.737 143.522,-156.198 135,-180 131.24,-190.502 125.004,-200.957 118.77,-209.831"/>
<polygon fill="black" stroke="black" points="115.768,-208.002 112.628,-218.121 121.393,-212.169 115.768,-208.002"/>
</g>
<!-- 52681840&#45;&gt;49548896 -->
<g id="edge14" class="edge"><title>52681840&#45;&gt;49548896</title>
<path fill="none" stroke="black" d="M133.563,-106.699C128.077,-115.478 121.231,-126.43 115.084,-136.266"/>
<polygon fill="black" stroke="black" points="112.025,-134.556 109.693,-144.891 117.961,-138.266 112.025,-134.556"/>
</g>
<!-- 52397680 -->
<g id="node10" class="node"><title>52397680</title>
<ellipse fill="#e5e5e5" stroke="black" cx="186" cy="-594" rx="27" ry="18"/>
</g>
<!-- 49620848 -->
<g id="node24" class="node"><title>49620848</title>
<ellipse fill="#999999" stroke="black" cx="186" cy="-666" rx="27" ry="18"/>
</g>
<!-- 52397680&#45;&gt;49620848 -->
<g id="edge66" class="edge"><title>52397680&#45;&gt;49620848</title>
<path fill="none" stroke="black" d="M186,-612.169C186,-619.869 186,-629.026 186,-637.583"/>
<polygon fill="black" stroke="black" points="182.5,-637.587 186,-647.587 189.5,-637.587 182.5,-637.587"/>
</g>
<!-- 50247536 -->
<g id="node11" class="node"><title>50247536</title>
<ellipse fill="#e5e5e5" stroke="black" cx="159" cy="-522" rx="27" ry="18"/>
</g>
<!-- 50247536&#45;&gt;52397680 -->
<g id="edge56" class="edge"><title>50247536&#45;&gt;52397680</title>
<path fill="none" stroke="black" d="M165.674,-539.798C168.748,-547.994 172.462,-557.898 175.87,-566.985"/>
<polygon fill="black" stroke="black" points="172.614,-568.273 179.403,-576.407 179.168,-565.815 172.614,-568.273"/>
</g>
<!-- 53333456 -->
<g id="node12" class="node"><title>53333456</title>
<ellipse fill="#e5e5e5" stroke="black" cx="104" cy="-450" rx="27" ry="18"/>
</g>
<!-- 53333456&#45;&gt;52397680 -->
<g id="edge20" class="edge"><title>53333456&#45;&gt;52397680</title>
<path fill="none" stroke="black" d="M104.445,-468.138C105.653,-487.244 109.726,-517.609 123,-540 131.475,-554.297 145.108,-566.675 157.527,-575.961"/>
<polygon fill="black" stroke="black" points="155.675,-578.938 165.853,-581.88 159.731,-573.233 155.675,-578.938"/>
</g>
<!-- 53333456&#45;&gt;50247536 -->
<g id="edge22" class="edge"><title>53333456&#45;&gt;50247536</title>
<path fill="none" stroke="black" d="M116.48,-466.338C123.512,-475.544 132.435,-487.224 140.288,-497.505"/>
<polygon fill="black" stroke="black" points="137.717,-499.905 146.569,-505.727 143.28,-495.655 137.717,-499.905"/>
</g>
<!-- 53215552 -->
<g id="node13" class="node"><title>53215552</title>
<ellipse fill="#e5e5e5" stroke="black" cx="177" cy="-450" rx="27" ry="18"/>
</g>
<!-- 53215552&#45;&gt;52397680 -->
<g id="edge24" class="edge"><title>53215552&#45;&gt;52397680</title>
<path fill="none" stroke="black" d="M184.48,-467.636C188.474,-478.014 192.974,-491.514 195,-504 198.349,-524.635 195.781,-548.146 192.544,-565.963"/>
<polygon fill="black" stroke="black" points="189.069,-565.495 190.546,-575.986 195.934,-566.864 189.069,-565.495"/>
</g>
<!-- 53215552&#45;&gt;50247536 -->
<g id="edge26" class="edge"><title>53215552&#45;&gt;50247536</title>
<path fill="none" stroke="black" d="M172.551,-467.798C170.56,-475.759 168.167,-485.333 165.949,-494.204"/>
<polygon fill="black" stroke="black" points="162.491,-493.607 163.461,-504.157 169.282,-495.305 162.491,-493.607"/>
</g>
<!-- 53080080 -->
<g id="node14" class="node"><title>53080080</title>
<ellipse fill="#e5e5e5" stroke="black" cx="150" cy="-378" rx="27" ry="18"/>
</g>
<!-- 53080080&#45;&gt;53215552 -->
<g id="edge46" class="edge"><title>53080080&#45;&gt;53215552</title>
<path fill="none" stroke="black" d="M156.674,-395.798C159.748,-403.994 163.462,-413.898 166.87,-422.985"/>
<polygon fill="black" stroke="black" points="163.614,-424.273 170.403,-432.407 170.168,-421.815 163.614,-424.273"/>
</g>
<!-- 54608032 -->
<g id="node26" class="node"><title>54608032</title>
<ellipse fill="#e5e5e5" stroke="black" cx="325" cy="-378" rx="27" ry="18"/>
</g>
<!-- 53080080&#45;&gt;54608032 -->
<g id="edge50" class="edge"><title>53080080&#45;&gt;54608032</title>
<path fill="none" stroke="black" stroke-dasharray="1,5" d="M177.002,-378C213.816,-378 250.631,-378 287.445,-378"/>
<polygon fill="black" stroke="black" points="287.829,-381.5 297.828,-378 287.828,-374.5 287.829,-381.5"/>
</g>
<!-- 57253040 -->
<g id="node15" class="node"><title>57253040</title>
<ellipse fill="#e5e5e5" stroke="black" cx="27" cy="-306" rx="27" ry="18"/>
</g>
<!-- 57253040&#45;&gt;53215552 -->
<g id="edge28" class="edge"><title>57253040&#45;&gt;53215552</title>
<path fill="none" stroke="black" d="M37.9699,-322.845C50.8963,-341.927 73.7095,-373.315 98,-396 113.022,-410.029 131.975,-423.11 147.551,-432.883"/>
<polygon fill="black" stroke="black" points="145.923,-435.99 156.277,-438.237 149.584,-430.024 145.923,-435.99"/>
</g>
<!-- 57253040&#45;&gt;53080080 -->
<g id="edge30" class="edge"><title>57253040&#45;&gt;53080080</title>
<path fill="none" stroke="black" d="M47.3109,-317.889C67.3412,-329.614 98.1596,-347.654 120.811,-360.914"/>
<polygon fill="black" stroke="black" points="119.261,-364.062 129.659,-366.093 122.797,-358.021 119.261,-364.062"/>
</g>
<!-- 48783584&#45;&gt;53215552 -->
<g id="edge32" class="edge"><title>48783584&#45;&gt;53215552</title>
<path fill="none" stroke="black" d="M98.4774,-324.1C98.7008,-343.174 101.313,-373.512 114,-396 122.167,-410.476 135.769,-422.872 148.248,-432.122"/>
<polygon fill="black" stroke="black" points="146.433,-435.125 156.627,-438.011 150.458,-429.398 146.433,-435.125"/>
</g>
<!-- 48783584&#45;&gt;53080080 -->
<g id="edge34" class="edge"><title>48783584&#45;&gt;53080080</title>
<path fill="none" stroke="black" d="M110.573,-322.338C116.937,-331.323 124.972,-342.666 132.124,-352.764"/>
<polygon fill="black" stroke="black" points="129.483,-355.09 138.119,-361.227 135.195,-351.044 129.483,-355.09"/>
</g>
<!-- 50481568 -->
<g id="node17" class="node"><title>50481568</title>
<ellipse fill="#e5e5e5" stroke="black" cx="171" cy="-306" rx="27" ry="18"/>
</g>
<!-- 50481568&#45;&gt;53215552 -->
<g id="edge38" class="edge"><title>50481568&#45;&gt;53215552</title>
<path fill="none" stroke="black" d="M177.238,-323.745C180.568,-334.16 184.318,-347.66 186,-360 188.823,-380.713 186.277,-404.221 183.181,-422.017"/>
<polygon fill="black" stroke="black" points="179.708,-421.548 181.279,-432.026 186.585,-422.855 179.708,-421.548"/>
</g>
<!-- 50481568&#45;&gt;53080080 -->
<g id="edge40" class="edge"><title>50481568&#45;&gt;53080080</title>
<path fill="none" stroke="black" d="M165.809,-323.798C163.462,-331.846 160.634,-341.541 158.023,-350.493"/>
<polygon fill="black" stroke="black" points="154.644,-349.577 155.204,-360.157 161.364,-351.537 154.644,-349.577"/>
</g>
<!-- 53080768 -->
<g id="node18" class="node"><title>53080768</title>
<ellipse fill="#e5e5e5" stroke="black" cx="243" cy="-306" rx="27" ry="18"/>
</g>
<!-- 53080768&#45;&gt;53215552 -->
<g id="edge42" class="edge"><title>53080768&#45;&gt;53215552</title>
<path fill="none" stroke="black" d="M235.039,-323.37C223.642,-348.236 202.578,-394.193 189.205,-423.371"/>
<polygon fill="black" stroke="black" points="185.974,-422.02 184.989,-432.569 192.338,-424.936 185.974,-422.02"/>
</g>
<!-- 53080768&#45;&gt;53080080 -->
<g id="edge44" class="edge"><title>53080768&#45;&gt;53080080</title>
<path fill="none" stroke="black" d="M225.069,-319.882C211.174,-330.64 191.722,-345.699 176.101,-357.793"/>
<polygon fill="black" stroke="black" points="173.641,-355.271 167.876,-364.16 177.926,-360.806 173.641,-355.271"/>
</g>
<!-- 55107072 -->
<g id="node19" class="node"><title>55107072</title>
<ellipse fill="#e5e5e5" stroke="black" cx="251" cy="-450" rx="27" ry="18"/>
</g>
<!-- 55107072&#45;&gt;52397680 -->
<g id="edge52" class="edge"><title>55107072&#45;&gt;52397680</title>
<path fill="none" stroke="black" d="M243.159,-467.37C231.935,-492.236 211.191,-538.193 198.02,-567.371"/>
<polygon fill="black" stroke="black" points="194.792,-566.014 193.868,-576.569 201.173,-568.894 194.792,-566.014"/>
</g>
<!-- 55107072&#45;&gt;50247536 -->
<g id="edge54" class="edge"><title>55107072&#45;&gt;50247536</title>
<path fill="none" stroke="black" d="M233.261,-463.882C219.516,-474.64 200.273,-489.699 184.82,-501.793"/>
<polygon fill="black" stroke="black" points="182.402,-499.241 176.684,-508.16 186.716,-504.753 182.402,-499.241"/>
</g>
<!-- 53296304 -->
<g id="node21" class="node"><title>53296304</title>
<ellipse fill="firebrick" stroke="black" cx="141" cy="-810" rx="27" ry="18"/>
</g>
<!-- 58648144 -->
<g id="node22" class="node"><title>58648144</title>
<ellipse fill="#999999" stroke="black" cx="141" cy="-738" rx="27" ry="18"/>
</g>
<!-- 58648144&#45;&gt;53296304 -->
<g id="edge68" class="edge"><title>58648144&#45;&gt;53296304</title>
<path fill="none" stroke="black" d="M141,-756.169C141,-763.869 141,-773.026 141,-781.583"/>
<polygon fill="black" stroke="black" points="137.5,-781.587 141,-791.587 144.5,-781.587 137.5,-781.587"/>
</g>
<!-- 52404240 -->
<g id="node23" class="node"><title>52404240</title>
<ellipse fill="#999999" stroke="black" cx="95" cy="-666" rx="27" ry="18"/>
</g>
<!-- 52404240&#45;&gt;53296304 -->
<g id="edge58" class="edge"><title>52404240&#45;&gt;53296304</title>
<path fill="none" stroke="black" d="M94.5302,-684.158C94.6151,-702.752 96.3368,-732.218 105,-756 108.818,-766.481 115.067,-776.931 121.295,-785.807"/>
<polygon fill="black" stroke="black" points="118.668,-788.14 127.426,-794.101 124.297,-783.979 118.668,-788.14"/>
</g>
<!-- 52404240&#45;&gt;58648144 -->
<g id="edge60" class="edge"><title>52404240&#45;&gt;58648144</title>
<path fill="none" stroke="black" d="M105.669,-682.699C111.359,-691.605 118.478,-702.748 124.832,-712.693"/>
<polygon fill="black" stroke="black" points="122.056,-714.849 130.389,-721.391 127.954,-711.08 122.056,-714.849"/>
</g>
<!-- 49620848&#45;&gt;53296304 -->
<g id="edge62" class="edge"><title>49620848&#45;&gt;53296304</title>
<path fill="none" stroke="black" d="M186.723,-684.15C186.885,-702.737 185.522,-732.198 177,-756 173.24,-766.502 167.004,-776.957 160.77,-785.831"/>
<polygon fill="black" stroke="black" points="157.768,-784.002 154.628,-794.121 163.393,-788.169 157.768,-784.002"/>
</g>
<!-- 49620848&#45;&gt;58648144 -->
<g id="edge64" class="edge"><title>49620848&#45;&gt;58648144</title>
<path fill="none" stroke="black" d="M175.563,-682.699C170.077,-691.478 163.231,-702.43 157.084,-712.266"/>
<polygon fill="black" stroke="black" points="154.025,-710.556 151.693,-720.891 159.961,-714.266 154.025,-710.556"/>
</g>
<!-- 54608032&#45;&gt;53215552 -->
<g id="edge48" class="edge"><title>54608032&#45;&gt;53215552</title>
<path fill="none" stroke="black" d="M303.162,-388.624C278.022,-400.854 236.54,-421.035 208.049,-434.895"/>
<polygon fill="black" stroke="black" points="206.389,-431.811 198.928,-439.333 209.451,-438.105 206.389,-431.811"/>
</g>
<!-- 55036928 -->
<g id="node27" class="node"><title>55036928</title>
<ellipse fill="#e5e5e5" stroke="black" cx="353" cy="-306" rx="27" ry="18"/>
</g>
<!-- 55036928&#45;&gt;54608032 -->
<g id="edge78" class="edge"><title>55036928&#45;&gt;54608032</title>
<path fill="none" stroke="black" d="M346.222,-323.429C343.013,-331.681 339.106,-341.726 335.524,-350.938"/>
<polygon fill="black" stroke="black" points="332.175,-349.893 331.813,-360.482 338.699,-352.43 332.175,-349.893"/>
</g>
<!-- 53085776 -->
<g id="node28" class="node"><title>53085776</title>
<ellipse fill="#e5e5e5" stroke="black" cx="398" cy="-234" rx="27" ry="18"/>
</g>
<!-- 53085776&#45;&gt;54608032 -->
<g id="edge70" class="edge"><title>53085776&#45;&gt;54608032</title>
<path fill="none" stroke="black" d="M400.022,-252.037C401.316,-271.059 400.929,-301.354 389,-324 381.183,-338.84 367.413,-351.272 354.643,-360.452"/>
<polygon fill="black" stroke="black" points="352.362,-357.77 346.047,-366.278 356.289,-363.565 352.362,-357.77"/>
</g>
<!-- 53085776&#45;&gt;55036928 -->
<g id="edge72" class="edge"><title>53085776&#45;&gt;55036928</title>
<path fill="none" stroke="black" d="M387.563,-250.699C382.077,-259.478 375.231,-270.43 369.084,-280.266"/>
<polygon fill="black" stroke="black" points="366.025,-278.556 363.693,-288.891 371.961,-282.266 366.025,-278.556"/>
</g>
<!-- 58183536 -->
<g id="node29" class="node"><title>58183536</title>
<ellipse fill="#e5e5e5" stroke="black" cx="307" cy="-234" rx="27" ry="18"/>
</g>
<!-- 58183536&#45;&gt;54608032 -->
<g id="edge74" class="edge"><title>58183536&#45;&gt;54608032</title>
<path fill="none" stroke="black" d="M308.836,-252.295C310.708,-270.496 313.788,-299.211 317,-324 318.096,-332.459 319.41,-341.644 320.654,-350"/>
<polygon fill="black" stroke="black" points="317.213,-350.658 322.169,-360.023 324.135,-349.612 317.213,-350.658"/>
</g>
<!-- 58183536&#45;&gt;55036928 -->
<g id="edge76" class="edge"><title>58183536&#45;&gt;55036928</title>
<path fill="none" stroke="black" d="M317.669,-250.699C323.359,-259.605 330.478,-270.748 336.832,-280.693"/>
<polygon fill="black" stroke="black" points="334.056,-282.849 342.389,-289.391 339.954,-279.08 334.056,-282.849"/>
</g>
</g>
</svg>
