<?xml version="1.0" encoding="UTF-8" standalone="no"?>
<!DOCTYPE svg PUBLIC "-//W3C//DTD SVG 1.1//EN"
 "http://www.w3.org/Graphics/SVG/1.1/DTD/svg11.dtd">
<!-- Generated by graphviz version 2.26.3 (20100126.1600)
 -->
<!-- Title: _anonymous_0 Pages: 1 -->
<svg width="2681pt" height="1561pt"
 viewBox="0.00 0.00 2680.80 1561.00" xmlns="http://www.w3.org/2000/svg" xmlns:xlink="http://www.w3.org/1999/xlink">
<g id="graph1" class="graph" transform="scale(1 1) rotate(0) translate(4 1557)">
<title>_anonymous_0</title>
<polygon fill="white" stroke="white" points="-4,5 -4,-1557 2677.8,-1557 2677.8,5 -4,5"/>
<g id="graph2" class="cluster"><title>cluster1</title>
<polygon fill="none" stroke="black" points="8,-8 8,-1545 1822,-1545 1822,-8 8,-8"/>
<text text-anchor="middle" x="915" y="-19.4" font-family="Times Roman,serif" font-size="24.00">Venture Families</text>
</g>
<g id="graph3" class="cluster"><title>cluster2</title>
<polygon fill="none" stroke="black" points="661,-53 661,-200 975,-200 975,-53 661,-53"/>
<text text-anchor="middle" x="818" y="-64.4" font-family="Times Roman,serif" font-size="24.00">1</text>
</g>
<g id="graph4" class="cluster"><title>cluster3</title>
<polygon fill="none" stroke="black" points="661,-208 661,-573 1301,-573 1301,-208 661,-208"/>
<text text-anchor="middle" x="981" y="-219.4" font-family="Times Roman,serif" font-size="24.00">2</text>
</g>
<g id="graph5" class="cluster"><title>cluster4</title>
<polygon fill="none" stroke="black" points="16,-581 16,-1164 1814,-1164 1814,-581 16,-581"/>
<text text-anchor="middle" x="915" y="-592.4" font-family="Times Roman,serif" font-size="24.00">3</text>
</g>
<g id="graph6" class="cluster"><title>cluster5</title>
<polygon fill="none" stroke="black" points="1031,-1172 1031,-1537 1683,-1537 1683,-1172 1031,-1172"/>
<text text-anchor="middle" x="1357" y="-1183.4" font-family="Times Roman,serif" font-size="24.00">4</text>
</g>
<g id="graph7" class="cluster"><title>cluster6</title>
<polygon fill="none" stroke="black" points="1964,-245 1964,-573 2604,-573 2604,-245 1964,-245"/>
</g>
<!-- 29359040 -->
<g id="node3" class="node"><title>29359040</title>
<ellipse fill="#e5e5e5" stroke="black" cx="818" cy="-145" rx="149.2" ry="46.669"/>
<text text-anchor="middle" x="818" y="-152.4" font-family="Times Roman,serif" font-size="24.00">exp: 0.000000</text>
<text text-anchor="middle" x="818" y="-123.4" font-family="Times Roman,serif" font-size="24.00">value: 0.000000</text>
</g>
<!-- 25977504 -->
<g id="node8" class="node"><title>25977504</title>
<ellipse fill="#e5e5e5" stroke="black" cx="818" cy="-300" rx="149.2" ry="46.669"/>
<text text-anchor="middle" x="818" y="-307.4" font-family="Times Roman,serif" font-size="24.00">exp: x</text>
<text text-anchor="middle" x="818" y="-278.4" font-family="Times Roman,serif" font-size="24.00">value: 0.000000</text>
</g>
<!-- 29359040&#45;&gt;25977504 -->
<g id="edge86" class="edge"><title>29359040&#45;&gt;25977504</title>
<path fill="none" stroke="black" d="M818,-191.505C818,-207.677 818,-226.005 818,-242.933"/>
<polygon fill="black" stroke="black" points="814.5,-243.26 818,-253.26 821.5,-243.26 814.5,-243.26"/>
</g>
<!-- 30136448 -->
<g id="node5" class="node"><title>30136448</title>
<ellipse fill="#e5e5e5" stroke="black" cx="881" cy="-518" rx="155.063" ry="46.669"/>
<text text-anchor="middle" x="881" y="-525.4" font-family="Times Roman,serif" font-size="24.00">exp: (snormal x)</text>
<text text-anchor="middle" x="881" y="-496.4" font-family="Times Roman,serif" font-size="24.00">value: &#45;1.158648</text>
</g>
<!-- 26078976 -->
<g id="node16" class="node"><title>26078976</title>
<ellipse fill="#e5e5e5" stroke="black" cx="313" cy="-673" rx="155.063" ry="46.669"/>
<text text-anchor="middle" x="313" y="-680.4" font-family="Times Roman,serif" font-size="24.00">exp: y</text>
<text text-anchor="middle" x="313" y="-651.4" font-family="Times Roman,serif" font-size="24.00">value: &#45;1.158648</text>
</g>
<!-- 30136448&#45;&gt;26078976 -->
<g id="edge28" class="edge"><title>30136448&#45;&gt;26078976</title>
<path fill="none" stroke="black" d="M729.69,-528.714C652.48,-537.381 558.009,-552.984 477,-581 445.401,-591.928 412.837,-608.837 385.138,-625.192"/>
<polygon fill="black" stroke="black" points="383.101,-622.332 376.323,-630.475 386.7,-628.336 383.101,-622.332"/>
</g>
<!-- 30137280 -->
<g id="node6" class="node"><title>30137280</title>
<ellipse fill="#e5e5e5" stroke="black" cx="937" cy="-409" rx="99.9096" ry="26.163"/>
<text text-anchor="middle" x="937" y="-401.9" font-family="Times Roman,serif" font-size="24.00">request: []</text>
</g>
<!-- 30137280&#45;&gt;30136448 -->
<g id="edge88" class="edge"><title>30137280&#45;&gt;30136448</title>
<path fill="none" stroke="black" d="M923.729,-434.831C919.37,-443.315 914.347,-453.093 909.309,-462.898"/>
<polygon fill="black" stroke="black" points="906.155,-461.379 904.698,-471.873 912.381,-464.578 906.155,-461.379"/>
</g>
<!-- 31805840 -->
<g id="node7" class="node"><title>31805840</title>
<ellipse fill="#e5e5e5" stroke="black" cx="1139" cy="-300" rx="154.149" ry="46.669"/>
<text text-anchor="middle" x="1139" y="-307.4" font-family="Times Roman,serif" font-size="24.00">exp: snormal</text>
<text text-anchor="middle" x="1139" y="-278.4" font-family="Times Roman,serif" font-size="24.00">value: sp:normal</text>
</g>
<!-- 31805840&#45;&gt;30136448 -->
<g id="edge76" class="edge"><title>31805840&#45;&gt;30136448</title>
<path fill="none" stroke="black" d="M1115.17,-346.005C1098.7,-374.398 1074.64,-410.038 1046,-435 1027.73,-450.924 1005.86,-464.68 984.116,-476.16"/>
<polygon fill="black" stroke="black" points="982.435,-473.089 975.144,-480.776 985.638,-479.313 982.435,-473.089"/>
</g>
<!-- 31805840&#45;&gt;30137280 -->
<g id="edge78" class="edge"><title>31805840&#45;&gt;30137280</title>
<path fill="none" stroke="black" d="M1063.78,-340.588C1039.14,-353.887 1012.29,-368.371 989.68,-380.574"/>
<polygon fill="black" stroke="black" points="987.728,-377.65 980.59,-385.479 991.053,-383.81 987.728,-377.65"/>
</g>
<!-- 25977504&#45;&gt;30136448 -->
<g id="edge82" class="edge"><title>25977504&#45;&gt;30136448</title>
<path fill="none" stroke="black" d="M815.882,-346.717C816.045,-373.232 818.58,-406.678 828,-435 831.271,-444.835 835.966,-454.667 841.226,-463.945"/>
<polygon fill="black" stroke="black" points="838.289,-465.854 846.414,-472.653 844.302,-462.271 838.289,-465.854"/>
</g>
<!-- 25977504&#45;&gt;30137280 -->
<g id="edge84" class="edge"><title>25977504&#45;&gt;30137280</title>
<path fill="none" stroke="black" d="M866.059,-344.02C878.113,-355.062 890.819,-366.7 902.094,-377.028"/>
<polygon fill="black" stroke="black" points="899.908,-379.772 909.646,-383.945 904.636,-374.61 899.908,-379.772"/>
</g>
<!-- 26620336 -->
<g id="node10" class="node"><title>26620336</title>
<ellipse fill="#e5e5e5" stroke="black" cx="1064" cy="-1109" rx="741.755" ry="46.669"/>
<text text-anchor="middle" x="1064" y="-1116.4" font-family="Times Roman,serif" font-size="24.00">exp: (snormal (branch_exp y (quote (snormal 0.000000)) (quote 5.000000)) 1.000000)</text>
<text text-anchor="middle" x="1064" y="-1087.4" font-family="Times Roman,serif" font-size="24.00">value: &#45;0.203168</text>
</g>
<!-- 23848704 -->
<g id="node24" class="node"><title>23848704</title>
<ellipse fill="#999999" stroke="black" cx="1194" cy="-1264" rx="155.063" ry="46.669"/>
<text text-anchor="middle" x="1194" y="-1271.4" font-family="Times Roman,serif" font-size="24.00">exp: w</text>
<text text-anchor="middle" x="1194" y="-1242.4" font-family="Times Roman,serif" font-size="24.00">value: &#45;0.203168</text>
</g>
<!-- 26620336&#45;&gt;23848704 -->
<g id="edge72" class="edge"><title>26620336&#45;&gt;23848704</title>
<path fill="none" stroke="black" d="M1103,-1155.51C1117.6,-1172.9 1134.28,-1192.8 1149.35,-1210.76"/>
<polygon fill="black" stroke="black" points="1147.03,-1213.45 1156.14,-1218.86 1152.4,-1208.95 1147.03,-1213.45"/>
</g>
<!-- 29399760 -->
<g id="node11" class="node"><title>29399760</title>
<ellipse fill="#e5e5e5" stroke="black" cx="1297" cy="-1000" rx="99.9096" ry="26.163"/>
<text text-anchor="middle" x="1297" y="-992.9" font-family="Times Roman,serif" font-size="24.00">request: []</text>
</g>
<!-- 29399760&#45;&gt;26620336 -->
<g id="edge48" class="edge"><title>29399760&#45;&gt;26620336</title>
<path fill="none" stroke="black" d="M1248.16,-1022.85C1225.95,-1033.24 1198.73,-1045.97 1172.1,-1058.43"/>
<polygon fill="black" stroke="black" points="1170.29,-1055.41 1162.72,-1062.82 1173.26,-1061.75 1170.29,-1055.41"/>
</g>
<!-- 26830576 -->
<g id="node12" class="node"><title>26830576</title>
<ellipse fill="#e5e5e5" stroke="black" cx="1336" cy="-891" rx="154.149" ry="46.669"/>
<text text-anchor="middle" x="1336" y="-898.4" font-family="Times Roman,serif" font-size="24.00">exp: snormal</text>
<text text-anchor="middle" x="1336" y="-869.4" font-family="Times Roman,serif" font-size="24.00">value: sp:normal</text>
</g>
<!-- 26830576&#45;&gt;26620336 -->
<g id="edge8" class="edge"><title>26830576&#45;&gt;26620336</title>
<path fill="none" stroke="black" d="M1254.71,-930.535C1232.17,-943.077 1208.33,-957.912 1188,-974 1158.37,-997.446 1129.56,-1028.18 1107.17,-1054.4"/>
<polygon fill="black" stroke="black" points="1104.21,-1052.48 1100.44,-1062.38 1109.56,-1056.99 1104.21,-1052.48"/>
</g>
<!-- 26830576&#45;&gt;29399760 -->
<g id="edge10" class="edge"><title>26830576&#45;&gt;29399760</title>
<path fill="none" stroke="black" d="M1319.35,-937.542C1316.13,-946.525 1312.81,-955.803 1309.75,-964.371"/>
<polygon fill="black" stroke="black" points="1306.36,-963.449 1306.29,-974.043 1312.95,-965.807 1306.36,-963.449"/>
</g>
<!-- 26358576 -->
<g id="node13" class="node"><title>26358576</title>
<ellipse fill="#e5e5e5" stroke="black" cx="594" cy="-891" rx="570.135" ry="46.669"/>
<text text-anchor="middle" x="594" y="-898.4" font-family="Times Roman,serif" font-size="24.00">exp: (branch_exp y (quote (snormal 0.000000)) (quote 5.000000))</text>
<text text-anchor="middle" x="594" y="-869.4" font-family="Times Roman,serif" font-size="24.00">value: &#45;0.536433</text>
</g>
<!-- 26358576&#45;&gt;26620336 -->
<g id="edge14" class="edge"><title>26358576&#45;&gt;26620336</title>
<path fill="none" stroke="black" d="M692.814,-936.833C769.528,-972.415 875.808,-1021.71 954.992,-1058.44"/>
<polygon fill="black" stroke="black" points="953.966,-1061.82 964.51,-1062.85 956.911,-1055.47 953.966,-1061.82"/>
</g>
<!-- 26358576&#45;&gt;29399760 -->
<g id="edge16" class="edge"><title>26358576&#45;&gt;29399760</title>
<path fill="none" stroke="black" d="M859.524,-932.169C979.36,-950.75 1113.4,-971.533 1201.15,-985.138"/>
<polygon fill="black" stroke="black" points="1200.67,-988.605 1211.08,-986.679 1201.74,-981.688 1200.67,-988.605"/>
</g>
<!-- 28485744 -->
<g id="node14" class="node"><title>28485744</title>
<ellipse fill="#e5e5e5" stroke="black" cx="797" cy="-782" rx="444.77" ry="26.163"/>
<text text-anchor="middle" x="797" y="-774.9" font-family="Times Roman,serif" font-size="24.00">request: [(28485744, (snormal 0.000000), &lt;env&gt;)]</text>
</g>
<!-- 28485744&#45;&gt;26358576 -->
<g id="edge38" class="edge"><title>28485744&#45;&gt;26358576</title>
<path fill="none" stroke="black" d="M748.634,-807.97C730.574,-817.667 709.389,-829.042 688.592,-840.209"/>
<polygon fill="black" stroke="black" points="686.868,-837.162 679.713,-844.977 690.179,-843.33 686.868,-837.162"/>
</g>
<!-- 26820352 -->
<g id="node26" class="node"><title>26820352</title>
<ellipse fill="#e5e5e5" stroke="black" cx="2220" cy="-518" rx="219.91" ry="46.669"/>
<text text-anchor="middle" x="2220" y="-525.4" font-family="Times Roman,serif" font-size="24.00">exp: (snormal 0.000000)</text>
<text text-anchor="middle" x="2220" y="-496.4" font-family="Times Roman,serif" font-size="24.00">value: &#45;0.536433</text>
</g>
<!-- 28485744&#45;&gt;26820352 -->
<g id="edge42" class="edge"><title>28485744&#45;&gt;26820352</title>
<path fill="none" stroke="black" stroke-dasharray="1,5" d="M1174.55,-768.204C1438.51,-756.986 1754.27,-739.808 1815,-720 1923.89,-684.486 1928.7,-630.46 2032,-581 2048.11,-573.286 2065.41,-566.112 2082.77,-559.574"/>
<polygon fill="black" stroke="black" points="2084.24,-562.761 2092.4,-556.008 2081.81,-556.196 2084.24,-562.761"/>
</g>
<!-- 27825008 -->
<g id="node15" class="node"><title>27825008</title>
<ellipse fill="#e5e5e5" stroke="black" cx="640" cy="-673" rx="154.149" ry="46.669"/>
<text text-anchor="middle" x="640" y="-680.4" font-family="Times Roman,serif" font-size="24.00">exp: branch_exp</text>
<text text-anchor="middle" x="640" y="-651.4" font-family="Times Roman,serif" font-size="24.00">value: sp:branch</text>
</g>
<!-- 27825008&#45;&gt;26358576 -->
<g id="edge18" class="edge"><title>27825008&#45;&gt;26358576</title>
<path fill="none" stroke="black" d="M528.721,-705.38C511.421,-710.329 493.739,-715.338 477,-720 417.593,-736.543 380.525,-707.064 343,-756 313.937,-793.902 342.478,-822.415 389.314,-843.23"/>
<polygon fill="black" stroke="black" points="388.014,-846.481 398.587,-847.16 390.745,-840.035 388.014,-846.481"/>
</g>
<!-- 27825008&#45;&gt;28485744 -->
<g id="edge20" class="edge"><title>27825008&#45;&gt;28485744</title>
<path fill="none" stroke="black" d="M701.6,-715.767C718.126,-727.241 735.702,-739.443 751.205,-750.206"/>
<polygon fill="black" stroke="black" points="749.374,-753.196 759.585,-756.024 753.366,-747.446 749.374,-753.196"/>
</g>
<!-- 26078976&#45;&gt;26358576 -->
<g id="edge24" class="edge"><title>26078976&#45;&gt;26358576</title>
<path fill="none" stroke="black" d="M306.26,-719.466C304.754,-748.041 307.973,-783.71 328,-808 338.737,-821.023 363.385,-833.114 393.563,-843.812"/>
<polygon fill="black" stroke="black" points="392.501,-847.148 403.096,-847.087 394.776,-840.528 392.501,-847.148"/>
</g>
<!-- 26078976&#45;&gt;28485744 -->
<g id="edge26" class="edge"><title>26078976&#45;&gt;28485744</title>
<path fill="none" stroke="black" d="M422.92,-705.936C440.922,-710.916 459.43,-715.789 477,-720 531.655,-733.1 592.067,-745.367 645.542,-755.476"/>
<polygon fill="black" stroke="black" points="644.968,-758.929 655.443,-757.338 646.262,-752.05 644.968,-758.929"/>
</g>
<!-- 25906208 -->
<g id="node17" class="node"><title>25906208</title>
<ellipse fill="#e5e5e5" stroke="black" cx="1519" cy="-673" rx="287.085" ry="46.669"/>
<text text-anchor="middle" x="1519" y="-680.4" font-family="Times Roman,serif" font-size="24.00">exp: (quote (snormal 0.000000))</text>
<text text-anchor="middle" x="1519" y="-651.4" font-family="Times Roman,serif" font-size="24.00">value: (snormal 0.000000)</text>
</g>
<!-- 25906208&#45;&gt;26358576 -->
<g id="edge30" class="edge"><title>25906208&#45;&gt;26358576</title>
<path fill="none" stroke="black" d="M1450.02,-718.214C1400.13,-748.658 1329.99,-786.957 1263,-808 1208.21,-825.211 1097.11,-841.423 980.926,-854.874"/>
<polygon fill="black" stroke="black" points="980.29,-851.424 970.755,-856.043 981.089,-858.378 980.29,-851.424"/>
</g>
<!-- 25906208&#45;&gt;28485744 -->
<g id="edge32" class="edge"><title>25906208&#45;&gt;28485744</title>
<path fill="none" stroke="black" d="M1314.84,-705.771C1284.07,-710.607 1252.71,-715.48 1223,-720 1142.03,-732.319 1052.33,-745.452 976.202,-756.445"/>
<polygon fill="black" stroke="black" points="975.429,-753.02 966.032,-757.912 976.429,-759.948 975.429,-753.02"/>
</g>
<!-- 32104320 -->
<g id="node18" class="node"><title>32104320</title>
<ellipse fill="#e5e5e5" stroke="black" cx="1013" cy="-673" rx="200.818" ry="46.669"/>
<text text-anchor="middle" x="1013" y="-680.4" font-family="Times Roman,serif" font-size="24.00">exp: (quote 5.000000)</text>
<text text-anchor="middle" x="1013" y="-651.4" font-family="Times Roman,serif" font-size="24.00">value: 5.000000</text>
</g>
<!-- 32104320&#45;&gt;26358576 -->
<g id="edge34" class="edge"><title>32104320&#45;&gt;26358576</title>
<path fill="none" stroke="black" d="M1158.48,-705.124C1229.59,-727.457 1291.92,-761.588 1251,-808 1232.83,-828.609 1136.63,-845.399 1023.2,-858.35"/>
<polygon fill="black" stroke="black" points="1022.79,-854.874 1013.24,-859.472 1023.57,-861.83 1022.79,-854.874"/>
</g>
<!-- 32104320&#45;&gt;28485744 -->
<g id="edge36" class="edge"><title>32104320&#45;&gt;28485744</title>
<path fill="none" stroke="black" d="M929.18,-715.298C905.208,-727.395 879.56,-740.338 857.297,-751.572"/>
<polygon fill="black" stroke="black" points="855.652,-748.482 848.301,-756.112 858.806,-754.731 855.652,-748.482"/>
</g>
<!-- 31197024 -->
<g id="node19" class="node"><title>31197024</title>
<ellipse fill="#e5e5e5" stroke="black" cx="1657" cy="-891" rx="149.2" ry="46.669"/>
<text text-anchor="middle" x="1657" y="-898.4" font-family="Times Roman,serif" font-size="24.00">exp: 1.000000</text>
<text text-anchor="middle" x="1657" y="-869.4" font-family="Times Roman,serif" font-size="24.00">value: 1.000000</text>
</g>
<!-- 31197024&#45;&gt;26620336 -->
<g id="edge44" class="edge"><title>31197024&#45;&gt;26620336</title>
<path fill="none" stroke="black" d="M1590.78,-932.676C1541.42,-962.218 1471.5,-1000.91 1406,-1026 1370.23,-1039.7 1331.47,-1051.67 1293.34,-1061.93"/>
<polygon fill="black" stroke="black" points="1292.42,-1058.55 1283.66,-1064.5 1294.22,-1065.31 1292.42,-1058.55"/>
</g>
<!-- 31197024&#45;&gt;29399760 -->
<g id="edge46" class="edge"><title>31197024&#45;&gt;29399760</title>
<path fill="none" stroke="black" d="M1549.96,-923.408C1492.72,-940.741 1423.62,-961.662 1372.12,-977.256"/>
<polygon fill="black" stroke="black" points="1370.94,-973.955 1362.39,-980.203 1372.97,-980.655 1370.94,-973.955"/>
</g>
<!-- 28401456 -->
<g id="node21" class="node"><title>28401456</title>
<ellipse fill="firebrick" stroke="black" cx="1368" cy="-1482" rx="155.063" ry="46.669"/>
<text text-anchor="middle" x="1368" y="-1489.4" font-family="Times Roman,serif" font-size="24.00">exp: (snormal w)</text>
<text text-anchor="middle" x="1368" y="-1460.4" font-family="Times Roman,serif" font-size="24.00">value: &#45;0.578019</text>
</g>
<!-- 32595744 -->
<g id="node22" class="node"><title>32595744</title>
<ellipse fill="#999999" stroke="black" cx="1368" cy="-1373" rx="99.9096" ry="26.163"/>
<text text-anchor="middle" x="1368" y="-1365.9" font-family="Times Roman,serif" font-size="24.00">request: []</text>
</g>
<!-- 32595744&#45;&gt;28401456 -->
<g id="edge74" class="edge"><title>32595744&#45;&gt;28401456</title>
<path fill="none" stroke="black" d="M1368,-1399.11C1368,-1406.98 1368,-1415.95 1368,-1425"/>
<polygon fill="black" stroke="black" points="1364.5,-1425.22 1368,-1435.22 1371.5,-1425.22 1364.5,-1425.22"/>
</g>
<!-- 24384944 -->
<g id="node23" class="node"><title>24384944</title>
<ellipse fill="#999999" stroke="black" cx="1521" cy="-1264" rx="154.149" ry="46.669"/>
<text text-anchor="middle" x="1521" y="-1271.4" font-family="Times Roman,serif" font-size="24.00">exp: snormal</text>
<text text-anchor="middle" x="1521" y="-1242.4" font-family="Times Roman,serif" font-size="24.00">value: sp:normal</text>
</g>
<!-- 24384944&#45;&gt;28401456 -->
<g id="edge62" class="edge"><title>24384944&#45;&gt;28401456</title>
<path fill="none" stroke="black" d="M1513.07,-1310.61C1506.7,-1338.2 1495.63,-1372.77 1477,-1399 1468.02,-1411.65 1456.54,-1423.24 1444.42,-1433.49"/>
<polygon fill="black" stroke="black" points="1441.93,-1431 1436.38,-1440.03 1446.35,-1436.43 1441.93,-1431"/>
</g>
<!-- 24384944&#45;&gt;32595744 -->
<g id="edge64" class="edge"><title>24384944&#45;&gt;32595744</title>
<path fill="none" stroke="black" d="M1460.53,-1307.08C1443.9,-1318.93 1426.21,-1331.53 1410.8,-1342.51"/>
<polygon fill="black" stroke="black" points="1408.6,-1339.77 1402.49,-1348.43 1412.67,-1345.48 1408.6,-1339.77"/>
</g>
<!-- 23848704&#45;&gt;28401456 -->
<g id="edge68" class="edge"><title>23848704&#45;&gt;28401456</title>
<path fill="none" stroke="black" d="M1210.08,-1310.56C1221.07,-1338.13 1237.54,-1372.7 1259,-1399 1269.15,-1411.44 1281.52,-1423.09 1294.24,-1433.5"/>
<polygon fill="black" stroke="black" points="1292.18,-1436.33 1302.19,-1439.82 1296.54,-1430.85 1292.18,-1436.33"/>
</g>
<!-- 23848704&#45;&gt;32595744 -->
<g id="edge70" class="edge"><title>23848704&#45;&gt;32595744</title>
<path fill="none" stroke="black" d="M1261.27,-1306.14C1281.16,-1318.6 1302.5,-1331.97 1320.83,-1343.45"/>
<polygon fill="black" stroke="black" points="1319.24,-1346.58 1329.57,-1348.93 1322.95,-1340.65 1319.24,-1346.58"/>
</g>
<!-- 26820352&#45;&gt;26358576 -->
<g id="edge40" class="edge"><title>26820352&#45;&gt;26358576</title>
<path fill="none" stroke="black" d="M2171.94,-563.672C2119.05,-611.058 2029.36,-683.266 1938,-720 1849.13,-755.735 1329.22,-815.226 962.776,-853.774"/>
<polygon fill="black" stroke="black" points="962.374,-850.297 952.794,-854.823 963.105,-857.259 962.374,-850.297"/>
</g>
<!-- 26343136 -->
<g id="node27" class="node"><title>26343136</title>
<ellipse fill="#e5e5e5" stroke="black" cx="2245" cy="-409" rx="99.9096" ry="26.163"/>
<text text-anchor="middle" x="2245" y="-401.9" font-family="Times Roman,serif" font-size="24.00">request: []</text>
</g>
<!-- 26343136&#45;&gt;26820352 -->
<g id="edge60" class="edge"><title>26343136&#45;&gt;26820352</title>
<path fill="none" stroke="black" d="M2239.01,-435.108C2237.19,-443.064 2235.11,-452.139 2233.01,-461.297"/>
<polygon fill="black" stroke="black" points="2229.55,-460.689 2230.73,-471.218 2236.38,-462.254 2229.55,-460.689"/>
</g>
<!-- 31366272 -->
<g id="node28" class="node"><title>31366272</title>
<ellipse fill="#e5e5e5" stroke="black" cx="2126" cy="-300" rx="154.149" ry="46.669"/>
<text text-anchor="middle" x="2126" y="-307.4" font-family="Times Roman,serif" font-size="24.00">exp: snormal</text>
<text text-anchor="middle" x="2126" y="-278.4" font-family="Times Roman,serif" font-size="24.00">value: sp:normal</text>
</g>
<!-- 31366272&#45;&gt;26820352 -->
<g id="edge50" class="edge"><title>31366272&#45;&gt;26820352</title>
<path fill="none" stroke="black" d="M2121.55,-346.702C2120.87,-373.676 2123.34,-407.583 2136,-435 2140.97,-445.76 2147.98,-455.894 2155.85,-465.134"/>
<polygon fill="black" stroke="black" points="2153.35,-467.589 2162.64,-472.68 2158.56,-462.906 2153.35,-467.589"/>
</g>
<!-- 31366272&#45;&gt;26343136 -->
<g id="edge52" class="edge"><title>31366272&#45;&gt;26343136</title>
<path fill="none" stroke="black" d="M2174.4,-344.334C2186.32,-355.253 2198.86,-366.736 2210,-376.946"/>
<polygon fill="black" stroke="black" points="2207.74,-379.614 2217.47,-383.788 2212.46,-374.452 2207.74,-379.614"/>
</g>
<!-- 26832768 -->
<g id="node29" class="node"><title>26832768</title>
<ellipse fill="#e5e5e5" stroke="black" cx="2447" cy="-300" rx="149.2" ry="46.669"/>
<text text-anchor="middle" x="2447" y="-307.4" font-family="Times Roman,serif" font-size="24.00">exp: 0.000000</text>
<text text-anchor="middle" x="2447" y="-278.4" font-family="Times Roman,serif" font-size="24.00">value: 0.000000</text>
</g>
<!-- 26832768&#45;&gt;26820352 -->
<g id="edge56" class="edge"><title>26832768&#45;&gt;26820352</title>
<path fill="none" stroke="black" d="M2421.83,-346.1C2405.08,-374.007 2381.2,-409.09 2354,-435 2340.96,-447.421 2325.77,-458.941 2310.39,-469.203"/>
<polygon fill="black" stroke="black" points="2308.31,-466.381 2301.84,-474.772 2312.13,-472.246 2308.31,-466.381"/>
</g>
<!-- 26832768&#45;&gt;26343136 -->
<g id="edge58" class="edge"><title>26832768&#45;&gt;26343136</title>
<path fill="none" stroke="black" d="M2372.36,-340.278C2347.45,-353.716 2320.25,-368.394 2297.4,-380.722"/>
<polygon fill="black" stroke="black" points="2295.69,-377.67 2288.55,-385.499 2299.01,-383.83 2295.69,-377.67"/>
</g>
<!-- 33560576 -->
<g id="node32" class="node"><title>33560576</title>
<ellipse fill="none" stroke="black" cx="2375" cy="-145" rx="62.9325" ry="18.3848"/>
<text text-anchor="middle" x="2375" y="-141.4" font-family="Times Roman,serif" font-size="14.00">33560576</text>
</g>
<!-- 33560576&#45;&gt;31805840 -->
<g id="edge80" class="edge"><title>33560576&#45;&gt;31805840</title>
<path fill="none" stroke="black" d="M2317.04,-152.268C2134.36,-175.178 1566.41,-246.4 1291.35,-280.895"/>
<polygon fill="black" stroke="black" points="1290.77,-277.439 1281.29,-282.157 1291.64,-284.385 1290.77,-277.439"/>
</g>
<!-- 33560576&#45;&gt;26830576 -->
<g id="edge12" class="edge"><title>33560576&#45;&gt;26830576</title>
<path fill="none" stroke="black" d="M2432.35,-152.876C2493.85,-162.586 2585.71,-181.164 2608,-208 2665.26,-276.94 2624,-319.384 2624,-409 2624,-409 2624,-409 2624,-673 2624,-925.872 1746.01,-789.856 1499,-844 1484.37,-847.207 1469.12,-850.995 1454.07,-855.006"/>
<polygon fill="black" stroke="black" points="1452.96,-851.681 1444.22,-857.671 1454.79,-858.438 1452.96,-851.681"/>
</g>
<!-- 33560576&#45;&gt;24384944 -->
<g id="edge66" class="edge"><title>33560576&#45;&gt;24384944</title>
<path fill="none" stroke="black" d="M2434.21,-151.344C2503.25,-160.03 2611.35,-178.057 2638,-208 2697.81,-275.206 2662,-319.032 2662,-409 2662,-409 2662,-409 2662,-1000 2662,-1198.19 2000.34,-1247.62 1684.74,-1259.93"/>
<polygon fill="black" stroke="black" points="1684.44,-1256.44 1674.58,-1260.32 1684.71,-1263.44 1684.44,-1256.44"/>
</g>
<!-- 33560576&#45;&gt;31366272 -->
<g id="edge54" class="edge"><title>33560576&#45;&gt;31366272</title>
<path fill="none" stroke="black" d="M2347.88,-161.883C2313.16,-183.496 2251.57,-221.832 2202.08,-252.64"/>
<polygon fill="black" stroke="black" points="2199.95,-249.847 2193.31,-258.103 2203.65,-255.789 2199.95,-249.847"/>
</g>
<!-- 32117440 -->
<g id="node38" class="node"><title>32117440</title>
<ellipse fill="none" stroke="black" cx="1893" cy="-518" rx="62.9325" ry="18.3848"/>
<text text-anchor="middle" x="1893" y="-514.4" font-family="Times Roman,serif" font-size="14.00">32117440</text>
</g>
<!-- 32117440&#45;&gt;27825008 -->
<g id="edge22" class="edge"><title>32117440&#45;&gt;27825008</title>
<path fill="none" stroke="black" d="M1834.27,-525.011C1728.59,-537.288 1499.26,-562.383 1305,-573 1277.15,-574.522 829.92,-573.698 803,-581 769.747,-590.02 736.077,-607.351 708.04,-624.561"/>
<polygon fill="black" stroke="black" points="706.147,-621.616 699.527,-629.888 709.861,-627.55 706.147,-621.616"/>
</g>
</g>
</svg>
