<?xml version="1.0" encoding="UTF-8" standalone="no"?>
<!DOCTYPE svg PUBLIC "-//W3C//DTD SVG 1.1//EN"
 "http://www.w3.org/Graphics/SVG/1.1/DTD/svg11.dtd">
<!-- Generated by graphviz version 2.26.3 (20100126.1600)
 -->
<!-- Title: _anonymous_0 Pages: 1 -->
<svg width="2681pt" height="1561pt"
 viewBox="0.00 0.00 2680.80 1561.00" xmlns="http://www.w3.org/2000/svg" xmlns:xlink="http://www.w3.org/1999/xlink">
<g id="graph1" class="graph" transform="scale(1 1) rotate(0) translate(4 1557)">
<title>_anonymous_0</title>
<polygon fill="white" stroke="white" points="-4,5 -4,-1557 2677.8,-1557 2677.8,5 -4,5"/>
<g id="graph2" class="cluster"><title>cluster1</title>
<polygon fill="none" stroke="black" points="8,-8 8,-1545 1822,-1545 1822,-8 8,-8"/>
<text text-anchor="middle" x="915" y="-19.4" font-family="Times Roman,serif" font-size="24.00">Venture Families</text>
</g>
<g id="graph3" class="cluster"><title>cluster2</title>
<polygon fill="none" stroke="black" points="608,-53 608,-200 922,-200 922,-53 608,-53"/>
<text text-anchor="middle" x="765" y="-64.4" font-family="Times Roman,serif" font-size="24.00">1</text>
</g>
<g id="graph4" class="cluster"><title>cluster3</title>
<polygon fill="none" stroke="black" points="608,-208 608,-573 1248,-573 1248,-208 608,-208"/>
<text text-anchor="middle" x="928" y="-219.4" font-family="Times Roman,serif" font-size="24.00">2</text>
</g>
<g id="graph5" class="cluster"><title>cluster4</title>
<polygon fill="none" stroke="black" points="16,-581 16,-1164 1814,-1164 1814,-581 16,-581"/>
<text text-anchor="middle" x="915" y="-592.4" font-family="Times Roman,serif" font-size="24.00">3</text>
</g>
<g id="graph6" class="cluster"><title>cluster5</title>
<polygon fill="none" stroke="black" points="1040,-1172 1040,-1537 1680,-1537 1680,-1172 1040,-1172"/>
<text text-anchor="middle" x="1360" y="-1183.4" font-family="Times Roman,serif" font-size="24.00">4</text>
</g>
<g id="graph7" class="cluster"><title>cluster6</title>
<polygon fill="none" stroke="black" points="1964,-245 1964,-573 2604,-573 2604,-245 1964,-245"/>
</g>
<!-- 49603280 -->
<g id="node3" class="node"><title>49603280</title>
<ellipse fill="#e5e5e5" stroke="black" cx="765" cy="-145" rx="149.2" ry="46.669"/>
<text text-anchor="middle" x="765" y="-152.4" font-family="Times Roman,serif" font-size="24.00">exp: 0.000000</text>
<text text-anchor="middle" x="765" y="-123.4" font-family="Times Roman,serif" font-size="24.00">value: 0.000000</text>
</g>
<!-- 52681840 -->
<g id="node8" class="node"><title>52681840</title>
<ellipse fill="#e5e5e5" stroke="black" cx="765" cy="-300" rx="149.2" ry="46.669"/>
<text text-anchor="middle" x="765" y="-307.4" font-family="Times Roman,serif" font-size="24.00">exp: x</text>
<text text-anchor="middle" x="765" y="-278.4" font-family="Times Roman,serif" font-size="24.00">value: 0.000000</text>
</g>
<!-- 49603280&#45;&gt;52681840 -->
<g id="edge18" class="edge"><title>49603280&#45;&gt;52681840</title>
<path fill="none" stroke="black" d="M765,-191.505C765,-207.677 765,-226.005 765,-242.933"/>
<polygon fill="black" stroke="black" points="761.5,-243.26 765,-253.26 768.5,-243.26 761.5,-243.26"/>
</g>
<!-- 49578432 -->
<g id="node5" class="node"><title>49578432</title>
<ellipse fill="#e5e5e5" stroke="black" cx="825" cy="-518" rx="149.907" ry="46.669"/>
<text text-anchor="middle" x="825" y="-525.4" font-family="Times Roman,serif" font-size="24.00">exp: (snormal x)</text>
<text text-anchor="middle" x="825" y="-496.4" font-family="Times Roman,serif" font-size="24.00">value: 0.079713</text>
</g>
<!-- 48783584 -->
<g id="node16" class="node"><title>48783584</title>
<ellipse fill="#e5e5e5" stroke="black" cx="319" cy="-673" rx="149.2" ry="46.669"/>
<text text-anchor="middle" x="319" y="-680.4" font-family="Times Roman,serif" font-size="24.00">exp: y</text>
<text text-anchor="middle" x="319" y="-651.4" font-family="Times Roman,serif" font-size="24.00">value: 0.079713</text>
</g>
<!-- 49578432&#45;&gt;48783584 -->
<g id="edge42" class="edge"><title>49578432&#45;&gt;48783584</title>
<path fill="none" stroke="black" d="M682.339,-532.423C618.199,-541.781 542.386,-556.896 477,-581 446.764,-592.147 415.66,-608.921 389.133,-625.107"/>
<polygon fill="black" stroke="black" points="386.979,-622.324 380.32,-630.565 390.665,-628.275 386.979,-622.324"/>
</g>
<!-- 49548896 -->
<g id="node6" class="node"><title>49548896</title>
<ellipse fill="#e5e5e5" stroke="black" cx="884" cy="-409" rx="99.9096" ry="26.163"/>
<text text-anchor="middle" x="884" y="-401.9" font-family="Times Roman,serif" font-size="24.00">request: []</text>
</g>
<!-- 49548896&#45;&gt;49578432 -->
<g id="edge20" class="edge"><title>49548896&#45;&gt;49578432</title>
<path fill="none" stroke="black" d="M870.018,-434.831C865.426,-443.315 860.133,-453.093 854.826,-462.898"/>
<polygon fill="black" stroke="black" points="851.65,-461.412 849.968,-471.873 857.806,-464.745 851.65,-461.412"/>
</g>
<!-- 57660304 -->
<g id="node7" class="node"><title>57660304</title>
<ellipse fill="#e5e5e5" stroke="black" cx="1086" cy="-300" rx="154.149" ry="46.669"/>
<text text-anchor="middle" x="1086" y="-307.4" font-family="Times Roman,serif" font-size="24.00">exp: snormal</text>
<text text-anchor="middle" x="1086" y="-278.4" font-family="Times Roman,serif" font-size="24.00">value: sp:normal</text>
</g>
<!-- 57660304&#45;&gt;49578432 -->
<g id="edge8" class="edge"><title>57660304&#45;&gt;49578432</title>
<path fill="none" stroke="black" d="M1062.23,-346.076C1045.79,-374.496 1021.73,-410.141 993,-435 973.995,-451.442 951.164,-465.518 928.545,-477.16"/>
<polygon fill="black" stroke="black" points="926.928,-474.055 919.558,-481.667 930.066,-480.312 926.928,-474.055"/>
</g>
<!-- 57660304&#45;&gt;49548896 -->
<g id="edge10" class="edge"><title>57660304&#45;&gt;49548896</title>
<path fill="none" stroke="black" d="M1010.78,-340.588C986.136,-353.887 959.294,-368.371 936.68,-380.574"/>
<polygon fill="black" stroke="black" points="934.728,-377.65 927.59,-385.479 938.053,-383.81 934.728,-377.65"/>
</g>
<!-- 52681840&#45;&gt;49578432 -->
<g id="edge14" class="edge"><title>52681840&#45;&gt;49578432</title>
<path fill="none" stroke="black" d="M763.165,-346.625C763.418,-373.111 765.95,-406.558 775,-435 778.06,-444.618 782.433,-454.287 787.334,-463.455"/>
<polygon fill="black" stroke="black" points="784.431,-465.433 792.383,-472.435 790.533,-462.003 784.431,-465.433"/>
</g>
<!-- 52681840&#45;&gt;49548896 -->
<g id="edge16" class="edge"><title>52681840&#45;&gt;49548896</title>
<path fill="none" stroke="black" d="M813.059,-344.02C825.113,-355.062 837.819,-366.7 849.094,-377.028"/>
<polygon fill="black" stroke="black" points="846.908,-379.772 856.646,-383.945 851.636,-374.61 846.908,-379.772"/>
</g>
<!-- 52397680 -->
<g id="node10" class="node"><title>52397680</title>
<ellipse fill="#e5e5e5" stroke="black" cx="1064" cy="-1109" rx="741.755" ry="46.669"/>
<text text-anchor="middle" x="1064" y="-1116.4" font-family="Times Roman,serif" font-size="24.00">exp: (snormal (branch_exp y (quote (snormal 0.000000)) (quote 5.000000)) 1.000000)</text>
<text text-anchor="middle" x="1064" y="-1087.4" font-family="Times Roman,serif" font-size="24.00">value: 0.967264</text>
</g>
<!-- 49620848 -->
<g id="node24" class="node"><title>49620848</title>
<ellipse fill="#999999" stroke="black" cx="1197" cy="-1264" rx="149.2" ry="46.669"/>
<text text-anchor="middle" x="1197" y="-1271.4" font-family="Times Roman,serif" font-size="24.00">exp: w</text>
<text text-anchor="middle" x="1197" y="-1242.4" font-family="Times Roman,serif" font-size="24.00">value: 0.967264</text>
</g>
<!-- 52397680&#45;&gt;49620848 -->
<g id="edge74" class="edge"><title>52397680&#45;&gt;49620848</title>
<path fill="none" stroke="black" d="M1103.9,-1155.51C1118.97,-1173.06 1136.21,-1193.16 1151.73,-1211.24"/>
<polygon fill="black" stroke="black" points="1149.1,-1213.55 1158.27,-1218.86 1154.41,-1208.99 1149.1,-1213.55"/>
</g>
<!-- 50247536 -->
<g id="node11" class="node"><title>50247536</title>
<ellipse fill="#e5e5e5" stroke="black" cx="1297" cy="-1000" rx="99.9096" ry="26.163"/>
<text text-anchor="middle" x="1297" y="-992.9" font-family="Times Roman,serif" font-size="24.00">request: []</text>
</g>
<!-- 50247536&#45;&gt;52397680 -->
<g id="edge62" class="edge"><title>50247536&#45;&gt;52397680</title>
<path fill="none" stroke="black" d="M1248.16,-1022.85C1225.95,-1033.24 1198.73,-1045.97 1172.1,-1058.43"/>
<polygon fill="black" stroke="black" points="1170.29,-1055.41 1162.72,-1062.82 1173.26,-1061.75 1170.29,-1055.41"/>
</g>
<!-- 53333456 -->
<g id="node12" class="node"><title>53333456</title>
<ellipse fill="#e5e5e5" stroke="black" cx="1336" cy="-891" rx="154.149" ry="46.669"/>
<text text-anchor="middle" x="1336" y="-898.4" font-family="Times Roman,serif" font-size="24.00">exp: snormal</text>
<text text-anchor="middle" x="1336" y="-869.4" font-family="Times Roman,serif" font-size="24.00">value: sp:normal</text>
</g>
<!-- 53333456&#45;&gt;52397680 -->
<g id="edge22" class="edge"><title>53333456&#45;&gt;52397680</title>
<path fill="none" stroke="black" d="M1254.71,-930.535C1232.17,-943.077 1208.33,-957.912 1188,-974 1158.37,-997.446 1129.56,-1028.18 1107.17,-1054.4"/>
<polygon fill="black" stroke="black" points="1104.21,-1052.48 1100.44,-1062.38 1109.56,-1056.99 1104.21,-1052.48"/>
</g>
<!-- 53333456&#45;&gt;50247536 -->
<g id="edge24" class="edge"><title>53333456&#45;&gt;50247536</title>
<path fill="none" stroke="black" d="M1319.35,-937.542C1316.13,-946.525 1312.81,-955.803 1309.75,-964.371"/>
<polygon fill="black" stroke="black" points="1306.36,-963.449 1306.29,-974.043 1312.95,-965.807 1306.36,-963.449"/>
</g>
<!-- 53215552 -->
<g id="node13" class="node"><title>53215552</title>
<ellipse fill="#e5e5e5" stroke="black" cx="594" cy="-891" rx="570.135" ry="46.669"/>
<text text-anchor="middle" x="594" y="-898.4" font-family="Times Roman,serif" font-size="24.00">exp: (branch_exp y (quote (snormal 0.000000)) (quote 5.000000))</text>
<text text-anchor="middle" x="594" y="-869.4" font-family="Times Roman,serif" font-size="24.00">value: 1.342880</text>
</g>
<!-- 53215552&#45;&gt;52397680 -->
<g id="edge28" class="edge"><title>53215552&#45;&gt;52397680</title>
<path fill="none" stroke="black" d="M692.814,-936.833C769.528,-972.415 875.808,-1021.71 954.992,-1058.44"/>
<polygon fill="black" stroke="black" points="953.966,-1061.82 964.51,-1062.85 956.911,-1055.47 953.966,-1061.82"/>
</g>
<!-- 53215552&#45;&gt;50247536 -->
<g id="edge30" class="edge"><title>53215552&#45;&gt;50247536</title>
<path fill="none" stroke="black" d="M859.524,-932.169C979.36,-950.75 1113.4,-971.533 1201.15,-985.138"/>
<polygon fill="black" stroke="black" points="1200.67,-988.605 1211.08,-986.679 1201.74,-981.688 1200.67,-988.605"/>
</g>
<!-- 53080080 -->
<g id="node14" class="node"><title>53080080</title>
<ellipse fill="#e5e5e5" stroke="black" cx="803" cy="-782" rx="444.77" ry="26.163"/>
<text text-anchor="middle" x="803" y="-774.9" font-family="Times Roman,serif" font-size="24.00">request: [(53080080, (snormal 0.000000), &lt;env&gt;)]</text>
</g>
<!-- 53080080&#45;&gt;53215552 -->
<g id="edge52" class="edge"><title>53080080&#45;&gt;53215552</title>
<path fill="none" stroke="black" d="M753.205,-807.97C734.611,-817.667 712.8,-829.042 691.388,-840.209"/>
<polygon fill="black" stroke="black" points="689.495,-837.249 682.247,-844.977 692.732,-843.456 689.495,-837.249"/>
</g>
<!-- 54608032 -->
<g id="node26" class="node"><title>54608032</title>
<ellipse fill="#e5e5e5" stroke="black" cx="2220" cy="-518" rx="219.91" ry="46.669"/>
<text text-anchor="middle" x="2220" y="-525.4" font-family="Times Roman,serif" font-size="24.00">exp: (snormal 0.000000)</text>
<text text-anchor="middle" x="2220" y="-496.4" font-family="Times Roman,serif" font-size="24.00">value: 1.342880</text>
</g>
<!-- 53080080&#45;&gt;54608032 -->
<g id="edge56" class="edge"><title>53080080&#45;&gt;54608032</title>
<path fill="none" stroke="black" stroke-dasharray="1,5" d="M1179.34,-768.1C1441.54,-756.849 1754.71,-739.677 1815,-720 1923.88,-684.467 1928.7,-630.46 2032,-581 2048.11,-573.286 2065.41,-566.112 2082.77,-559.574"/>
<polygon fill="black" stroke="black" points="2084.24,-562.761 2092.4,-556.008 2081.81,-556.196 2084.24,-562.761"/>
</g>
<!-- 57253040 -->
<g id="node15" class="node"><title>57253040</title>
<ellipse fill="#e5e5e5" stroke="black" cx="640" cy="-673" rx="154.149" ry="46.669"/>
<text text-anchor="middle" x="640" y="-680.4" font-family="Times Roman,serif" font-size="24.00">exp: branch_exp</text>
<text text-anchor="middle" x="640" y="-651.4" font-family="Times Roman,serif" font-size="24.00">value: sp:branch</text>
</g>
<!-- 57253040&#45;&gt;53215552 -->
<g id="edge32" class="edge"><title>57253040&#45;&gt;53215552</title>
<path fill="none" stroke="black" d="M528.672,-705.206C511.379,-710.178 493.712,-715.241 477,-720 420.164,-736.187 384.685,-708.894 349,-756 320.545,-793.562 348.858,-822.044 394.993,-842.933"/>
<polygon fill="black" stroke="black" points="393.878,-846.264 404.446,-847.01 396.65,-839.836 393.878,-846.264"/>
</g>
<!-- 57253040&#45;&gt;53080080 -->
<g id="edge34" class="edge"><title>57253040&#45;&gt;53080080</title>
<path fill="none" stroke="black" d="M703.487,-715.454C720.683,-726.954 739.006,-739.206 755.181,-750.023"/>
<polygon fill="black" stroke="black" points="753.667,-753.221 763.925,-755.87 757.558,-747.402 753.667,-753.221"/>
</g>
<!-- 48783584&#45;&gt;53215552 -->
<g id="edge38" class="edge"><title>48783584&#45;&gt;53215552</title>
<path fill="none" stroke="black" d="M312.298,-719.743C310.855,-748.245 314.127,-783.736 334,-808 344.498,-820.818 368.662,-832.826 398.243,-843.511"/>
<polygon fill="black" stroke="black" points="397.432,-846.935 408.027,-846.933 399.743,-840.328 397.432,-846.935"/>
</g>
<!-- 48783584&#45;&gt;53080080 -->
<g id="edge40" class="edge"><title>48783584&#45;&gt;53080080</title>
<path fill="none" stroke="black" d="M424.409,-705.964C441.894,-710.968 459.898,-715.841 477,-720 531.94,-733.36 592.668,-745.588 646.671,-755.589"/>
<polygon fill="black" stroke="black" points="646.205,-759.062 656.674,-757.43 647.473,-752.178 646.205,-759.062"/>
</g>
<!-- 50481568 -->
<g id="node17" class="node"><title>50481568</title>
<ellipse fill="#e5e5e5" stroke="black" cx="1519" cy="-673" rx="287.085" ry="46.669"/>
<text text-anchor="middle" x="1519" y="-680.4" font-family="Times Roman,serif" font-size="24.00">exp: (quote (snormal 0.000000))</text>
<text text-anchor="middle" x="1519" y="-651.4" font-family="Times Roman,serif" font-size="24.00">value: (snormal 0.000000)</text>
</g>
<!-- 50481568&#45;&gt;53215552 -->
<g id="edge44" class="edge"><title>50481568&#45;&gt;53215552</title>
<path fill="none" stroke="black" d="M1451.79,-718.274C1403.15,-748.746 1334.67,-787.054 1269,-808 1213.94,-825.561 1102.28,-841.829 985.362,-855.224"/>
<polygon fill="black" stroke="black" points="984.667,-851.781 975.127,-856.388 985.458,-858.736 984.667,-851.781"/>
</g>
<!-- 50481568&#45;&gt;53080080 -->
<g id="edge46" class="edge"><title>50481568&#45;&gt;53080080</title>
<path fill="none" stroke="black" d="M1314.83,-705.717C1284.07,-710.561 1252.7,-715.45 1223,-720 1143.08,-732.244 1054.53,-745.379 979.421,-756.394"/>
<polygon fill="black" stroke="black" points="978.774,-752.951 969.388,-757.864 979.79,-759.877 978.774,-752.951"/>
</g>
<!-- 53080768 -->
<g id="node18" class="node"><title>53080768</title>
<ellipse fill="#e5e5e5" stroke="black" cx="1013" cy="-673" rx="200.818" ry="46.669"/>
<text text-anchor="middle" x="1013" y="-680.4" font-family="Times Roman,serif" font-size="24.00">exp: (quote 5.000000)</text>
<text text-anchor="middle" x="1013" y="-651.4" font-family="Times Roman,serif" font-size="24.00">value: 5.000000</text>
</g>
<!-- 53080768&#45;&gt;53215552 -->
<g id="edge48" class="edge"><title>53080768&#45;&gt;53215552</title>
<path fill="none" stroke="black" d="M1161.57,-704.371C1234.58,-726.477 1298.81,-760.633 1257,-808 1238.63,-828.81 1141.33,-845.661 1026.67,-858.605"/>
<polygon fill="black" stroke="black" points="1026.16,-855.141 1016.61,-859.727 1026.93,-862.098 1026.16,-855.141"/>
</g>
<!-- 53080768&#45;&gt;53080080 -->
<g id="edge50" class="edge"><title>53080768&#45;&gt;53080080</title>
<path fill="none" stroke="black" d="M930.906,-715.611C907.856,-727.575 883.257,-740.343 861.852,-751.453"/>
<polygon fill="black" stroke="black" points="860.151,-748.392 852.888,-756.106 863.376,-754.605 860.151,-748.392"/>
</g>
<!-- 55107072 -->
<g id="node19" class="node"><title>55107072</title>
<ellipse fill="#e5e5e5" stroke="black" cx="1657" cy="-891" rx="149.2" ry="46.669"/>
<text text-anchor="middle" x="1657" y="-898.4" font-family="Times Roman,serif" font-size="24.00">exp: 1.000000</text>
<text text-anchor="middle" x="1657" y="-869.4" font-family="Times Roman,serif" font-size="24.00">value: 1.000000</text>
</g>
<!-- 55107072&#45;&gt;52397680 -->
<g id="edge58" class="edge"><title>55107072&#45;&gt;52397680</title>
<path fill="none" stroke="black" d="M1590.78,-932.676C1541.42,-962.218 1471.5,-1000.91 1406,-1026 1370.23,-1039.7 1331.47,-1051.67 1293.34,-1061.93"/>
<polygon fill="black" stroke="black" points="1292.42,-1058.55 1283.66,-1064.5 1294.22,-1065.31 1292.42,-1058.55"/>
</g>
<!-- 55107072&#45;&gt;50247536 -->
<g id="edge60" class="edge"><title>55107072&#45;&gt;50247536</title>
<path fill="none" stroke="black" d="M1549.96,-923.408C1492.72,-940.741 1423.62,-961.662 1372.12,-977.256"/>
<polygon fill="black" stroke="black" points="1370.94,-973.955 1362.39,-980.203 1372.97,-980.655 1370.94,-973.955"/>
</g>
<!-- 53296304 -->
<g id="node21" class="node"><title>53296304</title>
<ellipse fill="firebrick" stroke="black" cx="1367" cy="-1482" rx="154.149" ry="46.669"/>
<text text-anchor="middle" x="1367" y="-1489.4" font-family="Times Roman,serif" font-size="24.00">exp: (snormal w)</text>
<text text-anchor="middle" x="1367" y="-1460.4" font-family="Times Roman,serif" font-size="24.00">value: 0.914477</text>
</g>
<!-- 58648144 -->
<g id="node22" class="node"><title>58648144</title>
<ellipse fill="#999999" stroke="black" cx="1367" cy="-1373" rx="99.9096" ry="26.163"/>
<text text-anchor="middle" x="1367" y="-1365.9" font-family="Times Roman,serif" font-size="24.00">request: []</text>
</g>
<!-- 58648144&#45;&gt;53296304 -->
<g id="edge76" class="edge"><title>58648144&#45;&gt;53296304</title>
<path fill="none" stroke="black" d="M1367,-1399.11C1367,-1406.98 1367,-1415.95 1367,-1425"/>
<polygon fill="black" stroke="black" points="1363.5,-1425.22 1367,-1435.22 1370.5,-1425.22 1363.5,-1425.22"/>
</g>
<!-- 52404240 -->
<g id="node23" class="node"><title>52404240</title>
<ellipse fill="#999999" stroke="black" cx="1518" cy="-1264" rx="154.149" ry="46.669"/>
<text text-anchor="middle" x="1518" y="-1271.4" font-family="Times Roman,serif" font-size="24.00">exp: snormal</text>
<text text-anchor="middle" x="1518" y="-1242.4" font-family="Times Roman,serif" font-size="24.00">value: sp:normal</text>
</g>
<!-- 52404240&#45;&gt;53296304 -->
<g id="edge64" class="edge"><title>52404240&#45;&gt;53296304</title>
<path fill="none" stroke="black" d="M1510.86,-1310.6C1504.93,-1338.19 1494.37,-1372.76 1476,-1399 1467.1,-1411.71 1455.67,-1423.33 1443.56,-1433.59"/>
<polygon fill="black" stroke="black" points="1441.07,-1431.1 1435.53,-1440.13 1445.49,-1436.53 1441.07,-1431.1"/>
</g>
<!-- 52404240&#45;&gt;58648144 -->
<g id="edge66" class="edge"><title>52404240&#45;&gt;58648144</title>
<path fill="none" stroke="black" d="M1458.32,-1307.08C1441.91,-1318.93 1424.45,-1331.53 1409.24,-1342.51"/>
<polygon fill="black" stroke="black" points="1407.1,-1339.74 1401.04,-1348.43 1411.2,-1345.41 1407.1,-1339.74"/>
</g>
<!-- 49620848&#45;&gt;53296304 -->
<g id="edge70" class="edge"><title>49620848&#45;&gt;53296304</title>
<path fill="none" stroke="black" d="M1211.54,-1310.59C1221.66,-1338.17 1237.1,-1372.74 1258,-1399 1267.94,-1411.48 1280.15,-1423.12 1292.76,-1433.51"/>
<polygon fill="black" stroke="black" points="1290.65,-1436.3 1300.65,-1439.8 1295.02,-1430.83 1290.65,-1436.3"/>
</g>
<!-- 49620848&#45;&gt;58648144 -->
<g id="edge72" class="edge"><title>49620848&#45;&gt;58648144</title>
<path fill="none" stroke="black" d="M1262.24,-1305.83C1281.71,-1318.32 1302.65,-1331.74 1320.65,-1343.28"/>
<polygon fill="black" stroke="black" points="1318.92,-1346.33 1329.23,-1348.78 1322.7,-1340.44 1318.92,-1346.33"/>
</g>
<!-- 54608032&#45;&gt;53215552 -->
<g id="edge54" class="edge"><title>54608032&#45;&gt;53215552</title>
<path fill="none" stroke="black" d="M2171.93,-563.655C2119.03,-611.027 2029.34,-683.223 1938,-720 1849.15,-755.776 1329.23,-815.256 962.783,-853.79"/>
<polygon fill="black" stroke="black" points="962.38,-850.313 952.801,-854.839 963.111,-857.275 962.38,-850.313"/>
</g>
<!-- 55036928 -->
<g id="node27" class="node"><title>55036928</title>
<ellipse fill="#e5e5e5" stroke="black" cx="2245" cy="-409" rx="99.9096" ry="26.163"/>
<text text-anchor="middle" x="2245" y="-401.9" font-family="Times Roman,serif" font-size="24.00">request: []</text>
</g>
<!-- 55036928&#45;&gt;54608032 -->
<g id="edge88" class="edge"><title>55036928&#45;&gt;54608032</title>
<path fill="none" stroke="black" d="M2239.01,-435.108C2237.19,-443.064 2235.11,-452.139 2233.01,-461.297"/>
<polygon fill="black" stroke="black" points="2229.55,-460.689 2230.73,-471.218 2236.38,-462.254 2229.55,-460.689"/>
</g>
<!-- 53085776 -->
<g id="node28" class="node"><title>53085776</title>
<ellipse fill="#e5e5e5" stroke="black" cx="2126" cy="-300" rx="154.149" ry="46.669"/>
<text text-anchor="middle" x="2126" y="-307.4" font-family="Times Roman,serif" font-size="24.00">exp: snormal</text>
<text text-anchor="middle" x="2126" y="-278.4" font-family="Times Roman,serif" font-size="24.00">value: sp:normal</text>
</g>
<!-- 53085776&#45;&gt;54608032 -->
<g id="edge78" class="edge"><title>53085776&#45;&gt;54608032</title>
<path fill="none" stroke="black" d="M2121.55,-346.702C2120.87,-373.676 2123.34,-407.583 2136,-435 2140.97,-445.76 2147.98,-455.894 2155.85,-465.134"/>
<polygon fill="black" stroke="black" points="2153.35,-467.589 2162.64,-472.68 2158.56,-462.906 2153.35,-467.589"/>
</g>
<!-- 53085776&#45;&gt;55036928 -->
<g id="edge80" class="edge"><title>53085776&#45;&gt;55036928</title>
<path fill="none" stroke="black" d="M2174.4,-344.334C2186.32,-355.253 2198.86,-366.736 2210,-376.946"/>
<polygon fill="black" stroke="black" points="2207.74,-379.614 2217.47,-383.788 2212.46,-374.452 2207.74,-379.614"/>
</g>
<!-- 58183536 -->
<g id="node29" class="node"><title>58183536</title>
<ellipse fill="#e5e5e5" stroke="black" cx="2447" cy="-300" rx="149.2" ry="46.669"/>
<text text-anchor="middle" x="2447" y="-307.4" font-family="Times Roman,serif" font-size="24.00">exp: 0.000000</text>
<text text-anchor="middle" x="2447" y="-278.4" font-family="Times Roman,serif" font-size="24.00">value: 0.000000</text>
</g>
<!-- 58183536&#45;&gt;54608032 -->
<g id="edge84" class="edge"><title>58183536&#45;&gt;54608032</title>
<path fill="none" stroke="black" d="M2421.83,-346.1C2405.08,-374.007 2381.2,-409.09 2354,-435 2340.96,-447.421 2325.77,-458.941 2310.39,-469.203"/>
<polygon fill="black" stroke="black" points="2308.31,-466.381 2301.84,-474.772 2312.13,-472.246 2308.31,-466.381"/>
</g>
<!-- 58183536&#45;&gt;55036928 -->
<g id="edge86" class="edge"><title>58183536&#45;&gt;55036928</title>
<path fill="none" stroke="black" d="M2372.36,-340.278C2347.45,-353.716 2320.25,-368.394 2297.4,-380.722"/>
<polygon fill="black" stroke="black" points="2295.69,-377.67 2288.55,-385.499 2299.01,-383.83 2295.69,-377.67"/>
</g>
<!-- 57663808 -->
<g id="node32" class="node"><title>57663808</title>
<ellipse fill="none" stroke="black" cx="2375" cy="-145" rx="62.9325" ry="18.3848"/>
<text text-anchor="middle" x="2375" y="-141.4" font-family="Times Roman,serif" font-size="14.00">57663808</text>
</g>
<!-- 57663808&#45;&gt;57660304 -->
<g id="edge12" class="edge"><title>57663808&#45;&gt;57660304</title>
<path fill="none" stroke="black" d="M2316.69,-152.012C2127.25,-174.792 1524.89,-247.225 1239.18,-281.58"/>
<polygon fill="black" stroke="black" points="1238.67,-278.117 1229.16,-282.786 1239.5,-285.067 1238.67,-278.117"/>
</g>
<!-- 57663808&#45;&gt;53333456 -->
<g id="edge26" class="edge"><title>57663808&#45;&gt;53333456</title>
<path fill="none" stroke="black" d="M2432.35,-152.876C2493.85,-162.586 2585.71,-181.164 2608,-208 2665.26,-276.94 2624,-319.384 2624,-409 2624,-409 2624,-409 2624,-673 2624,-925.872 1746.01,-789.856 1499,-844 1484.37,-847.207 1469.12,-850.995 1454.07,-855.006"/>
<polygon fill="black" stroke="black" points="1452.96,-851.681 1444.22,-857.671 1454.79,-858.438 1452.96,-851.681"/>
</g>
<!-- 57663808&#45;&gt;52404240 -->
<g id="edge68" class="edge"><title>57663808&#45;&gt;52404240</title>
<path fill="none" stroke="black" d="M2434.21,-151.344C2503.25,-160.03 2611.35,-178.057 2638,-208 2697.81,-275.206 2662,-319.032 2662,-409 2662,-409 2662,-409 2662,-1000 2662,-1198.74 1998.18,-1247.89 1681.87,-1260.03"/>
<polygon fill="black" stroke="black" points="1681.55,-1256.54 1671.69,-1260.41 1681.82,-1263.53 1681.55,-1256.54"/>
</g>
<!-- 57663808&#45;&gt;53085776 -->
<g id="edge82" class="edge"><title>57663808&#45;&gt;53085776</title>
<path fill="none" stroke="black" d="M2347.88,-161.883C2313.16,-183.496 2251.57,-221.832 2202.08,-252.64"/>
<polygon fill="black" stroke="black" points="2199.95,-249.847 2193.31,-258.103 2203.65,-255.789 2199.95,-249.847"/>
</g>
<!-- 55562944 -->
<g id="node45" class="node"><title>55562944</title>
<ellipse fill="none" stroke="black" cx="1893" cy="-518" rx="62.9325" ry="18.3848"/>
<text text-anchor="middle" x="1893" y="-514.4" font-family="Times Roman,serif" font-size="14.00">55562944</text>
</g>
<!-- 55562944&#45;&gt;57253040 -->
<g id="edge36" class="edge"><title>55562944&#45;&gt;57253040</title>
<path fill="none" stroke="black" d="M1833.88,-524.422C1720.97,-536.389 1466.72,-561.888 1252,-573 1202.17,-575.579 851.144,-567.892 803,-581 769.755,-590.052 736.087,-607.388 708.049,-624.593"/>
<polygon fill="black" stroke="black" points="706.157,-621.648 699.535,-629.919 709.869,-627.583 706.157,-621.648"/>
</g>
</g>
</svg>
