<?xml version="1.0" encoding="UTF-8" standalone="no"?>
<!DOCTYPE svg PUBLIC "-//W3C//DTD SVG 1.1//EN"
 "http://www.w3.org/Graphics/SVG/1.1/DTD/svg11.dtd">
<!-- Generated by graphviz version 2.26.3 (20100126.1600)
 -->
<!-- Title: _anonymous_0 Pages: 1 -->
<svg width="859pt" height="620pt"
 viewBox="0.00 0.00 859.00 620.00" xmlns="http://www.w3.org/2000/svg" xmlns:xlink="http://www.w3.org/1999/xlink">
<g id="graph1" class="graph" transform="scale(1 1) rotate(0) translate(4 616)">
<title>_anonymous_0</title>
<polygon fill="white" stroke="white" points="-4,5 -4,-616 856,-616 856,5 -4,5"/>
<!-- 24728048 -->
<g id="node3" class="node"><title>24728048</title>
<ellipse fill="firebrick" stroke="black" cx="430" cy="-162" rx="27" ry="18"/>
</g>
<!-- 20015792 -->
<g id="node11" class="node"><title>20015792</title>
<ellipse fill="gold" stroke="black" cx="430" cy="-234" rx="27" ry="18"/>
</g>
<!-- 24728048&#45;&gt;20015792 -->
<g id="edge21" class="edge"><title>24728048&#45;&gt;20015792</title>
<path fill="none" stroke="black" d="M430,-180.169C430,-187.869 430,-197.026 430,-205.583"/>
<polygon fill="black" stroke="black" points="426.5,-205.587 430,-215.587 433.5,-205.587 426.5,-205.587"/>
</g>
<!-- 26175264 -->
<g id="node4" class="node"><title>26175264</title>
<ellipse fill="#999999" stroke="black" cx="430" cy="-90" rx="27" ry="18"/>
</g>
<!-- 26175264&#45;&gt;24728048 -->
<g id="edge61" class="edge"><title>26175264&#45;&gt;24728048</title>
<path fill="none" stroke="black" d="M430,-108.169C430,-115.869 430,-125.026 430,-133.583"/>
<polygon fill="black" stroke="black" points="426.5,-133.587 430,-143.587 433.5,-133.587 426.5,-133.587"/>
</g>
<!-- 20003376 -->
<g id="node5" class="node"><title>20003376</title>
<ellipse fill="#999999" stroke="black" cx="394" cy="-18" rx="27" ry="18"/>
</g>
<!-- 20003376&#45;&gt;24728048 -->
<g id="edge53" class="edge"><title>20003376&#45;&gt;24728048</title>
<path fill="none" stroke="black" d="M390.988,-36.0363C388.59,-54.5334 386.71,-83.9232 394,-108 397.266,-118.787 403.476,-129.389 409.831,-138.304"/>
<polygon fill="black" stroke="black" points="407.049,-140.427 415.877,-146.284 412.628,-136.2 407.049,-140.427"/>
</g>
<!-- 20003376&#45;&gt;26175264 -->
<g id="edge55" class="edge"><title>20003376&#45;&gt;26175264</title>
<path fill="none" stroke="black" d="M402.715,-35.4292C406.96,-43.9193 412.154,-54.3071 416.866,-63.7326"/>
<polygon fill="black" stroke="black" points="413.763,-65.3523 421.366,-72.7313 420.024,-62.2218 413.763,-65.3523"/>
</g>
<!-- 19542832 -->
<g id="node6" class="node"><title>19542832</title>
<ellipse fill="#999999" stroke="black" cx="475" cy="-18" rx="27" ry="18"/>
</g>
<!-- 19542832&#45;&gt;24728048 -->
<g id="edge57" class="edge"><title>19542832&#45;&gt;24728048</title>
<path fill="none" stroke="black" d="M475.723,-36.1499C475.885,-54.7374 474.522,-84.1981 466,-108 462.24,-118.502 456.004,-128.957 449.77,-137.831"/>
<polygon fill="black" stroke="black" points="446.768,-136.002 443.628,-146.121 452.393,-140.169 446.768,-136.002"/>
</g>
<!-- 19542832&#45;&gt;26175264 -->
<g id="edge59" class="edge"><title>19542832&#45;&gt;26175264</title>
<path fill="none" stroke="black" d="M464.563,-34.6992C459.077,-43.4776 452.231,-54.4297 446.084,-64.2661"/>
<polygon fill="black" stroke="black" points="443.025,-62.5564 440.693,-72.8914 448.961,-66.2664 443.025,-62.5564"/>
</g>
<!-- 19527392 -->
<g id="node8" class="node"><title>19527392</title>
<ellipse fill="gold" stroke="black" cx="439" cy="-378" rx="27" ry="18"/>
</g>
<!-- 19757488 -->
<g id="node16" class="node"><title>19757488</title>
<ellipse fill="gold" stroke="black" cx="82" cy="-450" rx="27" ry="18"/>
</g>
<!-- 19527392&#45;&gt;19757488 -->
<g id="edge49" class="edge"><title>19527392&#45;&gt;19757488</title>
<path fill="none" stroke="black" d="M412.77,-382.552C362.699,-391.342 250.098,-411.592 156,-432 143.28,-434.759 129.401,-438.057 117.135,-441.073"/>
<polygon fill="black" stroke="black" points="116.134,-437.715 107.272,-443.521 117.82,-444.509 116.134,-437.715"/>
</g>
<!-- 17032960 -->
<g id="node20" class="node"><title>17032960</title>
<ellipse fill="gold" stroke="black" cx="192" cy="-450" rx="27" ry="18"/>
</g>
<!-- 19527392&#45;&gt;17032960 -->
<g id="edge33" class="edge"><title>19527392&#45;&gt;17032960</title>
<path fill="none" stroke="black" d="M413.957,-385.3C369.552,-398.244 276.959,-425.235 226.534,-439.933"/>
<polygon fill="black" stroke="black" points="225.363,-436.629 216.742,-442.788 227.322,-443.349 225.363,-436.629"/>
</g>
<!-- 24984896 -->
<g id="node24" class="node"><title>24984896</title>
<ellipse fill="gold" stroke="black" cx="302" cy="-450" rx="27" ry="18"/>
</g>
<!-- 19527392&#45;&gt;24984896 -->
<g id="edge67" class="edge"><title>19527392&#45;&gt;24984896</title>
<path fill="none" stroke="black" d="M417.594,-389.25C394.671,-401.297 358.112,-420.511 332.253,-434.1"/>
<polygon fill="black" stroke="black" points="330.48,-431.079 323.256,-438.829 333.736,-437.275 330.48,-431.079"/>
</g>
<!-- 27240144 -->
<g id="node28" class="node"><title>27240144</title>
<ellipse fill="gold" stroke="black" cx="403" cy="-450" rx="27" ry="18"/>
</g>
<!-- 19527392&#45;&gt;27240144 -->
<g id="edge83" class="edge"><title>19527392&#45;&gt;27240144</title>
<path fill="none" stroke="black" d="M430.285,-395.429C426.04,-403.919 420.846,-414.307 416.134,-423.733"/>
<polygon fill="black" stroke="black" points="412.976,-422.222 411.634,-432.731 419.237,-425.352 412.976,-422.222"/>
</g>
<!-- 24660656 -->
<g id="node32" class="node"><title>24660656</title>
<ellipse fill="gold" stroke="black" cx="475" cy="-450" rx="27" ry="18"/>
</g>
<!-- 19527392&#45;&gt;24660656 -->
<g id="edge91" class="edge"><title>19527392&#45;&gt;24660656</title>
<path fill="none" stroke="black" d="M447.715,-395.429C451.96,-403.919 457.154,-414.307 461.866,-423.733"/>
<polygon fill="black" stroke="black" points="458.763,-425.352 466.366,-432.731 465.024,-422.222 458.763,-425.352"/>
</g>
<!-- 26341792 -->
<g id="node36" class="node"><title>26341792</title>
<ellipse fill="gold" stroke="black" cx="577" cy="-450" rx="27" ry="18"/>
</g>
<!-- 19527392&#45;&gt;26341792 -->
<g id="edge41" class="edge"><title>19527392&#45;&gt;26341792</title>
<path fill="none" stroke="black" d="M460.562,-389.25C483.652,-401.297 520.479,-420.511 546.526,-434.1"/>
<polygon fill="black" stroke="black" points="545.104,-437.306 555.589,-438.829 548.342,-431.1 545.104,-437.306"/>
</g>
<!-- 25177312 -->
<g id="node40" class="node"><title>25177312</title>
<ellipse fill="gold" stroke="black" cx="687" cy="-450" rx="27" ry="18"/>
</g>
<!-- 19527392&#45;&gt;25177312 -->
<g id="edge75" class="edge"><title>19527392&#45;&gt;25177312</title>
<path fill="none" stroke="black" d="M464.144,-385.3C508.729,-398.244 601.697,-425.235 652.326,-439.933"/>
<polygon fill="black" stroke="black" points="651.578,-443.361 662.158,-442.788 653.53,-436.638 651.578,-443.361"/>
</g>
<!-- 23933904 -->
<g id="node44" class="node"><title>23933904</title>
<ellipse fill="gold" stroke="black" cx="797" cy="-450" rx="27" ry="18"/>
</g>
<!-- 19527392&#45;&gt;23933904 -->
<g id="edge99" class="edge"><title>19527392&#45;&gt;23933904</title>
<path fill="none" stroke="black" d="M465.323,-382.545C515.573,-391.323 628.575,-411.553 723,-432 735.72,-434.755 749.6,-438.052 761.866,-441.068"/>
<polygon fill="black" stroke="black" points="761.18,-444.504 771.729,-443.517 762.867,-437.71 761.18,-444.504"/>
</g>
<!-- 19090464 -->
<g id="node9" class="node"><title>19090464</title>
<ellipse fill="#63b8ff" stroke="black" cx="412" cy="-306" rx="27" ry="18"/>
</g>
<!-- 19090464&#45;&gt;19527392 -->
<g id="edge27" class="edge"><title>19090464&#45;&gt;19527392</title>
<path fill="none" stroke="black" d="M418.674,-323.798C421.748,-331.994 425.462,-341.898 428.87,-350.985"/>
<polygon fill="black" stroke="black" points="425.614,-352.273 432.403,-360.407 432.168,-349.815 425.614,-352.273"/>
</g>
<!-- 21585232 -->
<g id="node10" class="node"><title>21585232</title>
<ellipse fill="#999999" stroke="black" cx="357" cy="-234" rx="27" ry="18"/>
</g>
<!-- 21585232&#45;&gt;19527392 -->
<g id="edge13" class="edge"><title>21585232&#45;&gt;19527392</title>
<path fill="none" stroke="black" d="M357.445,-252.138C358.653,-271.244 362.726,-301.609 376,-324 384.475,-338.297 398.108,-350.675 410.527,-359.961"/>
<polygon fill="black" stroke="black" points="408.675,-362.938 418.853,-365.88 412.731,-357.233 408.675,-362.938"/>
</g>
<!-- 21585232&#45;&gt;19090464 -->
<g id="edge15" class="edge"><title>21585232&#45;&gt;19090464</title>
<path fill="none" stroke="black" d="M369.48,-250.338C376.512,-259.544 385.435,-271.224 393.288,-281.505"/>
<polygon fill="black" stroke="black" points="390.717,-283.905 399.569,-289.727 396.28,-279.655 390.717,-283.905"/>
</g>
<!-- 20015792&#45;&gt;19527392 -->
<g id="edge17" class="edge"><title>20015792&#45;&gt;19527392</title>
<path fill="none" stroke="black" d="M437.48,-251.636C441.474,-262.014 445.974,-275.514 448,-288 451.349,-308.635 448.781,-332.146 445.544,-349.963"/>
<polygon fill="black" stroke="black" points="442.069,-349.495 443.546,-359.986 448.934,-350.864 442.069,-349.495"/>
</g>
<!-- 20015792&#45;&gt;19090464 -->
<g id="edge19" class="edge"><title>20015792&#45;&gt;19090464</title>
<path fill="none" stroke="black" d="M425.551,-251.798C423.56,-259.759 421.167,-269.333 418.949,-278.204"/>
<polygon fill="black" stroke="black" points="415.491,-277.607 416.461,-288.157 422.282,-279.305 415.491,-277.607"/>
</g>
<!-- 21242832 -->
<g id="node12" class="node"><title>21242832</title>
<ellipse fill="#999999" stroke="black" cx="504" cy="-234" rx="27" ry="18"/>
</g>
<!-- 21242832&#45;&gt;19527392 -->
<g id="edge23" class="edge"><title>21242832&#45;&gt;19527392</title>
<path fill="none" stroke="black" d="M496.159,-251.37C484.935,-276.236 464.191,-322.193 451.02,-351.371"/>
<polygon fill="black" stroke="black" points="447.792,-350.014 446.868,-360.569 454.173,-352.894 447.792,-350.014"/>
</g>
<!-- 21242832&#45;&gt;19090464 -->
<g id="edge25" class="edge"><title>21242832&#45;&gt;19090464</title>
<path fill="none" stroke="black" d="M486.261,-247.882C472.516,-258.64 453.273,-273.699 437.82,-285.793"/>
<polygon fill="black" stroke="black" points="435.402,-283.241 429.684,-292.16 439.716,-288.753 435.402,-283.241"/>
</g>
<!-- 24548272 -->
<g id="node14" class="node"><title>24548272</title>
<ellipse fill="gold" stroke="black" cx="64" cy="-594" rx="27" ry="18"/>
</g>
<!-- 24583872 -->
<g id="node15" class="node"><title>24583872</title>
<ellipse fill="gold" stroke="black" cx="27" cy="-522" rx="27" ry="18"/>
</g>
<!-- 24583872&#45;&gt;24548272 -->
<g id="edge51" class="edge"><title>24583872&#45;&gt;24548272</title>
<path fill="none" stroke="black" d="M35.7685,-539.063C40.1279,-547.546 45.4953,-557.991 50.3753,-567.487"/>
<polygon fill="black" stroke="black" points="47.3537,-569.265 55.0374,-576.559 53.5797,-566.065 47.3537,-569.265"/>
</g>
<!-- 19757488&#45;&gt;24548272 -->
<g id="edge45" class="edge"><title>19757488&#45;&gt;24548272</title>
<path fill="none" stroke="black" d="M79.7567,-467.947C76.6847,-492.523 71.1376,-536.899 67.5122,-565.903"/>
<polygon fill="black" stroke="black" points="64.0391,-565.47 66.2716,-575.827 70.985,-566.339 64.0391,-565.47"/>
</g>
<!-- 19757488&#45;&gt;24583872 -->
<g id="edge47" class="edge"><title>19757488&#45;&gt;24583872</title>
<path fill="none" stroke="black" d="M69.5196,-466.338C62.4876,-475.544 53.5653,-487.224 45.7117,-497.505"/>
<polygon fill="black" stroke="black" points="42.72,-495.655 39.431,-505.727 48.2828,-499.905 42.72,-495.655"/>
</g>
<!-- 19730320 -->
<g id="node18" class="node"><title>19730320</title>
<ellipse fill="gold" stroke="black" cx="155" cy="-594" rx="27" ry="18"/>
</g>
<!-- 22550704 -->
<g id="node19" class="node"><title>22550704</title>
<ellipse fill="gold" stroke="black" cx="137" cy="-522" rx="27" ry="18"/>
</g>
<!-- 22550704&#45;&gt;19730320 -->
<g id="edge35" class="edge"><title>22550704&#45;&gt;19730320</title>
<path fill="none" stroke="black" d="M141.449,-539.798C143.44,-547.759 145.833,-557.333 148.051,-566.204"/>
<polygon fill="black" stroke="black" points="144.718,-567.305 150.539,-576.157 151.509,-565.607 144.718,-567.305"/>
</g>
<!-- 17032960&#45;&gt;19730320 -->
<g id="edge29" class="edge"><title>17032960&#45;&gt;19730320</title>
<path fill="none" stroke="black" d="M188.81,-468.073C185.439,-486.349 179.69,-515.34 173,-540 170.646,-548.679 167.691,-558.011 164.859,-566.435"/>
<polygon fill="black" stroke="black" points="161.459,-565.561 161.516,-576.156 168.078,-567.838 161.459,-565.561"/>
</g>
<!-- 17032960&#45;&gt;22550704 -->
<g id="edge31" class="edge"><title>17032960&#45;&gt;22550704</title>
<path fill="none" stroke="black" d="M179.52,-466.338C172.488,-475.544 163.565,-487.224 155.712,-497.505"/>
<polygon fill="black" stroke="black" points="152.72,-495.655 149.431,-505.727 158.283,-499.905 152.72,-495.655"/>
</g>
<!-- 24917920 -->
<g id="node22" class="node"><title>24917920</title>
<ellipse fill="gold" stroke="black" cx="274" cy="-594" rx="27" ry="18"/>
</g>
<!-- 26674144 -->
<g id="node23" class="node"><title>26674144</title>
<ellipse fill="gold" stroke="black" cx="247" cy="-522" rx="27" ry="18"/>
</g>
<!-- 26674144&#45;&gt;24917920 -->
<g id="edge69" class="edge"><title>26674144&#45;&gt;24917920</title>
<path fill="none" stroke="black" d="M253.674,-539.798C256.748,-547.994 260.462,-557.898 263.87,-566.985"/>
<polygon fill="black" stroke="black" points="260.614,-568.273 267.403,-576.407 267.168,-565.815 260.614,-568.273"/>
</g>
<!-- 24984896&#45;&gt;24917920 -->
<g id="edge63" class="edge"><title>24984896&#45;&gt;24917920</title>
<path fill="none" stroke="black" d="M298.51,-467.947C293.732,-492.523 285.103,-536.899 279.463,-565.903"/>
<polygon fill="black" stroke="black" points="276.007,-565.343 277.534,-575.827 282.878,-566.679 276.007,-565.343"/>
</g>
<!-- 24984896&#45;&gt;26674144 -->
<g id="edge65" class="edge"><title>24984896&#45;&gt;26674144</title>
<path fill="none" stroke="black" d="M289.52,-466.338C282.488,-475.544 273.565,-487.224 265.712,-497.505"/>
<polygon fill="black" stroke="black" points="262.72,-495.655 259.431,-505.727 268.283,-499.905 262.72,-495.655"/>
</g>
<!-- 25661168 -->
<g id="node26" class="node"><title>25661168</title>
<ellipse fill="gold" stroke="black" cx="384" cy="-594" rx="27" ry="18"/>
</g>
<!-- 26632544 -->
<g id="node27" class="node"><title>26632544</title>
<ellipse fill="gold" stroke="black" cx="357" cy="-522" rx="27" ry="18"/>
</g>
<!-- 26632544&#45;&gt;25661168 -->
<g id="edge85" class="edge"><title>26632544&#45;&gt;25661168</title>
<path fill="none" stroke="black" d="M363.674,-539.798C366.748,-547.994 370.462,-557.898 373.87,-566.985"/>
<polygon fill="black" stroke="black" points="370.614,-568.273 377.403,-576.407 377.168,-565.815 370.614,-568.273"/>
</g>
<!-- 27240144&#45;&gt;25661168 -->
<g id="edge79" class="edge"><title>27240144&#45;&gt;25661168</title>
<path fill="none" stroke="black" d="M401.295,-467.966C399.5,-486.157 396.458,-515.085 393,-540 391.824,-548.473 390.363,-557.662 388.962,-566.017"/>
<polygon fill="black" stroke="black" points="385.484,-565.59 387.246,-576.038 392.384,-566.772 385.484,-565.59"/>
</g>
<!-- 27240144&#45;&gt;26632544 -->
<g id="edge81" class="edge"><title>27240144&#45;&gt;26632544</title>
<path fill="none" stroke="black" d="M392.331,-466.699C386.641,-475.605 379.522,-486.748 373.168,-496.693"/>
<polygon fill="black" stroke="black" points="370.046,-495.08 367.611,-505.391 375.944,-498.849 370.046,-495.08"/>
</g>
<!-- 26162768 -->
<g id="node30" class="node"><title>26162768</title>
<ellipse fill="gold" stroke="black" cx="494" cy="-594" rx="27" ry="18"/>
</g>
<!-- 24737344 -->
<g id="node31" class="node"><title>24737344</title>
<ellipse fill="gold" stroke="black" cx="467" cy="-522" rx="27" ry="18"/>
</g>
<!-- 24737344&#45;&gt;26162768 -->
<g id="edge93" class="edge"><title>24737344&#45;&gt;26162768</title>
<path fill="none" stroke="black" d="M473.674,-539.798C476.748,-547.994 480.462,-557.898 483.87,-566.985"/>
<polygon fill="black" stroke="black" points="480.614,-568.273 487.403,-576.407 487.168,-565.815 480.614,-568.273"/>
</g>
<!-- 24660656&#45;&gt;26162768 -->
<g id="edge87" class="edge"><title>24660656&#45;&gt;26162768</title>
<path fill="none" stroke="black" d="M486.308,-466.674C492.578,-476.946 499.748,-490.662 503,-504 508.007,-524.532 505.262,-548.351 501.532,-566.325"/>
<polygon fill="black" stroke="black" points="498.099,-565.634 499.273,-576.164 504.922,-567.201 498.099,-565.634"/>
</g>
<!-- 24660656&#45;&gt;24737344 -->
<g id="edge89" class="edge"><title>24660656&#45;&gt;24737344</title>
<path fill="none" stroke="black" d="M472.981,-468.169C472.126,-475.869 471.108,-485.026 470.157,-493.583"/>
<polygon fill="black" stroke="black" points="466.672,-493.261 469.046,-503.587 473.629,-494.034 466.672,-493.261"/>
</g>
<!-- 23821776 -->
<g id="node34" class="node"><title>23821776</title>
<ellipse fill="gold" stroke="black" cx="604" cy="-594" rx="27" ry="18"/>
</g>
<!-- 24521824 -->
<g id="node35" class="node"><title>24521824</title>
<ellipse fill="gold" stroke="black" cx="577" cy="-522" rx="27" ry="18"/>
</g>
<!-- 24521824&#45;&gt;23821776 -->
<g id="edge43" class="edge"><title>24521824&#45;&gt;23821776</title>
<path fill="none" stroke="black" d="M583.674,-539.798C586.748,-547.994 590.462,-557.898 593.87,-566.985"/>
<polygon fill="black" stroke="black" points="590.614,-568.273 597.403,-576.407 597.168,-565.815 590.614,-568.273"/>
</g>
<!-- 26341792&#45;&gt;23821776 -->
<g id="edge37" class="edge"><title>26341792&#45;&gt;23821776</title>
<path fill="none" stroke="black" d="M591.123,-465.716C599.253,-475.853 608.69,-489.765 613,-504 619.162,-524.353 616.287,-548.358 612.21,-566.455"/>
<polygon fill="black" stroke="black" points="608.765,-565.805 609.731,-576.356 615.555,-567.506 608.765,-565.805"/>
</g>
<!-- 26341792&#45;&gt;24521824 -->
<g id="edge39" class="edge"><title>26341792&#45;&gt;24521824</title>
<path fill="none" stroke="black" d="M577,-468.169C577,-475.869 577,-485.026 577,-493.583"/>
<polygon fill="black" stroke="black" points="573.5,-493.587 577,-503.587 580.5,-493.587 573.5,-493.587"/>
</g>
<!-- 25176208 -->
<g id="node38" class="node"><title>25176208</title>
<ellipse fill="gold" stroke="black" cx="714" cy="-594" rx="27" ry="18"/>
</g>
<!-- 25175104 -->
<g id="node39" class="node"><title>25175104</title>
<ellipse fill="gold" stroke="black" cx="687" cy="-522" rx="27" ry="18"/>
</g>
<!-- 25175104&#45;&gt;25176208 -->
<g id="edge77" class="edge"><title>25175104&#45;&gt;25176208</title>
<path fill="none" stroke="black" d="M693.674,-539.798C696.748,-547.994 700.462,-557.898 703.87,-566.985"/>
<polygon fill="black" stroke="black" points="700.614,-568.273 707.403,-576.407 707.168,-565.815 700.614,-568.273"/>
</g>
<!-- 25177312&#45;&gt;25176208 -->
<g id="edge71" class="edge"><title>25177312&#45;&gt;25176208</title>
<path fill="none" stroke="black" d="M701.123,-465.716C709.253,-475.853 718.69,-489.765 723,-504 729.162,-524.353 726.287,-548.358 722.21,-566.455"/>
<polygon fill="black" stroke="black" points="718.765,-565.805 719.731,-576.356 725.555,-567.506 718.765,-565.805"/>
</g>
<!-- 25177312&#45;&gt;25175104 -->
<g id="edge73" class="edge"><title>25177312&#45;&gt;25175104</title>
<path fill="none" stroke="black" d="M687,-468.169C687,-475.869 687,-485.026 687,-493.583"/>
<polygon fill="black" stroke="black" points="683.5,-493.587 687,-503.587 690.5,-493.587 683.5,-493.587"/>
</g>
<!-- 27003200 -->
<g id="node42" class="node"><title>27003200</title>
<ellipse fill="gold" stroke="black" cx="824" cy="-594" rx="27" ry="18"/>
</g>
<!-- 24377328 -->
<g id="node43" class="node"><title>24377328</title>
<ellipse fill="gold" stroke="black" cx="797" cy="-522" rx="27" ry="18"/>
</g>
<!-- 24377328&#45;&gt;27003200 -->
<g id="edge101" class="edge"><title>24377328&#45;&gt;27003200</title>
<path fill="none" stroke="black" d="M803.674,-539.798C806.748,-547.994 810.462,-557.898 813.87,-566.985"/>
<polygon fill="black" stroke="black" points="810.614,-568.273 817.403,-576.407 817.168,-565.815 810.614,-568.273"/>
</g>
<!-- 23933904&#45;&gt;27003200 -->
<g id="edge95" class="edge"><title>23933904&#45;&gt;27003200</title>
<path fill="none" stroke="black" d="M811.123,-465.716C819.253,-475.853 828.69,-489.765 833,-504 839.162,-524.353 836.287,-548.358 832.21,-566.455"/>
<polygon fill="black" stroke="black" points="828.765,-565.805 829.731,-576.356 835.555,-567.506 828.765,-565.805"/>
</g>
<!-- 23933904&#45;&gt;24377328 -->
<g id="edge97" class="edge"><title>23933904&#45;&gt;24377328</title>
<path fill="none" stroke="black" d="M797,-468.169C797,-475.869 797,-485.026 797,-493.583"/>
<polygon fill="black" stroke="black" points="793.5,-493.587 797,-503.587 800.5,-493.587 793.5,-493.587"/>
</g>
</g>
</svg>
