<?xml version="1.0" encoding="UTF-8" standalone="no"?>
<!DOCTYPE svg PUBLIC "-//W3C//DTD SVG 1.1//EN"
 "http://www.w3.org/Graphics/SVG/1.1/DTD/svg11.dtd">
<!-- Generated by graphviz version 2.26.3 (20100126.1600)
 -->
<!-- Title: _anonymous_0 Pages: 1 -->
<svg width="3678pt" height="1226pt"
 viewBox="0.00 0.00 3678.00 1226.00" xmlns="http://www.w3.org/2000/svg" xmlns:xlink="http://www.w3.org/1999/xlink">
<g id="graph1" class="graph" transform="scale(1 1) rotate(0) translate(4 1222)">
<title>_anonymous_0</title>
<polygon fill="white" stroke="white" points="-4,5 -4,-1222 3675,-1222 3675,5 -4,5"/>
<g id="graph2" class="cluster"><title>cluster1</title>
<polygon fill="none" stroke="black" points="134,-46 134,-1210 3662,-1210 3662,-46 134,-46"/>
<text text-anchor="middle" x="1898" y="-57.4" font-family="Times Roman,serif" font-size="24.00">Venture Families</text>
</g>
<g id="graph3" class="cluster"><title>cluster2</title>
<polygon fill="none" stroke="black" points="1649,-91 1649,-456 2331,-456 2331,-91 1649,-91"/>
<text text-anchor="middle" x="1990" y="-102.4" font-family="Times Roman,serif" font-size="24.00">1</text>
</g>
<g id="graph4" class="cluster"><title>cluster3</title>
<polygon fill="none" stroke="black" points="971,-464 971,-829 2189,-829 2189,-464 971,-464"/>
<text text-anchor="middle" x="1580" y="-475.4" font-family="Times Roman,serif" font-size="24.00">2</text>
</g>
<g id="graph5" class="cluster"><title>cluster4</title>
<polygon fill="none" stroke="black" points="142,-837 142,-1202 574,-1202 574,-837 142,-837"/>
<text text-anchor="middle" x="358" y="-848.4" font-family="Times Roman,serif" font-size="24.00">3</text>
</g>
<g id="graph6" class="cluster"><title>cluster5</title>
<polygon fill="none" stroke="black" points="582,-837 582,-1202 1014,-1202 1014,-837 582,-837"/>
<text text-anchor="middle" x="798" y="-848.4" font-family="Times Roman,serif" font-size="24.00">4</text>
</g>
<g id="graph7" class="cluster"><title>cluster6</title>
<polygon fill="none" stroke="black" points="1022,-837 1022,-1202 1454,-1202 1454,-837 1022,-837"/>
<text text-anchor="middle" x="1238" y="-848.4" font-family="Times Roman,serif" font-size="24.00">5</text>
</g>
<g id="graph8" class="cluster"><title>cluster7</title>
<polygon fill="none" stroke="black" points="1462,-837 1462,-1202 1894,-1202 1894,-837 1462,-837"/>
<text text-anchor="middle" x="1678" y="-848.4" font-family="Times Roman,serif" font-size="24.00">6</text>
</g>
<g id="graph9" class="cluster"><title>cluster8</title>
<polygon fill="none" stroke="black" points="1902,-837 1902,-1202 2334,-1202 2334,-837 1902,-837"/>
<text text-anchor="middle" x="2118" y="-848.4" font-family="Times Roman,serif" font-size="24.00">7</text>
</g>
<g id="graph10" class="cluster"><title>cluster9</title>
<polygon fill="none" stroke="black" points="2342,-837 2342,-1202 2774,-1202 2774,-837 2342,-837"/>
<text text-anchor="middle" x="2558" y="-848.4" font-family="Times Roman,serif" font-size="24.00">8</text>
</g>
<g id="graph11" class="cluster"><title>cluster10</title>
<polygon fill="none" stroke="black" points="2782,-837 2782,-1202 3214,-1202 3214,-837 2782,-837"/>
<text text-anchor="middle" x="2998" y="-848.4" font-family="Times Roman,serif" font-size="24.00">9</text>
</g>
<g id="graph12" class="cluster"><title>cluster11</title>
<polygon fill="none" stroke="black" points="3222,-837 3222,-1202 3654,-1202 3654,-837 3222,-837"/>
<text text-anchor="middle" x="3438" y="-848.4" font-family="Times Roman,serif" font-size="24.00">10</text>
</g>
<!-- 26358576 -->
<g id="node3" class="node"><title>26358576</title>
<ellipse fill="firebrick" stroke="black" cx="2011" cy="-401" rx="241.123" ry="46.669"/>
<text text-anchor="middle" x="2011" y="-408.4" font-family="Times Roman,serif" font-size="24.00">exp: (snormal 100.000000)</text>
<text text-anchor="middle" x="2011" y="-379.4" font-family="Times Roman,serif" font-size="24.00">value: 100.838220</text>
</g>
<!-- 31197024 -->
<g id="node11" class="node"><title>31197024</title>
<ellipse fill="gold" stroke="black" cx="2011" cy="-556" rx="169.913" ry="46.669"/>
<text text-anchor="middle" x="2011" y="-563.4" font-family="Times Roman,serif" font-size="24.00">exp: alpha</text>
<text text-anchor="middle" x="2011" y="-534.4" font-family="Times Roman,serif" font-size="24.00">value: 100.838220</text>
</g>
<!-- 26358576&#45;&gt;31197024 -->
<g id="edge43" class="edge"><title>26358576&#45;&gt;31197024</title>
<path fill="none" stroke="black" d="M2011,-447.505C2011,-463.677 2011,-482.005 2011,-498.933"/>
<polygon fill="black" stroke="black" points="2007.5,-499.26 2011,-509.26 2014.5,-499.26 2007.5,-499.26"/>
</g>
<!-- 26820352 -->
<g id="node4" class="node"><title>26820352</title>
<ellipse fill="#999999" stroke="black" cx="2011" cy="-292" rx="99.9096" ry="26.163"/>
<text text-anchor="middle" x="2011" y="-284.9" font-family="Times Roman,serif" font-size="24.00">request: []</text>
</g>
<!-- 26820352&#45;&gt;26358576 -->
<g id="edge23" class="edge"><title>26820352&#45;&gt;26358576</title>
<path fill="none" stroke="black" d="M2011,-318.108C2011,-325.979 2011,-334.946 2011,-344.005"/>
<polygon fill="black" stroke="black" points="2007.5,-344.218 2011,-354.218 2014.5,-344.218 2007.5,-344.218"/>
</g>
<!-- 25906208 -->
<g id="node5" class="node"><title>25906208</title>
<ellipse fill="#999999" stroke="black" cx="2169" cy="-183" rx="154.149" ry="46.669"/>
<text text-anchor="middle" x="2169" y="-190.4" font-family="Times Roman,serif" font-size="24.00">exp: snormal</text>
<text text-anchor="middle" x="2169" y="-161.4" font-family="Times Roman,serif" font-size="24.00">value: sp:normal</text>
</g>
<!-- 25906208&#45;&gt;26358576 -->
<g id="edge13" class="edge"><title>25906208&#45;&gt;26358576</title>
<path fill="none" stroke="black" d="M2159.12,-229.623C2151.63,-257.217 2139.28,-291.787 2120,-318 2111.47,-329.599 2100.88,-340.353 2089.68,-350.014"/>
<polygon fill="black" stroke="black" points="2087.3,-347.44 2081.85,-356.524 2091.78,-352.823 2087.3,-347.44"/>
</g>
<!-- 25906208&#45;&gt;26820352 -->
<g id="edge15" class="edge"><title>25906208&#45;&gt;26820352</title>
<path fill="none" stroke="black" d="M2107.01,-225.767C2089.65,-237.744 2071.14,-250.514 2055.05,-261.614"/>
<polygon fill="black" stroke="black" points="2052.62,-259.033 2046.38,-267.592 2056.6,-264.795 2052.62,-259.033"/>
</g>
<!-- 26343136 -->
<g id="node6" class="node"><title>26343136</title>
<ellipse fill="#999999" stroke="black" cx="1827" cy="-183" rx="169.913" ry="46.669"/>
<text text-anchor="middle" x="1827" y="-190.4" font-family="Times Roman,serif" font-size="24.00">exp: 100.000000</text>
<text text-anchor="middle" x="1827" y="-161.4" font-family="Times Roman,serif" font-size="24.00">value: 100.000000</text>
</g>
<!-- 26343136&#45;&gt;26358576 -->
<g id="edge19" class="edge"><title>26343136&#45;&gt;26358576</title>
<path fill="none" stroke="black" d="M1846.89,-229.45C1860.06,-256.982 1879.1,-291.547 1902,-318 1911.83,-329.359 1923.45,-340.165 1935.37,-350"/>
<polygon fill="black" stroke="black" points="1933.25,-352.783 1943.23,-356.319 1937.63,-347.326 1933.25,-352.783"/>
</g>
<!-- 26343136&#45;&gt;26820352 -->
<g id="edge21" class="edge"><title>26343136&#45;&gt;26820352</title>
<path fill="none" stroke="black" d="M1898.4,-225.298C1919.69,-237.909 1942.53,-251.438 1962.03,-262.993"/>
<polygon fill="black" stroke="black" points="1960.36,-266.067 1970.74,-268.153 1963.92,-260.045 1960.36,-266.067"/>
</g>
<!-- 26832768 -->
<g id="node8" class="node"><title>26832768</title>
<ellipse fill="gold" stroke="black" cx="1678" cy="-774" rx="408.207" ry="46.669"/>
<text text-anchor="middle" x="1678" y="-781.4" font-family="Times Roman,serif" font-size="24.00">exp: (make_sym_dir_mult_reg alpha 2.000000)</text>
<text text-anchor="middle" x="1678" y="-752.4" font-family="Times Roman,serif" font-size="24.00">value: sp:sym_dir_mult</text>
</g>
<!-- 26573984 -->
<g id="node16" class="node"><title>26573984</title>
<ellipse fill="gold" stroke="black" cx="358" cy="-929" rx="208.096" ry="46.669"/>
<text text-anchor="middle" x="358" y="-936.4" font-family="Times Roman,serif" font-size="24.00">exp: f</text>
<text text-anchor="middle" x="358" y="-907.4" font-family="Times Roman,serif" font-size="24.00">value: sp:sym_dir_mult</text>
</g>
<!-- 26832768&#45;&gt;26573984 -->
<g id="edge95" class="edge"><title>26832768&#45;&gt;26573984</title>
<path fill="none" stroke="black" d="M1277.1,-782.82C1018.46,-791.236 707.077,-807.234 578,-837 534.584,-847.012 488.791,-864.866 450.292,-882.198"/>
<polygon fill="black" stroke="black" points="448.826,-879.02 441.178,-886.352 451.729,-885.389 448.826,-879.02"/>
</g>
<!-- 23848704 -->
<g id="node20" class="node"><title>23848704</title>
<ellipse fill="gold" stroke="black" cx="798" cy="-929" rx="208.096" ry="46.669"/>
<text text-anchor="middle" x="798" y="-936.4" font-family="Times Roman,serif" font-size="24.00">exp: f</text>
<text text-anchor="middle" x="798" y="-907.4" font-family="Times Roman,serif" font-size="24.00">value: sp:sym_dir_mult</text>
</g>
<!-- 26832768&#45;&gt;23848704 -->
<g id="edge29" class="edge"><title>26832768&#45;&gt;23848704</title>
<path fill="none" stroke="black" d="M1328.22,-797.965C1202.83,-808.563 1077.73,-822.026 1018,-837 975.52,-847.649 930.581,-865.207 892.47,-882.145"/>
<polygon fill="black" stroke="black" points="890.618,-879.14 882.934,-886.433 893.489,-885.524 890.618,-879.14"/>
</g>
<!-- 33201408 -->
<g id="node24" class="node"><title>33201408</title>
<ellipse fill="gold" stroke="black" cx="1238" cy="-929" rx="208.096" ry="46.669"/>
<text text-anchor="middle" x="1238" y="-936.4" font-family="Times Roman,serif" font-size="24.00">exp: f</text>
<text text-anchor="middle" x="1238" y="-907.4" font-family="Times Roman,serif" font-size="24.00">value: sp:sym_dir_mult</text>
</g>
<!-- 26832768&#45;&gt;33201408 -->
<g id="edge87" class="edge"><title>26832768&#45;&gt;33201408</title>
<path fill="none" stroke="black" d="M1519.57,-816.955C1498.74,-823.306 1477.78,-830.061 1458,-837 1419.02,-850.68 1377,-867.674 1340.23,-883.321"/>
<polygon fill="black" stroke="black" points="1338.82,-880.117 1331,-887.267 1341.57,-886.554 1338.82,-880.117"/>
</g>
<!-- 33388464 -->
<g id="node28" class="node"><title>33388464</title>
<ellipse fill="gold" stroke="black" cx="1678" cy="-929" rx="208.096" ry="46.669"/>
<text text-anchor="middle" x="1678" y="-936.4" font-family="Times Roman,serif" font-size="24.00">exp: f</text>
<text text-anchor="middle" x="1678" y="-907.4" font-family="Times Roman,serif" font-size="24.00">value: sp:sym_dir_mult</text>
</g>
<!-- 26832768&#45;&gt;33388464 -->
<g id="edge103" class="edge"><title>26832768&#45;&gt;33388464</title>
<path fill="none" stroke="black" d="M1678,-820.505C1678,-836.677 1678,-855.005 1678,-871.933"/>
<polygon fill="black" stroke="black" points="1674.5,-872.26 1678,-882.26 1681.5,-872.26 1674.5,-872.26"/>
</g>
<!-- 31867168 -->
<g id="node32" class="node"><title>31867168</title>
<ellipse fill="gold" stroke="black" cx="2118" cy="-929" rx="208.096" ry="46.669"/>
<text text-anchor="middle" x="2118" y="-936.4" font-family="Times Roman,serif" font-size="24.00">exp: f</text>
<text text-anchor="middle" x="2118" y="-907.4" font-family="Times Roman,serif" font-size="24.00">value: sp:sym_dir_mult</text>
</g>
<!-- 26832768&#45;&gt;31867168 -->
<g id="edge71" class="edge"><title>26832768&#45;&gt;31867168</title>
<path fill="none" stroke="black" d="M1836.43,-816.955C1857.26,-823.306 1878.22,-830.061 1898,-837 1936.98,-850.68 1979,-867.674 2015.77,-883.321"/>
<polygon fill="black" stroke="black" points="2014.43,-886.554 2025,-887.267 2017.18,-880.117 2014.43,-886.554"/>
</g>
<!-- 32831984 -->
<g id="node36" class="node"><title>32831984</title>
<ellipse fill="gold" stroke="black" cx="2558" cy="-929" rx="208.096" ry="46.669"/>
<text text-anchor="middle" x="2558" y="-936.4" font-family="Times Roman,serif" font-size="24.00">exp: f</text>
<text text-anchor="middle" x="2558" y="-907.4" font-family="Times Roman,serif" font-size="24.00">value: sp:sym_dir_mult</text>
</g>
<!-- 26832768&#45;&gt;32831984 -->
<g id="edge79" class="edge"><title>26832768&#45;&gt;32831984</title>
<path fill="none" stroke="black" d="M2027.78,-797.965C2153.17,-808.563 2278.27,-822.026 2338,-837 2380.48,-847.649 2425.42,-865.207 2463.53,-882.145"/>
<polygon fill="black" stroke="black" points="2462.51,-885.524 2473.07,-886.433 2465.38,-879.14 2462.51,-885.524"/>
</g>
<!-- 30667776 -->
<g id="node40" class="node"><title>30667776</title>
<ellipse fill="gold" stroke="black" cx="2998" cy="-929" rx="208.096" ry="46.669"/>
<text text-anchor="middle" x="2998" y="-936.4" font-family="Times Roman,serif" font-size="24.00">exp: f</text>
<text text-anchor="middle" x="2998" y="-907.4" font-family="Times Roman,serif" font-size="24.00">value: sp:sym_dir_mult</text>
</g>
<!-- 26832768&#45;&gt;30667776 -->
<g id="edge63" class="edge"><title>26832768&#45;&gt;30667776</title>
<path fill="none" stroke="black" d="M2078.9,-782.82C2337.54,-791.236 2648.92,-807.234 2778,-837 2821.42,-847.012 2867.21,-864.866 2905.71,-882.198"/>
<polygon fill="black" stroke="black" points="2904.27,-885.389 2914.82,-886.352 2907.17,-879.02 2904.27,-885.389"/>
</g>
<!-- 30751904 -->
<g id="node44" class="node"><title>30751904</title>
<ellipse fill="gold" stroke="black" cx="3438" cy="-929" rx="208.096" ry="46.669"/>
<text text-anchor="middle" x="3438" y="-936.4" font-family="Times Roman,serif" font-size="24.00">exp: f</text>
<text text-anchor="middle" x="3438" y="-907.4" font-family="Times Roman,serif" font-size="24.00">value: sp:sym_dir_mult</text>
</g>
<!-- 26832768&#45;&gt;30751904 -->
<g id="edge55" class="edge"><title>26832768&#45;&gt;30751904</title>
<path fill="none" stroke="black" d="M2078.31,-783.044C2497.49,-793.688 3109.88,-812.994 3218,-837 3261.68,-846.699 3307.7,-864.608 3346.29,-882.065"/>
<polygon fill="black" stroke="black" points="3344.87,-885.266 3355.42,-886.25 3347.79,-878.902 3344.87,-885.266"/>
</g>
<!-- 28401456 -->
<g id="node9" class="node"><title>28401456</title>
<ellipse fill="#63b8ff" stroke="black" cx="1678" cy="-665" rx="99.9096" ry="26.163"/>
<text text-anchor="middle" x="1678" y="-657.9" font-family="Times Roman,serif" font-size="24.00">request: []</text>
</g>
<!-- 28401456&#45;&gt;26832768 -->
<g id="edge49" class="edge"><title>28401456&#45;&gt;26832768</title>
<path fill="none" stroke="black" d="M1678,-691.108C1678,-698.979 1678,-707.946 1678,-717.005"/>
<polygon fill="black" stroke="black" points="1674.5,-717.218 1678,-727.218 1681.5,-717.218 1674.5,-717.218"/>
</g>
<!-- 31366272 -->
<g id="node10" class="node"><title>31366272</title>
<ellipse fill="#999999" stroke="black" cx="1559" cy="-556" rx="263.958" ry="46.669"/>
<text text-anchor="middle" x="1559" y="-563.4" font-family="Times Roman,serif" font-size="24.00">exp: make_sym_dir_mult_reg</text>
<text text-anchor="middle" x="1559" y="-534.4" font-family="Times Roman,serif" font-size="24.00">value: sp:make_sym_dir_mult</text>
</g>
<!-- 31366272&#45;&gt;26832768 -->
<g id="edge33" class="edge"><title>31366272&#45;&gt;26832768</title>
<path fill="none" stroke="black" d="M1553.28,-602.716C1552.1,-630.015 1554.49,-664.247 1569,-691 1575.04,-702.136 1583.28,-712.231 1592.56,-721.236"/>
<polygon fill="black" stroke="black" points="1590.45,-724.053 1600.19,-728.223 1595.18,-718.889 1590.45,-724.053"/>
</g>
<!-- 31366272&#45;&gt;28401456 -->
<g id="edge35" class="edge"><title>31366272&#45;&gt;28401456</title>
<path fill="none" stroke="black" d="M1609.12,-601.91C1620.57,-612.397 1632.5,-623.32 1643.14,-633.071"/>
<polygon fill="black" stroke="black" points="1640.9,-635.768 1650.64,-639.942 1645.63,-630.606 1640.9,-635.768"/>
</g>
<!-- 31197024&#45;&gt;26832768 -->
<g id="edge39" class="edge"><title>31197024&#45;&gt;26832768</title>
<path fill="none" stroke="black" d="M1945.21,-599.07C1891.12,-634.478 1814.33,-684.754 1756.93,-722.327"/>
<polygon fill="black" stroke="black" points="1754.7,-719.604 1748.25,-728.009 1758.54,-725.46 1754.7,-719.604"/>
</g>
<!-- 31197024&#45;&gt;28401456 -->
<g id="edge41" class="edge"><title>31197024&#45;&gt;28401456</title>
<path fill="none" stroke="black" d="M1901.96,-591.691C1852.13,-608.003 1794.47,-626.877 1750.13,-641.389"/>
<polygon fill="black" stroke="black" points="1749.01,-638.073 1740.6,-644.51 1751.19,-644.725 1749.01,-638.073"/>
</g>
<!-- 32104320 -->
<g id="node12" class="node"><title>32104320</title>
<ellipse fill="#999999" stroke="black" cx="1128" cy="-556" rx="149.2" ry="46.669"/>
<text text-anchor="middle" x="1128" y="-563.4" font-family="Times Roman,serif" font-size="24.00">exp: 2.000000</text>
<text text-anchor="middle" x="1128" y="-534.4" font-family="Times Roman,serif" font-size="24.00">value: 2.000000</text>
</g>
<!-- 32104320&#45;&gt;26832768 -->
<g id="edge45" class="edge"><title>32104320&#45;&gt;26832768</title>
<path fill="none" stroke="black" d="M1220.37,-592.611C1312.35,-629.069 1454.08,-685.246 1555.43,-725.418"/>
<polygon fill="black" stroke="black" points="1554.22,-728.701 1564.8,-729.132 1556.79,-722.194 1554.22,-728.701"/>
</g>
<!-- 32104320&#45;&gt;28401456 -->
<g id="edge47" class="edge"><title>32104320&#45;&gt;28401456</title>
<path fill="none" stroke="black" d="M1232.45,-589.184C1250.21,-594.219 1268.56,-599.044 1286,-603 1383.95,-625.212 1497.44,-642.23 1577.03,-652.768"/>
<polygon fill="black" stroke="black" points="1576.68,-656.252 1587.05,-654.084 1577.59,-649.312 1576.68,-656.252"/>
</g>
<!-- 33146560 -->
<g id="node14" class="node"><title>33146560</title>
<ellipse fill="gold" stroke="black" cx="358" cy="-1147" rx="79.9031" ry="46.669"/>
<text text-anchor="middle" x="358" y="-1154.4" font-family="Times Roman,serif" font-size="24.00">exp: (f)</text>
<text text-anchor="middle" x="358" y="-1125.4" font-family="Times Roman,serif" font-size="24.00">value: 1</text>
</g>
<!-- 33121808 -->
<g id="node15" class="node"><title>33121808</title>
<ellipse fill="gold" stroke="black" cx="411" cy="-1038" rx="87.1802" ry="26.163"/>
<text text-anchor="middle" x="411" y="-1030.9" font-family="Times Roman,serif" font-size="24.00">request: </text>
</g>
<!-- 33121808&#45;&gt;33146560 -->
<g id="edge97" class="edge"><title>33121808&#45;&gt;33146560</title>
<path fill="none" stroke="black" d="M398.44,-1063.83C394.174,-1072.6 389.235,-1082.76 384.305,-1092.9"/>
<polygon fill="black" stroke="black" points="381.025,-1091.64 379.8,-1102.17 387.32,-1094.7 381.025,-1091.64"/>
</g>
<!-- 26573984&#45;&gt;33146560 -->
<g id="edge91" class="edge"><title>26573984&#45;&gt;33146560</title>
<path fill="none" stroke="black" d="M329.11,-975.302C323.292,-986.871 318.035,-999.544 315,-1012 309.529,-1034.45 309.529,-1041.55 315,-1064 317.475,-1074.16 321.426,-1084.46 325.955,-1094.19"/>
<polygon fill="black" stroke="black" points="322.891,-1095.89 330.445,-1103.31 329.172,-1092.8 322.891,-1095.89"/>
</g>
<!-- 26573984&#45;&gt;33121808 -->
<g id="edge93" class="edge"><title>26573984&#45;&gt;33121808</title>
<path fill="none" stroke="black" d="M380.631,-975.542C385.093,-984.721 389.706,-994.207 393.947,-1002.93"/>
<polygon fill="black" stroke="black" points="390.858,-1004.58 398.379,-1012.04 397.154,-1001.52 390.858,-1004.58"/>
</g>
<!-- 26546816 -->
<g id="node18" class="node"><title>26546816</title>
<ellipse fill="gold" stroke="black" cx="798" cy="-1147" rx="79.9031" ry="46.669"/>
<text text-anchor="middle" x="798" y="-1154.4" font-family="Times Roman,serif" font-size="24.00">exp: (f)</text>
<text text-anchor="middle" x="798" y="-1125.4" font-family="Times Roman,serif" font-size="24.00">value: 1</text>
</g>
<!-- 26371472 -->
<g id="node19" class="node"><title>26371472</title>
<ellipse fill="gold" stroke="black" cx="851" cy="-1038" rx="87.1802" ry="26.163"/>
<text text-anchor="middle" x="851" y="-1030.9" font-family="Times Roman,serif" font-size="24.00">request: </text>
</g>
<!-- 26371472&#45;&gt;26546816 -->
<g id="edge31" class="edge"><title>26371472&#45;&gt;26546816</title>
<path fill="none" stroke="black" d="M838.44,-1063.83C834.174,-1072.6 829.235,-1082.76 824.305,-1092.9"/>
<polygon fill="black" stroke="black" points="821.025,-1091.64 819.8,-1102.17 827.32,-1094.7 821.025,-1091.64"/>
</g>
<!-- 23848704&#45;&gt;26546816 -->
<g id="edge25" class="edge"><title>23848704&#45;&gt;26546816</title>
<path fill="none" stroke="black" d="M769.11,-975.302C763.292,-986.871 758.035,-999.544 755,-1012 749.529,-1034.45 749.529,-1041.55 755,-1064 757.475,-1074.16 761.426,-1084.46 765.955,-1094.19"/>
<polygon fill="black" stroke="black" points="762.891,-1095.89 770.445,-1103.31 769.172,-1092.8 762.891,-1095.89"/>
</g>
<!-- 23848704&#45;&gt;26371472 -->
<g id="edge27" class="edge"><title>23848704&#45;&gt;26371472</title>
<path fill="none" stroke="black" d="M820.631,-975.542C825.093,-984.721 829.706,-994.207 833.947,-1002.93"/>
<polygon fill="black" stroke="black" points="830.858,-1004.58 838.379,-1012.04 837.154,-1001.52 830.858,-1004.58"/>
</g>
<!-- 32607728 -->
<g id="node22" class="node"><title>32607728</title>
<ellipse fill="gold" stroke="black" cx="1238" cy="-1147" rx="79.9031" ry="46.669"/>
<text text-anchor="middle" x="1238" y="-1154.4" font-family="Times Roman,serif" font-size="24.00">exp: (f)</text>
<text text-anchor="middle" x="1238" y="-1125.4" font-family="Times Roman,serif" font-size="24.00">value: 1</text>
</g>
<!-- 31430560 -->
<g id="node23" class="node"><title>31430560</title>
<ellipse fill="gold" stroke="black" cx="1291" cy="-1038" rx="87.1802" ry="26.163"/>
<text text-anchor="middle" x="1291" y="-1030.9" font-family="Times Roman,serif" font-size="24.00">request: </text>
</g>
<!-- 31430560&#45;&gt;32607728 -->
<g id="edge89" class="edge"><title>31430560&#45;&gt;32607728</title>
<path fill="none" stroke="black" d="M1278.44,-1063.83C1274.17,-1072.6 1269.24,-1082.76 1264.31,-1092.9"/>
<polygon fill="black" stroke="black" points="1261.02,-1091.64 1259.8,-1102.17 1267.32,-1094.7 1261.02,-1091.64"/>
</g>
<!-- 33201408&#45;&gt;32607728 -->
<g id="edge83" class="edge"><title>33201408&#45;&gt;32607728</title>
<path fill="none" stroke="black" d="M1209.11,-975.302C1203.29,-986.871 1198.04,-999.544 1195,-1012 1189.53,-1034.45 1189.53,-1041.55 1195,-1064 1197.47,-1074.16 1201.43,-1084.46 1205.96,-1094.19"/>
<polygon fill="black" stroke="black" points="1202.89,-1095.89 1210.44,-1103.31 1209.17,-1092.8 1202.89,-1095.89"/>
</g>
<!-- 33201408&#45;&gt;31430560 -->
<g id="edge85" class="edge"><title>33201408&#45;&gt;31430560</title>
<path fill="none" stroke="black" d="M1260.63,-975.542C1265.09,-984.721 1269.71,-994.207 1273.95,-1002.93"/>
<polygon fill="black" stroke="black" points="1270.86,-1004.58 1278.38,-1012.04 1277.15,-1001.52 1270.86,-1004.58"/>
</g>
<!-- 33286304 -->
<g id="node26" class="node"><title>33286304</title>
<ellipse fill="gold" stroke="black" cx="1678" cy="-1147" rx="79.9031" ry="46.669"/>
<text text-anchor="middle" x="1678" y="-1154.4" font-family="Times Roman,serif" font-size="24.00">exp: (f)</text>
<text text-anchor="middle" x="1678" y="-1125.4" font-family="Times Roman,serif" font-size="24.00">value: 1</text>
</g>
<!-- 33251344 -->
<g id="node27" class="node"><title>33251344</title>
<ellipse fill="gold" stroke="black" cx="1731" cy="-1038" rx="87.1802" ry="26.163"/>
<text text-anchor="middle" x="1731" y="-1030.9" font-family="Times Roman,serif" font-size="24.00">request: </text>
</g>
<!-- 33251344&#45;&gt;33286304 -->
<g id="edge105" class="edge"><title>33251344&#45;&gt;33286304</title>
<path fill="none" stroke="black" d="M1718.44,-1063.83C1714.17,-1072.6 1709.24,-1082.76 1704.31,-1092.9"/>
<polygon fill="black" stroke="black" points="1701.02,-1091.64 1699.8,-1102.17 1707.32,-1094.7 1701.02,-1091.64"/>
</g>
<!-- 33388464&#45;&gt;33286304 -->
<g id="edge99" class="edge"><title>33388464&#45;&gt;33286304</title>
<path fill="none" stroke="black" d="M1649.11,-975.302C1643.29,-986.871 1638.04,-999.544 1635,-1012 1629.53,-1034.45 1629.53,-1041.55 1635,-1064 1637.47,-1074.16 1641.43,-1084.46 1645.96,-1094.19"/>
<polygon fill="black" stroke="black" points="1642.89,-1095.89 1650.44,-1103.31 1649.17,-1092.8 1642.89,-1095.89"/>
</g>
<!-- 33388464&#45;&gt;33251344 -->
<g id="edge101" class="edge"><title>33388464&#45;&gt;33251344</title>
<path fill="none" stroke="black" d="M1700.63,-975.542C1705.09,-984.721 1709.71,-994.207 1713.95,-1002.93"/>
<polygon fill="black" stroke="black" points="1710.86,-1004.58 1718.38,-1012.04 1717.15,-1001.52 1710.86,-1004.58"/>
</g>
<!-- 31707056 -->
<g id="node30" class="node"><title>31707056</title>
<ellipse fill="gold" stroke="black" cx="2118" cy="-1147" rx="79.9031" ry="46.669"/>
<text text-anchor="middle" x="2118" y="-1154.4" font-family="Times Roman,serif" font-size="24.00">exp: (f)</text>
<text text-anchor="middle" x="2118" y="-1125.4" font-family="Times Roman,serif" font-size="24.00">value: 1</text>
</g>
<!-- 34057888 -->
<g id="node31" class="node"><title>34057888</title>
<ellipse fill="gold" stroke="black" cx="2171" cy="-1038" rx="87.1802" ry="26.163"/>
<text text-anchor="middle" x="2171" y="-1030.9" font-family="Times Roman,serif" font-size="24.00">request: </text>
</g>
<!-- 34057888&#45;&gt;31707056 -->
<g id="edge73" class="edge"><title>34057888&#45;&gt;31707056</title>
<path fill="none" stroke="black" d="M2158.44,-1063.83C2154.17,-1072.6 2149.24,-1082.76 2144.31,-1092.9"/>
<polygon fill="black" stroke="black" points="2141.02,-1091.64 2139.8,-1102.17 2147.32,-1094.7 2141.02,-1091.64"/>
</g>
<!-- 31867168&#45;&gt;31707056 -->
<g id="edge67" class="edge"><title>31867168&#45;&gt;31707056</title>
<path fill="none" stroke="black" d="M2089.11,-975.302C2083.29,-986.871 2078.04,-999.544 2075,-1012 2069.53,-1034.45 2069.53,-1041.55 2075,-1064 2077.47,-1074.16 2081.43,-1084.46 2085.96,-1094.19"/>
<polygon fill="black" stroke="black" points="2082.89,-1095.89 2090.44,-1103.31 2089.17,-1092.8 2082.89,-1095.89"/>
</g>
<!-- 31867168&#45;&gt;34057888 -->
<g id="edge69" class="edge"><title>31867168&#45;&gt;34057888</title>
<path fill="none" stroke="black" d="M2140.63,-975.542C2145.09,-984.721 2149.71,-994.207 2153.95,-1002.93"/>
<polygon fill="black" stroke="black" points="2150.86,-1004.58 2158.38,-1012.04 2157.15,-1001.52 2150.86,-1004.58"/>
</g>
<!-- 31714368 -->
<g id="node34" class="node"><title>31714368</title>
<ellipse fill="gold" stroke="black" cx="2558" cy="-1147" rx="79.9031" ry="46.669"/>
<text text-anchor="middle" x="2558" y="-1154.4" font-family="Times Roman,serif" font-size="24.00">exp: (f)</text>
<text text-anchor="middle" x="2558" y="-1125.4" font-family="Times Roman,serif" font-size="24.00">value: 1</text>
</g>
<!-- 32406512 -->
<g id="node35" class="node"><title>32406512</title>
<ellipse fill="gold" stroke="black" cx="2611" cy="-1038" rx="87.1802" ry="26.163"/>
<text text-anchor="middle" x="2611" y="-1030.9" font-family="Times Roman,serif" font-size="24.00">request: </text>
</g>
<!-- 32406512&#45;&gt;31714368 -->
<g id="edge81" class="edge"><title>32406512&#45;&gt;31714368</title>
<path fill="none" stroke="black" d="M2598.44,-1063.83C2594.17,-1072.6 2589.24,-1082.76 2584.31,-1092.9"/>
<polygon fill="black" stroke="black" points="2581.02,-1091.64 2579.8,-1102.17 2587.32,-1094.7 2581.02,-1091.64"/>
</g>
<!-- 32831984&#45;&gt;31714368 -->
<g id="edge75" class="edge"><title>32831984&#45;&gt;31714368</title>
<path fill="none" stroke="black" d="M2529.11,-975.302C2523.29,-986.871 2518.04,-999.544 2515,-1012 2509.53,-1034.45 2509.53,-1041.55 2515,-1064 2517.47,-1074.16 2521.43,-1084.46 2525.96,-1094.19"/>
<polygon fill="black" stroke="black" points="2522.89,-1095.89 2530.44,-1103.31 2529.17,-1092.8 2522.89,-1095.89"/>
</g>
<!-- 32831984&#45;&gt;32406512 -->
<g id="edge77" class="edge"><title>32831984&#45;&gt;32406512</title>
<path fill="none" stroke="black" d="M2580.63,-975.542C2585.09,-984.721 2589.71,-994.207 2593.95,-1002.93"/>
<polygon fill="black" stroke="black" points="2590.86,-1004.58 2598.38,-1012.04 2597.15,-1001.52 2590.86,-1004.58"/>
</g>
<!-- 31195328 -->
<g id="node38" class="node"><title>31195328</title>
<ellipse fill="gold" stroke="black" cx="2998" cy="-1147" rx="79.9031" ry="46.669"/>
<text text-anchor="middle" x="2998" y="-1154.4" font-family="Times Roman,serif" font-size="24.00">exp: (f)</text>
<text text-anchor="middle" x="2998" y="-1125.4" font-family="Times Roman,serif" font-size="24.00">value: 1</text>
</g>
<!-- 32830880 -->
<g id="node39" class="node"><title>32830880</title>
<ellipse fill="gold" stroke="black" cx="3051" cy="-1038" rx="87.1802" ry="26.163"/>
<text text-anchor="middle" x="3051" y="-1030.9" font-family="Times Roman,serif" font-size="24.00">request: </text>
</g>
<!-- 32830880&#45;&gt;31195328 -->
<g id="edge65" class="edge"><title>32830880&#45;&gt;31195328</title>
<path fill="none" stroke="black" d="M3038.44,-1063.83C3034.17,-1072.6 3029.24,-1082.76 3024.31,-1092.9"/>
<polygon fill="black" stroke="black" points="3021.02,-1091.64 3019.8,-1102.17 3027.32,-1094.7 3021.02,-1091.64"/>
</g>
<!-- 30667776&#45;&gt;31195328 -->
<g id="edge59" class="edge"><title>30667776&#45;&gt;31195328</title>
<path fill="none" stroke="black" d="M2969.11,-975.302C2963.29,-986.871 2958.04,-999.544 2955,-1012 2949.53,-1034.45 2949.53,-1041.55 2955,-1064 2957.47,-1074.16 2961.43,-1084.46 2965.96,-1094.19"/>
<polygon fill="black" stroke="black" points="2962.89,-1095.89 2970.44,-1103.31 2969.17,-1092.8 2962.89,-1095.89"/>
</g>
<!-- 30667776&#45;&gt;32830880 -->
<g id="edge61" class="edge"><title>30667776&#45;&gt;32830880</title>
<path fill="none" stroke="black" d="M3020.63,-975.542C3025.09,-984.721 3029.71,-994.207 3033.95,-1002.93"/>
<polygon fill="black" stroke="black" points="3030.86,-1004.58 3038.38,-1012.04 3037.15,-1001.52 3030.86,-1004.58"/>
</g>
<!-- 30811856 -->
<g id="node42" class="node"><title>30811856</title>
<ellipse fill="gold" stroke="black" cx="3438" cy="-1147" rx="79.9031" ry="46.669"/>
<text text-anchor="middle" x="3438" y="-1154.4" font-family="Times Roman,serif" font-size="24.00">exp: (f)</text>
<text text-anchor="middle" x="3438" y="-1125.4" font-family="Times Roman,serif" font-size="24.00">value: 1</text>
</g>
<!-- 33073952 -->
<g id="node43" class="node"><title>33073952</title>
<ellipse fill="gold" stroke="black" cx="3491" cy="-1038" rx="87.1802" ry="26.163"/>
<text text-anchor="middle" x="3491" y="-1030.9" font-family="Times Roman,serif" font-size="24.00">request: </text>
</g>
<!-- 33073952&#45;&gt;30811856 -->
<g id="edge57" class="edge"><title>33073952&#45;&gt;30811856</title>
<path fill="none" stroke="black" d="M3478.44,-1063.83C3474.17,-1072.6 3469.24,-1082.76 3464.31,-1092.9"/>
<polygon fill="black" stroke="black" points="3461.02,-1091.64 3459.8,-1102.17 3467.32,-1094.7 3461.02,-1091.64"/>
</g>
<!-- 30751904&#45;&gt;30811856 -->
<g id="edge51" class="edge"><title>30751904&#45;&gt;30811856</title>
<path fill="none" stroke="black" d="M3409.11,-975.302C3403.29,-986.871 3398.04,-999.544 3395,-1012 3389.53,-1034.45 3389.53,-1041.55 3395,-1064 3397.47,-1074.16 3401.43,-1084.46 3405.96,-1094.19"/>
<polygon fill="black" stroke="black" points="3402.89,-1095.89 3410.44,-1103.31 3409.17,-1092.8 3402.89,-1095.89"/>
</g>
<!-- 30751904&#45;&gt;33073952 -->
<g id="edge53" class="edge"><title>30751904&#45;&gt;33073952</title>
<path fill="none" stroke="black" d="M3460.63,-975.542C3465.09,-984.721 3469.71,-994.207 3473.95,-1002.93"/>
<polygon fill="black" stroke="black" points="3470.86,-1004.58 3478.38,-1012.04 3477.15,-1001.52 3470.86,-1004.58"/>
</g>
<!-- 31432128 -->
<g id="node47" class="node"><title>31432128</title>
<ellipse fill="none" stroke="black" cx="2169" cy="-19" rx="62.9325" ry="18.3848"/>
<text text-anchor="middle" x="2169" y="-15.4" font-family="Times Roman,serif" font-size="14.00">31432128</text>
</g>
<!-- 31432128&#45;&gt;25906208 -->
<g id="edge17" class="edge"><title>31432128&#45;&gt;25906208</title>
<path fill="none" stroke="black" d="M2169,-37.8129C2169,-59.2806 2169,-95.4093 2169,-126.255"/>
<polygon fill="black" stroke="black" points="2165.5,-126.484 2169,-136.484 2172.5,-126.484 2165.5,-126.484"/>
</g>
<!-- 29406048 -->
<g id="node58" class="node"><title>29406048</title>
<ellipse fill="none" stroke="black" cx="63" cy="-401" rx="62.9325" ry="18.3848"/>
<text text-anchor="middle" x="63" y="-397.4" font-family="Times Roman,serif" font-size="14.00">29406048</text>
</g>
<!-- 29406048&#45;&gt;31366272 -->
<g id="edge37" class="edge"><title>29406048&#45;&gt;31366272</title>
<path fill="none" stroke="black" d="M125.969,-401.973C343.185,-405.685 1060.18,-420.979 1286,-464 1339.43,-474.179 1396.73,-492.312 1444.97,-509.804"/>
<polygon fill="black" stroke="black" points="1443.9,-513.14 1454.5,-513.292 1446.31,-506.567 1443.9,-513.14"/>
</g>
</g>
</svg>
