<?xml version="1.0" encoding="UTF-8" standalone="no"?>
<!DOCTYPE svg PUBLIC "-//W3C//DTD SVG 1.1//EN"
 "http://www.w3.org/Graphics/SVG/1.1/DTD/svg11.dtd">
<!-- Generated by graphviz version 2.26.3 (20100126.1600)
 -->
<!-- Title: _anonymous_0 Pages: 1 -->
<svg width="3678pt" height="1226pt"
 viewBox="0.00 0.00 3678.00 1226.00" xmlns="http://www.w3.org/2000/svg" xmlns:xlink="http://www.w3.org/1999/xlink">
<g id="graph1" class="graph" transform="scale(1 1) rotate(0) translate(4 1222)">
<title>_anonymous_0</title>
<polygon fill="white" stroke="white" points="-4,5 -4,-1222 3675,-1222 3675,5 -4,5"/>
<g id="graph2" class="cluster"><title>cluster1</title>
<polygon fill="none" stroke="black" points="134,-46 134,-1210 3662,-1210 3662,-46 134,-46"/>
<text text-anchor="middle" x="1898" y="-57.4" font-family="Times Roman,serif" font-size="24.00">Venture Families</text>
</g>
<g id="graph3" class="cluster"><title>cluster2</title>
<polygon fill="none" stroke="black" points="1639,-91 1639,-456 2321,-456 2321,-91 1639,-91"/>
<text text-anchor="middle" x="1980" y="-102.4" font-family="Times Roman,serif" font-size="24.00">1</text>
</g>
<g id="graph4" class="cluster"><title>cluster3</title>
<polygon fill="none" stroke="black" points="971,-464 971,-829 2169,-829 2169,-464 971,-464"/>
<text text-anchor="middle" x="1570" y="-475.4" font-family="Times Roman,serif" font-size="24.00">2</text>
</g>
<g id="graph5" class="cluster"><title>cluster4</title>
<polygon fill="none" stroke="black" points="142,-837 142,-1202 574,-1202 574,-837 142,-837"/>
<text text-anchor="middle" x="358" y="-848.4" font-family="Times Roman,serif" font-size="24.00">3</text>
</g>
<g id="graph6" class="cluster"><title>cluster5</title>
<polygon fill="none" stroke="black" points="582,-837 582,-1202 1014,-1202 1014,-837 582,-837"/>
<text text-anchor="middle" x="798" y="-848.4" font-family="Times Roman,serif" font-size="24.00">4</text>
</g>
<g id="graph7" class="cluster"><title>cluster6</title>
<polygon fill="none" stroke="black" points="1022,-837 1022,-1202 1454,-1202 1454,-837 1022,-837"/>
<text text-anchor="middle" x="1238" y="-848.4" font-family="Times Roman,serif" font-size="24.00">5</text>
</g>
<g id="graph8" class="cluster"><title>cluster7</title>
<polygon fill="none" stroke="black" points="1462,-837 1462,-1202 1894,-1202 1894,-837 1462,-837"/>
<text text-anchor="middle" x="1678" y="-848.4" font-family="Times Roman,serif" font-size="24.00">6</text>
</g>
<g id="graph9" class="cluster"><title>cluster8</title>
<polygon fill="none" stroke="black" points="1902,-837 1902,-1202 2334,-1202 2334,-837 1902,-837"/>
<text text-anchor="middle" x="2118" y="-848.4" font-family="Times Roman,serif" font-size="24.00">7</text>
</g>
<g id="graph10" class="cluster"><title>cluster9</title>
<polygon fill="none" stroke="black" points="2342,-837 2342,-1202 2774,-1202 2774,-837 2342,-837"/>
<text text-anchor="middle" x="2558" y="-848.4" font-family="Times Roman,serif" font-size="24.00">8</text>
</g>
<g id="graph11" class="cluster"><title>cluster10</title>
<polygon fill="none" stroke="black" points="2782,-837 2782,-1202 3214,-1202 3214,-837 2782,-837"/>
<text text-anchor="middle" x="2998" y="-848.4" font-family="Times Roman,serif" font-size="24.00">9</text>
</g>
<g id="graph12" class="cluster"><title>cluster11</title>
<polygon fill="none" stroke="black" points="3222,-837 3222,-1202 3654,-1202 3654,-837 3222,-837"/>
<text text-anchor="middle" x="3438" y="-848.4" font-family="Times Roman,serif" font-size="24.00">10</text>
</g>
<!-- 23627488 -->
<g id="node3" class="node"><title>23627488</title>
<ellipse fill="firebrick" stroke="black" cx="2001" cy="-401" rx="241.123" ry="46.669"/>
<text text-anchor="middle" x="2001" y="-408.4" font-family="Times Roman,serif" font-size="24.00">exp: (snormal 100.000000)</text>
<text text-anchor="middle" x="2001" y="-379.4" font-family="Times Roman,serif" font-size="24.00">value: 98.944870</text>
</g>
<!-- 21773440 -->
<g id="node11" class="node"><title>21773440</title>
<ellipse fill="gold" stroke="black" cx="2001" cy="-556" rx="159.806" ry="46.669"/>
<text text-anchor="middle" x="2001" y="-563.4" font-family="Times Roman,serif" font-size="24.00">exp: alpha</text>
<text text-anchor="middle" x="2001" y="-534.4" font-family="Times Roman,serif" font-size="24.00">value: 98.944870</text>
</g>
<!-- 23627488&#45;&gt;21773440 -->
<g id="edge31" class="edge"><title>23627488&#45;&gt;21773440</title>
<path fill="none" stroke="black" d="M2001,-447.505C2001,-463.677 2001,-482.005 2001,-498.933"/>
<polygon fill="black" stroke="black" points="1997.5,-499.26 2001,-509.26 2004.5,-499.26 1997.5,-499.26"/>
</g>
<!-- 28219728 -->
<g id="node4" class="node"><title>28219728</title>
<ellipse fill="#999999" stroke="black" cx="2001" cy="-292" rx="99.9096" ry="26.163"/>
<text text-anchor="middle" x="2001" y="-284.9" font-family="Times Roman,serif" font-size="24.00">request: []</text>
</g>
<!-- 28219728&#45;&gt;23627488 -->
<g id="edge49" class="edge"><title>28219728&#45;&gt;23627488</title>
<path fill="none" stroke="black" d="M2001,-318.108C2001,-325.979 2001,-334.946 2001,-344.005"/>
<polygon fill="black" stroke="black" points="1997.5,-344.218 2001,-354.218 2004.5,-344.218 1997.5,-344.218"/>
</g>
<!-- 21574256 -->
<g id="node5" class="node"><title>21574256</title>
<ellipse fill="#999999" stroke="black" cx="2159" cy="-183" rx="154.149" ry="46.669"/>
<text text-anchor="middle" x="2159" y="-190.4" font-family="Times Roman,serif" font-size="24.00">exp: snormal</text>
<text text-anchor="middle" x="2159" y="-161.4" font-family="Times Roman,serif" font-size="24.00">value: sp:normal</text>
</g>
<!-- 21574256&#45;&gt;23627488 -->
<g id="edge39" class="edge"><title>21574256&#45;&gt;23627488</title>
<path fill="none" stroke="black" d="M2149.12,-229.623C2141.63,-257.217 2129.28,-291.787 2110,-318 2101.47,-329.599 2090.88,-340.353 2079.68,-350.014"/>
<polygon fill="black" stroke="black" points="2077.3,-347.44 2071.85,-356.524 2081.78,-352.823 2077.3,-347.44"/>
</g>
<!-- 21574256&#45;&gt;28219728 -->
<g id="edge41" class="edge"><title>21574256&#45;&gt;28219728</title>
<path fill="none" stroke="black" d="M2097.01,-225.767C2079.65,-237.744 2061.14,-250.514 2045.05,-261.614"/>
<polygon fill="black" stroke="black" points="2042.62,-259.033 2036.38,-267.592 2046.6,-264.795 2042.62,-259.033"/>
</g>
<!-- 21801008 -->
<g id="node6" class="node"><title>21801008</title>
<ellipse fill="#999999" stroke="black" cx="1817" cy="-183" rx="169.913" ry="46.669"/>
<text text-anchor="middle" x="1817" y="-190.4" font-family="Times Roman,serif" font-size="24.00">exp: 100.000000</text>
<text text-anchor="middle" x="1817" y="-161.4" font-family="Times Roman,serif" font-size="24.00">value: 100.000000</text>
</g>
<!-- 21801008&#45;&gt;23627488 -->
<g id="edge45" class="edge"><title>21801008&#45;&gt;23627488</title>
<path fill="none" stroke="black" d="M1836.89,-229.45C1850.06,-256.982 1869.1,-291.547 1892,-318 1901.83,-329.359 1913.45,-340.165 1925.37,-350"/>
<polygon fill="black" stroke="black" points="1923.25,-352.783 1933.23,-356.319 1927.63,-347.326 1923.25,-352.783"/>
</g>
<!-- 21801008&#45;&gt;28219728 -->
<g id="edge47" class="edge"><title>21801008&#45;&gt;28219728</title>
<path fill="none" stroke="black" d="M1888.4,-225.298C1909.69,-237.909 1932.53,-251.438 1952.03,-262.993"/>
<polygon fill="black" stroke="black" points="1950.36,-266.067 1960.74,-268.153 1953.92,-260.045 1950.36,-266.067"/>
</g>
<!-- 22672608 -->
<g id="node8" class="node"><title>22672608</title>
<ellipse fill="gold" stroke="black" cx="1678" cy="-774" rx="408.207" ry="46.669"/>
<text text-anchor="middle" x="1678" y="-781.4" font-family="Times Roman,serif" font-size="24.00">exp: (make_sym_dir_mult_reg alpha 2.000000)</text>
<text text-anchor="middle" x="1678" y="-752.4" font-family="Times Roman,serif" font-size="24.00">value: sp:sym_dir_mult</text>
</g>
<!-- 22735856 -->
<g id="node16" class="node"><title>22735856</title>
<ellipse fill="gold" stroke="black" cx="358" cy="-929" rx="208.096" ry="46.669"/>
<text text-anchor="middle" x="358" y="-936.4" font-family="Times Roman,serif" font-size="24.00">exp: f</text>
<text text-anchor="middle" x="358" y="-907.4" font-family="Times Roman,serif" font-size="24.00">value: sp:sym_dir_mult</text>
</g>
<!-- 22672608&#45;&gt;22735856 -->
<g id="edge55" class="edge"><title>22672608&#45;&gt;22735856</title>
<path fill="none" stroke="black" d="M1277.1,-782.82C1018.46,-791.236 707.077,-807.234 578,-837 534.584,-847.012 488.791,-864.866 450.292,-882.198"/>
<polygon fill="black" stroke="black" points="448.826,-879.02 441.178,-886.352 451.729,-885.389 448.826,-879.02"/>
</g>
<!-- 29128816 -->
<g id="node20" class="node"><title>29128816</title>
<ellipse fill="gold" stroke="black" cx="798" cy="-929" rx="208.096" ry="46.669"/>
<text text-anchor="middle" x="798" y="-936.4" font-family="Times Roman,serif" font-size="24.00">exp: f</text>
<text text-anchor="middle" x="798" y="-907.4" font-family="Times Roman,serif" font-size="24.00">value: sp:sym_dir_mult</text>
</g>
<!-- 22672608&#45;&gt;29128816 -->
<g id="edge17" class="edge"><title>22672608&#45;&gt;29128816</title>
<path fill="none" stroke="black" d="M1328.22,-797.965C1202.83,-808.563 1077.73,-822.026 1018,-837 975.52,-847.649 930.581,-865.207 892.47,-882.145"/>
<polygon fill="black" stroke="black" points="890.618,-879.14 882.934,-886.433 893.489,-885.524 890.618,-879.14"/>
</g>
<!-- 27928448 -->
<g id="node24" class="node"><title>27928448</title>
<ellipse fill="gold" stroke="black" cx="1238" cy="-929" rx="208.096" ry="46.669"/>
<text text-anchor="middle" x="1238" y="-936.4" font-family="Times Roman,serif" font-size="24.00">exp: f</text>
<text text-anchor="middle" x="1238" y="-907.4" font-family="Times Roman,serif" font-size="24.00">value: sp:sym_dir_mult</text>
</g>
<!-- 22672608&#45;&gt;27928448 -->
<g id="edge79" class="edge"><title>22672608&#45;&gt;27928448</title>
<path fill="none" stroke="black" d="M1519.57,-816.955C1498.74,-823.306 1477.78,-830.061 1458,-837 1419.02,-850.68 1377,-867.674 1340.23,-883.321"/>
<polygon fill="black" stroke="black" points="1338.82,-880.117 1331,-887.267 1341.57,-886.554 1338.82,-880.117"/>
</g>
<!-- 29281792 -->
<g id="node28" class="node"><title>29281792</title>
<ellipse fill="gold" stroke="black" cx="1678" cy="-929" rx="208.096" ry="46.669"/>
<text text-anchor="middle" x="1678" y="-936.4" font-family="Times Roman,serif" font-size="24.00">exp: f</text>
<text text-anchor="middle" x="1678" y="-907.4" font-family="Times Roman,serif" font-size="24.00">value: sp:sym_dir_mult</text>
</g>
<!-- 22672608&#45;&gt;29281792 -->
<g id="edge95" class="edge"><title>22672608&#45;&gt;29281792</title>
<path fill="none" stroke="black" d="M1678,-820.505C1678,-836.677 1678,-855.005 1678,-871.933"/>
<polygon fill="black" stroke="black" points="1674.5,-872.26 1678,-882.26 1681.5,-872.26 1674.5,-872.26"/>
</g>
<!-- 28813184 -->
<g id="node32" class="node"><title>28813184</title>
<ellipse fill="gold" stroke="black" cx="2118" cy="-929" rx="208.096" ry="46.669"/>
<text text-anchor="middle" x="2118" y="-936.4" font-family="Times Roman,serif" font-size="24.00">exp: f</text>
<text text-anchor="middle" x="2118" y="-907.4" font-family="Times Roman,serif" font-size="24.00">value: sp:sym_dir_mult</text>
</g>
<!-- 22672608&#45;&gt;28813184 -->
<g id="edge103" class="edge"><title>22672608&#45;&gt;28813184</title>
<path fill="none" stroke="black" d="M1836.43,-816.955C1857.26,-823.306 1878.22,-830.061 1898,-837 1936.98,-850.68 1979,-867.674 2015.77,-883.321"/>
<polygon fill="black" stroke="black" points="2014.43,-886.554 2025,-887.267 2017.18,-880.117 2014.43,-886.554"/>
</g>
<!-- 28482800 -->
<g id="node36" class="node"><title>28482800</title>
<ellipse fill="gold" stroke="black" cx="2558" cy="-929" rx="208.096" ry="46.669"/>
<text text-anchor="middle" x="2558" y="-936.4" font-family="Times Roman,serif" font-size="24.00">exp: f</text>
<text text-anchor="middle" x="2558" y="-907.4" font-family="Times Roman,serif" font-size="24.00">value: sp:sym_dir_mult</text>
</g>
<!-- 22672608&#45;&gt;28482800 -->
<g id="edge87" class="edge"><title>22672608&#45;&gt;28482800</title>
<path fill="none" stroke="black" d="M2027.78,-797.965C2153.17,-808.563 2278.27,-822.026 2338,-837 2380.48,-847.649 2425.42,-865.207 2463.53,-882.145"/>
<polygon fill="black" stroke="black" points="2462.51,-885.524 2473.07,-886.433 2465.38,-879.14 2462.51,-885.524"/>
</g>
<!-- 28481696 -->
<g id="node40" class="node"><title>28481696</title>
<ellipse fill="gold" stroke="black" cx="2998" cy="-929" rx="208.096" ry="46.669"/>
<text text-anchor="middle" x="2998" y="-936.4" font-family="Times Roman,serif" font-size="24.00">exp: f</text>
<text text-anchor="middle" x="2998" y="-907.4" font-family="Times Roman,serif" font-size="24.00">value: sp:sym_dir_mult</text>
</g>
<!-- 22672608&#45;&gt;28481696 -->
<g id="edge71" class="edge"><title>22672608&#45;&gt;28481696</title>
<path fill="none" stroke="black" d="M2078.9,-782.82C2337.54,-791.236 2648.92,-807.234 2778,-837 2821.42,-847.012 2867.21,-864.866 2905.71,-882.198"/>
<polygon fill="black" stroke="black" points="2904.27,-885.389 2914.82,-886.352 2907.17,-879.02 2904.27,-885.389"/>
</g>
<!-- 28298448 -->
<g id="node44" class="node"><title>28298448</title>
<ellipse fill="gold" stroke="black" cx="3438" cy="-929" rx="208.096" ry="46.669"/>
<text text-anchor="middle" x="3438" y="-936.4" font-family="Times Roman,serif" font-size="24.00">exp: f</text>
<text text-anchor="middle" x="3438" y="-907.4" font-family="Times Roman,serif" font-size="24.00">value: sp:sym_dir_mult</text>
</g>
<!-- 22672608&#45;&gt;28298448 -->
<g id="edge63" class="edge"><title>22672608&#45;&gt;28298448</title>
<path fill="none" stroke="black" d="M2078.31,-783.044C2497.49,-793.688 3109.88,-812.994 3218,-837 3261.68,-846.699 3307.7,-864.608 3346.29,-882.065"/>
<polygon fill="black" stroke="black" points="3344.87,-885.266 3355.42,-886.25 3347.79,-878.902 3344.87,-885.266"/>
</g>
<!-- 21564608 -->
<g id="node9" class="node"><title>21564608</title>
<ellipse fill="#63b8ff" stroke="black" cx="1678" cy="-665" rx="99.9096" ry="26.163"/>
<text text-anchor="middle" x="1678" y="-657.9" font-family="Times Roman,serif" font-size="24.00">request: []</text>
</g>
<!-- 21564608&#45;&gt;22672608 -->
<g id="edge37" class="edge"><title>21564608&#45;&gt;22672608</title>
<path fill="none" stroke="black" d="M1678,-691.108C1678,-698.979 1678,-707.946 1678,-717.005"/>
<polygon fill="black" stroke="black" points="1674.5,-717.218 1678,-727.218 1681.5,-717.218 1674.5,-717.218"/>
</g>
<!-- 23285904 -->
<g id="node10" class="node"><title>23285904</title>
<ellipse fill="#999999" stroke="black" cx="1559" cy="-556" rx="263.958" ry="46.669"/>
<text text-anchor="middle" x="1559" y="-563.4" font-family="Times Roman,serif" font-size="24.00">exp: make_sym_dir_mult_reg</text>
<text text-anchor="middle" x="1559" y="-534.4" font-family="Times Roman,serif" font-size="24.00">value: sp:make_sym_dir_mult</text>
</g>
<!-- 23285904&#45;&gt;22672608 -->
<g id="edge21" class="edge"><title>23285904&#45;&gt;22672608</title>
<path fill="none" stroke="black" d="M1553.28,-602.716C1552.1,-630.015 1554.49,-664.247 1569,-691 1575.04,-702.136 1583.28,-712.231 1592.56,-721.236"/>
<polygon fill="black" stroke="black" points="1590.45,-724.053 1600.19,-728.223 1595.18,-718.889 1590.45,-724.053"/>
</g>
<!-- 23285904&#45;&gt;21564608 -->
<g id="edge23" class="edge"><title>23285904&#45;&gt;21564608</title>
<path fill="none" stroke="black" d="M1609.12,-601.91C1620.57,-612.397 1632.5,-623.32 1643.14,-633.071"/>
<polygon fill="black" stroke="black" points="1640.9,-635.768 1650.64,-639.942 1645.63,-630.606 1640.9,-635.768"/>
</g>
<!-- 21773440&#45;&gt;22672608 -->
<g id="edge27" class="edge"><title>21773440&#45;&gt;22672608</title>
<path fill="none" stroke="black" d="M1937.57,-598.81C1885.06,-634.252 1810.28,-684.721 1754.46,-722.393"/>
<polygon fill="black" stroke="black" points="1752.35,-719.594 1746.02,-728.09 1756.27,-725.396 1752.35,-719.594"/>
</g>
<!-- 21773440&#45;&gt;21564608 -->
<g id="edge29" class="edge"><title>21773440&#45;&gt;21564608</title>
<path fill="none" stroke="black" d="M1896.58,-591.239C1848.26,-607.545 1792.11,-626.493 1748.82,-641.1"/>
<polygon fill="black" stroke="black" points="1747.59,-637.823 1739.23,-644.337 1749.82,-644.456 1747.59,-637.823"/>
</g>
<!-- 26703216 -->
<g id="node12" class="node"><title>26703216</title>
<ellipse fill="#999999" stroke="black" cx="1128" cy="-556" rx="149.2" ry="46.669"/>
<text text-anchor="middle" x="1128" y="-563.4" font-family="Times Roman,serif" font-size="24.00">exp: 2.000000</text>
<text text-anchor="middle" x="1128" y="-534.4" font-family="Times Roman,serif" font-size="24.00">value: 2.000000</text>
</g>
<!-- 26703216&#45;&gt;22672608 -->
<g id="edge33" class="edge"><title>26703216&#45;&gt;22672608</title>
<path fill="none" stroke="black" d="M1220.37,-592.611C1312.35,-629.069 1454.08,-685.246 1555.43,-725.418"/>
<polygon fill="black" stroke="black" points="1554.22,-728.701 1564.8,-729.132 1556.79,-722.194 1554.22,-728.701"/>
</g>
<!-- 26703216&#45;&gt;21564608 -->
<g id="edge35" class="edge"><title>26703216&#45;&gt;21564608</title>
<path fill="none" stroke="black" d="M1232.45,-589.184C1250.21,-594.219 1268.56,-599.044 1286,-603 1383.95,-625.212 1497.44,-642.23 1577.03,-652.768"/>
<polygon fill="black" stroke="black" points="1576.68,-656.252 1587.05,-654.084 1577.59,-649.312 1576.68,-656.252"/>
</g>
<!-- 24603856 -->
<g id="node14" class="node"><title>24603856</title>
<ellipse fill="gold" stroke="black" cx="358" cy="-1147" rx="79.9031" ry="46.669"/>
<text text-anchor="middle" x="358" y="-1154.4" font-family="Times Roman,serif" font-size="24.00">exp: (f)</text>
<text text-anchor="middle" x="358" y="-1125.4" font-family="Times Roman,serif" font-size="24.00">value: 1</text>
</g>
<!-- 26590768 -->
<g id="node15" class="node"><title>26590768</title>
<ellipse fill="gold" stroke="black" cx="411" cy="-1038" rx="87.1802" ry="26.163"/>
<text text-anchor="middle" x="411" y="-1030.9" font-family="Times Roman,serif" font-size="24.00">request: </text>
</g>
<!-- 26590768&#45;&gt;24603856 -->
<g id="edge57" class="edge"><title>26590768&#45;&gt;24603856</title>
<path fill="none" stroke="black" d="M398.44,-1063.83C394.174,-1072.6 389.235,-1082.76 384.305,-1092.9"/>
<polygon fill="black" stroke="black" points="381.025,-1091.64 379.8,-1102.17 387.32,-1094.7 381.025,-1091.64"/>
</g>
<!-- 22735856&#45;&gt;24603856 -->
<g id="edge51" class="edge"><title>22735856&#45;&gt;24603856</title>
<path fill="none" stroke="black" d="M329.11,-975.302C323.292,-986.871 318.035,-999.544 315,-1012 309.529,-1034.45 309.529,-1041.55 315,-1064 317.475,-1074.16 321.426,-1084.46 325.955,-1094.19"/>
<polygon fill="black" stroke="black" points="322.891,-1095.89 330.445,-1103.31 329.172,-1092.8 322.891,-1095.89"/>
</g>
<!-- 22735856&#45;&gt;26590768 -->
<g id="edge53" class="edge"><title>22735856&#45;&gt;26590768</title>
<path fill="none" stroke="black" d="M380.631,-975.542C385.093,-984.721 389.706,-994.207 393.947,-1002.93"/>
<polygon fill="black" stroke="black" points="390.858,-1004.58 398.379,-1012.04 397.154,-1001.52 390.858,-1004.58"/>
</g>
<!-- 21586576 -->
<g id="node18" class="node"><title>21586576</title>
<ellipse fill="gold" stroke="black" cx="798" cy="-1147" rx="79.9031" ry="46.669"/>
<text text-anchor="middle" x="798" y="-1154.4" font-family="Times Roman,serif" font-size="24.00">exp: (f)</text>
<text text-anchor="middle" x="798" y="-1125.4" font-family="Times Roman,serif" font-size="24.00">value: 1</text>
</g>
<!-- 21407376 -->
<g id="node19" class="node"><title>21407376</title>
<ellipse fill="gold" stroke="black" cx="851" cy="-1038" rx="87.1802" ry="26.163"/>
<text text-anchor="middle" x="851" y="-1030.9" font-family="Times Roman,serif" font-size="24.00">request: </text>
</g>
<!-- 21407376&#45;&gt;21586576 -->
<g id="edge19" class="edge"><title>21407376&#45;&gt;21586576</title>
<path fill="none" stroke="black" d="M838.44,-1063.83C834.174,-1072.6 829.235,-1082.76 824.305,-1092.9"/>
<polygon fill="black" stroke="black" points="821.025,-1091.64 819.8,-1102.17 827.32,-1094.7 821.025,-1091.64"/>
</g>
<!-- 29128816&#45;&gt;21586576 -->
<g id="edge13" class="edge"><title>29128816&#45;&gt;21586576</title>
<path fill="none" stroke="black" d="M769.11,-975.302C763.292,-986.871 758.035,-999.544 755,-1012 749.529,-1034.45 749.529,-1041.55 755,-1064 757.475,-1074.16 761.426,-1084.46 765.955,-1094.19"/>
<polygon fill="black" stroke="black" points="762.891,-1095.89 770.445,-1103.31 769.172,-1092.8 762.891,-1095.89"/>
</g>
<!-- 29128816&#45;&gt;21407376 -->
<g id="edge15" class="edge"><title>29128816&#45;&gt;21407376</title>
<path fill="none" stroke="black" d="M820.631,-975.542C825.093,-984.721 829.706,-994.207 833.947,-1002.93"/>
<polygon fill="black" stroke="black" points="830.858,-1004.58 838.379,-1012.04 837.154,-1001.52 830.858,-1004.58"/>
</g>
<!-- 27829360 -->
<g id="node22" class="node"><title>27829360</title>
<ellipse fill="gold" stroke="black" cx="1238" cy="-1147" rx="79.9031" ry="46.669"/>
<text text-anchor="middle" x="1238" y="-1154.4" font-family="Times Roman,serif" font-size="24.00">exp: (f)</text>
<text text-anchor="middle" x="1238" y="-1125.4" font-family="Times Roman,serif" font-size="24.00">value: 1</text>
</g>
<!-- 28704272 -->
<g id="node23" class="node"><title>28704272</title>
<ellipse fill="gold" stroke="black" cx="1291" cy="-1038" rx="87.1802" ry="26.163"/>
<text text-anchor="middle" x="1291" y="-1030.9" font-family="Times Roman,serif" font-size="24.00">request: </text>
</g>
<!-- 28704272&#45;&gt;27829360 -->
<g id="edge81" class="edge"><title>28704272&#45;&gt;27829360</title>
<path fill="none" stroke="black" d="M1278.44,-1063.83C1274.17,-1072.6 1269.24,-1082.76 1264.31,-1092.9"/>
<polygon fill="black" stroke="black" points="1261.02,-1091.64 1259.8,-1102.17 1267.32,-1094.7 1261.02,-1091.64"/>
</g>
<!-- 27928448&#45;&gt;27829360 -->
<g id="edge75" class="edge"><title>27928448&#45;&gt;27829360</title>
<path fill="none" stroke="black" d="M1209.11,-975.302C1203.29,-986.871 1198.04,-999.544 1195,-1012 1189.53,-1034.45 1189.53,-1041.55 1195,-1064 1197.47,-1074.16 1201.43,-1084.46 1205.96,-1094.19"/>
<polygon fill="black" stroke="black" points="1202.89,-1095.89 1210.44,-1103.31 1209.17,-1092.8 1202.89,-1095.89"/>
</g>
<!-- 27928448&#45;&gt;28704272 -->
<g id="edge77" class="edge"><title>27928448&#45;&gt;28704272</title>
<path fill="none" stroke="black" d="M1260.63,-975.542C1265.09,-984.721 1269.71,-994.207 1273.95,-1002.93"/>
<polygon fill="black" stroke="black" points="1270.86,-1004.58 1278.38,-1012.04 1277.15,-1001.52 1270.86,-1004.58"/>
</g>
<!-- 29182528 -->
<g id="node26" class="node"><title>29182528</title>
<ellipse fill="gold" stroke="black" cx="1678" cy="-1147" rx="79.9031" ry="46.669"/>
<text text-anchor="middle" x="1678" y="-1154.4" font-family="Times Roman,serif" font-size="24.00">exp: (f)</text>
<text text-anchor="middle" x="1678" y="-1125.4" font-family="Times Roman,serif" font-size="24.00">value: 1</text>
</g>
<!-- 28188400 -->
<g id="node27" class="node"><title>28188400</title>
<ellipse fill="gold" stroke="black" cx="1731" cy="-1038" rx="87.1802" ry="26.163"/>
<text text-anchor="middle" x="1731" y="-1030.9" font-family="Times Roman,serif" font-size="24.00">request: </text>
</g>
<!-- 28188400&#45;&gt;29182528 -->
<g id="edge97" class="edge"><title>28188400&#45;&gt;29182528</title>
<path fill="none" stroke="black" d="M1718.44,-1063.83C1714.17,-1072.6 1709.24,-1082.76 1704.31,-1092.9"/>
<polygon fill="black" stroke="black" points="1701.02,-1091.64 1699.8,-1102.17 1707.32,-1094.7 1701.02,-1091.64"/>
</g>
<!-- 29281792&#45;&gt;29182528 -->
<g id="edge91" class="edge"><title>29281792&#45;&gt;29182528</title>
<path fill="none" stroke="black" d="M1649.11,-975.302C1643.29,-986.871 1638.04,-999.544 1635,-1012 1629.53,-1034.45 1629.53,-1041.55 1635,-1064 1637.47,-1074.16 1641.43,-1084.46 1645.96,-1094.19"/>
<polygon fill="black" stroke="black" points="1642.89,-1095.89 1650.44,-1103.31 1649.17,-1092.8 1642.89,-1095.89"/>
</g>
<!-- 29281792&#45;&gt;28188400 -->
<g id="edge93" class="edge"><title>29281792&#45;&gt;28188400</title>
<path fill="none" stroke="black" d="M1700.63,-975.542C1705.09,-984.721 1709.71,-994.207 1713.95,-1002.93"/>
<polygon fill="black" stroke="black" points="1710.86,-1004.58 1718.38,-1012.04 1717.15,-1001.52 1710.86,-1004.58"/>
</g>
<!-- 29442576 -->
<g id="node30" class="node"><title>29442576</title>
<ellipse fill="gold" stroke="black" cx="2118" cy="-1147" rx="79.9031" ry="46.669"/>
<text text-anchor="middle" x="2118" y="-1154.4" font-family="Times Roman,serif" font-size="24.00">exp: (f)</text>
<text text-anchor="middle" x="2118" y="-1125.4" font-family="Times Roman,serif" font-size="24.00">value: 1</text>
</g>
<!-- 29392944 -->
<g id="node31" class="node"><title>29392944</title>
<ellipse fill="gold" stroke="black" cx="2171" cy="-1038" rx="87.1802" ry="26.163"/>
<text text-anchor="middle" x="2171" y="-1030.9" font-family="Times Roman,serif" font-size="24.00">request: </text>
</g>
<!-- 29392944&#45;&gt;29442576 -->
<g id="edge105" class="edge"><title>29392944&#45;&gt;29442576</title>
<path fill="none" stroke="black" d="M2158.44,-1063.83C2154.17,-1072.6 2149.24,-1082.76 2144.31,-1092.9"/>
<polygon fill="black" stroke="black" points="2141.02,-1091.64 2139.8,-1102.17 2147.32,-1094.7 2141.02,-1091.64"/>
</g>
<!-- 28813184&#45;&gt;29442576 -->
<g id="edge99" class="edge"><title>28813184&#45;&gt;29442576</title>
<path fill="none" stroke="black" d="M2089.11,-975.302C2083.29,-986.871 2078.04,-999.544 2075,-1012 2069.53,-1034.45 2069.53,-1041.55 2075,-1064 2077.47,-1074.16 2081.43,-1084.46 2085.96,-1094.19"/>
<polygon fill="black" stroke="black" points="2082.89,-1095.89 2090.44,-1103.31 2089.17,-1092.8 2082.89,-1095.89"/>
</g>
<!-- 28813184&#45;&gt;29392944 -->
<g id="edge101" class="edge"><title>28813184&#45;&gt;29392944</title>
<path fill="none" stroke="black" d="M2140.63,-975.542C2145.09,-984.721 2149.71,-994.207 2153.95,-1002.93"/>
<polygon fill="black" stroke="black" points="2150.86,-1004.58 2158.38,-1012.04 2157.15,-1001.52 2150.86,-1004.58"/>
</g>
<!-- 29087168 -->
<g id="node34" class="node"><title>29087168</title>
<ellipse fill="gold" stroke="black" cx="2558" cy="-1147" rx="79.9031" ry="46.669"/>
<text text-anchor="middle" x="2558" y="-1154.4" font-family="Times Roman,serif" font-size="24.00">exp: (f)</text>
<text text-anchor="middle" x="2558" y="-1125.4" font-family="Times Roman,serif" font-size="24.00">value: 1</text>
</g>
<!-- 26742928 -->
<g id="node35" class="node"><title>26742928</title>
<ellipse fill="gold" stroke="black" cx="2611" cy="-1038" rx="87.1802" ry="26.163"/>
<text text-anchor="middle" x="2611" y="-1030.9" font-family="Times Roman,serif" font-size="24.00">request: </text>
</g>
<!-- 26742928&#45;&gt;29087168 -->
<g id="edge89" class="edge"><title>26742928&#45;&gt;29087168</title>
<path fill="none" stroke="black" d="M2598.44,-1063.83C2594.17,-1072.6 2589.24,-1082.76 2584.31,-1092.9"/>
<polygon fill="black" stroke="black" points="2581.02,-1091.64 2579.8,-1102.17 2587.32,-1094.7 2581.02,-1091.64"/>
</g>
<!-- 28482800&#45;&gt;29087168 -->
<g id="edge83" class="edge"><title>28482800&#45;&gt;29087168</title>
<path fill="none" stroke="black" d="M2529.11,-975.302C2523.29,-986.871 2518.04,-999.544 2515,-1012 2509.53,-1034.45 2509.53,-1041.55 2515,-1064 2517.47,-1074.16 2521.43,-1084.46 2525.96,-1094.19"/>
<polygon fill="black" stroke="black" points="2522.89,-1095.89 2530.44,-1103.31 2529.17,-1092.8 2522.89,-1095.89"/>
</g>
<!-- 28482800&#45;&gt;26742928 -->
<g id="edge85" class="edge"><title>28482800&#45;&gt;26742928</title>
<path fill="none" stroke="black" d="M2580.63,-975.542C2585.09,-984.721 2589.71,-994.207 2593.95,-1002.93"/>
<polygon fill="black" stroke="black" points="2590.86,-1004.58 2598.38,-1012.04 2597.15,-1001.52 2590.86,-1004.58"/>
</g>
<!-- 26419824 -->
<g id="node38" class="node"><title>26419824</title>
<ellipse fill="gold" stroke="black" cx="2998" cy="-1147" rx="79.9031" ry="46.669"/>
<text text-anchor="middle" x="2998" y="-1154.4" font-family="Times Roman,serif" font-size="24.00">exp: (f)</text>
<text text-anchor="middle" x="2998" y="-1125.4" font-family="Times Roman,serif" font-size="24.00">value: 1</text>
</g>
<!-- 28483904 -->
<g id="node39" class="node"><title>28483904</title>
<ellipse fill="gold" stroke="black" cx="3051" cy="-1038" rx="87.1802" ry="26.163"/>
<text text-anchor="middle" x="3051" y="-1030.9" font-family="Times Roman,serif" font-size="24.00">request: </text>
</g>
<!-- 28483904&#45;&gt;26419824 -->
<g id="edge73" class="edge"><title>28483904&#45;&gt;26419824</title>
<path fill="none" stroke="black" d="M3038.44,-1063.83C3034.17,-1072.6 3029.24,-1082.76 3024.31,-1092.9"/>
<polygon fill="black" stroke="black" points="3021.02,-1091.64 3019.8,-1102.17 3027.32,-1094.7 3021.02,-1091.64"/>
</g>
<!-- 28481696&#45;&gt;26419824 -->
<g id="edge67" class="edge"><title>28481696&#45;&gt;26419824</title>
<path fill="none" stroke="black" d="M2969.11,-975.302C2963.29,-986.871 2958.04,-999.544 2955,-1012 2949.53,-1034.45 2949.53,-1041.55 2955,-1064 2957.47,-1074.16 2961.43,-1084.46 2965.96,-1094.19"/>
<polygon fill="black" stroke="black" points="2962.89,-1095.89 2970.44,-1103.31 2969.17,-1092.8 2962.89,-1095.89"/>
</g>
<!-- 28481696&#45;&gt;28483904 -->
<g id="edge69" class="edge"><title>28481696&#45;&gt;28483904</title>
<path fill="none" stroke="black" d="M3020.63,-975.542C3025.09,-984.721 3029.71,-994.207 3033.95,-1002.93"/>
<polygon fill="black" stroke="black" points="3030.86,-1004.58 3038.38,-1012.04 3037.15,-1001.52 3030.86,-1004.58"/>
</g>
<!-- 25976400 -->
<g id="node42" class="node"><title>25976400</title>
<ellipse fill="gold" stroke="black" cx="3438" cy="-1147" rx="79.9031" ry="46.669"/>
<text text-anchor="middle" x="3438" y="-1154.4" font-family="Times Roman,serif" font-size="24.00">exp: (f)</text>
<text text-anchor="middle" x="3438" y="-1125.4" font-family="Times Roman,serif" font-size="24.00">value: 1</text>
</g>
<!-- 26009584 -->
<g id="node43" class="node"><title>26009584</title>
<ellipse fill="gold" stroke="black" cx="3491" cy="-1038" rx="87.1802" ry="26.163"/>
<text text-anchor="middle" x="3491" y="-1030.9" font-family="Times Roman,serif" font-size="24.00">request: </text>
</g>
<!-- 26009584&#45;&gt;25976400 -->
<g id="edge65" class="edge"><title>26009584&#45;&gt;25976400</title>
<path fill="none" stroke="black" d="M3478.44,-1063.83C3474.17,-1072.6 3469.24,-1082.76 3464.31,-1092.9"/>
<polygon fill="black" stroke="black" points="3461.02,-1091.64 3459.8,-1102.17 3467.32,-1094.7 3461.02,-1091.64"/>
</g>
<!-- 28298448&#45;&gt;25976400 -->
<g id="edge59" class="edge"><title>28298448&#45;&gt;25976400</title>
<path fill="none" stroke="black" d="M3409.11,-975.302C3403.29,-986.871 3398.04,-999.544 3395,-1012 3389.53,-1034.45 3389.53,-1041.55 3395,-1064 3397.47,-1074.16 3401.43,-1084.46 3405.96,-1094.19"/>
<polygon fill="black" stroke="black" points="3402.89,-1095.89 3410.44,-1103.31 3409.17,-1092.8 3402.89,-1095.89"/>
</g>
<!-- 28298448&#45;&gt;26009584 -->
<g id="edge61" class="edge"><title>28298448&#45;&gt;26009584</title>
<path fill="none" stroke="black" d="M3460.63,-975.542C3465.09,-984.721 3469.71,-994.207 3473.95,-1002.93"/>
<polygon fill="black" stroke="black" points="3470.86,-1004.58 3478.38,-1012.04 3477.15,-1001.52 3470.86,-1004.58"/>
</g>
<!-- 25760240 -->
<g id="node51" class="node"><title>25760240</title>
<ellipse fill="none" stroke="black" cx="63" cy="-401" rx="62.9325" ry="18.3848"/>
<text text-anchor="middle" x="63" y="-397.4" font-family="Times Roman,serif" font-size="14.00">25760240</text>
</g>
<!-- 25760240&#45;&gt;23285904 -->
<g id="edge25" class="edge"><title>25760240&#45;&gt;23285904</title>
<path fill="none" stroke="black" d="M125.969,-401.973C343.185,-405.685 1060.18,-420.979 1286,-464 1339.43,-474.179 1396.73,-492.312 1444.97,-509.804"/>
<polygon fill="black" stroke="black" points="1443.9,-513.14 1454.5,-513.292 1446.31,-506.567 1443.9,-513.14"/>
</g>
<!-- 27335696 -->
<g id="node61" class="node"><title>27335696</title>
<ellipse fill="none" stroke="black" cx="2159" cy="-19" rx="62.9325" ry="18.3848"/>
<text text-anchor="middle" x="2159" y="-15.4" font-family="Times Roman,serif" font-size="14.00">27335696</text>
</g>
<!-- 27335696&#45;&gt;21574256 -->
<g id="edge43" class="edge"><title>27335696&#45;&gt;21574256</title>
<path fill="none" stroke="black" d="M2159,-37.8129C2159,-59.2806 2159,-95.4093 2159,-126.255"/>
<polygon fill="black" stroke="black" points="2155.5,-126.484 2159,-136.484 2162.5,-126.484 2155.5,-126.484"/>
</g>
</g>
</svg>
