<?xml version="1.0" encoding="UTF-8" standalone="no"?>
<!DOCTYPE svg PUBLIC "-//W3C//DTD SVG 1.1//EN"
 "http://www.w3.org/Graphics/SVG/1.1/DTD/svg11.dtd">
<!-- Generated by graphviz version 2.26.3 (20100126.1600)
 -->
<!-- Title: _anonymous_0 Pages: 1 -->
<svg width="1902pt" height="1226pt"
 viewBox="0.00 0.00 1902.00 1226.00" xmlns="http://www.w3.org/2000/svg" xmlns:xlink="http://www.w3.org/1999/xlink">
<g id="graph1" class="graph" transform="scale(1 1) rotate(0) translate(4 1222)">
<title>_anonymous_0</title>
<polygon fill="white" stroke="white" points="-4,5 -4,-1222 1899,-1222 1899,5 -4,5"/>
<g id="graph2" class="cluster"><title>cluster1</title>
<polygon fill="none" stroke="black" points="134,-46 134,-1210 1886,-1210 1886,-46 134,-46"/>
<text text-anchor="middle" x="1010" y="-57.4" font-family="Times Roman,serif" font-size="24.00">Venture Families</text>
</g>
<g id="graph3" class="cluster"><title>cluster2</title>
<polygon fill="none" stroke="black" points="837,-91 837,-456 1519,-456 1519,-91 837,-91"/>
<text text-anchor="middle" x="1178" y="-102.4" font-family="Times Roman,serif" font-size="24.00">1</text>
</g>
<g id="graph4" class="cluster"><title>cluster3</title>
<polygon fill="none" stroke="black" points="228,-464 228,-829 1308,-829 1308,-464 228,-464"/>
<text text-anchor="middle" x="768" y="-475.4" font-family="Times Roman,serif" font-size="24.00">2</text>
</g>
<g id="graph5" class="cluster"><title>cluster4</title>
<polygon fill="none" stroke="black" points="142,-837 142,-1202 352,-1202 352,-837 142,-837"/>
<text text-anchor="middle" x="247" y="-848.4" font-family="Times Roman,serif" font-size="24.00">3</text>
</g>
<g id="graph6" class="cluster"><title>cluster5</title>
<polygon fill="none" stroke="black" points="360,-837 360,-1202 570,-1202 570,-837 360,-837"/>
<text text-anchor="middle" x="465" y="-848.4" font-family="Times Roman,serif" font-size="24.00">4</text>
</g>
<g id="graph7" class="cluster"><title>cluster6</title>
<polygon fill="none" stroke="black" points="578,-837 578,-1202 788,-1202 788,-837 578,-837"/>
<text text-anchor="middle" x="683" y="-848.4" font-family="Times Roman,serif" font-size="24.00">5</text>
</g>
<g id="graph8" class="cluster"><title>cluster7</title>
<polygon fill="none" stroke="black" points="796,-837 796,-1202 1006,-1202 1006,-837 796,-837"/>
<text text-anchor="middle" x="901" y="-848.4" font-family="Times Roman,serif" font-size="24.00">6</text>
</g>
<g id="graph9" class="cluster"><title>cluster8</title>
<polygon fill="none" stroke="black" points="1014,-837 1014,-1202 1224,-1202 1224,-837 1014,-837"/>
<text text-anchor="middle" x="1119" y="-848.4" font-family="Times Roman,serif" font-size="24.00">7</text>
</g>
<g id="graph10" class="cluster"><title>cluster9</title>
<polygon fill="none" stroke="black" points="1232,-837 1232,-1202 1442,-1202 1442,-837 1232,-837"/>
<text text-anchor="middle" x="1337" y="-848.4" font-family="Times Roman,serif" font-size="24.00">8</text>
</g>
<g id="graph11" class="cluster"><title>cluster10</title>
<polygon fill="none" stroke="black" points="1450,-837 1450,-1202 1660,-1202 1660,-837 1450,-837"/>
<text text-anchor="middle" x="1555" y="-848.4" font-family="Times Roman,serif" font-size="24.00">9</text>
</g>
<g id="graph12" class="cluster"><title>cluster11</title>
<polygon fill="none" stroke="black" points="1668,-837 1668,-1202 1878,-1202 1878,-837 1668,-837"/>
<text text-anchor="middle" x="1773" y="-848.4" font-family="Times Roman,serif" font-size="24.00">10</text>
</g>
<!-- 23627488 -->
<g id="node3" class="node"><title>23627488</title>
<ellipse fill="firebrick" stroke="black" cx="1199" cy="-401" rx="241.123" ry="46.669"/>
<text text-anchor="middle" x="1199" y="-408.4" font-family="Times Roman,serif" font-size="24.00">exp: (snormal 100.000000)</text>
<text text-anchor="middle" x="1199" y="-379.4" font-family="Times Roman,serif" font-size="24.00">value: </text>
</g>
<!-- 21773440 -->
<g id="node11" class="node"><title>21773440</title>
<ellipse fill="gold" stroke="black" cx="1199" cy="-556" rx="101.116" ry="46.669"/>
<text text-anchor="middle" x="1199" y="-563.4" font-family="Times Roman,serif" font-size="24.00">exp: alpha</text>
<text text-anchor="middle" x="1199" y="-534.4" font-family="Times Roman,serif" font-size="24.00">value: </text>
</g>
<!-- 23627488&#45;&gt;21773440 -->
<g id="edge31" class="edge"><title>23627488&#45;&gt;21773440</title>
<path fill="none" stroke="black" d="M1199,-447.505C1199,-463.677 1199,-482.005 1199,-498.933"/>
<polygon fill="black" stroke="black" points="1195.5,-499.26 1199,-509.26 1202.5,-499.26 1195.5,-499.26"/>
</g>
<!-- 28219728 -->
<g id="node4" class="node"><title>28219728</title>
<ellipse fill="#999999" stroke="black" cx="1199" cy="-292" rx="99.9096" ry="26.163"/>
<text text-anchor="middle" x="1199" y="-284.9" font-family="Times Roman,serif" font-size="24.00">request: []</text>
</g>
<!-- 28219728&#45;&gt;23627488 -->
<g id="edge49" class="edge"><title>28219728&#45;&gt;23627488</title>
<path fill="none" stroke="black" d="M1199,-318.108C1199,-325.979 1199,-334.946 1199,-344.005"/>
<polygon fill="black" stroke="black" points="1195.5,-344.218 1199,-354.218 1202.5,-344.218 1195.5,-344.218"/>
</g>
<!-- 21574256 -->
<g id="node5" class="node"><title>21574256</title>
<ellipse fill="#999999" stroke="black" cx="1357" cy="-183" rx="154.149" ry="46.669"/>
<text text-anchor="middle" x="1357" y="-190.4" font-family="Times Roman,serif" font-size="24.00">exp: snormal</text>
<text text-anchor="middle" x="1357" y="-161.4" font-family="Times Roman,serif" font-size="24.00">value: sp:normal</text>
</g>
<!-- 21574256&#45;&gt;23627488 -->
<g id="edge39" class="edge"><title>21574256&#45;&gt;23627488</title>
<path fill="none" stroke="black" d="M1347.12,-229.623C1339.63,-257.217 1327.28,-291.787 1308,-318 1299.47,-329.599 1288.88,-340.353 1277.68,-350.014"/>
<polygon fill="black" stroke="black" points="1275.3,-347.44 1269.85,-356.524 1279.78,-352.823 1275.3,-347.44"/>
</g>
<!-- 21574256&#45;&gt;28219728 -->
<g id="edge41" class="edge"><title>21574256&#45;&gt;28219728</title>
<path fill="none" stroke="black" d="M1295.01,-225.767C1277.65,-237.744 1259.14,-250.514 1243.05,-261.614"/>
<polygon fill="black" stroke="black" points="1240.62,-259.033 1234.38,-267.592 1244.6,-264.795 1240.62,-259.033"/>
</g>
<!-- 21801008 -->
<g id="node6" class="node"><title>21801008</title>
<ellipse fill="#999999" stroke="black" cx="1015" cy="-183" rx="169.913" ry="46.669"/>
<text text-anchor="middle" x="1015" y="-190.4" font-family="Times Roman,serif" font-size="24.00">exp: 100.000000</text>
<text text-anchor="middle" x="1015" y="-161.4" font-family="Times Roman,serif" font-size="24.00">value: 100.000000</text>
</g>
<!-- 21801008&#45;&gt;23627488 -->
<g id="edge45" class="edge"><title>21801008&#45;&gt;23627488</title>
<path fill="none" stroke="black" d="M1034.89,-229.45C1048.06,-256.982 1067.1,-291.547 1090,-318 1099.83,-329.359 1111.45,-340.165 1123.37,-350"/>
<polygon fill="black" stroke="black" points="1121.25,-352.783 1131.23,-356.319 1125.63,-347.326 1121.25,-352.783"/>
</g>
<!-- 21801008&#45;&gt;28219728 -->
<g id="edge47" class="edge"><title>21801008&#45;&gt;28219728</title>
<path fill="none" stroke="black" d="M1086.4,-225.298C1107.69,-237.909 1130.53,-251.438 1150.03,-262.993"/>
<polygon fill="black" stroke="black" points="1148.36,-266.067 1158.74,-268.153 1151.92,-260.045 1148.36,-266.067"/>
</g>
<!-- 22672608 -->
<g id="node8" class="node"><title>22672608</title>
<ellipse fill="gold" stroke="black" cx="892" cy="-774" rx="408.207" ry="46.669"/>
<text text-anchor="middle" x="892" y="-781.4" font-family="Times Roman,serif" font-size="24.00">exp: (make_sym_dir_mult_reg alpha 2.000000)</text>
<text text-anchor="middle" x="892" y="-752.4" font-family="Times Roman,serif" font-size="24.00">value: </text>
</g>
<!-- 22735856 -->
<g id="node16" class="node"><title>22735856</title>
<ellipse fill="gold" stroke="black" cx="257" cy="-929" rx="68.7979" ry="46.669"/>
<text text-anchor="middle" x="257" y="-936.4" font-family="Times Roman,serif" font-size="24.00">exp: f</text>
<text text-anchor="middle" x="257" y="-907.4" font-family="Times Roman,serif" font-size="24.00">value: </text>
</g>
<!-- 22672608&#45;&gt;22735856 -->
<g id="edge55" class="edge"><title>22672608&#45;&gt;22735856</title>
<path fill="none" stroke="black" d="M543.814,-798.252C464.222,-807.591 392.36,-820.197 356,-837 334.205,-847.072 314.016,-863.791 297.632,-880.234"/>
<polygon fill="black" stroke="black" points="294.808,-878.12 290.379,-887.745 299.843,-882.983 294.808,-878.12"/>
</g>
<!-- 29128816 -->
<g id="node20" class="node"><title>29128816</title>
<ellipse fill="gold" stroke="black" cx="475" cy="-929" rx="68.7979" ry="46.669"/>
<text text-anchor="middle" x="475" y="-936.4" font-family="Times Roman,serif" font-size="24.00">exp: f</text>
<text text-anchor="middle" x="475" y="-907.4" font-family="Times Roman,serif" font-size="24.00">value: </text>
</g>
<!-- 22672608&#45;&gt;29128816 -->
<g id="edge17" class="edge"><title>22672608&#45;&gt;29128816</title>
<path fill="none" stroke="black" d="M656.572,-812.031C621.244,-819.835 590.979,-828.329 574,-837 552.799,-847.828 532.852,-864.524 516.496,-880.736"/>
<polygon fill="black" stroke="black" points="513.748,-878.539 509.242,-888.128 518.744,-883.442 513.748,-878.539"/>
</g>
<!-- 27928448 -->
<g id="node24" class="node"><title>27928448</title>
<ellipse fill="gold" stroke="black" cx="693" cy="-929" rx="68.7979" ry="46.669"/>
<text text-anchor="middle" x="693" y="-936.4" font-family="Times Roman,serif" font-size="24.00">exp: f</text>
<text text-anchor="middle" x="693" y="-907.4" font-family="Times Roman,serif" font-size="24.00">value: </text>
</g>
<!-- 22672608&#45;&gt;27928448 -->
<g id="edge79" class="edge"><title>22672608&#45;&gt;27928448</title>
<path fill="none" stroke="black" d="M815.897,-819.835C807.68,-825.403 799.564,-831.184 792,-837 773.773,-851.015 754.994,-867.78 738.757,-883.137"/>
<polygon fill="black" stroke="black" points="736.302,-880.642 731.486,-890.079 741.136,-885.705 736.302,-880.642"/>
</g>
<!-- 29281792 -->
<g id="node28" class="node"><title>29281792</title>
<ellipse fill="gold" stroke="black" cx="892" cy="-929" rx="68.7979" ry="46.669"/>
<text text-anchor="middle" x="892" y="-936.4" font-family="Times Roman,serif" font-size="24.00">exp: f</text>
<text text-anchor="middle" x="892" y="-907.4" font-family="Times Roman,serif" font-size="24.00">value: </text>
</g>
<!-- 22672608&#45;&gt;29281792 -->
<g id="edge95" class="edge"><title>22672608&#45;&gt;29281792</title>
<path fill="none" stroke="black" d="M892,-820.505C892,-836.677 892,-855.005 892,-871.933"/>
<polygon fill="black" stroke="black" points="888.5,-872.26 892,-882.26 895.5,-872.26 888.5,-872.26"/>
</g>
<!-- 28813184 -->
<g id="node32" class="node"><title>28813184</title>
<ellipse fill="gold" stroke="black" cx="1091" cy="-929" rx="68.7979" ry="46.669"/>
<text text-anchor="middle" x="1091" y="-936.4" font-family="Times Roman,serif" font-size="24.00">exp: f</text>
<text text-anchor="middle" x="1091" y="-907.4" font-family="Times Roman,serif" font-size="24.00">value: </text>
</g>
<!-- 22672608&#45;&gt;28813184 -->
<g id="edge103" class="edge"><title>22672608&#45;&gt;28813184</title>
<path fill="none" stroke="black" d="M984.871,-819.392C993.642,-824.908 1002.17,-830.802 1010,-837 1025.34,-849.148 1040.12,-864.442 1052.75,-879.053"/>
<polygon fill="black" stroke="black" points="1050.41,-881.702 1059.54,-887.075 1055.75,-877.18 1050.41,-881.702"/>
</g>
<!-- 28482800 -->
<g id="node36" class="node"><title>28482800</title>
<ellipse fill="gold" stroke="black" cx="1309" cy="-929" rx="68.7979" ry="46.669"/>
<text text-anchor="middle" x="1309" y="-936.4" font-family="Times Roman,serif" font-size="24.00">exp: f</text>
<text text-anchor="middle" x="1309" y="-907.4" font-family="Times Roman,serif" font-size="24.00">value: </text>
</g>
<!-- 22672608&#45;&gt;28482800 -->
<g id="edge87" class="edge"><title>22672608&#45;&gt;28482800</title>
<path fill="none" stroke="black" d="M1144.38,-810.596C1180.4,-818.44 1210.98,-827.317 1228,-837 1245.8,-847.124 1261.66,-862.635 1274.53,-878.054"/>
<polygon fill="black" stroke="black" points="1271.99,-880.478 1280.98,-886.08 1277.44,-876.092 1271.99,-880.478"/>
</g>
<!-- 28481696 -->
<g id="node40" class="node"><title>28481696</title>
<ellipse fill="gold" stroke="black" cx="1527" cy="-929" rx="68.7979" ry="46.669"/>
<text text-anchor="middle" x="1527" y="-936.4" font-family="Times Roman,serif" font-size="24.00">exp: f</text>
<text text-anchor="middle" x="1527" y="-907.4" font-family="Times Roman,serif" font-size="24.00">value: </text>
</g>
<!-- 22672608&#45;&gt;28481696 -->
<g id="edge71" class="edge"><title>22672608&#45;&gt;28481696</title>
<path fill="none" stroke="black" d="M1254.87,-795.336C1336.42,-804.662 1409.58,-817.991 1446,-837 1464.31,-846.559 1480.39,-862.098 1493.28,-877.707"/>
<polygon fill="black" stroke="black" points="1490.78,-880.182 1499.73,-885.845 1496.26,-875.834 1490.78,-880.182"/>
</g>
<!-- 28298448 -->
<g id="node44" class="node"><title>28298448</title>
<ellipse fill="gold" stroke="black" cx="1745" cy="-929" rx="68.7979" ry="46.669"/>
<text text-anchor="middle" x="1745" y="-936.4" font-family="Times Roman,serif" font-size="24.00">exp: f</text>
<text text-anchor="middle" x="1745" y="-907.4" font-family="Times Roman,serif" font-size="24.00">value: </text>
</g>
<!-- 22672608&#45;&gt;28298448 -->
<g id="edge63" class="edge"><title>22672608&#45;&gt;28298448</title>
<path fill="none" stroke="black" d="M1267.72,-792.144C1445.37,-803.013 1626.84,-818.348 1664,-837 1682.63,-846.348 1698.85,-862.007 1711.79,-877.781"/>
<polygon fill="black" stroke="black" points="1709.33,-880.305 1718.26,-886.007 1714.83,-875.981 1709.33,-880.305"/>
</g>
<!-- 21564608 -->
<g id="node9" class="node"><title>21564608</title>
<ellipse fill="#63b8ff" stroke="black" cx="913" cy="-665" rx="99.9096" ry="26.163"/>
<text text-anchor="middle" x="913" y="-657.9" font-family="Times Roman,serif" font-size="24.00">request: []</text>
</g>
<!-- 21564608&#45;&gt;22672608 -->
<g id="edge37" class="edge"><title>21564608&#45;&gt;22672608</title>
<path fill="none" stroke="black" d="M907.97,-691.108C906.437,-699.064 904.689,-708.139 902.924,-717.297"/>
<polygon fill="black" stroke="black" points="899.468,-716.737 901.013,-727.218 906.342,-718.061 899.468,-716.737"/>
</g>
<!-- 23285904 -->
<g id="node10" class="node"><title>23285904</title>
<ellipse fill="#999999" stroke="black" cx="816" cy="-556" rx="263.958" ry="46.669"/>
<text text-anchor="middle" x="816" y="-563.4" font-family="Times Roman,serif" font-size="24.00">exp: make_sym_dir_mult_reg</text>
<text text-anchor="middle" x="816" y="-534.4" font-family="Times Roman,serif" font-size="24.00">value: sp:make_sym_dir_mult</text>
</g>
<!-- 23285904&#45;&gt;22672608 -->
<g id="edge21" class="edge"><title>23285904&#45;&gt;22672608</title>
<path fill="none" stroke="black" d="M801.122,-602.445C795.092,-629.332 792.022,-663.238 804,-691 808.504,-701.44 815.039,-711.176 822.545,-720.04"/>
<polygon fill="black" stroke="black" points="820.067,-722.518 829.363,-727.6 825.265,-717.83 820.067,-722.518"/>
</g>
<!-- 23285904&#45;&gt;21564608 -->
<g id="edge23" class="edge"><title>23285904&#45;&gt;21564608</title>
<path fill="none" stroke="black" d="M857.137,-602.226C866.012,-612.199 875.223,-622.55 883.545,-631.902"/>
<polygon fill="black" stroke="black" points="881.037,-634.348 890.3,-639.492 886.267,-629.695 881.037,-634.348"/>
</g>
<!-- 21773440&#45;&gt;22672608 -->
<g id="edge27" class="edge"><title>21773440&#45;&gt;22672608</title>
<path fill="none" stroke="black" d="M1148.33,-596.434C1113.39,-623.876 1065.56,-660.562 1022,-691 1007,-701.482 990.742,-712.283 974.969,-722.486"/>
<polygon fill="black" stroke="black" points="972.782,-719.731 966.267,-728.086 976.571,-725.617 972.782,-719.731"/>
</g>
<!-- 21773440&#45;&gt;21564608 -->
<g id="edge29" class="edge"><title>21773440&#45;&gt;21564608</title>
<path fill="none" stroke="black" d="M1125.61,-588.142C1113.43,-593.247 1100.9,-598.367 1089,-603 1054.8,-616.313 1016.41,-629.985 984.225,-641.09"/>
<polygon fill="black" stroke="black" points="982.768,-637.89 974.449,-644.451 985.043,-644.51 982.768,-637.89"/>
</g>
<!-- 26703216 -->
<g id="node12" class="node"><title>26703216</title>
<ellipse fill="#999999" stroke="black" cx="385" cy="-556" rx="149.2" ry="46.669"/>
<text text-anchor="middle" x="385" y="-563.4" font-family="Times Roman,serif" font-size="24.00">exp: 2.000000</text>
<text text-anchor="middle" x="385" y="-534.4" font-family="Times Roman,serif" font-size="24.00">value: 2.000000</text>
</g>
<!-- 26703216&#45;&gt;22672608 -->
<g id="edge33" class="edge"><title>26703216&#45;&gt;22672608</title>
<path fill="none" stroke="black" d="M472.734,-593.724C557.265,-630.071 685.588,-685.247 777.996,-724.981"/>
<polygon fill="black" stroke="black" points="776.818,-728.284 787.387,-729.018 779.583,-721.853 776.818,-728.284"/>
</g>
<!-- 26703216&#45;&gt;21564608 -->
<g id="edge35" class="edge"><title>26703216&#45;&gt;21564608</title>
<path fill="none" stroke="black" d="M489.906,-589.168C507.534,-594.176 525.714,-598.997 543,-603 633.937,-624.06 739.016,-640.971 813.903,-651.779"/>
<polygon fill="black" stroke="black" points="813.408,-655.243 823.803,-653.197 814.401,-648.314 813.408,-655.243"/>
</g>
<!-- 24603856 -->
<g id="node14" class="node"><title>24603856</title>
<ellipse fill="gold" stroke="black" cx="239" cy="-1147" rx="72.1249" ry="46.669"/>
<text text-anchor="middle" x="239" y="-1154.4" font-family="Times Roman,serif" font-size="24.00">exp: (f)</text>
<text text-anchor="middle" x="239" y="-1125.4" font-family="Times Roman,serif" font-size="24.00">value: </text>
</g>
<!-- 26590768 -->
<g id="node15" class="node"><title>26590768</title>
<ellipse fill="gold" stroke="black" cx="257" cy="-1038" rx="87.1802" ry="26.163"/>
<text text-anchor="middle" x="257" y="-1030.9" font-family="Times Roman,serif" font-size="24.00">request: </text>
</g>
<!-- 26590768&#45;&gt;24603856 -->
<g id="edge57" class="edge"><title>26590768&#45;&gt;24603856</title>
<path fill="none" stroke="black" d="M252.689,-1064.11C251.36,-1072.16 249.841,-1081.35 248.311,-1090.62"/>
<polygon fill="black" stroke="black" points="244.83,-1090.21 246.654,-1100.65 251.737,-1091.35 244.83,-1090.21"/>
</g>
<!-- 22735856&#45;&gt;24603856 -->
<g id="edge51" class="edge"><title>22735856&#45;&gt;24603856</title>
<path fill="none" stroke="black" d="M205.484,-960.193C187.991,-973.726 170.484,-991.263 161,-1012 151.388,-1033.02 152.488,-1042.51 161,-1064 166.675,-1078.33 176.124,-1091.62 186.522,-1103.19"/>
<polygon fill="black" stroke="black" points="184.049,-1105.67 193.462,-1110.53 189.136,-1100.86 184.049,-1105.67"/>
</g>
<!-- 22735856&#45;&gt;26590768 -->
<g id="edge53" class="edge"><title>22735856&#45;&gt;26590768</title>
<path fill="none" stroke="black" d="M257,-975.542C257,-984.249 257,-993.232 257,-1001.58"/>
<polygon fill="black" stroke="black" points="253.5,-1001.74 257,-1011.74 260.5,-1001.74 253.5,-1001.74"/>
</g>
<!-- 21586576 -->
<g id="node18" class="node"><title>21586576</title>
<ellipse fill="gold" stroke="black" cx="457" cy="-1147" rx="72.1249" ry="46.669"/>
<text text-anchor="middle" x="457" y="-1154.4" font-family="Times Roman,serif" font-size="24.00">exp: (f)</text>
<text text-anchor="middle" x="457" y="-1125.4" font-family="Times Roman,serif" font-size="24.00">value: </text>
</g>
<!-- 21407376 -->
<g id="node19" class="node"><title>21407376</title>
<ellipse fill="gold" stroke="black" cx="475" cy="-1038" rx="87.1802" ry="26.163"/>
<text text-anchor="middle" x="475" y="-1030.9" font-family="Times Roman,serif" font-size="24.00">request: </text>
</g>
<!-- 21407376&#45;&gt;21586576 -->
<g id="edge19" class="edge"><title>21407376&#45;&gt;21586576</title>
<path fill="none" stroke="black" d="M470.689,-1064.11C469.36,-1072.16 467.841,-1081.35 466.311,-1090.62"/>
<polygon fill="black" stroke="black" points="462.83,-1090.21 464.654,-1100.65 469.737,-1091.35 462.83,-1090.21"/>
</g>
<!-- 29128816&#45;&gt;21586576 -->
<g id="edge13" class="edge"><title>29128816&#45;&gt;21586576</title>
<path fill="none" stroke="black" d="M423.484,-960.193C405.991,-973.726 388.484,-991.263 379,-1012 369.388,-1033.02 370.488,-1042.51 379,-1064 384.675,-1078.33 394.124,-1091.62 404.522,-1103.19"/>
<polygon fill="black" stroke="black" points="402.049,-1105.67 411.462,-1110.53 407.136,-1100.86 402.049,-1105.67"/>
</g>
<!-- 29128816&#45;&gt;21407376 -->
<g id="edge15" class="edge"><title>29128816&#45;&gt;21407376</title>
<path fill="none" stroke="black" d="M475,-975.542C475,-984.249 475,-993.232 475,-1001.58"/>
<polygon fill="black" stroke="black" points="471.5,-1001.74 475,-1011.74 478.5,-1001.74 471.5,-1001.74"/>
</g>
<!-- 27829360 -->
<g id="node22" class="node"><title>27829360</title>
<ellipse fill="gold" stroke="black" cx="675" cy="-1147" rx="72.1249" ry="46.669"/>
<text text-anchor="middle" x="675" y="-1154.4" font-family="Times Roman,serif" font-size="24.00">exp: (f)</text>
<text text-anchor="middle" x="675" y="-1125.4" font-family="Times Roman,serif" font-size="24.00">value: </text>
</g>
<!-- 28704272 -->
<g id="node23" class="node"><title>28704272</title>
<ellipse fill="gold" stroke="black" cx="693" cy="-1038" rx="87.1802" ry="26.163"/>
<text text-anchor="middle" x="693" y="-1030.9" font-family="Times Roman,serif" font-size="24.00">request: </text>
</g>
<!-- 28704272&#45;&gt;27829360 -->
<g id="edge81" class="edge"><title>28704272&#45;&gt;27829360</title>
<path fill="none" stroke="black" d="M688.689,-1064.11C687.36,-1072.16 685.841,-1081.35 684.311,-1090.62"/>
<polygon fill="black" stroke="black" points="680.83,-1090.21 682.654,-1100.65 687.737,-1091.35 680.83,-1090.21"/>
</g>
<!-- 27928448&#45;&gt;27829360 -->
<g id="edge75" class="edge"><title>27928448&#45;&gt;27829360</title>
<path fill="none" stroke="black" d="M641.484,-960.193C623.991,-973.726 606.484,-991.263 597,-1012 587.388,-1033.02 588.488,-1042.51 597,-1064 602.675,-1078.33 612.124,-1091.62 622.522,-1103.19"/>
<polygon fill="black" stroke="black" points="620.049,-1105.67 629.462,-1110.53 625.136,-1100.86 620.049,-1105.67"/>
</g>
<!-- 27928448&#45;&gt;28704272 -->
<g id="edge77" class="edge"><title>27928448&#45;&gt;28704272</title>
<path fill="none" stroke="black" d="M693,-975.542C693,-984.249 693,-993.232 693,-1001.58"/>
<polygon fill="black" stroke="black" points="689.5,-1001.74 693,-1011.74 696.5,-1001.74 689.5,-1001.74"/>
</g>
<!-- 29182528 -->
<g id="node26" class="node"><title>29182528</title>
<ellipse fill="gold" stroke="black" cx="893" cy="-1147" rx="72.1249" ry="46.669"/>
<text text-anchor="middle" x="893" y="-1154.4" font-family="Times Roman,serif" font-size="24.00">exp: (f)</text>
<text text-anchor="middle" x="893" y="-1125.4" font-family="Times Roman,serif" font-size="24.00">value: </text>
</g>
<!-- 28188400 -->
<g id="node27" class="node"><title>28188400</title>
<ellipse fill="gold" stroke="black" cx="911" cy="-1038" rx="87.1802" ry="26.163"/>
<text text-anchor="middle" x="911" y="-1030.9" font-family="Times Roman,serif" font-size="24.00">request: </text>
</g>
<!-- 28188400&#45;&gt;29182528 -->
<g id="edge97" class="edge"><title>28188400&#45;&gt;29182528</title>
<path fill="none" stroke="black" d="M906.689,-1064.11C905.36,-1072.16 903.841,-1081.35 902.311,-1090.62"/>
<polygon fill="black" stroke="black" points="898.83,-1090.21 900.654,-1100.65 905.737,-1091.35 898.83,-1090.21"/>
</g>
<!-- 29281792&#45;&gt;29182528 -->
<g id="edge91" class="edge"><title>29281792&#45;&gt;29182528</title>
<path fill="none" stroke="black" d="M847.847,-964.742C834.707,-978.037 821.965,-994.252 815,-1012 806.557,-1033.51 806.488,-1042.51 815,-1064 820.675,-1078.33 830.124,-1091.62 840.522,-1103.19"/>
<polygon fill="black" stroke="black" points="838.049,-1105.67 847.462,-1110.53 843.136,-1100.86 838.049,-1105.67"/>
</g>
<!-- 29281792&#45;&gt;28188400 -->
<g id="edge93" class="edge"><title>29281792&#45;&gt;28188400</title>
<path fill="none" stroke="black" d="M900.058,-975.226C901.611,-984.136 903.217,-993.348 904.704,-1001.88"/>
<polygon fill="black" stroke="black" points="901.282,-1002.63 906.448,-1011.88 908.178,-1001.43 901.282,-1002.63"/>
</g>
<!-- 29442576 -->
<g id="node30" class="node"><title>29442576</title>
<ellipse fill="gold" stroke="black" cx="1111" cy="-1147" rx="72.1249" ry="46.669"/>
<text text-anchor="middle" x="1111" y="-1154.4" font-family="Times Roman,serif" font-size="24.00">exp: (f)</text>
<text text-anchor="middle" x="1111" y="-1125.4" font-family="Times Roman,serif" font-size="24.00">value: </text>
</g>
<!-- 29392944 -->
<g id="node31" class="node"><title>29392944</title>
<ellipse fill="gold" stroke="black" cx="1129" cy="-1038" rx="87.1802" ry="26.163"/>
<text text-anchor="middle" x="1129" y="-1030.9" font-family="Times Roman,serif" font-size="24.00">request: </text>
</g>
<!-- 29392944&#45;&gt;29442576 -->
<g id="edge105" class="edge"><title>29392944&#45;&gt;29442576</title>
<path fill="none" stroke="black" d="M1124.69,-1064.11C1123.36,-1072.16 1121.84,-1081.35 1120.31,-1090.62"/>
<polygon fill="black" stroke="black" points="1116.83,-1090.21 1118.65,-1100.65 1123.74,-1091.35 1116.83,-1090.21"/>
</g>
<!-- 28813184&#45;&gt;29442576 -->
<g id="edge99" class="edge"><title>28813184&#45;&gt;29442576</title>
<path fill="none" stroke="black" d="M1055.46,-969.401C1046.33,-982.17 1037.75,-996.909 1033,-1012 1026.06,-1034.04 1024.49,-1042.51 1033,-1064 1038.68,-1078.33 1048.12,-1091.62 1058.52,-1103.19"/>
<polygon fill="black" stroke="black" points="1056.05,-1105.67 1065.46,-1110.53 1061.14,-1100.86 1056.05,-1105.67"/>
</g>
<!-- 28813184&#45;&gt;29392944 -->
<g id="edge101" class="edge"><title>28813184&#45;&gt;29392944</title>
<path fill="none" stroke="black" d="M1106.79,-974.279C1110.04,-983.628 1113.43,-993.351 1116.55,-1002.3"/>
<polygon fill="black" stroke="black" points="1113.35,-1003.73 1119.94,-1012.02 1119.96,-1001.42 1113.35,-1003.73"/>
</g>
<!-- 29087168 -->
<g id="node34" class="node"><title>29087168</title>
<ellipse fill="gold" stroke="black" cx="1329" cy="-1147" rx="72.1249" ry="46.669"/>
<text text-anchor="middle" x="1329" y="-1154.4" font-family="Times Roman,serif" font-size="24.00">exp: (f)</text>
<text text-anchor="middle" x="1329" y="-1125.4" font-family="Times Roman,serif" font-size="24.00">value: </text>
</g>
<!-- 26742928 -->
<g id="node35" class="node"><title>26742928</title>
<ellipse fill="gold" stroke="black" cx="1347" cy="-1038" rx="87.1802" ry="26.163"/>
<text text-anchor="middle" x="1347" y="-1030.9" font-family="Times Roman,serif" font-size="24.00">request: </text>
</g>
<!-- 26742928&#45;&gt;29087168 -->
<g id="edge89" class="edge"><title>26742928&#45;&gt;29087168</title>
<path fill="none" stroke="black" d="M1342.69,-1064.11C1341.36,-1072.16 1339.84,-1081.35 1338.31,-1090.62"/>
<polygon fill="black" stroke="black" points="1334.83,-1090.21 1336.65,-1100.65 1341.74,-1091.35 1334.83,-1090.21"/>
</g>
<!-- 28482800&#45;&gt;29087168 -->
<g id="edge83" class="edge"><title>28482800&#45;&gt;29087168</title>
<path fill="none" stroke="black" d="M1273.46,-969.401C1264.33,-982.17 1255.75,-996.909 1251,-1012 1244.06,-1034.04 1242.49,-1042.51 1251,-1064 1256.68,-1078.33 1266.12,-1091.62 1276.52,-1103.19"/>
<polygon fill="black" stroke="black" points="1274.05,-1105.67 1283.46,-1110.53 1279.14,-1100.86 1274.05,-1105.67"/>
</g>
<!-- 28482800&#45;&gt;26742928 -->
<g id="edge85" class="edge"><title>28482800&#45;&gt;26742928</title>
<path fill="none" stroke="black" d="M1324.79,-974.279C1328.04,-983.628 1331.43,-993.351 1334.55,-1002.3"/>
<polygon fill="black" stroke="black" points="1331.35,-1003.73 1337.94,-1012.02 1337.96,-1001.42 1331.35,-1003.73"/>
</g>
<!-- 26419824 -->
<g id="node38" class="node"><title>26419824</title>
<ellipse fill="gold" stroke="black" cx="1547" cy="-1147" rx="72.1249" ry="46.669"/>
<text text-anchor="middle" x="1547" y="-1154.4" font-family="Times Roman,serif" font-size="24.00">exp: (f)</text>
<text text-anchor="middle" x="1547" y="-1125.4" font-family="Times Roman,serif" font-size="24.00">value: </text>
</g>
<!-- 28483904 -->
<g id="node39" class="node"><title>28483904</title>
<ellipse fill="gold" stroke="black" cx="1565" cy="-1038" rx="87.1802" ry="26.163"/>
<text text-anchor="middle" x="1565" y="-1030.9" font-family="Times Roman,serif" font-size="24.00">request: </text>
</g>
<!-- 28483904&#45;&gt;26419824 -->
<g id="edge73" class="edge"><title>28483904&#45;&gt;26419824</title>
<path fill="none" stroke="black" d="M1560.69,-1064.11C1559.36,-1072.16 1557.84,-1081.35 1556.31,-1090.62"/>
<polygon fill="black" stroke="black" points="1552.83,-1090.21 1554.65,-1100.65 1559.74,-1091.35 1552.83,-1090.21"/>
</g>
<!-- 28481696&#45;&gt;26419824 -->
<g id="edge67" class="edge"><title>28481696&#45;&gt;26419824</title>
<path fill="none" stroke="black" d="M1491.46,-969.401C1482.33,-982.17 1473.75,-996.909 1469,-1012 1462.06,-1034.04 1460.49,-1042.51 1469,-1064 1474.68,-1078.33 1484.12,-1091.62 1494.52,-1103.19"/>
<polygon fill="black" stroke="black" points="1492.05,-1105.67 1501.46,-1110.53 1497.14,-1100.86 1492.05,-1105.67"/>
</g>
<!-- 28481696&#45;&gt;28483904 -->
<g id="edge69" class="edge"><title>28481696&#45;&gt;28483904</title>
<path fill="none" stroke="black" d="M1542.79,-974.279C1546.04,-983.628 1549.43,-993.351 1552.55,-1002.3"/>
<polygon fill="black" stroke="black" points="1549.35,-1003.73 1555.94,-1012.02 1555.96,-1001.42 1549.35,-1003.73"/>
</g>
<!-- 25976400 -->
<g id="node42" class="node"><title>25976400</title>
<ellipse fill="gold" stroke="black" cx="1765" cy="-1147" rx="72.1249" ry="46.669"/>
<text text-anchor="middle" x="1765" y="-1154.4" font-family="Times Roman,serif" font-size="24.00">exp: (f)</text>
<text text-anchor="middle" x="1765" y="-1125.4" font-family="Times Roman,serif" font-size="24.00">value: </text>
</g>
<!-- 26009584 -->
<g id="node43" class="node"><title>26009584</title>
<ellipse fill="gold" stroke="black" cx="1783" cy="-1038" rx="87.1802" ry="26.163"/>
<text text-anchor="middle" x="1783" y="-1030.9" font-family="Times Roman,serif" font-size="24.00">request: </text>
</g>
<!-- 26009584&#45;&gt;25976400 -->
<g id="edge65" class="edge"><title>26009584&#45;&gt;25976400</title>
<path fill="none" stroke="black" d="M1778.69,-1064.11C1777.36,-1072.16 1775.84,-1081.35 1774.31,-1090.62"/>
<polygon fill="black" stroke="black" points="1770.83,-1090.21 1772.65,-1100.65 1777.74,-1091.35 1770.83,-1090.21"/>
</g>
<!-- 28298448&#45;&gt;25976400 -->
<g id="edge59" class="edge"><title>28298448&#45;&gt;25976400</title>
<path fill="none" stroke="black" d="M1709.46,-969.401C1700.33,-982.17 1691.75,-996.909 1687,-1012 1680.06,-1034.04 1678.49,-1042.51 1687,-1064 1692.68,-1078.33 1702.12,-1091.62 1712.52,-1103.19"/>
<polygon fill="black" stroke="black" points="1710.05,-1105.67 1719.46,-1110.53 1715.14,-1100.86 1710.05,-1105.67"/>
</g>
<!-- 28298448&#45;&gt;26009584 -->
<g id="edge61" class="edge"><title>28298448&#45;&gt;26009584</title>
<path fill="none" stroke="black" d="M1760.79,-974.279C1764.04,-983.628 1767.43,-993.351 1770.55,-1002.3"/>
<polygon fill="black" stroke="black" points="1767.35,-1003.73 1773.94,-1012.02 1773.96,-1001.42 1767.35,-1003.73"/>
</g>
<!-- 25760240 -->
<g id="node51" class="node"><title>25760240</title>
<ellipse fill="none" stroke="black" cx="63" cy="-401" rx="62.9325" ry="18.3848"/>
<text text-anchor="middle" x="63" y="-397.4" font-family="Times Roman,serif" font-size="14.00">25760240</text>
</g>
<!-- 25760240&#45;&gt;23285904 -->
<g id="edge25" class="edge"><title>25760240&#45;&gt;23285904</title>
<path fill="none" stroke="black" d="M124.678,-405.238C216.71,-412.427 395.007,-429.696 543,-464 594.28,-475.887 649.54,-493.55 696.838,-510.231"/>
<polygon fill="black" stroke="black" points="695.902,-513.612 706.496,-513.662 698.245,-507.016 695.902,-513.612"/>
</g>
<!-- 27335696 -->
<g id="node61" class="node"><title>27335696</title>
<ellipse fill="none" stroke="black" cx="1357" cy="-19" rx="62.9325" ry="18.3848"/>
<text text-anchor="middle" x="1357" y="-15.4" font-family="Times Roman,serif" font-size="14.00">27335696</text>
</g>
<!-- 27335696&#45;&gt;21574256 -->
<g id="edge43" class="edge"><title>27335696&#45;&gt;21574256</title>
<path fill="none" stroke="black" d="M1357,-37.8129C1357,-59.2806 1357,-95.4093 1357,-126.255"/>
<polygon fill="black" stroke="black" points="1353.5,-126.484 1357,-136.484 1360.5,-126.484 1353.5,-126.484"/>
</g>
</g>
</svg>
