<?xml version="1.0" encoding="UTF-8" standalone="no"?>
<!DOCTYPE svg PUBLIC "-//W3C//DTD SVG 1.1//EN"
 "http://www.w3.org/Graphics/SVG/1.1/DTD/svg11.dtd">
<!-- Generated by graphviz version 2.26.3 (20100126.1600)
 -->
<!-- Title: _anonymous_0 Pages: 1 -->
<svg width="3257pt" height="2077pt"
 viewBox="0.00 0.00 3257.00 2077.00" xmlns="http://www.w3.org/2000/svg" xmlns:xlink="http://www.w3.org/1999/xlink">
<g id="graph1" class="graph" transform="scale(1 1) rotate(0) translate(4 2073)">
<title>_anonymous_0</title>
<polygon fill="white" stroke="white" points="-4,5 -4,-2073 3254,-2073 3254,5 -4,5"/>
<g id="graph2" class="cluster"><title>cluster1</title>
<polygon fill="none" stroke="black" points="676,-46 676,-2061 3166,-2061 3166,-46 676,-46"/>
<text text-anchor="middle" x="1921" y="-57.4" font-family="Times Roman,serif" font-size="24.00">Venture Families</text>
</g>
<g id="graph3" class="cluster"><title>cluster2</title>
<polygon fill="none" stroke="black" points="2488,-91 2488,-456 3158,-456 3158,-91 2488,-91"/>
<text text-anchor="middle" x="2823" y="-102.4" font-family="Times Roman,serif" font-size="24.00">1</text>
</g>
<g id="graph4" class="cluster"><title>cluster3</title>
<polygon fill="none" stroke="black" points="2000,-464 2000,-1047 3146,-1047 3146,-464 2000,-464"/>
<text text-anchor="middle" x="2573" y="-475.4" font-family="Times Roman,serif" font-size="24.00">2</text>
</g>
<g id="graph5" class="cluster"><title>cluster4</title>
<polygon fill="none" stroke="black" points="684,-1055 684,-1898 3146,-1898 3146,-1055 684,-1055"/>
<text text-anchor="middle" x="1915" y="-1066.4" font-family="Times Roman,serif" font-size="24.00">3</text>
</g>
<g id="graph6" class="cluster"><title>cluster5</title>
<polygon fill="none" stroke="black" points="1935,-1906 1935,-2053 2217,-2053 2217,-1906 1935,-1906"/>
<text text-anchor="middle" x="2076" y="-1917.4" font-family="Times Roman,serif" font-size="24.00">4</text>
</g>
<g id="graph7" class="cluster"><title>cluster6</title>
<polygon fill="none" stroke="black" points="8,-1222 8,-1332 322,-1332 322,-1222 8,-1222"/>
</g>
<g id="graph8" class="cluster"><title>cluster7</title>
<polygon fill="none" stroke="black" points="330,-1222 330,-1332 644,-1332 644,-1222 330,-1222"/>
</g>
<!-- 31724832 -->
<g id="node3" class="node"><title>31724832</title>
<ellipse fill="firebrick" stroke="black" cx="2825" cy="-401" rx="224.86" ry="46.669"/>
<text text-anchor="middle" x="2825" y="-408.4" font-family="Times Roman,serif" font-size="24.00">exp: (bernoulli 0.200000)</text>
<text text-anchor="middle" x="2825" y="-379.4" font-family="Times Roman,serif" font-size="24.00">value: </text>
</g>
<!-- 32068816 -->
<g id="node14" class="node"><title>32068816</title>
<ellipse fill="gold" stroke="black" cx="2420" cy="-556" rx="85.7684" ry="46.669"/>
<text text-anchor="middle" x="2420" y="-563.4" font-family="Times Roman,serif" font-size="24.00">exp: rain</text>
<text text-anchor="middle" x="2420" y="-534.4" font-family="Times Roman,serif" font-size="24.00">value: </text>
</g>
<!-- 31724832&#45;&gt;32068816 -->
<g id="edge125" class="edge"><title>31724832&#45;&gt;32068816</title>
<path fill="none" stroke="black" d="M2686.06,-437.595C2656.49,-444.476 2625.33,-451.053 2596,-456 2560.33,-462.016 2547.82,-448.791 2515,-464 2494.59,-473.456 2475.89,-489.149 2460.58,-504.919"/>
<polygon fill="black" stroke="black" points="2457.63,-502.95 2453.34,-512.64 2462.73,-507.738 2457.63,-502.95"/>
</g>
<!-- 32073920 -->
<g id="node24" class="node"><title>32073920</title>
<ellipse fill="gold" stroke="black" cx="2792" cy="-1407" rx="85.7684" ry="46.669"/>
<text text-anchor="middle" x="2792" y="-1414.4" font-family="Times Roman,serif" font-size="24.00">exp: rain</text>
<text text-anchor="middle" x="2792" y="-1385.4" font-family="Times Roman,serif" font-size="24.00">value: </text>
</g>
<!-- 31724832&#45;&gt;32073920 -->
<g id="edge43" class="edge"><title>31724832&#45;&gt;32073920</title>
<path fill="none" stroke="black" d="M2963.28,-437.799C2993.03,-444.709 3024.43,-451.245 3054,-456 3064.57,-457.699 3142.62,-456.251 3150,-464 3165.42,-480.179 3157,-642.653 3157,-665 3157,-665 3157,-665 3157,-1147 3157,-1168.36 3159.41,-1176.62 3147,-1194 3128.17,-1220.38 2959.65,-1315.32 2861.72,-1369.12"/>
<polygon fill="black" stroke="black" points="2859.84,-1366.16 2852.76,-1374.03 2863.21,-1372.29 2859.84,-1366.16"/>
</g>
<!-- 33717328 -->
<g id="node4" class="node"><title>33717328</title>
<ellipse fill="#8f8f8f" stroke="black" cx="2825" cy="-292" rx="99.9096" ry="26.163"/>
<text text-anchor="middle" x="2825" y="-284.9" font-family="Times Roman,serif" font-size="24.00">request: []</text>
</g>
<!-- 33717328&#45;&gt;31724832 -->
<g id="edge19" class="edge"><title>33717328&#45;&gt;31724832</title>
<path fill="none" stroke="black" d="M2825,-318.108C2825,-325.979 2825,-334.946 2825,-344.005"/>
<polygon fill="black" stroke="black" points="2821.5,-344.218 2825,-354.218 2828.5,-344.218 2821.5,-344.218"/>
</g>
<!-- 32580976 -->
<g id="node5" class="node"><title>32580976</title>
<ellipse fill="#8f8f8f" stroke="black" cx="2981" cy="-183" rx="168.999" ry="46.669"/>
<text text-anchor="middle" x="2981" y="-190.4" font-family="Times Roman,serif" font-size="24.00">exp: bernoulli</text>
<text text-anchor="middle" x="2981" y="-161.4" font-family="Times Roman,serif" font-size="24.00">value: sp:bernoulli</text>
</g>
<!-- 32580976&#45;&gt;31724832 -->
<g id="edge9" class="edge"><title>32580976&#45;&gt;31724832</title>
<path fill="none" stroke="black" d="M2971.9,-229.621C2964.86,-257.214 2953.02,-291.783 2934,-318 2925.49,-329.733 2914.86,-340.583 2903.59,-350.306"/>
<polygon fill="black" stroke="black" points="2901.16,-347.771 2895.71,-356.854 2905.64,-353.156 2901.16,-347.771"/>
</g>
<!-- 32580976&#45;&gt;33717328 -->
<g id="edge11" class="edge"><title>32580976&#45;&gt;33717328</title>
<path fill="none" stroke="black" d="M2918.9,-226.393C2901.98,-238.215 2884.02,-250.764 2868.38,-261.688"/>
<polygon fill="black" stroke="black" points="2866.15,-258.978 2859.96,-267.574 2870.16,-264.716 2866.15,-258.978"/>
</g>
<!-- 32618720 -->
<g id="node6" class="node"><title>32618720</title>
<ellipse fill="#8f8f8f" stroke="black" cx="2645" cy="-183" rx="149.2" ry="46.669"/>
<text text-anchor="middle" x="2645" y="-190.4" font-family="Times Roman,serif" font-size="24.00">exp: 0.200000</text>
<text text-anchor="middle" x="2645" y="-161.4" font-family="Times Roman,serif" font-size="24.00">value: 0.200000</text>
</g>
<!-- 32618720&#45;&gt;31724832 -->
<g id="edge15" class="edge"><title>32618720&#45;&gt;31724832</title>
<path fill="none" stroke="black" d="M2663.23,-229.183C2675.53,-256.784 2693.6,-291.514 2716,-318 2725.7,-329.471 2737.25,-340.334 2749.15,-350.191"/>
<polygon fill="black" stroke="black" points="2747.02,-352.968 2757,-356.519 2751.41,-347.519 2747.02,-352.968"/>
</g>
<!-- 32618720&#45;&gt;33717328 -->
<g id="edge17" class="edge"><title>32618720&#45;&gt;33717328</title>
<path fill="none" stroke="black" d="M2713.31,-224.364C2734.44,-237.159 2757.26,-250.982 2776.74,-262.776"/>
<polygon fill="black" stroke="black" points="2775.07,-265.855 2785.44,-268.041 2778.69,-259.868 2775.07,-265.855"/>
</g>
<!-- 33294384 -->
<g id="node8" class="node"><title>33294384</title>
<ellipse fill="#63b8ff" stroke="black" cx="2637" cy="-992" rx="463.862" ry="46.669"/>
<text text-anchor="middle" x="2637" y="-999.4" font-family="Times Roman,serif" font-size="24.00">exp: (bernoulli (branch_exp rain 0.010000 0.400000))</text>
<text text-anchor="middle" x="2637" y="-970.4" font-family="Times Roman,serif" font-size="24.00">value: #f</text>
</g>
<!-- 32480880 -->
<g id="node28" class="node"><title>32480880</title>
<ellipse fill="#8f8f8f" stroke="black" cx="3010" cy="-1147" rx="127.986" ry="46.669"/>
<text text-anchor="middle" x="3010" y="-1154.4" font-family="Times Roman,serif" font-size="24.00">exp: sprinkler</text>
<text text-anchor="middle" x="3010" y="-1125.4" font-family="Times Roman,serif" font-size="24.00">value: #f</text>
</g>
<!-- 33294384&#45;&gt;32480880 -->
<g id="edge59" class="edge"><title>33294384&#45;&gt;32480880</title>
<path fill="none" stroke="black" d="M2821.09,-1034.72C2838.92,-1040.76 2856.49,-1047.51 2873,-1055 2898.79,-1066.71 2925.1,-1083.1 2947.67,-1098.8"/>
<polygon fill="black" stroke="black" points="2945.94,-1101.87 2956.13,-1104.78 2949.98,-1096.15 2945.94,-1101.87"/>
</g>
<!-- 32755408 -->
<g id="node34" class="node"><title>32755408</title>
<ellipse fill="#8f8f8f" stroke="black" cx="1778" cy="-1147" rx="127.986" ry="46.669"/>
<text text-anchor="middle" x="1778" y="-1154.4" font-family="Times Roman,serif" font-size="24.00">exp: sprinkler</text>
<text text-anchor="middle" x="1778" y="-1125.4" font-family="Times Roman,serif" font-size="24.00">value: #f</text>
</g>
<!-- 33294384&#45;&gt;32755408 -->
<g id="edge87" class="edge"><title>33294384&#45;&gt;32755408</title>
<path fill="none" stroke="black" d="M2355.56,-1029.03C2294.16,-1036 2229.47,-1042.5 2169,-1047 2140.84,-1049.09 1941.88,-1046.35 1915,-1055 1886.7,-1064.11 1858.84,-1080.95 1835.7,-1097.75"/>
<polygon fill="black" stroke="black" points="1833.34,-1095.15 1827.4,-1103.93 1837.52,-1100.77 1833.34,-1095.15"/>
</g>
<!-- 33069568 -->
<g id="node9" class="node"><title>33069568</title>
<ellipse fill="#8f8f8f" stroke="black" cx="2637" cy="-883" rx="99.9096" ry="26.163"/>
<text text-anchor="middle" x="2637" y="-875.9" font-family="Times Roman,serif" font-size="24.00">request: []</text>
</g>
<!-- 33069568&#45;&gt;33294384 -->
<g id="edge137" class="edge"><title>33069568&#45;&gt;33294384</title>
<path fill="none" stroke="black" d="M2637,-909.108C2637,-916.979 2637,-925.946 2637,-935.005"/>
<polygon fill="black" stroke="black" points="2633.5,-935.218 2637,-945.218 2640.5,-935.218 2633.5,-935.218"/>
</g>
<!-- 33355904 -->
<g id="node10" class="node"><title>33355904</title>
<ellipse fill="#8f8f8f" stroke="black" cx="2969" cy="-774" rx="168.999" ry="46.669"/>
<text text-anchor="middle" x="2969" y="-781.4" font-family="Times Roman,serif" font-size="24.00">exp: bernoulli</text>
<text text-anchor="middle" x="2969" y="-752.4" font-family="Times Roman,serif" font-size="24.00">value: sp:bernoulli</text>
</g>
<!-- 33355904&#45;&gt;33294384 -->
<g id="edge105" class="edge"><title>33355904&#45;&gt;33294384</title>
<path fill="none" stroke="black" d="M2903.41,-817.07C2849.48,-852.478 2772.92,-902.754 2715.69,-940.327"/>
<polygon fill="black" stroke="black" points="2713.48,-937.595 2707.04,-946.009 2717.32,-943.446 2713.48,-937.595"/>
</g>
<!-- 33355904&#45;&gt;33069568 -->
<g id="edge107" class="edge"><title>33355904&#45;&gt;33069568</title>
<path fill="none" stroke="black" d="M2860.29,-809.691C2810.61,-826.003 2753.12,-844.877 2708.92,-859.389"/>
<polygon fill="black" stroke="black" points="2707.82,-856.065 2699.41,-862.51 2710,-862.716 2707.82,-856.065"/>
</g>
<!-- 31606528 -->
<g id="node11" class="node"><title>31606528</title>
<ellipse fill="gold" stroke="black" cx="2410" cy="-774" rx="372.145" ry="46.669"/>
<text text-anchor="middle" x="2410" y="-781.4" font-family="Times Roman,serif" font-size="24.00">exp: (branch_exp rain 0.010000 0.400000)</text>
<text text-anchor="middle" x="2410" y="-752.4" font-family="Times Roman,serif" font-size="24.00">value: </text>
</g>
<!-- 31606528&#45;&gt;33294384 -->
<g id="edge111" class="edge"><title>31606528&#45;&gt;33294384</title>
<path fill="none" stroke="black" d="M2446.65,-820.464C2468.93,-847.515 2498.66,-881.58 2528,-909 2539.12,-919.392 2551.49,-929.774 2563.79,-939.503"/>
<polygon fill="black" stroke="black" points="2561.81,-942.4 2571.85,-945.794 2566.12,-936.882 2561.81,-942.4"/>
</g>
<!-- 31606528&#45;&gt;33069568 -->
<g id="edge113" class="edge"><title>31606528&#45;&gt;33069568</title>
<path fill="none" stroke="black" d="M2503.97,-819.121C2529.8,-831.527 2557.03,-844.601 2580.08,-855.667"/>
<polygon fill="black" stroke="black" points="2578.82,-858.946 2589.35,-860.12 2581.85,-852.636 2578.82,-858.946"/>
</g>
<!-- 33034624 -->
<g id="node12" class="node"><title>33034624</title>
<ellipse fill="gold" stroke="black" cx="2516" cy="-665" rx="87.1802" ry="26.163"/>
<text text-anchor="middle" x="2516" y="-657.9" font-family="Times Roman,serif" font-size="24.00">request: </text>
</g>
<!-- 33034624&#45;&gt;31606528 -->
<g id="edge135" class="edge"><title>33034624&#45;&gt;31606528</title>
<path fill="none" stroke="black" d="M2491.68,-690.007C2482.84,-699.097 2472.48,-709.753 2462.16,-720.366"/>
<polygon fill="black" stroke="black" points="2459.5,-718.077 2455.04,-727.687 2464.52,-722.958 2459.5,-718.077"/>
</g>
<!-- 31900816 -->
<g id="node13" class="node"><title>31900816</title>
<ellipse fill="#8f8f8f" stroke="black" cx="2162" cy="-556" rx="154.149" ry="46.669"/>
<text text-anchor="middle" x="2162" y="-563.4" font-family="Times Roman,serif" font-size="24.00">exp: branch_exp</text>
<text text-anchor="middle" x="2162" y="-534.4" font-family="Times Roman,serif" font-size="24.00">value: sp:branch</text>
</g>
<!-- 31900816&#45;&gt;31606528 -->
<g id="edge115" class="edge"><title>31900816&#45;&gt;31606528</title>
<path fill="none" stroke="black" d="M2221.29,-599.106C2237.71,-611.588 2255.32,-625.499 2271,-639 2300.7,-664.57 2332.16,-694.825 2357.62,-720.206"/>
<polygon fill="black" stroke="black" points="2355.43,-722.97 2364.97,-727.57 2360.38,-718.022 2355.43,-722.97"/>
</g>
<!-- 31900816&#45;&gt;33034624 -->
<g id="edge117" class="edge"><title>31900816&#45;&gt;33034624</title>
<path fill="none" stroke="black" d="M2270.14,-589.296C2327.13,-606.845 2395.41,-627.87 2445.54,-643.305"/>
<polygon fill="black" stroke="black" points="2444.73,-646.717 2455.32,-646.315 2446.79,-640.027 2444.73,-646.717"/>
</g>
<!-- 32068816&#45;&gt;31606528 -->
<g id="edge121" class="edge"><title>32068816&#45;&gt;31606528</title>
<path fill="none" stroke="black" d="M2417.87,-602.499C2416.33,-635.96 2414.25,-681.29 2412.62,-716.942"/>
<polygon fill="black" stroke="black" points="2409.11,-717.047 2412.15,-727.197 2416.1,-717.368 2409.11,-717.047"/>
</g>
<!-- 32068816&#45;&gt;33034624 -->
<g id="edge123" class="edge"><title>32068816&#45;&gt;33034624</title>
<path fill="none" stroke="black" d="M2457.12,-598.142C2467.05,-609.423 2477.64,-621.449 2487.06,-632.146"/>
<polygon fill="black" stroke="black" points="2484.46,-634.48 2493.69,-639.671 2489.71,-629.853 2484.46,-634.48"/>
</g>
<!-- 32032992 -->
<g id="node15" class="node"><title>32032992</title>
<ellipse fill="#8f8f8f" stroke="black" cx="2989" cy="-556" rx="149.2" ry="46.669"/>
<text text-anchor="middle" x="2989" y="-563.4" font-family="Times Roman,serif" font-size="24.00">exp: 0.010000</text>
<text text-anchor="middle" x="2989" y="-534.4" font-family="Times Roman,serif" font-size="24.00">value: 0.010000</text>
</g>
<!-- 32032992&#45;&gt;31606528 -->
<g id="edge127" class="edge"><title>32032992&#45;&gt;31606528</title>
<path fill="none" stroke="black" d="M2894.53,-592.176C2823.05,-619.487 2722.43,-657.803 2634,-691 2603.3,-702.525 2570.19,-714.849 2539.1,-726.378"/>
<polygon fill="black" stroke="black" points="2537.68,-723.172 2529.52,-729.929 2540.11,-729.736 2537.68,-723.172"/>
</g>
<!-- 32032992&#45;&gt;33034624 -->
<g id="edge129" class="edge"><title>32032992&#45;&gt;33034624</title>
<path fill="none" stroke="black" d="M2883.57,-588.869C2866.09,-593.885 2848.09,-598.787 2831,-603 2754.08,-621.966 2665.46,-638.985 2601.85,-650.372"/>
<polygon fill="black" stroke="black" points="2601.1,-646.952 2591.86,-652.151 2602.32,-653.843 2601.1,-646.952"/>
</g>
<!-- 31801984 -->
<g id="node16" class="node"><title>31801984</title>
<ellipse fill="#8f8f8f" stroke="black" cx="2673" cy="-556" rx="149.2" ry="46.669"/>
<text text-anchor="middle" x="2673" y="-563.4" font-family="Times Roman,serif" font-size="24.00">exp: 0.400000</text>
<text text-anchor="middle" x="2673" y="-534.4" font-family="Times Roman,serif" font-size="24.00">value: 0.400000</text>
</g>
<!-- 31801984&#45;&gt;31606528 -->
<g id="edge131" class="edge"><title>31801984&#45;&gt;31606528</title>
<path fill="none" stroke="black" d="M2661.53,-602.443C2652.34,-631.189 2636.79,-667.055 2612,-691 2597.65,-704.866 2580.66,-716.539 2562.72,-726.334"/>
<polygon fill="black" stroke="black" points="2561.07,-723.246 2553.85,-730.993 2564.33,-729.444 2561.07,-723.246"/>
</g>
<!-- 31801984&#45;&gt;33034624 -->
<g id="edge133" class="edge"><title>31801984&#45;&gt;33034624</title>
<path fill="none" stroke="black" d="M2611.85,-598.454C2594.11,-610.773 2575.12,-623.956 2558.76,-635.311"/>
<polygon fill="black" stroke="black" points="2556.69,-632.491 2550.47,-641.069 2560.68,-638.241 2556.69,-632.491"/>
</g>
<!-- 32070704 -->
<g id="node18" class="node"><title>32070704</title>
<ellipse fill="#63b8ff" stroke="black" cx="2076" cy="-1843" rx="1024.8" ry="46.669"/>
<text text-anchor="middle" x="2076" y="-1850.4" font-family="Times Roman,serif" font-size="24.00">exp: (bernoulli (branch_exp rain (branch_exp sprinkler 0.990000 0.800000) (branch_exp sprinkler 0.900000 0.000010)))</text>
<text text-anchor="middle" x="2076" y="-1821.4" font-family="Times Roman,serif" font-size="24.00">value: #t</text>
</g>
<!-- 31907680 -->
<g id="node38" class="node"><title>31907680</title>
<ellipse fill="#8f8f8f" stroke="black" cx="2076" cy="-1998" rx="132.936" ry="46.669"/>
<text text-anchor="middle" x="2076" y="-2005.4" font-family="Times Roman,serif" font-size="24.00">exp: grassWet</text>
<text text-anchor="middle" x="2076" y="-1976.4" font-family="Times Roman,serif" font-size="24.00">value: #t</text>
</g>
<!-- 32070704&#45;&gt;31907680 -->
<g id="edge21" class="edge"><title>32070704&#45;&gt;31907680</title>
<path fill="none" stroke="black" d="M2076,-1889.51C2076,-1905.68 2076,-1924.01 2076,-1940.93"/>
<polygon fill="black" stroke="black" points="2072.5,-1941.26 2076,-1951.26 2079.5,-1941.26 2072.5,-1941.26"/>
</g>
<!-- 34107232 -->
<g id="node19" class="node"><title>34107232</title>
<ellipse fill="#8f8f8f" stroke="black" cx="2076" cy="-1734" rx="99.9096" ry="26.163"/>
<text text-anchor="middle" x="2076" y="-1726.9" font-family="Times Roman,serif" font-size="24.00">request: []</text>
</g>
<!-- 34107232&#45;&gt;32070704 -->
<g id="edge103" class="edge"><title>34107232&#45;&gt;32070704</title>
<path fill="none" stroke="black" d="M2076,-1760.11C2076,-1767.98 2076,-1776.95 2076,-1786"/>
<polygon fill="black" stroke="black" points="2072.5,-1786.22 2076,-1796.22 2079.5,-1786.22 2072.5,-1786.22"/>
</g>
<!-- 31836512 -->
<g id="node20" class="node"><title>31836512</title>
<ellipse fill="#8f8f8f" stroke="black" cx="2969" cy="-1625" rx="168.999" ry="46.669"/>
<text text-anchor="middle" x="2969" y="-1632.4" font-family="Times Roman,serif" font-size="24.00">exp: bernoulli</text>
<text text-anchor="middle" x="2969" y="-1603.4" font-family="Times Roman,serif" font-size="24.00">value: sp:bernoulli</text>
</g>
<!-- 31836512&#45;&gt;32070704 -->
<g id="edge23" class="edge"><title>31836512&#45;&gt;32070704</title>
<path fill="none" stroke="black" d="M2847.49,-1657.49C2828.6,-1662.42 2809.29,-1667.4 2791,-1672 2619.94,-1715.03 2425.2,-1761.44 2282.2,-1795.03"/>
<polygon fill="black" stroke="black" points="2281.36,-1791.64 2272.42,-1797.33 2282.96,-1798.45 2281.36,-1791.64"/>
</g>
<!-- 31836512&#45;&gt;34107232 -->
<g id="edge25" class="edge"><title>31836512&#45;&gt;34107232</title>
<path fill="none" stroke="black" d="M2852.34,-1658.86C2832.02,-1663.87 2811,-1668.52 2791,-1672 2578.58,-1708.97 2326.64,-1724.29 2185.66,-1730.33"/>
<polygon fill="black" stroke="black" points="2185.13,-1726.85 2175.29,-1730.77 2185.43,-1733.85 2185.13,-1726.85"/>
</g>
<!-- 34048464 -->
<g id="node21" class="node"><title>34048464</title>
<ellipse fill="gold" stroke="black" cx="1849" cy="-1625" rx="932.881" ry="46.669"/>
<text text-anchor="middle" x="1849" y="-1632.4" font-family="Times Roman,serif" font-size="24.00">exp: (branch_exp rain (branch_exp sprinkler 0.990000 0.800000) (branch_exp sprinkler 0.900000 0.000010))</text>
<text text-anchor="middle" x="1849" y="-1603.4" font-family="Times Roman,serif" font-size="24.00">value: </text>
</g>
<!-- 34048464&#45;&gt;32070704 -->
<g id="edge29" class="edge"><title>34048464&#45;&gt;32070704</title>
<path fill="none" stroke="black" d="M1885.91,-1671.78C1908.16,-1698.78 1937.78,-1732.69 1967,-1760 1978.05,-1770.33 1990.33,-1780.64 2002.55,-1790.32"/>
<polygon fill="black" stroke="black" points="2000.53,-1793.17 2010.56,-1796.57 2004.84,-1787.66 2000.53,-1793.17"/>
</g>
<!-- 34048464&#45;&gt;34107232 -->
<g id="edge31" class="edge"><title>34048464&#45;&gt;34107232</title>
<path fill="none" stroke="black" d="M1945.6,-1671.38C1970.62,-1683.4 1996.77,-1695.95 2019.02,-1706.64"/>
<polygon fill="black" stroke="black" points="2017.78,-1709.92 2028.3,-1711.1 2020.81,-1703.61 2017.78,-1709.92"/>
</g>
<!-- 31719856 -->
<g id="node22" class="node"><title>31719856</title>
<ellipse fill="gold" stroke="black" cx="1849" cy="-1516" rx="87.1802" ry="26.163"/>
<text text-anchor="middle" x="1849" y="-1508.9" font-family="Times Roman,serif" font-size="24.00">request: </text>
</g>
<!-- 31719856&#45;&gt;34048464 -->
<g id="edge101" class="edge"><title>31719856&#45;&gt;34048464</title>
<path fill="none" stroke="black" d="M1849,-1542.11C1849,-1549.98 1849,-1558.95 1849,-1568"/>
<polygon fill="black" stroke="black" points="1845.5,-1568.22 1849,-1578.22 1852.5,-1568.22 1845.5,-1568.22"/>
</g>
<!-- 31883376 -->
<g id="node23" class="node"><title>31883376</title>
<ellipse fill="#8f8f8f" stroke="black" cx="846" cy="-1407" rx="154.149" ry="46.669"/>
<text text-anchor="middle" x="846" y="-1414.4" font-family="Times Roman,serif" font-size="24.00">exp: branch_exp</text>
<text text-anchor="middle" x="846" y="-1385.4" font-family="Times Roman,serif" font-size="24.00">value: sp:branch</text>
</g>
<!-- 31883376&#45;&gt;34048464 -->
<g id="edge33" class="edge"><title>31883376&#45;&gt;34048464</title>
<path fill="none" stroke="black" d="M955.277,-1439.81C973.166,-1444.81 991.553,-1449.72 1009,-1454 1203.32,-1501.71 1425.22,-1546.47 1592.13,-1578.22"/>
<polygon fill="black" stroke="black" points="1591.56,-1581.68 1602.04,-1580.11 1592.87,-1574.8 1591.56,-1581.68"/>
</g>
<!-- 31883376&#45;&gt;31719856 -->
<g id="edge35" class="edge"><title>31883376&#45;&gt;31719856</title>
<path fill="none" stroke="black" d="M951.782,-1440.93C970.678,-1446.01 990.301,-1450.65 1009,-1454 1149.37,-1479.14 1563.42,-1501.96 1752.66,-1511.4"/>
<polygon fill="black" stroke="black" points="1752.71,-1514.91 1762.87,-1511.91 1753.06,-1507.92 1752.71,-1514.91"/>
</g>
<!-- 32073920&#45;&gt;34048464 -->
<g id="edge39" class="edge"><title>32073920&#45;&gt;34048464</title>
<path fill="none" stroke="black" d="M2731.55,-1440.27C2720.31,-1445.49 2708.49,-1450.35 2697,-1454 2599.24,-1485.1 2569.83,-1471.08 2469,-1490 2330.12,-1516.06 2174.76,-1549.9 2054.3,-1577.18"/>
<polygon fill="black" stroke="black" points="2053.2,-1573.84 2044.23,-1579.46 2054.75,-1580.66 2053.2,-1573.84"/>
</g>
<!-- 32073920&#45;&gt;31719856 -->
<g id="edge41" class="edge"><title>32073920&#45;&gt;31719856</title>
<path fill="none" stroke="black" d="M2732.57,-1440.72C2721.07,-1445.99 2708.89,-1450.76 2697,-1454 2557.96,-1491.91 2137.7,-1508.06 1946.09,-1513.59"/>
<polygon fill="black" stroke="black" points="1945.92,-1510.09 1936.03,-1513.87 1946.12,-1517.09 1945.92,-1510.09"/>
</g>
<!-- 32393504 -->
<g id="node25" class="node"><title>32393504</title>
<ellipse fill="#8f8f8f" stroke="black" cx="2275" cy="-1407" rx="413.157" ry="46.669"/>
<text text-anchor="middle" x="2275" y="-1414.4" font-family="Times Roman,serif" font-size="24.00">exp: (branch_exp sprinkler 0.990000 0.800000)</text>
<text text-anchor="middle" x="2275" y="-1385.4" font-family="Times Roman,serif" font-size="24.00">value: 0.800000</text>
</g>
<!-- 32393504&#45;&gt;34048464 -->
<g id="edge45" class="edge"><title>32393504&#45;&gt;34048464</title>
<path fill="none" stroke="black" d="M2186.21,-1452.43C2116.88,-1487.92 2020.55,-1537.21 1948.6,-1574.03"/>
<polygon fill="black" stroke="black" points="1946.81,-1571.01 1939.5,-1578.69 1950,-1577.25 1946.81,-1571.01"/>
</g>
<!-- 32393504&#45;&gt;31719856 -->
<g id="edge47" class="edge"><title>32393504&#45;&gt;31719856</title>
<path fill="none" stroke="black" d="M2108.47,-1449.61C2045.13,-1465.82 1976.03,-1483.5 1925.08,-1496.53"/>
<polygon fill="black" stroke="black" points="1923.96,-1493.21 1915.14,-1499.08 1925.69,-1499.99 1923.96,-1493.21"/>
</g>
<!-- 31607728 -->
<g id="node26" class="node"><title>31607728</title>
<ellipse fill="#8f8f8f" stroke="black" cx="2475" cy="-1277" rx="358.003" ry="26.163"/>
<text text-anchor="middle" x="2475" y="-1269.9" font-family="Times Roman,serif" font-size="24.00">request: [(31607728, 0.800000, &lt;env&gt;)]</text>
</g>
<!-- 31607728&#45;&gt;32393504 -->
<g id="edge69" class="edge"><title>31607728&#45;&gt;32393504</title>
<path fill="none" stroke="black" d="M2435.01,-1302.99C2411.87,-1318.04 2381.92,-1337.5 2354.21,-1355.51"/>
<polygon fill="black" stroke="black" points="2352.17,-1352.67 2345.69,-1361.05 2355.98,-1358.54 2352.17,-1352.67"/>
</g>
<!-- 32429680 -->
<g id="node27" class="node"><title>32429680</title>
<ellipse fill="#8f8f8f" stroke="black" cx="2078" cy="-1147" rx="154.149" ry="46.669"/>
<text text-anchor="middle" x="2078" y="-1154.4" font-family="Times Roman,serif" font-size="24.00">exp: branch_exp</text>
<text text-anchor="middle" x="2078" y="-1125.4" font-family="Times Roman,serif" font-size="24.00">value: sp:branch</text>
</g>
<!-- 32429680&#45;&gt;32393504 -->
<g id="edge49" class="edge"><title>32429680&#45;&gt;32393504</title>
<path fill="none" stroke="black" d="M2065.97,-1193.61C2058.44,-1233.94 2054.82,-1291.92 2083,-1332 2089.91,-1341.84 2098.32,-1350.38 2107.71,-1357.81"/>
<polygon fill="black" stroke="black" points="2105.68,-1360.66 2115.81,-1363.78 2109.84,-1355.03 2105.68,-1360.66"/>
</g>
<!-- 32429680&#45;&gt;31607728 -->
<g id="edge51" class="edge"><title>32429680&#45;&gt;31607728</title>
<path fill="none" stroke="black" d="M2182.57,-1181.24C2246.46,-1202.16 2327.23,-1228.61 2387.68,-1248.41"/>
<polygon fill="black" stroke="black" points="2386.61,-1251.74 2397.21,-1251.53 2388.79,-1245.09 2386.61,-1251.74"/>
</g>
<!-- 32480880&#45;&gt;32393504 -->
<g id="edge55" class="edge"><title>32480880&#45;&gt;32393504</title>
<path fill="none" stroke="black" d="M2985.74,-1192.77C2960,-1236.38 2915.03,-1300 2857,-1332 2843.46,-1339.47 2711.75,-1356.73 2577.06,-1372.82"/>
<polygon fill="black" stroke="black" points="2576.46,-1369.36 2566.94,-1374.02 2577.29,-1376.32 2576.46,-1369.36"/>
</g>
<!-- 32480880&#45;&gt;31607728 -->
<g id="edge57" class="edge"><title>32480880&#45;&gt;31607728</title>
<path fill="none" stroke="black" d="M2919.12,-1179.95C2903.82,-1184.99 2888.03,-1189.87 2873,-1194 2790.6,-1216.63 2697.13,-1236.42 2621.48,-1250.99"/>
<polygon fill="black" stroke="black" points="2620.56,-1247.6 2611.4,-1252.92 2621.88,-1254.48 2620.56,-1247.6"/>
</g>
<!-- 32517056 -->
<g id="node29" class="node"><title>32517056</title>
<ellipse fill="#8f8f8f" stroke="black" cx="2715" cy="-1147" rx="149.2" ry="46.669"/>
<text text-anchor="middle" x="2715" y="-1154.4" font-family="Times Roman,serif" font-size="24.00">exp: 0.990000</text>
<text text-anchor="middle" x="2715" y="-1125.4" font-family="Times Roman,serif" font-size="24.00">value: 0.990000</text>
</g>
<!-- 32517056&#45;&gt;32393504 -->
<g id="edge61" class="edge"><title>32517056&#45;&gt;32393504</title>
<path fill="none" stroke="black" d="M2805.27,-1184.03C2819.98,-1194.13 2833.24,-1206.66 2842,-1222 2866.24,-1264.46 2874.22,-1295.23 2842,-1332 2836.96,-1337.75 2705.26,-1355.36 2570.08,-1372.07"/>
<polygon fill="black" stroke="black" points="2569.42,-1368.62 2559.92,-1373.32 2570.28,-1375.57 2569.42,-1368.62"/>
</g>
<!-- 32517056&#45;&gt;31607728 -->
<g id="edge63" class="edge"><title>32517056&#45;&gt;31607728</title>
<path fill="none" stroke="black" d="M2640.38,-1187.42C2605.29,-1206.43 2564.12,-1228.73 2531.64,-1246.32"/>
<polygon fill="black" stroke="black" points="2529.85,-1243.31 2522.72,-1251.15 2533.18,-1249.46 2529.85,-1243.31"/>
</g>
<!-- 32568256 -->
<g id="node30" class="node"><title>32568256</title>
<ellipse fill="#8f8f8f" stroke="black" cx="2399" cy="-1147" rx="149.2" ry="46.669"/>
<text text-anchor="middle" x="2399" y="-1154.4" font-family="Times Roman,serif" font-size="24.00">exp: 0.800000</text>
<text text-anchor="middle" x="2399" y="-1125.4" font-family="Times Roman,serif" font-size="24.00">value: 0.800000</text>
</g>
<!-- 32568256&#45;&gt;32393504 -->
<g id="edge65" class="edge"><title>32568256&#45;&gt;32393504</title>
<path fill="none" stroke="black" d="M2293.09,-1179.8C2275.75,-1184.8 2257.92,-1189.71 2241,-1194 2182.45,-1208.85 2146.06,-1175.09 2108,-1222 2077.2,-1259.96 2081.44,-1290.96 2108,-1332 2114.02,-1341.3 2121.49,-1349.45 2129.9,-1356.6"/>
<polygon fill="black" stroke="black" points="2127.87,-1359.45 2137.89,-1362.89 2132.2,-1353.95 2127.87,-1359.45"/>
</g>
<!-- 32568256&#45;&gt;31607728 -->
<g id="edge67" class="edge"><title>32568256&#45;&gt;31607728</title>
<path fill="none" stroke="black" d="M2425.79,-1192.83C2435.21,-1208.94 2445.63,-1226.76 2454.45,-1241.85"/>
<polygon fill="black" stroke="black" points="2451.64,-1243.98 2459.71,-1250.85 2457.69,-1240.45 2451.64,-1243.98"/>
</g>
<!-- 32679920 -->
<g id="node31" class="node"><title>32679920</title>
<ellipse fill="#8f8f8f" stroke="black" cx="1431" cy="-1407" rx="413.157" ry="46.669"/>
<text text-anchor="middle" x="1431" y="-1414.4" font-family="Times Roman,serif" font-size="24.00">exp: (branch_exp sprinkler 0.900000 0.000010)</text>
<text text-anchor="middle" x="1431" y="-1385.4" font-family="Times Roman,serif" font-size="24.00">value: 0.000010</text>
</g>
<!-- 32679920&#45;&gt;34048464 -->
<g id="edge73" class="edge"><title>32679920&#45;&gt;34048464</title>
<path fill="none" stroke="black" d="M1518.37,-1452.57C1586.31,-1488 1680.54,-1537.14 1751.03,-1573.91"/>
<polygon fill="black" stroke="black" points="1749.46,-1577.03 1759.94,-1578.55 1752.69,-1570.83 1749.46,-1577.03"/>
</g>
<!-- 32679920&#45;&gt;31719856 -->
<g id="edge75" class="edge"><title>32679920&#45;&gt;31719856</title>
<path fill="none" stroke="black" d="M1595,-1449.77C1656.65,-1465.84 1723.78,-1483.35 1773.54,-1496.32"/>
<polygon fill="black" stroke="black" points="1772.69,-1499.72 1783.25,-1498.86 1774.46,-1492.95 1772.69,-1499.72"/>
</g>
<!-- 32642176 -->
<g id="node32" class="node"><title>32642176</title>
<ellipse fill="#8f8f8f" stroke="black" cx="1381" cy="-1277" rx="358.003" ry="26.163"/>
<text text-anchor="middle" x="1381" y="-1269.9" font-family="Times Roman,serif" font-size="24.00">request: [(32642176, 0.000010, &lt;env&gt;)]</text>
</g>
<!-- 32642176&#45;&gt;32679920 -->
<g id="edge97" class="edge"><title>32642176&#45;&gt;32679920</title>
<path fill="none" stroke="black" d="M1391,-1302.99C1396.29,-1316.75 1403,-1334.19 1409.4,-1350.85"/>
<polygon fill="black" stroke="black" points="1406.27,-1352.45 1413.13,-1360.53 1412.8,-1349.94 1406.27,-1352.45"/>
</g>
<!-- 32717664 -->
<g id="node33" class="node"><title>32717664</title>
<ellipse fill="#8f8f8f" stroke="black" cx="1162" cy="-1147" rx="154.149" ry="46.669"/>
<text text-anchor="middle" x="1162" y="-1154.4" font-family="Times Roman,serif" font-size="24.00">exp: branch_exp</text>
<text text-anchor="middle" x="1162" y="-1125.4" font-family="Times Roman,serif" font-size="24.00">value: sp:branch</text>
</g>
<!-- 32717664&#45;&gt;32679920 -->
<g id="edge77" class="edge"><title>32717664&#45;&gt;32679920</title>
<path fill="none" stroke="black" d="M1057.49,-1181.26C1040.18,-1191.62 1024.48,-1204.94 1014,-1222 988.41,-1263.66 982.639,-1294.5 1014,-1332 1029.27,-1350.26 1063.48,-1364.09 1106.07,-1374.55"/>
<polygon fill="black" stroke="black" points="1105.34,-1377.97 1115.88,-1376.86 1106.95,-1371.16 1105.34,-1377.97"/>
</g>
<!-- 32717664&#45;&gt;32642176 -->
<g id="edge79" class="edge"><title>32717664&#45;&gt;32642176</title>
<path fill="none" stroke="black" d="M1231.9,-1188.49C1263.32,-1207.14 1299.77,-1228.78 1328.77,-1246"/>
<polygon fill="black" stroke="black" points="1327.13,-1249.09 1337.51,-1251.19 1330.7,-1243.07 1327.13,-1249.09"/>
</g>
<!-- 32755408&#45;&gt;32679920 -->
<g id="edge83" class="edge"><title>32755408&#45;&gt;32679920</title>
<path fill="none" stroke="black" d="M1788.78,-1193.39C1795.45,-1234.7 1797.43,-1294.28 1765,-1332 1752.88,-1346.1 1726.73,-1357.79 1694.13,-1367.4"/>
<polygon fill="black" stroke="black" points="1692.97,-1364.09 1684.3,-1370.19 1694.87,-1370.83 1692.97,-1364.09"/>
</g>
<!-- 32755408&#45;&gt;32642176 -->
<g id="edge85" class="edge"><title>32755408&#45;&gt;32642176</title>
<path fill="none" stroke="black" d="M1685.24,-1179.13C1670.46,-1184.16 1655.32,-1189.26 1641,-1194 1584.91,-1212.57 1521.78,-1232.74 1471.78,-1248.55"/>
<polygon fill="black" stroke="black" points="1470.44,-1245.3 1461.95,-1251.65 1472.54,-1251.97 1470.44,-1245.3"/>
</g>
<!-- 32793152 -->
<g id="node35" class="node"><title>32793152</title>
<ellipse fill="#8f8f8f" stroke="black" cx="841" cy="-1147" rx="149.2" ry="46.669"/>
<text text-anchor="middle" x="841" y="-1154.4" font-family="Times Roman,serif" font-size="24.00">exp: 0.900000</text>
<text text-anchor="middle" x="841" y="-1125.4" font-family="Times Roman,serif" font-size="24.00">value: 0.900000</text>
</g>
<!-- 32793152&#45;&gt;32679920 -->
<g id="edge89" class="edge"><title>32793152&#45;&gt;32679920</title>
<path fill="none" stroke="black" d="M881.739,-1192.1C890.235,-1201.84 899.027,-1212.16 907,-1222 945.396,-1269.37 936.988,-1300.17 989,-1332 1015.45,-1348.19 1068.27,-1361.56 1128.46,-1372.31"/>
<polygon fill="black" stroke="black" points="1128.13,-1375.81 1138.58,-1374.08 1129.34,-1368.91 1128.13,-1375.81"/>
</g>
<!-- 32793152&#45;&gt;32642176 -->
<g id="edge91" class="edge"><title>32793152&#45;&gt;32642176</title>
<path fill="none" stroke="black" d="M946.932,-1179.7C964.271,-1184.71 982.092,-1189.65 999,-1194 1080.77,-1215.01 1173.27,-1235.2 1246.77,-1250.41"/>
<polygon fill="black" stroke="black" points="1246.51,-1253.93 1257.01,-1252.52 1247.92,-1247.07 1246.51,-1253.93"/>
</g>
<!-- 32830896 -->
<g id="node36" class="node"><title>32830896</title>
<ellipse fill="#8f8f8f" stroke="black" cx="1483" cy="-1147" rx="149.2" ry="46.669"/>
<text text-anchor="middle" x="1483" y="-1154.4" font-family="Times Roman,serif" font-size="24.00">exp: 0.000010</text>
<text text-anchor="middle" x="1483" y="-1125.4" font-family="Times Roman,serif" font-size="24.00">value: 0.000010</text>
</g>
<!-- 32830896&#45;&gt;32679920 -->
<g id="edge93" class="edge"><title>32830896&#45;&gt;32679920</title>
<path fill="none" stroke="black" d="M1590.38,-1179.46C1607.29,-1184.42 1624.6,-1189.42 1641,-1194 1688.34,-1207.23 1717.96,-1183.09 1748,-1222 1777.88,-1260.7 1778.33,-1293.66 1748,-1332 1737.28,-1345.56 1713.6,-1356.92 1683.76,-1366.36"/>
<polygon fill="black" stroke="black" points="1682.42,-1363.1 1673.86,-1369.35 1684.45,-1369.8 1682.42,-1363.1"/>
</g>
<!-- 32830896&#45;&gt;32642176 -->
<g id="edge95" class="edge"><title>32830896&#45;&gt;32642176</title>
<path fill="none" stroke="black" d="M1447.33,-1192.47C1434.43,-1208.9 1420.1,-1227.17 1408.06,-1242.51"/>
<polygon fill="black" stroke="black" points="1405.06,-1240.67 1401.64,-1250.7 1410.56,-1244.99 1405.06,-1240.67"/>
</g>
<!-- 32604432 -->
<g id="node40" class="node"><title>32604432</title>
<ellipse fill="#8f8f8f" stroke="black" cx="165" cy="-1277" rx="149.2" ry="46.669"/>
<text text-anchor="middle" x="165" y="-1284.4" font-family="Times Roman,serif" font-size="24.00">exp: 0.800000</text>
<text text-anchor="middle" x="165" y="-1255.4" font-family="Times Roman,serif" font-size="24.00">value: 0.800000</text>
</g>
<!-- 32604432&#45;&gt;32393504 -->
<g id="edge71" class="edge"><title>32604432&#45;&gt;32393504</title>
<path fill="none" stroke="black" d="M256.506,-1313.73C278.887,-1321.18 303.017,-1327.97 326,-1332 493.14,-1361.34 1683.66,-1349.04 1853,-1360 1896.68,-1362.83 1942.81,-1366.87 1987.89,-1371.42"/>
<polygon fill="black" stroke="black" points="1987.8,-1374.93 1998.1,-1372.46 1988.51,-1367.96 1987.8,-1374.93"/>
</g>
<!-- 32868640 -->
<g id="node42" class="node"><title>32868640</title>
<ellipse fill="#8f8f8f" stroke="black" cx="487" cy="-1277" rx="149.2" ry="46.669"/>
<text text-anchor="middle" x="487" y="-1284.4" font-family="Times Roman,serif" font-size="24.00">exp: 0.000010</text>
<text text-anchor="middle" x="487" y="-1255.4" font-family="Times Roman,serif" font-size="24.00">value: 0.000010</text>
</g>
<!-- 32868640&#45;&gt;32679920 -->
<g id="edge99" class="edge"><title>32868640&#45;&gt;32679920</title>
<path fill="none" stroke="black" d="M590.552,-1310.48C619.259,-1318.67 650.613,-1326.61 680,-1332 824.347,-1358.45 862.952,-1345.65 1009,-1360 1048.65,-1363.89 1090.36,-1368.24 1131.51,-1372.67"/>
<polygon fill="black" stroke="black" points="1131.35,-1376.17 1141.67,-1373.77 1132.1,-1369.21 1131.35,-1376.17"/>
</g>
<!-- 23709008 -->
<g id="node45" class="node"><title>23709008</title>
<ellipse fill="none" stroke="black" cx="3186" cy="-19" rx="62.9325" ry="18.3848"/>
<text text-anchor="middle" x="3186" y="-15.4" font-family="Times Roman,serif" font-size="14.00">23709008</text>
</g>
<!-- 23709008&#45;&gt;32580976 -->
<g id="edge13" class="edge"><title>23709008&#45;&gt;32580976</title>
<path fill="none" stroke="black" d="M3164.06,-36.5509C3135.69,-59.2488 3085.07,-99.7445 3044.24,-132.408"/>
<polygon fill="black" stroke="black" points="3041.84,-129.848 3036.21,-138.829 3046.21,-135.315 3041.84,-129.848"/>
</g>
<!-- 23709008&#45;&gt;33355904 -->
<g id="edge109" class="edge"><title>23709008&#45;&gt;33355904</title>
<path fill="none" stroke="black" d="M3186,-37.5369C3186,-81.6347 3186,-196.26 3186,-292 3186,-292 3186,-292 3186,-556 3186,-631.838 3119.22,-690.623 3059.75,-727.936"/>
<polygon fill="black" stroke="black" points="3057.73,-725.07 3051.04,-733.285 3061.39,-731.035 3057.73,-725.07"/>
</g>
<!-- 23709008&#45;&gt;31836512 -->
<g id="edge27" class="edge"><title>23709008&#45;&gt;31836512</title>
<path fill="none" stroke="black" d="M3196.75,-37.4977C3198.02,-40.2779 3199.16,-43.1647 3200,-46 3231.18,-151.334 3224,-182.148 3224,-292 3224,-292 3224,-292 3224,-1407 3224,-1489.22 3146.47,-1547.05 3076.9,-1582.39"/>
<polygon fill="black" stroke="black" points="3074.99,-1579.43 3067.59,-1587.01 3078.1,-1585.7 3074.99,-1579.43"/>
</g>
<!-- 29408608 -->
<g id="node58" class="node"><title>29408608</title>
<ellipse fill="none" stroke="black" cx="605" cy="-401" rx="62.9325" ry="18.3848"/>
<text text-anchor="middle" x="605" y="-397.4" font-family="Times Roman,serif" font-size="14.00">29408608</text>
</g>
<!-- 29408608&#45;&gt;31900816 -->
<g id="edge119" class="edge"><title>29408608&#45;&gt;31900816</title>
<path fill="none" stroke="black" d="M668.204,-402.069C924.004,-406.638 1874.99,-426.042 2004,-464 2035.87,-473.378 2068.1,-490.467 2095.06,-507.395"/>
<polygon fill="black" stroke="black" points="2093.31,-510.431 2103.62,-512.875 2097.08,-504.536 2093.31,-510.431"/>
</g>
<!-- 29408608&#45;&gt;31883376 -->
<g id="edge37" class="edge"><title>29408608&#45;&gt;31883376</title>
<path fill="none" stroke="black" d="M612.117,-419.567C627.809,-462.232 664,-570.837 664,-665 664,-665 664,-665 664,-1147 664,-1231.81 729.802,-1308.63 782.273,-1356.41"/>
<polygon fill="black" stroke="black" points="780.124,-1359.18 789.909,-1363.25 784.793,-1353.97 780.124,-1359.18"/>
</g>
<!-- 29408608&#45;&gt;32429680 -->
<g id="edge53" class="edge"><title>29408608&#45;&gt;32429680</title>
<path fill="none" stroke="black" d="M665.831,-406.185C863.495,-424.688 1475,-495.615 1475,-665 1475,-665 1475,-665 1475,-883 1475,-1092.97 1725.32,-964.951 1915,-1055 1943.35,-1068.46 1973.51,-1084.86 2000.08,-1100.06"/>
<polygon fill="black" stroke="black" points="1998.53,-1103.21 2008.94,-1105.17 2002.02,-1097.14 1998.53,-1103.21"/>
</g>
<!-- 29408608&#45;&gt;32717664 -->
<g id="edge81" class="edge"><title>29408608&#45;&gt;32717664</title>
<path fill="none" stroke="black" d="M650.125,-414.03C739.829,-443.012 932,-521.81 932,-665 932,-665 932,-665 932,-883 932,-977 1015.92,-1053.77 1082.38,-1099.82"/>
<polygon fill="black" stroke="black" points="1080.57,-1102.82 1090.8,-1105.56 1084.51,-1097.04 1080.57,-1102.82"/>
</g>
</g>
</svg>
