<?xml version="1.0" encoding="UTF-8" standalone="no"?>
<!DOCTYPE svg PUBLIC "-//W3C//DTD SVG 1.1//EN"
 "http://www.w3.org/Graphics/SVG/1.1/DTD/svg11.dtd">
<!-- Generated by graphviz version 2.26.3 (20100126.1600)
 -->
<!-- Title: _anonymous_0 Pages: 1 -->
<svg width="595pt" height="692pt"
 viewBox="0.00 0.00 595.00 692.00" xmlns="http://www.w3.org/2000/svg" xmlns:xlink="http://www.w3.org/1999/xlink">
<g id="graph1" class="graph" transform="scale(1 1) rotate(0) translate(4 688)">
<title>_anonymous_0</title>
<polygon fill="white" stroke="white" points="-4,5 -4,-688 592,-688 592,5 -4,5"/>
<!-- 21600256 -->
<g id="node3" class="node"><title>21600256</title>
<ellipse fill="firebrick" stroke="black" cx="372" cy="-162" rx="27" ry="18"/>
</g>
<!-- 25014224 -->
<g id="node11" class="node"><title>25014224</title>
<ellipse fill="gold" stroke="black" cx="309" cy="-234" rx="27" ry="18"/>
</g>
<!-- 21600256&#45;&gt;25014224 -->
<g id="edge19" class="edge"><title>21600256&#45;&gt;25014224</title>
<path fill="none" stroke="black" d="M358.33,-177.623C349.827,-187.341 338.739,-200.013 329.229,-210.881"/>
<polygon fill="black" stroke="black" points="326.594,-208.577 322.643,-218.408 331.862,-213.187 326.594,-208.577"/>
</g>
<!-- 21574256 -->
<g id="node31" class="node"><title>21574256</title>
<ellipse fill="gold" stroke="black" cx="560" cy="-450" rx="27" ry="18"/>
</g>
<!-- 21600256&#45;&gt;21574256 -->
<g id="edge45" class="edge"><title>21600256&#45;&gt;21574256</title>
<path fill="none" stroke="black" d="M386.022,-177.578C395.238,-188.111 407.334,-202.508 417,-216 468.921,-288.476 521.398,-380.128 545.836,-424.122"/>
<polygon fill="black" stroke="black" points="542.849,-425.953 550.752,-433.011 548.975,-422.566 542.849,-425.953"/>
</g>
<!-- 28719440 -->
<g id="node4" class="node"><title>28719440</title>
<ellipse fill="#999999" stroke="black" cx="372" cy="-90" rx="27" ry="18"/>
</g>
<!-- 28719440&#45;&gt;21600256 -->
<g id="edge35" class="edge"><title>28719440&#45;&gt;21600256</title>
<path fill="none" stroke="black" d="M372,-108.169C372,-115.869 372,-125.026 372,-133.583"/>
<polygon fill="black" stroke="black" points="368.5,-133.587 372,-143.587 375.5,-133.587 368.5,-133.587"/>
</g>
<!-- 21616208 -->
<g id="node5" class="node"><title>21616208</title>
<ellipse fill="#999999" stroke="black" cx="336" cy="-18" rx="27" ry="18"/>
</g>
<!-- 21616208&#45;&gt;21600256 -->
<g id="edge27" class="edge"><title>21616208&#45;&gt;21600256</title>
<path fill="none" stroke="black" d="M332.988,-36.0363C330.59,-54.5334 328.71,-83.9232 336,-108 339.266,-118.787 345.476,-129.389 351.831,-138.304"/>
<polygon fill="black" stroke="black" points="349.049,-140.427 357.877,-146.284 354.628,-136.2 349.049,-140.427"/>
</g>
<!-- 21616208&#45;&gt;28719440 -->
<g id="edge29" class="edge"><title>21616208&#45;&gt;28719440</title>
<path fill="none" stroke="black" d="M344.715,-35.4292C348.96,-43.9193 354.154,-54.3071 358.866,-63.7326"/>
<polygon fill="black" stroke="black" points="355.763,-65.3523 363.366,-72.7313 362.024,-62.2218 355.763,-65.3523"/>
</g>
<!-- 19076864 -->
<g id="node6" class="node"><title>19076864</title>
<ellipse fill="#999999" stroke="black" cx="417" cy="-18" rx="27" ry="18"/>
</g>
<!-- 19076864&#45;&gt;21600256 -->
<g id="edge31" class="edge"><title>19076864&#45;&gt;21600256</title>
<path fill="none" stroke="black" d="M417.723,-36.1499C417.885,-54.7374 416.522,-84.1981 408,-108 404.24,-118.502 398.004,-128.957 391.77,-137.831"/>
<polygon fill="black" stroke="black" points="388.768,-136.002 385.628,-146.121 394.393,-140.169 388.768,-136.002"/>
</g>
<!-- 19076864&#45;&gt;28719440 -->
<g id="edge33" class="edge"><title>19076864&#45;&gt;28719440</title>
<path fill="none" stroke="black" d="M406.563,-34.6992C401.077,-43.4776 394.231,-54.4297 388.084,-64.2661"/>
<polygon fill="black" stroke="black" points="385.025,-62.5564 382.693,-72.8914 390.961,-66.2664 385.025,-62.5564"/>
</g>
<!-- 20391696 -->
<g id="node8" class="node"><title>20391696</title>
<ellipse fill="gold" stroke="black" cx="288" cy="-378" rx="27" ry="18"/>
</g>
<!-- 24988336 -->
<g id="node14" class="node"><title>24988336</title>
<ellipse fill="gold" stroke="black" cx="247" cy="-450" rx="27" ry="18"/>
</g>
<!-- 20391696&#45;&gt;24988336 -->
<g id="edge87" class="edge"><title>20391696&#45;&gt;24988336</title>
<path fill="none" stroke="black" d="M278.284,-395.063C273.331,-403.761 267.204,-414.52 261.689,-424.205"/>
<polygon fill="black" stroke="black" points="258.554,-422.638 256.647,-433.059 264.637,-426.102 258.554,-422.638"/>
</g>
<!-- 23610064 -->
<g id="node9" class="node"><title>23610064</title>
<ellipse fill="#63b8ff" stroke="black" cx="288" cy="-306" rx="27" ry="18"/>
</g>
<!-- 23610064&#45;&gt;20391696 -->
<g id="edge25" class="edge"><title>23610064&#45;&gt;20391696</title>
<path fill="none" stroke="black" d="M288,-324.169C288,-331.869 288,-341.026 288,-349.583"/>
<polygon fill="black" stroke="black" points="284.5,-349.587 288,-359.587 291.5,-349.587 284.5,-349.587"/>
</g>
<!-- 22059072 -->
<g id="node10" class="node"><title>22059072</title>
<ellipse fill="#999999" stroke="black" cx="235" cy="-234" rx="27" ry="18"/>
</g>
<!-- 22059072&#45;&gt;20391696 -->
<g id="edge11" class="edge"><title>22059072&#45;&gt;20391696</title>
<path fill="none" stroke="black" d="M236.291,-252.19C238.099,-270.81 242.33,-300.296 252,-324 256.213,-334.328 262.552,-344.744 268.742,-353.635"/>
<polygon fill="black" stroke="black" points="266.084,-355.931 274.798,-361.958 271.744,-351.813 266.084,-355.931"/>
</g>
<!-- 22059072&#45;&gt;23610064 -->
<g id="edge13" class="edge"><title>22059072&#45;&gt;23610064</title>
<path fill="none" stroke="black" d="M247.027,-250.338C253.803,-259.544 262.401,-271.224 269.969,-281.505"/>
<polygon fill="black" stroke="black" points="267.274,-283.748 276.021,-289.727 272.912,-279.598 267.274,-283.748"/>
</g>
<!-- 25014224&#45;&gt;20391696 -->
<g id="edge15" class="edge"><title>25014224&#45;&gt;20391696</title>
<path fill="none" stroke="black" d="M316.59,-251.558C323.454,-269.923 331.436,-299.439 324,-324 320.734,-334.787 314.524,-345.389 308.169,-354.304"/>
<polygon fill="black" stroke="black" points="305.372,-352.2 302.123,-362.284 310.951,-356.427 305.372,-352.2"/>
</g>
<!-- 25014224&#45;&gt;23610064 -->
<g id="edge17" class="edge"><title>25014224&#45;&gt;23610064</title>
<path fill="none" stroke="black" d="M303.809,-251.798C301.462,-259.846 298.634,-269.541 296.023,-278.493"/>
<polygon fill="black" stroke="black" points="292.644,-277.577 293.204,-288.157 299.364,-279.537 292.644,-277.577"/>
</g>
<!-- 24940288 -->
<g id="node12" class="node"><title>24940288</title>
<ellipse fill="#999999" stroke="black" cx="381" cy="-234" rx="27" ry="18"/>
</g>
<!-- 24940288&#45;&gt;20391696 -->
<g id="edge21" class="edge"><title>24940288&#45;&gt;20391696</title>
<path fill="none" stroke="black" d="M374.652,-251.799C367.502,-270.622 354.794,-300.752 339,-324 331.109,-335.615 320.704,-347.119 311.351,-356.505"/>
<polygon fill="black" stroke="black" points="308.855,-354.05 304.144,-363.54 313.745,-359.06 308.855,-354.05"/>
</g>
<!-- 24940288&#45;&gt;23610064 -->
<g id="edge23" class="edge"><title>24940288&#45;&gt;23610064</title>
<path fill="none" stroke="black" d="M363.069,-247.882C349.174,-258.64 329.722,-273.699 314.101,-285.793"/>
<polygon fill="black" stroke="black" points="311.641,-283.271 305.876,-292.16 315.926,-288.806 311.641,-283.271"/>
</g>
<!-- 24181936 -->
<g id="node18" class="node"><title>24181936</title>
<ellipse fill="gold" stroke="black" cx="82" cy="-522" rx="27" ry="18"/>
</g>
<!-- 24988336&#45;&gt;24181936 -->
<g id="edge65" class="edge"><title>24988336&#45;&gt;24181936</title>
<path fill="none" stroke="black" d="M224.403,-459.86C195.928,-472.286 146.796,-493.725 114.347,-507.885"/>
<polygon fill="black" stroke="black" points="112.619,-504.82 104.853,-512.028 115.418,-511.236 112.619,-504.82"/>
</g>
<!-- 23710592 -->
<g id="node22" class="node"><title>23710592</title>
<ellipse fill="gold" stroke="black" cx="175" cy="-522" rx="27" ry="18"/>
</g>
<!-- 24988336&#45;&gt;23710592 -->
<g id="edge75" class="edge"><title>24988336&#45;&gt;23710592</title>
<path fill="none" stroke="black" d="M231.731,-465.269C221.803,-475.197 208.685,-488.315 197.564,-499.436"/>
<polygon fill="black" stroke="black" points="194.844,-497.207 190.247,-506.753 199.793,-502.156 194.844,-497.207"/>
</g>
<!-- 21571136 -->
<g id="node26" class="node"><title>21571136</title>
<ellipse fill="gold" stroke="black" cx="247" cy="-522" rx="27" ry="18"/>
</g>
<!-- 24988336&#45;&gt;21571136 -->
<g id="edge83" class="edge"><title>24988336&#45;&gt;21571136</title>
<path fill="none" stroke="black" d="M247,-468.169C247,-475.869 247,-485.026 247,-493.583"/>
<polygon fill="black" stroke="black" points="243.5,-493.587 247,-503.587 250.5,-493.587 243.5,-493.587"/>
</g>
<!-- 23285904 -->
<g id="node35" class="node"><title>23285904</title>
<ellipse fill="darkseagreen" stroke="black" cx="319" cy="-522" rx="27" ry="18"/>
</g>
<!-- 24988336&#45;&gt;23285904 -->
<g id="edge69" class="edge"><title>24988336&#45;&gt;23285904</title>
<path fill="none" stroke="black" d="M262.269,-465.269C272.197,-475.197 285.315,-488.315 296.436,-499.436"/>
<polygon fill="black" stroke="black" points="294.207,-502.156 303.753,-506.753 299.156,-497.207 294.207,-502.156"/>
</g>
<!-- 23051008 -->
<g id="node16" class="node"><title>23051008</title>
<ellipse fill="gold" stroke="black" cx="64" cy="-666" rx="27" ry="18"/>
</g>
<!-- 24625888 -->
<g id="node17" class="node"><title>24625888</title>
<ellipse fill="gold" stroke="black" cx="27" cy="-594" rx="27" ry="18"/>
</g>
<!-- 24625888&#45;&gt;23051008 -->
<g id="edge67" class="edge"><title>24625888&#45;&gt;23051008</title>
<path fill="none" stroke="black" d="M35.7685,-611.063C40.1279,-619.546 45.4953,-629.991 50.3753,-639.487"/>
<polygon fill="black" stroke="black" points="47.3537,-641.265 55.0374,-648.559 53.5797,-638.065 47.3537,-641.265"/>
</g>
<!-- 24181936&#45;&gt;23051008 -->
<g id="edge61" class="edge"><title>24181936&#45;&gt;23051008</title>
<path fill="none" stroke="black" d="M79.7567,-539.947C76.6847,-564.523 71.1376,-608.899 67.5122,-637.903"/>
<polygon fill="black" stroke="black" points="64.0391,-637.47 66.2716,-647.827 70.985,-638.339 64.0391,-637.47"/>
</g>
<!-- 24181936&#45;&gt;24625888 -->
<g id="edge63" class="edge"><title>24181936&#45;&gt;24625888</title>
<path fill="none" stroke="black" d="M69.5196,-538.338C62.4876,-547.544 53.5653,-559.224 45.7117,-569.505"/>
<polygon fill="black" stroke="black" points="42.72,-567.655 39.431,-577.727 48.2828,-571.905 42.72,-567.655"/>
</g>
<!-- 23304768 -->
<g id="node20" class="node"><title>23304768</title>
<ellipse fill="gold" stroke="black" cx="155" cy="-666" rx="27" ry="18"/>
</g>
<!-- 22582864 -->
<g id="node21" class="node"><title>22582864</title>
<ellipse fill="gold" stroke="black" cx="137" cy="-594" rx="27" ry="18"/>
</g>
<!-- 22582864&#45;&gt;23304768 -->
<g id="edge77" class="edge"><title>22582864&#45;&gt;23304768</title>
<path fill="none" stroke="black" d="M141.449,-611.798C143.44,-619.759 145.833,-629.333 148.051,-638.204"/>
<polygon fill="black" stroke="black" points="144.718,-639.305 150.539,-648.157 151.509,-637.607 144.718,-639.305"/>
</g>
<!-- 23710592&#45;&gt;23304768 -->
<g id="edge71" class="edge"><title>23710592&#45;&gt;23304768</title>
<path fill="none" stroke="black" d="M176.173,-540.083C176.991,-558.366 177.28,-587.363 173,-612 171.444,-620.957 168.682,-630.451 165.781,-638.938"/>
<polygon fill="black" stroke="black" points="162.488,-637.753 162.376,-648.347 169.07,-640.135 162.488,-637.753"/>
</g>
<!-- 23710592&#45;&gt;22582864 -->
<g id="edge73" class="edge"><title>23710592&#45;&gt;22582864</title>
<path fill="none" stroke="black" d="M165.995,-539.063C161.517,-547.546 156.005,-557.991 150.993,-567.487"/>
<polygon fill="black" stroke="black" points="147.777,-566.082 146.205,-576.559 153.968,-569.349 147.777,-566.082"/>
</g>
<!-- 24939776 -->
<g id="node24" class="node"><title>24939776</title>
<ellipse fill="gold" stroke="black" cx="274" cy="-666" rx="27" ry="18"/>
</g>
<!-- 22579328 -->
<g id="node25" class="node"><title>22579328</title>
<ellipse fill="gold" stroke="black" cx="247" cy="-594" rx="27" ry="18"/>
</g>
<!-- 22579328&#45;&gt;24939776 -->
<g id="edge85" class="edge"><title>22579328&#45;&gt;24939776</title>
<path fill="none" stroke="black" d="M253.674,-611.798C256.748,-619.994 260.462,-629.898 263.87,-638.985"/>
<polygon fill="black" stroke="black" points="260.614,-640.273 267.403,-648.407 267.168,-637.815 260.614,-640.273"/>
</g>
<!-- 21571136&#45;&gt;24939776 -->
<g id="edge79" class="edge"><title>21571136&#45;&gt;24939776</title>
<path fill="none" stroke="black" d="M261.123,-537.716C269.253,-547.853 278.69,-561.765 283,-576 289.162,-596.353 286.287,-620.358 282.21,-638.455"/>
<polygon fill="black" stroke="black" points="278.765,-637.805 279.731,-648.356 285.555,-639.506 278.765,-637.805"/>
</g>
<!-- 21571136&#45;&gt;22579328 -->
<g id="edge81" class="edge"><title>21571136&#45;&gt;22579328</title>
<path fill="none" stroke="black" d="M247,-540.169C247,-547.869 247,-557.026 247,-565.583"/>
<polygon fill="black" stroke="black" points="243.5,-565.587 247,-575.587 250.5,-565.587 243.5,-565.587"/>
</g>
<!-- 21801008 -->
<g id="node28" class="node"><title>21801008</title>
<ellipse fill="gold" stroke="black" cx="439" cy="-594" rx="27" ry="18"/>
</g>
<!-- 21608528 -->
<g id="node29" class="node"><title>21608528</title>
<ellipse fill="gold" stroke="black" cx="467" cy="-522" rx="27" ry="18"/>
</g>
<!-- 21608528&#45;&gt;21801008 -->
<g id="edge55" class="edge"><title>21608528&#45;&gt;21801008</title>
<path fill="none" stroke="black" d="M460.222,-539.429C457.013,-547.681 453.106,-557.726 449.524,-566.938"/>
<polygon fill="black" stroke="black" points="446.175,-565.893 445.813,-576.482 452.699,-568.43 446.175,-565.893"/>
</g>
<!-- 21608528&#45;&gt;23285904 -->
<g id="edge59" class="edge"><title>21608528&#45;&gt;23285904</title>
<path fill="none" stroke="black" stroke-dasharray="1,5" d="M439.625,-522C411.881,-522 384.137,-522 356.393,-522"/>
<polygon fill="black" stroke="black" points="356.172,-518.5 346.172,-522 356.172,-525.5 356.172,-518.5"/>
</g>
<!-- 23627488 -->
<g id="node30" class="node"><title>23627488</title>
<ellipse fill="#999999" stroke="black" cx="488" cy="-450" rx="27" ry="18"/>
</g>
<!-- 23627488&#45;&gt;21801008 -->
<g id="edge37" class="edge"><title>23627488&#45;&gt;21801008</title>
<path fill="none" stroke="black" d="M496.661,-467.388C504.712,-486.131 513.947,-516.441 503,-540 495.814,-555.466 481.776,-568.096 468.674,-577.242"/>
<polygon fill="black" stroke="black" points="466.725,-574.335 460.28,-582.744 470.562,-580.189 466.725,-574.335"/>
</g>
<!-- 23627488&#45;&gt;21608528 -->
<g id="edge39" class="edge"><title>23627488&#45;&gt;21608528</title>
<path fill="none" stroke="black" d="M482.809,-467.798C480.462,-475.846 477.634,-485.541 475.023,-494.493"/>
<polygon fill="black" stroke="black" points="471.644,-493.577 472.204,-504.157 478.364,-495.537 471.644,-493.577"/>
</g>
<!-- 21574256&#45;&gt;21801008 -->
<g id="edge41" class="edge"><title>21574256&#45;&gt;21801008</title>
<path fill="none" stroke="black" d="M555.078,-467.833C549.042,-487.237 537.3,-518.373 519,-540 505.609,-555.826 486.476,-568.967 470.28,-578.323"/>
<polygon fill="black" stroke="black" points="468.197,-575.475 461.148,-583.385 471.591,-581.598 468.197,-575.475"/>
</g>
<!-- 21574256&#45;&gt;21608528 -->
<g id="edge43" class="edge"><title>21574256&#45;&gt;21608528</title>
<path fill="none" stroke="black" d="M542.069,-463.882C528.174,-474.64 508.722,-489.699 493.101,-501.793"/>
<polygon fill="black" stroke="black" points="490.641,-499.271 484.876,-508.16 494.926,-504.806 490.641,-499.271"/>
</g>
<!-- 21564608 -->
<g id="node32" class="node"><title>21564608</title>
<ellipse fill="#999999" stroke="black" cx="344" cy="-450" rx="27" ry="18"/>
</g>
<!-- 21564608&#45;&gt;21801008 -->
<g id="edge47" class="edge"><title>21564608&#45;&gt;21801008</title>
<path fill="none" stroke="black" d="M354.898,-466.519C371.417,-491.558 402.921,-539.312 422.331,-568.733"/>
<polygon fill="black" stroke="black" points="419.508,-570.811 427.937,-577.23 425.351,-566.956 419.508,-570.811"/>
</g>
<!-- 21564608&#45;&gt;21608528 -->
<g id="edge49" class="edge"><title>21564608&#45;&gt;21608528</title>
<path fill="none" stroke="black" d="M364.311,-461.889C384.341,-473.614 415.16,-491.654 437.811,-504.914"/>
<polygon fill="black" stroke="black" points="436.261,-508.062 446.659,-510.093 439.797,-502.021 436.261,-508.062"/>
</g>
<!-- 22672608 -->
<g id="node33" class="node"><title>22672608</title>
<ellipse fill="#999999" stroke="black" cx="416" cy="-450" rx="27" ry="18"/>
</g>
<!-- 22672608&#45;&gt;21801008 -->
<g id="edge51" class="edge"><title>22672608&#45;&gt;21801008</title>
<path fill="none" stroke="black" d="M418.866,-467.947C422.792,-492.523 429.88,-536.899 434.512,-565.903"/>
<polygon fill="black" stroke="black" points="431.064,-566.505 436.097,-575.827 437.976,-565.4 431.064,-566.505"/>
</g>
<!-- 22672608&#45;&gt;21608528 -->
<g id="edge53" class="edge"><title>22672608&#45;&gt;21608528</title>
<path fill="none" stroke="black" d="M427.573,-466.338C433.937,-475.323 441.972,-486.666 449.124,-496.764"/>
<polygon fill="black" stroke="black" points="446.483,-499.09 455.119,-505.227 452.195,-495.044 446.483,-499.09"/>
</g>
<!-- 23285904&#45;&gt;21801008 -->
<g id="edge57" class="edge"><title>23285904&#45;&gt;21801008</title>
<path fill="none" stroke="black" d="M339.085,-534.051C358.554,-545.733 388.285,-563.571 410.256,-576.754"/>
<polygon fill="black" stroke="black" points="408.473,-579.766 418.849,-581.91 412.075,-573.763 408.473,-579.766"/>
</g>
</g>
</svg>
