<?xml version="1.0" encoding="UTF-8" standalone="no"?>
<!DOCTYPE svg PUBLIC "-//W3C//DTD SVG 1.1//EN"
 "http://www.w3.org/Graphics/SVG/1.1/DTD/svg11.dtd">
<!-- Generated by graphviz version 2.26.3 (20100126.1600)
 -->
<!-- Title: _anonymous_0 Pages: 1 -->
<svg width="3034pt" height="1381pt"
 viewBox="0.00 0.00 3034.00 1381.00" xmlns="http://www.w3.org/2000/svg" xmlns:xlink="http://www.w3.org/1999/xlink">
<g id="graph1" class="graph" transform="scale(1 1) rotate(0) translate(4 1377)">
<title>_anonymous_0</title>
<polygon fill="white" stroke="white" points="-4,5 -4,-1377 3031,-1377 3031,5 -4,5"/>
<g id="graph2" class="cluster"><title>cluster1</title>
<polygon fill="none" stroke="black" points="134,-46 134,-1365 2578,-1365 2578,-46 134,-46"/>
<text text-anchor="middle" x="1356" y="-57.4" font-family="Times Roman,serif" font-size="24.00">Venture Families</text>
</g>
<g id="graph3" class="cluster"><title>cluster2</title>
<polygon fill="none" stroke="black" points="1262,-91 1262,-456 1944,-456 1944,-91 1262,-91"/>
<text text-anchor="middle" x="1603" y="-102.4" font-family="Times Roman,serif" font-size="24.00">1</text>
</g>
<g id="graph4" class="cluster"><title>cluster3</title>
<polygon fill="none" stroke="black" points="142,-464 142,-829 1340,-829 1340,-464 142,-464"/>
<text text-anchor="middle" x="741" y="-475.4" font-family="Times Roman,serif" font-size="24.00">2</text>
</g>
<g id="graph5" class="cluster"><title>cluster4</title>
<polygon fill="none" stroke="black" points="1165,-837 1165,-984 1597,-984 1597,-837 1165,-837"/>
<text text-anchor="middle" x="1381" y="-848.4" font-family="Times Roman,serif" font-size="24.00">3</text>
</g>
<g id="graph6" class="cluster"><title>cluster5</title>
<polygon fill="none" stroke="black" points="725,-992 725,-1357 1157,-1357 1157,-992 725,-992"/>
<text text-anchor="middle" x="941" y="-1003.4" font-family="Times Roman,serif" font-size="24.00">4</text>
</g>
<g id="graph7" class="cluster"><title>cluster6</title>
<polygon fill="none" stroke="black" points="1165,-992 1165,-1357 1597,-1357 1597,-992 1165,-992"/>
<text text-anchor="middle" x="1381" y="-1003.4" font-family="Times Roman,serif" font-size="24.00">5</text>
</g>
<g id="graph8" class="cluster"><title>cluster7</title>
<polygon fill="none" stroke="black" points="1605,-992 1605,-1357 2037,-1357 2037,-992 1605,-992"/>
<text text-anchor="middle" x="1821" y="-1003.4" font-family="Times Roman,serif" font-size="24.00">6</text>
</g>
<g id="graph9" class="cluster"><title>cluster8</title>
<polygon fill="none" stroke="black" points="1348,-464 1348,-829 2570,-829 2570,-464 1348,-464"/>
<text text-anchor="middle" x="1959" y="-475.4" font-family="Times Roman,serif" font-size="24.00">7</text>
</g>
<g id="graph10" class="cluster"><title>cluster9</title>
<polygon fill="none" stroke="black" points="2586,-1029 2586,-1139 3018,-1139 3018,-1029 2586,-1029"/>
</g>
<!-- 21600256 -->
<g id="node3" class="node"><title>21600256</title>
<ellipse fill="firebrick" stroke="black" cx="1624" cy="-401" rx="241.123" ry="46.669"/>
<text text-anchor="middle" x="1624" y="-408.4" font-family="Times Roman,serif" font-size="24.00">exp: (snormal 100.000000)</text>
<text text-anchor="middle" x="1624" y="-379.4" font-family="Times Roman,serif" font-size="24.00">value: 99.149830</text>
</g>
<!-- 25014224 -->
<g id="node11" class="node"><title>25014224</title>
<ellipse fill="gold" stroke="black" cx="1172" cy="-556" rx="159.806" ry="46.669"/>
<text text-anchor="middle" x="1172" y="-563.4" font-family="Times Roman,serif" font-size="24.00">exp: alpha</text>
<text text-anchor="middle" x="1172" y="-534.4" font-family="Times Roman,serif" font-size="24.00">value: 99.149830</text>
</g>
<!-- 21600256&#45;&gt;25014224 -->
<g id="edge21" class="edge"><title>21600256&#45;&gt;25014224</title>
<path fill="none" stroke="black" d="M1466.75,-436.27C1403.41,-450.496 1344.85,-463.682 1344,-464 1311.93,-475.934 1278.38,-492.78 1249.51,-508.802"/>
<polygon fill="black" stroke="black" points="1247.72,-505.795 1240.71,-513.741 1251.15,-511.899 1247.72,-505.795"/>
</g>
<!-- 21574256 -->
<g id="node31" class="node"><title>21574256</title>
<ellipse fill="gold" stroke="black" cx="2076" cy="-556" rx="159.806" ry="46.669"/>
<text text-anchor="middle" x="2076" y="-563.4" font-family="Times Roman,serif" font-size="24.00">exp: alpha</text>
<text text-anchor="middle" x="2076" y="-534.4" font-family="Times Roman,serif" font-size="24.00">value: 99.149830</text>
</g>
<!-- 21600256&#45;&gt;21574256 -->
<g id="edge51" class="edge"><title>21600256&#45;&gt;21574256</title>
<path fill="none" stroke="black" d="M1780.44,-436.446C1809.85,-443.017 1840.35,-449.769 1869,-456 1885.86,-459.668 1890.81,-458.033 1907,-464 1938.68,-475.672 1971.68,-492.466 2000.03,-508.519"/>
<polygon fill="black" stroke="black" points="1998.65,-511.76 2009.06,-513.698 2002.13,-505.688 1998.65,-511.76"/>
</g>
<!-- 28719440 -->
<g id="node4" class="node"><title>28719440</title>
<ellipse fill="#999999" stroke="black" cx="1624" cy="-292" rx="99.9096" ry="26.163"/>
<text text-anchor="middle" x="1624" y="-284.9" font-family="Times Roman,serif" font-size="24.00">request: []</text>
</g>
<!-- 28719440&#45;&gt;21600256 -->
<g id="edge39" class="edge"><title>28719440&#45;&gt;21600256</title>
<path fill="none" stroke="black" d="M1624,-318.108C1624,-325.979 1624,-334.946 1624,-344.005"/>
<polygon fill="black" stroke="black" points="1620.5,-344.218 1624,-354.218 1627.5,-344.218 1620.5,-344.218"/>
</g>
<!-- 21616208 -->
<g id="node5" class="node"><title>21616208</title>
<ellipse fill="#999999" stroke="black" cx="1782" cy="-183" rx="154.149" ry="46.669"/>
<text text-anchor="middle" x="1782" y="-190.4" font-family="Times Roman,serif" font-size="24.00">exp: snormal</text>
<text text-anchor="middle" x="1782" y="-161.4" font-family="Times Roman,serif" font-size="24.00">value: sp:normal</text>
</g>
<!-- 21616208&#45;&gt;21600256 -->
<g id="edge29" class="edge"><title>21616208&#45;&gt;21600256</title>
<path fill="none" stroke="black" d="M1772.12,-229.623C1764.63,-257.217 1752.28,-291.787 1733,-318 1724.47,-329.599 1713.88,-340.353 1702.68,-350.014"/>
<polygon fill="black" stroke="black" points="1700.3,-347.44 1694.85,-356.524 1704.78,-352.823 1700.3,-347.44"/>
</g>
<!-- 21616208&#45;&gt;28719440 -->
<g id="edge31" class="edge"><title>21616208&#45;&gt;28719440</title>
<path fill="none" stroke="black" d="M1720.01,-225.767C1702.65,-237.744 1684.14,-250.514 1668.05,-261.614"/>
<polygon fill="black" stroke="black" points="1665.62,-259.033 1659.38,-267.592 1669.6,-264.795 1665.62,-259.033"/>
</g>
<!-- 19076864 -->
<g id="node6" class="node"><title>19076864</title>
<ellipse fill="#999999" stroke="black" cx="1440" cy="-183" rx="169.913" ry="46.669"/>
<text text-anchor="middle" x="1440" y="-190.4" font-family="Times Roman,serif" font-size="24.00">exp: 100.000000</text>
<text text-anchor="middle" x="1440" y="-161.4" font-family="Times Roman,serif" font-size="24.00">value: 100.000000</text>
</g>
<!-- 19076864&#45;&gt;21600256 -->
<g id="edge35" class="edge"><title>19076864&#45;&gt;21600256</title>
<path fill="none" stroke="black" d="M1459.89,-229.45C1473.06,-256.982 1492.1,-291.547 1515,-318 1524.83,-329.359 1536.45,-340.165 1548.37,-350"/>
<polygon fill="black" stroke="black" points="1546.25,-352.783 1556.23,-356.319 1550.63,-347.326 1546.25,-352.783"/>
</g>
<!-- 19076864&#45;&gt;28719440 -->
<g id="edge37" class="edge"><title>19076864&#45;&gt;28719440</title>
<path fill="none" stroke="black" d="M1511.4,-225.298C1532.69,-237.909 1555.53,-251.438 1575.03,-262.993"/>
<polygon fill="black" stroke="black" points="1573.36,-266.067 1583.74,-268.153 1576.92,-260.045 1573.36,-266.067"/>
</g>
<!-- 20391696 -->
<g id="node8" class="node"><title>20391696</title>
<ellipse fill="gold" stroke="black" cx="849" cy="-774" rx="408.207" ry="46.669"/>
<text text-anchor="middle" x="849" y="-781.4" font-family="Times Roman,serif" font-size="24.00">exp: (make_sym_dir_mult_reg alpha 2.000000)</text>
<text text-anchor="middle" x="849" y="-752.4" font-family="Times Roman,serif" font-size="24.00">value: sp:sym_dir_mult</text>
</g>
<!-- 24988336 -->
<g id="node14" class="node"><title>24988336</title>
<ellipse fill="gold" stroke="black" cx="1381" cy="-929" rx="208.096" ry="46.669"/>
<text text-anchor="middle" x="1381" y="-936.4" font-family="Times Roman,serif" font-size="24.00">exp: f</text>
<text text-anchor="middle" x="1381" y="-907.4" font-family="Times Roman,serif" font-size="24.00">value: sp:sym_dir_mult</text>
</g>
<!-- 20391696&#45;&gt;24988336 -->
<g id="edge93" class="edge"><title>20391696&#45;&gt;24988336</title>
<path fill="none" stroke="black" d="M997.899,-817.382C1075.12,-839.881 1168.8,-867.174 1244.19,-889.139"/>
<polygon fill="black" stroke="black" points="1243.65,-892.627 1254.23,-892.064 1245.61,-885.907 1243.65,-892.627"/>
</g>
<!-- 23610064 -->
<g id="node9" class="node"><title>23610064</title>
<ellipse fill="#63b8ff" stroke="black" cx="730" cy="-665" rx="99.9096" ry="26.163"/>
<text text-anchor="middle" x="730" y="-657.9" font-family="Times Roman,serif" font-size="24.00">request: []</text>
</g>
<!-- 23610064&#45;&gt;20391696 -->
<g id="edge27" class="edge"><title>23610064&#45;&gt;20391696</title>
<path fill="none" stroke="black" d="M757.6,-690.281C767.513,-699.361 779.103,-709.976 790.636,-720.54"/>
<polygon fill="black" stroke="black" points="788.45,-723.284 798.188,-727.458 793.178,-718.123 788.45,-723.284"/>
</g>
<!-- 22059072 -->
<g id="node10" class="node"><title>22059072</title>
<ellipse fill="#999999" stroke="black" cx="730" cy="-556" rx="263.958" ry="46.669"/>
<text text-anchor="middle" x="730" y="-563.4" font-family="Times Roman,serif" font-size="24.00">exp: make_sym_dir_mult_reg</text>
<text text-anchor="middle" x="730" y="-534.4" font-family="Times Roman,serif" font-size="24.00">value: sp:make_sym_dir_mult</text>
</g>
<!-- 22059072&#45;&gt;20391696 -->
<g id="edge11" class="edge"><title>22059072&#45;&gt;20391696</title>
<path fill="none" stroke="black" d="M806.437,-600.598C819.315,-611.527 831.062,-624.364 839,-639 851.753,-662.513 855.143,-691.804 854.974,-717.087"/>
<polygon fill="black" stroke="black" points="851.47,-717.199 854.717,-727.284 858.468,-717.375 851.47,-717.199"/>
</g>
<!-- 22059072&#45;&gt;23610064 -->
<g id="edge13" class="edge"><title>22059072&#45;&gt;23610064</title>
<path fill="none" stroke="black" d="M730,-602.542C730,-611.249 730,-620.232 730,-628.578"/>
<polygon fill="black" stroke="black" points="726.5,-628.739 730,-638.739 733.5,-628.739 726.5,-628.739"/>
</g>
<!-- 25014224&#45;&gt;20391696 -->
<g id="edge17" class="edge"><title>25014224&#45;&gt;20391696</title>
<path fill="none" stroke="black" d="M1108.57,-598.81C1056.06,-634.252 981.281,-684.721 925.464,-722.393"/>
<polygon fill="black" stroke="black" points="923.354,-719.594 917.023,-728.09 927.27,-725.396 923.354,-719.594"/>
</g>
<!-- 25014224&#45;&gt;23610064 -->
<g id="edge19" class="edge"><title>25014224&#45;&gt;23610064</title>
<path fill="none" stroke="black" d="M1057.65,-588.6C1039.41,-593.57 1020.72,-598.527 1003,-603 941.114,-618.623 870.879,-634.533 817.147,-646.325"/>
<polygon fill="black" stroke="black" points="816.332,-642.92 807.312,-648.477 817.829,-649.758 816.332,-642.92"/>
</g>
<!-- 24940288 -->
<g id="node12" class="node"><title>24940288</title>
<ellipse fill="#999999" stroke="black" cx="299" cy="-556" rx="149.2" ry="46.669"/>
<text text-anchor="middle" x="299" y="-563.4" font-family="Times Roman,serif" font-size="24.00">exp: 2.000000</text>
<text text-anchor="middle" x="299" y="-534.4" font-family="Times Roman,serif" font-size="24.00">value: 2.000000</text>
</g>
<!-- 24940288&#45;&gt;20391696 -->
<g id="edge23" class="edge"><title>24940288&#45;&gt;20391696</title>
<path fill="none" stroke="black" d="M386.006,-593.807C450.539,-621.523 540.844,-659.628 621,-691 651.039,-702.757 683.509,-714.907 714.267,-726.163"/>
<polygon fill="black" stroke="black" points="713.159,-729.484 723.753,-729.626 715.559,-722.909 713.159,-729.484"/>
</g>
<!-- 24940288&#45;&gt;23610064 -->
<g id="edge25" class="edge"><title>24940288&#45;&gt;23610064</title>
<path fill="none" stroke="black" d="M405.394,-588.689C422.594,-593.673 440.251,-598.612 457,-603 518.523,-619.118 588.48,-634.958 642.173,-646.592"/>
<polygon fill="black" stroke="black" points="641.491,-650.026 652.004,-648.715 642.968,-643.183 641.491,-650.026"/>
</g>
<!-- 24181936 -->
<g id="node18" class="node"><title>24181936</title>
<ellipse fill="gold" stroke="black" cx="941" cy="-1084" rx="208.096" ry="46.669"/>
<text text-anchor="middle" x="941" y="-1091.4" font-family="Times Roman,serif" font-size="24.00">exp: g</text>
<text text-anchor="middle" x="941" y="-1062.4" font-family="Times Roman,serif" font-size="24.00">value: sp:sym_dir_mult</text>
</g>
<!-- 24988336&#45;&gt;24181936 -->
<g id="edge71" class="edge"><title>24988336&#45;&gt;24181936</title>
<path fill="none" stroke="black" d="M1247,-964.66C1218.42,-973.021 1188.55,-982.331 1161,-992 1122.02,-1005.68 1080,-1022.67 1043.23,-1038.32"/>
<polygon fill="black" stroke="black" points="1041.82,-1035.12 1034,-1042.27 1044.57,-1041.55 1041.82,-1035.12"/>
</g>
<!-- 23710592 -->
<g id="node22" class="node"><title>23710592</title>
<ellipse fill="gold" stroke="black" cx="1381" cy="-1084" rx="208.096" ry="46.669"/>
<text text-anchor="middle" x="1381" y="-1091.4" font-family="Times Roman,serif" font-size="24.00">exp: g</text>
<text text-anchor="middle" x="1381" y="-1062.4" font-family="Times Roman,serif" font-size="24.00">value: sp:sym_dir_mult</text>
</g>
<!-- 24988336&#45;&gt;23710592 -->
<g id="edge81" class="edge"><title>24988336&#45;&gt;23710592</title>
<path fill="none" stroke="black" d="M1381,-975.505C1381,-991.677 1381,-1010.01 1381,-1026.93"/>
<polygon fill="black" stroke="black" points="1377.5,-1027.26 1381,-1037.26 1384.5,-1027.26 1377.5,-1027.26"/>
</g>
<!-- 21571136 -->
<g id="node26" class="node"><title>21571136</title>
<ellipse fill="gold" stroke="black" cx="1821" cy="-1084" rx="208.096" ry="46.669"/>
<text text-anchor="middle" x="1821" y="-1091.4" font-family="Times Roman,serif" font-size="24.00">exp: g</text>
<text text-anchor="middle" x="1821" y="-1062.4" font-family="Times Roman,serif" font-size="24.00">value: sp:sym_dir_mult</text>
</g>
<!-- 24988336&#45;&gt;21571136 -->
<g id="edge89" class="edge"><title>24988336&#45;&gt;21571136</title>
<path fill="none" stroke="black" d="M1515,-964.66C1543.58,-973.021 1573.45,-982.331 1601,-992 1639.98,-1005.68 1682,-1022.67 1718.77,-1038.32"/>
<polygon fill="black" stroke="black" points="1717.43,-1041.55 1728,-1042.27 1720.18,-1035.12 1717.43,-1041.55"/>
</g>
<!-- 23285904 -->
<g id="node35" class="node"><title>23285904</title>
<ellipse fill="darkseagreen" stroke="black" cx="2802" cy="-1084" rx="208.096" ry="46.669"/>
<text text-anchor="middle" x="2802" y="-1091.4" font-family="Times Roman,serif" font-size="24.00">exp: g</text>
<text text-anchor="middle" x="2802" y="-1062.4" font-family="Times Roman,serif" font-size="24.00">value: sp:sym_dir_mult</text>
</g>
<!-- 24988336&#45;&gt;23285904 -->
<g id="edge75" class="edge"><title>24988336&#45;&gt;23285904</title>
<path fill="none" stroke="black" d="M1574.62,-946.191C1706.23,-958.193 1884.22,-975.043 2041,-992 2235.52,-1013.04 2457.61,-1040.26 2611.45,-1059.62"/>
<polygon fill="black" stroke="black" points="2611.12,-1063.1 2621.48,-1060.88 2612,-1056.16 2611.12,-1063.1"/>
</g>
<!-- 23051008 -->
<g id="node16" class="node"><title>23051008</title>
<ellipse fill="gold" stroke="black" cx="941" cy="-1302" rx="79.9031" ry="46.669"/>
<text text-anchor="middle" x="941" y="-1309.4" font-family="Times Roman,serif" font-size="24.00">exp: (g)</text>
<text text-anchor="middle" x="941" y="-1280.4" font-family="Times Roman,serif" font-size="24.00">value: 1</text>
</g>
<!-- 24625888 -->
<g id="node17" class="node"><title>24625888</title>
<ellipse fill="gold" stroke="black" cx="994" cy="-1193" rx="87.1802" ry="26.163"/>
<text text-anchor="middle" x="994" y="-1185.9" font-family="Times Roman,serif" font-size="24.00">request: </text>
</g>
<!-- 24625888&#45;&gt;23051008 -->
<g id="edge73" class="edge"><title>24625888&#45;&gt;23051008</title>
<path fill="none" stroke="black" d="M981.44,-1218.83C977.174,-1227.6 972.235,-1237.76 967.305,-1247.9"/>
<polygon fill="black" stroke="black" points="964.025,-1246.64 962.8,-1257.17 970.32,-1249.7 964.025,-1246.64"/>
</g>
<!-- 24181936&#45;&gt;23051008 -->
<g id="edge67" class="edge"><title>24181936&#45;&gt;23051008</title>
<path fill="none" stroke="black" d="M912.11,-1130.3C906.292,-1141.87 901.035,-1154.54 898,-1167 892.529,-1189.45 892.529,-1196.55 898,-1219 900.475,-1229.16 904.426,-1239.46 908.955,-1249.19"/>
<polygon fill="black" stroke="black" points="905.891,-1250.89 913.445,-1258.31 912.172,-1247.8 905.891,-1250.89"/>
</g>
<!-- 24181936&#45;&gt;24625888 -->
<g id="edge69" class="edge"><title>24181936&#45;&gt;24625888</title>
<path fill="none" stroke="black" d="M963.631,-1130.54C968.093,-1139.72 972.706,-1149.21 976.947,-1157.93"/>
<polygon fill="black" stroke="black" points="973.858,-1159.58 981.379,-1167.04 980.154,-1156.52 973.858,-1159.58"/>
</g>
<!-- 23304768 -->
<g id="node20" class="node"><title>23304768</title>
<ellipse fill="gold" stroke="black" cx="1381" cy="-1302" rx="79.9031" ry="46.669"/>
<text text-anchor="middle" x="1381" y="-1309.4" font-family="Times Roman,serif" font-size="24.00">exp: (g)</text>
<text text-anchor="middle" x="1381" y="-1280.4" font-family="Times Roman,serif" font-size="24.00">value: 1</text>
</g>
<!-- 22582864 -->
<g id="node21" class="node"><title>22582864</title>
<ellipse fill="gold" stroke="black" cx="1434" cy="-1193" rx="87.1802" ry="26.163"/>
<text text-anchor="middle" x="1434" y="-1185.9" font-family="Times Roman,serif" font-size="24.00">request: </text>
</g>
<!-- 22582864&#45;&gt;23304768 -->
<g id="edge83" class="edge"><title>22582864&#45;&gt;23304768</title>
<path fill="none" stroke="black" d="M1421.44,-1218.83C1417.17,-1227.6 1412.24,-1237.76 1407.31,-1247.9"/>
<polygon fill="black" stroke="black" points="1404.02,-1246.64 1402.8,-1257.17 1410.32,-1249.7 1404.02,-1246.64"/>
</g>
<!-- 23710592&#45;&gt;23304768 -->
<g id="edge77" class="edge"><title>23710592&#45;&gt;23304768</title>
<path fill="none" stroke="black" d="M1352.11,-1130.3C1346.29,-1141.87 1341.04,-1154.54 1338,-1167 1332.53,-1189.45 1332.53,-1196.55 1338,-1219 1340.47,-1229.16 1344.43,-1239.46 1348.96,-1249.19"/>
<polygon fill="black" stroke="black" points="1345.89,-1250.89 1353.44,-1258.31 1352.17,-1247.8 1345.89,-1250.89"/>
</g>
<!-- 23710592&#45;&gt;22582864 -->
<g id="edge79" class="edge"><title>23710592&#45;&gt;22582864</title>
<path fill="none" stroke="black" d="M1403.63,-1130.54C1408.09,-1139.72 1412.71,-1149.21 1416.95,-1157.93"/>
<polygon fill="black" stroke="black" points="1413.86,-1159.58 1421.38,-1167.04 1420.15,-1156.52 1413.86,-1159.58"/>
</g>
<!-- 24939776 -->
<g id="node24" class="node"><title>24939776</title>
<ellipse fill="gold" stroke="black" cx="1821" cy="-1302" rx="79.9031" ry="46.669"/>
<text text-anchor="middle" x="1821" y="-1309.4" font-family="Times Roman,serif" font-size="24.00">exp: (g)</text>
<text text-anchor="middle" x="1821" y="-1280.4" font-family="Times Roman,serif" font-size="24.00">value: 1</text>
</g>
<!-- 22579328 -->
<g id="node25" class="node"><title>22579328</title>
<ellipse fill="gold" stroke="black" cx="1874" cy="-1193" rx="87.1802" ry="26.163"/>
<text text-anchor="middle" x="1874" y="-1185.9" font-family="Times Roman,serif" font-size="24.00">request: </text>
</g>
<!-- 22579328&#45;&gt;24939776 -->
<g id="edge91" class="edge"><title>22579328&#45;&gt;24939776</title>
<path fill="none" stroke="black" d="M1861.44,-1218.83C1857.17,-1227.6 1852.24,-1237.76 1847.31,-1247.9"/>
<polygon fill="black" stroke="black" points="1844.02,-1246.64 1842.8,-1257.17 1850.32,-1249.7 1844.02,-1246.64"/>
</g>
<!-- 21571136&#45;&gt;24939776 -->
<g id="edge85" class="edge"><title>21571136&#45;&gt;24939776</title>
<path fill="none" stroke="black" d="M1792.11,-1130.3C1786.29,-1141.87 1781.04,-1154.54 1778,-1167 1772.53,-1189.45 1772.53,-1196.55 1778,-1219 1780.47,-1229.16 1784.43,-1239.46 1788.96,-1249.19"/>
<polygon fill="black" stroke="black" points="1785.89,-1250.89 1793.44,-1258.31 1792.17,-1247.8 1785.89,-1250.89"/>
</g>
<!-- 21571136&#45;&gt;22579328 -->
<g id="edge87" class="edge"><title>21571136&#45;&gt;22579328</title>
<path fill="none" stroke="black" d="M1843.63,-1130.54C1848.09,-1139.72 1852.71,-1149.21 1856.95,-1157.93"/>
<polygon fill="black" stroke="black" points="1853.86,-1159.58 1861.38,-1167.04 1860.15,-1156.52 1853.86,-1159.58"/>
</g>
<!-- 21801008 -->
<g id="node28" class="node"><title>21801008</title>
<ellipse fill="gold" stroke="black" cx="2127" cy="-774" rx="382.752" ry="46.669"/>
<text text-anchor="middle" x="2127" y="-781.4" font-family="Times Roman,serif" font-size="24.00">exp: (branch_exp alpha (quote g) (quote g))</text>
<text text-anchor="middle" x="2127" y="-752.4" font-family="Times Roman,serif" font-size="24.00">value: sp:sym_dir_mult</text>
</g>
<!-- 21608528 -->
<g id="node29" class="node"><title>21608528</title>
<ellipse fill="gold" stroke="black" cx="2076" cy="-665" rx="289.914" ry="26.163"/>
<text text-anchor="middle" x="2076" y="-657.9" font-family="Times Roman,serif" font-size="24.00">request: [(21608528, g, &lt;env&gt;)]</text>
</g>
<!-- 21608528&#45;&gt;21801008 -->
<g id="edge61" class="edge"><title>21608528&#45;&gt;21801008</title>
<path fill="none" stroke="black" d="M2088.22,-691.108C2092.02,-699.233 2096.37,-708.525 2100.74,-717.882"/>
<polygon fill="black" stroke="black" points="2097.7,-719.644 2105.11,-727.218 2104.04,-716.677 2097.7,-719.644"/>
</g>
<!-- 21608528&#45;&gt;23285904 -->
<g id="edge65" class="edge"><title>21608528&#45;&gt;23285904</title>
<path fill="none" stroke="black" stroke-dasharray="1,5" d="M2302.69,-681.246C2391.54,-690.8 2481.21,-705.375 2519,-727 2643.26,-798.113 2733.29,-947.163 2775.37,-1028.37"/>
<polygon fill="black" stroke="black" points="2772.35,-1030.14 2780.02,-1037.45 2778.58,-1026.95 2772.35,-1030.14"/>
</g>
<!-- 23627488 -->
<g id="node30" class="node"><title>23627488</title>
<ellipse fill="#999999" stroke="black" cx="2408" cy="-556" rx="154.149" ry="46.669"/>
<text text-anchor="middle" x="2408" y="-563.4" font-family="Times Roman,serif" font-size="24.00">exp: branch_exp</text>
<text text-anchor="middle" x="2408" y="-534.4" font-family="Times Roman,serif" font-size="24.00">value: sp:branch</text>
</g>
<!-- 23627488&#45;&gt;21801008 -->
<g id="edge41" class="edge"><title>23627488&#45;&gt;21801008</title>
<path fill="none" stroke="black" d="M2411.92,-602.653C2411.78,-631.301 2406.69,-666.981 2386,-691 2374.06,-704.856 2345.63,-717.927 2311.79,-729.419"/>
<polygon fill="black" stroke="black" points="2310.5,-726.157 2302.11,-732.618 2312.7,-732.803 2310.5,-726.157"/>
</g>
<!-- 23627488&#45;&gt;21608528 -->
<g id="edge43" class="edge"><title>23627488&#45;&gt;21608528</title>
<path fill="none" stroke="black" d="M2303.41,-590.339C2257.91,-605.277 2205.24,-622.569 2162.06,-636.747"/>
<polygon fill="black" stroke="black" points="2160.84,-633.463 2152.43,-639.908 2163.02,-640.114 2160.84,-633.463"/>
</g>
<!-- 21574256&#45;&gt;21801008 -->
<g id="edge47" class="edge"><title>21574256&#45;&gt;21801008</title>
<path fill="none" stroke="black" d="M2191.91,-588.252C2209.69,-593.195 2227.83,-598.236 2245,-603 2302.77,-619.032 2338.7,-591.285 2375,-639 2405.31,-678.842 2371.97,-708.38 2320.95,-729.494"/>
<polygon fill="black" stroke="black" points="2319.59,-726.269 2311.58,-733.206 2322.16,-732.777 2319.59,-726.269"/>
</g>
<!-- 21574256&#45;&gt;21608528 -->
<g id="edge49" class="edge"><title>21574256&#45;&gt;21608528</title>
<path fill="none" stroke="black" d="M2076,-602.542C2076,-611.249 2076,-620.232 2076,-628.578"/>
<polygon fill="black" stroke="black" points="2072.5,-628.739 2076,-638.739 2079.5,-628.739 2072.5,-628.739"/>
</g>
<!-- 21564608 -->
<g id="node32" class="node"><title>21564608</title>
<ellipse fill="#999999" stroke="black" cx="1767" cy="-556" rx="131.022" ry="46.669"/>
<text text-anchor="middle" x="1767" y="-563.4" font-family="Times Roman,serif" font-size="24.00">exp: (quote g)</text>
<text text-anchor="middle" x="1767" y="-534.4" font-family="Times Roman,serif" font-size="24.00">value: g</text>
</g>
<!-- 21564608&#45;&gt;21801008 -->
<g id="edge53" class="edge"><title>21564608&#45;&gt;21801008</title>
<path fill="none" stroke="black" d="M1757.73,-602.429C1754.79,-631.17 1756.57,-667.034 1777,-691 1792.43,-709.097 1829.65,-723.773 1874.34,-735.461"/>
<polygon fill="black" stroke="black" points="1873.74,-738.919 1884.3,-737.986 1875.46,-732.134 1873.74,-738.919"/>
</g>
<!-- 21564608&#45;&gt;21608528 -->
<g id="edge55" class="edge"><title>21564608&#45;&gt;21608528</title>
<path fill="none" stroke="black" d="M1860.13,-588.851C1902.99,-603.972 1953.38,-621.746 1994.69,-636.318"/>
<polygon fill="black" stroke="black" points="1993.58,-639.636 2004.17,-639.662 1995.91,-633.035 1993.58,-639.636"/>
</g>
<!-- 22672608 -->
<g id="node33" class="node"><title>22672608</title>
<ellipse fill="#999999" stroke="black" cx="1487" cy="-556" rx="131.022" ry="46.669"/>
<text text-anchor="middle" x="1487" y="-563.4" font-family="Times Roman,serif" font-size="24.00">exp: (quote g)</text>
<text text-anchor="middle" x="1487" y="-534.4" font-family="Times Roman,serif" font-size="24.00">value: g</text>
</g>
<!-- 22672608&#45;&gt;21801008 -->
<g id="edge57" class="edge"><title>22672608&#45;&gt;21801008</title>
<path fill="none" stroke="black" d="M1554.34,-595.978C1607.11,-625.828 1683.21,-665.675 1754,-691 1800.7,-707.707 1851.94,-721.734 1901.08,-733.223"/>
<polygon fill="black" stroke="black" points="1900.35,-736.645 1910.88,-735.487 1901.92,-729.825 1900.35,-736.645"/>
</g>
<!-- 22672608&#45;&gt;21608528 -->
<g id="edge59" class="edge"><title>22672608&#45;&gt;21608528</title>
<path fill="none" stroke="black" d="M1578.55,-589.448C1594.55,-594.513 1611.15,-599.28 1627,-603 1705.17,-621.35 1792.37,-634.922 1868.97,-644.61"/>
<polygon fill="black" stroke="black" points="1868.86,-648.124 1879.22,-645.891 1869.73,-641.178 1868.86,-648.124"/>
</g>
<!-- 23285904&#45;&gt;21801008 -->
<g id="edge63" class="edge"><title>23285904&#45;&gt;21801008</title>
<path fill="none" stroke="black" d="M2643.06,-1053.95C2575.51,-1037.98 2497.04,-1015.1 2430,-984 2339.89,-942.2 2247.67,-873.899 2189.02,-826.593"/>
<polygon fill="black" stroke="black" points="2190.95,-823.645 2180.98,-820.062 2186.54,-829.081 2190.95,-823.645"/>
</g>
<!-- 27207152 -->
<g id="node38" class="node"><title>27207152</title>
<ellipse fill="none" stroke="black" cx="63" cy="-401" rx="62.9325" ry="18.3848"/>
<text text-anchor="middle" x="63" y="-397.4" font-family="Times Roman,serif" font-size="14.00">27207152</text>
</g>
<!-- 27207152&#45;&gt;22059072 -->
<g id="edge15" class="edge"><title>27207152&#45;&gt;22059072</title>
<path fill="none" stroke="black" d="M122.356,-407.367C200.012,-416.406 339.974,-435.138 457,-464 507.541,-476.465 562.11,-494.001 609.079,-510.425"/>
<polygon fill="black" stroke="black" points="608.08,-513.783 618.674,-513.801 610.403,-507.18 608.08,-513.783"/>
</g>
<!-- 26731856 -->
<g id="node48" class="node"><title>26731856</title>
<ellipse fill="none" stroke="black" cx="1782" cy="-19" rx="62.9325" ry="18.3848"/>
<text text-anchor="middle" x="1782" y="-15.4" font-family="Times Roman,serif" font-size="14.00">26731856</text>
</g>
<!-- 26731856&#45;&gt;21616208 -->
<g id="edge33" class="edge"><title>26731856&#45;&gt;21616208</title>
<path fill="none" stroke="black" d="M1782,-37.8129C1782,-59.2806 1782,-95.4093 1782,-126.255"/>
<polygon fill="black" stroke="black" points="1778.5,-126.484 1782,-136.484 1785.5,-126.484 1778.5,-126.484"/>
</g>
<!-- 21764848 -->
<g id="node55" class="node"><title>21764848</title>
<ellipse fill="none" stroke="black" cx="2649" cy="-401" rx="62.9325" ry="18.3848"/>
<text text-anchor="middle" x="2649" y="-397.4" font-family="Times Roman,serif" font-size="14.00">21764848</text>
</g>
<!-- 21764848&#45;&gt;23627488 -->
<g id="edge45" class="edge"><title>21764848&#45;&gt;23627488</title>
<path fill="none" stroke="black" d="M2622.75,-417.883C2589.26,-439.422 2529.95,-477.569 2482.13,-508.323"/>
<polygon fill="black" stroke="black" points="2480.17,-505.424 2473.65,-513.778 2483.95,-511.312 2480.17,-505.424"/>
</g>
</g>
</svg>
