<?xml version="1.0" encoding="UTF-8" standalone="no"?>
<!DOCTYPE svg PUBLIC "-//W3C//DTD SVG 1.1//EN"
 "http://www.w3.org/Graphics/SVG/1.1/DTD/svg11.dtd">
<!-- Generated by graphviz version 2.26.3 (20100126.1600)
 -->
<!-- Title: _anonymous_0 Pages: 1 -->
<svg width="3034pt" height="1381pt"
 viewBox="0.00 0.00 3034.00 1381.00" xmlns="http://www.w3.org/2000/svg" xmlns:xlink="http://www.w3.org/1999/xlink">
<g id="graph1" class="graph" transform="scale(1 1) rotate(0) translate(4 1377)">
<title>_anonymous_0</title>
<polygon fill="white" stroke="white" points="-4,5 -4,-1377 3031,-1377 3031,5 -4,5"/>
<g id="graph2" class="cluster"><title>cluster1</title>
<polygon fill="none" stroke="black" points="134,-46 134,-1365 2578,-1365 2578,-46 134,-46"/>
<text text-anchor="middle" x="1356" y="-57.4" font-family="Times Roman,serif" font-size="24.00">Venture Families</text>
</g>
<g id="graph3" class="cluster"><title>cluster2</title>
<polygon fill="none" stroke="black" points="1164,-91 1164,-456 1846,-456 1846,-91 1164,-91"/>
<text text-anchor="middle" x="1505" y="-102.4" font-family="Times Roman,serif" font-size="24.00">1</text>
</g>
<g id="graph4" class="cluster"><title>cluster3</title>
<polygon fill="none" stroke="black" points="1372,-464 1372,-829 2570,-829 2570,-464 1372,-464"/>
<text text-anchor="middle" x="1971" y="-475.4" font-family="Times Roman,serif" font-size="24.00">2</text>
</g>
<g id="graph5" class="cluster"><title>cluster4</title>
<polygon fill="none" stroke="black" points="1713,-837 1713,-984 2145,-984 2145,-837 1713,-837"/>
<text text-anchor="middle" x="1929" y="-848.4" font-family="Times Roman,serif" font-size="24.00">3</text>
</g>
<g id="graph6" class="cluster"><title>cluster5</title>
<polygon fill="none" stroke="black" points="1258,-992 1258,-1357 1690,-1357 1690,-992 1258,-992"/>
<text text-anchor="middle" x="1474" y="-1003.4" font-family="Times Roman,serif" font-size="24.00">4</text>
</g>
<g id="graph7" class="cluster"><title>cluster6</title>
<polygon fill="none" stroke="black" points="1698,-992 1698,-1357 2130,-1357 2130,-992 1698,-992"/>
<text text-anchor="middle" x="1914" y="-1003.4" font-family="Times Roman,serif" font-size="24.00">5</text>
</g>
<g id="graph8" class="cluster"><title>cluster7</title>
<polygon fill="none" stroke="black" points="2138,-992 2138,-1357 2570,-1357 2570,-992 2138,-992"/>
<text text-anchor="middle" x="2354" y="-1003.4" font-family="Times Roman,serif" font-size="24.00">6</text>
</g>
<g id="graph9" class="cluster"><title>cluster8</title>
<polygon fill="none" stroke="black" points="142,-464 142,-829 1364,-829 1364,-464 142,-464"/>
<text text-anchor="middle" x="753" y="-475.4" font-family="Times Roman,serif" font-size="24.00">7</text>
</g>
<g id="graph10" class="cluster"><title>cluster9</title>
<polygon fill="none" stroke="black" points="2586,-1029 2586,-1139 3018,-1139 3018,-1029 2586,-1029"/>
</g>
<!-- 37419920 -->
<g id="node3" class="node"><title>37419920</title>
<ellipse fill="firebrick" stroke="black" cx="1526" cy="-401" rx="241.123" ry="46.669"/>
<text text-anchor="middle" x="1526" y="-408.4" font-family="Times Roman,serif" font-size="24.00">exp: (snormal 100.000000)</text>
<text text-anchor="middle" x="1526" y="-379.4" font-family="Times Roman,serif" font-size="24.00">value: 99.451062</text>
</g>
<!-- 31869600 -->
<g id="node11" class="node"><title>31869600</title>
<ellipse fill="gold" stroke="black" cx="1856" cy="-556" rx="159.806" ry="46.669"/>
<text text-anchor="middle" x="1856" y="-563.4" font-family="Times Roman,serif" font-size="24.00">exp: alpha</text>
<text text-anchor="middle" x="1856" y="-534.4" font-family="Times Roman,serif" font-size="24.00">value: 99.451062</text>
</g>
<!-- 37419920&#45;&gt;31869600 -->
<g id="edge73" class="edge"><title>37419920&#45;&gt;31869600</title>
<path fill="none" stroke="black" d="M1637.2,-442.4C1654.03,-449.275 1671.08,-456.589 1687,-464 1716.38,-477.678 1747.75,-494.199 1775.4,-509.445"/>
<polygon fill="black" stroke="black" points="1773.79,-512.557 1784.24,-514.345 1777.19,-506.435 1773.79,-512.557"/>
</g>
<!-- 33943744 -->
<g id="node31" class="node"><title>33943744</title>
<ellipse fill="gold" stroke="black" cx="1196" cy="-556" rx="159.806" ry="46.669"/>
<text text-anchor="middle" x="1196" y="-563.4" font-family="Times Roman,serif" font-size="24.00">exp: alpha</text>
<text text-anchor="middle" x="1196" y="-534.4" font-family="Times Roman,serif" font-size="24.00">value: 99.451062</text>
</g>
<!-- 37419920&#45;&gt;33943744 -->
<g id="edge47" class="edge"><title>37419920&#45;&gt;33943744</title>
<path fill="none" stroke="black" d="M1416.95,-442.627C1400.42,-449.47 1383.66,-456.715 1368,-464 1338.21,-477.852 1306.31,-494.415 1278.16,-509.646"/>
<polygon fill="black" stroke="black" points="1276.27,-506.688 1269.16,-514.54 1279.62,-512.837 1276.27,-506.688"/>
</g>
<!-- 37220848 -->
<g id="node4" class="node"><title>37220848</title>
<ellipse fill="#999999" stroke="black" cx="1526" cy="-292" rx="99.9096" ry="26.163"/>
<text text-anchor="middle" x="1526" y="-284.9" font-family="Times Roman,serif" font-size="24.00">request: []</text>
</g>
<!-- 37220848&#45;&gt;37419920 -->
<g id="edge93" class="edge"><title>37220848&#45;&gt;37419920</title>
<path fill="none" stroke="black" d="M1526,-318.108C1526,-325.979 1526,-334.946 1526,-344.005"/>
<polygon fill="black" stroke="black" points="1522.5,-344.218 1526,-354.218 1529.5,-344.218 1522.5,-344.218"/>
</g>
<!-- 31289616 -->
<g id="node5" class="node"><title>31289616</title>
<ellipse fill="#999999" stroke="black" cx="1684" cy="-183" rx="154.149" ry="46.669"/>
<text text-anchor="middle" x="1684" y="-190.4" font-family="Times Roman,serif" font-size="24.00">exp: snormal</text>
<text text-anchor="middle" x="1684" y="-161.4" font-family="Times Roman,serif" font-size="24.00">value: sp:normal</text>
</g>
<!-- 31289616&#45;&gt;37419920 -->
<g id="edge83" class="edge"><title>31289616&#45;&gt;37419920</title>
<path fill="none" stroke="black" d="M1674.12,-229.623C1666.63,-257.217 1654.28,-291.787 1635,-318 1626.47,-329.599 1615.88,-340.353 1604.68,-350.014"/>
<polygon fill="black" stroke="black" points="1602.3,-347.44 1596.85,-356.524 1606.78,-352.823 1602.3,-347.44"/>
</g>
<!-- 31289616&#45;&gt;37220848 -->
<g id="edge85" class="edge"><title>31289616&#45;&gt;37220848</title>
<path fill="none" stroke="black" d="M1622.01,-225.767C1604.65,-237.744 1586.14,-250.514 1570.05,-261.614"/>
<polygon fill="black" stroke="black" points="1567.62,-259.033 1561.38,-267.592 1571.6,-264.795 1567.62,-259.033"/>
</g>
<!-- 33946736 -->
<g id="node6" class="node"><title>33946736</title>
<ellipse fill="#999999" stroke="black" cx="1342" cy="-183" rx="169.913" ry="46.669"/>
<text text-anchor="middle" x="1342" y="-190.4" font-family="Times Roman,serif" font-size="24.00">exp: 100.000000</text>
<text text-anchor="middle" x="1342" y="-161.4" font-family="Times Roman,serif" font-size="24.00">value: 100.000000</text>
</g>
<!-- 33946736&#45;&gt;37419920 -->
<g id="edge89" class="edge"><title>33946736&#45;&gt;37419920</title>
<path fill="none" stroke="black" d="M1361.89,-229.45C1375.06,-256.982 1394.1,-291.547 1417,-318 1426.83,-329.359 1438.45,-340.165 1450.37,-350"/>
<polygon fill="black" stroke="black" points="1448.25,-352.783 1458.23,-356.319 1452.63,-347.326 1448.25,-352.783"/>
</g>
<!-- 33946736&#45;&gt;37220848 -->
<g id="edge91" class="edge"><title>33946736&#45;&gt;37220848</title>
<path fill="none" stroke="black" d="M1413.4,-225.298C1434.69,-237.909 1457.53,-251.438 1477.03,-262.993"/>
<polygon fill="black" stroke="black" points="1475.36,-266.067 1485.74,-268.153 1478.92,-260.045 1475.36,-266.067"/>
</g>
<!-- 33103552 -->
<g id="node8" class="node"><title>33103552</title>
<ellipse fill="gold" stroke="black" cx="1929" cy="-774" rx="408.207" ry="46.669"/>
<text text-anchor="middle" x="1929" y="-781.4" font-family="Times Roman,serif" font-size="24.00">exp: (make_sym_dir_mult_reg alpha 2.000000)</text>
<text text-anchor="middle" x="1929" y="-752.4" font-family="Times Roman,serif" font-size="24.00">value: sp:sym_dir_mult</text>
</g>
<!-- 30487200 -->
<g id="node14" class="node"><title>30487200</title>
<ellipse fill="gold" stroke="black" cx="1929" cy="-929" rx="208.096" ry="46.669"/>
<text text-anchor="middle" x="1929" y="-936.4" font-family="Times Roman,serif" font-size="24.00">exp: f</text>
<text text-anchor="middle" x="1929" y="-907.4" font-family="Times Roman,serif" font-size="24.00">value: sp:sym_dir_mult</text>
</g>
<!-- 33103552&#45;&gt;30487200 -->
<g id="edge11" class="edge"><title>33103552&#45;&gt;30487200</title>
<path fill="none" stroke="black" d="M1929,-820.505C1929,-836.677 1929,-855.005 1929,-871.933"/>
<polygon fill="black" stroke="black" points="1925.5,-872.26 1929,-882.26 1932.5,-872.26 1925.5,-872.26"/>
</g>
<!-- 31861488 -->
<g id="node9" class="node"><title>31861488</title>
<ellipse fill="#63b8ff" stroke="black" cx="1959" cy="-665" rx="99.9096" ry="26.163"/>
<text text-anchor="middle" x="1959" y="-657.9" font-family="Times Roman,serif" font-size="24.00">request: []</text>
</g>
<!-- 31861488&#45;&gt;33103552 -->
<g id="edge79" class="edge"><title>31861488&#45;&gt;33103552</title>
<path fill="none" stroke="black" d="M1951.81,-691.108C1949.62,-699.064 1947.13,-708.139 1944.61,-717.297"/>
<polygon fill="black" stroke="black" points="1941.15,-716.648 1941.88,-727.218 1947.9,-718.506 1941.15,-716.648"/>
</g>
<!-- 30588672 -->
<g id="node10" class="node"><title>30588672</title>
<ellipse fill="#999999" stroke="black" cx="2298" cy="-556" rx="263.958" ry="46.669"/>
<text text-anchor="middle" x="2298" y="-563.4" font-family="Times Roman,serif" font-size="24.00">exp: make_sym_dir_mult_reg</text>
<text text-anchor="middle" x="2298" y="-534.4" font-family="Times Roman,serif" font-size="24.00">value: sp:make_sym_dir_mult</text>
</g>
<!-- 30588672&#45;&gt;33103552 -->
<g id="edge63" class="edge"><title>30588672&#45;&gt;33103552</title>
<path fill="none" stroke="black" d="M2222.44,-600.642C2162.22,-636.214 2077.9,-686.035 2015.08,-723.144"/>
<polygon fill="black" stroke="black" points="2013.2,-720.193 2006.37,-728.293 2016.76,-726.22 2013.2,-720.193"/>
</g>
<!-- 30588672&#45;&gt;31861488 -->
<g id="edge65" class="edge"><title>30588672&#45;&gt;31861488</title>
<path fill="none" stroke="black" d="M2170.8,-596.898C2123.84,-611.997 2072.25,-628.585 2031.75,-641.61"/>
<polygon fill="black" stroke="black" points="2030.67,-638.278 2022.23,-644.671 2032.82,-644.942 2030.67,-638.278"/>
</g>
<!-- 31869600&#45;&gt;33103552 -->
<g id="edge69" class="edge"><title>31869600&#45;&gt;33103552</title>
<path fill="none" stroke="black" d="M1844.64,-602.587C1840.35,-629.367 1838.85,-663.117 1850,-691 1854.07,-701.183 1860.05,-710.828 1866.93,-719.696"/>
<polygon fill="black" stroke="black" points="1864.41,-722.135 1873.47,-727.615 1869.8,-717.676 1864.41,-722.135"/>
</g>
<!-- 31869600&#45;&gt;31861488 -->
<g id="edge71" class="edge"><title>31869600&#45;&gt;31861488</title>
<path fill="none" stroke="black" d="M1898.49,-600.964C1908.38,-611.432 1918.73,-622.384 1928.02,-632.21"/>
<polygon fill="black" stroke="black" points="1925.47,-634.614 1934.88,-639.479 1930.56,-629.807 1925.47,-634.614"/>
</g>
<!-- 31339040 -->
<g id="node12" class="node"><title>31339040</title>
<ellipse fill="#999999" stroke="black" cx="1529" cy="-556" rx="149.2" ry="46.669"/>
<text text-anchor="middle" x="1529" y="-563.4" font-family="Times Roman,serif" font-size="24.00">exp: 2.000000</text>
<text text-anchor="middle" x="1529" y="-534.4" font-family="Times Roman,serif" font-size="24.00">value: 2.000000</text>
</g>
<!-- 31339040&#45;&gt;33103552 -->
<g id="edge75" class="edge"><title>31339040&#45;&gt;33103552</title>
<path fill="none" stroke="black" d="M1603.3,-596.493C1669.17,-632.39 1765.62,-684.958 1836.47,-723.574"/>
<polygon fill="black" stroke="black" points="1834.97,-726.737 1845.42,-728.449 1838.32,-720.591 1834.97,-726.737"/>
</g>
<!-- 31339040&#45;&gt;31861488 -->
<g id="edge77" class="edge"><title>31339040&#45;&gt;31861488</title>
<path fill="none" stroke="black" d="M1635.4,-588.677C1652.6,-593.663 1670.25,-598.605 1687,-603 1748.19,-619.057 1817.75,-634.87 1871.21,-646.507"/>
<polygon fill="black" stroke="black" points="1870.48,-649.931 1881,-648.63 1871.97,-643.09 1870.48,-649.931"/>
</g>
<!-- 30881168 -->
<g id="node18" class="node"><title>30881168</title>
<ellipse fill="gold" stroke="black" cx="1474" cy="-1084" rx="208.096" ry="46.669"/>
<text text-anchor="middle" x="1474" y="-1091.4" font-family="Times Roman,serif" font-size="24.00">exp: g</text>
<text text-anchor="middle" x="1474" y="-1062.4" font-family="Times Roman,serif" font-size="24.00">value: sp:sym_dir_mult</text>
</g>
<!-- 30487200&#45;&gt;30881168 -->
<g id="edge33" class="edge"><title>30487200&#45;&gt;30881168</title>
<path fill="none" stroke="black" d="M1788.59,-963.341C1757.22,-971.926 1724.28,-981.662 1694,-992 1654.63,-1005.44 1612.27,-1022.5 1575.34,-1038.28"/>
<polygon fill="black" stroke="black" points="1573.88,-1035.09 1566.07,-1042.26 1576.64,-1041.53 1573.88,-1035.09"/>
</g>
<!-- 30868272 -->
<g id="node22" class="node"><title>30868272</title>
<ellipse fill="gold" stroke="black" cx="1914" cy="-1084" rx="208.096" ry="46.669"/>
<text text-anchor="middle" x="1914" y="-1091.4" font-family="Times Roman,serif" font-size="24.00">exp: g</text>
<text text-anchor="middle" x="1914" y="-1062.4" font-family="Times Roman,serif" font-size="24.00">value: sp:sym_dir_mult</text>
</g>
<!-- 30487200&#45;&gt;30868272 -->
<g id="edge25" class="edge"><title>30487200&#45;&gt;30868272</title>
<path fill="none" stroke="black" d="M1924.5,-975.505C1922.93,-991.677 1921.16,-1010.01 1919.52,-1026.93"/>
<polygon fill="black" stroke="black" points="1916,-1026.97 1918.52,-1037.26 1922.97,-1027.64 1916,-1026.97"/>
</g>
<!-- 30415904 -->
<g id="node26" class="node"><title>30415904</title>
<ellipse fill="gold" stroke="black" cx="2354" cy="-1084" rx="208.096" ry="46.669"/>
<text text-anchor="middle" x="2354" y="-1091.4" font-family="Times Roman,serif" font-size="24.00">exp: g</text>
<text text-anchor="middle" x="2354" y="-1062.4" font-family="Times Roman,serif" font-size="24.00">value: sp:sym_dir_mult</text>
</g>
<!-- 30487200&#45;&gt;30415904 -->
<g id="edge17" class="edge"><title>30487200&#45;&gt;30415904</title>
<path fill="none" stroke="black" d="M2055.95,-965.89C2081.92,-974.032 2108.97,-982.944 2134,-992 2172.67,-1005.99 2214.45,-1022.97 2251.11,-1038.52"/>
<polygon fill="black" stroke="black" points="2249.74,-1041.74 2260.32,-1042.44 2252.49,-1035.3 2249.74,-1041.74"/>
</g>
<!-- 33936992 -->
<g id="node35" class="node"><title>33936992</title>
<ellipse fill="darkseagreen" stroke="black" cx="2802" cy="-1084" rx="208.096" ry="46.669"/>
<text text-anchor="middle" x="2802" y="-1091.4" font-family="Times Roman,serif" font-size="24.00">exp: g</text>
<text text-anchor="middle" x="2802" y="-1062.4" font-family="Times Roman,serif" font-size="24.00">value: sp:sym_dir_mult</text>
</g>
<!-- 30487200&#45;&gt;33936992 -->
<g id="edge81" class="edge"><title>30487200&#45;&gt;33936992</title>
<path fill="none" stroke="black" d="M2101.08,-955.139C2177.45,-965.78 2268.53,-977.162 2351,-984 2400.42,-988.098 2525.5,-981.678 2574,-992 2619.51,-1001.69 2667.6,-1019.8 2707.83,-1037.42"/>
<polygon fill="black" stroke="black" points="2706.52,-1040.67 2717.08,-1041.52 2709.36,-1034.27 2706.52,-1040.67"/>
</g>
<!-- 32857776 -->
<g id="node16" class="node"><title>32857776</title>
<ellipse fill="gold" stroke="black" cx="1474" cy="-1302" rx="79.9031" ry="46.669"/>
<text text-anchor="middle" x="1474" y="-1309.4" font-family="Times Roman,serif" font-size="24.00">exp: (g)</text>
<text text-anchor="middle" x="1474" y="-1280.4" font-family="Times Roman,serif" font-size="24.00">value: 1</text>
</g>
<!-- 32904704 -->
<g id="node17" class="node"><title>32904704</title>
<ellipse fill="gold" stroke="black" cx="1527" cy="-1193" rx="87.1802" ry="26.163"/>
<text text-anchor="middle" x="1527" y="-1185.9" font-family="Times Roman,serif" font-size="24.00">request: </text>
</g>
<!-- 32904704&#45;&gt;32857776 -->
<g id="edge35" class="edge"><title>32904704&#45;&gt;32857776</title>
<path fill="none" stroke="black" d="M1514.44,-1218.83C1510.17,-1227.6 1505.24,-1237.76 1500.31,-1247.9"/>
<polygon fill="black" stroke="black" points="1497.02,-1246.64 1495.8,-1257.17 1503.32,-1249.7 1497.02,-1246.64"/>
</g>
<!-- 30881168&#45;&gt;32857776 -->
<g id="edge29" class="edge"><title>30881168&#45;&gt;32857776</title>
<path fill="none" stroke="black" d="M1445.11,-1130.3C1439.29,-1141.87 1434.04,-1154.54 1431,-1167 1425.53,-1189.45 1425.53,-1196.55 1431,-1219 1433.47,-1229.16 1437.43,-1239.46 1441.96,-1249.19"/>
<polygon fill="black" stroke="black" points="1438.89,-1250.89 1446.44,-1258.31 1445.17,-1247.8 1438.89,-1250.89"/>
</g>
<!-- 30881168&#45;&gt;32904704 -->
<g id="edge31" class="edge"><title>30881168&#45;&gt;32904704</title>
<path fill="none" stroke="black" d="M1496.63,-1130.54C1501.09,-1139.72 1505.71,-1149.21 1509.95,-1157.93"/>
<polygon fill="black" stroke="black" points="1506.86,-1159.58 1514.38,-1167.04 1513.15,-1156.52 1506.86,-1159.58"/>
</g>
<!-- 31341232 -->
<g id="node20" class="node"><title>31341232</title>
<ellipse fill="gold" stroke="black" cx="1914" cy="-1302" rx="79.9031" ry="46.669"/>
<text text-anchor="middle" x="1914" y="-1309.4" font-family="Times Roman,serif" font-size="24.00">exp: (g)</text>
<text text-anchor="middle" x="1914" y="-1280.4" font-family="Times Roman,serif" font-size="24.00">value: 1</text>
</g>
<!-- 31983280 -->
<g id="node21" class="node"><title>31983280</title>
<ellipse fill="gold" stroke="black" cx="1967" cy="-1193" rx="87.1802" ry="26.163"/>
<text text-anchor="middle" x="1967" y="-1185.9" font-family="Times Roman,serif" font-size="24.00">request: </text>
</g>
<!-- 31983280&#45;&gt;31341232 -->
<g id="edge27" class="edge"><title>31983280&#45;&gt;31341232</title>
<path fill="none" stroke="black" d="M1954.44,-1218.83C1950.17,-1227.6 1945.24,-1237.76 1940.31,-1247.9"/>
<polygon fill="black" stroke="black" points="1937.02,-1246.64 1935.8,-1257.17 1943.32,-1249.7 1937.02,-1246.64"/>
</g>
<!-- 30868272&#45;&gt;31341232 -->
<g id="edge21" class="edge"><title>30868272&#45;&gt;31341232</title>
<path fill="none" stroke="black" d="M1885.11,-1130.3C1879.29,-1141.87 1874.04,-1154.54 1871,-1167 1865.53,-1189.45 1865.53,-1196.55 1871,-1219 1873.47,-1229.16 1877.43,-1239.46 1881.96,-1249.19"/>
<polygon fill="black" stroke="black" points="1878.89,-1250.89 1886.44,-1258.31 1885.17,-1247.8 1878.89,-1250.89"/>
</g>
<!-- 30868272&#45;&gt;31983280 -->
<g id="edge23" class="edge"><title>30868272&#45;&gt;31983280</title>
<path fill="none" stroke="black" d="M1936.63,-1130.54C1941.09,-1139.72 1945.71,-1149.21 1949.95,-1157.93"/>
<polygon fill="black" stroke="black" points="1946.86,-1159.58 1954.38,-1167.04 1953.15,-1156.52 1946.86,-1159.58"/>
</g>
<!-- 31328816 -->
<g id="node24" class="node"><title>31328816</title>
<ellipse fill="gold" stroke="black" cx="2354" cy="-1302" rx="79.9031" ry="46.669"/>
<text text-anchor="middle" x="2354" y="-1309.4" font-family="Times Roman,serif" font-size="24.00">exp: (g)</text>
<text text-anchor="middle" x="2354" y="-1280.4" font-family="Times Roman,serif" font-size="24.00">value: 1</text>
</g>
<!-- 37271520 -->
<g id="node25" class="node"><title>37271520</title>
<ellipse fill="gold" stroke="black" cx="2407" cy="-1193" rx="87.1802" ry="26.163"/>
<text text-anchor="middle" x="2407" y="-1185.9" font-family="Times Roman,serif" font-size="24.00">request: </text>
</g>
<!-- 37271520&#45;&gt;31328816 -->
<g id="edge19" class="edge"><title>37271520&#45;&gt;31328816</title>
<path fill="none" stroke="black" d="M2394.44,-1218.83C2390.17,-1227.6 2385.24,-1237.76 2380.31,-1247.9"/>
<polygon fill="black" stroke="black" points="2377.02,-1246.64 2375.8,-1257.17 2383.32,-1249.7 2377.02,-1246.64"/>
</g>
<!-- 30415904&#45;&gt;31328816 -->
<g id="edge13" class="edge"><title>30415904&#45;&gt;31328816</title>
<path fill="none" stroke="black" d="M2325.11,-1130.3C2319.29,-1141.87 2314.04,-1154.54 2311,-1167 2305.53,-1189.45 2305.53,-1196.55 2311,-1219 2313.47,-1229.16 2317.43,-1239.46 2321.96,-1249.19"/>
<polygon fill="black" stroke="black" points="2318.89,-1250.89 2326.44,-1258.31 2325.17,-1247.8 2318.89,-1250.89"/>
</g>
<!-- 30415904&#45;&gt;37271520 -->
<g id="edge15" class="edge"><title>30415904&#45;&gt;37271520</title>
<path fill="none" stroke="black" d="M2376.63,-1130.54C2381.09,-1139.72 2385.71,-1149.21 2389.95,-1157.93"/>
<polygon fill="black" stroke="black" points="2386.86,-1159.58 2394.38,-1167.04 2393.15,-1156.52 2386.86,-1159.58"/>
</g>
<!-- 33092592 -->
<g id="node28" class="node"><title>33092592</title>
<ellipse fill="gold" stroke="black" cx="919" cy="-774" rx="382.752" ry="46.669"/>
<text text-anchor="middle" x="919" y="-781.4" font-family="Times Roman,serif" font-size="24.00">exp: (branch_exp alpha (quote g) (quote g))</text>
<text text-anchor="middle" x="919" y="-752.4" font-family="Times Roman,serif" font-size="24.00">value: sp:sym_dir_mult</text>
</g>
<!-- 34036272 -->
<g id="node29" class="node"><title>34036272</title>
<ellipse fill="gold" stroke="black" cx="864" cy="-665" rx="289.914" ry="26.163"/>
<text text-anchor="middle" x="864" y="-657.9" font-family="Times Roman,serif" font-size="24.00">request: [(34036272, g, &lt;env&gt;)]</text>
</g>
<!-- 34036272&#45;&gt;33092592 -->
<g id="edge57" class="edge"><title>34036272&#45;&gt;33092592</title>
<path fill="none" stroke="black" d="M877.174,-691.108C881.316,-699.318 886.06,-708.719 890.831,-718.174"/>
<polygon fill="black" stroke="black" points="887.765,-719.867 895.395,-727.218 894.014,-716.714 887.765,-719.867"/>
</g>
<!-- 34036272&#45;&gt;33936992 -->
<g id="edge61" class="edge"><title>34036272&#45;&gt;33936992</title>
<path fill="none" stroke="black" stroke-dasharray="1,5" d="M1110.04,-678.764C1192.07,-683.067 1283.96,-687.578 1368,-691 1434.97,-693.727 2515.7,-693.919 2574,-727 2690.28,-792.984 2756.39,-945.295 2784.95,-1028.04"/>
<polygon fill="black" stroke="black" points="2781.64,-1029.19 2788.16,-1037.54 2788.27,-1026.94 2781.64,-1029.19"/>
</g>
<!-- 29656560 -->
<g id="node30" class="node"><title>29656560</title>
<ellipse fill="#999999" stroke="black" cx="864" cy="-556" rx="154.149" ry="46.669"/>
<text text-anchor="middle" x="864" y="-563.4" font-family="Times Roman,serif" font-size="24.00">exp: branch_exp</text>
<text text-anchor="middle" x="864" y="-534.4" font-family="Times Roman,serif" font-size="24.00">value: sp:branch</text>
</g>
<!-- 29656560&#45;&gt;33092592 -->
<g id="edge37" class="edge"><title>29656560&#45;&gt;33092592</title>
<path fill="none" stroke="black" d="M974.824,-588.309C992.266,-593.292 1010.11,-598.33 1027,-603 1087.27,-619.663 1124.86,-589.452 1163,-639 1193.36,-678.448 1159.97,-707.986 1109.14,-729.211"/>
<polygon fill="black" stroke="black" points="1107.79,-725.982 1099.8,-732.945 1110.39,-732.481 1107.79,-725.982"/>
</g>
<!-- 29656560&#45;&gt;34036272 -->
<g id="edge39" class="edge"><title>29656560&#45;&gt;34036272</title>
<path fill="none" stroke="black" d="M864,-602.542C864,-611.249 864,-620.232 864,-628.578"/>
<polygon fill="black" stroke="black" points="860.5,-628.739 864,-638.739 867.5,-628.739 860.5,-628.739"/>
</g>
<!-- 33943744&#45;&gt;33092592 -->
<g id="edge43" class="edge"><title>33943744&#45;&gt;33092592</title>
<path fill="none" stroke="black" d="M1199.88,-602.621C1199.73,-631.256 1194.64,-666.934 1174,-691 1162.26,-704.689 1134.28,-717.694 1100.95,-729.175"/>
<polygon fill="black" stroke="black" points="1099.79,-725.873 1091.42,-732.372 1102.02,-732.51 1099.79,-725.873"/>
</g>
<!-- 33943744&#45;&gt;34036272 -->
<g id="edge45" class="edge"><title>33943744&#45;&gt;34036272</title>
<path fill="none" stroke="black" d="M1089.58,-590.938C1044.63,-605.698 992.945,-622.666 950.403,-636.633"/>
<polygon fill="black" stroke="black" points="949.045,-633.395 940.635,-639.84 951.228,-640.046 949.045,-633.395"/>
</g>
<!-- 38700016 -->
<g id="node32" class="node"><title>38700016</title>
<ellipse fill="#999999" stroke="black" cx="561" cy="-556" rx="131.022" ry="46.669"/>
<text text-anchor="middle" x="561" y="-563.4" font-family="Times Roman,serif" font-size="24.00">exp: (quote g)</text>
<text text-anchor="middle" x="561" y="-534.4" font-family="Times Roman,serif" font-size="24.00">value: g</text>
</g>
<!-- 38700016&#45;&gt;33092592 -->
<g id="edge49" class="edge"><title>38700016&#45;&gt;33092592</title>
<path fill="none" stroke="black" d="M549.266,-602.501C544.957,-631.089 545.194,-666.76 565,-691 580.07,-709.444 617.016,-724.227 661.631,-735.904"/>
<polygon fill="black" stroke="black" points="661.016,-739.359 671.57,-738.424 662.737,-732.573 661.016,-739.359"/>
</g>
<!-- 38700016&#45;&gt;34036272 -->
<g id="edge51" class="edge"><title>38700016&#45;&gt;34036272</title>
<path fill="none" stroke="black" d="M653.144,-589.148C694.892,-604.166 743.782,-621.753 783.969,-636.21"/>
<polygon fill="black" stroke="black" points="782.864,-639.532 793.458,-639.624 785.233,-632.945 782.864,-639.532"/>
</g>
<!-- 36919568 -->
<g id="node33" class="node"><title>36919568</title>
<ellipse fill="#999999" stroke="black" cx="281" cy="-556" rx="131.022" ry="46.669"/>
<text text-anchor="middle" x="281" y="-563.4" font-family="Times Roman,serif" font-size="24.00">exp: (quote g)</text>
<text text-anchor="middle" x="281" y="-534.4" font-family="Times Roman,serif" font-size="24.00">value: g</text>
</g>
<!-- 36919568&#45;&gt;33092592 -->
<g id="edge53" class="edge"><title>36919568&#45;&gt;33092592</title>
<path fill="none" stroke="black" d="M347.509,-596.206C399.433,-626.077 474.233,-665.847 544,-691 590.752,-707.856 642.066,-721.932 691.324,-733.418"/>
<polygon fill="black" stroke="black" points="690.616,-736.847 701.147,-735.681 692.188,-730.025 690.616,-736.847"/>
</g>
<!-- 36919568&#45;&gt;34036272 -->
<g id="edge55" class="edge"><title>36919568&#45;&gt;34036272</title>
<path fill="none" stroke="black" d="M372.552,-589.424C388.555,-594.491 405.154,-599.265 421,-603 498.042,-621.159 583.96,-634.686 659.473,-644.391"/>
<polygon fill="black" stroke="black" points="659.218,-647.887 669.579,-645.675 660.1,-640.943 659.218,-647.887"/>
</g>
<!-- 33936992&#45;&gt;33092592 -->
<g id="edge59" class="edge"><title>33936992&#45;&gt;33092592</title>
<path fill="none" stroke="black" d="M2714.37,-1041.7C2672.77,-1023.44 2621.8,-1003.63 2574,-992 2537.13,-983.029 2525.76,-993.423 2489,-984 2329.53,-943.117 2310.04,-871.184 2149,-837 2106.55,-827.99 1411.3,-831.865 1368,-829 1306.08,-824.903 1239.6,-818.095 1177.28,-810.639"/>
<polygon fill="black" stroke="black" points="1177.66,-807.16 1167.32,-809.438 1176.82,-814.11 1177.66,-807.16"/>
</g>
<!-- 36191872 -->
<g id="node51" class="node"><title>36191872</title>
<ellipse fill="none" stroke="black" cx="63" cy="-401" rx="62.9325" ry="18.3848"/>
<text text-anchor="middle" x="63" y="-397.4" font-family="Times Roman,serif" font-size="14.00">36191872</text>
</g>
<!-- 36191872&#45;&gt;29656560 -->
<g id="edge41" class="edge"><title>36191872&#45;&gt;29656560</title>
<path fill="none" stroke="black" d="M125.475,-403.884C264.34,-410.823 594.74,-430.414 701,-464 733.152,-474.162 766.021,-491.202 793.742,-507.875"/>
<polygon fill="black" stroke="black" points="792.198,-511.033 802.554,-513.266 795.851,-505.062 792.198,-511.033"/>
</g>
<!-- 38688080 -->
<g id="node65" class="node"><title>38688080</title>
<ellipse fill="none" stroke="black" cx="2649" cy="-401" rx="62.9325" ry="18.3848"/>
<text text-anchor="middle" x="2649" y="-397.4" font-family="Times Roman,serif" font-size="14.00">38688080</text>
</g>
<!-- 38688080&#45;&gt;30588672 -->
<g id="edge67" class="edge"><title>38688080&#45;&gt;30588672</title>
<path fill="none" stroke="black" d="M2614.06,-416.429C2565.85,-437.717 2476.81,-477.039 2405.49,-508.533"/>
<polygon fill="black" stroke="black" points="2403.73,-505.484 2396,-512.726 2406.56,-511.888 2403.73,-505.484"/>
</g>
<!-- 36980576 -->
<g id="node76" class="node"><title>36980576</title>
<ellipse fill="none" stroke="black" cx="1684" cy="-19" rx="62.9325" ry="18.3848"/>
<text text-anchor="middle" x="1684" y="-15.4" font-family="Times Roman,serif" font-size="14.00">36980576</text>
</g>
<!-- 36980576&#45;&gt;31289616 -->
<g id="edge87" class="edge"><title>36980576&#45;&gt;31289616</title>
<path fill="none" stroke="black" d="M1684,-37.8129C1684,-59.2806 1684,-95.4093 1684,-126.255"/>
<polygon fill="black" stroke="black" points="1680.5,-126.484 1684,-136.484 1687.5,-126.484 1680.5,-126.484"/>
</g>
</g>
</svg>
