<?xml version="1.0" encoding="UTF-8" standalone="no"?>
<!DOCTYPE svg PUBLIC "-//W3C//DTD SVG 1.1//EN"
 "http://www.w3.org/Graphics/SVG/1.1/DTD/svg11.dtd">
<!-- Generated by graphviz version 2.26.3 (20100126.1600)
 -->
<!-- Title: _anonymous_0 Pages: 1 -->
<svg width="3074pt" height="1381pt"
 viewBox="0.00 0.00 3074.00 1381.00" xmlns="http://www.w3.org/2000/svg" xmlns:xlink="http://www.w3.org/1999/xlink">
<g id="graph1" class="graph" transform="scale(1 1) rotate(0) translate(4 1377)">
<title>_anonymous_0</title>
<polygon fill="white" stroke="white" points="-4,5 -4,-1377 3071,-1377 3071,5 -4,5"/>
<g id="graph2" class="cluster"><title>cluster1</title>
<polygon fill="none" stroke="black" points="134,-46 134,-1365 2618,-1365 2618,-46 134,-46"/>
<text text-anchor="middle" x="1376" y="-57.4" font-family="Times Roman,serif" font-size="24.00">Venture Families</text>
</g>
<g id="graph3" class="cluster"><title>cluster2</title>
<polygon fill="none" stroke="black" points="1184,-91 1184,-456 1866,-456 1866,-91 1184,-91"/>
<text text-anchor="middle" x="1525" y="-102.4" font-family="Times Roman,serif" font-size="24.00">1</text>
</g>
<g id="graph4" class="cluster"><title>cluster3</title>
<polygon fill="none" stroke="black" points="1392,-464 1392,-829 2610,-829 2610,-464 1392,-464"/>
<text text-anchor="middle" x="2001" y="-475.4" font-family="Times Roman,serif" font-size="24.00">2</text>
</g>
<g id="graph5" class="cluster"><title>cluster4</title>
<polygon fill="none" stroke="black" points="1751,-837 1751,-984 2183,-984 2183,-837 1751,-837"/>
<text text-anchor="middle" x="1967" y="-848.4" font-family="Times Roman,serif" font-size="24.00">3</text>
</g>
<g id="graph6" class="cluster"><title>cluster5</title>
<polygon fill="none" stroke="black" points="1298,-992 1298,-1357 1730,-1357 1730,-992 1298,-992"/>
<text text-anchor="middle" x="1514" y="-1003.4" font-family="Times Roman,serif" font-size="24.00">4</text>
</g>
<g id="graph7" class="cluster"><title>cluster6</title>
<polygon fill="none" stroke="black" points="1738,-992 1738,-1357 2170,-1357 2170,-992 1738,-992"/>
<text text-anchor="middle" x="1954" y="-1003.4" font-family="Times Roman,serif" font-size="24.00">5</text>
</g>
<g id="graph8" class="cluster"><title>cluster7</title>
<polygon fill="none" stroke="black" points="2178,-992 2178,-1357 2610,-1357 2610,-992 2178,-992"/>
<text text-anchor="middle" x="2394" y="-1003.4" font-family="Times Roman,serif" font-size="24.00">6</text>
</g>
<g id="graph9" class="cluster"><title>cluster8</title>
<polygon fill="none" stroke="black" points="142,-464 142,-829 1384,-829 1384,-464 142,-464"/>
<text text-anchor="middle" x="763" y="-475.4" font-family="Times Roman,serif" font-size="24.00">7</text>
</g>
<g id="graph10" class="cluster"><title>cluster9</title>
<polygon fill="none" stroke="black" points="2626,-1029 2626,-1139 3058,-1139 3058,-1029 2626,-1029"/>
</g>
<!-- 60741728 -->
<g id="node3" class="node"><title>60741728</title>
<ellipse fill="firebrick" stroke="black" cx="1546" cy="-401" rx="241.123" ry="46.669"/>
<text text-anchor="middle" x="1546" y="-408.4" font-family="Times Roman,serif" font-size="24.00">exp: (snormal 100.000000)</text>
<text text-anchor="middle" x="1546" y="-379.4" font-family="Times Roman,serif" font-size="24.00">value: 100.326549</text>
</g>
<!-- 55551824 -->
<g id="node11" class="node"><title>55551824</title>
<ellipse fill="gold" stroke="black" cx="1886" cy="-556" rx="169.913" ry="46.669"/>
<text text-anchor="middle" x="1886" y="-563.4" font-family="Times Roman,serif" font-size="24.00">exp: alpha</text>
<text text-anchor="middle" x="1886" y="-534.4" font-family="Times Roman,serif" font-size="24.00">value: 100.326549</text>
</g>
<!-- 60741728&#45;&gt;55551824 -->
<g id="edge73" class="edge"><title>60741728&#45;&gt;55551824</title>
<path fill="none" stroke="black" d="M1656.18,-442.389C1673.31,-449.321 1690.72,-456.655 1707,-464 1737.88,-477.935 1771.05,-494.514 1800.35,-509.733"/>
<polygon fill="black" stroke="black" points="1798.82,-512.885 1809.31,-514.408 1802.06,-506.679 1798.82,-512.885"/>
</g>
<!-- 54608032 -->
<g id="node31" class="node"><title>54608032</title>
<ellipse fill="gold" stroke="black" cx="1206" cy="-556" rx="169.913" ry="46.669"/>
<text text-anchor="middle" x="1206" y="-563.4" font-family="Times Roman,serif" font-size="24.00">exp: alpha</text>
<text text-anchor="middle" x="1206" y="-534.4" font-family="Times Roman,serif" font-size="24.00">value: 100.326549</text>
</g>
<!-- 60741728&#45;&gt;54608032 -->
<g id="edge47" class="edge"><title>60741728&#45;&gt;54608032</title>
<path fill="none" stroke="black" d="M1437.95,-442.603C1421.12,-449.506 1404.02,-456.776 1388,-464 1356.7,-478.116 1323,-494.738 1293.21,-509.942"/>
<polygon fill="black" stroke="black" points="1291.4,-506.936 1284.1,-514.611 1294.59,-513.166 1291.4,-506.936"/>
</g>
<!-- 59774800 -->
<g id="node4" class="node"><title>59774800</title>
<ellipse fill="#999999" stroke="black" cx="1546" cy="-292" rx="99.9096" ry="26.163"/>
<text text-anchor="middle" x="1546" y="-284.9" font-family="Times Roman,serif" font-size="24.00">request: []</text>
</g>
<!-- 59774800&#45;&gt;60741728 -->
<g id="edge93" class="edge"><title>59774800&#45;&gt;60741728</title>
<path fill="none" stroke="black" d="M1546,-318.108C1546,-325.979 1546,-334.946 1546,-344.005"/>
<polygon fill="black" stroke="black" points="1542.5,-344.218 1546,-354.218 1549.5,-344.218 1542.5,-344.218"/>
</g>
<!-- 51139232 -->
<g id="node5" class="node"><title>51139232</title>
<ellipse fill="#999999" stroke="black" cx="1704" cy="-183" rx="154.149" ry="46.669"/>
<text text-anchor="middle" x="1704" y="-190.4" font-family="Times Roman,serif" font-size="24.00">exp: snormal</text>
<text text-anchor="middle" x="1704" y="-161.4" font-family="Times Roman,serif" font-size="24.00">value: sp:normal</text>
</g>
<!-- 51139232&#45;&gt;60741728 -->
<g id="edge83" class="edge"><title>51139232&#45;&gt;60741728</title>
<path fill="none" stroke="black" d="M1694.12,-229.623C1686.63,-257.217 1674.28,-291.787 1655,-318 1646.47,-329.599 1635.88,-340.353 1624.68,-350.014"/>
<polygon fill="black" stroke="black" points="1622.3,-347.44 1616.85,-356.524 1626.78,-352.823 1622.3,-347.44"/>
</g>
<!-- 51139232&#45;&gt;59774800 -->
<g id="edge85" class="edge"><title>51139232&#45;&gt;59774800</title>
<path fill="none" stroke="black" d="M1642.01,-225.767C1624.65,-237.744 1606.14,-250.514 1590.05,-261.614"/>
<polygon fill="black" stroke="black" points="1587.62,-259.033 1581.38,-267.592 1591.6,-264.795 1587.62,-259.033"/>
</g>
<!-- 52991392 -->
<g id="node6" class="node"><title>52991392</title>
<ellipse fill="#999999" stroke="black" cx="1362" cy="-183" rx="169.913" ry="46.669"/>
<text text-anchor="middle" x="1362" y="-190.4" font-family="Times Roman,serif" font-size="24.00">exp: 100.000000</text>
<text text-anchor="middle" x="1362" y="-161.4" font-family="Times Roman,serif" font-size="24.00">value: 100.000000</text>
</g>
<!-- 52991392&#45;&gt;60741728 -->
<g id="edge89" class="edge"><title>52991392&#45;&gt;60741728</title>
<path fill="none" stroke="black" d="M1381.89,-229.45C1395.06,-256.982 1414.1,-291.547 1437,-318 1446.83,-329.359 1458.45,-340.165 1470.37,-350"/>
<polygon fill="black" stroke="black" points="1468.25,-352.783 1478.23,-356.319 1472.63,-347.326 1468.25,-352.783"/>
</g>
<!-- 52991392&#45;&gt;59774800 -->
<g id="edge91" class="edge"><title>52991392&#45;&gt;59774800</title>
<path fill="none" stroke="black" d="M1433.4,-225.298C1454.69,-237.909 1477.53,-251.438 1497.03,-262.993"/>
<polygon fill="black" stroke="black" points="1495.36,-266.067 1505.74,-268.153 1498.92,-260.045 1495.36,-266.067"/>
</g>
<!-- 56354352 -->
<g id="node8" class="node"><title>56354352</title>
<ellipse fill="gold" stroke="black" cx="1967" cy="-774" rx="408.207" ry="46.669"/>
<text text-anchor="middle" x="1967" y="-781.4" font-family="Times Roman,serif" font-size="24.00">exp: (make_sym_dir_mult_reg alpha 2.000000)</text>
<text text-anchor="middle" x="1967" y="-752.4" font-family="Times Roman,serif" font-size="24.00">value: sp:sym_dir_mult</text>
</g>
<!-- 54602032 -->
<g id="node14" class="node"><title>54602032</title>
<ellipse fill="gold" stroke="black" cx="1967" cy="-929" rx="208.096" ry="46.669"/>
<text text-anchor="middle" x="1967" y="-936.4" font-family="Times Roman,serif" font-size="24.00">exp: f</text>
<text text-anchor="middle" x="1967" y="-907.4" font-family="Times Roman,serif" font-size="24.00">value: sp:sym_dir_mult</text>
</g>
<!-- 56354352&#45;&gt;54602032 -->
<g id="edge35" class="edge"><title>56354352&#45;&gt;54602032</title>
<path fill="none" stroke="black" d="M1967,-820.505C1967,-836.677 1967,-855.005 1967,-871.933"/>
<polygon fill="black" stroke="black" points="1963.5,-872.26 1967,-882.26 1970.5,-872.26 1963.5,-872.26"/>
</g>
<!-- 52407360 -->
<g id="node9" class="node"><title>52407360</title>
<ellipse fill="#63b8ff" stroke="black" cx="1992" cy="-665" rx="99.9096" ry="26.163"/>
<text text-anchor="middle" x="1992" y="-657.9" font-family="Times Roman,serif" font-size="24.00">request: []</text>
</g>
<!-- 52407360&#45;&gt;56354352 -->
<g id="edge79" class="edge"><title>52407360&#45;&gt;56354352</title>
<path fill="none" stroke="black" d="M1986.01,-691.108C1984.19,-699.064 1982.11,-708.139 1980.01,-717.297"/>
<polygon fill="black" stroke="black" points="1976.55,-716.689 1977.73,-727.218 1983.38,-718.254 1976.55,-716.689"/>
</g>
<!-- 55519360 -->
<g id="node10" class="node"><title>55519360</title>
<ellipse fill="#999999" stroke="black" cx="2338" cy="-556" rx="263.958" ry="46.669"/>
<text text-anchor="middle" x="2338" y="-563.4" font-family="Times Roman,serif" font-size="24.00">exp: make_sym_dir_mult_reg</text>
<text text-anchor="middle" x="2338" y="-534.4" font-family="Times Roman,serif" font-size="24.00">value: sp:make_sym_dir_mult</text>
</g>
<!-- 55519360&#45;&gt;56354352 -->
<g id="edge63" class="edge"><title>55519360&#45;&gt;56354352</title>
<path fill="none" stroke="black" d="M2262.03,-600.642C2201.49,-636.214 2116.7,-686.035 2053.55,-723.144"/>
<polygon fill="black" stroke="black" points="2051.63,-720.209 2044.79,-728.293 2055.18,-726.244 2051.63,-720.209"/>
</g>
<!-- 55519360&#45;&gt;52407360 -->
<g id="edge65" class="edge"><title>55519360&#45;&gt;52407360</title>
<path fill="none" stroke="black" d="M2209.16,-596.588C2160.78,-611.829 2107.46,-628.627 2065.76,-641.763"/>
<polygon fill="black" stroke="black" points="2064.45,-638.506 2055.97,-644.849 2066.56,-645.182 2064.45,-638.506"/>
</g>
<!-- 55551824&#45;&gt;56354352 -->
<g id="edge69" class="edge"><title>55551824&#45;&gt;56354352</title>
<path fill="none" stroke="black" d="M1875.87,-602.419C1872.19,-629.298 1871.39,-663.203 1883,-691 1887.34,-701.388 1893.68,-711.139 1900.97,-720.048"/>
<polygon fill="black" stroke="black" points="1898.38,-722.409 1907.59,-727.655 1903.67,-717.813 1898.38,-722.409"/>
</g>
<!-- 55551824&#45;&gt;52407360 -->
<g id="edge71" class="edge"><title>55551824&#45;&gt;52407360</title>
<path fill="none" stroke="black" d="M1929.73,-600.964C1940,-611.525 1950.75,-622.579 1960.37,-632.473"/>
<polygon fill="black" stroke="black" points="1958,-635.057 1967.48,-639.786 1963.02,-630.176 1958,-635.057"/>
</g>
<!-- 51119600 -->
<g id="node12" class="node"><title>51119600</title>
<ellipse fill="#999999" stroke="black" cx="1549" cy="-556" rx="149.2" ry="46.669"/>
<text text-anchor="middle" x="1549" y="-563.4" font-family="Times Roman,serif" font-size="24.00">exp: 2.000000</text>
<text text-anchor="middle" x="1549" y="-534.4" font-family="Times Roman,serif" font-size="24.00">value: 2.000000</text>
</g>
<!-- 51119600&#45;&gt;56354352 -->
<g id="edge75" class="edge"><title>51119600&#45;&gt;56354352</title>
<path fill="none" stroke="black" d="M1625.67,-595.985C1694.63,-631.951 1796.25,-684.95 1870.68,-723.765"/>
<polygon fill="black" stroke="black" points="1869.13,-726.906 1879.62,-728.427 1872.37,-720.699 1869.13,-726.906"/>
</g>
<!-- 51119600&#45;&gt;52407360 -->
<g id="edge77" class="edge"><title>51119600&#45;&gt;52407360</title>
<path fill="none" stroke="black" d="M1655.36,-588.822C1672.56,-593.79 1690.23,-598.688 1707,-603 1771.88,-619.683 1845.83,-635.682 1902.13,-647.248"/>
<polygon fill="black" stroke="black" points="1901.58,-650.708 1912.08,-649.283 1902.98,-643.85 1901.58,-650.708"/>
</g>
<!-- 50247536 -->
<g id="node18" class="node"><title>50247536</title>
<ellipse fill="gold" stroke="black" cx="1514" cy="-1084" rx="208.096" ry="46.669"/>
<text text-anchor="middle" x="1514" y="-1091.4" font-family="Times Roman,serif" font-size="24.00">exp: g</text>
<text text-anchor="middle" x="1514" y="-1062.4" font-family="Times Roman,serif" font-size="24.00">value: sp:sym_dir_mult</text>
</g>
<!-- 54602032&#45;&gt;50247536 -->
<g id="edge31" class="edge"><title>54602032&#45;&gt;50247536</title>
<path fill="none" stroke="black" d="M1827.48,-963.5C1796.47,-972.06 1763.93,-981.746 1734,-992 1694.65,-1005.48 1652.29,-1022.56 1615.35,-1038.32"/>
<polygon fill="black" stroke="black" points="1613.89,-1035.14 1606.08,-1042.3 1616.65,-1041.57 1613.89,-1035.14"/>
</g>
<!-- 53215552 -->
<g id="node22" class="node"><title>53215552</title>
<ellipse fill="gold" stroke="black" cx="1954" cy="-1084" rx="208.096" ry="46.669"/>
<text text-anchor="middle" x="1954" y="-1091.4" font-family="Times Roman,serif" font-size="24.00">exp: g</text>
<text text-anchor="middle" x="1954" y="-1062.4" font-family="Times Roman,serif" font-size="24.00">value: sp:sym_dir_mult</text>
</g>
<!-- 54602032&#45;&gt;53215552 -->
<g id="edge23" class="edge"><title>54602032&#45;&gt;53215552</title>
<path fill="none" stroke="black" d="M1963.1,-975.505C1961.74,-991.677 1960.21,-1010.01 1958.79,-1026.93"/>
<polygon fill="black" stroke="black" points="1955.27,-1027 1957.92,-1037.26 1962.24,-1027.59 1955.27,-1027"/>
</g>
<!-- 48783584 -->
<g id="node26" class="node"><title>48783584</title>
<ellipse fill="gold" stroke="black" cx="2394" cy="-1084" rx="208.096" ry="46.669"/>
<text text-anchor="middle" x="2394" y="-1091.4" font-family="Times Roman,serif" font-size="24.00">exp: g</text>
<text text-anchor="middle" x="2394" y="-1062.4" font-family="Times Roman,serif" font-size="24.00">value: sp:sym_dir_mult</text>
</g>
<!-- 54602032&#45;&gt;48783584 -->
<g id="edge15" class="edge"><title>54602032&#45;&gt;48783584</title>
<path fill="none" stroke="black" d="M2094.93,-965.732C2121.24,-973.902 2148.64,-982.865 2174,-992 2212.69,-1005.94 2254.48,-1022.91 2291.13,-1038.46"/>
<polygon fill="black" stroke="black" points="2289.77,-1041.69 2300.34,-1042.39 2292.51,-1035.25 2289.77,-1041.69"/>
</g>
<!-- 60085760 -->
<g id="node35" class="node"><title>60085760</title>
<ellipse fill="gold" stroke="black" cx="2842" cy="-1084" rx="208.096" ry="46.669"/>
<text text-anchor="middle" x="2842" y="-1091.4" font-family="Times Roman,serif" font-size="24.00">exp: g</text>
<text text-anchor="middle" x="2842" y="-1062.4" font-family="Times Roman,serif" font-size="24.00">value: sp:sym_dir_mult</text>
</g>
<!-- 54602032&#45;&gt;60085760 -->
<g id="edge81" class="edge"><title>54602032&#45;&gt;60085760</title>
<path fill="none" stroke="black" d="M2139.08,-955.151C2215.45,-965.795 2306.53,-977.175 2389,-984 2438.86,-988.126 2565.06,-981.593 2614,-992 2659.51,-1001.68 2707.61,-1019.8 2747.83,-1037.41"/>
<polygon fill="black" stroke="black" points="2746.52,-1040.66 2757.08,-1041.51 2749.36,-1034.26 2746.52,-1040.66"/>
</g>
<!-- 53345520 -->
<g id="node16" class="node"><title>53345520</title>
<ellipse fill="gold" stroke="black" cx="1514" cy="-1302" rx="79.9031" ry="46.669"/>
<text text-anchor="middle" x="1514" y="-1309.4" font-family="Times Roman,serif" font-size="24.00">exp: (g)</text>
<text text-anchor="middle" x="1514" y="-1280.4" font-family="Times Roman,serif" font-size="24.00">value: 1</text>
</g>
<!-- 52397680 -->
<g id="node17" class="node"><title>52397680</title>
<ellipse fill="gold" stroke="black" cx="1567" cy="-1193" rx="87.1802" ry="26.163"/>
<text text-anchor="middle" x="1567" y="-1185.9" font-family="Times Roman,serif" font-size="24.00">request: </text>
</g>
<!-- 52397680&#45;&gt;53345520 -->
<g id="edge33" class="edge"><title>52397680&#45;&gt;53345520</title>
<path fill="none" stroke="black" d="M1554.44,-1218.83C1550.17,-1227.6 1545.24,-1237.76 1540.31,-1247.9"/>
<polygon fill="black" stroke="black" points="1537.02,-1246.64 1535.8,-1257.17 1543.32,-1249.7 1537.02,-1246.64"/>
</g>
<!-- 50247536&#45;&gt;53345520 -->
<g id="edge27" class="edge"><title>50247536&#45;&gt;53345520</title>
<path fill="none" stroke="black" d="M1485.11,-1130.3C1479.29,-1141.87 1474.04,-1154.54 1471,-1167 1465.53,-1189.45 1465.53,-1196.55 1471,-1219 1473.47,-1229.16 1477.43,-1239.46 1481.96,-1249.19"/>
<polygon fill="black" stroke="black" points="1478.89,-1250.89 1486.44,-1258.31 1485.17,-1247.8 1478.89,-1250.89"/>
</g>
<!-- 50247536&#45;&gt;52397680 -->
<g id="edge29" class="edge"><title>50247536&#45;&gt;52397680</title>
<path fill="none" stroke="black" d="M1536.63,-1130.54C1541.09,-1139.72 1545.71,-1149.21 1549.95,-1157.93"/>
<polygon fill="black" stroke="black" points="1546.86,-1159.58 1554.38,-1167.04 1553.15,-1156.52 1546.86,-1159.58"/>
</g>
<!-- 53333456 -->
<g id="node20" class="node"><title>53333456</title>
<ellipse fill="gold" stroke="black" cx="1954" cy="-1302" rx="79.9031" ry="46.669"/>
<text text-anchor="middle" x="1954" y="-1309.4" font-family="Times Roman,serif" font-size="24.00">exp: (g)</text>
<text text-anchor="middle" x="1954" y="-1280.4" font-family="Times Roman,serif" font-size="24.00">value: 1</text>
</g>
<!-- 57253040 -->
<g id="node21" class="node"><title>57253040</title>
<ellipse fill="gold" stroke="black" cx="2007" cy="-1193" rx="87.1802" ry="26.163"/>
<text text-anchor="middle" x="2007" y="-1185.9" font-family="Times Roman,serif" font-size="24.00">request: </text>
</g>
<!-- 57253040&#45;&gt;53333456 -->
<g id="edge25" class="edge"><title>57253040&#45;&gt;53333456</title>
<path fill="none" stroke="black" d="M1994.44,-1218.83C1990.17,-1227.6 1985.24,-1237.76 1980.31,-1247.9"/>
<polygon fill="black" stroke="black" points="1977.02,-1246.64 1975.8,-1257.17 1983.32,-1249.7 1977.02,-1246.64"/>
</g>
<!-- 53215552&#45;&gt;53333456 -->
<g id="edge19" class="edge"><title>53215552&#45;&gt;53333456</title>
<path fill="none" stroke="black" d="M1925.11,-1130.3C1919.29,-1141.87 1914.04,-1154.54 1911,-1167 1905.53,-1189.45 1905.53,-1196.55 1911,-1219 1913.47,-1229.16 1917.43,-1239.46 1921.96,-1249.19"/>
<polygon fill="black" stroke="black" points="1918.89,-1250.89 1926.44,-1258.31 1925.17,-1247.8 1918.89,-1250.89"/>
</g>
<!-- 53215552&#45;&gt;57253040 -->
<g id="edge21" class="edge"><title>53215552&#45;&gt;57253040</title>
<path fill="none" stroke="black" d="M1976.63,-1130.54C1981.09,-1139.72 1985.71,-1149.21 1989.95,-1157.93"/>
<polygon fill="black" stroke="black" points="1986.86,-1159.58 1994.38,-1167.04 1993.15,-1156.52 1986.86,-1159.58"/>
</g>
<!-- 53080080 -->
<g id="node24" class="node"><title>53080080</title>
<ellipse fill="gold" stroke="black" cx="2394" cy="-1302" rx="79.9031" ry="46.669"/>
<text text-anchor="middle" x="2394" y="-1309.4" font-family="Times Roman,serif" font-size="24.00">exp: (g)</text>
<text text-anchor="middle" x="2394" y="-1280.4" font-family="Times Roman,serif" font-size="24.00">value: 1</text>
</g>
<!-- 50481568 -->
<g id="node25" class="node"><title>50481568</title>
<ellipse fill="gold" stroke="black" cx="2447" cy="-1193" rx="87.1802" ry="26.163"/>
<text text-anchor="middle" x="2447" y="-1185.9" font-family="Times Roman,serif" font-size="24.00">request: </text>
</g>
<!-- 50481568&#45;&gt;53080080 -->
<g id="edge17" class="edge"><title>50481568&#45;&gt;53080080</title>
<path fill="none" stroke="black" d="M2434.44,-1218.83C2430.17,-1227.6 2425.24,-1237.76 2420.31,-1247.9"/>
<polygon fill="black" stroke="black" points="2417.02,-1246.64 2415.8,-1257.17 2423.32,-1249.7 2417.02,-1246.64"/>
</g>
<!-- 48783584&#45;&gt;53080080 -->
<g id="edge11" class="edge"><title>48783584&#45;&gt;53080080</title>
<path fill="none" stroke="black" d="M2365.11,-1130.3C2359.29,-1141.87 2354.04,-1154.54 2351,-1167 2345.53,-1189.45 2345.53,-1196.55 2351,-1219 2353.47,-1229.16 2357.43,-1239.46 2361.96,-1249.19"/>
<polygon fill="black" stroke="black" points="2358.89,-1250.89 2366.44,-1258.31 2365.17,-1247.8 2358.89,-1250.89"/>
</g>
<!-- 48783584&#45;&gt;50481568 -->
<g id="edge13" class="edge"><title>48783584&#45;&gt;50481568</title>
<path fill="none" stroke="black" d="M2416.63,-1130.54C2421.09,-1139.72 2425.71,-1149.21 2429.95,-1157.93"/>
<polygon fill="black" stroke="black" points="2426.86,-1159.58 2434.38,-1167.04 2433.15,-1156.52 2426.86,-1159.58"/>
</g>
<!-- 55036928 -->
<g id="node28" class="node"><title>55036928</title>
<ellipse fill="gold" stroke="black" cx="929" cy="-774" rx="382.752" ry="46.669"/>
<text text-anchor="middle" x="929" y="-781.4" font-family="Times Roman,serif" font-size="24.00">exp: (branch_exp alpha (quote g) (quote g))</text>
<text text-anchor="middle" x="929" y="-752.4" font-family="Times Roman,serif" font-size="24.00">value: sp:sym_dir_mult</text>
</g>
<!-- 53080768 -->
<g id="node29" class="node"><title>53080768</title>
<ellipse fill="gold" stroke="black" cx="864" cy="-665" rx="289.914" ry="26.163"/>
<text text-anchor="middle" x="864" y="-657.9" font-family="Times Roman,serif" font-size="24.00">request: [(53080768, g, &lt;env&gt;)]</text>
</g>
<!-- 53080768&#45;&gt;55036928 -->
<g id="edge57" class="edge"><title>53080768&#45;&gt;55036928</title>
<path fill="none" stroke="black" d="M879.569,-691.108C884.515,-699.402 890.187,-708.913 895.884,-718.467"/>
<polygon fill="black" stroke="black" points="892.975,-720.422 901.103,-727.218 898.987,-716.837 892.975,-720.422"/>
</g>
<!-- 53080768&#45;&gt;60085760 -->
<g id="edge61" class="edge"><title>53080768&#45;&gt;60085760</title>
<path fill="none" stroke="black" stroke-dasharray="1,5" d="M1112.84,-678.378C1199.87,-682.783 1298.24,-687.456 1388,-691 1456.09,-693.689 2554.73,-693.385 2614,-727 2730.3,-792.955 2796.4,-945.279 2824.95,-1028.04"/>
<polygon fill="black" stroke="black" points="2821.64,-1029.18 2828.17,-1037.53 2828.27,-1026.94 2821.64,-1029.18"/>
</g>
<!-- 60205760 -->
<g id="node30" class="node"><title>60205760</title>
<ellipse fill="#999999" stroke="black" cx="864" cy="-556" rx="154.149" ry="46.669"/>
<text text-anchor="middle" x="864" y="-563.4" font-family="Times Roman,serif" font-size="24.00">exp: branch_exp</text>
<text text-anchor="middle" x="864" y="-534.4" font-family="Times Roman,serif" font-size="24.00">value: sp:branch</text>
</g>
<!-- 60205760&#45;&gt;55036928 -->
<g id="edge37" class="edge"><title>60205760&#45;&gt;55036928</title>
<path fill="none" stroke="black" d="M974.824,-588.309C992.266,-593.292 1010.11,-598.33 1027,-603 1087.27,-619.663 1124.86,-589.452 1163,-639 1192.69,-677.574 1159.84,-707.061 1110.29,-728.488"/>
<polygon fill="black" stroke="black" points="1108.75,-725.336 1100.85,-732.395 1111.43,-731.803 1108.75,-725.336"/>
</g>
<!-- 60205760&#45;&gt;53080768 -->
<g id="edge39" class="edge"><title>60205760&#45;&gt;53080768</title>
<path fill="none" stroke="black" d="M864,-602.542C864,-611.249 864,-620.232 864,-628.578"/>
<polygon fill="black" stroke="black" points="860.5,-628.739 864,-638.739 867.5,-628.739 860.5,-628.739"/>
</g>
<!-- 54608032&#45;&gt;55036928 -->
<g id="edge43" class="edge"><title>54608032&#45;&gt;55036928</title>
<path fill="none" stroke="black" d="M1205.9,-602.817C1203.42,-631.529 1195.65,-667.22 1174,-691 1162.13,-704.035 1134.51,-716.881 1101.9,-728.427"/>
<polygon fill="black" stroke="black" points="1100.42,-725.236 1092.11,-731.808 1102.71,-731.852 1100.42,-725.236"/>
</g>
<!-- 54608032&#45;&gt;53080768 -->
<g id="edge45" class="edge"><title>54608032&#45;&gt;53080768</title>
<path fill="none" stroke="black" d="M1094.96,-591.389C1048.72,-606.126 995.787,-622.998 952.269,-636.867"/>
<polygon fill="black" stroke="black" points="951.029,-633.589 942.564,-639.961 953.155,-640.259 951.029,-633.589"/>
</g>
<!-- 53085776 -->
<g id="node32" class="node"><title>53085776</title>
<ellipse fill="#999999" stroke="black" cx="561" cy="-556" rx="131.022" ry="46.669"/>
<text text-anchor="middle" x="561" y="-563.4" font-family="Times Roman,serif" font-size="24.00">exp: (quote g)</text>
<text text-anchor="middle" x="561" y="-534.4" font-family="Times Roman,serif" font-size="24.00">value: g</text>
</g>
<!-- 53085776&#45;&gt;55036928 -->
<g id="edge49" class="edge"><title>53085776&#45;&gt;55036928</title>
<path fill="none" stroke="black" d="M549.215,-602.542C544.887,-631.147 545.12,-666.82 565,-691 580.564,-709.931 618.695,-724.92 664.703,-736.644"/>
<polygon fill="black" stroke="black" points="664.087,-740.097 674.634,-739.096 665.765,-733.301 664.087,-740.097"/>
</g>
<!-- 53085776&#45;&gt;53080768 -->
<g id="edge51" class="edge"><title>53085776&#45;&gt;53080768</title>
<path fill="none" stroke="black" d="M653.144,-589.148C694.892,-604.166 743.782,-621.753 783.969,-636.21"/>
<polygon fill="black" stroke="black" points="782.864,-639.532 793.458,-639.624 785.233,-632.945 782.864,-639.532"/>
</g>
<!-- 60248128 -->
<g id="node33" class="node"><title>60248128</title>
<ellipse fill="#999999" stroke="black" cx="281" cy="-556" rx="131.022" ry="46.669"/>
<text text-anchor="middle" x="281" y="-563.4" font-family="Times Roman,serif" font-size="24.00">exp: (quote g)</text>
<text text-anchor="middle" x="281" y="-534.4" font-family="Times Roman,serif" font-size="24.00">value: g</text>
</g>
<!-- 60248128&#45;&gt;55036928 -->
<g id="edge53" class="edge"><title>60248128&#45;&gt;55036928</title>
<path fill="none" stroke="black" d="M347.201,-596.159C399.114,-626.106 474.043,-665.995 544,-691 592.164,-708.216 645.052,-722.457 695.793,-733.992"/>
<polygon fill="black" stroke="black" points="695.051,-737.413 705.574,-736.189 696.584,-730.583 695.051,-737.413"/>
</g>
<!-- 60248128&#45;&gt;53080768 -->
<g id="edge55" class="edge"><title>60248128&#45;&gt;53080768</title>
<path fill="none" stroke="black" d="M372.552,-589.424C388.555,-594.491 405.154,-599.265 421,-603 498.042,-621.159 583.96,-634.686 659.473,-644.391"/>
<polygon fill="black" stroke="black" points="659.218,-647.887 669.579,-645.675 660.1,-640.943 659.218,-647.887"/>
</g>
<!-- 60085760&#45;&gt;55036928 -->
<g id="edge59" class="edge"><title>60085760&#45;&gt;55036928</title>
<path fill="none" stroke="black" d="M2754.65,-1041.77C2713.01,-1023.46 2661.92,-1003.6 2614,-992 2576.26,-982.86 2564.62,-993.602 2527,-984 2367.48,-943.288 2348.05,-871.165 2187,-837 2143.58,-827.788 1432.3,-831.867 1388,-829 1323.86,-824.848 1254.92,-817.911 1190.47,-810.338"/>
<polygon fill="black" stroke="black" points="1190.51,-806.818 1180.17,-809.117 1189.69,-813.769 1190.51,-806.818"/>
</g>
<!-- 58668400 -->
<g id="node51" class="node"><title>58668400</title>
<ellipse fill="none" stroke="black" cx="63" cy="-401" rx="62.9325" ry="18.3848"/>
<text text-anchor="middle" x="63" y="-397.4" font-family="Times Roman,serif" font-size="14.00">58668400</text>
</g>
<!-- 58668400&#45;&gt;60205760 -->
<g id="edge41" class="edge"><title>58668400&#45;&gt;60205760</title>
<path fill="none" stroke="black" d="M125.475,-403.884C264.34,-410.823 594.74,-430.414 701,-464 733.152,-474.162 766.021,-491.202 793.742,-507.875"/>
<polygon fill="black" stroke="black" points="792.198,-511.033 802.554,-513.266 795.851,-505.062 792.198,-511.033"/>
</g>
<!-- 54226336 -->
<g id="node65" class="node"><title>54226336</title>
<ellipse fill="none" stroke="black" cx="2689" cy="-401" rx="62.9325" ry="18.3848"/>
<text text-anchor="middle" x="2689" y="-397.4" font-family="Times Roman,serif" font-size="14.00">54226336</text>
</g>
<!-- 54226336&#45;&gt;55519360 -->
<g id="edge67" class="edge"><title>54226336&#45;&gt;55519360</title>
<path fill="none" stroke="black" d="M2654.06,-416.429C2605.85,-437.717 2516.81,-477.039 2445.49,-508.533"/>
<polygon fill="black" stroke="black" points="2443.73,-505.484 2436,-512.726 2446.56,-511.888 2443.73,-505.484"/>
</g>
<!-- 59946912 -->
<g id="node76" class="node"><title>59946912</title>
<ellipse fill="none" stroke="black" cx="1704" cy="-19" rx="62.9325" ry="18.3848"/>
<text text-anchor="middle" x="1704" y="-15.4" font-family="Times Roman,serif" font-size="14.00">59946912</text>
</g>
<!-- 59946912&#45;&gt;51139232 -->
<g id="edge87" class="edge"><title>59946912&#45;&gt;51139232</title>
<path fill="none" stroke="black" d="M1704,-37.8129C1704,-59.2806 1704,-95.4093 1704,-126.255"/>
<polygon fill="black" stroke="black" points="1700.5,-126.484 1704,-136.484 1707.5,-126.484 1700.5,-126.484"/>
</g>
</g>
</svg>
