<?xml version="1.0" encoding="UTF-8" standalone="no"?>
<!DOCTYPE svg PUBLIC "-//W3C//DTD SVG 1.1//EN"
 "http://www.w3.org/Graphics/SVG/1.1/DTD/svg11.dtd">
<!-- Generated by graphviz version 2.26.3 (20100126.1600)
 -->
<!-- Title: _anonymous_0 Pages: 1 -->
<svg width="553pt" height="692pt"
 viewBox="0.00 0.00 553.00 692.00" xmlns="http://www.w3.org/2000/svg" xmlns:xlink="http://www.w3.org/1999/xlink">
<g id="graph1" class="graph" transform="scale(1 1) rotate(0) translate(4 688)">
<title>_anonymous_0</title>
<polygon fill="white" stroke="white" points="-4,5 -4,-688 550,-688 550,5 -4,5"/>
<!-- 28243712 -->
<g id="node3" class="node"><title>28243712</title>
<ellipse fill="firebrick" stroke="black" cx="302" cy="-162" rx="27" ry="18"/>
</g>
<!-- 31015344 -->
<g id="node11" class="node"><title>31015344</title>
<ellipse fill="gold" stroke="black" cx="230" cy="-234" rx="27" ry="18"/>
</g>
<!-- 28243712&#45;&gt;31015344 -->
<g id="edge58" class="edge"><title>28243712&#45;&gt;31015344</title>
<path fill="none" stroke="black" d="M286.731,-177.269C276.803,-187.197 263.685,-200.315 252.564,-211.436"/>
<polygon fill="black" stroke="black" points="249.844,-209.207 245.247,-218.753 254.793,-214.156 249.844,-209.207"/>
</g>
<!-- 36008416 -->
<g id="node31" class="node"><title>36008416</title>
<ellipse fill="gold" stroke="black" cx="374" cy="-234" rx="27" ry="18"/>
</g>
<!-- 28243712&#45;&gt;36008416 -->
<g id="edge38" class="edge"><title>28243712&#45;&gt;36008416</title>
<path fill="none" stroke="black" d="M317.269,-177.269C327.197,-187.197 340.315,-200.315 351.436,-211.436"/>
<polygon fill="black" stroke="black" points="349.207,-214.156 358.753,-218.753 354.156,-209.207 349.207,-214.156"/>
</g>
<!-- 30968992 -->
<g id="node4" class="node"><title>30968992</title>
<ellipse fill="#999999" stroke="black" cx="302" cy="-90" rx="27" ry="18"/>
</g>
<!-- 30968992&#45;&gt;28243712 -->
<g id="edge18" class="edge"><title>30968992&#45;&gt;28243712</title>
<path fill="none" stroke="black" d="M302,-108.169C302,-115.869 302,-125.026 302,-133.583"/>
<polygon fill="black" stroke="black" points="298.5,-133.587 302,-143.587 305.5,-133.587 298.5,-133.587"/>
</g>
<!-- 32496912 -->
<g id="node5" class="node"><title>32496912</title>
<ellipse fill="#999999" stroke="black" cx="266" cy="-18" rx="27" ry="18"/>
</g>
<!-- 32496912&#45;&gt;28243712 -->
<g id="edge10" class="edge"><title>32496912&#45;&gt;28243712</title>
<path fill="none" stroke="black" d="M262.988,-36.0363C260.59,-54.5334 258.71,-83.9232 266,-108 269.266,-118.787 275.476,-129.389 281.831,-138.304"/>
<polygon fill="black" stroke="black" points="279.049,-140.427 287.877,-146.284 284.628,-136.2 279.049,-140.427"/>
</g>
<!-- 32496912&#45;&gt;30968992 -->
<g id="edge12" class="edge"><title>32496912&#45;&gt;30968992</title>
<path fill="none" stroke="black" d="M274.715,-35.4292C278.96,-43.9193 284.154,-54.3071 288.866,-63.7326"/>
<polygon fill="black" stroke="black" points="285.763,-65.3523 293.366,-72.7313 292.024,-62.2218 285.763,-65.3523"/>
</g>
<!-- 33795600 -->
<g id="node6" class="node"><title>33795600</title>
<ellipse fill="#999999" stroke="black" cx="347" cy="-18" rx="27" ry="18"/>
</g>
<!-- 33795600&#45;&gt;28243712 -->
<g id="edge14" class="edge"><title>33795600&#45;&gt;28243712</title>
<path fill="none" stroke="black" d="M347.723,-36.1499C347.885,-54.7374 346.522,-84.1981 338,-108 334.24,-118.502 328.004,-128.957 321.77,-137.831"/>
<polygon fill="black" stroke="black" points="318.768,-136.002 315.628,-146.121 324.393,-140.169 318.768,-136.002"/>
</g>
<!-- 33795600&#45;&gt;30968992 -->
<g id="edge16" class="edge"><title>33795600&#45;&gt;30968992</title>
<path fill="none" stroke="black" d="M336.563,-34.6992C331.077,-43.4776 324.231,-54.4297 318.084,-64.2661"/>
<polygon fill="black" stroke="black" points="315.025,-62.5564 312.693,-72.8914 320.961,-66.2664 315.025,-62.5564"/>
</g>
<!-- 33378608 -->
<g id="node8" class="node"><title>33378608</title>
<ellipse fill="gold" stroke="black" cx="165" cy="-378" rx="27" ry="18"/>
</g>
<!-- 30473984 -->
<g id="node14" class="node"><title>30473984</title>
<ellipse fill="gold" stroke="black" cx="165" cy="-450" rx="27" ry="18"/>
</g>
<!-- 33378608&#45;&gt;30473984 -->
<g id="edge20" class="edge"><title>33378608&#45;&gt;30473984</title>
<path fill="none" stroke="black" d="M165,-396.169C165,-403.869 165,-413.026 165,-421.583"/>
<polygon fill="black" stroke="black" points="161.5,-421.587 165,-431.587 168.5,-421.587 161.5,-421.587"/>
</g>
<!-- 30372512 -->
<g id="node9" class="node"><title>30372512</title>
<ellipse fill="#63b8ff" stroke="black" cx="138" cy="-306" rx="27" ry="18"/>
</g>
<!-- 30372512&#45;&gt;33378608 -->
<g id="edge64" class="edge"><title>30372512&#45;&gt;33378608</title>
<path fill="none" stroke="black" d="M144.674,-323.798C147.748,-331.994 151.462,-341.898 154.87,-350.985"/>
<polygon fill="black" stroke="black" points="151.614,-352.273 158.403,-360.407 158.168,-349.815 151.614,-352.273"/>
</g>
<!-- 32878672 -->
<g id="node10" class="node"><title>32878672</title>
<ellipse fill="#999999" stroke="black" cx="156" cy="-234" rx="27" ry="18"/>
</g>
<!-- 32878672&#45;&gt;33378608 -->
<g id="edge50" class="edge"><title>32878672&#45;&gt;33378608</title>
<path fill="none" stroke="black" d="M163.48,-251.636C167.474,-262.014 171.974,-275.514 174,-288 177.349,-308.635 174.781,-332.146 171.544,-349.963"/>
<polygon fill="black" stroke="black" points="168.069,-349.495 169.546,-359.986 174.934,-350.864 168.069,-349.495"/>
</g>
<!-- 32878672&#45;&gt;30372512 -->
<g id="edge52" class="edge"><title>32878672&#45;&gt;30372512</title>
<path fill="none" stroke="black" d="M151.551,-251.798C149.56,-259.759 147.167,-269.333 144.949,-278.204"/>
<polygon fill="black" stroke="black" points="141.491,-277.607 142.461,-288.157 148.282,-279.305 141.491,-277.607"/>
</g>
<!-- 31015344&#45;&gt;33378608 -->
<g id="edge54" class="edge"><title>31015344&#45;&gt;33378608</title>
<path fill="none" stroke="black" d="M222.159,-251.37C210.935,-276.236 190.191,-322.193 177.02,-351.371"/>
<polygon fill="black" stroke="black" points="173.792,-350.014 172.868,-360.569 180.173,-352.894 173.792,-350.014"/>
</g>
<!-- 31015344&#45;&gt;30372512 -->
<g id="edge56" class="edge"><title>31015344&#45;&gt;30372512</title>
<path fill="none" stroke="black" d="M212.261,-247.882C198.516,-258.64 179.273,-273.699 163.82,-285.793"/>
<polygon fill="black" stroke="black" points="161.402,-283.241 155.684,-292.16 165.716,-288.753 161.402,-283.241"/>
</g>
<!-- 31225584 -->
<g id="node12" class="node"><title>31225584</title>
<ellipse fill="#999999" stroke="black" cx="83" cy="-234" rx="27" ry="18"/>
</g>
<!-- 31225584&#45;&gt;33378608 -->
<g id="edge60" class="edge"><title>31225584&#45;&gt;33378608</title>
<path fill="none" stroke="black" d="M83.4453,-252.138C84.653,-271.244 88.7263,-301.609 102,-324 110.475,-338.297 124.108,-350.675 136.527,-359.961"/>
<polygon fill="black" stroke="black" points="134.675,-362.938 144.853,-365.88 138.731,-357.233 134.675,-362.938"/>
</g>
<!-- 31225584&#45;&gt;30372512 -->
<g id="edge62" class="edge"><title>31225584&#45;&gt;30372512</title>
<path fill="none" stroke="black" d="M95.4804,-250.338C102.512,-259.544 111.435,-271.224 119.288,-281.505"/>
<polygon fill="black" stroke="black" points="116.717,-283.905 125.569,-289.727 122.28,-279.655 116.717,-283.905"/>
</g>
<!-- 31959104 -->
<g id="node18" class="node"><title>31959104</title>
<ellipse fill="gold" stroke="black" cx="82" cy="-522" rx="27" ry="18"/>
</g>
<!-- 30473984&#45;&gt;31959104 -->
<g id="edge26" class="edge"><title>30473984&#45;&gt;31959104</title>
<path fill="none" stroke="black" d="M148.204,-464.57C136.2,-474.983 119.861,-489.156 106.419,-500.817"/>
<polygon fill="black" stroke="black" points="103.748,-498.5 98.4881,-507.697 108.335,-503.788 103.748,-498.5"/>
</g>
<!-- 34460816 -->
<g id="node22" class="node"><title>34460816</title>
<ellipse fill="gold" stroke="black" cx="165" cy="-522" rx="27" ry="18"/>
</g>
<!-- 30473984&#45;&gt;34460816 -->
<g id="edge78" class="edge"><title>30473984&#45;&gt;34460816</title>
<path fill="none" stroke="black" d="M165,-468.169C165,-475.869 165,-485.026 165,-493.583"/>
<polygon fill="black" stroke="black" points="161.5,-493.587 165,-503.587 168.5,-493.587 161.5,-493.587"/>
</g>
<!-- 31227776 -->
<g id="node26" class="node"><title>31227776</title>
<ellipse fill="gold" stroke="black" cx="247" cy="-522" rx="27" ry="18"/>
</g>
<!-- 30473984&#45;&gt;31227776 -->
<g id="edge70" class="edge"><title>30473984&#45;&gt;31227776</title>
<path fill="none" stroke="black" d="M181.594,-464.57C193.375,-474.915 209.384,-488.971 222.615,-500.588"/>
<polygon fill="black" stroke="black" points="220.607,-503.483 230.431,-507.451 225.226,-498.223 220.607,-503.483"/>
</g>
<!-- 32219424 -->
<g id="node16" class="node"><title>32219424</title>
<ellipse fill="gold" stroke="black" cx="64" cy="-666" rx="27" ry="18"/>
</g>
<!-- 30766480 -->
<g id="node17" class="node"><title>30766480</title>
<ellipse fill="gold" stroke="black" cx="27" cy="-594" rx="27" ry="18"/>
</g>
<!-- 30766480&#45;&gt;32219424 -->
<g id="edge28" class="edge"><title>30766480&#45;&gt;32219424</title>
<path fill="none" stroke="black" d="M35.7685,-611.063C40.1279,-619.546 45.4953,-629.991 50.3753,-639.487"/>
<polygon fill="black" stroke="black" points="47.3537,-641.265 55.0374,-648.559 53.5797,-638.065 47.3537,-641.265"/>
</g>
<!-- 31959104&#45;&gt;32219424 -->
<g id="edge22" class="edge"><title>31959104&#45;&gt;32219424</title>
<path fill="none" stroke="black" d="M79.7567,-539.947C76.6847,-564.523 71.1376,-608.899 67.5122,-637.903"/>
<polygon fill="black" stroke="black" points="64.0391,-637.47 66.2716,-647.827 70.985,-638.339 64.0391,-637.47"/>
</g>
<!-- 31959104&#45;&gt;30766480 -->
<g id="edge24" class="edge"><title>31959104&#45;&gt;30766480</title>
<path fill="none" stroke="black" d="M69.5196,-538.338C62.4876,-547.544 53.5653,-559.224 45.7117,-569.505"/>
<polygon fill="black" stroke="black" points="42.72,-567.655 39.431,-577.727 48.2828,-571.905 42.72,-567.655"/>
</g>
<!-- 34491664 -->
<g id="node20" class="node"><title>34491664</title>
<ellipse fill="gold" stroke="black" cx="155" cy="-666" rx="27" ry="18"/>
</g>
<!-- 31841312 -->
<g id="node21" class="node"><title>31841312</title>
<ellipse fill="gold" stroke="black" cx="137" cy="-594" rx="27" ry="18"/>
</g>
<!-- 31841312&#45;&gt;34491664 -->
<g id="edge80" class="edge"><title>31841312&#45;&gt;34491664</title>
<path fill="none" stroke="black" d="M141.449,-611.798C143.44,-619.759 145.833,-629.333 148.051,-638.204"/>
<polygon fill="black" stroke="black" points="144.718,-639.305 150.539,-648.157 151.509,-637.607 144.718,-639.305"/>
</g>
<!-- 34460816&#45;&gt;34491664 -->
<g id="edge74" class="edge"><title>34460816&#45;&gt;34491664</title>
<path fill="none" stroke="black" d="M169.227,-540.025C172.89,-558.263 177.02,-587.226 173,-612 171.544,-620.974 168.809,-630.472 165.904,-638.959"/>
<polygon fill="black" stroke="black" points="162.612,-637.77 162.48,-648.364 169.19,-640.165 162.612,-637.77"/>
</g>
<!-- 34460816&#45;&gt;31841312 -->
<g id="edge76" class="edge"><title>34460816&#45;&gt;31841312</title>
<path fill="none" stroke="black" d="M158.222,-539.429C155.013,-547.681 151.106,-557.726 147.524,-566.938"/>
<polygon fill="black" stroke="black" points="144.175,-565.893 143.813,-576.482 150.699,-568.43 144.175,-565.893"/>
</g>
<!-- 34163504 -->
<g id="node24" class="node"><title>34163504</title>
<ellipse fill="gold" stroke="black" cx="274" cy="-666" rx="27" ry="18"/>
</g>
<!-- 32454352 -->
<g id="node25" class="node"><title>32454352</title>
<ellipse fill="gold" stroke="black" cx="247" cy="-594" rx="27" ry="18"/>
</g>
<!-- 32454352&#45;&gt;34163504 -->
<g id="edge72" class="edge"><title>32454352&#45;&gt;34163504</title>
<path fill="none" stroke="black" d="M253.674,-611.798C256.748,-619.994 260.462,-629.898 263.87,-638.985"/>
<polygon fill="black" stroke="black" points="260.614,-640.273 267.403,-648.407 267.168,-637.815 260.614,-640.273"/>
</g>
<!-- 31227776&#45;&gt;34163504 -->
<g id="edge66" class="edge"><title>31227776&#45;&gt;34163504</title>
<path fill="none" stroke="black" d="M261.123,-537.716C269.253,-547.853 278.69,-561.765 283,-576 289.162,-596.353 286.287,-620.358 282.21,-638.455"/>
<polygon fill="black" stroke="black" points="278.765,-637.805 279.731,-648.356 285.555,-639.506 278.765,-637.805"/>
</g>
<!-- 31227776&#45;&gt;32454352 -->
<g id="edge68" class="edge"><title>31227776&#45;&gt;32454352</title>
<path fill="none" stroke="black" d="M247,-540.169C247,-547.869 247,-557.026 247,-565.583"/>
<polygon fill="black" stroke="black" points="243.5,-565.587 247,-575.587 250.5,-565.587 243.5,-565.587"/>
</g>
<!-- 32794384 -->
<g id="node28" class="node"><title>32794384</title>
<ellipse fill="gold" stroke="black" cx="414" cy="-378" rx="27" ry="18"/>
</g>
<!-- 32504208 -->
<g id="node29" class="node"><title>32504208</title>
<ellipse fill="gold" stroke="black" cx="414" cy="-306" rx="27" ry="18"/>
</g>
<!-- 32504208&#45;&gt;32794384 -->
<g id="edge48" class="edge"><title>32504208&#45;&gt;32794384</title>
<path fill="none" stroke="black" d="M414,-324.169C414,-331.869 414,-341.026 414,-349.583"/>
<polygon fill="black" stroke="black" points="410.5,-349.587 414,-359.587 417.5,-349.587 410.5,-349.587"/>
</g>
<!-- 31215360 -->
<g id="node30" class="node"><title>31215360</title>
<ellipse fill="#999999" stroke="black" cx="302" cy="-234" rx="27" ry="18"/>
</g>
<!-- 31215360&#45;&gt;32794384 -->
<g id="edge30" class="edge"><title>31215360&#45;&gt;32794384</title>
<path fill="none" stroke="black" d="M313.307,-250.589C325.943,-268.902 347.23,-299.09 367,-324 375.127,-334.24 384.51,-345.182 392.746,-354.52"/>
<polygon fill="black" stroke="black" points="390.365,-357.11 399.627,-362.256 395.595,-352.458 390.365,-357.11"/>
</g>
<!-- 31215360&#45;&gt;32504208 -->
<g id="edge32" class="edge"><title>31215360&#45;&gt;32504208</title>
<path fill="none" stroke="black" d="M321.509,-246.541C339.307,-257.983 365.814,-275.024 385.895,-287.933"/>
<polygon fill="black" stroke="black" points="384.034,-290.897 394.339,-293.361 387.82,-285.009 384.034,-290.897"/>
</g>
<!-- 36008416&#45;&gt;32794384 -->
<g id="edge34" class="edge"><title>36008416&#45;&gt;32794384</title>
<path fill="none" stroke="black" d="M372.009,-252.096C370.606,-270.64 370.17,-300.067 378,-324 381.469,-334.602 387.638,-345.079 393.901,-353.943"/>
<polygon fill="black" stroke="black" points="391.301,-356.311 400.099,-362.215 396.903,-352.113 391.301,-356.311"/>
</g>
<!-- 36008416&#45;&gt;32504208 -->
<g id="edge36" class="edge"><title>36008416&#45;&gt;32504208</title>
<path fill="none" stroke="black" d="M383.479,-251.063C388.311,-259.761 394.289,-270.52 399.67,-280.205"/>
<polygon fill="black" stroke="black" points="396.673,-282.018 404.589,-289.059 402.792,-278.618 396.673,-282.018"/>
</g>
<!-- 37497584 -->
<g id="node32" class="node"><title>37497584</title>
<ellipse fill="#999999" stroke="black" cx="446" cy="-234" rx="27" ry="18"/>
</g>
<!-- 37497584&#45;&gt;32794384 -->
<g id="edge40" class="edge"><title>37497584&#45;&gt;32794384</title>
<path fill="none" stroke="black" d="M450.258,-252.026C453.834,-270.516 457.297,-299.899 450,-324 446.734,-334.787 440.524,-345.389 434.169,-354.304"/>
<polygon fill="black" stroke="black" points="431.372,-352.2 428.123,-362.284 436.951,-356.427 431.372,-352.2"/>
</g>
<!-- 37497584&#45;&gt;32504208 -->
<g id="edge42" class="edge"><title>37497584&#45;&gt;32504208</title>
<path fill="none" stroke="black" d="M438.254,-251.429C434.52,-259.831 429.96,-270.091 425.805,-279.438"/>
<polygon fill="black" stroke="black" points="422.538,-278.172 421.675,-288.731 428.935,-281.015 422.538,-278.172"/>
</g>
<!-- 35758960 -->
<g id="node33" class="node"><title>35758960</title>
<ellipse fill="#999999" stroke="black" cx="518" cy="-234" rx="27" ry="18"/>
</g>
<!-- 35758960&#45;&gt;32794384 -->
<g id="edge44" class="edge"><title>35758960&#45;&gt;32794384</title>
<path fill="none" stroke="black" d="M509.575,-251.355C500.133,-270.069 483.798,-300.355 466,-324 457.477,-335.323 446.797,-346.783 437.336,-356.216"/>
<polygon fill="black" stroke="black" points="434.786,-353.814 430.075,-363.304 439.675,-358.823 434.786,-353.814"/>
</g>
<!-- 35758960&#45;&gt;32504208 -->
<g id="edge46" class="edge"><title>35758960&#45;&gt;32504208</title>
<path fill="none" stroke="black" d="M498.925,-247.206C482.799,-258.37 459.496,-274.503 441.378,-287.046"/>
<polygon fill="black" stroke="black" points="439.184,-284.308 432.954,-292.878 443.168,-290.063 439.184,-284.308"/>
</g>
</g>
</svg>
