<?xml version="1.0" encoding="UTF-8" standalone="no"?>
<!DOCTYPE svg PUBLIC "-//W3C//DTD SVG 1.1//EN"
 "http://www.w3.org/Graphics/SVG/1.1/DTD/svg11.dtd">
<!-- Generated by graphviz version 2.26.3 (20100126.1600)
 -->
<!-- Title: _anonymous_0 Pages: 1 -->
<svg width="2484pt" height="1381pt"
 viewBox="0.00 0.00 2484.00 1381.00" xmlns="http://www.w3.org/2000/svg" xmlns:xlink="http://www.w3.org/1999/xlink">
<g id="graph1" class="graph" transform="scale(1 1) rotate(0) translate(4 1377)">
<title>_anonymous_0</title>
<polygon fill="white" stroke="white" points="-4,5 -4,-1377 2481,-1377 2481,5 -4,5"/>
<g id="graph2" class="cluster"><title>cluster1</title>
<polygon fill="none" stroke="black" points="134,-46 134,-1365 2342,-1365 2342,-46 134,-46"/>
<text text-anchor="middle" x="1238" y="-57.4" font-family="Times Roman,serif" font-size="24.00">Venture Families</text>
</g>
<g id="graph3" class="cluster"><title>cluster2</title>
<polygon fill="none" stroke="black" points="1144,-91 1144,-456 1826,-456 1826,-91 1144,-91"/>
<text text-anchor="middle" x="1485" y="-102.4" font-family="Times Roman,serif" font-size="24.00">1</text>
</g>
<g id="graph4" class="cluster"><title>cluster3</title>
<polygon fill="none" stroke="black" points="142,-464 142,-829 1222,-829 1222,-464 142,-464"/>
<text text-anchor="middle" x="682" y="-475.4" font-family="Times Roman,serif" font-size="24.00">2</text>
</g>
<g id="graph5" class="cluster"><title>cluster4</title>
<polygon fill="none" stroke="black" points="652,-837 652,-984 806,-984 806,-837 652,-837"/>
<text text-anchor="middle" x="729" y="-848.4" font-family="Times Roman,serif" font-size="24.00">3</text>
</g>
<g id="graph6" class="cluster"><title>cluster5</title>
<polygon fill="none" stroke="black" points="415,-992 415,-1357 625,-1357 625,-992 415,-992"/>
<text text-anchor="middle" x="520" y="-1003.4" font-family="Times Roman,serif" font-size="24.00">4</text>
</g>
<g id="graph7" class="cluster"><title>cluster6</title>
<polygon fill="none" stroke="black" points="633,-992 633,-1357 843,-1357 843,-992 633,-992"/>
<text text-anchor="middle" x="738" y="-1003.4" font-family="Times Roman,serif" font-size="24.00">5</text>
</g>
<g id="graph8" class="cluster"><title>cluster7</title>
<polygon fill="none" stroke="black" points="851,-992 851,-1357 1061,-1357 1061,-992 851,-992"/>
<text text-anchor="middle" x="956" y="-1003.4" font-family="Times Roman,serif" font-size="24.00">6</text>
</g>
<g id="graph9" class="cluster"><title>cluster8</title>
<polygon fill="none" stroke="black" points="1230,-464 1230,-829 2334,-829 2334,-464 1230,-464"/>
<text text-anchor="middle" x="1782" y="-475.4" font-family="Times Roman,serif" font-size="24.00">7</text>
</g>
<!-- 24384944 -->
<g id="node3" class="node"><title>24384944</title>
<ellipse fill="firebrick" stroke="black" cx="1506" cy="-401" rx="241.123" ry="46.669"/>
<text text-anchor="middle" x="1506" y="-408.4" font-family="Times Roman,serif" font-size="24.00">exp: (snormal 100.000000)</text>
<text text-anchor="middle" x="1506" y="-379.4" font-family="Times Roman,serif" font-size="24.00">value: </text>
</g>
<!-- 28957120 -->
<g id="node11" class="node"><title>28957120</title>
<ellipse fill="gold" stroke="black" cx="1113" cy="-556" rx="101.116" ry="46.669"/>
<text text-anchor="middle" x="1113" y="-563.4" font-family="Times Roman,serif" font-size="24.00">exp: alpha</text>
<text text-anchor="middle" x="1113" y="-534.4" font-family="Times Roman,serif" font-size="24.00">value: </text>
</g>
<!-- 24384944&#45;&gt;28957120 -->
<g id="edge58" class="edge"><title>24384944&#45;&gt;28957120</title>
<path fill="none" stroke="black" d="M1348.77,-436.283C1285.18,-450.568 1226.41,-463.801 1226,-464 1203.5,-474.932 1181.53,-491.143 1163.03,-506.925"/>
<polygon fill="black" stroke="black" points="1160.55,-504.436 1155.32,-513.646 1165.16,-509.712 1160.55,-504.436"/>
</g>
<!-- 31197024 -->
<g id="node31" class="node"><title>31197024</title>
<ellipse fill="gold" stroke="black" cx="1899" cy="-556" rx="101.116" ry="46.669"/>
<text text-anchor="middle" x="1899" y="-563.4" font-family="Times Roman,serif" font-size="24.00">exp: alpha</text>
<text text-anchor="middle" x="1899" y="-534.4" font-family="Times Roman,serif" font-size="24.00">value: </text>
</g>
<!-- 24384944&#45;&gt;31197024 -->
<g id="edge76" class="edge"><title>24384944&#45;&gt;31197024</title>
<path fill="none" stroke="black" d="M1662.44,-436.446C1691.85,-443.017 1722.35,-449.769 1751,-456 1767.86,-459.668 1773.47,-456.462 1789,-464 1811.14,-474.752 1832.59,-490.922 1850.58,-506.722"/>
<polygon fill="black" stroke="black" points="1848.29,-509.371 1858.07,-513.453 1852.97,-504.165 1848.29,-509.371"/>
</g>
<!-- 31805840 -->
<g id="node4" class="node"><title>31805840</title>
<ellipse fill="#999999" stroke="black" cx="1506" cy="-292" rx="99.9096" ry="26.163"/>
<text text-anchor="middle" x="1506" y="-284.9" font-family="Times Roman,serif" font-size="24.00">request: []</text>
</g>
<!-- 31805840&#45;&gt;24384944 -->
<g id="edge20" class="edge"><title>31805840&#45;&gt;24384944</title>
<path fill="none" stroke="black" d="M1506,-318.108C1506,-325.979 1506,-334.946 1506,-344.005"/>
<polygon fill="black" stroke="black" points="1502.5,-344.218 1506,-354.218 1509.5,-344.218 1502.5,-344.218"/>
</g>
<!-- 30137280 -->
<g id="node5" class="node"><title>30137280</title>
<ellipse fill="#999999" stroke="black" cx="1664" cy="-183" rx="154.149" ry="46.669"/>
<text text-anchor="middle" x="1664" y="-190.4" font-family="Times Roman,serif" font-size="24.00">exp: snormal</text>
<text text-anchor="middle" x="1664" y="-161.4" font-family="Times Roman,serif" font-size="24.00">value: sp:normal</text>
</g>
<!-- 30137280&#45;&gt;24384944 -->
<g id="edge10" class="edge"><title>30137280&#45;&gt;24384944</title>
<path fill="none" stroke="black" d="M1654.12,-229.623C1646.63,-257.217 1634.28,-291.787 1615,-318 1606.47,-329.599 1595.88,-340.353 1584.68,-350.014"/>
<polygon fill="black" stroke="black" points="1582.3,-347.44 1576.85,-356.524 1586.78,-352.823 1582.3,-347.44"/>
</g>
<!-- 30137280&#45;&gt;31805840 -->
<g id="edge12" class="edge"><title>30137280&#45;&gt;31805840</title>
<path fill="none" stroke="black" d="M1602.01,-225.767C1584.65,-237.744 1566.14,-250.514 1550.05,-261.614"/>
<polygon fill="black" stroke="black" points="1547.62,-259.033 1541.38,-267.592 1551.6,-264.795 1547.62,-259.033"/>
</g>
<!-- 30136448 -->
<g id="node6" class="node"><title>30136448</title>
<ellipse fill="#999999" stroke="black" cx="1322" cy="-183" rx="169.913" ry="46.669"/>
<text text-anchor="middle" x="1322" y="-190.4" font-family="Times Roman,serif" font-size="24.00">exp: 100.000000</text>
<text text-anchor="middle" x="1322" y="-161.4" font-family="Times Roman,serif" font-size="24.00">value: 100.000000</text>
</g>
<!-- 30136448&#45;&gt;24384944 -->
<g id="edge16" class="edge"><title>30136448&#45;&gt;24384944</title>
<path fill="none" stroke="black" d="M1341.89,-229.45C1355.06,-256.982 1374.1,-291.547 1397,-318 1406.83,-329.359 1418.45,-340.165 1430.37,-350"/>
<polygon fill="black" stroke="black" points="1428.25,-352.783 1438.23,-356.319 1432.63,-347.326 1428.25,-352.783"/>
</g>
<!-- 30136448&#45;&gt;31805840 -->
<g id="edge18" class="edge"><title>30136448&#45;&gt;31805840</title>
<path fill="none" stroke="black" d="M1393.4,-225.298C1414.69,-237.909 1437.53,-251.438 1457.03,-262.993"/>
<polygon fill="black" stroke="black" points="1455.36,-266.067 1465.74,-268.153 1458.92,-260.045 1455.36,-266.067"/>
</g>
<!-- 29359040 -->
<g id="node8" class="node"><title>29359040</title>
<ellipse fill="gold" stroke="black" cx="729" cy="-774" rx="408.207" ry="46.669"/>
<text text-anchor="middle" x="729" y="-781.4" font-family="Times Roman,serif" font-size="24.00">exp: (make_sym_dir_mult_reg alpha 2.000000)</text>
<text text-anchor="middle" x="729" y="-752.4" font-family="Times Roman,serif" font-size="24.00">value: </text>
</g>
<!-- 27353328 -->
<g id="node14" class="node"><title>27353328</title>
<ellipse fill="gold" stroke="black" cx="729" cy="-929" rx="68.7979" ry="46.669"/>
<text text-anchor="middle" x="729" y="-936.4" font-family="Times Roman,serif" font-size="24.00">exp: f</text>
<text text-anchor="middle" x="729" y="-907.4" font-family="Times Roman,serif" font-size="24.00">value: </text>
</g>
<!-- 29359040&#45;&gt;27353328 -->
<g id="edge46" class="edge"><title>29359040&#45;&gt;27353328</title>
<path fill="none" stroke="black" d="M729,-820.505C729,-836.677 729,-855.005 729,-871.933"/>
<polygon fill="black" stroke="black" points="725.5,-872.26 729,-882.26 732.5,-872.26 725.5,-872.26"/>
</g>
<!-- 29327632 -->
<g id="node9" class="node"><title>29327632</title>
<ellipse fill="#63b8ff" stroke="black" cx="670" cy="-665" rx="99.9096" ry="26.163"/>
<text text-anchor="middle" x="670" y="-657.9" font-family="Times Roman,serif" font-size="24.00">request: []</text>
</g>
<!-- 29327632&#45;&gt;29359040 -->
<g id="edge64" class="edge"><title>29327632&#45;&gt;29359040</title>
<path fill="none" stroke="black" d="M683.982,-690.831C688.522,-699.218 693.747,-708.871 698.993,-718.564"/>
<polygon fill="black" stroke="black" points="695.96,-720.312 703.798,-727.441 702.116,-716.98 695.96,-720.312"/>
</g>
<!-- 29399760 -->
<g id="node10" class="node"><title>29399760</title>
<ellipse fill="#999999" stroke="black" cx="730" cy="-556" rx="263.958" ry="46.669"/>
<text text-anchor="middle" x="730" y="-563.4" font-family="Times Roman,serif" font-size="24.00">exp: make_sym_dir_mult_reg</text>
<text text-anchor="middle" x="730" y="-534.4" font-family="Times Roman,serif" font-size="24.00">value: sp:make_sym_dir_mult</text>
</g>
<!-- 29399760&#45;&gt;29359040 -->
<g id="edge48" class="edge"><title>29399760&#45;&gt;29359040</title>
<path fill="none" stroke="black" d="M763.137,-602.318C769.668,-613.786 775.561,-626.409 779,-639 785.09,-661.294 785.189,-668.733 779,-691 776.426,-700.263 772.509,-709.526 767.977,-718.328"/>
<polygon fill="black" stroke="black" points="764.79,-716.862 763.063,-727.315 770.932,-720.22 764.79,-716.862"/>
</g>
<!-- 29399760&#45;&gt;29327632 -->
<g id="edge50" class="edge"><title>29399760&#45;&gt;29327632</title>
<path fill="none" stroke="black" d="M704.381,-602.542C699.274,-611.818 693.995,-621.409 689.152,-630.207"/>
<polygon fill="black" stroke="black" points="686.044,-628.595 684.288,-639.043 692.177,-631.971 686.044,-628.595"/>
</g>
<!-- 28957120&#45;&gt;29359040 -->
<g id="edge54" class="edge"><title>28957120&#45;&gt;29359040</title>
<path fill="none" stroke="black" d="M1049.16,-592.243C986.065,-628.062 888.99,-683.172 818.271,-723.32"/>
<polygon fill="black" stroke="black" points="816.314,-720.406 809.346,-728.387 819.77,-726.494 816.314,-720.406"/>
</g>
<!-- 28957120&#45;&gt;29327632 -->
<g id="edge56" class="edge"><title>28957120&#45;&gt;29327632</title>
<path fill="none" stroke="black" d="M1041.65,-589.158C1028.96,-594.286 1015.72,-599.149 1003,-603 926.444,-626.174 837.234,-642.225 770.427,-652.18"/>
<polygon fill="black" stroke="black" points="769.706,-648.748 760.321,-653.665 770.724,-655.674 769.706,-648.748"/>
</g>
<!-- 25977504 -->
<g id="node12" class="node"><title>25977504</title>
<ellipse fill="#999999" stroke="black" cx="299" cy="-556" rx="149.2" ry="46.669"/>
<text text-anchor="middle" x="299" y="-563.4" font-family="Times Roman,serif" font-size="24.00">exp: 2.000000</text>
<text text-anchor="middle" x="299" y="-534.4" font-family="Times Roman,serif" font-size="24.00">value: 2.000000</text>
</g>
<!-- 25977504&#45;&gt;29359040 -->
<g id="edge60" class="edge"><title>25977504&#45;&gt;29359040</title>
<path fill="none" stroke="black" d="M375.636,-595.92C427.781,-622.976 498.415,-659.419 561,-691 582.442,-701.82 605.49,-713.302 627.433,-724.165"/>
<polygon fill="black" stroke="black" points="625.918,-727.32 636.433,-728.616 629.021,-721.046 625.918,-727.32"/>
</g>
<!-- 25977504&#45;&gt;29327632 -->
<g id="edge62" class="edge"><title>25977504&#45;&gt;29327632</title>
<path fill="none" stroke="black" d="M406.915,-588.193C423.678,-593.167 440.802,-598.233 457,-603 502.056,-616.259 552.518,-630.954 593.013,-642.709"/>
<polygon fill="black" stroke="black" points="592.239,-646.129 602.818,-645.554 594.19,-639.406 592.239,-646.129"/>
</g>
<!-- 26830576 -->
<g id="node18" class="node"><title>26830576</title>
<ellipse fill="gold" stroke="black" cx="530" cy="-1084" rx="68.7979" ry="46.669"/>
<text text-anchor="middle" x="530" y="-1091.4" font-family="Times Roman,serif" font-size="24.00">exp: g</text>
<text text-anchor="middle" x="530" y="-1062.4" font-family="Times Roman,serif" font-size="24.00">value: </text>
</g>
<!-- 27353328&#45;&gt;26830576 -->
<g id="edge42" class="edge"><title>27353328&#45;&gt;26830576</title>
<path fill="none" stroke="black" d="M676.63,-959.432C660.903,-969.244 643.884,-980.556 629,-992 610.773,-1006.01 591.994,-1022.78 575.757,-1038.14"/>
<polygon fill="black" stroke="black" points="573.302,-1035.64 568.486,-1045.08 578.136,-1040.7 573.302,-1035.64"/>
</g>
<!-- 27825008 -->
<g id="node22" class="node"><title>27825008</title>
<ellipse fill="gold" stroke="black" cx="729" cy="-1084" rx="68.7979" ry="46.669"/>
<text text-anchor="middle" x="729" y="-1091.4" font-family="Times Roman,serif" font-size="24.00">exp: g</text>
<text text-anchor="middle" x="729" y="-1062.4" font-family="Times Roman,serif" font-size="24.00">value: </text>
</g>
<!-- 27353328&#45;&gt;27825008 -->
<g id="edge34" class="edge"><title>27353328&#45;&gt;27825008</title>
<path fill="none" stroke="black" d="M729,-975.505C729,-991.677 729,-1010.01 729,-1026.93"/>
<polygon fill="black" stroke="black" points="725.5,-1027.26 729,-1037.26 732.5,-1027.26 725.5,-1027.26"/>
</g>
<!-- 26343136 -->
<g id="node26" class="node"><title>26343136</title>
<ellipse fill="gold" stroke="black" cx="928" cy="-1084" rx="68.7979" ry="46.669"/>
<text text-anchor="middle" x="928" y="-1091.4" font-family="Times Roman,serif" font-size="24.00">exp: g</text>
<text text-anchor="middle" x="928" y="-1062.4" font-family="Times Roman,serif" font-size="24.00">value: </text>
</g>
<!-- 27353328&#45;&gt;26343136 -->
<g id="edge26" class="edge"><title>27353328&#45;&gt;26343136</title>
<path fill="none" stroke="black" d="M786.767,-954.613C806.804,-964.819 828.792,-977.585 847,-992 862.345,-1004.15 877.118,-1019.44 889.751,-1034.05"/>
<polygon fill="black" stroke="black" points="887.407,-1036.7 896.538,-1042.08 892.751,-1032.18 887.407,-1036.7"/>
</g>
<!-- 26620336 -->
<g id="node16" class="node"><title>26620336</title>
<ellipse fill="gold" stroke="black" cx="515" cy="-1302" rx="77.0746" ry="46.669"/>
<text text-anchor="middle" x="515" y="-1309.4" font-family="Times Roman,serif" font-size="24.00">exp: (g)</text>
<text text-anchor="middle" x="515" y="-1280.4" font-family="Times Roman,serif" font-size="24.00">value: </text>
</g>
<!-- 28485744 -->
<g id="node17" class="node"><title>28485744</title>
<ellipse fill="gold" stroke="black" cx="530" cy="-1193" rx="87.1802" ry="26.163"/>
<text text-anchor="middle" x="530" y="-1185.9" font-family="Times Roman,serif" font-size="24.00">request: </text>
</g>
<!-- 28485744&#45;&gt;26620336 -->
<g id="edge44" class="edge"><title>28485744&#45;&gt;26620336</title>
<path fill="none" stroke="black" d="M526.407,-1219.11C525.3,-1227.16 524.034,-1236.35 522.759,-1245.62"/>
<polygon fill="black" stroke="black" points="519.275,-1245.27 521.379,-1255.65 526.209,-1246.22 519.275,-1245.27"/>
</g>
<!-- 26830576&#45;&gt;26620336 -->
<g id="edge38" class="edge"><title>26830576&#45;&gt;26620336</title>
<path fill="none" stroke="black" d="M478.484,-1115.19C460.991,-1128.73 443.484,-1146.26 434,-1167 424.388,-1188.02 425.286,-1197.59 434,-1219 439.854,-1233.38 449.53,-1246.63 460.195,-1258.12"/>
<polygon fill="black" stroke="black" points="457.825,-1260.7 467.316,-1265.41 462.834,-1255.81 457.825,-1260.7"/>
</g>
<!-- 26830576&#45;&gt;28485744 -->
<g id="edge40" class="edge"><title>26830576&#45;&gt;28485744</title>
<path fill="none" stroke="black" d="M530,-1130.54C530,-1139.25 530,-1148.23 530,-1156.58"/>
<polygon fill="black" stroke="black" points="526.5,-1156.74 530,-1166.74 533.5,-1156.74 526.5,-1156.74"/>
</g>
<!-- 26358576 -->
<g id="node20" class="node"><title>26358576</title>
<ellipse fill="gold" stroke="black" cx="733" cy="-1302" rx="77.0746" ry="46.669"/>
<text text-anchor="middle" x="733" y="-1309.4" font-family="Times Roman,serif" font-size="24.00">exp: (g)</text>
<text text-anchor="middle" x="733" y="-1280.4" font-family="Times Roman,serif" font-size="24.00">value: </text>
</g>
<!-- 26078976 -->
<g id="node21" class="node"><title>26078976</title>
<ellipse fill="gold" stroke="black" cx="748" cy="-1193" rx="87.1802" ry="26.163"/>
<text text-anchor="middle" x="748" y="-1185.9" font-family="Times Roman,serif" font-size="24.00">request: </text>
</g>
<!-- 26078976&#45;&gt;26358576 -->
<g id="edge36" class="edge"><title>26078976&#45;&gt;26358576</title>
<path fill="none" stroke="black" d="M744.407,-1219.11C743.3,-1227.16 742.034,-1236.35 740.759,-1245.62"/>
<polygon fill="black" stroke="black" points="737.275,-1245.27 739.379,-1255.65 744.209,-1246.22 737.275,-1245.27"/>
</g>
<!-- 27825008&#45;&gt;26358576 -->
<g id="edge30" class="edge"><title>27825008&#45;&gt;26358576</title>
<path fill="none" stroke="black" d="M684.847,-1119.74C671.707,-1133.04 658.965,-1149.25 652,-1167 643.557,-1188.51 643.286,-1197.59 652,-1219 657.854,-1233.38 667.53,-1246.63 678.195,-1258.12"/>
<polygon fill="black" stroke="black" points="675.825,-1260.7 685.316,-1265.41 680.834,-1255.81 675.825,-1260.7"/>
</g>
<!-- 27825008&#45;&gt;26078976 -->
<g id="edge32" class="edge"><title>27825008&#45;&gt;26078976</title>
<path fill="none" stroke="black" d="M737.058,-1130.23C738.611,-1139.14 740.217,-1148.35 741.704,-1156.88"/>
<polygon fill="black" stroke="black" points="738.282,-1157.63 743.448,-1166.88 745.178,-1156.43 738.282,-1157.63"/>
</g>
<!-- 25906208 -->
<g id="node24" class="node"><title>25906208</title>
<ellipse fill="gold" stroke="black" cx="951" cy="-1302" rx="77.0746" ry="46.669"/>
<text text-anchor="middle" x="951" y="-1309.4" font-family="Times Roman,serif" font-size="24.00">exp: (g)</text>
<text text-anchor="middle" x="951" y="-1280.4" font-family="Times Roman,serif" font-size="24.00">value: </text>
</g>
<!-- 26820352 -->
<g id="node25" class="node"><title>26820352</title>
<ellipse fill="gold" stroke="black" cx="966" cy="-1193" rx="87.1802" ry="26.163"/>
<text text-anchor="middle" x="966" y="-1185.9" font-family="Times Roman,serif" font-size="24.00">request: </text>
</g>
<!-- 26820352&#45;&gt;25906208 -->
<g id="edge28" class="edge"><title>26820352&#45;&gt;25906208</title>
<path fill="none" stroke="black" d="M962.407,-1219.11C961.3,-1227.16 960.034,-1236.35 958.759,-1245.62"/>
<polygon fill="black" stroke="black" points="955.275,-1245.27 957.379,-1255.65 962.209,-1246.22 955.275,-1245.27"/>
</g>
<!-- 26343136&#45;&gt;25906208 -->
<g id="edge22" class="edge"><title>26343136&#45;&gt;25906208</title>
<path fill="none" stroke="black" d="M892.458,-1124.4C883.329,-1137.17 874.75,-1151.91 870,-1167 863.061,-1189.04 861.286,-1197.59 870,-1219 875.854,-1233.38 885.53,-1246.63 896.195,-1258.12"/>
<polygon fill="black" stroke="black" points="893.825,-1260.7 903.316,-1265.41 898.834,-1255.81 893.825,-1260.7"/>
</g>
<!-- 26343136&#45;&gt;26820352 -->
<g id="edge24" class="edge"><title>26343136&#45;&gt;26820352</title>
<path fill="none" stroke="black" d="M943.785,-1129.28C947.045,-1138.63 950.434,-1148.35 953.555,-1157.3"/>
<polygon fill="black" stroke="black" points="950.346,-1158.73 956.943,-1167.02 956.955,-1156.42 950.346,-1158.73"/>
</g>
<!-- 32104320 -->
<g id="node28" class="node"><title>32104320</title>
<ellipse fill="gold" stroke="black" cx="1779" cy="-774" rx="382.752" ry="46.669"/>
<text text-anchor="middle" x="1779" y="-781.4" font-family="Times Roman,serif" font-size="24.00">exp: (branch_exp alpha (quote g) (quote g))</text>
<text text-anchor="middle" x="1779" y="-752.4" font-family="Times Roman,serif" font-size="24.00">value: </text>
</g>
<!-- 26832768 -->
<g id="node29" class="node"><title>26832768</title>
<ellipse fill="gold" stroke="black" cx="1779" cy="-665" rx="87.1802" ry="26.163"/>
<text text-anchor="middle" x="1779" y="-657.9" font-family="Times Roman,serif" font-size="24.00">request: </text>
</g>
<!-- 26832768&#45;&gt;32104320 -->
<g id="edge86" class="edge"><title>26832768&#45;&gt;32104320</title>
<path fill="none" stroke="black" d="M1779,-691.108C1779,-698.979 1779,-707.946 1779,-717.005"/>
<polygon fill="black" stroke="black" points="1775.5,-717.218 1779,-727.218 1782.5,-717.218 1775.5,-717.218"/>
</g>
<!-- 28401456 -->
<g id="node30" class="node"><title>28401456</title>
<ellipse fill="#999999" stroke="black" cx="2172" cy="-556" rx="154.149" ry="46.669"/>
<text text-anchor="middle" x="2172" y="-563.4" font-family="Times Roman,serif" font-size="24.00">exp: branch_exp</text>
<text text-anchor="middle" x="2172" y="-534.4" font-family="Times Roman,serif" font-size="24.00">value: sp:branch</text>
</g>
<!-- 28401456&#45;&gt;32104320 -->
<g id="edge66" class="edge"><title>28401456&#45;&gt;32104320</title>
<path fill="none" stroke="black" d="M2098.08,-597.004C2033.36,-632.902 1939.12,-685.183 1869.82,-723.62"/>
<polygon fill="black" stroke="black" points="1868.12,-720.562 1861.07,-728.473 1871.52,-726.683 1868.12,-720.562"/>
</g>
<!-- 28401456&#45;&gt;26832768 -->
<g id="edge68" class="edge"><title>28401456&#45;&gt;26832768</title>
<path fill="none" stroke="black" d="M2060.72,-588.367C2043.42,-593.318 2025.74,-598.331 2009,-603 1957.41,-617.389 1899.16,-633.085 1854.19,-645.085"/>
<polygon fill="black" stroke="black" points="1853.28,-641.707 1844.51,-647.664 1855.08,-648.47 1853.28,-641.707"/>
</g>
<!-- 31197024&#45;&gt;32104320 -->
<g id="edge72" class="edge"><title>31197024&#45;&gt;32104320</title>
<path fill="none" stroke="black" d="M1898.37,-602.682C1896.2,-629.969 1890.24,-664.2 1875,-691 1868.9,-701.731 1860.87,-711.739 1852.05,-720.829"/>
<polygon fill="black" stroke="black" points="1849.52,-718.414 1844.83,-727.917 1854.42,-723.41 1849.52,-718.414"/>
</g>
<!-- 31197024&#45;&gt;26832768 -->
<g id="edge74" class="edge"><title>31197024&#45;&gt;26832768</title>
<path fill="none" stroke="black" d="M1853.29,-597.519C1840.24,-609.377 1826.22,-622.105 1813.93,-633.276"/>
<polygon fill="black" stroke="black" points="1811.56,-630.695 1806.51,-640.009 1816.27,-635.876 1811.56,-630.695"/>
</g>
<!-- 33146560 -->
<g id="node32" class="node"><title>33146560</title>
<ellipse fill="#999999" stroke="black" cx="1649" cy="-556" rx="131.022" ry="46.669"/>
<text text-anchor="middle" x="1649" y="-563.4" font-family="Times Roman,serif" font-size="24.00">exp: (quote g)</text>
<text text-anchor="middle" x="1649" y="-534.4" font-family="Times Roman,serif" font-size="24.00">value: g</text>
</g>
<!-- 33146560&#45;&gt;32104320 -->
<g id="edge78" class="edge"><title>33146560&#45;&gt;32104320</title>
<path fill="none" stroke="black" d="M1653.62,-602.479C1658.01,-629.857 1666.52,-664.251 1683,-691 1689.57,-701.656 1697.95,-711.67 1707.01,-720.802"/>
<polygon fill="black" stroke="black" points="1704.78,-723.511 1714.41,-727.933 1709.64,-718.472 1704.78,-723.511"/>
</g>
<!-- 33146560&#45;&gt;26832768 -->
<g id="edge80" class="edge"><title>33146560&#45;&gt;26832768</title>
<path fill="none" stroke="black" d="M1700.38,-599.08C1714.25,-610.71 1728.99,-623.066 1741.91,-633.899"/>
<polygon fill="black" stroke="black" points="1739.78,-636.685 1749.69,-640.428 1744.28,-631.321 1739.78,-636.685"/>
</g>
<!-- 31366272 -->
<g id="node33" class="node"><title>31366272</title>
<ellipse fill="#999999" stroke="black" cx="1369" cy="-556" rx="131.022" ry="46.669"/>
<text text-anchor="middle" x="1369" y="-563.4" font-family="Times Roman,serif" font-size="24.00">exp: (quote g)</text>
<text text-anchor="middle" x="1369" y="-534.4" font-family="Times Roman,serif" font-size="24.00">value: g</text>
</g>
<!-- 31366272&#45;&gt;32104320 -->
<g id="edge82" class="edge"><title>31366272&#45;&gt;32104320</title>
<path fill="none" stroke="black" d="M1441.83,-594.723C1509.6,-630.759 1610.98,-684.66 1684.87,-723.948"/>
<polygon fill="black" stroke="black" points="1683.26,-727.061 1693.74,-728.665 1686.55,-720.88 1683.26,-727.061"/>
</g>
<!-- 31366272&#45;&gt;26832768 -->
<g id="edge84" class="edge"><title>31366272&#45;&gt;26832768</title>
<path fill="none" stroke="black" d="M1462.36,-588.756C1477.86,-593.786 1493.82,-598.721 1509,-603 1571.53,-620.631 1643.26,-636.919 1697.06,-648.372"/>
<polygon fill="black" stroke="black" points="1696.38,-651.806 1706.89,-650.454 1697.83,-644.958 1696.38,-651.806"/>
</g>
<!-- 24862048 -->
<g id="node36" class="node"><title>24862048</title>
<ellipse fill="none" stroke="black" cx="1664" cy="-19" rx="62.9325" ry="18.3848"/>
<text text-anchor="middle" x="1664" y="-15.4" font-family="Times Roman,serif" font-size="14.00">24862048</text>
</g>
<!-- 24862048&#45;&gt;30137280 -->
<g id="edge14" class="edge"><title>24862048&#45;&gt;30137280</title>
<path fill="none" stroke="black" d="M1664,-37.8129C1664,-59.2806 1664,-95.4093 1664,-126.255"/>
<polygon fill="black" stroke="black" points="1660.5,-126.484 1664,-136.484 1667.5,-126.484 1660.5,-126.484"/>
</g>
<!-- 33250416 -->
<g id="node56" class="node"><title>33250416</title>
<ellipse fill="none" stroke="black" cx="63" cy="-401" rx="62.9325" ry="18.3848"/>
<text text-anchor="middle" x="63" y="-397.4" font-family="Times Roman,serif" font-size="14.00">33250416</text>
</g>
<!-- 33250416&#45;&gt;29399760 -->
<g id="edge52" class="edge"><title>33250416&#45;&gt;29399760</title>
<path fill="none" stroke="black" d="M122.356,-407.367C200.012,-416.406 339.974,-435.138 457,-464 507.541,-476.465 562.11,-494.001 609.079,-510.425"/>
<polygon fill="black" stroke="black" points="608.08,-513.783 618.674,-513.801 610.403,-507.18 608.08,-513.783"/>
</g>
<!-- 30787232 -->
<g id="node66" class="node"><title>30787232</title>
<ellipse fill="none" stroke="black" cx="2413" cy="-401" rx="62.9325" ry="18.3848"/>
<text text-anchor="middle" x="2413" y="-397.4" font-family="Times Roman,serif" font-size="14.00">30787232</text>
</g>
<!-- 30787232&#45;&gt;28401456 -->
<g id="edge70" class="edge"><title>30787232&#45;&gt;28401456</title>
<path fill="none" stroke="black" d="M2386.75,-417.883C2353.26,-439.422 2293.95,-477.569 2246.13,-508.323"/>
<polygon fill="black" stroke="black" points="2244.17,-505.424 2237.65,-513.778 2247.95,-511.312 2244.17,-505.424"/>
</g>
</g>
</svg>
