<?xml version="1.0" encoding="UTF-8" standalone="no"?>
<!DOCTYPE svg PUBLIC "-//W3C//DTD SVG 1.1//EN"
 "http://www.w3.org/Graphics/SVG/1.1/DTD/svg11.dtd">
<!-- Generated by graphviz version 2.26.3 (20100126.1600)
 -->
<!-- Title: _anonymous_0 Pages: 1 -->
<svg width="2484pt" height="1381pt"
 viewBox="0.00 0.00 2484.00 1381.00" xmlns="http://www.w3.org/2000/svg" xmlns:xlink="http://www.w3.org/1999/xlink">
<g id="graph1" class="graph" transform="scale(1 1) rotate(0) translate(4 1377)">
<title>_anonymous_0</title>
<polygon fill="white" stroke="white" points="-4,5 -4,-1377 2481,-1377 2481,5 -4,5"/>
<g id="graph2" class="cluster"><title>cluster1</title>
<polygon fill="none" stroke="black" points="134,-46 134,-1365 2342,-1365 2342,-46 134,-46"/>
<text text-anchor="middle" x="1238" y="-57.4" font-family="Times Roman,serif" font-size="24.00">Venture Families</text>
</g>
<g id="graph3" class="cluster"><title>cluster2</title>
<polygon fill="none" stroke="black" points="1046,-91 1046,-456 1728,-456 1728,-91 1046,-91"/>
<text text-anchor="middle" x="1387" y="-102.4" font-family="Times Roman,serif" font-size="24.00">1</text>
</g>
<g id="graph4" class="cluster"><title>cluster3</title>
<polygon fill="none" stroke="black" points="1254,-464 1254,-829 2334,-829 2334,-464 1254,-464"/>
<text text-anchor="middle" x="1794" y="-475.4" font-family="Times Roman,serif" font-size="24.00">2</text>
</g>
<g id="graph5" class="cluster"><title>cluster4</title>
<polygon fill="none" stroke="black" points="1625,-837 1625,-984 1779,-984 1779,-837 1625,-837"/>
<text text-anchor="middle" x="1702" y="-848.4" font-family="Times Roman,serif" font-size="24.00">3</text>
</g>
<g id="graph6" class="cluster"><title>cluster5</title>
<polygon fill="none" stroke="black" points="1388,-992 1388,-1357 1598,-1357 1598,-992 1388,-992"/>
<text text-anchor="middle" x="1493" y="-1003.4" font-family="Times Roman,serif" font-size="24.00">4</text>
</g>
<g id="graph7" class="cluster"><title>cluster6</title>
<polygon fill="none" stroke="black" points="1606,-992 1606,-1357 1816,-1357 1816,-992 1606,-992"/>
<text text-anchor="middle" x="1711" y="-1003.4" font-family="Times Roman,serif" font-size="24.00">5</text>
</g>
<g id="graph8" class="cluster"><title>cluster7</title>
<polygon fill="none" stroke="black" points="1824,-992 1824,-1357 2034,-1357 2034,-992 1824,-992"/>
<text text-anchor="middle" x="1929" y="-1003.4" font-family="Times Roman,serif" font-size="24.00">6</text>
</g>
<g id="graph9" class="cluster"><title>cluster8</title>
<polygon fill="none" stroke="black" points="142,-464 142,-829 1246,-829 1246,-464 142,-464"/>
<text text-anchor="middle" x="694" y="-475.4" font-family="Times Roman,serif" font-size="24.00">7</text>
</g>
<!-- 19555728 -->
<g id="node3" class="node"><title>19555728</title>
<ellipse fill="firebrick" stroke="black" cx="1408" cy="-401" rx="241.123" ry="46.669"/>
<text text-anchor="middle" x="1408" y="-408.4" font-family="Times Roman,serif" font-size="24.00">exp: (snormal 100.000000)</text>
<text text-anchor="middle" x="1408" y="-379.4" font-family="Times Roman,serif" font-size="24.00">value: </text>
</g>
<!-- 21594288 -->
<g id="node11" class="node"><title>21594288</title>
<ellipse fill="gold" stroke="black" cx="1679" cy="-556" rx="101.116" ry="46.669"/>
<text text-anchor="middle" x="1679" y="-563.4" font-family="Times Roman,serif" font-size="24.00">exp: alpha</text>
<text text-anchor="middle" x="1679" y="-534.4" font-family="Times Roman,serif" font-size="24.00">value: </text>
</g>
<!-- 19555728&#45;&gt;21594288 -->
<g id="edge80" class="edge"><title>19555728&#45;&gt;21594288</title>
<path fill="none" stroke="black" d="M1525.34,-441.724C1540.39,-448.442 1555.31,-455.893 1569,-464 1589.43,-476.103 1609.91,-491.96 1627.56,-507.093"/>
<polygon fill="black" stroke="black" points="1625.63,-510.048 1635.47,-513.979 1630.23,-504.771 1625.63,-510.048"/>
</g>
<!-- 21585232 -->
<g id="node31" class="node"><title>21585232</title>
<ellipse fill="gold" stroke="black" cx="1137" cy="-556" rx="101.116" ry="46.669"/>
<text text-anchor="middle" x="1137" y="-563.4" font-family="Times Roman,serif" font-size="24.00">exp: alpha</text>
<text text-anchor="middle" x="1137" y="-534.4" font-family="Times Roman,serif" font-size="24.00">value: </text>
</g>
<!-- 19555728&#45;&gt;21585232 -->
<g id="edge20" class="edge"><title>19555728&#45;&gt;21585232</title>
<path fill="none" stroke="black" d="M1292.97,-442.057C1278.17,-448.722 1263.49,-456.069 1250,-464 1229.01,-476.338 1207.83,-492.403 1189.57,-507.649"/>
<polygon fill="black" stroke="black" points="1187.3,-504.985 1181.93,-514.12 1191.82,-510.326 1187.3,-504.985"/>
</g>
<!-- 21569072 -->
<g id="node4" class="node"><title>21569072</title>
<ellipse fill="#999999" stroke="black" cx="1408" cy="-292" rx="99.9096" ry="26.163"/>
<text text-anchor="middle" x="1408" y="-284.9" font-family="Times Roman,serif" font-size="24.00">request: []</text>
</g>
<!-- 21569072&#45;&gt;19555728 -->
<g id="edge42" class="edge"><title>21569072&#45;&gt;19555728</title>
<path fill="none" stroke="black" d="M1408,-318.108C1408,-325.979 1408,-334.946 1408,-344.005"/>
<polygon fill="black" stroke="black" points="1404.5,-344.218 1408,-354.218 1411.5,-344.218 1404.5,-344.218"/>
</g>
<!-- 21285312 -->
<g id="node5" class="node"><title>21285312</title>
<ellipse fill="#999999" stroke="black" cx="1566" cy="-183" rx="154.149" ry="46.669"/>
<text text-anchor="middle" x="1566" y="-190.4" font-family="Times Roman,serif" font-size="24.00">exp: snormal</text>
<text text-anchor="middle" x="1566" y="-161.4" font-family="Times Roman,serif" font-size="24.00">value: sp:normal</text>
</g>
<!-- 21285312&#45;&gt;19555728 -->
<g id="edge32" class="edge"><title>21285312&#45;&gt;19555728</title>
<path fill="none" stroke="black" d="M1556.12,-229.623C1548.63,-257.217 1536.28,-291.787 1517,-318 1508.47,-329.599 1497.88,-340.353 1486.68,-350.014"/>
<polygon fill="black" stroke="black" points="1484.3,-347.44 1478.85,-356.524 1488.78,-352.823 1484.3,-347.44"/>
</g>
<!-- 21285312&#45;&gt;21569072 -->
<g id="edge34" class="edge"><title>21285312&#45;&gt;21569072</title>
<path fill="none" stroke="black" d="M1504.01,-225.767C1486.65,-237.744 1468.14,-250.514 1452.05,-261.614"/>
<polygon fill="black" stroke="black" points="1449.62,-259.033 1443.38,-267.592 1453.6,-264.795 1449.62,-259.033"/>
</g>
<!-- 17556832 -->
<g id="node6" class="node"><title>17556832</title>
<ellipse fill="#999999" stroke="black" cx="1224" cy="-183" rx="169.913" ry="46.669"/>
<text text-anchor="middle" x="1224" y="-190.4" font-family="Times Roman,serif" font-size="24.00">exp: 100.000000</text>
<text text-anchor="middle" x="1224" y="-161.4" font-family="Times Roman,serif" font-size="24.00">value: 100.000000</text>
</g>
<!-- 17556832&#45;&gt;19555728 -->
<g id="edge38" class="edge"><title>17556832&#45;&gt;19555728</title>
<path fill="none" stroke="black" d="M1243.89,-229.45C1257.06,-256.982 1276.1,-291.547 1299,-318 1308.83,-329.359 1320.45,-340.165 1332.37,-350"/>
<polygon fill="black" stroke="black" points="1330.25,-352.783 1340.23,-356.319 1334.63,-347.326 1330.25,-352.783"/>
</g>
<!-- 17556832&#45;&gt;21569072 -->
<g id="edge40" class="edge"><title>17556832&#45;&gt;21569072</title>
<path fill="none" stroke="black" d="M1295.4,-225.298C1316.69,-237.909 1339.53,-251.438 1359.03,-262.993"/>
<polygon fill="black" stroke="black" points="1357.36,-266.067 1367.74,-268.153 1360.92,-260.045 1357.36,-266.067"/>
</g>
<!-- 22140848 -->
<g id="node8" class="node"><title>22140848</title>
<ellipse fill="gold" stroke="black" cx="1702" cy="-774" rx="408.207" ry="46.669"/>
<text text-anchor="middle" x="1702" y="-781.4" font-family="Times Roman,serif" font-size="24.00">exp: (make_sym_dir_mult_reg alpha 2.000000)</text>
<text text-anchor="middle" x="1702" y="-752.4" font-family="Times Roman,serif" font-size="24.00">value: </text>
</g>
<!-- 21280336 -->
<g id="node14" class="node"><title>21280336</title>
<ellipse fill="gold" stroke="black" cx="1702" cy="-929" rx="68.7979" ry="46.669"/>
<text text-anchor="middle" x="1702" y="-936.4" font-family="Times Roman,serif" font-size="24.00">exp: f</text>
<text text-anchor="middle" x="1702" y="-907.4" font-family="Times Roman,serif" font-size="24.00">value: </text>
</g>
<!-- 22140848&#45;&gt;21280336 -->
<g id="edge68" class="edge"><title>22140848&#45;&gt;21280336</title>
<path fill="none" stroke="black" d="M1702,-820.505C1702,-836.677 1702,-855.005 1702,-871.933"/>
<polygon fill="black" stroke="black" points="1698.5,-872.26 1702,-882.26 1705.5,-872.26 1698.5,-872.26"/>
</g>
<!-- 19964176 -->
<g id="node9" class="node"><title>19964176</title>
<ellipse fill="#63b8ff" stroke="black" cx="1734" cy="-665" rx="99.9096" ry="26.163"/>
<text text-anchor="middle" x="1734" y="-657.9" font-family="Times Roman,serif" font-size="24.00">request: []</text>
</g>
<!-- 19964176&#45;&gt;22140848 -->
<g id="edge86" class="edge"><title>19964176&#45;&gt;22140848</title>
<path fill="none" stroke="black" d="M1726.34,-691.108C1723.97,-699.148 1721.28,-708.332 1718.56,-717.589"/>
<polygon fill="black" stroke="black" points="1715.19,-716.637 1715.73,-727.218 1721.91,-718.609 1715.19,-716.637"/>
</g>
<!-- 20536048 -->
<g id="node10" class="node"><title>20536048</title>
<ellipse fill="#999999" stroke="black" cx="2062" cy="-556" rx="263.958" ry="46.669"/>
<text text-anchor="middle" x="2062" y="-563.4" font-family="Times Roman,serif" font-size="24.00">exp: make_sym_dir_mult_reg</text>
<text text-anchor="middle" x="2062" y="-534.4" font-family="Times Roman,serif" font-size="24.00">value: sp:make_sym_dir_mult</text>
</g>
<!-- 20536048&#45;&gt;22140848 -->
<g id="edge70" class="edge"><title>20536048&#45;&gt;22140848</title>
<path fill="none" stroke="black" d="M1990.22,-600.756C1947.58,-627.22 1892.35,-661.267 1843,-691 1825.65,-701.456 1807.02,-712.528 1789.17,-723.062"/>
<polygon fill="black" stroke="black" points="1787.32,-720.092 1780.48,-728.186 1790.87,-726.122 1787.32,-720.092"/>
</g>
<!-- 20536048&#45;&gt;19964176 -->
<g id="edge72" class="edge"><title>20536048&#45;&gt;19964176</title>
<path fill="none" stroke="black" d="M1938,-597.208C1893.18,-612.103 1844.11,-628.408 1805.33,-641.294"/>
<polygon fill="black" stroke="black" points="1804.09,-638.019 1795.71,-644.494 1806.3,-644.662 1804.09,-638.019"/>
</g>
<!-- 21594288&#45;&gt;22140848 -->
<g id="edge76" class="edge"><title>21594288&#45;&gt;22140848</title>
<path fill="none" stroke="black" d="M1643.91,-599.742C1636.16,-611.787 1629.06,-625.321 1625,-639 1618.43,-661.157 1616.56,-669.486 1625,-691 1629.01,-701.226 1634.94,-710.944 1641.76,-719.887"/>
<polygon fill="black" stroke="black" points="1639.23,-722.316 1648.25,-727.874 1644.66,-717.905 1639.23,-722.316"/>
</g>
<!-- 21594288&#45;&gt;19964176 -->
<g id="edge78" class="edge"><title>21594288&#45;&gt;19964176</title>
<path fill="none" stroke="black" d="M1702.01,-601.594C1706.81,-611.12 1711.81,-621.018 1716.38,-630.083"/>
<polygon fill="black" stroke="black" points="1713.34,-631.826 1720.97,-639.177 1719.59,-628.673 1713.34,-631.826"/>
</g>
<!-- 21669504 -->
<g id="node12" class="node"><title>21669504</title>
<ellipse fill="#999999" stroke="black" cx="1411" cy="-556" rx="149.2" ry="46.669"/>
<text text-anchor="middle" x="1411" y="-563.4" font-family="Times Roman,serif" font-size="24.00">exp: 2.000000</text>
<text text-anchor="middle" x="1411" y="-534.4" font-family="Times Roman,serif" font-size="24.00">value: 2.000000</text>
</g>
<!-- 21669504&#45;&gt;22140848 -->
<g id="edge82" class="edge"><title>21669504&#45;&gt;22140848</title>
<path fill="none" stroke="black" d="M1468.49,-599.07C1515.56,-634.332 1582.32,-684.341 1632.4,-721.863"/>
<polygon fill="black" stroke="black" points="1630.51,-724.815 1640.61,-728.009 1634.7,-719.212 1630.51,-724.815"/>
</g>
<!-- 21669504&#45;&gt;19964176 -->
<g id="edge84" class="edge"><title>21669504&#45;&gt;19964176</title>
<path fill="none" stroke="black" d="M1512.31,-590.189C1561.26,-606.708 1618.82,-626.133 1663.02,-641.048"/>
<polygon fill="black" stroke="black" points="1661.93,-644.374 1672.53,-644.255 1664.17,-637.742 1661.93,-644.374"/>
</g>
<!-- 19263232 -->
<g id="node18" class="node"><title>19263232</title>
<ellipse fill="gold" stroke="black" cx="1503" cy="-1084" rx="68.7979" ry="46.669"/>
<text text-anchor="middle" x="1503" y="-1091.4" font-family="Times Roman,serif" font-size="24.00">exp: g</text>
<text text-anchor="middle" x="1503" y="-1062.4" font-family="Times Roman,serif" font-size="24.00">value: </text>
</g>
<!-- 21280336&#45;&gt;19263232 -->
<g id="edge64" class="edge"><title>21280336&#45;&gt;19263232</title>
<path fill="none" stroke="black" d="M1649.63,-959.432C1633.9,-969.244 1616.88,-980.556 1602,-992 1583.77,-1006.01 1564.99,-1022.78 1548.76,-1038.14"/>
<polygon fill="black" stroke="black" points="1546.3,-1035.64 1541.49,-1045.08 1551.14,-1040.7 1546.3,-1035.64"/>
</g>
<!-- 21008016 -->
<g id="node22" class="node"><title>21008016</title>
<ellipse fill="gold" stroke="black" cx="1702" cy="-1084" rx="68.7979" ry="46.669"/>
<text text-anchor="middle" x="1702" y="-1091.4" font-family="Times Roman,serif" font-size="24.00">exp: g</text>
<text text-anchor="middle" x="1702" y="-1062.4" font-family="Times Roman,serif" font-size="24.00">value: </text>
</g>
<!-- 21280336&#45;&gt;21008016 -->
<g id="edge56" class="edge"><title>21280336&#45;&gt;21008016</title>
<path fill="none" stroke="black" d="M1702,-975.505C1702,-991.677 1702,-1010.01 1702,-1026.93"/>
<polygon fill="black" stroke="black" points="1698.5,-1027.26 1702,-1037.26 1705.5,-1027.26 1698.5,-1027.26"/>
</g>
<!-- 20003376 -->
<g id="node26" class="node"><title>20003376</title>
<ellipse fill="gold" stroke="black" cx="1901" cy="-1084" rx="68.7979" ry="46.669"/>
<text text-anchor="middle" x="1901" y="-1091.4" font-family="Times Roman,serif" font-size="24.00">exp: g</text>
<text text-anchor="middle" x="1901" y="-1062.4" font-family="Times Roman,serif" font-size="24.00">value: </text>
</g>
<!-- 21280336&#45;&gt;20003376 -->
<g id="edge48" class="edge"><title>21280336&#45;&gt;20003376</title>
<path fill="none" stroke="black" d="M1759.77,-954.613C1779.8,-964.819 1801.79,-977.585 1820,-992 1835.34,-1004.15 1850.12,-1019.44 1862.75,-1034.05"/>
<polygon fill="black" stroke="black" points="1860.41,-1036.7 1869.54,-1042.08 1865.75,-1032.18 1860.41,-1036.7"/>
</g>
<!-- 21253792 -->
<g id="node16" class="node"><title>21253792</title>
<ellipse fill="gold" stroke="black" cx="1488" cy="-1302" rx="77.0746" ry="46.669"/>
<text text-anchor="middle" x="1488" y="-1309.4" font-family="Times Roman,serif" font-size="24.00">exp: (g)</text>
<text text-anchor="middle" x="1488" y="-1280.4" font-family="Times Roman,serif" font-size="24.00">value: </text>
</g>
<!-- 20544160 -->
<g id="node17" class="node"><title>20544160</title>
<ellipse fill="gold" stroke="black" cx="1503" cy="-1193" rx="87.1802" ry="26.163"/>
<text text-anchor="middle" x="1503" y="-1185.9" font-family="Times Roman,serif" font-size="24.00">request: </text>
</g>
<!-- 20544160&#45;&gt;21253792 -->
<g id="edge66" class="edge"><title>20544160&#45;&gt;21253792</title>
<path fill="none" stroke="black" d="M1499.41,-1219.11C1498.3,-1227.16 1497.03,-1236.35 1495.76,-1245.62"/>
<polygon fill="black" stroke="black" points="1492.27,-1245.27 1494.38,-1255.65 1499.21,-1246.22 1492.27,-1245.27"/>
</g>
<!-- 19263232&#45;&gt;21253792 -->
<g id="edge60" class="edge"><title>19263232&#45;&gt;21253792</title>
<path fill="none" stroke="black" d="M1451.48,-1115.19C1433.99,-1128.73 1416.48,-1146.26 1407,-1167 1397.39,-1188.02 1398.29,-1197.59 1407,-1219 1412.85,-1233.38 1422.53,-1246.63 1433.19,-1258.12"/>
<polygon fill="black" stroke="black" points="1430.83,-1260.7 1440.32,-1265.41 1435.83,-1255.81 1430.83,-1260.7"/>
</g>
<!-- 19263232&#45;&gt;20544160 -->
<g id="edge62" class="edge"><title>19263232&#45;&gt;20544160</title>
<path fill="none" stroke="black" d="M1503,-1130.54C1503,-1139.25 1503,-1148.23 1503,-1156.58"/>
<polygon fill="black" stroke="black" points="1499.5,-1156.74 1503,-1166.74 1506.5,-1156.74 1499.5,-1156.74"/>
</g>
<!-- 21054944 -->
<g id="node20" class="node"><title>21054944</title>
<ellipse fill="gold" stroke="black" cx="1706" cy="-1302" rx="77.0746" ry="46.669"/>
<text text-anchor="middle" x="1706" y="-1309.4" font-family="Times Roman,serif" font-size="24.00">exp: (g)</text>
<text text-anchor="middle" x="1706" y="-1280.4" font-family="Times Roman,serif" font-size="24.00">value: </text>
</g>
<!-- 19161760 -->
<g id="node21" class="node"><title>19161760</title>
<ellipse fill="gold" stroke="black" cx="1721" cy="-1193" rx="87.1802" ry="26.163"/>
<text text-anchor="middle" x="1721" y="-1185.9" font-family="Times Roman,serif" font-size="24.00">request: </text>
</g>
<!-- 19161760&#45;&gt;21054944 -->
<g id="edge58" class="edge"><title>19161760&#45;&gt;21054944</title>
<path fill="none" stroke="black" d="M1717.41,-1219.11C1716.3,-1227.16 1715.03,-1236.35 1713.76,-1245.62"/>
<polygon fill="black" stroke="black" points="1710.27,-1245.27 1712.38,-1255.65 1717.21,-1246.22 1710.27,-1245.27"/>
</g>
<!-- 21008016&#45;&gt;21054944 -->
<g id="edge52" class="edge"><title>21008016&#45;&gt;21054944</title>
<path fill="none" stroke="black" d="M1657.85,-1119.74C1644.71,-1133.04 1631.96,-1149.25 1625,-1167 1616.56,-1188.51 1616.29,-1197.59 1625,-1219 1630.85,-1233.38 1640.53,-1246.63 1651.19,-1258.12"/>
<polygon fill="black" stroke="black" points="1648.83,-1260.7 1658.32,-1265.41 1653.83,-1255.81 1648.83,-1260.7"/>
</g>
<!-- 21008016&#45;&gt;19161760 -->
<g id="edge54" class="edge"><title>21008016&#45;&gt;19161760</title>
<path fill="none" stroke="black" d="M1710.06,-1130.23C1711.61,-1139.14 1713.22,-1148.35 1714.7,-1156.88"/>
<polygon fill="black" stroke="black" points="1711.28,-1157.63 1716.45,-1166.88 1718.18,-1156.43 1711.28,-1157.63"/>
</g>
<!-- 20657840 -->
<g id="node24" class="node"><title>20657840</title>
<ellipse fill="gold" stroke="black" cx="1924" cy="-1302" rx="77.0746" ry="46.669"/>
<text text-anchor="middle" x="1924" y="-1309.4" font-family="Times Roman,serif" font-size="24.00">exp: (g)</text>
<text text-anchor="middle" x="1924" y="-1280.4" font-family="Times Roman,serif" font-size="24.00">value: </text>
</g>
<!-- 19542832 -->
<g id="node25" class="node"><title>19542832</title>
<ellipse fill="gold" stroke="black" cx="1939" cy="-1193" rx="87.1802" ry="26.163"/>
<text text-anchor="middle" x="1939" y="-1185.9" font-family="Times Roman,serif" font-size="24.00">request: </text>
</g>
<!-- 19542832&#45;&gt;20657840 -->
<g id="edge50" class="edge"><title>19542832&#45;&gt;20657840</title>
<path fill="none" stroke="black" d="M1935.41,-1219.11C1934.3,-1227.16 1933.03,-1236.35 1931.76,-1245.62"/>
<polygon fill="black" stroke="black" points="1928.27,-1245.27 1930.38,-1255.65 1935.21,-1246.22 1928.27,-1245.27"/>
</g>
<!-- 20003376&#45;&gt;20657840 -->
<g id="edge44" class="edge"><title>20003376&#45;&gt;20657840</title>
<path fill="none" stroke="black" d="M1865.46,-1124.4C1856.33,-1137.17 1847.75,-1151.91 1843,-1167 1836.06,-1189.04 1834.29,-1197.59 1843,-1219 1848.85,-1233.38 1858.53,-1246.63 1869.19,-1258.12"/>
<polygon fill="black" stroke="black" points="1866.83,-1260.7 1876.32,-1265.41 1871.83,-1255.81 1866.83,-1260.7"/>
</g>
<!-- 20003376&#45;&gt;19542832 -->
<g id="edge46" class="edge"><title>20003376&#45;&gt;19542832</title>
<path fill="none" stroke="black" d="M1916.79,-1129.28C1920.04,-1138.63 1923.43,-1148.35 1926.55,-1157.3"/>
<polygon fill="black" stroke="black" points="1923.35,-1158.73 1929.94,-1167.02 1929.96,-1156.42 1923.35,-1158.73"/>
</g>
<!-- 19527392 -->
<g id="node28" class="node"><title>19527392</title>
<ellipse fill="gold" stroke="black" cx="723" cy="-774" rx="382.752" ry="46.669"/>
<text text-anchor="middle" x="723" y="-781.4" font-family="Times Roman,serif" font-size="24.00">exp: (branch_exp alpha (quote g) (quote g))</text>
<text text-anchor="middle" x="723" y="-752.4" font-family="Times Roman,serif" font-size="24.00">value: </text>
</g>
<!-- 19090464 -->
<g id="node29" class="node"><title>19090464</title>
<ellipse fill="gold" stroke="black" cx="723" cy="-665" rx="87.1802" ry="26.163"/>
<text text-anchor="middle" x="723" y="-657.9" font-family="Times Roman,serif" font-size="24.00">request: </text>
</g>
<!-- 19090464&#45;&gt;19527392 -->
<g id="edge30" class="edge"><title>19090464&#45;&gt;19527392</title>
<path fill="none" stroke="black" d="M723,-691.108C723,-698.979 723,-707.946 723,-717.005"/>
<polygon fill="black" stroke="black" points="719.5,-717.218 723,-727.218 726.5,-717.218 719.5,-717.218"/>
</g>
<!-- 21242832 -->
<g id="node30" class="node"><title>21242832</title>
<ellipse fill="#999999" stroke="black" cx="864" cy="-556" rx="154.149" ry="46.669"/>
<text text-anchor="middle" x="864" y="-563.4" font-family="Times Roman,serif" font-size="24.00">exp: branch_exp</text>
<text text-anchor="middle" x="864" y="-534.4" font-family="Times Roman,serif" font-size="24.00">value: sp:branch</text>
</g>
<!-- 21242832&#45;&gt;19527392 -->
<g id="edge10" class="edge"><title>21242832&#45;&gt;19527392</title>
<path fill="none" stroke="black" d="M855.01,-602.521C848.189,-629.914 836.864,-664.31 819,-691 811.871,-701.651 803.025,-711.747 793.611,-720.991"/>
<polygon fill="black" stroke="black" points="791.179,-718.474 786.319,-727.888 795.989,-723.559 791.179,-718.474"/>
</g>
<!-- 21242832&#45;&gt;19090464 -->
<g id="edge12" class="edge"><title>21242832&#45;&gt;19090464</title>
<path fill="none" stroke="black" d="M807.868,-599.393C792.717,-611.105 776.642,-623.532 762.604,-634.384"/>
<polygon fill="black" stroke="black" points="760.368,-631.689 754.597,-640.574 764.649,-637.227 760.368,-631.689"/>
</g>
<!-- 21585232&#45;&gt;19527392 -->
<g id="edge16" class="edge"><title>21585232&#45;&gt;19527392</title>
<path fill="none" stroke="black" d="M1070.48,-591.025C1002.28,-626.937 895.566,-683.132 818.382,-723.774"/>
<polygon fill="black" stroke="black" points="816.338,-720.895 809.121,-728.651 819.6,-727.089 816.338,-720.895"/>
</g>
<!-- 21585232&#45;&gt;19090464 -->
<g id="edge18" class="edge"><title>21585232&#45;&gt;19090464</title>
<path fill="none" stroke="black" d="M1065.6,-588.975C1052.91,-594.123 1039.69,-599.041 1027,-603 955.766,-625.23 872.602,-641.557 811.281,-651.86"/>
<polygon fill="black" stroke="black" points="810.541,-648.435 801.249,-653.524 811.687,-655.34 810.541,-648.435"/>
</g>
<!-- 20015792 -->
<g id="node32" class="node"><title>20015792</title>
<ellipse fill="#999999" stroke="black" cx="561" cy="-556" rx="131.022" ry="46.669"/>
<text text-anchor="middle" x="561" y="-563.4" font-family="Times Roman,serif" font-size="24.00">exp: (quote g)</text>
<text text-anchor="middle" x="561" y="-534.4" font-family="Times Roman,serif" font-size="24.00">value: g</text>
</g>
<!-- 20015792&#45;&gt;19527392 -->
<g id="edge22" class="edge"><title>20015792&#45;&gt;19527392</title>
<path fill="none" stroke="black" d="M578.187,-602.391C589.609,-629.738 606.305,-664.131 627,-691 635.088,-701.502 644.677,-711.651 654.615,-721.035"/>
<polygon fill="black" stroke="black" points="652.529,-723.871 662.263,-728.054 657.262,-718.714 652.529,-723.871"/>
</g>
<!-- 20015792&#45;&gt;19090464 -->
<g id="edge24" class="edge"><title>20015792&#45;&gt;19090464</title>
<path fill="none" stroke="black" d="M622.245,-597.208C641.187,-609.953 661.665,-623.731 679.18,-635.516"/>
<polygon fill="black" stroke="black" points="677.27,-638.449 687.52,-641.128 681.177,-632.642 677.27,-638.449"/>
</g>
<!-- 19757488 -->
<g id="node33" class="node"><title>19757488</title>
<ellipse fill="#999999" stroke="black" cx="281" cy="-556" rx="131.022" ry="46.669"/>
<text text-anchor="middle" x="281" y="-563.4" font-family="Times Roman,serif" font-size="24.00">exp: (quote g)</text>
<text text-anchor="middle" x="281" y="-534.4" font-family="Times Roman,serif" font-size="24.00">value: g</text>
</g>
<!-- 19757488&#45;&gt;19527392 -->
<g id="edge26" class="edge"><title>19757488&#45;&gt;19527392</title>
<path fill="none" stroke="black" d="M357.738,-593.848C430.934,-629.949 541.626,-684.544 621.967,-724.169"/>
<polygon fill="black" stroke="black" points="620.601,-727.398 631.117,-728.682 623.697,-721.12 620.601,-727.398"/>
</g>
<!-- 19757488&#45;&gt;19090464 -->
<g id="edge28" class="edge"><title>19757488&#45;&gt;19090464</title>
<path fill="none" stroke="black" d="M373.899,-588.94C389.526,-593.975 405.651,-598.864 421,-603 493.21,-622.456 576.558,-639.143 637.376,-650.288"/>
<polygon fill="black" stroke="black" points="636.853,-653.75 647.318,-652.098 638.107,-646.864 636.853,-653.75"/>
</g>
<!-- 24544256 -->
<g id="node36" class="node"><title>24544256</title>
<ellipse fill="none" stroke="black" cx="63" cy="-401" rx="62.9325" ry="18.3848"/>
<text text-anchor="middle" x="63" y="-397.4" font-family="Times Roman,serif" font-size="14.00">24544256</text>
</g>
<!-- 24544256&#45;&gt;21242832 -->
<g id="edge14" class="edge"><title>24544256&#45;&gt;21242832</title>
<path fill="none" stroke="black" d="M125.475,-403.884C264.34,-410.823 594.74,-430.414 701,-464 733.152,-474.162 766.021,-491.202 793.742,-507.875"/>
<polygon fill="black" stroke="black" points="792.198,-511.033 802.554,-513.266 795.851,-505.062 792.198,-511.033"/>
</g>
<!-- 24677152 -->
<g id="node48" class="node"><title>24677152</title>
<ellipse fill="none" stroke="black" cx="1566" cy="-19" rx="62.9325" ry="18.3848"/>
<text text-anchor="middle" x="1566" y="-15.4" font-family="Times Roman,serif" font-size="14.00">24677152</text>
</g>
<!-- 24677152&#45;&gt;21285312 -->
<g id="edge36" class="edge"><title>24677152&#45;&gt;21285312</title>
<path fill="none" stroke="black" d="M1566,-37.8129C1566,-59.2806 1566,-95.4093 1566,-126.255"/>
<polygon fill="black" stroke="black" points="1562.5,-126.484 1566,-136.484 1569.5,-126.484 1562.5,-126.484"/>
</g>
<!-- 27586640 -->
<g id="node68" class="node"><title>27586640</title>
<ellipse fill="none" stroke="black" cx="2413" cy="-401" rx="62.9325" ry="18.3848"/>
<text text-anchor="middle" x="2413" y="-397.4" font-family="Times Roman,serif" font-size="14.00">27586640</text>
</g>
<!-- 27586640&#45;&gt;20536048 -->
<g id="edge74" class="edge"><title>27586640&#45;&gt;20536048</title>
<path fill="none" stroke="black" d="M2378.06,-416.429C2329.85,-437.717 2240.81,-477.039 2169.49,-508.533"/>
<polygon fill="black" stroke="black" points="2167.73,-505.484 2160,-512.726 2170.56,-511.888 2167.73,-505.484"/>
</g>
</g>
</svg>
