<?xml version="1.0" encoding="UTF-8" standalone="no"?>
<!DOCTYPE svg PUBLIC "-//W3C//DTD SVG 1.1//EN"
 "http://www.w3.org/Graphics/SVG/1.1/DTD/svg11.dtd">
<!-- Generated by graphviz version 2.26.3 (20100126.1600)
 -->
<!-- Title: _anonymous_0 Pages: 1 -->
<svg width="548pt" height="660pt"
 viewBox="0.00 0.00 548.00 660.00" xmlns="http://www.w3.org/2000/svg" xmlns:xlink="http://www.w3.org/1999/xlink">
<g id="graph1" class="graph" transform="scale(1 1) rotate(0) translate(4 656)">
<title>_anonymous_0</title>
<polygon fill="white" stroke="white" points="-4,5 -4,-656 545,-656 545,5 -4,5"/>
<g id="graph2" class="cluster"><title>cluster1</title>
<polygon fill="none" stroke="black" points="8,-8 8,-436 532,-436 532,-8 8,-8"/>
</g>
<g id="graph3" class="cluster"><title>cluster2</title>
<polygon fill="none" stroke="black" points="112,-16 112,-212 326,-212 326,-16 112,-16"/>
</g>
<g id="graph4" class="cluster"><title>cluster3</title>
<polygon fill="none" stroke="black" points="16,-232 16,-428 230,-428 230,-232 16,-232"/>
</g>
<g id="graph5" class="cluster"><title>cluster4</title>
<polygon fill="none" stroke="black" points="238,-232 238,-428 524,-428 524,-232 238,-232"/>
</g>
<g id="graph6" class="cluster"><title>cluster5</title>
<polygon fill="none" stroke="black" points="88,-448 88,-644 302,-644 302,-448 88,-448"/>
</g>
<!-- 48210144 -->
<g id="node3" class="node"><title>48210144</title>
<ellipse fill="dodgerblue" stroke="black" cx="234" cy="-186" rx="27" ry="18"/>
</g>
<!-- 48969600 -->
<g id="node12" class="node"><title>48969600</title>
<ellipse fill="khaki" stroke="black" cx="195" cy="-258" rx="27" ry="18"/>
</g>
<!-- 48210144&#45;&gt;48969600 -->
<g id="edge39" class="edge"><title>48210144&#45;&gt;48969600</title>
<path fill="none" stroke="black" d="M224.758,-203.063C220.046,-211.761 214.218,-222.52 208.972,-232.205"/>
<polygon fill="black" stroke="black" points="205.861,-230.6 204.176,-241.059 212.017,-233.934 205.861,-230.6"/>
</g>
<!-- 47476656 -->
<g id="node18" class="node"><title>47476656</title>
<ellipse fill="khaki" stroke="black" cx="273" cy="-258" rx="27" ry="18"/>
</g>
<!-- 48210144&#45;&gt;47476656 -->
<g id="edge15" class="edge"><title>48210144&#45;&gt;47476656</title>
<path fill="none" stroke="black" d="M243.242,-203.063C247.954,-211.761 253.782,-222.52 259.028,-232.205"/>
<polygon fill="black" stroke="black" points="255.983,-233.934 263.824,-241.059 262.139,-230.6 255.983,-233.934"/>
</g>
<!-- 47759296 -->
<g id="node4" class="node"><title>47759296</title>
<ellipse fill="#6e8b3d" stroke="black" cx="211" cy="-114" rx="27" ry="18"/>
</g>
<!-- 47759296&#45;&gt;48210144 -->
<g id="edge75" class="edge"><title>47759296&#45;&gt;48210144</title>
<path fill="none" stroke="black" d="M216.685,-131.798C219.256,-139.846 222.353,-149.541 225.213,-158.493"/>
<polygon fill="black" stroke="black" points="221.923,-159.697 228.3,-168.157 228.591,-157.567 221.923,-159.697"/>
</g>
<!-- 48907824 -->
<g id="node5" class="node"><title>48907824</title>
<ellipse fill="khaki" stroke="black" cx="291" cy="-42" rx="27" ry="18"/>
</g>
<!-- 48907824&#45;&gt;48210144 -->
<g id="edge63" class="edge"><title>48907824&#45;&gt;48210144</title>
<path fill="none" stroke="black" d="M284.011,-59.6572C274.225,-84.3798 256.349,-129.539 244.832,-158.636"/>
<polygon fill="black" stroke="black" points="241.473,-157.612 241.046,-168.198 247.981,-160.188 241.473,-157.612"/>
</g>
<!-- 48907824&#45;&gt;47759296 -->
<g id="edge65" class="edge"><title>48907824&#45;&gt;47759296</title>
<path fill="none" stroke="black" d="M274.811,-56.5703C263.317,-66.9149 247.698,-80.9714 234.791,-92.5884"/>
<polygon fill="black" stroke="black" points="232.257,-90.1602 227.165,-99.4514 236.939,-95.3633 232.257,-90.1602"/>
</g>
<!-- 46865616 -->
<g id="node6" class="node"><title>46865616</title>
<ellipse fill="#eead0e" stroke="black" cx="219" cy="-42" rx="27" ry="18"/>
</g>
<!-- 46865616&#45;&gt;48210144 -->
<g id="edge67" class="edge"><title>46865616&#45;&gt;48210144</title>
<path fill="none" stroke="black" d="M230.308,-58.6742C236.578,-68.9456 243.748,-82.6623 247,-96 252.034,-116.642 248.182,-140.455 243.395,-158.4"/>
<polygon fill="black" stroke="black" points="239.972,-157.638 240.53,-168.219 246.691,-159.6 239.972,-157.638"/>
</g>
<!-- 46865616&#45;&gt;47759296 -->
<g id="edge69" class="edge"><title>46865616&#45;&gt;47759296</title>
<path fill="none" stroke="black" d="M216.981,-60.1686C216.126,-67.869 215.108,-77.0257 214.157,-85.5834"/>
<polygon fill="black" stroke="black" points="210.672,-85.2614 213.046,-95.5867 217.629,-86.0344 210.672,-85.2614"/>
</g>
<!-- 47721552 -->
<g id="node7" class="node"><title>47721552</title>
<ellipse fill="#eead0e" stroke="black" cx="147" cy="-42" rx="27" ry="18"/>
</g>
<!-- 47721552&#45;&gt;48210144 -->
<g id="edge71" class="edge"><title>47721552&#45;&gt;48210144</title>
<path fill="none" stroke="black" d="M149.741,-60.0873C153.262,-79.1517 160.705,-109.481 175,-132 183.384,-145.207 195.814,-157.247 207.107,-166.59"/>
<polygon fill="black" stroke="black" points="205.044,-169.422 215.054,-172.895 209.395,-163.938 205.044,-169.422"/>
</g>
<!-- 47721552&#45;&gt;47759296 -->
<g id="edge73" class="edge"><title>47721552&#45;&gt;47759296</title>
<path fill="none" stroke="black" d="M160.887,-57.6229C169.525,-67.341 180.789,-80.013 190.45,-90.8809"/>
<polygon fill="black" stroke="black" points="187.88,-93.2587 197.14,-98.4076 193.112,-88.6082 187.88,-93.2587"/>
</g>
<!-- 47041392 -->
<g id="node9" class="node"><title>47041392</title>
<ellipse fill="dodgerblue" stroke="black" cx="169" cy="-402" rx="27" ry="18"/>
</g>
<!-- 47708832 -->
<g id="node25" class="node"><title>47708832</title>
<ellipse fill="khaki" stroke="black" cx="195" cy="-474" rx="27" ry="18"/>
</g>
<!-- 47041392&#45;&gt;47708832 -->
<g id="edge55" class="edge"><title>47041392&#45;&gt;47708832</title>
<path fill="none" stroke="black" d="M175.427,-419.798C178.387,-427.994 181.963,-437.898 185.245,-446.985"/>
<polygon fill="black" stroke="black" points="181.959,-448.19 188.647,-456.407 188.542,-445.813 181.959,-448.19"/>
</g>
<!-- 46747312 -->
<g id="node10" class="node"><title>46747312</title>
<ellipse fill="#6e8b3d" stroke="black" cx="123" cy="-330" rx="27" ry="18"/>
</g>
<!-- 46747312&#45;&gt;47041392 -->
<g id="edge45" class="edge"><title>46747312&#45;&gt;47041392</title>
<path fill="none" stroke="black" d="M133.669,-346.699C139.359,-355.605 146.478,-366.748 152.832,-376.693"/>
<polygon fill="black" stroke="black" points="150.056,-378.849 158.389,-385.391 155.954,-375.08 150.056,-378.849"/>
</g>
<!-- 47173568 -->
<g id="node11" class="node"><title>47173568</title>
<ellipse fill="khaki" stroke="black" cx="51" cy="-258" rx="27" ry="18"/>
</g>
<!-- 47173568&#45;&gt;47041392 -->
<g id="edge31" class="edge"><title>47173568&#45;&gt;47041392</title>
<path fill="none" stroke="black" d="M54.7576,-275.877C59.5634,-295.318 69.4437,-326.487 87,-348 100.549,-364.603 120.567,-377.922 137.431,-387.178"/>
<polygon fill="black" stroke="black" points="135.935,-390.345 146.415,-391.898 139.19,-384.148 135.935,-390.345"/>
</g>
<!-- 47173568&#45;&gt;46747312 -->
<g id="edge33" class="edge"><title>47173568&#45;&gt;46747312</title>
<path fill="none" stroke="black" d="M66.2693,-273.269C76.197,-283.197 89.3153,-296.315 100.436,-307.436"/>
<polygon fill="black" stroke="black" points="98.2067,-310.156 107.753,-314.753 103.156,-305.207 98.2067,-310.156"/>
</g>
<!-- 48969600&#45;&gt;47041392 -->
<g id="edge35" class="edge"><title>48969600&#45;&gt;47041392</title>
<path fill="none" stroke="black" d="M191.76,-275.947C187.322,-300.523 179.31,-344.899 174.073,-373.903"/>
<polygon fill="black" stroke="black" points="170.614,-373.364 172.281,-383.827 177.502,-374.608 170.614,-373.364"/>
</g>
<!-- 48969600&#45;&gt;46747312 -->
<g id="edge37" class="edge"><title>48969600&#45;&gt;46747312</title>
<path fill="none" stroke="black" d="M179.731,-273.269C169.803,-283.197 156.685,-296.315 145.564,-307.436"/>
<polygon fill="black" stroke="black" points="142.844,-305.207 138.247,-314.753 147.793,-310.156 142.844,-305.207"/>
</g>
<!-- 46776512 -->
<g id="node13" class="node"><title>46776512</title>
<ellipse fill="#eead0e" stroke="black" cx="123" cy="-258" rx="27" ry="18"/>
</g>
<!-- 46776512&#45;&gt;47041392 -->
<g id="edge41" class="edge"><title>46776512&#45;&gt;47041392</title>
<path fill="none" stroke="black" d="M136.574,-273.899C144.497,-284.105 153.909,-298.025 159,-312 166.208,-331.788 168.611,-355.51 169.263,-373.631"/>
<polygon fill="black" stroke="black" points="165.768,-373.915 169.47,-383.842 172.767,-373.773 165.768,-373.915"/>
</g>
<!-- 46776512&#45;&gt;46747312 -->
<g id="edge43" class="edge"><title>46776512&#45;&gt;46747312</title>
<path fill="none" stroke="black" d="M123,-276.169C123,-283.869 123,-293.026 123,-301.583"/>
<polygon fill="black" stroke="black" points="119.5,-301.587 123,-311.587 126.5,-301.587 119.5,-301.587"/>
</g>
<!-- 46860640 -->
<g id="node15" class="node"><title>46860640</title>
<ellipse fill="dodgerblue" stroke="black" cx="348" cy="-402" rx="27" ry="18"/>
</g>
<!-- 46977296 -->
<g id="node16" class="node"><title>46977296</title>
<ellipse fill="#6e8b3d" stroke="black" cx="371" cy="-330" rx="27" ry="18"/>
</g>
<!-- 46977296&#45;&gt;46860640 -->
<g id="edge25" class="edge"><title>46977296&#45;&gt;46860640</title>
<path fill="none" stroke="black" d="M365.315,-347.798C362.744,-355.846 359.647,-365.541 356.787,-374.493"/>
<polygon fill="black" stroke="black" points="353.409,-373.567 353.7,-384.157 360.077,-375.697 353.409,-373.567"/>
</g>
<!-- 47621456 -->
<g id="node22" class="node"><title>47621456</title>
<ellipse fill="dodgerblue" stroke="black" cx="241" cy="-618" rx="27" ry="18"/>
</g>
<!-- 46977296&#45;&gt;47621456 -->
<g id="edge29" class="edge"><title>46977296&#45;&gt;47621456</title>
<path fill="none" stroke="black" stroke-dasharray="1,5" d="M377.713,-347.701C384.811,-369.116 393.74,-406.024 384,-436 361.755,-504.461 300.62,-566.229 265.915,-597.147"/>
<polygon fill="black" stroke="black" points="263.332,-594.757 258.112,-603.976 267.942,-600.024 263.332,-594.757"/>
</g>
<!-- 47023952 -->
<g id="node17" class="node"><title>47023952</title>
<ellipse fill="khaki" stroke="black" cx="345" cy="-258" rx="27" ry="18"/>
</g>
<!-- 47023952&#45;&gt;46860640 -->
<g id="edge7" class="edge"><title>47023952&#45;&gt;46860640</title>
<path fill="none" stroke="black" d="M340.585,-275.939C336.683,-294.11 332.036,-323.021 335,-348 336.034,-356.714 337.976,-366.056 340.049,-374.479"/>
<polygon fill="black" stroke="black" points="336.673,-375.404 342.591,-384.193 343.445,-373.632 336.673,-375.404"/>
</g>
<!-- 47023952&#45;&gt;46977296 -->
<g id="edge9" class="edge"><title>47023952&#45;&gt;46977296</title>
<path fill="none" stroke="black" d="M351.427,-275.798C354.387,-283.994 357.963,-293.898 361.245,-302.985"/>
<polygon fill="black" stroke="black" points="357.959,-304.19 364.647,-312.407 364.542,-301.813 357.959,-304.19"/>
</g>
<!-- 47476656&#45;&gt;46860640 -->
<g id="edge11" class="edge"><title>47476656&#45;&gt;46860640</title>
<path fill="none" stroke="black" d="M281.898,-275.084C294.866,-299.984 319.071,-346.456 334.316,-375.727"/>
<polygon fill="black" stroke="black" points="331.39,-377.686 339.114,-384.938 337.598,-374.452 331.39,-377.686"/>
</g>
<!-- 47476656&#45;&gt;46977296 -->
<g id="edge13" class="edge"><title>47476656&#45;&gt;46977296</title>
<path fill="none" stroke="black" d="M291.433,-271.543C306.353,-282.504 327.569,-298.091 344.341,-310.414"/>
<polygon fill="black" stroke="black" points="342.518,-313.418 352.65,-316.518 346.663,-307.777 342.518,-313.418"/>
</g>
<!-- 46748512 -->
<g id="node19" class="node"><title>46748512</title>
<ellipse fill="#eead0e" stroke="black" cx="489" cy="-258" rx="27" ry="18"/>
</g>
<!-- 46748512&#45;&gt;46860640 -->
<g id="edge17" class="edge"><title>46748512&#45;&gt;46860640</title>
<path fill="none" stroke="black" d="M477.557,-274.548C464.157,-293.359 440.755,-324.498 417,-348 404.226,-360.638 388.55,-373.11 375.369,-382.879"/>
<polygon fill="black" stroke="black" points="373.148,-380.167 367.123,-388.882 377.268,-385.826 373.148,-380.167"/>
</g>
<!-- 46748512&#45;&gt;46977296 -->
<g id="edge19" class="edge"><title>46748512&#45;&gt;46977296</title>
<path fill="none" stroke="black" d="M468.983,-270.214C449.997,-281.799 421.261,-299.332 399.812,-312.42"/>
<polygon fill="black" stroke="black" points="397.829,-309.53 391.115,-317.726 401.475,-315.505 397.829,-309.53"/>
</g>
<!-- 47534080 -->
<g id="node20" class="node"><title>47534080</title>
<ellipse fill="#eead0e" stroke="black" cx="417" cy="-258" rx="27" ry="18"/>
</g>
<!-- 47534080&#45;&gt;46860640 -->
<g id="edge21" class="edge"><title>47534080&#45;&gt;46860640</title>
<path fill="none" stroke="black" d="M418.612,-276.308C419.477,-295.285 418.537,-325.295 407,-348 399.914,-361.946 387.638,-374.075 376.114,-383.286"/>
<polygon fill="black" stroke="black" points="373.809,-380.64 367.939,-389.461 378.028,-386.226 373.809,-380.64"/>
</g>
<!-- 47534080&#45;&gt;46977296 -->
<g id="edge23" class="edge"><title>47534080&#45;&gt;46977296</title>
<path fill="none" stroke="black" d="M406.331,-274.699C400.641,-283.605 393.522,-294.748 387.168,-304.693"/>
<polygon fill="black" stroke="black" points="384.046,-303.08 381.611,-313.391 389.944,-306.849 384.046,-303.08"/>
</g>
<!-- 47621456&#45;&gt;46860640 -->
<g id="edge27" class="edge"><title>47621456&#45;&gt;46860640</title>
<path fill="none" stroke="black" d="M249.468,-600.906C268.079,-563.335 312.658,-473.344 334.907,-428.431"/>
<polygon fill="black" stroke="black" points="338.122,-429.826 339.425,-419.311 331.849,-426.718 338.122,-429.826"/>
</g>
<!-- 47570256 -->
<g id="node23" class="node"><title>47570256</title>
<ellipse fill="#6e8b3d" stroke="black" cx="195" cy="-546" rx="27" ry="18"/>
</g>
<!-- 47570256&#45;&gt;47621456 -->
<g id="edge61" class="edge"><title>47570256&#45;&gt;47621456</title>
<path fill="none" stroke="black" d="M205.669,-562.699C211.359,-571.605 218.478,-582.748 224.832,-592.693"/>
<polygon fill="black" stroke="black" points="222.056,-594.849 230.389,-601.391 227.954,-591.08 222.056,-594.849"/>
</g>
<!-- 47657632 -->
<g id="node24" class="node"><title>47657632</title>
<ellipse fill="khaki" stroke="black" cx="267" cy="-474" rx="27" ry="18"/>
</g>
<!-- 47657632&#45;&gt;47621456 -->
<g id="edge47" class="edge"><title>47657632&#45;&gt;47621456</title>
<path fill="none" stroke="black" d="M263.76,-491.947C259.322,-516.523 251.31,-560.899 246.073,-589.903"/>
<polygon fill="black" stroke="black" points="242.614,-589.364 244.281,-599.827 249.502,-590.608 242.614,-589.364"/>
</g>
<!-- 47657632&#45;&gt;47570256 -->
<g id="edge49" class="edge"><title>47657632&#45;&gt;47570256</title>
<path fill="none" stroke="black" d="M251.731,-489.269C241.803,-499.197 228.685,-512.315 217.564,-523.436"/>
<polygon fill="black" stroke="black" points="214.844,-521.207 210.247,-530.753 219.793,-526.156 214.844,-521.207"/>
</g>
<!-- 47708832&#45;&gt;47621456 -->
<g id="edge51" class="edge"><title>47708832&#45;&gt;47621456</title>
<path fill="none" stroke="black" d="M208.574,-489.899C216.497,-500.105 225.909,-514.025 231,-528 238.208,-547.788 240.611,-571.51 241.263,-589.631"/>
<polygon fill="black" stroke="black" points="237.768,-589.915 241.47,-599.842 244.767,-589.773 237.768,-589.915"/>
</g>
<!-- 47708832&#45;&gt;47570256 -->
<g id="edge53" class="edge"><title>47708832&#45;&gt;47570256</title>
<path fill="none" stroke="black" d="M195,-492.169C195,-499.869 195,-509.026 195,-517.583"/>
<polygon fill="black" stroke="black" points="191.5,-517.587 195,-527.587 198.5,-517.587 191.5,-517.587"/>
</g>
<!-- 47745008 -->
<g id="node26" class="node"><title>47745008</title>
<ellipse fill="#eead0e" stroke="black" cx="123" cy="-474" rx="27" ry="18"/>
</g>
<!-- 47745008&#45;&gt;47621456 -->
<g id="edge57" class="edge"><title>47745008&#45;&gt;47621456</title>
<path fill="none" stroke="black" d="M126.758,-491.877C131.563,-511.318 141.444,-542.487 159,-564 172.549,-580.603 192.567,-593.922 209.431,-603.178"/>
<polygon fill="black" stroke="black" points="207.935,-606.345 218.415,-607.898 211.19,-600.148 207.935,-606.345"/>
</g>
<!-- 47745008&#45;&gt;47570256 -->
<g id="edge59" class="edge"><title>47745008&#45;&gt;47570256</title>
<path fill="none" stroke="black" d="M138.269,-489.269C148.197,-499.197 161.315,-512.315 172.436,-523.436"/>
<polygon fill="black" stroke="black" points="170.207,-526.156 179.753,-530.753 175.156,-521.207 170.207,-526.156"/>
</g>
</g>
</svg>
