<?xml version="1.0" encoding="UTF-8" standalone="no"?>
<!DOCTYPE svg PUBLIC "-//W3C//DTD SVG 1.1//EN"
 "http://www.w3.org/Graphics/SVG/1.1/DTD/svg11.dtd">
<!-- Generated by graphviz version 2.26.3 (20100126.1600)
 -->
<!-- Title: _anonymous_0 Pages: 1 -->
<svg width="2294pt" height="742pt"
 viewBox="0.00 0.00 2294.00 742.00" xmlns="http://www.w3.org/2000/svg" xmlns:xlink="http://www.w3.org/1999/xlink">
<g id="graph1" class="graph" transform="scale(1 1) rotate(0) translate(4 738)">
<title>_anonymous_0</title>
<polygon fill="white" stroke="white" points="-4,5 -4,-738 2291,-738 2291,5 -4,5"/>
<!-- 48210144 -->
<g id="node3" class="node"><title>48210144</title>
<ellipse fill="firebrick" stroke="black" cx="968" cy="-339" rx="295.071" ry="46.669"/>
<text text-anchor="middle" x="968" y="-346.4" font-family="Times Roman,serif" font-size="24.00">exp: (normal 0.000000 1.000000)</text>
<text text-anchor="middle" x="968" y="-317.4" font-family="Times Roman,serif" font-size="24.00">value: </text>
</g>
<!-- 48969600 -->
<g id="node12" class="node"><title>48969600</title>
<ellipse fill="gold" stroke="black" cx="711" cy="-469" rx="68.7979" ry="46.669"/>
<text text-anchor="middle" x="711" y="-476.4" font-family="Times Roman,serif" font-size="24.00">exp: x</text>
<text text-anchor="middle" x="711" y="-447.4" font-family="Times Roman,serif" font-size="24.00">value: </text>
</g>
<!-- 48210144&#45;&gt;48969600 -->
<g id="edge38" class="edge"><title>48210144&#45;&gt;48969600</title>
<path fill="none" stroke="black" d="M868.116,-382.994C842.086,-395.089 814.261,-408.583 789,-422 782.996,-425.189 776.808,-428.633 770.668,-432.155"/>
<polygon fill="black" stroke="black" points="768.617,-429.3 761.733,-437.353 772.137,-435.35 768.617,-429.3"/>
</g>
<!-- 47476656 -->
<g id="node18" class="node"><title>47476656</title>
<ellipse fill="gold" stroke="black" cx="1471" cy="-469" rx="68.7979" ry="46.669"/>
<text text-anchor="middle" x="1471" y="-476.4" font-family="Times Roman,serif" font-size="24.00">exp: x</text>
<text text-anchor="middle" x="1471" y="-447.4" font-family="Times Roman,serif" font-size="24.00">value: </text>
</g>
<!-- 48210144&#45;&gt;47476656 -->
<g id="edge16" class="edge"><title>48210144&#45;&gt;47476656</title>
<path fill="none" stroke="black" d="M1196.55,-368.498C1261.35,-380.891 1331.09,-398.158 1393,-422 1399.69,-424.578 1406.47,-427.719 1413.08,-431.142"/>
<polygon fill="black" stroke="black" points="1411.51,-434.274 1421.97,-435.958 1414.84,-428.118 1411.51,-434.274"/>
</g>
<!-- 47759296 -->
<g id="node4" class="node"><title>47759296</title>
<ellipse fill="#8f8f8f" stroke="black" cx="904" cy="-230" rx="99.9096" ry="26.163"/>
<text text-anchor="middle" x="904" y="-222.9" font-family="Times Roman,serif" font-size="24.00">request: []</text>
</g>
<!-- 47759296&#45;&gt;48210144 -->
<g id="edge60" class="edge"><title>47759296&#45;&gt;48210144</title>
<path fill="none" stroke="black" d="M919.167,-255.831C924.091,-264.218 929.759,-273.871 935.45,-283.564"/>
<polygon fill="black" stroke="black" points="932.581,-285.589 940.662,-292.441 938.617,-282.045 932.581,-285.589"/>
</g>
<!-- 48907824 -->
<g id="node5" class="node"><title>48907824</title>
<ellipse fill="#8f8f8f" stroke="black" cx="968" cy="-121" rx="154.149" ry="46.669"/>
<text text-anchor="middle" x="968" y="-128.4" font-family="Times Roman,serif" font-size="24.00">exp: normal</text>
<text text-anchor="middle" x="968" y="-99.4" font-family="Times Roman,serif" font-size="24.00">value: sp:normal</text>
</g>
<!-- 48907824&#45;&gt;48210144 -->
<g id="edge46" class="edge"><title>48907824&#45;&gt;48210144</title>
<path fill="none" stroke="black" d="M997.992,-166.726C1004.17,-178.418 1009.78,-191.289 1013,-204 1018.68,-226.402 1018.68,-233.598 1013,-256 1010.67,-265.198 1007.09,-274.48 1002.95,-283.338"/>
<polygon fill="black" stroke="black" points="999.762,-281.881 998.454,-292.395 1006.03,-284.991 999.762,-281.881"/>
</g>
<!-- 48907824&#45;&gt;47759296 -->
<g id="edge48" class="edge"><title>48907824&#45;&gt;47759296</title>
<path fill="none" stroke="black" d="M941.044,-166.91C935.458,-176.423 929.663,-186.293 924.36,-195.324"/>
<polygon fill="black" stroke="black" points="921.294,-193.634 919.249,-204.029 927.33,-197.178 921.294,-193.634"/>
</g>
<!-- 46865616 -->
<g id="node6" class="node"><title>46865616</title>
<ellipse fill="#8f8f8f" stroke="black" cx="1289" cy="-121" rx="149.2" ry="46.669"/>
<text text-anchor="middle" x="1289" y="-128.4" font-family="Times Roman,serif" font-size="24.00">exp: 0.000000</text>
<text text-anchor="middle" x="1289" y="-99.4" font-family="Times Roman,serif" font-size="24.00">value: 0.000000</text>
</g>
<!-- 46865616&#45;&gt;48210144 -->
<g id="edge52" class="edge"><title>46865616&#45;&gt;48210144</title>
<path fill="none" stroke="black" d="M1226.73,-163.291C1174.27,-198.918 1099.06,-249.993 1043.24,-287.902"/>
<polygon fill="black" stroke="black" points="1041.11,-285.119 1034.8,-293.632 1045.04,-290.91 1041.11,-285.119"/>
</g>
<!-- 46865616&#45;&gt;47759296 -->
<g id="edge54" class="edge"><title>46865616&#45;&gt;47759296</title>
<path fill="none" stroke="black" d="M1181.58,-153.307C1164.67,-158.29 1147.37,-163.329 1131,-168 1082.15,-181.935 1027.2,-196.961 983.599,-208.729"/>
<polygon fill="black" stroke="black" points="982.654,-205.359 973.909,-211.342 984.476,-212.118 982.654,-205.359"/>
</g>
<!-- 47721552 -->
<g id="node7" class="node"><title>47721552</title>
<ellipse fill="#8f8f8f" stroke="black" cx="647" cy="-121" rx="149.2" ry="46.669"/>
<text text-anchor="middle" x="647" y="-128.4" font-family="Times Roman,serif" font-size="24.00">exp: 1.000000</text>
<text text-anchor="middle" x="647" y="-99.4" font-family="Times Roman,serif" font-size="24.00">value: 1.000000</text>
</g>
<!-- 47721552&#45;&gt;48210144 -->
<g id="edge56" class="edge"><title>47721552&#45;&gt;48210144</title>
<path fill="none" stroke="black" d="M689.162,-165.687C717.336,-193.906 756.22,-229.843 795,-256 813.644,-268.576 834.486,-280.291 855.07,-290.725"/>
<polygon fill="black" stroke="black" points="853.673,-293.939 864.183,-295.271 856.798,-287.675 853.673,-293.939"/>
</g>
<!-- 47721552&#45;&gt;47759296 -->
<g id="edge58" class="edge"><title>47721552&#45;&gt;47759296</title>
<path fill="none" stroke="black" d="M735.445,-158.512C770.597,-173.421 810.193,-190.214 842.171,-203.777"/>
<polygon fill="black" stroke="black" points="840.833,-207.011 851.406,-207.694 843.566,-200.567 840.833,-207.011"/>
</g>
<!-- 47041392 -->
<g id="node9" class="node"><title>47041392</title>
<ellipse fill="#63b8ff" stroke="black" cx="457" cy="-687" rx="225.775" ry="46.669"/>
<text text-anchor="middle" x="457" y="-694.4" font-family="Times Roman,serif" font-size="24.00">exp: (normal x 1.000000)</text>
<text text-anchor="middle" x="457" y="-665.4" font-family="Times Roman,serif" font-size="24.00">value: &#45;1.121663</text>
</g>
<!-- 46747312 -->
<g id="node10" class="node"><title>46747312</title>
<ellipse fill="#63b8ff" stroke="black" cx="393" cy="-578" rx="99.9096" ry="26.163"/>
<text text-anchor="middle" x="393" y="-570.9" font-family="Times Roman,serif" font-size="24.00">request: []</text>
</g>
<!-- 46747312&#45;&gt;47041392 -->
<g id="edge44" class="edge"><title>46747312&#45;&gt;47041392</title>
<path fill="none" stroke="black" d="M408.167,-603.831C413.091,-612.218 418.759,-621.871 424.45,-631.564"/>
<polygon fill="black" stroke="black" points="421.581,-633.589 429.662,-640.441 427.617,-630.045 421.581,-633.589"/>
</g>
<!-- 47173568 -->
<g id="node11" class="node"><title>47173568</title>
<ellipse fill="#8f8f8f" stroke="black" cx="470" cy="-469" rx="154.149" ry="46.669"/>
<text text-anchor="middle" x="470" y="-476.4" font-family="Times Roman,serif" font-size="24.00">exp: normal</text>
<text text-anchor="middle" x="470" y="-447.4" font-family="Times Roman,serif" font-size="24.00">value: sp:normal</text>
</g>
<!-- 47173568&#45;&gt;47041392 -->
<g id="edge28" class="edge"><title>47173568&#45;&gt;47041392</title>
<path fill="none" stroke="black" d="M492.147,-515.324C501.826,-541.419 509.462,-574.582 502,-604 499.637,-613.316 495.996,-622.718 491.786,-631.679"/>
<polygon fill="black" stroke="black" points="488.551,-630.323 487.223,-640.835 494.816,-633.446 488.551,-630.323"/>
</g>
<!-- 47173568&#45;&gt;46747312 -->
<g id="edge30" class="edge"><title>47173568&#45;&gt;46747312</title>
<path fill="none" stroke="black" d="M437.791,-514.594C430.85,-524.42 423.628,-534.644 417.061,-543.939"/>
<polygon fill="black" stroke="black" points="414.153,-541.99 411.242,-552.177 419.87,-546.029 414.153,-541.99"/>
</g>
<!-- 48969600&#45;&gt;47041392 -->
<g id="edge34" class="edge"><title>48969600&#45;&gt;47041392</title>
<path fill="none" stroke="black" d="M668.2,-505.734C626.95,-541.137 564.132,-595.052 517.72,-634.886"/>
<polygon fill="black" stroke="black" points="515.437,-632.233 510.128,-641.402 519.996,-637.545 515.437,-632.233"/>
</g>
<!-- 48969600&#45;&gt;46747312 -->
<g id="edge36" class="edge"><title>48969600&#45;&gt;46747312</title>
<path fill="none" stroke="black" d="M661.355,-501.804C652.167,-507.033 642.475,-512.021 633,-516 585.684,-535.869 530.372,-550.68 484.781,-560.835"/>
<polygon fill="black" stroke="black" points="483.929,-557.438 474.909,-562.995 485.426,-564.276 483.929,-557.438"/>
</g>
<!-- 46776512 -->
<g id="node13" class="node"><title>46776512</title>
<ellipse fill="#8f8f8f" stroke="black" cx="149" cy="-469" rx="149.2" ry="46.669"/>
<text text-anchor="middle" x="149" y="-476.4" font-family="Times Roman,serif" font-size="24.00">exp: 1.000000</text>
<text text-anchor="middle" x="149" y="-447.4" font-family="Times Roman,serif" font-size="24.00">value: 1.000000</text>
</g>
<!-- 46776512&#45;&gt;47041392 -->
<g id="edge40" class="edge"><title>46776512&#45;&gt;47041392</title>
<path fill="none" stroke="black" d="M187.064,-514.264C212.469,-542.54 247.758,-578.325 284,-604 303.147,-617.564 324.854,-629.948 346.264,-640.773"/>
<polygon fill="black" stroke="black" points="344.899,-644.004 355.413,-645.316 348.013,-637.734 344.899,-644.004"/>
</g>
<!-- 46776512&#45;&gt;46747312 -->
<g id="edge42" class="edge"><title>46776512&#45;&gt;46747312</title>
<path fill="none" stroke="black" d="M234.339,-507.123C266.953,-521.692 303.42,-537.983 333.161,-551.269"/>
<polygon fill="black" stroke="black" points="332.01,-554.588 342.568,-555.471 334.865,-548.196 332.01,-554.588"/>
</g>
<!-- 46860640 -->
<g id="node15" class="node"><title>46860640</title>
<ellipse fill="gold" stroke="black" cx="1607" cy="-687" rx="576.999" ry="46.669"/>
<text text-anchor="middle" x="1607" y="-694.4" font-family="Times Roman,serif" font-size="24.00">exp: (branch_exp x (quote (normal y 1.000000)) (quote 1.000000))</text>
<text text-anchor="middle" x="1607" y="-665.4" font-family="Times Roman,serif" font-size="24.00">value: </text>
</g>
<!-- 46977296 -->
<g id="node16" class="node"><title>46977296</title>
<ellipse fill="gold" stroke="black" cx="1607" cy="-578" rx="87.1802" ry="26.163"/>
<text text-anchor="middle" x="1607" y="-570.9" font-family="Times Roman,serif" font-size="24.00">request: </text>
</g>
<!-- 46977296&#45;&gt;46860640 -->
<g id="edge26" class="edge"><title>46977296&#45;&gt;46860640</title>
<path fill="none" stroke="black" d="M1607,-604.108C1607,-611.979 1607,-620.946 1607,-630.005"/>
<polygon fill="black" stroke="black" points="1603.5,-630.218 1607,-640.218 1610.5,-630.218 1603.5,-630.218"/>
</g>
<!-- 47023952 -->
<g id="node17" class="node"><title>47023952</title>
<ellipse fill="#8f8f8f" stroke="black" cx="2132" cy="-469" rx="154.149" ry="46.669"/>
<text text-anchor="middle" x="2132" y="-476.4" font-family="Times Roman,serif" font-size="24.00">exp: branch_exp</text>
<text text-anchor="middle" x="2132" y="-447.4" font-family="Times Roman,serif" font-size="24.00">value: sp:branch</text>
</g>
<!-- 47023952&#45;&gt;46860640 -->
<g id="edge6" class="edge"><title>47023952&#45;&gt;46860640</title>
<path fill="none" stroke="black" d="M2041.15,-506.724C1954.1,-542.871 1822.2,-597.643 1726.63,-637.326"/>
<polygon fill="black" stroke="black" points="1725.1,-634.172 1717.2,-641.239 1727.78,-640.637 1725.1,-634.172"/>
</g>
<!-- 47023952&#45;&gt;46977296 -->
<g id="edge8" class="edge"><title>47023952&#45;&gt;46977296</title>
<path fill="none" stroke="black" d="M2023.28,-502.162C2005.24,-507.142 1986.66,-511.956 1969,-516 1876.84,-537.11 1770,-554.565 1696.4,-565.518"/>
<polygon fill="black" stroke="black" points="1695.62,-562.095 1686.24,-567.02 1696.64,-569.02 1695.62,-562.095"/>
</g>
<!-- 47476656&#45;&gt;46860640 -->
<g id="edge12" class="edge"><title>47476656&#45;&gt;46860640</title>
<path fill="none" stroke="black" d="M1478.01,-515.512C1483.73,-542.901 1493.77,-577.297 1511,-604 1517.79,-614.518 1526.29,-624.455 1535.41,-633.552"/>
<polygon fill="black" stroke="black" points="1533.19,-636.275 1542.84,-640.662 1538.03,-631.218 1533.19,-636.275"/>
</g>
<!-- 47476656&#45;&gt;46977296 -->
<g id="edge14" class="edge"><title>47476656&#45;&gt;46977296</title>
<path fill="none" stroke="black" d="M1515.53,-504.691C1532.71,-518.457 1552.16,-534.048 1568.7,-547.301"/>
<polygon fill="black" stroke="black" points="1566.57,-550.079 1576.56,-553.602 1570.94,-544.617 1566.57,-550.079"/>
</g>
<!-- 46748512 -->
<g id="node19" class="node"><title>46748512</title>
<ellipse fill="#8f8f8f" stroke="black" cx="1091" cy="-469" rx="292.949" ry="46.669"/>
<text text-anchor="middle" x="1091" y="-476.4" font-family="Times Roman,serif" font-size="24.00">exp: (quote (normal y 1.000000))</text>
<text text-anchor="middle" x="1091" y="-447.4" font-family="Times Roman,serif" font-size="24.00">value: (normal y 1.000000)</text>
</g>
<!-- 46748512&#45;&gt;46860640 -->
<g id="edge18" class="edge"><title>46748512&#45;&gt;46860640</title>
<path fill="none" stroke="black" d="M1194.18,-512.592C1279.4,-548.594 1400.37,-599.703 1489.34,-637.291"/>
<polygon fill="black" stroke="black" points="1488.09,-640.562 1498.66,-641.229 1490.81,-634.114 1488.09,-640.562"/>
</g>
<!-- 46748512&#45;&gt;46977296 -->
<g id="edge20" class="edge"><title>46748512&#45;&gt;46977296</title>
<path fill="none" stroke="black" d="M1267.13,-506.207C1354.93,-524.752 1456.83,-546.279 1525.99,-560.887"/>
<polygon fill="black" stroke="black" points="1525.44,-564.348 1535.95,-562.991 1526.89,-557.5 1525.44,-564.348"/>
</g>
<!-- 47534080 -->
<g id="node20" class="node"><title>47534080</title>
<ellipse fill="#8f8f8f" stroke="black" cx="1759" cy="-469" rx="200.818" ry="46.669"/>
<text text-anchor="middle" x="1759" y="-476.4" font-family="Times Roman,serif" font-size="24.00">exp: (quote 1.000000)</text>
<text text-anchor="middle" x="1759" y="-447.4" font-family="Times Roman,serif" font-size="24.00">value: 1.000000</text>
</g>
<!-- 47534080&#45;&gt;46860640 -->
<g id="edge22" class="edge"><title>47534080&#45;&gt;46860640</title>
<path fill="none" stroke="black" d="M1745.69,-515.485C1736.45,-542.865 1722.31,-577.26 1703,-604 1695.5,-614.39 1686.44,-624.343 1676.94,-633.522"/>
<polygon fill="black" stroke="black" points="1674.51,-630.999 1669.6,-640.385 1679.29,-636.113 1674.51,-630.999"/>
</g>
<!-- 47534080&#45;&gt;46977296 -->
<g id="edge24" class="edge"><title>47534080&#45;&gt;46977296</title>
<path fill="none" stroke="black" d="M1697.18,-513.334C1681.1,-524.864 1664.14,-537.022 1649.33,-547.646"/>
<polygon fill="black" stroke="black" points="1646.96,-545.036 1640.88,-553.708 1651.04,-550.725 1646.96,-545.036"/>
</g>
<!-- 44994048 -->
<g id="node23" class="node"><title>44994048</title>
<ellipse fill="none" stroke="black" cx="2132" cy="-339" rx="62.9325" ry="18.3848"/>
<text text-anchor="middle" x="2132" y="-335.4" font-family="Times Roman,serif" font-size="14.00">44994048</text>
</g>
<!-- 44994048&#45;&gt;47023952 -->
<g id="edge10" class="edge"><title>44994048&#45;&gt;47023952</title>
<path fill="none" stroke="black" d="M2132,-357.626C2132,-371.974 2132,-392.614 2132,-412.236"/>
<polygon fill="black" stroke="black" points="2128.5,-412.365 2132,-422.365 2135.5,-412.365 2128.5,-412.365"/>
</g>
<!-- 45368368 -->
<g id="node35" class="node"><title>45368368</title>
<ellipse fill="none" stroke="black" cx="719" cy="-19" rx="62.9325" ry="18.3848"/>
<text text-anchor="middle" x="719" y="-15.4" font-family="Times Roman,serif" font-size="14.00">45368368</text>
</g>
<!-- 45368368&#45;&gt;48907824 -->
<g id="edge50" class="edge"><title>45368368&#45;&gt;48907824</title>
<path fill="none" stroke="black" d="M755.741,-34.0505C785.11,-46.081 827.735,-63.5419 867.094,-79.665"/>
<polygon fill="black" stroke="black" points="865.908,-82.9615 876.489,-83.5134 868.562,-76.4839 865.908,-82.9615"/>
</g>
<!-- 45368368&#45;&gt;47173568 -->
<g id="edge32" class="edge"><title>45368368&#45;&gt;47173568</title>
<path fill="none" stroke="black" d="M659.56,-25.1614C598.833,-32.7976 510.483,-48.0795 489,-74 409.431,-170.003 433.198,-328.595 453.727,-412.651"/>
<polygon fill="black" stroke="black" points="450.376,-413.677 456.208,-422.523 457.165,-411.972 450.376,-413.677"/>
</g>
</g>
</svg>
