<?xml version="1.0" encoding="UTF-8" standalone="no"?>
<!DOCTYPE svg PUBLIC "-//W3C//DTD SVG 1.1//EN"
 "http://www.w3.org/Graphics/SVG/1.1/DTD/svg11.dtd">
<!-- Generated by graphviz version 2.26.3 (20100126.1600)
 -->
<!-- Title: _anonymous_0 Pages: 1 -->
<svg width="497pt" height="404pt"
 viewBox="0.00 0.00 497.00 404.00" xmlns="http://www.w3.org/2000/svg" xmlns:xlink="http://www.w3.org/1999/xlink">
<g id="graph1" class="graph" transform="scale(1 1) rotate(0) translate(4 400)">
<title>_anonymous_0</title>
<polygon fill="white" stroke="white" points="-4,5 -4,-400 494,-400 494,5 -4,5"/>
<!-- 48210144 -->
<g id="node3" class="node"><title>48210144</title>
<ellipse fill="firebrick" stroke="black" cx="246" cy="-162" rx="27" ry="18"/>
</g>
<!-- 48969600 -->
<g id="node12" class="node"><title>48969600</title>
<ellipse fill="gold" stroke="black" cx="174" cy="-234" rx="27" ry="18"/>
</g>
<!-- 48210144&#45;&gt;48969600 -->
<g id="edge34" class="edge"><title>48210144&#45;&gt;48969600</title>
<path fill="none" stroke="black" d="M230.731,-177.269C220.803,-187.197 207.685,-200.315 196.564,-211.436"/>
<polygon fill="black" stroke="black" points="193.844,-209.207 189.247,-218.753 198.793,-214.156 193.844,-209.207"/>
</g>
<!-- 47476656 -->
<g id="node18" class="node"><title>47476656</title>
<ellipse fill="gold" stroke="black" cx="318" cy="-234" rx="27" ry="18"/>
</g>
<!-- 48210144&#45;&gt;47476656 -->
<g id="edge14" class="edge"><title>48210144&#45;&gt;47476656</title>
<path fill="none" stroke="black" d="M261.269,-177.269C271.197,-187.197 284.315,-200.315 295.436,-211.436"/>
<polygon fill="black" stroke="black" points="293.207,-214.156 302.753,-218.753 298.156,-209.207 293.207,-214.156"/>
</g>
<!-- 47759296 -->
<g id="node4" class="node"><title>47759296</title>
<ellipse fill="#8f8f8f" stroke="black" cx="219" cy="-90" rx="27" ry="18"/>
</g>
<!-- 47759296&#45;&gt;48210144 -->
<g id="edge54" class="edge"><title>47759296&#45;&gt;48210144</title>
<path fill="none" stroke="black" d="M225.674,-107.798C228.748,-115.994 232.462,-125.898 235.87,-134.985"/>
<polygon fill="black" stroke="black" points="232.614,-136.273 239.403,-144.407 239.168,-133.815 232.614,-136.273"/>
</g>
<!-- 48907824 -->
<g id="node5" class="node"><title>48907824</title>
<ellipse fill="#8f8f8f" stroke="black" cx="166" cy="-18" rx="27" ry="18"/>
</g>
<!-- 48907824&#45;&gt;48210144 -->
<g id="edge42" class="edge"><title>48907824&#45;&gt;48210144</title>
<path fill="none" stroke="black" d="M165.962,-36.1202C166.679,-55.212 170.022,-85.5642 183,-108 191.322,-122.387 204.939,-134.774 217.388,-144.042"/>
<polygon fill="black" stroke="black" points="215.555,-147.032 225.741,-149.946 219.595,-141.316 215.555,-147.032"/>
</g>
<!-- 48907824&#45;&gt;47759296 -->
<g id="edge44" class="edge"><title>48907824&#45;&gt;47759296</title>
<path fill="none" stroke="black" d="M178.027,-34.3379C184.803,-43.5436 193.401,-55.2236 200.969,-65.5047"/>
<polygon fill="black" stroke="black" points="198.274,-67.7482 207.021,-73.7267 203.912,-63.5985 198.274,-67.7482"/>
</g>
<!-- 46865616 -->
<g id="node6" class="node"><title>46865616</title>
<ellipse fill="#8f8f8f" stroke="black" cx="239" cy="-18" rx="27" ry="18"/>
</g>
<!-- 46865616&#45;&gt;48210144 -->
<g id="edge46" class="edge"><title>46865616&#45;&gt;48210144</title>
<path fill="none" stroke="black" d="M245.653,-35.7104C249.204,-46.1139 253.204,-59.6139 255,-72 258,-92.6881 255.447,-116.198 252.304,-134"/>
<polygon fill="black" stroke="black" points="248.83,-133.531 250.369,-144.013 255.702,-134.859 248.83,-133.531"/>
</g>
<!-- 46865616&#45;&gt;47759296 -->
<g id="edge48" class="edge"><title>46865616&#45;&gt;47759296</title>
<path fill="none" stroke="black" d="M234.056,-35.7978C231.821,-43.8459 229.127,-53.5412 226.641,-62.4933"/>
<polygon fill="black" stroke="black" points="223.26,-61.5855 223.956,-72.1575 230.005,-63.459 223.26,-61.5855"/>
</g>
<!-- 47721552 -->
<g id="node7" class="node"><title>47721552</title>
<ellipse fill="#8f8f8f" stroke="black" cx="311" cy="-18" rx="27" ry="18"/>
</g>
<!-- 47721552&#45;&gt;48210144 -->
<g id="edge50" class="edge"><title>47721552&#45;&gt;48210144</title>
<path fill="none" stroke="black" d="M303.159,-35.3698C291.935,-60.2362 271.191,-106.193 258.02,-135.371"/>
<polygon fill="black" stroke="black" points="254.792,-134.014 253.868,-144.569 261.173,-136.894 254.792,-134.014"/>
</g>
<!-- 47721552&#45;&gt;47759296 -->
<g id="edge52" class="edge"><title>47721552&#45;&gt;47759296</title>
<path fill="none" stroke="black" d="M293.261,-31.8823C279.516,-42.6398 260.273,-57.6991 244.82,-69.7928"/>
<polygon fill="black" stroke="black" points="242.402,-67.2409 236.684,-76.1603 246.716,-72.7534 242.402,-67.2409"/>
</g>
<!-- 47041392 -->
<g id="node9" class="node"><title>47041392</title>
<ellipse fill="#63b8ff" stroke="black" cx="109" cy="-378" rx="27" ry="18"/>
</g>
<!-- 46747312 -->
<g id="node10" class="node"><title>46747312</title>
<ellipse fill="#63b8ff" stroke="black" cx="82" cy="-306" rx="27" ry="18"/>
</g>
<!-- 46747312&#45;&gt;47041392 -->
<g id="edge40" class="edge"><title>46747312&#45;&gt;47041392</title>
<path fill="none" stroke="black" d="M88.6742,-323.798C91.7476,-331.994 95.4616,-341.898 98.8695,-350.985"/>
<polygon fill="black" stroke="black" points="95.6142,-352.273 102.403,-360.407 102.168,-349.815 95.6142,-352.273"/>
</g>
<!-- 47173568 -->
<g id="node11" class="node"><title>47173568</title>
<ellipse fill="#8f8f8f" stroke="black" cx="100" cy="-234" rx="27" ry="18"/>
</g>
<!-- 47173568&#45;&gt;47041392 -->
<g id="edge26" class="edge"><title>47173568&#45;&gt;47041392</title>
<path fill="none" stroke="black" d="M107.48,-251.636C111.474,-262.014 115.974,-275.514 118,-288 121.349,-308.635 118.781,-332.146 115.544,-349.963"/>
<polygon fill="black" stroke="black" points="112.069,-349.495 113.546,-359.986 118.934,-350.864 112.069,-349.495"/>
</g>
<!-- 47173568&#45;&gt;46747312 -->
<g id="edge28" class="edge"><title>47173568&#45;&gt;46747312</title>
<path fill="none" stroke="black" d="M95.5506,-251.798C93.5602,-259.759 91.1668,-269.333 88.9489,-278.204"/>
<polygon fill="black" stroke="black" points="85.4906,-277.607 86.4606,-288.157 92.2816,-279.305 85.4906,-277.607"/>
</g>
<!-- 48969600&#45;&gt;47041392 -->
<g id="edge30" class="edge"><title>48969600&#45;&gt;47041392</title>
<path fill="none" stroke="black" d="M166.159,-251.37C154.935,-276.236 134.191,-322.193 121.02,-351.371"/>
<polygon fill="black" stroke="black" points="117.792,-350.014 116.868,-360.569 124.173,-352.894 117.792,-350.014"/>
</g>
<!-- 48969600&#45;&gt;46747312 -->
<g id="edge32" class="edge"><title>48969600&#45;&gt;46747312</title>
<path fill="none" stroke="black" d="M156.261,-247.882C142.516,-258.64 123.273,-273.699 107.82,-285.793"/>
<polygon fill="black" stroke="black" points="105.402,-283.241 99.6841,-292.16 109.716,-288.753 105.402,-283.241"/>
</g>
<!-- 46776512 -->
<g id="node13" class="node"><title>46776512</title>
<ellipse fill="#8f8f8f" stroke="black" cx="27" cy="-234" rx="27" ry="18"/>
</g>
<!-- 46776512&#45;&gt;47041392 -->
<g id="edge36" class="edge"><title>46776512&#45;&gt;47041392</title>
<path fill="none" stroke="black" d="M27.4453,-252.138C28.653,-271.244 32.7263,-301.609 46,-324 54.4754,-338.297 68.1076,-350.675 80.527,-359.961"/>
<polygon fill="black" stroke="black" points="78.6748,-362.938 88.853,-365.88 82.731,-357.233 78.6748,-362.938"/>
</g>
<!-- 46776512&#45;&gt;46747312 -->
<g id="edge38" class="edge"><title>46776512&#45;&gt;46747312</title>
<path fill="none" stroke="black" d="M39.4804,-250.338C46.5124,-259.544 55.4347,-271.224 63.2883,-281.505"/>
<polygon fill="black" stroke="black" points="60.7172,-283.905 69.569,-289.727 66.28,-279.655 60.7172,-283.905"/>
</g>
<!-- 46860640 -->
<g id="node15" class="node"><title>46860640</title>
<ellipse fill="gold" stroke="black" cx="358" cy="-378" rx="27" ry="18"/>
</g>
<!-- 46977296 -->
<g id="node16" class="node"><title>46977296</title>
<ellipse fill="gold" stroke="black" cx="358" cy="-306" rx="27" ry="18"/>
</g>
<!-- 46977296&#45;&gt;46860640 -->
<g id="edge24" class="edge"><title>46977296&#45;&gt;46860640</title>
<path fill="none" stroke="black" d="M358,-324.169C358,-331.869 358,-341.026 358,-349.583"/>
<polygon fill="black" stroke="black" points="354.5,-349.587 358,-359.587 361.5,-349.587 354.5,-349.587"/>
</g>
<!-- 47023952 -->
<g id="node17" class="node"><title>47023952</title>
<ellipse fill="#8f8f8f" stroke="black" cx="246" cy="-234" rx="27" ry="18"/>
</g>
<!-- 47023952&#45;&gt;46860640 -->
<g id="edge6" class="edge"><title>47023952&#45;&gt;46860640</title>
<path fill="none" stroke="black" d="M257.307,-250.589C269.943,-268.902 291.23,-299.09 311,-324 319.127,-334.24 328.51,-345.182 336.746,-354.52"/>
<polygon fill="black" stroke="black" points="334.365,-357.11 343.627,-362.256 339.595,-352.458 334.365,-357.11"/>
</g>
<!-- 47023952&#45;&gt;46977296 -->
<g id="edge8" class="edge"><title>47023952&#45;&gt;46977296</title>
<path fill="none" stroke="black" d="M265.509,-246.541C283.307,-257.983 309.814,-275.024 329.895,-287.933"/>
<polygon fill="black" stroke="black" points="328.034,-290.897 338.339,-293.361 331.82,-285.009 328.034,-290.897"/>
</g>
<!-- 47476656&#45;&gt;46860640 -->
<g id="edge10" class="edge"><title>47476656&#45;&gt;46860640</title>
<path fill="none" stroke="black" d="M316.009,-252.096C314.606,-270.64 314.17,-300.067 322,-324 325.469,-334.602 331.638,-345.079 337.901,-353.943"/>
<polygon fill="black" stroke="black" points="335.301,-356.311 344.099,-362.215 340.903,-352.113 335.301,-356.311"/>
</g>
<!-- 47476656&#45;&gt;46977296 -->
<g id="edge12" class="edge"><title>47476656&#45;&gt;46977296</title>
<path fill="none" stroke="black" d="M327.479,-251.063C332.311,-259.761 338.289,-270.52 343.67,-280.205"/>
<polygon fill="black" stroke="black" points="340.673,-282.018 348.589,-289.059 346.792,-278.618 340.673,-282.018"/>
</g>
<!-- 46748512 -->
<g id="node19" class="node"><title>46748512</title>
<ellipse fill="#8f8f8f" stroke="black" cx="390" cy="-234" rx="27" ry="18"/>
</g>
<!-- 46748512&#45;&gt;46860640 -->
<g id="edge16" class="edge"><title>46748512&#45;&gt;46860640</title>
<path fill="none" stroke="black" d="M394.258,-252.026C397.834,-270.516 401.297,-299.899 394,-324 390.734,-334.787 384.524,-345.389 378.169,-354.304"/>
<polygon fill="black" stroke="black" points="375.372,-352.2 372.123,-362.284 380.951,-356.427 375.372,-352.2"/>
</g>
<!-- 46748512&#45;&gt;46977296 -->
<g id="edge18" class="edge"><title>46748512&#45;&gt;46977296</title>
<path fill="none" stroke="black" d="M382.254,-251.429C378.52,-259.831 373.96,-270.091 369.805,-279.438"/>
<polygon fill="black" stroke="black" points="366.538,-278.172 365.675,-288.731 372.935,-281.015 366.538,-278.172"/>
</g>
<!-- 47534080 -->
<g id="node20" class="node"><title>47534080</title>
<ellipse fill="#8f8f8f" stroke="black" cx="462" cy="-234" rx="27" ry="18"/>
</g>
<!-- 47534080&#45;&gt;46860640 -->
<g id="edge20" class="edge"><title>47534080&#45;&gt;46860640</title>
<path fill="none" stroke="black" d="M453.575,-251.355C444.133,-270.069 427.798,-300.355 410,-324 401.477,-335.323 390.797,-346.783 381.336,-356.216"/>
<polygon fill="black" stroke="black" points="378.786,-353.814 374.075,-363.304 383.675,-358.823 378.786,-353.814"/>
</g>
<!-- 47534080&#45;&gt;46977296 -->
<g id="edge22" class="edge"><title>47534080&#45;&gt;46977296</title>
<path fill="none" stroke="black" d="M442.925,-247.206C426.799,-258.37 403.496,-274.503 385.378,-287.046"/>
<polygon fill="black" stroke="black" points="383.184,-284.308 376.954,-292.878 387.168,-290.063 383.184,-284.308"/>
</g>
</g>
</svg>
