<?xml version="1.0" encoding="UTF-8" standalone="no"?>
<!DOCTYPE svg PUBLIC "-//W3C//DTD SVG 1.1//EN"
 "http://www.w3.org/Graphics/SVG/1.1/DTD/svg11.dtd">
<!-- Generated by graphviz version 2.26.3 (20100126.1600)
 -->
<!-- Title: _anonymous_0 Pages: 1 -->
<svg width="2463pt" height="1262pt"
 viewBox="0.00 0.00 2463.00 1262.00" xmlns="http://www.w3.org/2000/svg" xmlns:xlink="http://www.w3.org/1999/xlink">
<g id="graph1" class="graph" transform="scale(1 1) rotate(0) translate(4 1258)">
<title>_anonymous_0</title>
<polygon fill="white" stroke="white" points="-4,5 -4,-1258 2460,-1258 2460,5 -4,5"/>
<!-- 48210144 -->
<g id="node3" class="node"><title>48210144</title>
<ellipse fill="#8f8f8f" stroke="black" cx="1659" cy="-339" rx="295.071" ry="46.669"/>
<text text-anchor="middle" x="1659" y="-346.4" font-family="Times Roman,serif" font-size="24.00">exp: (normal 0.000000 1.000000)</text>
<text text-anchor="middle" x="1659" y="-317.4" font-family="Times Roman,serif" font-size="24.00">value: &#45;1.251527</text>
</g>
<!-- 48969600 -->
<g id="node12" class="node"><title>48969600</title>
<ellipse fill="#8f8f8f" stroke="black" cx="1658" cy="-469" rx="155.063" ry="46.669"/>
<text text-anchor="middle" x="1658" y="-476.4" font-family="Times Roman,serif" font-size="24.00">exp: x</text>
<text text-anchor="middle" x="1658" y="-447.4" font-family="Times Roman,serif" font-size="24.00">value: &#45;1.251527</text>
</g>
<!-- 48210144&#45;&gt;48969600 -->
<g id="edge43" class="edge"><title>48210144&#45;&gt;48969600</title>
<path fill="none" stroke="black" d="M1658.64,-385.566C1658.58,-394.154 1658.51,-403.21 1658.44,-412.063"/>
<polygon fill="black" stroke="black" points="1654.94,-412.296 1658.36,-422.322 1661.94,-412.35 1654.94,-412.296"/>
</g>
<!-- 47476656 -->
<g id="node18" class="node"><title>47476656</title>
<ellipse fill="#8f8f8f" stroke="black" cx="1505" cy="-947" rx="155.063" ry="46.669"/>
<text text-anchor="middle" x="1505" y="-954.4" font-family="Times Roman,serif" font-size="24.00">exp: x</text>
<text text-anchor="middle" x="1505" y="-925.4" font-family="Times Roman,serif" font-size="24.00">value: &#45;1.251527</text>
</g>
<!-- 48210144&#45;&gt;47476656 -->
<g id="edge17" class="edge"><title>48210144&#45;&gt;47476656</title>
<path fill="none" stroke="black" d="M1544.2,-381.912C1525.59,-392.785 1507.89,-406.035 1494,-422 1445.93,-477.238 1441,-504.774 1441,-578 1441,-578 1441,-578 1441,-687 1441,-766.119 1436.48,-788.459 1460,-864 1462.92,-873.39 1466.95,-882.938 1471.4,-892.054"/>
<polygon fill="black" stroke="black" points="1468.3,-893.687 1475.97,-901.004 1474.54,-890.505 1468.3,-893.687"/>
</g>
<!-- 47759296 -->
<g id="node4" class="node"><title>47759296</title>
<ellipse fill="#8f8f8f" stroke="black" cx="1660" cy="-230" rx="99.9096" ry="26.163"/>
<text text-anchor="middle" x="1660" y="-222.9" font-family="Times Roman,serif" font-size="24.00">request: []</text>
</g>
<!-- 47759296&#45;&gt;48210144 -->
<g id="edge83" class="edge"><title>47759296&#45;&gt;48210144</title>
<path fill="none" stroke="black" d="M1659.76,-256.108C1659.69,-263.979 1659.61,-272.946 1659.52,-282.005"/>
<polygon fill="black" stroke="black" points="1656.02,-282.187 1659.43,-292.218 1663.02,-282.251 1656.02,-282.187"/>
</g>
<!-- 48907824 -->
<g id="node5" class="node"><title>48907824</title>
<ellipse fill="#8f8f8f" stroke="black" cx="1800" cy="-121" rx="154.149" ry="46.669"/>
<text text-anchor="middle" x="1800" y="-128.4" font-family="Times Roman,serif" font-size="24.00">exp: normal</text>
<text text-anchor="middle" x="1800" y="-99.4" font-family="Times Roman,serif" font-size="24.00">value: sp:normal</text>
</g>
<!-- 48907824&#45;&gt;48210144 -->
<g id="edge69" class="edge"><title>48907824&#45;&gt;48210144</title>
<path fill="none" stroke="black" d="M1797.26,-167.536C1793.79,-195.099 1786.07,-229.665 1769,-256 1761.57,-267.47 1751.97,-277.954 1741.55,-287.322"/>
<polygon fill="black" stroke="black" points="1739.14,-284.774 1733.84,-293.943 1743.7,-290.086 1739.14,-284.774"/>
</g>
<!-- 48907824&#45;&gt;47759296 -->
<g id="edge71" class="edge"><title>48907824&#45;&gt;47759296</title>
<path fill="none" stroke="black" d="M1744.27,-164.393C1729.35,-176.006 1713.53,-188.322 1699.68,-199.108"/>
<polygon fill="black" stroke="black" points="1697.51,-196.36 1691.77,-205.265 1701.81,-201.883 1697.51,-196.36"/>
</g>
<!-- 46865616 -->
<g id="node6" class="node"><title>46865616</title>
<ellipse fill="#8f8f8f" stroke="black" cx="1479" cy="-121" rx="149.2" ry="46.669"/>
<text text-anchor="middle" x="1479" y="-128.4" font-family="Times Roman,serif" font-size="24.00">exp: 0.000000</text>
<text text-anchor="middle" x="1479" y="-99.4" font-family="Times Roman,serif" font-size="24.00">value: 0.000000</text>
</g>
<!-- 46865616&#45;&gt;48210144 -->
<g id="edge75" class="edge"><title>46865616&#45;&gt;48210144</title>
<path fill="none" stroke="black" d="M1497.65,-167.136C1510.18,-194.719 1528.51,-229.448 1551,-256 1560.38,-267.069 1571.46,-277.599 1582.89,-287.213"/>
<polygon fill="black" stroke="black" points="1580.89,-290.098 1590.85,-293.718 1585.32,-284.679 1580.89,-290.098"/>
</g>
<!-- 46865616&#45;&gt;47759296 -->
<g id="edge77" class="edge"><title>46865616&#45;&gt;47759296</title>
<path fill="none" stroke="black" d="M1547.69,-162.364C1568.93,-175.159 1591.89,-188.982 1611.47,-200.776"/>
<polygon fill="black" stroke="black" points="1609.84,-203.881 1620.22,-206.041 1613.45,-197.884 1609.84,-203.881"/>
</g>
<!-- 47721552 -->
<g id="node7" class="node"><title>47721552</title>
<ellipse fill="#8f8f8f" stroke="black" cx="2121" cy="-121" rx="149.2" ry="46.669"/>
<text text-anchor="middle" x="2121" y="-128.4" font-family="Times Roman,serif" font-size="24.00">exp: 1.000000</text>
<text text-anchor="middle" x="2121" y="-99.4" font-family="Times Roman,serif" font-size="24.00">value: 1.000000</text>
</g>
<!-- 47721552&#45;&gt;48210144 -->
<g id="edge79" class="edge"><title>47721552&#45;&gt;48210144</title>
<path fill="none" stroke="black" d="M2038.67,-159.848C1961.28,-196.366 1845.18,-251.148 1761.75,-290.514"/>
<polygon fill="black" stroke="black" points="1760.06,-287.442 1752.51,-294.875 1763.05,-293.772 1760.06,-287.442"/>
</g>
<!-- 47721552&#45;&gt;47759296 -->
<g id="edge81" class="edge"><title>47721552&#45;&gt;47759296</title>
<path fill="none" stroke="black" d="M2015.11,-153.881C1997.77,-158.868 1979.93,-163.757 1963,-168 1892.82,-185.583 1812.57,-201.834 1752.3,-213.283"/>
<polygon fill="black" stroke="black" points="1751.6,-209.853 1742.42,-215.15 1752.9,-216.731 1751.6,-209.853"/>
</g>
<!-- 47041392 -->
<g id="node9" class="node"><title>47041392</title>
<ellipse fill="#8f8f8f" stroke="black" cx="1950" cy="-687" rx="225.775" ry="46.669"/>
<text text-anchor="middle" x="1950" y="-694.4" font-family="Times Roman,serif" font-size="24.00">exp: (normal x 1.000000)</text>
<text text-anchor="middle" x="1950" y="-665.4" font-family="Times Roman,serif" font-size="24.00">value: &#45;1.121663</text>
</g>
<!-- 47708832 -->
<g id="node25" class="node"><title>47708832</title>
<ellipse fill="#8f8f8f" stroke="black" cx="1950" cy="-817" rx="155.063" ry="46.669"/>
<text text-anchor="middle" x="1950" y="-824.4" font-family="Times Roman,serif" font-size="24.00">exp: y</text>
<text text-anchor="middle" x="1950" y="-795.4" font-family="Times Roman,serif" font-size="24.00">value: &#45;1.121663</text>
</g>
<!-- 47041392&#45;&gt;47708832 -->
<g id="edge61" class="edge"><title>47041392&#45;&gt;47708832</title>
<path fill="none" stroke="black" d="M1950,-733.566C1950,-742.154 1950,-751.21 1950,-760.063"/>
<polygon fill="black" stroke="black" points="1946.5,-760.322 1950,-770.322 1953.5,-760.322 1946.5,-760.322"/>
</g>
<!-- 46747312 -->
<g id="node10" class="node"><title>46747312</title>
<ellipse fill="#8f8f8f" stroke="black" cx="2014" cy="-578" rx="99.9096" ry="26.163"/>
<text text-anchor="middle" x="2014" y="-570.9" font-family="Times Roman,serif" font-size="24.00">request: []</text>
</g>
<!-- 46747312&#45;&gt;47041392 -->
<g id="edge49" class="edge"><title>46747312&#45;&gt;47041392</title>
<path fill="none" stroke="black" d="M1998.83,-603.831C1993.91,-612.218 1988.24,-621.871 1982.55,-631.564"/>
<polygon fill="black" stroke="black" points="1979.38,-630.045 1977.34,-640.441 1985.42,-633.589 1979.38,-630.045"/>
</g>
<!-- 47173568 -->
<g id="node11" class="node"><title>47173568</title>
<ellipse fill="#8f8f8f" stroke="black" cx="2301" cy="-469" rx="154.149" ry="46.669"/>
<text text-anchor="middle" x="2301" y="-476.4" font-family="Times Roman,serif" font-size="24.00">exp: normal</text>
<text text-anchor="middle" x="2301" y="-447.4" font-family="Times Roman,serif" font-size="24.00">value: sp:normal</text>
</g>
<!-- 47173568&#45;&gt;47041392 -->
<g id="edge33" class="edge"><title>47173568&#45;&gt;47041392</title>
<path fill="none" stroke="black" d="M2248.86,-512.994C2214.4,-540.933 2167.52,-576.818 2123,-604 2101.88,-616.891 2078.46,-629.289 2055.84,-640.393"/>
<polygon fill="black" stroke="black" points="2054.02,-637.39 2046.55,-644.907 2057.07,-643.687 2054.02,-637.39"/>
</g>
<!-- 47173568&#45;&gt;46747312 -->
<g id="edge35" class="edge"><title>47173568&#45;&gt;46747312</title>
<path fill="none" stroke="black" d="M2205.03,-505.447C2164.05,-521.013 2117.23,-538.795 2080.2,-552.859"/>
<polygon fill="black" stroke="black" points="2078.62,-549.713 2070.52,-556.536 2081.11,-556.257 2078.62,-549.713"/>
</g>
<!-- 48969600&#45;&gt;47041392 -->
<g id="edge39" class="edge"><title>48969600&#45;&gt;47041392</title>
<path fill="none" stroke="black" d="M1716.04,-512.33C1763.7,-547.911 1831.29,-598.376 1881.58,-635.92"/>
<polygon fill="black" stroke="black" points="1879.71,-638.888 1889.81,-642.065 1883.89,-633.278 1879.71,-638.888"/>
</g>
<!-- 48969600&#45;&gt;46747312 -->
<g id="edge41" class="edge"><title>48969600&#45;&gt;46747312</title>
<path fill="none" stroke="black" d="M1766.75,-502.296C1822.63,-519.405 1889.29,-539.818 1939.32,-555.133"/>
<polygon fill="black" stroke="black" points="1938.5,-558.544 1949.09,-558.126 1940.55,-551.851 1938.5,-558.544"/>
</g>
<!-- 46776512 -->
<g id="node13" class="node"><title>46776512</title>
<ellipse fill="#8f8f8f" stroke="black" cx="1980" cy="-469" rx="149.2" ry="46.669"/>
<text text-anchor="middle" x="1980" y="-476.4" font-family="Times Roman,serif" font-size="24.00">exp: 1.000000</text>
<text text-anchor="middle" x="1980" y="-447.4" font-family="Times Roman,serif" font-size="24.00">value: 1.000000</text>
</g>
<!-- 46776512&#45;&gt;47041392 -->
<g id="edge45" class="edge"><title>46776512&#45;&gt;47041392</title>
<path fill="none" stroke="black" d="M1929.54,-513.075C1919.53,-524.635 1910.44,-537.862 1905,-552 1895.05,-577.862 1902.45,-606.979 1913.92,-631.533"/>
<polygon fill="black" stroke="black" points="1910.9,-633.312 1918.49,-640.704 1917.16,-630.192 1910.9,-633.312"/>
</g>
<!-- 46776512&#45;&gt;46747312 -->
<g id="edge47" class="edge"><title>46776512&#45;&gt;46747312</title>
<path fill="none" stroke="black" d="M1994.52,-515.542C1997.32,-524.525 2000.21,-533.803 2002.89,-542.371"/>
<polygon fill="black" stroke="black" points="1999.58,-543.539 2005.9,-552.043 2006.27,-541.455 1999.58,-543.539"/>
</g>
<!-- 46860640 -->
<g id="node15" class="node"><title>46860640</title>
<ellipse fill="gold" stroke="black" cx="1227" cy="-1207" rx="576.999" ry="46.669"/>
<text text-anchor="middle" x="1227" y="-1214.4" font-family="Times Roman,serif" font-size="24.00">exp: (branch_exp x (quote (normal y 1.000000)) (quote 1.000000))</text>
<text text-anchor="middle" x="1227" y="-1185.4" font-family="Times Roman,serif" font-size="24.00">value: &#45;0.802434</text>
</g>
<!-- 46977296 -->
<g id="node16" class="node"><title>46977296</title>
<ellipse fill="#8f8f8f" stroke="black" cx="988" cy="-1077" rx="451.134" ry="26.163"/>
<text text-anchor="middle" x="988" y="-1069.9" font-family="Times Roman,serif" font-size="24.00">request: [(46977296, (normal y 1.000000), &lt;env&gt;)]</text>
</g>
<!-- 46977296&#45;&gt;46860640 -->
<g id="edge27" class="edge"><title>46977296&#45;&gt;46860640</title>
<path fill="none" stroke="black" d="M1035.79,-1102.99C1063.68,-1118.16 1099.83,-1137.83 1133.18,-1155.97"/>
<polygon fill="black" stroke="black" points="1131.59,-1159.09 1142.05,-1160.79 1134.94,-1152.94 1131.59,-1159.09"/>
</g>
<!-- 47621456 -->
<g id="node22" class="node"><title>47621456</title>
<ellipse fill="firebrick" stroke="black" cx="1822" cy="-1077" rx="225.775" ry="46.669"/>
<text text-anchor="middle" x="1822" y="-1084.4" font-family="Times Roman,serif" font-size="24.00">exp: (normal y 1.000000)</text>
<text text-anchor="middle" x="1822" y="-1055.4" font-family="Times Roman,serif" font-size="24.00">value: &#45;0.802434</text>
</g>
<!-- 46977296&#45;&gt;47621456 -->
<g id="edge31" class="edge"><title>46977296&#45;&gt;47621456</title>
<path fill="none" stroke="black" stroke-dasharray="1,5" d="M1439.21,-1077C1488.05,-1077 1536.9,-1077 1585.74,-1077"/>
<polygon fill="black" stroke="black" points="1585.84,-1080.5 1595.84,-1077 1585.84,-1073.5 1585.84,-1080.5"/>
</g>
<!-- 47023952 -->
<g id="node17" class="node"><title>47023952</title>
<ellipse fill="#8f8f8f" stroke="black" cx="154" cy="-947" rx="154.149" ry="46.669"/>
<text text-anchor="middle" x="154" y="-954.4" font-family="Times Roman,serif" font-size="24.00">exp: branch_exp</text>
<text text-anchor="middle" x="154" y="-925.4" font-family="Times Roman,serif" font-size="24.00">value: sp:branch</text>
</g>
<!-- 47023952&#45;&gt;46860640 -->
<g id="edge7" class="edge"><title>47023952&#45;&gt;46860640</title>
<path fill="none" stroke="black" d="M220.263,-988.996C289.291,-1030.57 401.97,-1092.44 508,-1124 568.375,-1141.97 691.747,-1158.6 819.508,-1172.17"/>
<polygon fill="black" stroke="black" points="819.189,-1175.66 829.502,-1173.23 819.924,-1168.7 819.189,-1175.66"/>
</g>
<!-- 47023952&#45;&gt;46977296 -->
<g id="edge9" class="edge"><title>47023952&#45;&gt;46977296</title>
<path fill="none" stroke="black" d="M261.249,-980.517C279.72,-985.543 298.822,-990.279 317,-994 450.937,-1021.42 601.893,-1041.07 726.658,-1054.34"/>
<polygon fill="black" stroke="black" points="726.424,-1057.84 736.736,-1055.41 727.159,-1050.87 726.424,-1057.84"/>
</g>
<!-- 47476656&#45;&gt;46860640 -->
<g id="edge13" class="edge"><title>47476656&#45;&gt;46860640</title>
<path fill="none" stroke="black" d="M1508.19,-993.529C1508.32,-1032.82 1502.13,-1088.25 1471,-1124 1460.36,-1136.22 1436.22,-1148.17 1407.06,-1159.02"/>
<polygon fill="black" stroke="black" points="1405.64,-1155.81 1397.43,-1162.5 1408.03,-1162.39 1405.64,-1155.81"/>
</g>
<!-- 47476656&#45;&gt;46977296 -->
<g id="edge15" class="edge"><title>47476656&#45;&gt;46977296</title>
<path fill="none" stroke="black" d="M1394.04,-979.581C1376.34,-984.554 1358.2,-989.517 1341,-994 1265.08,-1013.79 1179.42,-1033.98 1111.5,-1049.49"/>
<polygon fill="black" stroke="black" points="1110.58,-1046.11 1101.61,-1051.75 1112.14,-1052.94 1110.58,-1046.11"/>
</g>
<!-- 46748512 -->
<g id="node19" class="node"><title>46748512</title>
<ellipse fill="#8f8f8f" stroke="black" cx="619" cy="-947" rx="292.949" ry="46.669"/>
<text text-anchor="middle" x="619" y="-954.4" font-family="Times Roman,serif" font-size="24.00">exp: (quote (normal y 1.000000))</text>
<text text-anchor="middle" x="619" y="-925.4" font-family="Times Roman,serif" font-size="24.00">value: (normal y 1.000000)</text>
</g>
<!-- 46748512&#45;&gt;46860640 -->
<g id="edge19" class="edge"><title>46748512&#45;&gt;46860640</title>
<path fill="none" stroke="black" d="M554.721,-992.628C543.86,-1003.54 534.131,-1016.11 528,-1030 511.13,-1068.22 500.255,-1092.77 528,-1124 547.582,-1146.04 651.746,-1163.26 773.935,-1176.16"/>
<polygon fill="black" stroke="black" points="773.591,-1179.65 783.9,-1177.2 774.317,-1172.68 773.591,-1179.65"/>
</g>
<!-- 46748512&#45;&gt;46977296 -->
<g id="edge21" class="edge"><title>46748512&#45;&gt;46977296</title>
<path fill="none" stroke="black" d="M739.569,-989.477C793.873,-1008.61 856.609,-1030.71 905.45,-1047.92"/>
<polygon fill="black" stroke="black" points="904.432,-1051.27 915.027,-1051.29 906.758,-1044.67 904.432,-1051.27"/>
</g>
<!-- 47534080 -->
<g id="node20" class="node"><title>47534080</title>
<ellipse fill="#8f8f8f" stroke="black" cx="1131" cy="-947" rx="200.818" ry="46.669"/>
<text text-anchor="middle" x="1131" y="-954.4" font-family="Times Roman,serif" font-size="24.00">exp: (quote 1.000000)</text>
<text text-anchor="middle" x="1131" y="-925.4" font-family="Times Roman,serif" font-size="24.00">value: 1.000000</text>
</g>
<!-- 47534080&#45;&gt;46860640 -->
<g id="edge23" class="edge"><title>47534080&#45;&gt;46860640</title>
<path fill="none" stroke="black" d="M1273.03,-980.115C1354.62,-999.818 1442.14,-1022.41 1448,-1030 1473.53,-1063.07 1471.79,-1089.66 1448,-1124 1439.74,-1135.93 1419.14,-1147.61 1393.66,-1158.26"/>
<polygon fill="black" stroke="black" points="1392.03,-1155.15 1384.07,-1162.14 1394.65,-1161.64 1392.03,-1155.15"/>
</g>
<!-- 47534080&#45;&gt;46977296 -->
<g id="edge25" class="edge"><title>47534080&#45;&gt;46977296</title>
<path fill="none" stroke="black" d="M1081.39,-992.103C1062.64,-1009.15 1041.67,-1028.21 1024.36,-1043.95"/>
<polygon fill="black" stroke="black" points="1021.73,-1041.61 1016.68,-1050.92 1026.44,-1046.79 1021.73,-1041.61"/>
</g>
<!-- 47621456&#45;&gt;46860640 -->
<g id="edge29" class="edge"><title>47621456&#45;&gt;46860640</title>
<path fill="none" stroke="black" d="M1666.84,-1110.9C1596.65,-1126.24 1512.63,-1144.59 1436.92,-1161.14"/>
<polygon fill="black" stroke="black" points="1435.79,-1157.8 1426.77,-1163.35 1437.29,-1164.64 1435.79,-1157.8"/>
</g>
<!-- 47570256 -->
<g id="node23" class="node"><title>47570256</title>
<ellipse fill="#8f8f8f" stroke="black" cx="1950" cy="-947" rx="99.9096" ry="26.163"/>
<text text-anchor="middle" x="1950" y="-939.9" font-family="Times Roman,serif" font-size="24.00">request: []</text>
</g>
<!-- 47570256&#45;&gt;47621456 -->
<g id="edge67" class="edge"><title>47570256&#45;&gt;47621456</title>
<path fill="none" stroke="black" d="M1925.02,-972.374C1910.63,-986.986 1891.99,-1005.92 1874.53,-1023.65"/>
<polygon fill="black" stroke="black" points="1871.65,-1021.58 1867.13,-1031.17 1876.64,-1026.5 1871.65,-1021.58"/>
</g>
<!-- 47657632 -->
<g id="node24" class="node"><title>47657632</title>
<ellipse fill="#8f8f8f" stroke="black" cx="1623" cy="-817" rx="154.149" ry="46.669"/>
<text text-anchor="middle" x="1623" y="-824.4" font-family="Times Roman,serif" font-size="24.00">exp: normal</text>
<text text-anchor="middle" x="1623" y="-795.4" font-family="Times Roman,serif" font-size="24.00">value: sp:normal</text>
</g>
<!-- 47657632&#45;&gt;47621456 -->
<g id="edge51" class="edge"><title>47657632&#45;&gt;47621456</title>
<path fill="none" stroke="black" d="M1657.89,-862.586C1692.14,-907.33 1744.37,-975.579 1780.68,-1023.01"/>
<polygon fill="black" stroke="black" points="1777.96,-1025.22 1786.81,-1031.03 1783.52,-1020.96 1777.96,-1025.22"/>
</g>
<!-- 47657632&#45;&gt;47570256 -->
<g id="edge53" class="edge"><title>47657632&#45;&gt;47570256</title>
<path fill="none" stroke="black" d="M1716.27,-854.079C1770.42,-875.608 1837.27,-902.183 1885.58,-921.391"/>
<polygon fill="black" stroke="black" points="1884.4,-924.688 1894.99,-925.13 1886.99,-918.184 1884.4,-924.688"/>
</g>
<!-- 47708832&#45;&gt;47621456 -->
<g id="edge57" class="edge"><title>47708832&#45;&gt;47621456</title>
<path fill="none" stroke="black" d="M1878.13,-858.366C1863.62,-870.002 1850.05,-883.943 1841,-900 1820.46,-936.418 1816.33,-983.774 1816.99,-1020.34"/>
<polygon fill="black" stroke="black" points="1813.49,-1020.46 1817.3,-1030.35 1820.49,-1020.24 1813.49,-1020.46"/>
</g>
<!-- 47708832&#45;&gt;47570256 -->
<g id="edge59" class="edge"><title>47708832&#45;&gt;47570256</title>
<path fill="none" stroke="black" d="M1950,-863.566C1950,-879.043 1950,-896.04 1950,-910.632"/>
<polygon fill="black" stroke="black" points="1946.5,-910.776 1950,-920.776 1953.5,-910.776 1946.5,-910.776"/>
</g>
<!-- 47745008 -->
<g id="node26" class="node"><title>47745008</title>
<ellipse fill="#8f8f8f" stroke="black" cx="2272" cy="-817" rx="149.2" ry="46.669"/>
<text text-anchor="middle" x="2272" y="-824.4" font-family="Times Roman,serif" font-size="24.00">exp: 1.000000</text>
<text text-anchor="middle" x="2272" y="-795.4" font-family="Times Roman,serif" font-size="24.00">value: 1.000000</text>
</g>
<!-- 47745008&#45;&gt;47621456 -->
<g id="edge63" class="edge"><title>47745008&#45;&gt;47621456</title>
<path fill="none" stroke="black" d="M2228.19,-861.534C2187.43,-900.881 2123.44,-957.524 2059,-994 2030.03,-1010.4 1997.26,-1024.4 1965.54,-1035.97"/>
<polygon fill="black" stroke="black" points="1963.96,-1032.82 1955.73,-1039.48 1966.32,-1039.41 1963.96,-1032.82"/>
</g>
<!-- 47745008&#45;&gt;47570256 -->
<g id="edge65" class="edge"><title>47745008&#45;&gt;47570256</title>
<path fill="none" stroke="black" d="M2180.59,-853.905C2127.25,-875.44 2061.29,-902.069 2013.6,-921.323"/>
<polygon fill="black" stroke="black" points="2012.28,-918.082 2004.32,-925.071 2014.9,-924.573 2012.28,-918.082"/>
</g>
<!-- 44994048 -->
<g id="node29" class="node"><title>44994048</title>
<ellipse fill="none" stroke="black" cx="154" cy="-817" rx="62.9325" ry="18.3848"/>
<text text-anchor="middle" x="154" y="-813.4" font-family="Times Roman,serif" font-size="14.00">44994048</text>
</g>
<!-- 44994048&#45;&gt;47023952 -->
<g id="edge11" class="edge"><title>44994048&#45;&gt;47023952</title>
<path fill="none" stroke="black" d="M154,-835.626C154,-849.974 154,-870.614 154,-890.236"/>
<polygon fill="black" stroke="black" points="150.5,-890.365 154,-900.365 157.5,-890.365 150.5,-890.365"/>
</g>
<!-- 45368368 -->
<g id="node43" class="node"><title>45368368</title>
<ellipse fill="none" stroke="black" cx="1800" cy="-19" rx="62.9325" ry="18.3848"/>
<text text-anchor="middle" x="1800" y="-15.4" font-family="Times Roman,serif" font-size="14.00">45368368</text>
</g>
<!-- 45368368&#45;&gt;48907824 -->
<g id="edge73" class="edge"><title>45368368&#45;&gt;48907824</title>
<path fill="none" stroke="black" d="M1800,-37.7084C1800,-45.3917 1800,-54.7362 1800,-64.3518"/>
<polygon fill="black" stroke="black" points="1796.5,-64.4121 1800,-74.4121 1803.5,-64.4122 1796.5,-64.4121"/>
</g>
<!-- 45368368&#45;&gt;47173568 -->
<g id="edge37" class="edge"><title>45368368&#45;&gt;47173568</title>
<path fill="none" stroke="black" d="M1862.44,-21.753C1985.71,-27.8138 2250.9,-44.197 2279,-74 2365.01,-165.207 2339.55,-327.151 2317.86,-412.6"/>
<polygon fill="black" stroke="black" points="2314.44,-411.821 2315.31,-422.381 2321.22,-413.588 2314.44,-411.821"/>
</g>
<!-- 45368368&#45;&gt;47657632 -->
<g id="edge55" class="edge"><title>45368368&#45;&gt;47657632</title>
<path fill="none" stroke="black" d="M1737.72,-21.9087C1614.75,-28.2549 1350.07,-45.1341 1321,-74 1271.44,-123.218 1302,-160.154 1302,-230 1302,-230 1302,-230 1302,-578 1302,-681.677 1411.06,-745.692 1502.04,-781.057"/>
<polygon fill="black" stroke="black" points="1501.04,-784.419 1511.63,-784.704 1503.53,-777.877 1501.04,-784.419"/>
</g>
</g>
</svg>
