<?xml version="1.0" encoding="UTF-8" standalone="no"?>
<!DOCTYPE svg PUBLIC "-//W3C//DTD SVG 1.1//EN"
 "http://www.w3.org/Graphics/SVG/1.1/DTD/svg11.dtd">
<!-- Generated by graphviz version 2.26.3 (20100126.1600)
 -->
<!-- Title: _anonymous_0 Pages: 1 -->
<svg width="3500pt" height="895pt"
 viewBox="0.00 0.00 3500.00 895.00" xmlns="http://www.w3.org/2000/svg" xmlns:xlink="http://www.w3.org/1999/xlink">
<g id="graph1" class="graph" transform="scale(1 1) rotate(0) translate(4 891)">
<title>_anonymous_0</title>
<polygon fill="white" stroke="white" points="-4,5 -4,-891 3497,-891 3497,5 -4,5"/>
<g id="graph2" class="cluster"><title>cluster1</title>
<polygon fill="none" stroke="black" points="8,-46 8,-879 2236,-879 2236,-46 8,-46"/>
<text text-anchor="middle" x="1122" y="-57.4" font-family="Times Roman,serif" font-size="24.00">Venture Families</text>
</g>
<g id="graph3" class="cluster"><title>cluster2</title>
<polygon fill="none" stroke="black" points="1138,-91 1138,-456 2228,-456 2228,-91 1138,-91"/>
<text text-anchor="middle" x="1683" y="-102.4" font-family="Times Roman,serif" font-size="24.00">1</text>
</g>
<g id="graph4" class="cluster"><title>cluster3</title>
<polygon fill="none" stroke="black" points="16,-464 16,-871 748,-871 748,-464 16,-464"/>
<text text-anchor="middle" x="382" y="-475.4" font-family="Times Roman,serif" font-size="24.00">2</text>
</g>
<g id="graph5" class="cluster"><title>cluster4</title>
<polygon fill="none" stroke="black" points="756,-464 756,-871 1488,-871 1488,-464 756,-464"/>
<text text-anchor="middle" x="1122" y="-475.4" font-family="Times Roman,serif" font-size="24.00">3</text>
</g>
<g id="graph6" class="cluster"><title>cluster5</title>
<polygon fill="none" stroke="black" points="1496,-464 1496,-871 2228,-871 2228,-464 1496,-464"/>
<text text-anchor="middle" x="1862" y="-475.4" font-family="Times Roman,serif" font-size="24.00">4</text>
</g>
<g id="graph7" class="cluster"><title>cluster6</title>
<polygon fill="none" stroke="black" points="2244,-346 2244,-741 2652,-741 2652,-346 2244,-346"/>
</g>
<g id="graph8" class="cluster"><title>cluster7</title>
<polygon fill="none" stroke="black" points="2660,-346 2660,-741 3068,-741 3068,-346 2660,-346"/>
</g>
<g id="graph9" class="cluster"><title>cluster8</title>
<polygon fill="none" stroke="black" points="3076,-346 3076,-741 3484,-741 3484,-346 3076,-346"/>
</g>
<!-- 33849760 -->
<g id="node3" class="node"><title>33849760</title>
<ellipse fill="#8f8f8f" stroke="black" cx="1544" cy="-401" rx="294.864" ry="46.669"/>
<text text-anchor="middle" x="1544" y="-408.4" font-family="Times Roman,serif" font-size="24.00">exp: (dpmem bernoulli 1.000000)</text>
<text text-anchor="middle" x="1544" y="-379.4" font-family="Times Roman,serif" font-size="24.00">value: sp:pymem</text>
</g>
<!-- 33301776 -->
<g id="node11" class="node"><title>33301776</title>
<ellipse fill="#8f8f8f" stroke="black" cx="392" cy="-556" rx="159.099" ry="46.669"/>
<text text-anchor="middle" x="392" y="-563.4" font-family="Times Roman,serif" font-size="24.00">exp: f</text>
<text text-anchor="middle" x="392" y="-534.4" font-family="Times Roman,serif" font-size="24.00">value: sp:pymem</text>
</g>
<!-- 33849760&#45;&gt;33301776 -->
<g id="edge40" class="edge"><title>33849760&#45;&gt;33301776</title>
<path fill="none" stroke="black" d="M1257.09,-411.996C1106.04,-420.761 918.17,-436.366 752,-464 671.168,-477.442 581.918,-500.196 512.505,-519.71"/>
<polygon fill="black" stroke="black" points="511.516,-516.353 502.845,-522.441 513.42,-523.089 511.516,-516.353"/>
</g>
<!-- 32988640 -->
<g id="node15" class="node"><title>32988640</title>
<ellipse fill="#8f8f8f" stroke="black" cx="1132" cy="-556" rx="159.099" ry="46.669"/>
<text text-anchor="middle" x="1132" y="-563.4" font-family="Times Roman,serif" font-size="24.00">exp: f</text>
<text text-anchor="middle" x="1132" y="-534.4" font-family="Times Roman,serif" font-size="24.00">value: sp:pymem</text>
</g>
<!-- 33849760&#45;&gt;32988640 -->
<g id="edge30" class="edge"><title>33849760&#45;&gt;32988640</title>
<path fill="none" stroke="black" d="M1429.78,-443.97C1370.23,-466.375 1297.81,-493.62 1239.3,-515.632"/>
<polygon fill="black" stroke="black" points="1237.79,-512.461 1229.66,-519.258 1240.25,-519.013 1237.79,-512.461"/>
</g>
<!-- 33152160 -->
<g id="node19" class="node"><title>33152160</title>
<ellipse fill="#8f8f8f" stroke="black" cx="1663" cy="-556" rx="159.099" ry="46.669"/>
<text text-anchor="middle" x="1663" y="-563.4" font-family="Times Roman,serif" font-size="24.00">exp: f</text>
<text text-anchor="middle" x="1663" y="-534.4" font-family="Times Roman,serif" font-size="24.00">value: sp:pymem</text>
</g>
<!-- 33849760&#45;&gt;33152160 -->
<g id="edge76" class="edge"><title>33849760&#45;&gt;33152160</title>
<path fill="none" stroke="black" d="M1579.7,-447.505C1593,-464.827 1608.2,-484.622 1621.94,-502.52"/>
<polygon fill="black" stroke="black" points="1619.27,-504.794 1628.14,-510.594 1624.83,-500.531 1619.27,-504.794"/>
</g>
<!-- 33712752 -->
<g id="node4" class="node"><title>33712752</title>
<ellipse fill="#8f8f8f" stroke="black" cx="1663" cy="-292" rx="99.9096" ry="26.163"/>
<text text-anchor="middle" x="1663" y="-284.9" font-family="Times Roman,serif" font-size="24.00">request: []</text>
</g>
<!-- 33712752&#45;&gt;33849760 -->
<g id="edge62" class="edge"><title>33712752&#45;&gt;33849760</title>
<path fill="none" stroke="black" d="M1635.4,-317.281C1625.37,-326.464 1613.63,-337.218 1601.97,-347.9"/>
<polygon fill="black" stroke="black" points="1599.35,-345.557 1594.34,-354.893 1604.08,-350.719 1599.35,-345.557"/>
</g>
<!-- 33887504 -->
<g id="node5" class="node"><title>33887504</title>
<ellipse fill="#8f8f8f" stroke="black" cx="1663" cy="-183" rx="200.818" ry="46.669"/>
<text text-anchor="middle" x="1663" y="-190.4" font-family="Times Roman,serif" font-size="24.00">exp: dpmem</text>
<text text-anchor="middle" x="1663" y="-161.4" font-family="Times Roman,serif" font-size="24.00">value: sp:sp_no_name</text>
</g>
<!-- 33887504&#45;&gt;33849760 -->
<g id="edge46" class="edge"><title>33887504&#45;&gt;33849760</title>
<path fill="none" stroke="black" d="M1588.23,-226.204C1574.7,-237.43 1562.28,-250.737 1554,-266 1541.25,-289.513 1537.86,-318.804 1538.03,-344.087"/>
<polygon fill="black" stroke="black" points="1534.53,-344.375 1538.28,-354.284 1541.53,-344.199 1534.53,-344.375"/>
</g>
<!-- 33887504&#45;&gt;33712752 -->
<g id="edge48" class="edge"><title>33887504&#45;&gt;33712752</title>
<path fill="none" stroke="black" d="M1663,-229.542C1663,-238.249 1663,-247.232 1663,-255.578"/>
<polygon fill="black" stroke="black" points="1659.5,-255.739 1663,-265.739 1666.5,-255.739 1659.5,-255.739"/>
</g>
<!-- 34338352 -->
<g id="node6" class="node"><title>34338352</title>
<ellipse fill="#8f8f8f" stroke="black" cx="2051" cy="-183" rx="168.999" ry="46.669"/>
<text text-anchor="middle" x="2051" y="-190.4" font-family="Times Roman,serif" font-size="24.00">exp: bernoulli</text>
<text text-anchor="middle" x="2051" y="-161.4" font-family="Times Roman,serif" font-size="24.00">value: sp:bernoulli</text>
</g>
<!-- 34338352&#45;&gt;33849760 -->
<g id="edge52" class="edge"><title>34338352&#45;&gt;33849760</title>
<path fill="none" stroke="black" d="M1971.41,-224.179C1916.13,-252.119 1840.4,-289.09 1772,-318 1741.58,-330.856 1708.42,-343.621 1677.03,-355.146"/>
<polygon fill="black" stroke="black" points="1675.55,-351.962 1667.36,-358.681 1677.95,-358.537 1675.55,-351.962"/>
</g>
<!-- 34338352&#45;&gt;33712752 -->
<g id="edge54" class="edge"><title>34338352&#45;&gt;33712752</title>
<path fill="none" stroke="black" d="M1932.74,-216.222C1870.39,-233.737 1795.67,-254.731 1740.69,-270.175"/>
<polygon fill="black" stroke="black" points="1739.69,-266.821 1731.01,-272.895 1741.58,-273.56 1739.69,-266.821"/>
</g>
<!-- 33662288 -->
<g id="node23" class="node"><title>33662288</title>
<ellipse fill="#8f8f8f" stroke="black" cx="2436" cy="-401" rx="183.848" ry="46.669"/>
<text text-anchor="middle" x="2436" y="-408.4" font-family="Times Roman,serif" font-size="24.00">exp: pymemoizedSP</text>
<text text-anchor="middle" x="2436" y="-379.4" font-family="Times Roman,serif" font-size="24.00">value: sp:bernoulli</text>
</g>
<!-- 34338352&#45;&gt;33662288 -->
<g id="edge14" class="edge"><title>34338352&#45;&gt;33662288</title>
<path fill="none" stroke="black" d="M2125.23,-225.033C2190.06,-261.74 2284.1,-314.991 2351.74,-353.288"/>
<polygon fill="black" stroke="black" points="2350.26,-356.471 2360.68,-358.353 2353.71,-350.38 2350.26,-356.471"/>
</g>
<!-- 35338048 -->
<g id="node27" class="node"><title>35338048</title>
<ellipse fill="#8f8f8f" stroke="black" cx="2852" cy="-401" rx="183.848" ry="46.669"/>
<text text-anchor="middle" x="2852" y="-408.4" font-family="Times Roman,serif" font-size="24.00">exp: pymemoizedSP</text>
<text text-anchor="middle" x="2852" y="-379.4" font-family="Times Roman,serif" font-size="24.00">value: sp:bernoulli</text>
</g>
<!-- 34338352&#45;&gt;35338048 -->
<g id="edge22" class="edge"><title>34338352&#45;&gt;35338048</title>
<path fill="none" stroke="black" d="M2172.49,-215.334C2294.72,-247.959 2488.58,-299.957 2656,-346 2676.54,-351.648 2698.27,-357.685 2719.49,-363.615"/>
<polygon fill="black" stroke="black" points="2718.63,-367.008 2729.2,-366.33 2720.52,-360.267 2718.63,-367.008"/>
</g>
<!-- 33061376 -->
<g id="node31" class="node"><title>33061376</title>
<ellipse fill="#8f8f8f" stroke="black" cx="3268" cy="-401" rx="183.848" ry="46.669"/>
<text text-anchor="middle" x="3268" y="-408.4" font-family="Times Roman,serif" font-size="24.00">exp: pymemoizedSP</text>
<text text-anchor="middle" x="3268" y="-379.4" font-family="Times Roman,serif" font-size="24.00">value: sp:bernoulli</text>
</g>
<!-- 34338352&#45;&gt;33061376 -->
<g id="edge68" class="edge"><title>34338352&#45;&gt;33061376</title>
<path fill="none" stroke="black" d="M2205.55,-202.027C2406.44,-228.046 2767.58,-279.221 3072,-346 3093.95,-350.815 3117.09,-356.632 3139.47,-362.656"/>
<polygon fill="black" stroke="black" points="3138.79,-366.096 3149.36,-365.341 3140.62,-359.341 3138.79,-366.096"/>
</g>
<!-- 35036032 -->
<g id="node7" class="node"><title>35036032</title>
<ellipse fill="#8f8f8f" stroke="black" cx="1295" cy="-183" rx="149.2" ry="46.669"/>
<text text-anchor="middle" x="1295" y="-190.4" font-family="Times Roman,serif" font-size="24.00">exp: 1.000000</text>
<text text-anchor="middle" x="1295" y="-161.4" font-family="Times Roman,serif" font-size="24.00">value: 1.000000</text>
</g>
<!-- 35036032&#45;&gt;33849760 -->
<g id="edge58" class="edge"><title>35036032&#45;&gt;33849760</title>
<path fill="none" stroke="black" d="M1345.09,-226.853C1385.06,-261.851 1441.2,-311.002 1483.65,-348.167"/>
<polygon fill="black" stroke="black" points="1481.58,-351.007 1491.41,-354.961 1486.2,-345.74 1481.58,-351.007"/>
</g>
<!-- 35036032&#45;&gt;33712752 -->
<g id="edge60" class="edge"><title>35036032&#45;&gt;33712752</title>
<path fill="none" stroke="black" d="M1402.93,-215.138C1419.69,-220.12 1436.81,-225.202 1453,-230 1497.45,-243.172 1547.2,-257.863 1587.12,-269.637"/>
<polygon fill="black" stroke="black" points="1586.2,-273.016 1596.78,-272.488 1588.18,-266.302 1586.2,-273.016"/>
</g>
<!-- 33169600 -->
<g id="node9" class="node"><title>33169600</title>
<ellipse fill="#8f8f8f" stroke="black" cx="392" cy="-816" rx="89.8026" ry="46.669"/>
<text text-anchor="middle" x="392" y="-823.4" font-family="Times Roman,serif" font-size="24.00">exp: (f)</text>
<text text-anchor="middle" x="392" y="-794.4" font-family="Times Roman,serif" font-size="24.00">value: #f</text>
</g>
<!-- 32993616 -->
<g id="node10" class="node"><title>32993616</title>
<ellipse fill="#8f8f8f" stroke="black" cx="392" cy="-686" rx="347.897" ry="26.163"/>
<text text-anchor="middle" x="392" y="-678.9" font-family="Times Roman,serif" font-size="24.00">request: [(0, (pymemoizedSP), &lt;env&gt;)]</text>
</g>
<!-- 32993616&#45;&gt;33169600 -->
<g id="edge42" class="edge"><title>32993616&#45;&gt;33169600</title>
<path fill="none" stroke="black" d="M392,-712.307C392,-725.886 392,-743.006 392,-759.401"/>
<polygon fill="black" stroke="black" points="388.5,-759.477 392,-769.477 395.5,-759.477 388.5,-759.477"/>
</g>
<!-- 33301776&#45;&gt;33169600 -->
<g id="edge36" class="edge"><title>33301776&#45;&gt;33169600</title>
<path fill="none" stroke="black" d="M242.661,-572.05C157.006,-584.676 61.3659,-605.801 35,-639 6.8067,-674.5 6.42914,-705.803 35,-741 66.9161,-780.318 198.275,-799.781 292.378,-808.852"/>
<polygon fill="black" stroke="black" points="292.226,-812.353 302.509,-809.802 292.88,-805.383 292.226,-812.353"/>
</g>
<!-- 33301776&#45;&gt;32993616 -->
<g id="edge38" class="edge"><title>33301776&#45;&gt;32993616</title>
<path fill="none" stroke="black" d="M392,-602.566C392,-618.043 392,-635.04 392,-649.632"/>
<polygon fill="black" stroke="black" points="388.5,-649.776 392,-659.776 395.5,-649.776 388.5,-649.776"/>
</g>
<!-- 33105296 -->
<g id="node13" class="node"><title>33105296</title>
<ellipse fill="gold" stroke="black" cx="1132" cy="-816" rx="90.0096" ry="46.669"/>
<text text-anchor="middle" x="1132" y="-823.4" font-family="Times Roman,serif" font-size="24.00">exp: (f)</text>
<text text-anchor="middle" x="1132" y="-794.4" font-family="Times Roman,serif" font-size="24.00">value: #t</text>
</g>
<!-- 32904512 -->
<g id="node14" class="node"><title>32904512</title>
<ellipse fill="#8f8f8f" stroke="black" cx="1132" cy="-686" rx="347.897" ry="26.163"/>
<text text-anchor="middle" x="1132" y="-678.9" font-family="Times Roman,serif" font-size="24.00">request: [(1, (pymemoizedSP), &lt;env&gt;)]</text>
</g>
<!-- 32904512&#45;&gt;33105296 -->
<g id="edge32" class="edge"><title>32904512&#45;&gt;33105296</title>
<path fill="none" stroke="black" d="M1132,-712.307C1132,-725.886 1132,-743.006 1132,-759.401"/>
<polygon fill="black" stroke="black" points="1128.5,-759.477 1132,-769.477 1135.5,-759.477 1128.5,-759.477"/>
</g>
<!-- 32988640&#45;&gt;33105296 -->
<g id="edge26" class="edge"><title>32988640&#45;&gt;33105296</title>
<path fill="none" stroke="black" d="M982.661,-572.05C897.006,-584.676 801.366,-605.801 775,-639 746.807,-674.5 746.429,-705.803 775,-741 806.916,-780.318 938.275,-799.781 1032.38,-808.852"/>
<polygon fill="black" stroke="black" points="1032.23,-812.353 1042.51,-809.802 1032.88,-805.383 1032.23,-812.353"/>
</g>
<!-- 32988640&#45;&gt;32904512 -->
<g id="edge28" class="edge"><title>32988640&#45;&gt;32904512</title>
<path fill="none" stroke="black" d="M1132,-602.566C1132,-618.043 1132,-635.04 1132,-649.632"/>
<polygon fill="black" stroke="black" points="1128.5,-649.776 1132,-659.776 1135.5,-649.776 1128.5,-649.776"/>
</g>
<!-- 35345968 -->
<g id="node17" class="node"><title>35345968</title>
<ellipse fill="#8f8f8f" stroke="black" cx="1872" cy="-816" rx="89.8026" ry="46.669"/>
<text text-anchor="middle" x="1872" y="-823.4" font-family="Times Roman,serif" font-size="24.00">exp: (f)</text>
<text text-anchor="middle" x="1872" y="-794.4" font-family="Times Roman,serif" font-size="24.00">value: #f</text>
</g>
<!-- 35335216 -->
<g id="node18" class="node"><title>35335216</title>
<ellipse fill="#8f8f8f" stroke="black" cx="1872" cy="-686" rx="347.897" ry="26.163"/>
<text text-anchor="middle" x="1872" y="-678.9" font-family="Times Roman,serif" font-size="24.00">request: [(2, (pymemoizedSP), &lt;env&gt;)]</text>
</g>
<!-- 35335216&#45;&gt;35345968 -->
<g id="edge78" class="edge"><title>35335216&#45;&gt;35345968</title>
<path fill="none" stroke="black" d="M1872,-712.307C1872,-725.886 1872,-743.006 1872,-759.401"/>
<polygon fill="black" stroke="black" points="1868.5,-759.477 1872,-769.477 1875.5,-759.477 1868.5,-759.477"/>
</g>
<!-- 33152160&#45;&gt;35345968 -->
<g id="edge72" class="edge"><title>33152160&#45;&gt;35345968</title>
<path fill="none" stroke="black" d="M1563.55,-592.513C1544.19,-604.318 1526.39,-619.554 1515,-639 1492.09,-678.117 1486.43,-705.803 1515,-741 1546.92,-780.318 1678.28,-799.781 1772.38,-808.852"/>
<polygon fill="black" stroke="black" points="1772.23,-812.353 1782.51,-809.802 1772.88,-805.383 1772.23,-812.353"/>
</g>
<!-- 33152160&#45;&gt;35335216 -->
<g id="edge74" class="edge"><title>33152160&#45;&gt;35335216</title>
<path fill="none" stroke="black" d="M1730.86,-598.207C1760.43,-616.604 1794.49,-637.791 1821.75,-654.741"/>
<polygon fill="black" stroke="black" points="1820,-657.777 1830.34,-660.087 1823.7,-651.833 1820,-657.777"/>
</g>
<!-- 32876512 -->
<g id="node21" class="node"><title>32876512</title>
<ellipse fill="#8f8f8f" stroke="black" cx="2448" cy="-686" rx="196.075" ry="46.669"/>
<text text-anchor="middle" x="2448" y="-693.4" font-family="Times Roman,serif" font-size="24.00">exp: (pymemoizedSP)</text>
<text text-anchor="middle" x="2448" y="-664.4" font-family="Times Roman,serif" font-size="24.00">value: #f</text>
</g>
<!-- 32876512&#45;&gt;35345968 -->
<g id="edge80" class="edge"><title>32876512&#45;&gt;35345968</title>
<path fill="none" stroke="black" d="M2316.29,-720.517C2288.51,-727.523 2259.33,-734.676 2232,-741 2142.15,-761.788 2039.07,-782.996 1966.31,-797.532"/>
<polygon fill="black" stroke="black" points="1965.37,-794.15 1956.24,-799.538 1966.73,-801.015 1965.37,-794.15"/>
</g>
<!-- 33342704 -->
<g id="node22" class="node"><title>33342704</title>
<ellipse fill="#8f8f8f" stroke="black" cx="2496" cy="-556" rx="99.9096" ry="26.163"/>
<text text-anchor="middle" x="2496" y="-548.9" font-family="Times Roman,serif" font-size="24.00">request: []</text>
</g>
<!-- 33342704&#45;&gt;32876512 -->
<g id="edge16" class="edge"><title>33342704&#45;&gt;32876512</title>
<path fill="none" stroke="black" d="M2486.4,-581.995C2481.32,-595.746 2474.88,-613.192 2468.73,-629.848"/>
<polygon fill="black" stroke="black" points="2465.34,-628.937 2465.16,-639.53 2471.91,-631.362 2465.34,-628.937"/>
</g>
<!-- 33662288&#45;&gt;32876512 -->
<g id="edge10" class="edge"><title>33662288&#45;&gt;32876512</title>
<path fill="none" stroke="black" d="M2395.35,-446.458C2391.98,-452.075 2389.07,-457.971 2387,-464 2366.95,-522.434 2367.75,-544.298 2387,-603 2390.25,-612.915 2395.19,-622.623 2400.88,-631.702"/>
<polygon fill="black" stroke="black" points="2398.08,-633.812 2406.53,-640.2 2403.91,-629.936 2398.08,-633.812"/>
</g>
<!-- 33662288&#45;&gt;33342704 -->
<g id="edge12" class="edge"><title>33662288&#45;&gt;33342704</title>
<path fill="none" stroke="black" d="M2454,-447.505C2463.04,-470.859 2473.82,-498.707 2482.2,-520.343"/>
<polygon fill="black" stroke="black" points="2478.99,-521.746 2485.86,-529.808 2485.52,-519.219 2478.99,-521.746"/>
</g>
<!-- 33033712 -->
<g id="node25" class="node"><title>33033712</title>
<ellipse fill="firebrick" stroke="black" cx="2864" cy="-686" rx="196.075" ry="46.669"/>
<text text-anchor="middle" x="2864" y="-693.4" font-family="Times Roman,serif" font-size="24.00">exp: (pymemoizedSP)</text>
<text text-anchor="middle" x="2864" y="-664.4" font-family="Times Roman,serif" font-size="24.00">value: #t</text>
</g>
<!-- 33033712&#45;&gt;33105296 -->
<g id="edge34" class="edge"><title>33033712&#45;&gt;33105296</title>
<path fill="none" stroke="black" d="M2744,-722.844C2715.42,-730.189 2684.84,-736.898 2656,-741 2399.84,-777.433 1749.98,-749.113 1492,-769 1402.27,-775.917 1300.64,-789.739 1228.3,-800.612"/>
<polygon fill="black" stroke="black" points="1227.66,-797.17 1218.29,-802.126 1228.71,-804.091 1227.66,-797.17"/>
</g>
<!-- 33176464 -->
<g id="node26" class="node"><title>33176464</title>
<ellipse fill="#8f8f8f" stroke="black" cx="2912" cy="-556" rx="99.9096" ry="26.163"/>
<text text-anchor="middle" x="2912" y="-548.9" font-family="Times Roman,serif" font-size="24.00">request: []</text>
</g>
<!-- 33176464&#45;&gt;33033712 -->
<g id="edge24" class="edge"><title>33176464&#45;&gt;33033712</title>
<path fill="none" stroke="black" d="M2902.4,-581.995C2897.32,-595.746 2890.88,-613.192 2884.73,-629.848"/>
<polygon fill="black" stroke="black" points="2881.34,-628.937 2881.16,-639.53 2887.91,-631.362 2881.34,-628.937"/>
</g>
<!-- 35338048&#45;&gt;33033712 -->
<g id="edge18" class="edge"><title>35338048&#45;&gt;33033712</title>
<path fill="none" stroke="black" d="M2811.35,-446.458C2807.98,-452.075 2805.07,-457.971 2803,-464 2782.95,-522.434 2783.75,-544.298 2803,-603 2806.25,-612.915 2811.19,-622.623 2816.88,-631.702"/>
<polygon fill="black" stroke="black" points="2814.08,-633.812 2822.53,-640.2 2819.91,-629.936 2814.08,-633.812"/>
</g>
<!-- 35338048&#45;&gt;33176464 -->
<g id="edge20" class="edge"><title>35338048&#45;&gt;33176464</title>
<path fill="none" stroke="black" d="M2870,-447.505C2879.04,-470.859 2889.82,-498.707 2898.2,-520.343"/>
<polygon fill="black" stroke="black" points="2894.99,-521.746 2901.86,-529.808 2901.52,-519.219 2894.99,-521.746"/>
</g>
<!-- 35319152 -->
<g id="node29" class="node"><title>35319152</title>
<ellipse fill="#8f8f8f" stroke="black" cx="3280" cy="-686" rx="196.075" ry="46.669"/>
<text text-anchor="middle" x="3280" y="-693.4" font-family="Times Roman,serif" font-size="24.00">exp: (pymemoizedSP)</text>
<text text-anchor="middle" x="3280" y="-664.4" font-family="Times Roman,serif" font-size="24.00">value: #f</text>
</g>
<!-- 35319152&#45;&gt;33169600 -->
<g id="edge44" class="edge"><title>35319152&#45;&gt;33169600</title>
<path fill="none" stroke="black" d="M3160.58,-722.953C3131.85,-730.344 3101.05,-737.045 3072,-741 2816.56,-775.77 1009.15,-750.726 752,-769 662.079,-775.39 560.267,-789.31 487.917,-800.352"/>
<polygon fill="black" stroke="black" points="487.261,-796.912 477.908,-801.89 488.324,-803.83 487.261,-796.912"/>
</g>
<!-- 33070784 -->
<g id="node30" class="node"><title>33070784</title>
<ellipse fill="#8f8f8f" stroke="black" cx="3328" cy="-556" rx="99.9096" ry="26.163"/>
<text text-anchor="middle" x="3328" y="-548.9" font-family="Times Roman,serif" font-size="24.00">request: []</text>
</g>
<!-- 33070784&#45;&gt;35319152 -->
<g id="edge70" class="edge"><title>33070784&#45;&gt;35319152</title>
<path fill="none" stroke="black" d="M3318.4,-581.995C3313.32,-595.746 3306.88,-613.192 3300.73,-629.848"/>
<polygon fill="black" stroke="black" points="3297.34,-628.937 3297.16,-639.53 3303.91,-631.362 3297.34,-628.937"/>
</g>
<!-- 33061376&#45;&gt;35319152 -->
<g id="edge64" class="edge"><title>33061376&#45;&gt;35319152</title>
<path fill="none" stroke="black" d="M3227.35,-446.458C3223.98,-452.075 3221.07,-457.971 3219,-464 3198.95,-522.434 3199.75,-544.298 3219,-603 3222.25,-612.915 3227.19,-622.623 3232.88,-631.702"/>
<polygon fill="black" stroke="black" points="3230.08,-633.812 3238.53,-640.2 3235.91,-629.936 3230.08,-633.812"/>
</g>
<!-- 33061376&#45;&gt;33070784 -->
<g id="edge66" class="edge"><title>33061376&#45;&gt;33070784</title>
<path fill="none" stroke="black" d="M3286,-447.505C3295.04,-470.859 3305.82,-498.707 3314.2,-520.343"/>
<polygon fill="black" stroke="black" points="3310.99,-521.746 3317.86,-529.808 3317.52,-519.219 3310.99,-521.746"/>
</g>
<!-- 27546624 -->
<g id="node52" class="node"><title>27546624</title>
<ellipse fill="none" stroke="black" cx="1663" cy="-19" rx="62.9325" ry="18.3848"/>
<text text-anchor="middle" x="1663" y="-15.4" font-family="Times Roman,serif" font-size="14.00">27546624</text>
</g>
<!-- 27546624&#45;&gt;33887504 -->
<g id="edge50" class="edge"><title>27546624&#45;&gt;33887504</title>
<path fill="none" stroke="black" d="M1663,-37.8129C1663,-59.2806 1663,-95.4093 1663,-126.255"/>
<polygon fill="black" stroke="black" points="1659.5,-126.484 1663,-136.484 1666.5,-126.484 1659.5,-126.484"/>
</g>
<!-- 30676000 -->
<g id="node56" class="node"><title>30676000</title>
<ellipse fill="none" stroke="black" cx="2051" cy="-19" rx="62.9325" ry="18.3848"/>
<text text-anchor="middle" x="2051" y="-15.4" font-family="Times Roman,serif" font-size="14.00">30676000</text>
</g>
<!-- 30676000&#45;&gt;34338352 -->
<g id="edge56" class="edge"><title>30676000&#45;&gt;34338352</title>
<path fill="none" stroke="black" d="M2051,-37.8129C2051,-59.2806 2051,-95.4093 2051,-126.255"/>
<polygon fill="black" stroke="black" points="2047.5,-126.484 2051,-136.484 2054.5,-126.484 2047.5,-126.484"/>
</g>
</g>
</svg>
