<?xml version="1.0" encoding="UTF-8" standalone="no"?>
<!DOCTYPE svg PUBLIC "-//W3C//DTD SVG 1.1//EN"
 "http://www.w3.org/Graphics/SVG/1.1/DTD/svg11.dtd">
<!-- Generated by graphviz version 2.26.3 (20100126.1600)
 -->
<!-- Title: _anonymous_0 Pages: 1 -->
<svg width="2102pt" height="895pt"
 viewBox="0.00 0.00 2102.00 895.00" xmlns="http://www.w3.org/2000/svg" xmlns:xlink="http://www.w3.org/1999/xlink">
<g id="graph1" class="graph" transform="scale(1 1) rotate(0) translate(4 891)">
<title>_anonymous_0</title>
<polygon fill="white" stroke="white" points="-4,5 -4,-891 2099,-891 2099,5 -4,5"/>
<g id="graph2" class="cluster"><title>cluster1</title>
<polygon fill="none" stroke="black" points="8,-46 8,-879 1670,-879 1670,-46 8,-46"/>
<text text-anchor="middle" x="839" y="-57.4" font-family="Times Roman,serif" font-size="24.00">Venture Families</text>
</g>
<g id="graph3" class="cluster"><title>cluster2</title>
<polygon fill="none" stroke="black" points="256,-91 256,-456 1662,-456 1662,-91 256,-91"/>
<text text-anchor="middle" x="959" y="-102.4" font-family="Times Roman,serif" font-size="24.00">1</text>
</g>
<g id="graph4" class="cluster"><title>cluster3</title>
<polygon fill="none" stroke="black" points="16,-464 16,-871 748,-871 748,-464 16,-464"/>
<text text-anchor="middle" x="382" y="-475.4" font-family="Times Roman,serif" font-size="24.00">2</text>
</g>
<g id="graph5" class="cluster"><title>cluster4</title>
<polygon fill="none" stroke="black" points="756,-464 756,-871 1320,-871 1320,-464 756,-464"/>
<text text-anchor="middle" x="1038" y="-475.4" font-family="Times Roman,serif" font-size="24.00">3</text>
</g>
<g id="graph6" class="cluster"><title>cluster5</title>
<polygon fill="none" stroke="black" points="1328,-464 1328,-871 1662,-871 1662,-464 1328,-464"/>
<text text-anchor="middle" x="1495" y="-475.4" font-family="Times Roman,serif" font-size="24.00">4</text>
</g>
<g id="graph7" class="cluster"><title>cluster6</title>
<polygon fill="none" stroke="black" points="1678,-346 1678,-741 2086,-741 2086,-346 1678,-346"/>
</g>
<!-- 41173408 -->
<g id="node3" class="node"><title>41173408</title>
<ellipse fill="#8f8f8f" stroke="black" cx="972" cy="-401" rx="379.009" ry="46.669"/>
<text text-anchor="middle" x="972" y="-408.4" font-family="Times Roman,serif" font-size="24.00">exp: (pymem bernoulli 1.000000 0.100000)</text>
<text text-anchor="middle" x="972" y="-379.4" font-family="Times Roman,serif" font-size="24.00">value: sp:pymem</text>
</g>
<!-- 40228160 -->
<g id="node12" class="node"><title>40228160</title>
<ellipse fill="#8f8f8f" stroke="black" cx="392" cy="-556" rx="159.099" ry="46.669"/>
<text text-anchor="middle" x="392" y="-563.4" font-family="Times Roman,serif" font-size="24.00">exp: f</text>
<text text-anchor="middle" x="392" y="-534.4" font-family="Times Roman,serif" font-size="24.00">value: sp:pymem</text>
</g>
<!-- 41173408&#45;&gt;40228160 -->
<g id="edge28" class="edge"><title>41173408&#45;&gt;40228160</title>
<path fill="none" stroke="black" d="M813.512,-443.354C721.146,-468.038 606.198,-498.757 519.682,-521.878"/>
<polygon fill="black" stroke="black" points="518.566,-518.553 509.808,-524.517 520.373,-525.316 518.566,-518.553"/>
</g>
<!-- 40475808 -->
<g id="node16" class="node"><title>40475808</title>
<ellipse fill="#8f8f8f" stroke="black" cx="972" cy="-556" rx="159.099" ry="46.669"/>
<text text-anchor="middle" x="972" y="-563.4" font-family="Times Roman,serif" font-size="24.00">exp: f</text>
<text text-anchor="middle" x="972" y="-534.4" font-family="Times Roman,serif" font-size="24.00">value: sp:pymem</text>
</g>
<!-- 41173408&#45;&gt;40475808 -->
<g id="edge60" class="edge"><title>41173408&#45;&gt;40475808</title>
<path fill="none" stroke="black" d="M972,-447.505C972,-463.677 972,-482.005 972,-498.933"/>
<polygon fill="black" stroke="black" points="968.5,-499.26 972,-509.26 975.5,-499.26 968.5,-499.26"/>
</g>
<!-- 40985936 -->
<g id="node20" class="node"><title>40985936</title>
<ellipse fill="#8f8f8f" stroke="black" cx="1495" cy="-556" rx="159.099" ry="46.669"/>
<text text-anchor="middle" x="1495" y="-563.4" font-family="Times Roman,serif" font-size="24.00">exp: f</text>
<text text-anchor="middle" x="1495" y="-534.4" font-family="Times Roman,serif" font-size="24.00">value: sp:pymem</text>
</g>
<!-- 41173408&#45;&gt;40985936 -->
<g id="edge12" class="edge"><title>41173408&#45;&gt;40985936</title>
<path fill="none" stroke="black" d="M1223.08,-435.849C1257.44,-443.531 1291.9,-452.814 1324,-464 1356.6,-475.361 1390.48,-492.355 1419.4,-508.656"/>
<polygon fill="black" stroke="black" points="1417.79,-511.767 1428.21,-513.686 1421.26,-505.688 1417.79,-511.767"/>
</g>
<!-- 41036400 -->
<g id="node4" class="node"><title>41036400</title>
<ellipse fill="#8f8f8f" stroke="black" cx="972" cy="-292" rx="99.9096" ry="26.163"/>
<text text-anchor="middle" x="972" y="-284.9" font-family="Times Roman,serif" font-size="24.00">request: []</text>
</g>
<!-- 41036400&#45;&gt;41173408 -->
<g id="edge54" class="edge"><title>41036400&#45;&gt;41173408</title>
<path fill="none" stroke="black" d="M972,-318.108C972,-325.979 972,-334.946 972,-344.005"/>
<polygon fill="black" stroke="black" points="968.5,-344.218 972,-354.218 975.5,-344.218 968.5,-344.218"/>
</g>
<!-- 41211152 -->
<g id="node5" class="node"><title>41211152</title>
<ellipse fill="#8f8f8f" stroke="black" cx="465" cy="-183" rx="200.818" ry="46.669"/>
<text text-anchor="middle" x="465" y="-190.4" font-family="Times Roman,serif" font-size="24.00">exp: pymem</text>
<text text-anchor="middle" x="465" y="-161.4" font-family="Times Roman,serif" font-size="24.00">value: sp:sp_no_name</text>
</g>
<!-- 41211152&#45;&gt;41173408 -->
<g id="edge34" class="edge"><title>41211152&#45;&gt;41173408</title>
<path fill="none" stroke="black" d="M560.363,-224.004C644.999,-260.396 768.793,-313.625 858.504,-352.199"/>
<polygon fill="black" stroke="black" points="857.328,-355.503 867.897,-356.238 860.093,-349.072 857.328,-355.503"/>
</g>
<!-- 41211152&#45;&gt;41036400 -->
<g id="edge36" class="edge"><title>41211152&#45;&gt;41036400</title>
<path fill="none" stroke="black" d="M608.971,-215.51C631.073,-220.417 653.638,-225.38 675,-230 744.839,-245.104 824.057,-261.61 883.105,-273.791"/>
<polygon fill="black" stroke="black" points="882.644,-277.269 893.144,-275.86 884.057,-270.413 882.644,-277.269"/>
</g>
<!-- 41662000 -->
<g id="node6" class="node"><title>41662000</title>
<ellipse fill="#8f8f8f" stroke="black" cx="1485" cy="-183" rx="168.999" ry="46.669"/>
<text text-anchor="middle" x="1485" y="-190.4" font-family="Times Roman,serif" font-size="24.00">exp: bernoulli</text>
<text text-anchor="middle" x="1485" y="-161.4" font-family="Times Roman,serif" font-size="24.00">value: sp:bernoulli</text>
</g>
<!-- 41662000&#45;&gt;41173408 -->
<g id="edge40" class="edge"><title>41662000&#45;&gt;41173408</title>
<path fill="none" stroke="black" d="M1392.99,-222.1C1307.27,-258.526 1179.16,-312.967 1086.79,-352.221"/>
<polygon fill="black" stroke="black" points="1085.23,-349.078 1077.4,-356.21 1087.97,-355.52 1085.23,-349.078"/>
</g>
<!-- 41662000&#45;&gt;41036400 -->
<g id="edge42" class="edge"><title>41662000&#45;&gt;41036400</title>
<path fill="none" stroke="black" d="M1365.14,-215.964C1345.76,-220.913 1325.87,-225.769 1307,-230 1226.44,-248.064 1134.14,-264.862 1066.84,-276.403"/>
<polygon fill="black" stroke="black" points="1065.95,-273.005 1056.68,-278.139 1067.13,-279.905 1065.95,-273.005"/>
</g>
<!-- 40500112 -->
<g id="node24" class="node"><title>40500112</title>
<ellipse fill="#8f8f8f" stroke="black" cx="1870" cy="-401" rx="183.848" ry="46.669"/>
<text text-anchor="middle" x="1870" y="-408.4" font-family="Times Roman,serif" font-size="24.00">exp: pymemoizedSP</text>
<text text-anchor="middle" x="1870" y="-379.4" font-family="Times Roman,serif" font-size="24.00">value: sp:bernoulli</text>
</g>
<!-- 41662000&#45;&gt;40500112 -->
<g id="edge20" class="edge"><title>41662000&#45;&gt;40500112</title>
<path fill="none" stroke="black" d="M1559.23,-225.033C1624.06,-261.74 1718.1,-314.991 1785.74,-353.288"/>
<polygon fill="black" stroke="black" points="1784.26,-356.471 1794.68,-358.353 1787.71,-350.38 1784.26,-356.471"/>
</g>
<!-- 42359680 -->
<g id="node7" class="node"><title>42359680</title>
<ellipse fill="#8f8f8f" stroke="black" cx="1149" cy="-183" rx="149.2" ry="46.669"/>
<text text-anchor="middle" x="1149" y="-190.4" font-family="Times Roman,serif" font-size="24.00">exp: 1.000000</text>
<text text-anchor="middle" x="1149" y="-161.4" font-family="Times Roman,serif" font-size="24.00">value: 1.000000</text>
</g>
<!-- 42359680&#45;&gt;41173408 -->
<g id="edge46" class="edge"><title>42359680&#45;&gt;41173408</title>
<path fill="none" stroke="black" d="M1131.91,-229.215C1120.26,-256.828 1102.97,-291.558 1081,-318 1071.92,-328.925 1061.15,-339.27 1049.96,-348.71"/>
<polygon fill="black" stroke="black" points="1047.69,-346.052 1042.17,-355.098 1052.12,-351.466 1047.69,-346.052"/>
</g>
<!-- 42359680&#45;&gt;41036400 -->
<g id="edge48" class="edge"><title>42359680&#45;&gt;41036400</title>
<path fill="none" stroke="black" d="M1081.58,-224.519C1061,-237.192 1038.81,-250.859 1019.81,-262.557"/>
<polygon fill="black" stroke="black" points="1017.73,-259.731 1011.05,-267.955 1021.4,-265.692 1017.73,-259.731"/>
</g>
<!-- 40317264 -->
<g id="node8" class="node"><title>40317264</title>
<ellipse fill="#8f8f8f" stroke="black" cx="833" cy="-183" rx="149.2" ry="46.669"/>
<text text-anchor="middle" x="833" y="-190.4" font-family="Times Roman,serif" font-size="24.00">exp: 0.100000</text>
<text text-anchor="middle" x="833" y="-161.4" font-family="Times Roman,serif" font-size="24.00">value: 0.100000</text>
</g>
<!-- 40317264&#45;&gt;41173408 -->
<g id="edge50" class="edge"><title>40317264&#45;&gt;41173408</title>
<path fill="none" stroke="black" d="M835.383,-229.496C838.644,-257.044 846.11,-291.61 863,-318 870.101,-329.095 879.231,-339.274 889.18,-348.414"/>
<polygon fill="black" stroke="black" points="887.099,-351.244 896.928,-355.199 891.711,-345.978 887.099,-351.244"/>
</g>
<!-- 40317264&#45;&gt;41036400 -->
<g id="edge52" class="edge"><title>40317264&#45;&gt;41036400</title>
<path fill="none" stroke="black" d="M888.336,-226.393C903.007,-237.897 918.557,-250.091 932.219,-260.805"/>
<polygon fill="black" stroke="black" points="930.429,-263.849 940.457,-267.265 934.748,-258.34 930.429,-263.849"/>
</g>
<!-- 40625424 -->
<g id="node10" class="node"><title>40625424</title>
<ellipse fill="#8f8f8f" stroke="black" cx="392" cy="-816" rx="89.8026" ry="46.669"/>
<text text-anchor="middle" x="392" y="-823.4" font-family="Times Roman,serif" font-size="24.00">exp: (f)</text>
<text text-anchor="middle" x="392" y="-794.4" font-family="Times Roman,serif" font-size="24.00">value: #f</text>
</g>
<!-- 40493248 -->
<g id="node11" class="node"><title>40493248</title>
<ellipse fill="#8f8f8f" stroke="black" cx="392" cy="-686" rx="347.897" ry="26.163"/>
<text text-anchor="middle" x="392" y="-678.9" font-family="Times Roman,serif" font-size="24.00">request: [(0, (pymemoizedSP), &lt;env&gt;)]</text>
</g>
<!-- 40493248&#45;&gt;40625424 -->
<g id="edge30" class="edge"><title>40493248&#45;&gt;40625424</title>
<path fill="none" stroke="black" d="M392,-712.307C392,-725.886 392,-743.006 392,-759.401"/>
<polygon fill="black" stroke="black" points="388.5,-759.477 392,-769.477 395.5,-759.477 388.5,-759.477"/>
</g>
<!-- 40228160&#45;&gt;40625424 -->
<g id="edge24" class="edge"><title>40228160&#45;&gt;40625424</title>
<path fill="none" stroke="black" d="M242.661,-572.05C157.006,-584.676 61.3659,-605.801 35,-639 6.8067,-674.5 6.42914,-705.803 35,-741 66.9161,-780.318 198.275,-799.781 292.378,-808.852"/>
<polygon fill="black" stroke="black" points="292.226,-812.353 302.509,-809.802 292.88,-805.383 292.226,-812.353"/>
</g>
<!-- 40228160&#45;&gt;40493248 -->
<g id="edge26" class="edge"><title>40228160&#45;&gt;40493248</title>
<path fill="none" stroke="black" d="M392,-602.566C392,-618.043 392,-635.04 392,-649.632"/>
<polygon fill="black" stroke="black" points="388.5,-649.776 392,-659.776 395.5,-649.776 388.5,-649.776"/>
</g>
<!-- 42669312 -->
<g id="node14" class="node"><title>42669312</title>
<ellipse fill="#8f8f8f" stroke="black" cx="1048" cy="-816" rx="89.8026" ry="46.669"/>
<text text-anchor="middle" x="1048" y="-823.4" font-family="Times Roman,serif" font-size="24.00">exp: (f)</text>
<text text-anchor="middle" x="1048" y="-794.4" font-family="Times Roman,serif" font-size="24.00">value: #f</text>
</g>
<!-- 40357360 -->
<g id="node15" class="node"><title>40357360</title>
<ellipse fill="#8f8f8f" stroke="black" cx="1048" cy="-686" rx="263.958" ry="26.163"/>
<text text-anchor="middle" x="1048" y="-678.9" font-family="Times Roman,serif" font-size="24.00">request: [(0, &lt;exp&gt;, &lt;env&gt;)]</text>
</g>
<!-- 40357360&#45;&gt;42669312 -->
<g id="edge62" class="edge"><title>40357360&#45;&gt;42669312</title>
<path fill="none" stroke="black" d="M1048,-712.307C1048,-725.886 1048,-743.006 1048,-759.401"/>
<polygon fill="black" stroke="black" points="1044.5,-759.477 1048,-769.477 1051.5,-759.477 1044.5,-759.477"/>
</g>
<!-- 40475808&#45;&gt;42669312 -->
<g id="edge56" class="edge"><title>40475808&#45;&gt;42669312</title>
<path fill="none" stroke="black" d="M845.249,-584.106C817.612,-596.341 791.677,-613.877 775,-639 749.928,-676.769 747.516,-704.948 775,-741 796.621,-769.362 881.45,-789.669 950.881,-801.939"/>
<polygon fill="black" stroke="black" points="950.553,-805.435 961.004,-803.691 951.747,-798.537 950.553,-805.435"/>
</g>
<!-- 40475808&#45;&gt;40357360 -->
<g id="edge58" class="edge"><title>40475808&#45;&gt;40357360</title>
<path fill="none" stroke="black" d="M999.009,-602.199C1008.41,-618.275 1018.79,-636.03 1027.56,-651.044"/>
<polygon fill="black" stroke="black" points="1024.73,-653.131 1032.8,-659.998 1030.77,-649.598 1024.73,-653.131"/>
</g>
<!-- 40200160 -->
<g id="node18" class="node"><title>40200160</title>
<ellipse fill="gold" stroke="black" cx="1456" cy="-816" rx="72.1249" ry="46.669"/>
<text text-anchor="middle" x="1456" y="-823.4" font-family="Times Roman,serif" font-size="24.00">exp: (f)</text>
<text text-anchor="middle" x="1456" y="-794.4" font-family="Times Roman,serif" font-size="24.00">value: </text>
</g>
<!-- 40666352 -->
<g id="node19" class="node"><title>40666352</title>
<ellipse fill="firebrick" stroke="black" cx="1504" cy="-686" rx="87.1802" ry="26.163"/>
<text text-anchor="middle" x="1504" y="-678.9" font-family="Times Roman,serif" font-size="24.00">request: </text>
</g>
<!-- 40666352&#45;&gt;40200160 -->
<g id="edge14" class="edge"><title>40666352&#45;&gt;40200160</title>
<path fill="none" stroke="black" d="M1494.4,-711.995C1489.23,-725.993 1482.65,-743.822 1476.4,-760.748"/>
<polygon fill="black" stroke="black" points="1472.95,-759.98 1472.77,-770.574 1479.52,-762.405 1472.95,-759.98"/>
</g>
<!-- 40985936&#45;&gt;40200160 -->
<g id="edge8" class="edge"><title>40985936&#45;&gt;40200160</title>
<path fill="none" stroke="black" d="M1436.16,-599.316C1424.72,-610.826 1414.33,-624.223 1408,-639 1390.16,-680.676 1395.27,-697.491 1408,-741 1410.46,-749.408 1414.18,-757.77 1418.49,-765.692"/>
<polygon fill="black" stroke="black" points="1415.52,-767.54 1423.56,-774.43 1421.57,-764.025 1415.52,-767.54"/>
</g>
<!-- 40985936&#45;&gt;40666352 -->
<g id="edge10" class="edge"><title>40985936&#45;&gt;40666352</title>
<path fill="none" stroke="black" d="M1498.22,-602.566C1499.3,-618.043 1500.47,-635.04 1501.48,-649.632"/>
<polygon fill="black" stroke="black" points="1498,-650.041 1502.18,-659.776 1504.99,-649.558 1498,-650.041"/>
</g>
<!-- 40312288 -->
<g id="node22" class="node"><title>40312288</title>
<ellipse fill="#8f8f8f" stroke="black" cx="1882" cy="-686" rx="196.075" ry="46.669"/>
<text text-anchor="middle" x="1882" y="-693.4" font-family="Times Roman,serif" font-size="24.00">exp: (pymemoizedSP)</text>
<text text-anchor="middle" x="1882" y="-664.4" font-family="Times Roman,serif" font-size="24.00">value: #f</text>
</g>
<!-- 40312288&#45;&gt;40625424 -->
<g id="edge32" class="edge"><title>40312288&#45;&gt;40625424</title>
<path fill="none" stroke="black" d="M1759,-722.261C1728.84,-729.777 1696.46,-736.708 1666,-741 1263.56,-797.703 1157.11,-736.431 752,-769 662.292,-776.212 560.663,-790 488.317,-800.785"/>
<polygon fill="black" stroke="black" points="487.678,-797.342 478.307,-802.286 488.716,-804.264 487.678,-797.342"/>
</g>
<!-- 40312288&#45;&gt;42669312 -->
<g id="edge64" class="edge"><title>40312288&#45;&gt;42669312</title>
<path fill="none" stroke="black" d="M1756.26,-721.794C1726.84,-729.114 1695.48,-736.075 1666,-741 1515.58,-766.127 1475.32,-749.959 1324,-769 1263.4,-776.625 1195.8,-788.088 1142.67,-797.784"/>
<polygon fill="black" stroke="black" points="1141.78,-794.388 1132.58,-799.635 1143.05,-801.273 1141.78,-794.388"/>
</g>
<!-- 40428944 -->
<g id="node23" class="node"><title>40428944</title>
<ellipse fill="#8f8f8f" stroke="black" cx="1930" cy="-556" rx="99.9096" ry="26.163"/>
<text text-anchor="middle" x="1930" y="-548.9" font-family="Times Roman,serif" font-size="24.00">request: []</text>
</g>
<!-- 40428944&#45;&gt;40312288 -->
<g id="edge22" class="edge"><title>40428944&#45;&gt;40312288</title>
<path fill="none" stroke="black" d="M1920.4,-581.995C1915.32,-595.746 1908.88,-613.192 1902.73,-629.848"/>
<polygon fill="black" stroke="black" points="1899.34,-628.937 1899.16,-639.53 1905.91,-631.362 1899.34,-628.937"/>
</g>
<!-- 40500112&#45;&gt;40312288 -->
<g id="edge16" class="edge"><title>40500112&#45;&gt;40312288</title>
<path fill="none" stroke="black" d="M1829.35,-446.458C1825.98,-452.075 1823.07,-457.971 1821,-464 1800.95,-522.434 1801.75,-544.298 1821,-603 1824.25,-612.915 1829.19,-622.623 1834.88,-631.702"/>
<polygon fill="black" stroke="black" points="1832.08,-633.812 1840.53,-640.2 1837.91,-629.936 1832.08,-633.812"/>
</g>
<!-- 40500112&#45;&gt;40428944 -->
<g id="edge18" class="edge"><title>40500112&#45;&gt;40428944</title>
<path fill="none" stroke="black" d="M1888,-447.505C1897.04,-470.859 1907.82,-498.707 1916.2,-520.343"/>
<polygon fill="black" stroke="black" points="1912.99,-521.746 1919.86,-529.808 1919.52,-519.219 1912.99,-521.746"/>
</g>
<!-- 39629792 -->
<g id="node40" class="node"><title>39629792</title>
<ellipse fill="none" stroke="black" cx="465" cy="-19" rx="62.9325" ry="18.3848"/>
<text text-anchor="middle" x="465" y="-15.4" font-family="Times Roman,serif" font-size="14.00">39629792</text>
</g>
<!-- 39629792&#45;&gt;41211152 -->
<g id="edge38" class="edge"><title>39629792&#45;&gt;41211152</title>
<path fill="none" stroke="black" d="M465,-37.8129C465,-59.2806 465,-95.4093 465,-126.255"/>
<polygon fill="black" stroke="black" points="461.5,-126.484 465,-136.484 468.5,-126.484 461.5,-126.484"/>
</g>
<!-- 37999648 -->
<g id="node44" class="node"><title>37999648</title>
<ellipse fill="none" stroke="black" cx="1485" cy="-19" rx="62.9325" ry="18.3848"/>
<text text-anchor="middle" x="1485" y="-15.4" font-family="Times Roman,serif" font-size="14.00">37999648</text>
</g>
<!-- 37999648&#45;&gt;41662000 -->
<g id="edge44" class="edge"><title>37999648&#45;&gt;41662000</title>
<path fill="none" stroke="black" d="M1485,-37.8129C1485,-59.2806 1485,-95.4093 1485,-126.255"/>
<polygon fill="black" stroke="black" points="1481.5,-126.484 1485,-136.484 1488.5,-126.484 1481.5,-126.484"/>
</g>
</g>
</svg>
