<?xml version="1.0" encoding="UTF-8" standalone="no"?>
<!DOCTYPE svg PUBLIC "-//W3C//DTD SVG 1.1//EN"
 "http://www.w3.org/Graphics/SVG/1.1/DTD/svg11.dtd">
<!-- Generated by graphviz version 2.26.3 (20100126.1600)
 -->
<!-- Title: _anonymous_0 Pages: 1 -->
<svg width="2916pt" height="895pt"
 viewBox="0.00 0.00 2916.00 895.00" xmlns="http://www.w3.org/2000/svg" xmlns:xlink="http://www.w3.org/1999/xlink">
<g id="graph1" class="graph" transform="scale(1 1) rotate(0) translate(4 891)">
<title>_anonymous_0</title>
<polygon fill="white" stroke="white" points="-4,5 -4,-891 2913,-891 2913,5 -4,5"/>
<g id="graph2" class="cluster"><title>cluster1</title>
<polygon fill="none" stroke="black" points="8,-46 8,-879 2068,-879 2068,-46 8,-46"/>
<text text-anchor="middle" x="1038" y="-57.4" font-family="Times Roman,serif" font-size="24.00">Venture Families</text>
</g>
<g id="graph3" class="cluster"><title>cluster2</title>
<polygon fill="none" stroke="black" points="654,-91 654,-456 2060,-456 2060,-91 654,-91"/>
<text text-anchor="middle" x="1357" y="-102.4" font-family="Times Roman,serif" font-size="24.00">1</text>
</g>
<g id="graph4" class="cluster"><title>cluster3</title>
<polygon fill="none" stroke="black" points="16,-464 16,-871 748,-871 748,-464 16,-464"/>
<text text-anchor="middle" x="382" y="-475.4" font-family="Times Roman,serif" font-size="24.00">2</text>
</g>
<g id="graph5" class="cluster"><title>cluster4</title>
<polygon fill="none" stroke="black" points="756,-464 756,-871 1320,-871 1320,-464 756,-464"/>
<text text-anchor="middle" x="1038" y="-475.4" font-family="Times Roman,serif" font-size="24.00">3</text>
</g>
<g id="graph6" class="cluster"><title>cluster5</title>
<polygon fill="none" stroke="black" points="1328,-464 1328,-871 2060,-871 2060,-464 1328,-464"/>
<text text-anchor="middle" x="1694" y="-475.4" font-family="Times Roman,serif" font-size="24.00">4</text>
</g>
<g id="graph7" class="cluster"><title>cluster6</title>
<polygon fill="none" stroke="black" points="2076,-346 2076,-741 2484,-741 2484,-346 2076,-346"/>
</g>
<g id="graph8" class="cluster"><title>cluster7</title>
<polygon fill="none" stroke="black" points="2492,-346 2492,-741 2900,-741 2900,-346 2492,-346"/>
</g>
<!-- 41173408 -->
<g id="node3" class="node"><title>41173408</title>
<ellipse fill="#8f8f8f" stroke="black" cx="1238" cy="-401" rx="379.009" ry="46.669"/>
<text text-anchor="middle" x="1238" y="-408.4" font-family="Times Roman,serif" font-size="24.00">exp: (pymem bernoulli 1.000000 0.100000)</text>
<text text-anchor="middle" x="1238" y="-379.4" font-family="Times Roman,serif" font-size="24.00">value: sp:pymem</text>
</g>
<!-- 40228160 -->
<g id="node12" class="node"><title>40228160</title>
<ellipse fill="#8f8f8f" stroke="black" cx="392" cy="-556" rx="159.099" ry="46.669"/>
<text text-anchor="middle" x="392" y="-563.4" font-family="Times Roman,serif" font-size="24.00">exp: f</text>
<text text-anchor="middle" x="392" y="-534.4" font-family="Times Roman,serif" font-size="24.00">value: sp:pymem</text>
</g>
<!-- 41173408&#45;&gt;40228160 -->
<g id="edge31" class="edge"><title>41173408&#45;&gt;40228160</title>
<path fill="none" stroke="black" d="M954.387,-431.882C887.751,-440.763 817.174,-451.496 752,-464 672.596,-479.234 584.65,-501.604 515.561,-520.47"/>
<polygon fill="black" stroke="black" points="514.226,-517.207 505.507,-523.227 516.077,-523.958 514.226,-517.207"/>
</g>
<!-- 40475808 -->
<g id="node16" class="node"><title>40475808</title>
<ellipse fill="#8f8f8f" stroke="black" cx="1048" cy="-556" rx="159.099" ry="46.669"/>
<text text-anchor="middle" x="1048" y="-563.4" font-family="Times Roman,serif" font-size="24.00">exp: f</text>
<text text-anchor="middle" x="1048" y="-534.4" font-family="Times Roman,serif" font-size="24.00">value: sp:pymem</text>
</g>
<!-- 41173408&#45;&gt;40475808 -->
<g id="edge71" class="edge"><title>41173408&#45;&gt;40475808</title>
<path fill="none" stroke="black" d="M1181.51,-447.085C1158.9,-465.525 1132.8,-486.821 1109.7,-505.664"/>
<polygon fill="black" stroke="black" points="1107.2,-503.185 1101.67,-512.218 1111.63,-508.609 1107.2,-503.185"/>
</g>
<!-- 40985936 -->
<g id="node20" class="node"><title>40985936</title>
<ellipse fill="#8f8f8f" stroke="black" cx="1495" cy="-556" rx="159.099" ry="46.669"/>
<text text-anchor="middle" x="1495" y="-563.4" font-family="Times Roman,serif" font-size="24.00">exp: f</text>
<text text-anchor="middle" x="1495" y="-534.4" font-family="Times Roman,serif" font-size="24.00">value: sp:pymem</text>
</g>
<!-- 41173408&#45;&gt;40985936 -->
<g id="edge13" class="edge"><title>41173408&#45;&gt;40985936</title>
<path fill="none" stroke="black" d="M1313.72,-446.667C1346.2,-466.259 1384.13,-489.135 1416.88,-508.885"/>
<polygon fill="black" stroke="black" points="1415.16,-511.932 1425.53,-514.099 1418.77,-505.938 1415.16,-511.932"/>
</g>
<!-- 41036400 -->
<g id="node4" class="node"><title>41036400</title>
<ellipse fill="#8f8f8f" stroke="black" cx="1298" cy="-292" rx="99.9096" ry="26.163"/>
<text text-anchor="middle" x="1298" y="-284.9" font-family="Times Roman,serif" font-size="24.00">request: []</text>
</g>
<!-- 41036400&#45;&gt;41173408 -->
<g id="edge65" class="edge"><title>41036400&#45;&gt;41173408</title>
<path fill="none" stroke="black" d="M1283.78,-317.831C1279.16,-326.218 1273.85,-335.871 1268.52,-345.564"/>
<polygon fill="black" stroke="black" points="1265.39,-343.992 1263.63,-354.441 1271.52,-347.368 1265.39,-343.992"/>
</g>
<!-- 41211152 -->
<g id="node5" class="node"><title>41211152</title>
<ellipse fill="#8f8f8f" stroke="black" cx="1179" cy="-183" rx="200.818" ry="46.669"/>
<text text-anchor="middle" x="1179" y="-190.4" font-family="Times Roman,serif" font-size="24.00">exp: pymem</text>
<text text-anchor="middle" x="1179" y="-161.4" font-family="Times Roman,serif" font-size="24.00">value: sp:sp_no_name</text>
</g>
<!-- 41211152&#45;&gt;41173408 -->
<g id="edge45" class="edge"><title>41211152&#45;&gt;41173408</title>
<path fill="none" stroke="black" d="M1177.26,-229.594C1177.55,-256.071 1180.08,-289.518 1189,-318 1191.93,-327.341 1196.07,-336.748 1200.73,-345.701"/>
<polygon fill="black" stroke="black" points="1197.67,-347.389 1205.53,-354.485 1203.81,-344.032 1197.67,-347.389"/>
</g>
<!-- 41211152&#45;&gt;41036400 -->
<g id="edge47" class="edge"><title>41211152&#45;&gt;41036400</title>
<path fill="none" stroke="black" d="M1228.43,-228.279C1240.05,-238.916 1252.19,-250.036 1263.01,-259.954"/>
<polygon fill="black" stroke="black" points="1260.9,-262.765 1270.64,-266.939 1265.63,-257.603 1260.9,-262.765"/>
</g>
<!-- 41662000 -->
<g id="node6" class="node"><title>41662000</title>
<ellipse fill="#8f8f8f" stroke="black" cx="1883" cy="-183" rx="168.999" ry="46.669"/>
<text text-anchor="middle" x="1883" y="-190.4" font-family="Times Roman,serif" font-size="24.00">exp: bernoulli</text>
<text text-anchor="middle" x="1883" y="-161.4" font-family="Times Roman,serif" font-size="24.00">value: sp:bernoulli</text>
</g>
<!-- 41662000&#45;&gt;41173408 -->
<g id="edge51" class="edge"><title>41662000&#45;&gt;41173408</title>
<path fill="none" stroke="black" d="M1776.13,-219.121C1666.85,-256.055 1496.61,-313.593 1376.94,-354.042"/>
<polygon fill="black" stroke="black" points="1375.68,-350.772 1367.33,-357.289 1377.92,-357.403 1375.68,-350.772"/>
</g>
<!-- 41662000&#45;&gt;41036400 -->
<g id="edge53" class="edge"><title>41662000&#45;&gt;41036400</title>
<path fill="none" stroke="black" d="M1764.21,-216.248C1744.52,-221.217 1724.25,-226.005 1705,-230 1601.54,-251.475 1481.85,-268.823 1399.17,-279.649"/>
<polygon fill="black" stroke="black" points="1398.49,-276.208 1389.02,-280.97 1399.39,-283.15 1398.49,-276.208"/>
</g>
<!-- 40500112 -->
<g id="node24" class="node"><title>40500112</title>
<ellipse fill="#8f8f8f" stroke="black" cx="2268" cy="-401" rx="183.848" ry="46.669"/>
<text text-anchor="middle" x="2268" y="-408.4" font-family="Times Roman,serif" font-size="24.00">exp: pymemoizedSP</text>
<text text-anchor="middle" x="2268" y="-379.4" font-family="Times Roman,serif" font-size="24.00">value: sp:bernoulli</text>
</g>
<!-- 41662000&#45;&gt;40500112 -->
<g id="edge23" class="edge"><title>41662000&#45;&gt;40500112</title>
<path fill="none" stroke="black" d="M1957.23,-225.033C2022.06,-261.74 2116.1,-314.991 2183.74,-353.288"/>
<polygon fill="black" stroke="black" points="2182.26,-356.471 2192.68,-358.353 2185.71,-350.38 2182.26,-356.471"/>
</g>
<!-- 41109488 -->
<g id="node28" class="node"><title>41109488</title>
<ellipse fill="#8f8f8f" stroke="black" cx="2684" cy="-401" rx="183.848" ry="46.669"/>
<text text-anchor="middle" x="2684" y="-408.4" font-family="Times Roman,serif" font-size="24.00">exp: pymemoizedSP</text>
<text text-anchor="middle" x="2684" y="-379.4" font-family="Times Roman,serif" font-size="24.00">value: sp:bernoulli</text>
</g>
<!-- 41662000&#45;&gt;41109488 -->
<g id="edge41" class="edge"><title>41662000&#45;&gt;41109488</title>
<path fill="none" stroke="black" d="M2004.49,-215.334C2126.72,-247.959 2320.58,-299.957 2488,-346 2508.54,-351.648 2530.27,-357.685 2551.49,-363.615"/>
<polygon fill="black" stroke="black" points="2550.63,-367.008 2561.2,-366.33 2552.52,-360.267 2550.63,-367.008"/>
</g>
<!-- 42359680 -->
<g id="node7" class="node"><title>42359680</title>
<ellipse fill="#8f8f8f" stroke="black" cx="811" cy="-183" rx="149.2" ry="46.669"/>
<text text-anchor="middle" x="811" y="-190.4" font-family="Times Roman,serif" font-size="24.00">exp: 1.000000</text>
<text text-anchor="middle" x="811" y="-161.4" font-family="Times Roman,serif" font-size="24.00">value: 1.000000</text>
</g>
<!-- 42359680&#45;&gt;41173408 -->
<g id="edge57" class="edge"><title>42359680&#45;&gt;41173408</title>
<path fill="none" stroke="black" d="M888.822,-222.731C959.439,-258.784 1063.87,-312.1 1140.12,-351.031"/>
<polygon fill="black" stroke="black" points="1138.78,-354.275 1149.28,-355.705 1141.96,-348.041 1138.78,-354.275"/>
</g>
<!-- 42359680&#45;&gt;41036400 -->
<g id="edge59" class="edge"><title>42359680&#45;&gt;41036400</title>
<path fill="none" stroke="black" d="M916.403,-215.989C933.889,-220.99 951.895,-225.856 969,-230 1047.04,-248.908 1136.67,-265.466 1202.65,-276.702"/>
<polygon fill="black" stroke="black" points="1202.18,-280.172 1212.62,-278.39 1203.35,-273.27 1202.18,-280.172"/>
</g>
<!-- 40317264 -->
<g id="node8" class="node"><title>40317264</title>
<ellipse fill="#8f8f8f" stroke="black" cx="1547" cy="-183" rx="149.2" ry="46.669"/>
<text text-anchor="middle" x="1547" y="-190.4" font-family="Times Roman,serif" font-size="24.00">exp: 0.100000</text>
<text text-anchor="middle" x="1547" y="-161.4" font-family="Times Roman,serif" font-size="24.00">value: 0.100000</text>
</g>
<!-- 40317264&#45;&gt;41173408 -->
<g id="edge61" class="edge"><title>40317264&#45;&gt;41173408</title>
<path fill="none" stroke="black" d="M1507.15,-228.05C1480.66,-256.241 1444.04,-292.011 1407,-318 1389.79,-330.076 1370.56,-341.322 1351.41,-351.394"/>
<polygon fill="black" stroke="black" points="1349.61,-348.389 1342.33,-356.09 1352.82,-354.607 1349.61,-348.389"/>
</g>
<!-- 40317264&#45;&gt;41036400 -->
<g id="edge63" class="edge"><title>40317264&#45;&gt;41036400</title>
<path fill="none" stroke="black" d="M1460.26,-220.97C1426.68,-235.669 1389.05,-252.141 1358.49,-265.519"/>
<polygon fill="black" stroke="black" points="1357.01,-262.349 1349.25,-269.566 1359.81,-268.762 1357.01,-262.349"/>
</g>
<!-- 40625424 -->
<g id="node10" class="node"><title>40625424</title>
<ellipse fill="#8f8f8f" stroke="black" cx="392" cy="-816" rx="89.8026" ry="46.669"/>
<text text-anchor="middle" x="392" y="-823.4" font-family="Times Roman,serif" font-size="24.00">exp: (f)</text>
<text text-anchor="middle" x="392" y="-794.4" font-family="Times Roman,serif" font-size="24.00">value: #f</text>
</g>
<!-- 40493248 -->
<g id="node11" class="node"><title>40493248</title>
<ellipse fill="#8f8f8f" stroke="black" cx="392" cy="-686" rx="347.897" ry="26.163"/>
<text text-anchor="middle" x="392" y="-678.9" font-family="Times Roman,serif" font-size="24.00">request: [(0, (pymemoizedSP), &lt;env&gt;)]</text>
</g>
<!-- 40493248&#45;&gt;40625424 -->
<g id="edge33" class="edge"><title>40493248&#45;&gt;40625424</title>
<path fill="none" stroke="black" d="M392,-712.307C392,-725.886 392,-743.006 392,-759.401"/>
<polygon fill="black" stroke="black" points="388.5,-759.477 392,-769.477 395.5,-759.477 388.5,-759.477"/>
</g>
<!-- 40228160&#45;&gt;40625424 -->
<g id="edge27" class="edge"><title>40228160&#45;&gt;40625424</title>
<path fill="none" stroke="black" d="M242.661,-572.05C157.006,-584.676 61.3659,-605.801 35,-639 6.8067,-674.5 6.42914,-705.803 35,-741 66.9161,-780.318 198.275,-799.781 292.378,-808.852"/>
<polygon fill="black" stroke="black" points="292.226,-812.353 302.509,-809.802 292.88,-805.383 292.226,-812.353"/>
</g>
<!-- 40228160&#45;&gt;40493248 -->
<g id="edge29" class="edge"><title>40228160&#45;&gt;40493248</title>
<path fill="none" stroke="black" d="M392,-602.566C392,-618.043 392,-635.04 392,-649.632"/>
<polygon fill="black" stroke="black" points="388.5,-649.776 392,-659.776 395.5,-649.776 388.5,-649.776"/>
</g>
<!-- 42669312 -->
<g id="node14" class="node"><title>42669312</title>
<ellipse fill="#8f8f8f" stroke="black" cx="1048" cy="-816" rx="89.8026" ry="46.669"/>
<text text-anchor="middle" x="1048" y="-823.4" font-family="Times Roman,serif" font-size="24.00">exp: (f)</text>
<text text-anchor="middle" x="1048" y="-794.4" font-family="Times Roman,serif" font-size="24.00">value: #f</text>
</g>
<!-- 40357360 -->
<g id="node15" class="node"><title>40357360</title>
<ellipse fill="#8f8f8f" stroke="black" cx="1048" cy="-686" rx="263.958" ry="26.163"/>
<text text-anchor="middle" x="1048" y="-678.9" font-family="Times Roman,serif" font-size="24.00">request: [(0, &lt;exp&gt;, &lt;env&gt;)]</text>
</g>
<!-- 40357360&#45;&gt;42669312 -->
<g id="edge73" class="edge"><title>40357360&#45;&gt;42669312</title>
<path fill="none" stroke="black" d="M1048,-712.307C1048,-725.886 1048,-743.006 1048,-759.401"/>
<polygon fill="black" stroke="black" points="1044.5,-759.477 1048,-769.477 1051.5,-759.477 1044.5,-759.477"/>
</g>
<!-- 40475808&#45;&gt;42669312 -->
<g id="edge67" class="edge"><title>40475808&#45;&gt;42669312</title>
<path fill="none" stroke="black" d="M914.079,-581.079C854.045,-595.309 792.735,-615.071 775,-639 748.006,-675.421 747.516,-704.948 775,-741 796.621,-769.362 881.45,-789.669 950.881,-801.939"/>
<polygon fill="black" stroke="black" points="950.553,-805.435 961.004,-803.691 951.747,-798.537 950.553,-805.435"/>
</g>
<!-- 40475808&#45;&gt;40357360 -->
<g id="edge69" class="edge"><title>40475808&#45;&gt;40357360</title>
<path fill="none" stroke="black" d="M1048,-602.566C1048,-618.043 1048,-635.04 1048,-649.632"/>
<polygon fill="black" stroke="black" points="1044.5,-649.776 1048,-659.776 1051.5,-649.776 1044.5,-649.776"/>
</g>
<!-- 40200160 -->
<g id="node18" class="node"><title>40200160</title>
<ellipse fill="gold" stroke="black" cx="1704" cy="-816" rx="90.0096" ry="46.669"/>
<text text-anchor="middle" x="1704" y="-823.4" font-family="Times Roman,serif" font-size="24.00">exp: (f)</text>
<text text-anchor="middle" x="1704" y="-794.4" font-family="Times Roman,serif" font-size="24.00">value: #t</text>
</g>
<!-- 40666352 -->
<g id="node19" class="node"><title>40666352</title>
<ellipse fill="#8f8f8f" stroke="black" cx="1704" cy="-686" rx="347.897" ry="26.163"/>
<text text-anchor="middle" x="1704" y="-678.9" font-family="Times Roman,serif" font-size="24.00">request: [(1, (pymemoizedSP), &lt;env&gt;)]</text>
</g>
<!-- 40666352&#45;&gt;40200160 -->
<g id="edge15" class="edge"><title>40666352&#45;&gt;40200160</title>
<path fill="none" stroke="black" d="M1704,-712.307C1704,-725.886 1704,-743.006 1704,-759.401"/>
<polygon fill="black" stroke="black" points="1700.5,-759.477 1704,-769.477 1707.5,-759.477 1700.5,-759.477"/>
</g>
<!-- 40985936&#45;&gt;40200160 -->
<g id="edge9" class="edge"><title>40985936&#45;&gt;40200160</title>
<path fill="none" stroke="black" d="M1395.55,-592.513C1376.19,-604.318 1358.39,-619.554 1347,-639 1324.09,-678.117 1318.43,-705.803 1347,-741 1378.92,-780.318 1510.28,-799.781 1604.38,-808.852"/>
<polygon fill="black" stroke="black" points="1604.23,-812.353 1614.51,-809.802 1604.88,-805.383 1604.23,-812.353"/>
</g>
<!-- 40985936&#45;&gt;40666352 -->
<g id="edge11" class="edge"><title>40985936&#45;&gt;40666352</title>
<path fill="none" stroke="black" d="M1562.86,-598.207C1592.43,-616.604 1626.49,-637.791 1653.75,-654.741"/>
<polygon fill="black" stroke="black" points="1652,-657.777 1662.34,-660.087 1655.7,-651.833 1652,-657.777"/>
</g>
<!-- 40312288 -->
<g id="node22" class="node"><title>40312288</title>
<ellipse fill="#8f8f8f" stroke="black" cx="2280" cy="-686" rx="196.075" ry="46.669"/>
<text text-anchor="middle" x="2280" y="-693.4" font-family="Times Roman,serif" font-size="24.00">exp: (pymemoizedSP)</text>
<text text-anchor="middle" x="2280" y="-664.4" font-family="Times Roman,serif" font-size="24.00">value: #f</text>
</g>
<!-- 40312288&#45;&gt;40625424 -->
<g id="edge35" class="edge"><title>40312288&#45;&gt;40625424</title>
<path fill="none" stroke="black" d="M2157.59,-722.321C2127.27,-729.886 2094.67,-736.823 2064,-741 1775.04,-780.346 1042.79,-746.98 752,-769 662.109,-775.807 560.294,-789.678 487.935,-800.595"/>
<polygon fill="black" stroke="black" points="487.286,-797.154 477.925,-802.115 488.337,-804.074 487.286,-797.154"/>
</g>
<!-- 40312288&#45;&gt;42669312 -->
<g id="edge75" class="edge"><title>40312288&#45;&gt;42669312</title>
<path fill="none" stroke="black" d="M2156.69,-722.176C2126.61,-729.67 2094.35,-736.612 2064,-741 1738.26,-788.092 1651.37,-735.08 1324,-769 1263.02,-775.318 1195.14,-786.818 1141.95,-796.861"/>
<polygon fill="black" stroke="black" points="1141.03,-793.475 1131.86,-798.783 1142.34,-800.351 1141.03,-793.475"/>
</g>
<!-- 40428944 -->
<g id="node23" class="node"><title>40428944</title>
<ellipse fill="#8f8f8f" stroke="black" cx="2328" cy="-556" rx="99.9096" ry="26.163"/>
<text text-anchor="middle" x="2328" y="-548.9" font-family="Times Roman,serif" font-size="24.00">request: []</text>
</g>
<!-- 40428944&#45;&gt;40312288 -->
<g id="edge25" class="edge"><title>40428944&#45;&gt;40312288</title>
<path fill="none" stroke="black" d="M2318.4,-581.995C2313.32,-595.746 2306.88,-613.192 2300.73,-629.848"/>
<polygon fill="black" stroke="black" points="2297.34,-628.937 2297.16,-639.53 2303.91,-631.362 2297.34,-628.937"/>
</g>
<!-- 40500112&#45;&gt;40312288 -->
<g id="edge19" class="edge"><title>40500112&#45;&gt;40312288</title>
<path fill="none" stroke="black" d="M2227.35,-446.458C2223.98,-452.075 2221.07,-457.971 2219,-464 2198.95,-522.434 2199.75,-544.298 2219,-603 2222.25,-612.915 2227.19,-622.623 2232.88,-631.702"/>
<polygon fill="black" stroke="black" points="2230.08,-633.812 2238.53,-640.2 2235.91,-629.936 2230.08,-633.812"/>
</g>
<!-- 40500112&#45;&gt;40428944 -->
<g id="edge21" class="edge"><title>40500112&#45;&gt;40428944</title>
<path fill="none" stroke="black" d="M2286,-447.505C2295.04,-470.859 2305.82,-498.707 2314.2,-520.343"/>
<polygon fill="black" stroke="black" points="2310.99,-521.746 2317.86,-529.808 2317.52,-519.219 2310.99,-521.746"/>
</g>
<!-- 41073312 -->
<g id="node26" class="node"><title>41073312</title>
<ellipse fill="firebrick" stroke="black" cx="2696" cy="-686" rx="196.075" ry="46.669"/>
<text text-anchor="middle" x="2696" y="-693.4" font-family="Times Roman,serif" font-size="24.00">exp: (pymemoizedSP)</text>
<text text-anchor="middle" x="2696" y="-664.4" font-family="Times Roman,serif" font-size="24.00">value: #t</text>
</g>
<!-- 41073312&#45;&gt;40200160 -->
<g id="edge17" class="edge"><title>41073312&#45;&gt;40200160</title>
<path fill="none" stroke="black" d="M2572.45,-722.209C2544.85,-729.307 2515.58,-736.069 2488,-741 2244.42,-784.554 1953.44,-804.009 1803.8,-811.673"/>
<polygon fill="black" stroke="black" points="1803.52,-808.182 1793.71,-812.182 1803.87,-815.173 1803.52,-808.182"/>
</g>
<!-- 41022112 -->
<g id="node27" class="node"><title>41022112</title>
<ellipse fill="#8f8f8f" stroke="black" cx="2744" cy="-556" rx="99.9096" ry="26.163"/>
<text text-anchor="middle" x="2744" y="-548.9" font-family="Times Roman,serif" font-size="24.00">request: []</text>
</g>
<!-- 41022112&#45;&gt;41073312 -->
<g id="edge43" class="edge"><title>41022112&#45;&gt;41073312</title>
<path fill="none" stroke="black" d="M2734.4,-581.995C2729.32,-595.746 2722.88,-613.192 2716.73,-629.848"/>
<polygon fill="black" stroke="black" points="2713.34,-628.937 2713.16,-639.53 2719.91,-631.362 2713.34,-628.937"/>
</g>
<!-- 41109488&#45;&gt;41073312 -->
<g id="edge37" class="edge"><title>41109488&#45;&gt;41073312</title>
<path fill="none" stroke="black" d="M2643.35,-446.458C2639.98,-452.075 2637.07,-457.971 2635,-464 2614.95,-522.434 2615.75,-544.298 2635,-603 2638.25,-612.915 2643.19,-622.623 2648.88,-631.702"/>
<polygon fill="black" stroke="black" points="2646.08,-633.812 2654.53,-640.2 2651.91,-629.936 2646.08,-633.812"/>
</g>
<!-- 41109488&#45;&gt;41022112 -->
<g id="edge39" class="edge"><title>41109488&#45;&gt;41022112</title>
<path fill="none" stroke="black" d="M2702,-447.505C2711.04,-470.859 2721.82,-498.707 2730.2,-520.343"/>
<polygon fill="black" stroke="black" points="2726.99,-521.746 2733.86,-529.808 2733.52,-519.219 2726.99,-521.746"/>
</g>
<!-- 39629792 -->
<g id="node49" class="node"><title>39629792</title>
<ellipse fill="none" stroke="black" cx="1179" cy="-19" rx="62.9325" ry="18.3848"/>
<text text-anchor="middle" x="1179" y="-15.4" font-family="Times Roman,serif" font-size="14.00">39629792</text>
</g>
<!-- 39629792&#45;&gt;41211152 -->
<g id="edge49" class="edge"><title>39629792&#45;&gt;41211152</title>
<path fill="none" stroke="black" d="M1179,-37.8129C1179,-59.2806 1179,-95.4093 1179,-126.255"/>
<polygon fill="black" stroke="black" points="1175.5,-126.484 1179,-136.484 1182.5,-126.484 1175.5,-126.484"/>
</g>
<!-- 37999648 -->
<g id="node53" class="node"><title>37999648</title>
<ellipse fill="none" stroke="black" cx="1883" cy="-19" rx="62.9325" ry="18.3848"/>
<text text-anchor="middle" x="1883" y="-15.4" font-family="Times Roman,serif" font-size="14.00">37999648</text>
</g>
<!-- 37999648&#45;&gt;41662000 -->
<g id="edge55" class="edge"><title>37999648&#45;&gt;41662000</title>
<path fill="none" stroke="black" d="M1883,-37.8129C1883,-59.2806 1883,-95.4093 1883,-126.255"/>
<polygon fill="black" stroke="black" points="1879.5,-126.484 1883,-136.484 1886.5,-126.484 1879.5,-126.484"/>
</g>
</g>
</svg>
