<?xml version="1.0" encoding="UTF-8" standalone="no"?>
<!DOCTYPE svg PUBLIC "-//W3C//DTD SVG 1.1//EN"
 "http://www.w3.org/Graphics/SVG/1.1/DTD/svg11.dtd">
<!-- Generated by graphviz version 2.26.3 (20100126.1600)
 -->
<!-- Title: _anonymous_0 Pages: 1 -->
<svg width="2518pt" height="895pt"
 viewBox="0.00 0.00 2518.00 895.00" xmlns="http://www.w3.org/2000/svg" xmlns:xlink="http://www.w3.org/1999/xlink">
<g id="graph1" class="graph" transform="scale(1 1) rotate(0) translate(4 891)">
<title>_anonymous_0</title>
<polygon fill="white" stroke="white" points="-4,5 -4,-891 2515,-891 2515,5 -4,5"/>
<g id="graph2" class="cluster"><title>cluster1</title>
<polygon fill="none" stroke="black" points="8,-46 8,-879 1670,-879 1670,-46 8,-46"/>
<text text-anchor="middle" x="839" y="-57.4" font-family="Times Roman,serif" font-size="24.00">Venture Families</text>
</g>
<g id="graph3" class="cluster"><title>cluster2</title>
<polygon fill="none" stroke="black" points="256,-91 256,-456 1662,-456 1662,-91 256,-91"/>
<text text-anchor="middle" x="959" y="-102.4" font-family="Times Roman,serif" font-size="24.00">1</text>
</g>
<g id="graph4" class="cluster"><title>cluster3</title>
<polygon fill="none" stroke="black" points="16,-464 16,-871 350,-871 350,-464 16,-464"/>
<text text-anchor="middle" x="183" y="-475.4" font-family="Times Roman,serif" font-size="24.00">2</text>
</g>
<g id="graph5" class="cluster"><title>cluster4</title>
<polygon fill="none" stroke="black" points="358,-464 358,-871 922,-871 922,-464 358,-464"/>
<text text-anchor="middle" x="640" y="-475.4" font-family="Times Roman,serif" font-size="24.00">3</text>
</g>
<g id="graph6" class="cluster"><title>cluster5</title>
<polygon fill="none" stroke="black" points="930,-464 930,-871 1662,-871 1662,-464 930,-464"/>
<text text-anchor="middle" x="1296" y="-475.4" font-family="Times Roman,serif" font-size="24.00">4</text>
</g>
<g id="graph7" class="cluster"><title>cluster6</title>
<polygon fill="none" stroke="black" points="1678,-346 1678,-741 2086,-741 2086,-346 1678,-346"/>
</g>
<g id="graph8" class="cluster"><title>cluster7</title>
<polygon fill="none" stroke="black" points="2094,-346 2094,-741 2502,-741 2502,-346 2094,-346"/>
</g>
<!-- 41173408 -->
<g id="node3" class="node"><title>41173408</title>
<ellipse fill="#8f8f8f" stroke="black" cx="840" cy="-401" rx="379.009" ry="46.669"/>
<text text-anchor="middle" x="840" y="-408.4" font-family="Times Roman,serif" font-size="24.00">exp: (pymem bernoulli 1.000000 0.100000)</text>
<text text-anchor="middle" x="840" y="-379.4" font-family="Times Roman,serif" font-size="24.00">value: sp:pymem</text>
</g>
<!-- 40228160 -->
<g id="node12" class="node"><title>40228160</title>
<ellipse fill="#8f8f8f" stroke="black" cx="183" cy="-556" rx="159.099" ry="46.669"/>
<text text-anchor="middle" x="183" y="-563.4" font-family="Times Roman,serif" font-size="24.00">exp: f</text>
<text text-anchor="middle" x="183" y="-534.4" font-family="Times Roman,serif" font-size="24.00">value: sp:pymem</text>
</g>
<!-- 41173408&#45;&gt;40228160 -->
<g id="edge31" class="edge"><title>41173408&#45;&gt;40228160</title>
<path fill="none" stroke="black" d="M545.621,-430.362C466.099,-440.257 391.662,-451.884 354,-464 320.7,-474.713 286.301,-491.856 257.164,-508.457"/>
<polygon fill="black" stroke="black" points="255.203,-505.548 248.298,-513.584 258.707,-511.608 255.203,-505.548"/>
</g>
<!-- 40475808 -->
<g id="node16" class="node"><title>40475808</title>
<ellipse fill="#8f8f8f" stroke="black" cx="650" cy="-556" rx="159.099" ry="46.669"/>
<text text-anchor="middle" x="650" y="-563.4" font-family="Times Roman,serif" font-size="24.00">exp: f</text>
<text text-anchor="middle" x="650" y="-534.4" font-family="Times Roman,serif" font-size="24.00">value: sp:pymem</text>
</g>
<!-- 41173408&#45;&gt;40475808 -->
<g id="edge69" class="edge"><title>41173408&#45;&gt;40475808</title>
<path fill="none" stroke="black" d="M783.508,-447.085C760.905,-465.525 734.8,-486.821 711.702,-505.664"/>
<polygon fill="black" stroke="black" points="709.204,-503.185 703.668,-512.218 713.629,-508.609 709.204,-503.185"/>
</g>
<!-- 40985936 -->
<g id="node20" class="node"><title>40985936</title>
<ellipse fill="#8f8f8f" stroke="black" cx="1097" cy="-556" rx="159.099" ry="46.669"/>
<text text-anchor="middle" x="1097" y="-563.4" font-family="Times Roman,serif" font-size="24.00">exp: f</text>
<text text-anchor="middle" x="1097" y="-534.4" font-family="Times Roman,serif" font-size="24.00">value: sp:pymem</text>
</g>
<!-- 41173408&#45;&gt;40985936 -->
<g id="edge13" class="edge"><title>41173408&#45;&gt;40985936</title>
<path fill="none" stroke="black" d="M915.718,-446.667C948.203,-466.259 986.134,-489.135 1018.88,-508.885"/>
<polygon fill="black" stroke="black" points="1017.16,-511.932 1027.53,-514.099 1020.77,-505.938 1017.16,-511.932"/>
</g>
<!-- 41036400 -->
<g id="node4" class="node"><title>41036400</title>
<ellipse fill="#8f8f8f" stroke="black" cx="900" cy="-292" rx="99.9096" ry="26.163"/>
<text text-anchor="middle" x="900" y="-284.9" font-family="Times Roman,serif" font-size="24.00">request: []</text>
</g>
<!-- 41036400&#45;&gt;41173408 -->
<g id="edge63" class="edge"><title>41036400&#45;&gt;41173408</title>
<path fill="none" stroke="black" d="M885.781,-317.831C881.164,-326.218 875.851,-335.871 870.515,-345.564"/>
<polygon fill="black" stroke="black" points="867.385,-343.992 865.629,-354.441 873.517,-347.368 867.385,-343.992"/>
</g>
<!-- 41211152 -->
<g id="node5" class="node"><title>41211152</title>
<ellipse fill="#8f8f8f" stroke="black" cx="781" cy="-183" rx="200.818" ry="46.669"/>
<text text-anchor="middle" x="781" y="-190.4" font-family="Times Roman,serif" font-size="24.00">exp: pymem</text>
<text text-anchor="middle" x="781" y="-161.4" font-family="Times Roman,serif" font-size="24.00">value: sp:sp_no_name</text>
</g>
<!-- 41211152&#45;&gt;41173408 -->
<g id="edge43" class="edge"><title>41211152&#45;&gt;41173408</title>
<path fill="none" stroke="black" d="M779.261,-229.594C779.546,-256.071 782.076,-289.518 791,-318 793.927,-327.341 798.075,-336.748 802.733,-345.701"/>
<polygon fill="black" stroke="black" points="799.667,-347.389 807.534,-354.485 805.809,-344.032 799.667,-347.389"/>
</g>
<!-- 41211152&#45;&gt;41036400 -->
<g id="edge45" class="edge"><title>41211152&#45;&gt;41036400</title>
<path fill="none" stroke="black" d="M830.433,-228.279C842.046,-238.916 854.186,-250.036 865.014,-259.954"/>
<polygon fill="black" stroke="black" points="862.901,-262.765 872.639,-266.939 867.629,-257.603 862.901,-262.765"/>
</g>
<!-- 41662000 -->
<g id="node6" class="node"><title>41662000</title>
<ellipse fill="#8f8f8f" stroke="black" cx="1485" cy="-183" rx="168.999" ry="46.669"/>
<text text-anchor="middle" x="1485" y="-190.4" font-family="Times Roman,serif" font-size="24.00">exp: bernoulli</text>
<text text-anchor="middle" x="1485" y="-161.4" font-family="Times Roman,serif" font-size="24.00">value: sp:bernoulli</text>
</g>
<!-- 41662000&#45;&gt;41173408 -->
<g id="edge49" class="edge"><title>41662000&#45;&gt;41173408</title>
<path fill="none" stroke="black" d="M1378.13,-219.121C1268.85,-256.055 1098.61,-313.593 978.936,-354.042"/>
<polygon fill="black" stroke="black" points="977.68,-350.772 969.327,-357.289 979.921,-357.403 977.68,-350.772"/>
</g>
<!-- 41662000&#45;&gt;41036400 -->
<g id="edge51" class="edge"><title>41662000&#45;&gt;41036400</title>
<path fill="none" stroke="black" d="M1366.21,-216.248C1346.52,-221.217 1326.25,-226.005 1307,-230 1203.54,-251.475 1083.85,-268.823 1001.17,-279.649"/>
<polygon fill="black" stroke="black" points="1000.49,-276.208 991.021,-280.97 1001.39,-283.15 1000.49,-276.208"/>
</g>
<!-- 40500112 -->
<g id="node24" class="node"><title>40500112</title>
<ellipse fill="#8f8f8f" stroke="black" cx="1870" cy="-401" rx="183.848" ry="46.669"/>
<text text-anchor="middle" x="1870" y="-408.4" font-family="Times Roman,serif" font-size="24.00">exp: pymemoizedSP</text>
<text text-anchor="middle" x="1870" y="-379.4" font-family="Times Roman,serif" font-size="24.00">value: sp:bernoulli</text>
</g>
<!-- 41662000&#45;&gt;40500112 -->
<g id="edge23" class="edge"><title>41662000&#45;&gt;40500112</title>
<path fill="none" stroke="black" d="M1559.23,-225.033C1624.06,-261.74 1718.1,-314.991 1785.74,-353.288"/>
<polygon fill="black" stroke="black" points="1784.26,-356.471 1794.68,-358.353 1787.71,-350.38 1784.26,-356.471"/>
</g>
<!-- 41109488 -->
<g id="node28" class="node"><title>41109488</title>
<ellipse fill="#8f8f8f" stroke="black" cx="2286" cy="-401" rx="183.848" ry="46.669"/>
<text text-anchor="middle" x="2286" y="-408.4" font-family="Times Roman,serif" font-size="24.00">exp: pymemoizedSP</text>
<text text-anchor="middle" x="2286" y="-379.4" font-family="Times Roman,serif" font-size="24.00">value: sp:bernoulli</text>
</g>
<!-- 41662000&#45;&gt;41109488 -->
<g id="edge39" class="edge"><title>41662000&#45;&gt;41109488</title>
<path fill="none" stroke="black" d="M1606.49,-215.334C1728.72,-247.959 1922.58,-299.957 2090,-346 2110.54,-351.648 2132.27,-357.685 2153.49,-363.615"/>
<polygon fill="black" stroke="black" points="2152.63,-367.008 2163.2,-366.33 2154.52,-360.267 2152.63,-367.008"/>
</g>
<!-- 42359680 -->
<g id="node7" class="node"><title>42359680</title>
<ellipse fill="#8f8f8f" stroke="black" cx="413" cy="-183" rx="149.2" ry="46.669"/>
<text text-anchor="middle" x="413" y="-190.4" font-family="Times Roman,serif" font-size="24.00">exp: 1.000000</text>
<text text-anchor="middle" x="413" y="-161.4" font-family="Times Roman,serif" font-size="24.00">value: 1.000000</text>
</g>
<!-- 42359680&#45;&gt;41173408 -->
<g id="edge55" class="edge"><title>42359680&#45;&gt;41173408</title>
<path fill="none" stroke="black" d="M490.822,-222.731C561.439,-258.784 665.871,-312.1 742.124,-351.031"/>
<polygon fill="black" stroke="black" points="740.782,-354.275 751.28,-355.705 743.965,-348.041 740.782,-354.275"/>
</g>
<!-- 42359680&#45;&gt;41036400 -->
<g id="edge57" class="edge"><title>42359680&#45;&gt;41036400</title>
<path fill="none" stroke="black" d="M518.403,-215.989C535.889,-220.99 553.895,-225.856 571,-230 649.044,-248.908 738.673,-265.466 804.652,-276.702"/>
<polygon fill="black" stroke="black" points="804.177,-280.172 814.621,-278.39 805.346,-273.27 804.177,-280.172"/>
</g>
<!-- 40317264 -->
<g id="node8" class="node"><title>40317264</title>
<ellipse fill="#8f8f8f" stroke="black" cx="1149" cy="-183" rx="149.2" ry="46.669"/>
<text text-anchor="middle" x="1149" y="-190.4" font-family="Times Roman,serif" font-size="24.00">exp: 0.100000</text>
<text text-anchor="middle" x="1149" y="-161.4" font-family="Times Roman,serif" font-size="24.00">value: 0.100000</text>
</g>
<!-- 40317264&#45;&gt;41173408 -->
<g id="edge59" class="edge"><title>40317264&#45;&gt;41173408</title>
<path fill="none" stroke="black" d="M1109.15,-228.05C1082.66,-256.241 1046.04,-292.011 1009,-318 991.791,-330.076 972.562,-341.322 953.415,-351.394"/>
<polygon fill="black" stroke="black" points="951.608,-348.389 944.332,-356.09 954.823,-354.607 951.608,-348.389"/>
</g>
<!-- 40317264&#45;&gt;41036400 -->
<g id="edge61" class="edge"><title>40317264&#45;&gt;41036400</title>
<path fill="none" stroke="black" d="M1062.26,-220.97C1028.68,-235.669 991.054,-252.141 960.494,-265.519"/>
<polygon fill="black" stroke="black" points="959.006,-262.349 951.249,-269.566 961.813,-268.762 959.006,-262.349"/>
</g>
<!-- 40625424 -->
<g id="node10" class="node"><title>40625424</title>
<ellipse fill="gold" stroke="black" cx="144" cy="-816" rx="72.1249" ry="46.669"/>
<text text-anchor="middle" x="144" y="-823.4" font-family="Times Roman,serif" font-size="24.00">exp: (f)</text>
<text text-anchor="middle" x="144" y="-794.4" font-family="Times Roman,serif" font-size="24.00">value: </text>
</g>
<!-- 40493248 -->
<g id="node11" class="node"><title>40493248</title>
<ellipse fill="firebrick" stroke="black" cx="192" cy="-686" rx="87.1802" ry="26.163"/>
<text text-anchor="middle" x="192" y="-678.9" font-family="Times Roman,serif" font-size="24.00">request: </text>
</g>
<!-- 40493248&#45;&gt;40625424 -->
<g id="edge33" class="edge"><title>40493248&#45;&gt;40625424</title>
<path fill="none" stroke="black" d="M182.402,-711.995C177.233,-725.993 170.65,-743.822 164.401,-760.748"/>
<polygon fill="black" stroke="black" points="160.953,-759.98 160.773,-770.574 167.52,-762.405 160.953,-759.98"/>
</g>
<!-- 40228160&#45;&gt;40625424 -->
<g id="edge27" class="edge"><title>40228160&#45;&gt;40625424</title>
<path fill="none" stroke="black" d="M124.155,-599.316C112.717,-610.826 102.325,-624.223 96,-639 78.1603,-680.676 83.2691,-697.491 96,-741 98.4603,-749.408 102.184,-757.77 106.49,-765.692"/>
<polygon fill="black" stroke="black" points="103.516,-767.54 111.564,-774.43 109.569,-764.025 103.516,-767.54"/>
</g>
<!-- 40228160&#45;&gt;40493248 -->
<g id="edge29" class="edge"><title>40228160&#45;&gt;40493248</title>
<path fill="none" stroke="black" d="M186.224,-602.566C187.295,-618.043 188.472,-635.04 189.482,-649.632"/>
<polygon fill="black" stroke="black" points="186.002,-650.041 190.184,-659.776 192.985,-649.558 186.002,-650.041"/>
</g>
<!-- 42669312 -->
<g id="node14" class="node"><title>42669312</title>
<ellipse fill="#8f8f8f" stroke="black" cx="650" cy="-816" rx="89.8026" ry="46.669"/>
<text text-anchor="middle" x="650" y="-823.4" font-family="Times Roman,serif" font-size="24.00">exp: (f)</text>
<text text-anchor="middle" x="650" y="-794.4" font-family="Times Roman,serif" font-size="24.00">value: #f</text>
</g>
<!-- 40357360 -->
<g id="node15" class="node"><title>40357360</title>
<ellipse fill="#8f8f8f" stroke="black" cx="650" cy="-686" rx="263.958" ry="26.163"/>
<text text-anchor="middle" x="650" y="-678.9" font-family="Times Roman,serif" font-size="24.00">request: [(0, &lt;exp&gt;, &lt;env&gt;)]</text>
</g>
<!-- 40357360&#45;&gt;42669312 -->
<g id="edge71" class="edge"><title>40357360&#45;&gt;42669312</title>
<path fill="none" stroke="black" d="M650,-712.307C650,-725.886 650,-743.006 650,-759.401"/>
<polygon fill="black" stroke="black" points="646.5,-759.477 650,-769.477 653.5,-759.477 646.5,-759.477"/>
</g>
<!-- 40475808&#45;&gt;42669312 -->
<g id="edge65" class="edge"><title>40475808&#45;&gt;42669312</title>
<path fill="none" stroke="black" d="M516.079,-581.079C456.045,-595.309 394.735,-615.071 377,-639 350.006,-675.421 349.516,-704.948 377,-741 398.621,-769.362 483.45,-789.669 552.881,-801.939"/>
<polygon fill="black" stroke="black" points="552.553,-805.435 563.004,-803.691 553.747,-798.537 552.553,-805.435"/>
</g>
<!-- 40475808&#45;&gt;40357360 -->
<g id="edge67" class="edge"><title>40475808&#45;&gt;40357360</title>
<path fill="none" stroke="black" d="M650,-602.566C650,-618.043 650,-635.04 650,-649.632"/>
<polygon fill="black" stroke="black" points="646.5,-649.776 650,-659.776 653.5,-649.776 646.5,-649.776"/>
</g>
<!-- 40200160 -->
<g id="node18" class="node"><title>40200160</title>
<ellipse fill="#8f8f8f" stroke="black" cx="1306" cy="-816" rx="90.0096" ry="46.669"/>
<text text-anchor="middle" x="1306" y="-823.4" font-family="Times Roman,serif" font-size="24.00">exp: (f)</text>
<text text-anchor="middle" x="1306" y="-794.4" font-family="Times Roman,serif" font-size="24.00">value: #t</text>
</g>
<!-- 40666352 -->
<g id="node19" class="node"><title>40666352</title>
<ellipse fill="#8f8f8f" stroke="black" cx="1306" cy="-686" rx="347.897" ry="26.163"/>
<text text-anchor="middle" x="1306" y="-678.9" font-family="Times Roman,serif" font-size="24.00">request: [(1, (pymemoizedSP), &lt;env&gt;)]</text>
</g>
<!-- 40666352&#45;&gt;40200160 -->
<g id="edge15" class="edge"><title>40666352&#45;&gt;40200160</title>
<path fill="none" stroke="black" d="M1306,-712.307C1306,-725.886 1306,-743.006 1306,-759.401"/>
<polygon fill="black" stroke="black" points="1302.5,-759.477 1306,-769.477 1309.5,-759.477 1302.5,-759.477"/>
</g>
<!-- 40985936&#45;&gt;40200160 -->
<g id="edge9" class="edge"><title>40985936&#45;&gt;40200160</title>
<path fill="none" stroke="black" d="M997.549,-592.513C978.189,-604.318 960.39,-619.554 949,-639 926.089,-678.117 920.429,-705.803 949,-741 980.916,-780.318 1112.28,-799.781 1206.38,-808.852"/>
<polygon fill="black" stroke="black" points="1206.23,-812.353 1216.51,-809.802 1206.88,-805.383 1206.23,-812.353"/>
</g>
<!-- 40985936&#45;&gt;40666352 -->
<g id="edge11" class="edge"><title>40985936&#45;&gt;40666352</title>
<path fill="none" stroke="black" d="M1164.86,-598.207C1194.43,-616.604 1228.49,-637.791 1255.75,-654.741"/>
<polygon fill="black" stroke="black" points="1254,-657.777 1264.34,-660.087 1257.7,-651.833 1254,-657.777"/>
</g>
<!-- 40312288 -->
<g id="node22" class="node"><title>40312288</title>
<ellipse fill="#8f8f8f" stroke="black" cx="1882" cy="-686" rx="196.075" ry="46.669"/>
<text text-anchor="middle" x="1882" y="-693.4" font-family="Times Roman,serif" font-size="24.00">exp: (pymemoizedSP)</text>
<text text-anchor="middle" x="1882" y="-664.4" font-family="Times Roman,serif" font-size="24.00">value: #f</text>
</g>
<!-- 40312288&#45;&gt;42669312 -->
<g id="edge73" class="edge"><title>40312288&#45;&gt;42669312</title>
<path fill="none" stroke="black" d="M1758.69,-722.176C1728.61,-729.67 1696.35,-736.612 1666,-741 1340.26,-788.092 1253.37,-735.08 926,-769 865.023,-775.318 797.139,-786.818 743.953,-796.861"/>
<polygon fill="black" stroke="black" points="743.027,-793.475 733.858,-798.783 744.337,-800.351 743.027,-793.475"/>
</g>
<!-- 40428944 -->
<g id="node23" class="node"><title>40428944</title>
<ellipse fill="#8f8f8f" stroke="black" cx="1930" cy="-556" rx="99.9096" ry="26.163"/>
<text text-anchor="middle" x="1930" y="-548.9" font-family="Times Roman,serif" font-size="24.00">request: []</text>
</g>
<!-- 40428944&#45;&gt;40312288 -->
<g id="edge25" class="edge"><title>40428944&#45;&gt;40312288</title>
<path fill="none" stroke="black" d="M1920.4,-581.995C1915.32,-595.746 1908.88,-613.192 1902.73,-629.848"/>
<polygon fill="black" stroke="black" points="1899.34,-628.937 1899.16,-639.53 1905.91,-631.362 1899.34,-628.937"/>
</g>
<!-- 40500112&#45;&gt;40312288 -->
<g id="edge19" class="edge"><title>40500112&#45;&gt;40312288</title>
<path fill="none" stroke="black" d="M1829.35,-446.458C1825.98,-452.075 1823.07,-457.971 1821,-464 1800.95,-522.434 1801.75,-544.298 1821,-603 1824.25,-612.915 1829.19,-622.623 1834.88,-631.702"/>
<polygon fill="black" stroke="black" points="1832.08,-633.812 1840.53,-640.2 1837.91,-629.936 1832.08,-633.812"/>
</g>
<!-- 40500112&#45;&gt;40428944 -->
<g id="edge21" class="edge"><title>40500112&#45;&gt;40428944</title>
<path fill="none" stroke="black" d="M1888,-447.505C1897.04,-470.859 1907.82,-498.707 1916.2,-520.343"/>
<polygon fill="black" stroke="black" points="1912.99,-521.746 1919.86,-529.808 1919.52,-519.219 1912.99,-521.746"/>
</g>
<!-- 41073312 -->
<g id="node26" class="node"><title>41073312</title>
<ellipse fill="#8f8f8f" stroke="black" cx="2298" cy="-686" rx="196.075" ry="46.669"/>
<text text-anchor="middle" x="2298" y="-693.4" font-family="Times Roman,serif" font-size="24.00">exp: (pymemoizedSP)</text>
<text text-anchor="middle" x="2298" y="-664.4" font-family="Times Roman,serif" font-size="24.00">value: #t</text>
</g>
<!-- 41073312&#45;&gt;40200160 -->
<g id="edge17" class="edge"><title>41073312&#45;&gt;40200160</title>
<path fill="none" stroke="black" d="M2174.45,-722.209C2146.85,-729.307 2117.58,-736.069 2090,-741 1846.42,-784.554 1555.44,-804.009 1405.8,-811.673"/>
<polygon fill="black" stroke="black" points="1405.52,-808.182 1395.71,-812.182 1405.87,-815.173 1405.52,-808.182"/>
</g>
<!-- 41022112 -->
<g id="node27" class="node"><title>41022112</title>
<ellipse fill="#8f8f8f" stroke="black" cx="2346" cy="-556" rx="99.9096" ry="26.163"/>
<text text-anchor="middle" x="2346" y="-548.9" font-family="Times Roman,serif" font-size="24.00">request: []</text>
</g>
<!-- 41022112&#45;&gt;41073312 -->
<g id="edge41" class="edge"><title>41022112&#45;&gt;41073312</title>
<path fill="none" stroke="black" d="M2336.4,-581.995C2331.32,-595.746 2324.88,-613.192 2318.73,-629.848"/>
<polygon fill="black" stroke="black" points="2315.34,-628.937 2315.16,-639.53 2321.91,-631.362 2315.34,-628.937"/>
</g>
<!-- 41109488&#45;&gt;41073312 -->
<g id="edge35" class="edge"><title>41109488&#45;&gt;41073312</title>
<path fill="none" stroke="black" d="M2245.35,-446.458C2241.98,-452.075 2239.07,-457.971 2237,-464 2216.95,-522.434 2217.75,-544.298 2237,-603 2240.25,-612.915 2245.19,-622.623 2250.88,-631.702"/>
<polygon fill="black" stroke="black" points="2248.08,-633.812 2256.53,-640.2 2253.91,-629.936 2248.08,-633.812"/>
</g>
<!-- 41109488&#45;&gt;41022112 -->
<g id="edge37" class="edge"><title>41109488&#45;&gt;41022112</title>
<path fill="none" stroke="black" d="M2304,-447.505C2313.04,-470.859 2323.82,-498.707 2332.2,-520.343"/>
<polygon fill="black" stroke="black" points="2328.99,-521.746 2335.86,-529.808 2335.52,-519.219 2328.99,-521.746"/>
</g>
<!-- 39629792 -->
<g id="node48" class="node"><title>39629792</title>
<ellipse fill="none" stroke="black" cx="781" cy="-19" rx="62.9325" ry="18.3848"/>
<text text-anchor="middle" x="781" y="-15.4" font-family="Times Roman,serif" font-size="14.00">39629792</text>
</g>
<!-- 39629792&#45;&gt;41211152 -->
<g id="edge47" class="edge"><title>39629792&#45;&gt;41211152</title>
<path fill="none" stroke="black" d="M781,-37.8129C781,-59.2806 781,-95.4093 781,-126.255"/>
<polygon fill="black" stroke="black" points="777.5,-126.484 781,-136.484 784.5,-126.484 777.5,-126.484"/>
</g>
<!-- 37999648 -->
<g id="node52" class="node"><title>37999648</title>
<ellipse fill="none" stroke="black" cx="1485" cy="-19" rx="62.9325" ry="18.3848"/>
<text text-anchor="middle" x="1485" y="-15.4" font-family="Times Roman,serif" font-size="14.00">37999648</text>
</g>
<!-- 37999648&#45;&gt;41662000 -->
<g id="edge53" class="edge"><title>37999648&#45;&gt;41662000</title>
<path fill="none" stroke="black" d="M1485,-37.8129C1485,-59.2806 1485,-95.4093 1485,-126.255"/>
<polygon fill="black" stroke="black" points="1481.5,-126.484 1485,-136.484 1488.5,-126.484 1481.5,-126.484"/>
</g>
</g>
</svg>
