<?xml version="1.0" encoding="UTF-8" standalone="no"?>
<!DOCTYPE svg PUBLIC "-//W3C//DTD SVG 1.1//EN"
 "http://www.w3.org/Graphics/SVG/1.1/DTD/svg11.dtd">
<!-- Generated by graphviz version 2.26.3 (20100126.1600)
 -->
<!-- Title: _anonymous_0 Pages: 1 -->
<svg width="2686pt" height="895pt"
 viewBox="0.00 0.00 2686.00 895.00" xmlns="http://www.w3.org/2000/svg" xmlns:xlink="http://www.w3.org/1999/xlink">
<g id="graph1" class="graph" transform="scale(1 1) rotate(0) translate(4 891)">
<title>_anonymous_0</title>
<polygon fill="white" stroke="white" points="-4,5 -4,-891 2683,-891 2683,5 -4,5"/>
<g id="graph2" class="cluster"><title>cluster1</title>
<polygon fill="none" stroke="black" points="8,-46 8,-879 1838,-879 1838,-46 8,-46"/>
<text text-anchor="middle" x="923" y="-57.4" font-family="Times Roman,serif" font-size="24.00">Venture Families</text>
</g>
<g id="graph3" class="cluster"><title>cluster2</title>
<polygon fill="none" stroke="black" points="424,-91 424,-456 1830,-456 1830,-91 424,-91"/>
<text text-anchor="middle" x="1127" y="-102.4" font-family="Times Roman,serif" font-size="24.00">1</text>
</g>
<g id="graph4" class="cluster"><title>cluster3</title>
<polygon fill="none" stroke="black" points="358,-464 358,-871 1090,-871 1090,-464 358,-464"/>
<text text-anchor="middle" x="724" y="-475.4" font-family="Times Roman,serif" font-size="24.00">2</text>
</g>
<g id="graph5" class="cluster"><title>cluster4</title>
<polygon fill="none" stroke="black" points="16,-464 16,-871 350,-871 350,-464 16,-464"/>
<text text-anchor="middle" x="183" y="-475.4" font-family="Times Roman,serif" font-size="24.00">3</text>
</g>
<g id="graph6" class="cluster"><title>cluster5</title>
<polygon fill="none" stroke="black" points="1098,-464 1098,-871 1830,-871 1830,-464 1098,-464"/>
<text text-anchor="middle" x="1464" y="-475.4" font-family="Times Roman,serif" font-size="24.00">4</text>
</g>
<g id="graph7" class="cluster"><title>cluster6</title>
<polygon fill="none" stroke="black" points="1846,-346 1846,-741 2254,-741 2254,-346 1846,-346"/>
</g>
<g id="graph8" class="cluster"><title>cluster7</title>
<polygon fill="none" stroke="black" points="2262,-346 2262,-741 2670,-741 2670,-346 2262,-346"/>
</g>
<!-- 41173408 -->
<g id="node3" class="node"><title>41173408</title>
<ellipse fill="#8f8f8f" stroke="black" cx="1008" cy="-401" rx="379.009" ry="46.669"/>
<text text-anchor="middle" x="1008" y="-408.4" font-family="Times Roman,serif" font-size="24.00">exp: (pymem bernoulli 1.000000 0.100000)</text>
<text text-anchor="middle" x="1008" y="-379.4" font-family="Times Roman,serif" font-size="24.00">value: sp:pymem</text>
</g>
<!-- 40228160 -->
<g id="node12" class="node"><title>40228160</title>
<ellipse fill="#8f8f8f" stroke="black" cx="734" cy="-556" rx="159.099" ry="46.669"/>
<text text-anchor="middle" x="734" y="-563.4" font-family="Times Roman,serif" font-size="24.00">exp: f</text>
<text text-anchor="middle" x="734" y="-534.4" font-family="Times Roman,serif" font-size="24.00">value: sp:pymem</text>
</g>
<!-- 41173408&#45;&gt;40228160 -->
<g id="edge31" class="edge"><title>41173408&#45;&gt;40228160</title>
<path fill="none" stroke="black" d="M927.642,-446.458C892.559,-466.304 851.462,-489.553 816.175,-509.514"/>
<polygon fill="black" stroke="black" points="814.317,-506.544 807.336,-514.514 817.763,-512.637 814.317,-506.544"/>
</g>
<!-- 40475808 -->
<g id="node16" class="node"><title>40475808</title>
<ellipse fill="#8f8f8f" stroke="black" cx="183" cy="-556" rx="159.099" ry="46.669"/>
<text text-anchor="middle" x="183" y="-563.4" font-family="Times Roman,serif" font-size="24.00">exp: f</text>
<text text-anchor="middle" x="183" y="-534.4" font-family="Times Roman,serif" font-size="24.00">value: sp:pymem</text>
</g>
<!-- 41173408&#45;&gt;40475808 -->
<g id="edge71" class="edge"><title>41173408&#45;&gt;40475808</title>
<path fill="none" stroke="black" d="M668.003,-421.559C541.17,-431.802 413.553,-445.916 354,-464 320.382,-474.208 285.796,-491.353 256.601,-508.094"/>
<polygon fill="black" stroke="black" points="254.599,-505.209 247.721,-513.268 258.123,-511.257 254.599,-505.209"/>
</g>
<!-- 40985936 -->
<g id="node20" class="node"><title>40985936</title>
<ellipse fill="#8f8f8f" stroke="black" cx="1265" cy="-556" rx="159.099" ry="46.669"/>
<text text-anchor="middle" x="1265" y="-563.4" font-family="Times Roman,serif" font-size="24.00">exp: f</text>
<text text-anchor="middle" x="1265" y="-534.4" font-family="Times Roman,serif" font-size="24.00">value: sp:pymem</text>
</g>
<!-- 41173408&#45;&gt;40985936 -->
<g id="edge13" class="edge"><title>41173408&#45;&gt;40985936</title>
<path fill="none" stroke="black" d="M1083.72,-446.667C1116.2,-466.259 1154.13,-489.135 1186.88,-508.885"/>
<polygon fill="black" stroke="black" points="1185.16,-511.932 1195.53,-514.099 1188.77,-505.938 1185.16,-511.932"/>
</g>
<!-- 41036400 -->
<g id="node4" class="node"><title>41036400</title>
<ellipse fill="#8f8f8f" stroke="black" cx="1068" cy="-292" rx="99.9096" ry="26.163"/>
<text text-anchor="middle" x="1068" y="-284.9" font-family="Times Roman,serif" font-size="24.00">request: []</text>
</g>
<!-- 41036400&#45;&gt;41173408 -->
<g id="edge65" class="edge"><title>41036400&#45;&gt;41173408</title>
<path fill="none" stroke="black" d="M1053.78,-317.831C1049.16,-326.218 1043.85,-335.871 1038.52,-345.564"/>
<polygon fill="black" stroke="black" points="1035.39,-343.992 1033.63,-354.441 1041.52,-347.368 1035.39,-343.992"/>
</g>
<!-- 41211152 -->
<g id="node5" class="node"><title>41211152</title>
<ellipse fill="#8f8f8f" stroke="black" cx="949" cy="-183" rx="200.818" ry="46.669"/>
<text text-anchor="middle" x="949" y="-190.4" font-family="Times Roman,serif" font-size="24.00">exp: pymem</text>
<text text-anchor="middle" x="949" y="-161.4" font-family="Times Roman,serif" font-size="24.00">value: sp:sp_no_name</text>
</g>
<!-- 41211152&#45;&gt;41173408 -->
<g id="edge45" class="edge"><title>41211152&#45;&gt;41173408</title>
<path fill="none" stroke="black" d="M947.261,-229.594C947.546,-256.071 950.076,-289.518 959,-318 961.927,-327.341 966.075,-336.748 970.733,-345.701"/>
<polygon fill="black" stroke="black" points="967.667,-347.389 975.534,-354.485 973.809,-344.032 967.667,-347.389"/>
</g>
<!-- 41211152&#45;&gt;41036400 -->
<g id="edge47" class="edge"><title>41211152&#45;&gt;41036400</title>
<path fill="none" stroke="black" d="M998.433,-228.279C1010.05,-238.916 1022.19,-250.036 1033.01,-259.954"/>
<polygon fill="black" stroke="black" points="1030.9,-262.765 1040.64,-266.939 1035.63,-257.603 1030.9,-262.765"/>
</g>
<!-- 41662000 -->
<g id="node6" class="node"><title>41662000</title>
<ellipse fill="#8f8f8f" stroke="black" cx="1653" cy="-183" rx="168.999" ry="46.669"/>
<text text-anchor="middle" x="1653" y="-190.4" font-family="Times Roman,serif" font-size="24.00">exp: bernoulli</text>
<text text-anchor="middle" x="1653" y="-161.4" font-family="Times Roman,serif" font-size="24.00">value: sp:bernoulli</text>
</g>
<!-- 41662000&#45;&gt;41173408 -->
<g id="edge51" class="edge"><title>41662000&#45;&gt;41173408</title>
<path fill="none" stroke="black" d="M1546.13,-219.121C1436.85,-256.055 1266.61,-313.593 1146.94,-354.042"/>
<polygon fill="black" stroke="black" points="1145.68,-350.772 1137.33,-357.289 1147.92,-357.403 1145.68,-350.772"/>
</g>
<!-- 41662000&#45;&gt;41036400 -->
<g id="edge53" class="edge"><title>41662000&#45;&gt;41036400</title>
<path fill="none" stroke="black" d="M1534.21,-216.248C1514.52,-221.217 1494.25,-226.005 1475,-230 1371.54,-251.475 1251.85,-268.823 1169.17,-279.649"/>
<polygon fill="black" stroke="black" points="1168.49,-276.208 1159.02,-280.97 1169.39,-283.15 1168.49,-276.208"/>
</g>
<!-- 40500112 -->
<g id="node24" class="node"><title>40500112</title>
<ellipse fill="#8f8f8f" stroke="black" cx="2038" cy="-401" rx="183.848" ry="46.669"/>
<text text-anchor="middle" x="2038" y="-408.4" font-family="Times Roman,serif" font-size="24.00">exp: pymemoizedSP</text>
<text text-anchor="middle" x="2038" y="-379.4" font-family="Times Roman,serif" font-size="24.00">value: sp:bernoulli</text>
</g>
<!-- 41662000&#45;&gt;40500112 -->
<g id="edge23" class="edge"><title>41662000&#45;&gt;40500112</title>
<path fill="none" stroke="black" d="M1727.23,-225.033C1792.06,-261.74 1886.1,-314.991 1953.74,-353.288"/>
<polygon fill="black" stroke="black" points="1952.26,-356.471 1962.68,-358.353 1955.71,-350.38 1952.26,-356.471"/>
</g>
<!-- 41109488 -->
<g id="node28" class="node"><title>41109488</title>
<ellipse fill="#8f8f8f" stroke="black" cx="2454" cy="-401" rx="183.848" ry="46.669"/>
<text text-anchor="middle" x="2454" y="-408.4" font-family="Times Roman,serif" font-size="24.00">exp: pymemoizedSP</text>
<text text-anchor="middle" x="2454" y="-379.4" font-family="Times Roman,serif" font-size="24.00">value: sp:bernoulli</text>
</g>
<!-- 41662000&#45;&gt;41109488 -->
<g id="edge41" class="edge"><title>41662000&#45;&gt;41109488</title>
<path fill="none" stroke="black" d="M1774.49,-215.334C1896.72,-247.959 2090.58,-299.957 2258,-346 2278.54,-351.648 2300.27,-357.685 2321.49,-363.615"/>
<polygon fill="black" stroke="black" points="2320.63,-367.008 2331.2,-366.33 2322.52,-360.267 2320.63,-367.008"/>
</g>
<!-- 42359680 -->
<g id="node7" class="node"><title>42359680</title>
<ellipse fill="#8f8f8f" stroke="black" cx="581" cy="-183" rx="149.2" ry="46.669"/>
<text text-anchor="middle" x="581" y="-190.4" font-family="Times Roman,serif" font-size="24.00">exp: 1.000000</text>
<text text-anchor="middle" x="581" y="-161.4" font-family="Times Roman,serif" font-size="24.00">value: 1.000000</text>
</g>
<!-- 42359680&#45;&gt;41173408 -->
<g id="edge57" class="edge"><title>42359680&#45;&gt;41173408</title>
<path fill="none" stroke="black" d="M658.822,-222.731C729.439,-258.784 833.871,-312.1 910.124,-351.031"/>
<polygon fill="black" stroke="black" points="908.782,-354.275 919.28,-355.705 911.965,-348.041 908.782,-354.275"/>
</g>
<!-- 42359680&#45;&gt;41036400 -->
<g id="edge59" class="edge"><title>42359680&#45;&gt;41036400</title>
<path fill="none" stroke="black" d="M686.403,-215.989C703.889,-220.99 721.895,-225.856 739,-230 817.044,-248.908 906.673,-265.466 972.652,-276.702"/>
<polygon fill="black" stroke="black" points="972.177,-280.172 982.621,-278.39 973.346,-273.27 972.177,-280.172"/>
</g>
<!-- 40317264 -->
<g id="node8" class="node"><title>40317264</title>
<ellipse fill="#8f8f8f" stroke="black" cx="1317" cy="-183" rx="149.2" ry="46.669"/>
<text text-anchor="middle" x="1317" y="-190.4" font-family="Times Roman,serif" font-size="24.00">exp: 0.100000</text>
<text text-anchor="middle" x="1317" y="-161.4" font-family="Times Roman,serif" font-size="24.00">value: 0.100000</text>
</g>
<!-- 40317264&#45;&gt;41173408 -->
<g id="edge61" class="edge"><title>40317264&#45;&gt;41173408</title>
<path fill="none" stroke="black" d="M1277.15,-228.05C1250.66,-256.241 1214.04,-292.011 1177,-318 1159.79,-330.076 1140.56,-341.322 1121.41,-351.394"/>
<polygon fill="black" stroke="black" points="1119.61,-348.389 1112.33,-356.09 1122.82,-354.607 1119.61,-348.389"/>
</g>
<!-- 40317264&#45;&gt;41036400 -->
<g id="edge63" class="edge"><title>40317264&#45;&gt;41036400</title>
<path fill="none" stroke="black" d="M1230.26,-220.97C1196.68,-235.669 1159.05,-252.141 1128.49,-265.519"/>
<polygon fill="black" stroke="black" points="1127.01,-262.349 1119.25,-269.566 1129.81,-268.762 1127.01,-262.349"/>
</g>
<!-- 40625424 -->
<g id="node10" class="node"><title>40625424</title>
<ellipse fill="#8f8f8f" stroke="black" cx="734" cy="-816" rx="89.8026" ry="46.669"/>
<text text-anchor="middle" x="734" y="-823.4" font-family="Times Roman,serif" font-size="24.00">exp: (f)</text>
<text text-anchor="middle" x="734" y="-794.4" font-family="Times Roman,serif" font-size="24.00">value: #f</text>
</g>
<!-- 40493248 -->
<g id="node11" class="node"><title>40493248</title>
<ellipse fill="#8f8f8f" stroke="black" cx="734" cy="-686" rx="347.897" ry="26.163"/>
<text text-anchor="middle" x="734" y="-678.9" font-family="Times Roman,serif" font-size="24.00">request: [(0, (pymemoizedSP), &lt;env&gt;)]</text>
</g>
<!-- 40493248&#45;&gt;40625424 -->
<g id="edge33" class="edge"><title>40493248&#45;&gt;40625424</title>
<path fill="none" stroke="black" d="M734,-712.307C734,-725.886 734,-743.006 734,-759.401"/>
<polygon fill="black" stroke="black" points="730.5,-759.477 734,-769.477 737.5,-759.477 730.5,-759.477"/>
</g>
<!-- 40228160&#45;&gt;40625424 -->
<g id="edge27" class="edge"><title>40228160&#45;&gt;40625424</title>
<path fill="none" stroke="black" d="M584.661,-572.05C499.006,-584.676 403.366,-605.801 377,-639 348.807,-674.5 348.429,-705.803 377,-741 408.916,-780.318 540.275,-799.781 634.378,-808.852"/>
<polygon fill="black" stroke="black" points="634.226,-812.353 644.509,-809.802 634.88,-805.383 634.226,-812.353"/>
</g>
<!-- 40228160&#45;&gt;40493248 -->
<g id="edge29" class="edge"><title>40228160&#45;&gt;40493248</title>
<path fill="none" stroke="black" d="M734,-602.566C734,-618.043 734,-635.04 734,-649.632"/>
<polygon fill="black" stroke="black" points="730.5,-649.776 734,-659.776 737.5,-649.776 730.5,-649.776"/>
</g>
<!-- 42669312 -->
<g id="node14" class="node"><title>42669312</title>
<ellipse fill="gold" stroke="black" cx="144" cy="-816" rx="72.1249" ry="46.669"/>
<text text-anchor="middle" x="144" y="-823.4" font-family="Times Roman,serif" font-size="24.00">exp: (f)</text>
<text text-anchor="middle" x="144" y="-794.4" font-family="Times Roman,serif" font-size="24.00">value: </text>
</g>
<!-- 40357360 -->
<g id="node15" class="node"><title>40357360</title>
<ellipse fill="firebrick" stroke="black" cx="192" cy="-686" rx="87.1802" ry="26.163"/>
<text text-anchor="middle" x="192" y="-678.9" font-family="Times Roman,serif" font-size="24.00">request: </text>
</g>
<!-- 40357360&#45;&gt;42669312 -->
<g id="edge73" class="edge"><title>40357360&#45;&gt;42669312</title>
<path fill="none" stroke="black" d="M182.402,-711.995C177.233,-725.993 170.65,-743.822 164.401,-760.748"/>
<polygon fill="black" stroke="black" points="160.953,-759.98 160.773,-770.574 167.52,-762.405 160.953,-759.98"/>
</g>
<!-- 40475808&#45;&gt;42669312 -->
<g id="edge67" class="edge"><title>40475808&#45;&gt;42669312</title>
<path fill="none" stroke="black" d="M124.155,-599.316C112.717,-610.826 102.325,-624.223 96,-639 78.1603,-680.676 83.2691,-697.491 96,-741 98.4603,-749.408 102.184,-757.77 106.49,-765.692"/>
<polygon fill="black" stroke="black" points="103.516,-767.54 111.564,-774.43 109.569,-764.025 103.516,-767.54"/>
</g>
<!-- 40475808&#45;&gt;40357360 -->
<g id="edge69" class="edge"><title>40475808&#45;&gt;40357360</title>
<path fill="none" stroke="black" d="M186.224,-602.566C187.295,-618.043 188.472,-635.04 189.482,-649.632"/>
<polygon fill="black" stroke="black" points="186.002,-650.041 190.184,-659.776 192.985,-649.558 186.002,-650.041"/>
</g>
<!-- 40200160 -->
<g id="node18" class="node"><title>40200160</title>
<ellipse fill="#8f8f8f" stroke="black" cx="1474" cy="-816" rx="90.0096" ry="46.669"/>
<text text-anchor="middle" x="1474" y="-823.4" font-family="Times Roman,serif" font-size="24.00">exp: (f)</text>
<text text-anchor="middle" x="1474" y="-794.4" font-family="Times Roman,serif" font-size="24.00">value: #t</text>
</g>
<!-- 40666352 -->
<g id="node19" class="node"><title>40666352</title>
<ellipse fill="#8f8f8f" stroke="black" cx="1474" cy="-686" rx="347.897" ry="26.163"/>
<text text-anchor="middle" x="1474" y="-678.9" font-family="Times Roman,serif" font-size="24.00">request: [(1, (pymemoizedSP), &lt;env&gt;)]</text>
</g>
<!-- 40666352&#45;&gt;40200160 -->
<g id="edge15" class="edge"><title>40666352&#45;&gt;40200160</title>
<path fill="none" stroke="black" d="M1474,-712.307C1474,-725.886 1474,-743.006 1474,-759.401"/>
<polygon fill="black" stroke="black" points="1470.5,-759.477 1474,-769.477 1477.5,-759.477 1470.5,-759.477"/>
</g>
<!-- 40985936&#45;&gt;40200160 -->
<g id="edge9" class="edge"><title>40985936&#45;&gt;40200160</title>
<path fill="none" stroke="black" d="M1165.55,-592.513C1146.19,-604.318 1128.39,-619.554 1117,-639 1094.09,-678.117 1088.43,-705.803 1117,-741 1148.92,-780.318 1280.28,-799.781 1374.38,-808.852"/>
<polygon fill="black" stroke="black" points="1374.23,-812.353 1384.51,-809.802 1374.88,-805.383 1374.23,-812.353"/>
</g>
<!-- 40985936&#45;&gt;40666352 -->
<g id="edge11" class="edge"><title>40985936&#45;&gt;40666352</title>
<path fill="none" stroke="black" d="M1332.86,-598.207C1362.43,-616.604 1396.49,-637.791 1423.75,-654.741"/>
<polygon fill="black" stroke="black" points="1422,-657.777 1432.34,-660.087 1425.7,-651.833 1422,-657.777"/>
</g>
<!-- 40312288 -->
<g id="node22" class="node"><title>40312288</title>
<ellipse fill="#8f8f8f" stroke="black" cx="2050" cy="-686" rx="196.075" ry="46.669"/>
<text text-anchor="middle" x="2050" y="-693.4" font-family="Times Roman,serif" font-size="24.00">exp: (pymemoizedSP)</text>
<text text-anchor="middle" x="2050" y="-664.4" font-family="Times Roman,serif" font-size="24.00">value: #f</text>
</g>
<!-- 40312288&#45;&gt;40625424 -->
<g id="edge35" class="edge"><title>40312288&#45;&gt;40625424</title>
<path fill="none" stroke="black" d="M1926.69,-722.176C1896.61,-729.67 1864.35,-736.612 1834,-741 1508.26,-788.092 1421.97,-741.445 1094,-769 1004.32,-776.535 902.686,-790.286 830.332,-800.974"/>
<polygon fill="black" stroke="black" points="829.699,-797.53 820.322,-802.461 830.727,-804.454 829.699,-797.53"/>
</g>
<!-- 40428944 -->
<g id="node23" class="node"><title>40428944</title>
<ellipse fill="#8f8f8f" stroke="black" cx="2098" cy="-556" rx="99.9096" ry="26.163"/>
<text text-anchor="middle" x="2098" y="-548.9" font-family="Times Roman,serif" font-size="24.00">request: []</text>
</g>
<!-- 40428944&#45;&gt;40312288 -->
<g id="edge25" class="edge"><title>40428944&#45;&gt;40312288</title>
<path fill="none" stroke="black" d="M2088.4,-581.995C2083.32,-595.746 2076.88,-613.192 2070.73,-629.848"/>
<polygon fill="black" stroke="black" points="2067.34,-628.937 2067.16,-639.53 2073.91,-631.362 2067.34,-628.937"/>
</g>
<!-- 40500112&#45;&gt;40312288 -->
<g id="edge19" class="edge"><title>40500112&#45;&gt;40312288</title>
<path fill="none" stroke="black" d="M1997.35,-446.458C1993.98,-452.075 1991.07,-457.971 1989,-464 1968.95,-522.434 1969.75,-544.298 1989,-603 1992.25,-612.915 1997.19,-622.623 2002.88,-631.702"/>
<polygon fill="black" stroke="black" points="2000.08,-633.812 2008.53,-640.2 2005.91,-629.936 2000.08,-633.812"/>
</g>
<!-- 40500112&#45;&gt;40428944 -->
<g id="edge21" class="edge"><title>40500112&#45;&gt;40428944</title>
<path fill="none" stroke="black" d="M2056,-447.505C2065.04,-470.859 2075.82,-498.707 2084.2,-520.343"/>
<polygon fill="black" stroke="black" points="2080.99,-521.746 2087.86,-529.808 2087.52,-519.219 2080.99,-521.746"/>
</g>
<!-- 41073312 -->
<g id="node26" class="node"><title>41073312</title>
<ellipse fill="#8f8f8f" stroke="black" cx="2466" cy="-686" rx="196.075" ry="46.669"/>
<text text-anchor="middle" x="2466" y="-693.4" font-family="Times Roman,serif" font-size="24.00">exp: (pymemoizedSP)</text>
<text text-anchor="middle" x="2466" y="-664.4" font-family="Times Roman,serif" font-size="24.00">value: #t</text>
</g>
<!-- 41073312&#45;&gt;40200160 -->
<g id="edge17" class="edge"><title>41073312&#45;&gt;40200160</title>
<path fill="none" stroke="black" d="M2342.45,-722.209C2314.85,-729.307 2285.58,-736.069 2258,-741 2014.42,-784.554 1723.44,-804.009 1573.8,-811.673"/>
<polygon fill="black" stroke="black" points="1573.52,-808.182 1563.71,-812.182 1573.87,-815.173 1573.52,-808.182"/>
</g>
<!-- 41022112 -->
<g id="node27" class="node"><title>41022112</title>
<ellipse fill="#8f8f8f" stroke="black" cx="2514" cy="-556" rx="99.9096" ry="26.163"/>
<text text-anchor="middle" x="2514" y="-548.9" font-family="Times Roman,serif" font-size="24.00">request: []</text>
</g>
<!-- 41022112&#45;&gt;41073312 -->
<g id="edge43" class="edge"><title>41022112&#45;&gt;41073312</title>
<path fill="none" stroke="black" d="M2504.4,-581.995C2499.32,-595.746 2492.88,-613.192 2486.73,-629.848"/>
<polygon fill="black" stroke="black" points="2483.34,-628.937 2483.16,-639.53 2489.91,-631.362 2483.34,-628.937"/>
</g>
<!-- 41109488&#45;&gt;41073312 -->
<g id="edge37" class="edge"><title>41109488&#45;&gt;41073312</title>
<path fill="none" stroke="black" d="M2413.35,-446.458C2409.98,-452.075 2407.07,-457.971 2405,-464 2384.95,-522.434 2385.75,-544.298 2405,-603 2408.25,-612.915 2413.19,-622.623 2418.88,-631.702"/>
<polygon fill="black" stroke="black" points="2416.08,-633.812 2424.53,-640.2 2421.91,-629.936 2416.08,-633.812"/>
</g>
<!-- 41109488&#45;&gt;41022112 -->
<g id="edge39" class="edge"><title>41109488&#45;&gt;41022112</title>
<path fill="none" stroke="black" d="M2472,-447.505C2481.04,-470.859 2491.82,-498.707 2500.2,-520.343"/>
<polygon fill="black" stroke="black" points="2496.99,-521.746 2503.86,-529.808 2503.52,-519.219 2496.99,-521.746"/>
</g>
<!-- 39629792 -->
<g id="node49" class="node"><title>39629792</title>
<ellipse fill="none" stroke="black" cx="949" cy="-19" rx="62.9325" ry="18.3848"/>
<text text-anchor="middle" x="949" y="-15.4" font-family="Times Roman,serif" font-size="14.00">39629792</text>
</g>
<!-- 39629792&#45;&gt;41211152 -->
<g id="edge49" class="edge"><title>39629792&#45;&gt;41211152</title>
<path fill="none" stroke="black" d="M949,-37.8129C949,-59.2806 949,-95.4093 949,-126.255"/>
<polygon fill="black" stroke="black" points="945.5,-126.484 949,-136.484 952.5,-126.484 945.5,-126.484"/>
</g>
<!-- 37999648 -->
<g id="node53" class="node"><title>37999648</title>
<ellipse fill="none" stroke="black" cx="1653" cy="-19" rx="62.9325" ry="18.3848"/>
<text text-anchor="middle" x="1653" y="-15.4" font-family="Times Roman,serif" font-size="14.00">37999648</text>
</g>
<!-- 37999648&#45;&gt;41662000 -->
<g id="edge55" class="edge"><title>37999648&#45;&gt;41662000</title>
<path fill="none" stroke="black" d="M1653,-37.8129C1653,-59.2806 1653,-95.4093 1653,-126.255"/>
<polygon fill="black" stroke="black" points="1649.5,-126.484 1653,-136.484 1656.5,-126.484 1649.5,-126.484"/>
</g>
</g>
</svg>
