<?xml version="1.0" encoding="UTF-8" standalone="no"?>
<!DOCTYPE svg PUBLIC "-//W3C//DTD SVG 1.1//EN"
 "http://www.w3.org/Graphics/SVG/1.1/DTD/svg11.dtd">
<!-- Generated by graphviz version 2.26.3 (20100126.1600)
 -->
<!-- Title: _anonymous_0 Pages: 1 -->
<svg width="548pt" height="812pt"
 viewBox="0.00 0.00 548.00 812.00" xmlns="http://www.w3.org/2000/svg" xmlns:xlink="http://www.w3.org/1999/xlink">
<g id="graph1" class="graph" transform="scale(1 1) rotate(0) translate(4 808)">
<title>_anonymous_0</title>
<polygon fill="white" stroke="white" points="-4,5 -4,-808 545,-808 545,5 -4,5"/>
<g id="graph2" class="cluster"><title>cluster1</title>
<polygon fill="none" stroke="black" points="8,-8 8,-796 310,-796 310,-8 8,-8"/>
</g>
<g id="graph3" class="cluster"><title>cluster2</title>
<polygon fill="none" stroke="black" points="52,-16 52,-212 266,-212 266,-16 52,-16"/>
</g>
<g id="graph4" class="cluster"><title>cluster3</title>
<polygon fill="none" stroke="black" points="16,-232 16,-572 302,-572 302,-232 16,-232"/>
</g>
<g id="graph5" class="cluster"><title>cluster4</title>
<polygon fill="none" stroke="black" points="75,-592 75,-788 289,-788 289,-592 75,-592"/>
</g>
<g id="graph6" class="cluster"><title>cluster5</title>
<polygon fill="none" stroke="black" points="318,-304 318,-500 532,-500 532,-304 318,-304"/>
</g>
<!-- 60032512 -->
<g id="node3" class="node"><title>60032512</title>
<ellipse fill="dodgerblue" stroke="black" cx="174" cy="-186" rx="27" ry="18"/>
</g>
<!-- 58846304 -->
<g id="node15" class="node"><title>58846304</title>
<ellipse fill="khaki" stroke="black" cx="51" cy="-258" rx="27" ry="18"/>
</g>
<!-- 60032512&#45;&gt;58846304 -->
<g id="edge23" class="edge"><title>60032512&#45;&gt;58846304</title>
<path fill="none" stroke="black" d="M152.081,-196.528C134.2,-205.366 108.479,-218.656 87,-232 83.7994,-233.989 80.5087,-236.165 77.2789,-238.386"/>
<polygon fill="black" stroke="black" points="75.1123,-235.632 68.9759,-244.269 79.159,-241.344 75.1123,-235.632"/>
</g>
<!-- 59480000 -->
<g id="node29" class="node"><title>59480000</title>
<ellipse fill="khaki" stroke="black" cx="425" cy="-330" rx="27" ry="18"/>
</g>
<!-- 60032512&#45;&gt;59480000 -->
<g id="edge53" class="edge"><title>60032512&#45;&gt;59480000</title>
<path fill="none" stroke="black" d="M199.7,-192.061C227.162,-199.185 271.412,-212.556 306,-232 343.148,-252.883 380.121,-285.7 402.766,-307.528"/>
<polygon fill="black" stroke="black" points="400.559,-310.264 410.156,-314.752 405.452,-305.259 400.559,-310.264"/>
</g>
<!-- 59581664 -->
<g id="node4" class="node"><title>59581664</title>
<ellipse fill="#6e8b3d" stroke="black" cx="151" cy="-114" rx="27" ry="18"/>
</g>
<!-- 59581664&#45;&gt;60032512 -->
<g id="edge89" class="edge"><title>59581664&#45;&gt;60032512</title>
<path fill="none" stroke="black" d="M156.685,-131.798C159.256,-139.846 162.353,-149.541 165.213,-158.493"/>
<polygon fill="black" stroke="black" points="161.923,-159.697 168.3,-168.157 168.591,-157.567 161.923,-159.697"/>
</g>
<!-- 60730192 -->
<g id="node5" class="node"><title>60730192</title>
<ellipse fill="khaki" stroke="black" cx="231" cy="-42" rx="27" ry="18"/>
</g>
<!-- 60730192&#45;&gt;60032512 -->
<g id="edge77" class="edge"><title>60730192&#45;&gt;60032512</title>
<path fill="none" stroke="black" d="M224.011,-59.6572C214.225,-84.3798 196.349,-129.539 184.832,-158.636"/>
<polygon fill="black" stroke="black" points="181.473,-157.612 181.046,-168.198 187.981,-160.188 181.473,-157.612"/>
</g>
<!-- 60730192&#45;&gt;59581664 -->
<g id="edge79" class="edge"><title>60730192&#45;&gt;59581664</title>
<path fill="none" stroke="black" d="M214.811,-56.5703C203.317,-66.9149 187.698,-80.9714 174.791,-92.5884"/>
<polygon fill="black" stroke="black" points="172.257,-90.1602 167.165,-99.4514 176.939,-95.3633 172.257,-90.1602"/>
</g>
<!-- 58687760 -->
<g id="node6" class="node"><title>58687760</title>
<ellipse fill="#eead0e" stroke="black" cx="159" cy="-42" rx="27" ry="18"/>
</g>
<!-- 58687760&#45;&gt;60032512 -->
<g id="edge81" class="edge"><title>58687760&#45;&gt;60032512</title>
<path fill="none" stroke="black" d="M170.308,-58.6742C176.578,-68.9456 183.748,-82.6623 187,-96 192.034,-116.642 188.182,-140.455 183.395,-158.4"/>
<polygon fill="black" stroke="black" points="179.972,-157.638 180.53,-168.219 186.691,-159.6 179.972,-157.638"/>
</g>
<!-- 58687760&#45;&gt;59581664 -->
<g id="edge83" class="edge"><title>58687760&#45;&gt;59581664</title>
<path fill="none" stroke="black" d="M156.981,-60.1686C156.126,-67.869 155.108,-77.0257 154.157,-85.5834"/>
<polygon fill="black" stroke="black" points="150.672,-85.2614 153.046,-95.5867 157.629,-86.0344 150.672,-85.2614"/>
</g>
<!-- 59543920 -->
<g id="node7" class="node"><title>59543920</title>
<ellipse fill="#eead0e" stroke="black" cx="87" cy="-42" rx="27" ry="18"/>
</g>
<!-- 59543920&#45;&gt;60032512 -->
<g id="edge85" class="edge"><title>59543920&#45;&gt;60032512</title>
<path fill="none" stroke="black" d="M89.7413,-60.0873C93.2623,-79.1517 100.705,-109.481 115,-132 123.384,-145.207 135.814,-157.247 147.107,-166.59"/>
<polygon fill="black" stroke="black" points="145.044,-169.422 155.054,-172.895 149.395,-163.938 145.044,-169.422"/>
</g>
<!-- 59543920&#45;&gt;59581664 -->
<g id="edge87" class="edge"><title>59543920&#45;&gt;59581664</title>
<path fill="none" stroke="black" d="M100.887,-57.6229C109.525,-67.341 120.789,-80.013 130.45,-90.8809"/>
<polygon fill="black" stroke="black" points="127.88,-93.2587 137.14,-98.4076 133.112,-88.6082 127.88,-93.2587"/>
</g>
<!-- 58863744 -->
<g id="node9" class="node"><title>58863744</title>
<ellipse fill="dodgerblue" stroke="black" cx="182" cy="-546" rx="27" ry="18"/>
</g>
<!-- 59718352 -->
<g id="node23" class="node"><title>59718352</title>
<ellipse fill="khaki" stroke="black" cx="182" cy="-618" rx="27" ry="18"/>
</g>
<!-- 58863744&#45;&gt;59718352 -->
<g id="edge69" class="edge"><title>58863744&#45;&gt;59718352</title>
<path fill="none" stroke="black" d="M182,-564.169C182,-571.869 182,-581.026 182,-589.583"/>
<polygon fill="black" stroke="black" points="178.5,-589.587 182,-599.587 185.5,-589.587 178.5,-589.587"/>
</g>
<!-- 61024240 -->
<g id="node10" class="node"><title>61024240</title>
<ellipse fill="#6e8b3d" stroke="black" cx="169" cy="-474" rx="27" ry="18"/>
</g>
<!-- 61024240&#45;&gt;58863744 -->
<g id="edge39" class="edge"><title>61024240&#45;&gt;58863744</title>
<path fill="none" stroke="black" d="M172.28,-492.169C173.692,-499.988 175.375,-509.308 176.94,-517.978"/>
<polygon fill="black" stroke="black" points="173.544,-518.868 178.766,-528.087 180.433,-517.624 173.544,-518.868"/>
</g>
<!-- 59392624 -->
<g id="node26" class="node"><title>59392624</title>
<ellipse fill="dodgerblue" stroke="black" cx="399" cy="-474" rx="27" ry="18"/>
</g>
<!-- 61024240&#45;&gt;59392624 -->
<g id="edge43" class="edge"><title>61024240&#45;&gt;59392624</title>
<path fill="none" stroke="black" stroke-dasharray="1,5" d="M196.402,-474C251.41,-474 306.418,-474 361.426,-474"/>
<polygon fill="black" stroke="black" points="361.697,-477.5 371.697,-474 361.697,-470.5 361.697,-477.5"/>
</g>
<!-- 58995920 -->
<g id="node11" class="node"><title>58995920</title>
<ellipse fill="khaki" stroke="black" cx="123" cy="-402" rx="27" ry="18"/>
</g>
<!-- 58995920&#45;&gt;58863744 -->
<g id="edge7" class="edge"><title>58995920&#45;&gt;58863744</title>
<path fill="none" stroke="black" d="M121.194,-420.016C119.94,-440.496 120.338,-474.4 133,-500 138.018,-510.145 146.268,-519.206 154.581,-526.548"/>
<polygon fill="black" stroke="black" points="152.521,-529.387 162.466,-533.04 156.97,-523.982 152.521,-529.387"/>
</g>
<!-- 58995920&#45;&gt;61024240 -->
<g id="edge9" class="edge"><title>58995920&#45;&gt;61024240</title>
<path fill="none" stroke="black" d="M133.669,-418.699C139.359,-427.605 146.478,-438.748 152.832,-448.693"/>
<polygon fill="black" stroke="black" points="150.056,-450.849 158.389,-457.391 155.954,-447.08 150.056,-450.849"/>
</g>
<!-- 58799440 -->
<g id="node12" class="node"><title>58799440</title>
<ellipse fill="dodgerblue" stroke="black" cx="51" cy="-402" rx="27" ry="18"/>
</g>
<!-- 58799440&#45;&gt;58863744 -->
<g id="edge11" class="edge"><title>58799440&#45;&gt;58863744</title>
<path fill="none" stroke="black" d="M60.3148,-419.262C72.0056,-439.944 93.518,-474.935 118,-500 128.362,-510.609 141.42,-520.479 153.035,-528.335"/>
<polygon fill="black" stroke="black" points="151.286,-531.373 161.568,-533.929 155.124,-525.519 151.286,-531.373"/>
</g>
<!-- 58799440&#45;&gt;61024240 -->
<g id="edge13" class="edge"><title>58799440&#45;&gt;61024240</title>
<path fill="none" stroke="black" d="M71.0171,-414.214C90.0035,-425.799 118.739,-443.332 140.188,-456.42"/>
<polygon fill="black" stroke="black" points="138.525,-459.505 148.885,-461.726 142.171,-453.53 138.525,-459.505"/>
</g>
<!-- 58598656 -->
<g id="node13" class="node"><title>58598656</title>
<ellipse fill="#6e8b3d" stroke="black" cx="121" cy="-330" rx="27" ry="18"/>
</g>
<!-- 58598656&#45;&gt;58799440 -->
<g id="edge29" class="edge"><title>58598656&#45;&gt;58799440</title>
<path fill="none" stroke="black" d="M106.155,-345.269C96.5029,-355.197 83.749,-368.315 72.9369,-379.436"/>
<polygon fill="black" stroke="black" points="70.2851,-377.143 65.8238,-386.753 75.3041,-382.022 70.2851,-377.143"/>
</g>
<!-- 58682784 -->
<g id="node14" class="node"><title>58682784</title>
<ellipse fill="khaki" stroke="black" cx="123" cy="-258" rx="27" ry="18"/>
</g>
<!-- 58682784&#45;&gt;58799440 -->
<g id="edge15" class="edge"><title>58682784&#45;&gt;58799440</title>
<path fill="none" stroke="black" d="M108.131,-273.147C100.407,-281.661 91.2951,-292.804 85,-304 72.4485,-326.324 63.3499,-354.087 57.7412,-374.358"/>
<polygon fill="black" stroke="black" points="54.3097,-373.644 55.1265,-384.207 61.0753,-375.44 54.3097,-373.644"/>
</g>
<!-- 58682784&#45;&gt;58598656 -->
<g id="edge17" class="edge"><title>58682784&#45;&gt;58598656</title>
<path fill="none" stroke="black" d="M122.495,-276.169C122.281,-283.869 122.027,-293.026 121.789,-301.583"/>
<polygon fill="black" stroke="black" points="118.291,-301.493 121.511,-311.587 125.288,-301.688 118.291,-301.493"/>
</g>
<!-- 58846304&#45;&gt;58799440 -->
<g id="edge19" class="edge"><title>58846304&#45;&gt;58799440</title>
<path fill="none" stroke="black" d="M51,-276.238C51,-300.799 51,-344.753 51,-373.646"/>
<polygon fill="black" stroke="black" points="47.5001,-373.91 51,-383.91 54.5001,-373.91 47.5001,-373.91"/>
</g>
<!-- 58846304&#45;&gt;58598656 -->
<g id="edge21" class="edge"><title>58846304&#45;&gt;58598656</title>
<path fill="none" stroke="black" d="M65.8452,-273.269C75.4971,-283.197 88.251,-296.315 99.0631,-307.436"/>
<polygon fill="black" stroke="black" points="96.6959,-310.022 106.176,-314.753 101.715,-305.143 96.6959,-310.022"/>
</g>
<!-- 59036848 -->
<g id="node16" class="node"><title>59036848</title>
<ellipse fill="#eead0e" stroke="black" cx="195" cy="-258" rx="27" ry="18"/>
</g>
<!-- 59036848&#45;&gt;58799440 -->
<g id="edge25" class="edge"><title>59036848&#45;&gt;58799440</title>
<path fill="none" stroke="black" d="M191.325,-275.908C186.466,-295.667 176.183,-327.391 157,-348 156.279,-348.775 112.963,-370.727 81.933,-386.399"/>
<polygon fill="black" stroke="black" points="80.1078,-383.4 72.7583,-391.031 83.2626,-389.649 80.1078,-383.4"/>
</g>
<!-- 59036848&#45;&gt;58598656 -->
<g id="edge27" class="edge"><title>59036848&#45;&gt;58598656</title>
<path fill="none" stroke="black" d="M179.667,-272.918C169.249,-283.055 155.292,-296.635 143.605,-308.006"/>
<polygon fill="black" stroke="black" points="141.04,-305.619 136.313,-315.101 145.921,-310.636 141.04,-305.619"/>
</g>
<!-- 58570656 -->
<g id="node17" class="node"><title>58570656</title>
<ellipse fill="#eead0e" stroke="black" cx="267" cy="-402" rx="27" ry="18"/>
</g>
<!-- 58570656&#45;&gt;58863744 -->
<g id="edge31" class="edge"><title>58570656&#45;&gt;58863744</title>
<path fill="none" stroke="black" d="M257.801,-419.194C247.143,-438.919 228.882,-472.132 212,-500 207.857,-506.84 203.208,-514.136 198.83,-520.854"/>
<polygon fill="black" stroke="black" points="195.673,-519.284 193.1,-529.562 201.521,-523.132 195.673,-519.284"/>
</g>
<!-- 58570656&#45;&gt;61024240 -->
<g id="edge33" class="edge"><title>58570656&#45;&gt;61024240</title>
<path fill="none" stroke="black" d="M248.567,-415.543C233.647,-426.504 212.431,-442.091 195.659,-454.414"/>
<polygon fill="black" stroke="black" points="193.337,-451.777 187.35,-460.518 197.482,-457.418 193.337,-451.777"/>
</g>
<!-- 59044160 -->
<g id="node18" class="node"><title>59044160</title>
<ellipse fill="#eead0e" stroke="black" cx="195" cy="-402" rx="27" ry="18"/>
</g>
<!-- 59044160&#45;&gt;58863744 -->
<g id="edge35" class="edge"><title>59044160&#45;&gt;58863744</title>
<path fill="none" stroke="black" d="M200.35,-419.935C205.455,-439.764 211.483,-472.536 205,-500 203.374,-506.889 200.549,-513.924 197.424,-520.352"/>
<polygon fill="black" stroke="black" points="194.3,-518.771 192.735,-529.249 200.493,-522.034 194.3,-518.771"/>
</g>
<!-- 59044160&#45;&gt;61024240 -->
<g id="edge37" class="edge"><title>59044160&#45;&gt;61024240</title>
<path fill="none" stroke="black" d="M188.573,-419.798C185.613,-427.994 182.037,-437.898 178.755,-446.985"/>
<polygon fill="black" stroke="black" points="175.458,-445.813 175.353,-456.407 182.041,-448.19 175.458,-445.813"/>
</g>
<!-- 59642864 -->
<g id="node20" class="node"><title>59642864</title>
<ellipse fill="#8b008b" stroke="black" cx="197" cy="-762" rx="27" ry="18"/>
</g>
<!-- 59605120 -->
<g id="node21" class="node"><title>59605120</title>
<ellipse fill="#6e8b3d" stroke="black" cx="174" cy="-690" rx="27" ry="18"/>
</g>
<!-- 59605120&#45;&gt;59642864 -->
<g id="edge75" class="edge"><title>59605120&#45;&gt;59642864</title>
<path fill="none" stroke="black" d="M179.685,-707.798C182.256,-715.846 185.353,-725.541 188.213,-734.493"/>
<polygon fill="black" stroke="black" points="184.923,-735.697 191.3,-744.157 191.591,-733.567 184.923,-735.697"/>
</g>
<!-- 59680608 -->
<g id="node22" class="node"><title>59680608</title>
<ellipse fill="khaki" stroke="black" cx="254" cy="-618" rx="27" ry="18"/>
</g>
<!-- 59680608&#45;&gt;59642864 -->
<g id="edge61" class="edge"><title>59680608&#45;&gt;59642864</title>
<path fill="none" stroke="black" d="M247.011,-635.657C237.225,-660.38 219.349,-705.539 207.832,-734.636"/>
<polygon fill="black" stroke="black" points="204.473,-733.612 204.046,-744.198 210.981,-736.188 204.473,-733.612"/>
</g>
<!-- 59680608&#45;&gt;59605120 -->
<g id="edge63" class="edge"><title>59680608&#45;&gt;59605120</title>
<path fill="none" stroke="black" d="M237.811,-632.57C226.317,-642.915 210.698,-656.971 197.791,-668.588"/>
<polygon fill="black" stroke="black" points="195.257,-666.16 190.165,-675.451 199.939,-671.363 195.257,-666.16"/>
</g>
<!-- 59718352&#45;&gt;59642864 -->
<g id="edge65" class="edge"><title>59718352&#45;&gt;59642864</title>
<path fill="none" stroke="black" d="M193.308,-634.674C199.578,-644.946 206.748,-658.662 210,-672 215.034,-692.642 211.182,-716.455 206.395,-734.4"/>
<polygon fill="black" stroke="black" points="202.972,-733.638 203.53,-744.219 209.691,-735.6 202.972,-733.638"/>
</g>
<!-- 59718352&#45;&gt;59605120 -->
<g id="edge67" class="edge"><title>59718352&#45;&gt;59605120</title>
<path fill="none" stroke="black" d="M179.981,-636.169C179.126,-643.869 178.108,-653.026 177.157,-661.583"/>
<polygon fill="black" stroke="black" points="173.672,-661.261 176.046,-671.587 180.629,-662.034 173.672,-661.261"/>
</g>
<!-- 59756096 -->
<g id="node24" class="node"><title>59756096</title>
<ellipse fill="#eead0e" stroke="black" cx="110" cy="-618" rx="27" ry="18"/>
</g>
<!-- 59756096&#45;&gt;59642864 -->
<g id="edge71" class="edge"><title>59756096&#45;&gt;59642864</title>
<path fill="none" stroke="black" d="M112.741,-636.087C116.262,-655.152 123.705,-685.481 138,-708 146.384,-721.207 158.814,-733.247 170.107,-742.59"/>
<polygon fill="black" stroke="black" points="168.044,-745.422 178.054,-748.895 172.395,-739.938 168.044,-745.422"/>
</g>
<!-- 59756096&#45;&gt;59605120 -->
<g id="edge73" class="edge"><title>59756096&#45;&gt;59605120</title>
<path fill="none" stroke="black" d="M123.887,-633.623C132.525,-643.341 143.789,-656.013 153.45,-666.881"/>
<polygon fill="black" stroke="black" points="150.88,-669.259 160.14,-674.408 156.112,-664.608 150.88,-669.259"/>
</g>
<!-- 59392624&#45;&gt;58863744 -->
<g id="edge41" class="edge"><title>59392624&#45;&gt;58863744</title>
<path fill="none" stroke="black" d="M374.529,-482.119C335.762,-494.982 260.116,-520.081 216.067,-534.697"/>
<polygon fill="black" stroke="black" points="214.77,-531.439 206.381,-537.91 216.975,-538.083 214.77,-531.439"/>
</g>
<!-- 59356448 -->
<g id="node27" class="node"><title>59356448</title>
<ellipse fill="#6e8b3d" stroke="black" cx="399" cy="-402" rx="27" ry="18"/>
</g>
<!-- 59356448&#45;&gt;59392624 -->
<g id="edge59" class="edge"><title>59356448&#45;&gt;59392624</title>
<path fill="none" stroke="black" d="M399,-420.169C399,-427.869 399,-437.026 399,-445.583"/>
<polygon fill="black" stroke="black" points="395.5,-445.587 399,-455.587 402.5,-445.587 395.5,-445.587"/>
</g>
<!-- 59443824 -->
<g id="node28" class="node"><title>59443824</title>
<ellipse fill="khaki" stroke="black" cx="497" cy="-330" rx="27" ry="18"/>
</g>
<!-- 59443824&#45;&gt;59392624 -->
<g id="edge45" class="edge"><title>59443824&#45;&gt;59392624</title>
<path fill="none" stroke="black" d="M487.466,-346.983C476.946,-365.378 459.216,-395.394 442,-420 434.846,-430.224 426.398,-441.065 418.892,-450.329"/>
<polygon fill="black" stroke="black" points="415.964,-448.38 412.328,-458.331 421.376,-452.819 415.964,-448.38"/>
</g>
<!-- 59443824&#45;&gt;59356448 -->
<g id="edge47" class="edge"><title>59443824&#45;&gt;59356448</title>
<path fill="none" stroke="black" d="M478.567,-343.543C463.647,-354.504 442.431,-370.091 425.659,-382.414"/>
<polygon fill="black" stroke="black" points="423.337,-379.777 417.35,-388.518 427.482,-385.418 423.337,-379.777"/>
</g>
<!-- 59480000&#45;&gt;59392624 -->
<g id="edge49" class="edge"><title>59480000&#45;&gt;59392624</title>
<path fill="none" stroke="black" d="M431.04,-347.633C436.415,-366.059 442.38,-395.625 435,-420 431.734,-430.787 425.524,-441.389 419.169,-450.304"/>
<polygon fill="black" stroke="black" points="416.372,-448.2 413.123,-458.284 421.951,-452.427 416.372,-448.2"/>
</g>
<!-- 59480000&#45;&gt;59356448 -->
<g id="edge51" class="edge"><title>59480000&#45;&gt;59356448</title>
<path fill="none" stroke="black" d="M418.573,-347.798C415.613,-355.994 412.037,-365.898 408.755,-374.985"/>
<polygon fill="black" stroke="black" points="405.458,-373.813 405.353,-384.407 412.041,-376.19 405.458,-373.813"/>
</g>
<!-- 59531200 -->
<g id="node30" class="node"><title>59531200</title>
<ellipse fill="#eead0e" stroke="black" cx="353" cy="-330" rx="27" ry="18"/>
</g>
<!-- 59531200&#45;&gt;59392624 -->
<g id="edge55" class="edge"><title>59531200&#45;&gt;59392624</title>
<path fill="none" stroke="black" d="M352.53,-348.158C352.615,-366.752 354.337,-396.218 363,-420 366.818,-430.481 373.067,-440.931 379.295,-449.807"/>
<polygon fill="black" stroke="black" points="376.668,-452.14 385.426,-458.101 382.297,-447.979 376.668,-452.14"/>
</g>
<!-- 59531200&#45;&gt;59356448 -->
<g id="edge57" class="edge"><title>59531200&#45;&gt;59356448</title>
<path fill="none" stroke="black" d="M363.669,-346.699C369.359,-355.605 376.478,-366.748 382.832,-376.693"/>
<polygon fill="black" stroke="black" points="380.056,-378.849 388.389,-385.391 385.954,-375.08 380.056,-378.849"/>
</g>
</g>
</svg>
