<?xml version="1.0" encoding="UTF-8" standalone="no"?>
<!DOCTYPE svg PUBLIC "-//W3C//DTD SVG 1.1//EN"
 "http://www.w3.org/Graphics/SVG/1.1/DTD/svg11.dtd">
<!-- Generated by graphviz version 2.26.3 (20100126.1600)
 -->
<!-- Title: _anonymous_0 Pages: 1 -->
<svg width="2748pt" height="1392pt"
 viewBox="0.00 0.00 2748.00 1392.00" xmlns="http://www.w3.org/2000/svg" xmlns:xlink="http://www.w3.org/1999/xlink">
<g id="graph1" class="graph" transform="scale(1 1) rotate(0) translate(4 1388)">
<title>_anonymous_0</title>
<polygon fill="white" stroke="white" points="-4,5 -4,-1388 2745,-1388 2745,5 -4,5"/>
<!-- 60032512 -->
<g id="node3" class="node"><title>60032512</title>
<ellipse fill="#8f8f8f" stroke="black" cx="1136" cy="-339" rx="300.02" ry="46.669"/>
<text text-anchor="middle" x="1136" y="-346.4" font-family="Times Roman,serif" font-size="24.00">exp: (gamma 1.000000 1.000000)</text>
<text text-anchor="middle" x="1136" y="-317.4" font-family="Times Roman,serif" font-size="24.00">value: 2.690489</text>
</g>
<!-- 58846304 -->
<g id="node15" class="node"><title>58846304</title>
<ellipse fill="#8f8f8f" stroke="black" cx="701" cy="-469" rx="149.2" ry="46.669"/>
<text text-anchor="middle" x="701" y="-476.4" font-family="Times Roman,serif" font-size="24.00">exp: x</text>
<text text-anchor="middle" x="701" y="-447.4" font-family="Times Roman,serif" font-size="24.00">value: 2.690489</text>
</g>
<!-- 60032512&#45;&gt;58846304 -->
<g id="edge27" class="edge"><title>60032512&#45;&gt;58846304</title>
<path fill="none" stroke="black" d="M997.766,-380.311C940.15,-397.53 873.937,-417.318 818.694,-433.827"/>
<polygon fill="black" stroke="black" points="817.445,-430.547 808.866,-436.764 819.449,-437.254 817.445,-430.547"/>
</g>
<!-- 59480000 -->
<g id="node29" class="node"><title>59480000</title>
<ellipse fill="#8f8f8f" stroke="black" cx="2065" cy="-599" rx="149.2" ry="46.669"/>
<text text-anchor="middle" x="2065" y="-606.4" font-family="Times Roman,serif" font-size="24.00">exp: x</text>
<text text-anchor="middle" x="2065" y="-577.4" font-family="Times Roman,serif" font-size="24.00">value: 2.690489</text>
</g>
<!-- 60032512&#45;&gt;59480000 -->
<g id="edge59" class="edge"><title>60032512&#45;&gt;59480000</title>
<path fill="none" stroke="black" d="M1285.49,-379.367C1441,-421.577 1691.42,-490.164 1907,-552 1920.17,-555.778 1933.94,-559.787 1947.63,-563.808"/>
<polygon fill="black" stroke="black" points="1946.99,-567.268 1957.57,-566.735 1948.96,-560.553 1946.99,-567.268"/>
</g>
<!-- 59581664 -->
<g id="node4" class="node"><title>59581664</title>
<ellipse fill="#8f8f8f" stroke="black" cx="1072" cy="-230" rx="99.9096" ry="26.163"/>
<text text-anchor="middle" x="1072" y="-222.9" font-family="Times Roman,serif" font-size="24.00">request: []</text>
</g>
<!-- 59581664&#45;&gt;60032512 -->
<g id="edge99" class="edge"><title>59581664&#45;&gt;60032512</title>
<path fill="none" stroke="black" d="M1087.17,-255.831C1092.09,-264.218 1097.76,-273.871 1103.45,-283.564"/>
<polygon fill="black" stroke="black" points="1100.58,-285.589 1108.66,-292.441 1106.62,-282.045 1100.58,-285.589"/>
</g>
<!-- 60730192 -->
<g id="node5" class="node"><title>60730192</title>
<ellipse fill="#8f8f8f" stroke="black" cx="809" cy="-121" rx="159.806" ry="46.669"/>
<text text-anchor="middle" x="809" y="-128.4" font-family="Times Roman,serif" font-size="24.00">exp: gamma</text>
<text text-anchor="middle" x="809" y="-99.4" font-family="Times Roman,serif" font-size="24.00">value: sp:gamma</text>
</g>
<!-- 60730192&#45;&gt;60032512 -->
<g id="edge85" class="edge"><title>60730192&#45;&gt;60032512</title>
<path fill="none" stroke="black" d="M853.501,-165.872C882.911,-193.992 923.241,-229.749 963,-256 981.889,-268.471 1002.94,-280.169 1023.67,-290.626"/>
<polygon fill="black" stroke="black" points="1022.33,-293.869 1032.84,-295.185 1025.45,-287.6 1022.33,-293.869"/>
</g>
<!-- 60730192&#45;&gt;59581664 -->
<g id="edge87" class="edge"><title>60730192&#45;&gt;59581664</title>
<path fill="none" stroke="black" d="M900.985,-159.123C936.847,-173.986 977.031,-190.64 1009.43,-204.069"/>
<polygon fill="black" stroke="black" points="1008.21,-207.351 1018.79,-207.946 1010.89,-200.884 1008.21,-207.351"/>
</g>
<!-- 58687760 -->
<g id="node6" class="node"><title>58687760</title>
<ellipse fill="#8f8f8f" stroke="black" cx="1136" cy="-121" rx="149.2" ry="46.669"/>
<text text-anchor="middle" x="1136" y="-128.4" font-family="Times Roman,serif" font-size="24.00">exp: 1.000000</text>
<text text-anchor="middle" x="1136" y="-99.4" font-family="Times Roman,serif" font-size="24.00">value: 1.000000</text>
</g>
<!-- 58687760&#45;&gt;60032512 -->
<g id="edge91" class="edge"><title>58687760&#45;&gt;60032512</title>
<path fill="none" stroke="black" d="M1165.99,-166.726C1172.17,-178.418 1177.78,-191.289 1181,-204 1186.68,-226.402 1186.68,-233.598 1181,-256 1178.67,-265.198 1175.09,-274.48 1170.95,-283.338"/>
<polygon fill="black" stroke="black" points="1167.76,-281.881 1166.45,-292.395 1174.03,-284.991 1167.76,-281.881"/>
</g>
<!-- 58687760&#45;&gt;59581664 -->
<g id="edge93" class="edge"><title>58687760&#45;&gt;59581664</title>
<path fill="none" stroke="black" d="M1109.04,-166.91C1103.46,-176.423 1097.66,-186.293 1092.36,-195.324"/>
<polygon fill="black" stroke="black" points="1089.29,-193.634 1087.25,-204.029 1095.33,-197.178 1089.29,-193.634"/>
</g>
<!-- 59543920 -->
<g id="node7" class="node"><title>59543920</title>
<ellipse fill="#8f8f8f" stroke="black" cx="1452" cy="-121" rx="149.2" ry="46.669"/>
<text text-anchor="middle" x="1452" y="-128.4" font-family="Times Roman,serif" font-size="24.00">exp: 1.000000</text>
<text text-anchor="middle" x="1452" y="-99.4" font-family="Times Roman,serif" font-size="24.00">value: 1.000000</text>
</g>
<!-- 59543920&#45;&gt;60032512 -->
<g id="edge95" class="edge"><title>59543920&#45;&gt;60032512</title>
<path fill="none" stroke="black" d="M1390.32,-163.55C1338.73,-199.144 1264.97,-250.024 1210.17,-287.835"/>
<polygon fill="black" stroke="black" points="1208.12,-284.991 1201.88,-293.551 1212.1,-290.753 1208.12,-284.991"/>
</g>
<!-- 59543920&#45;&gt;59581664 -->
<g id="edge97" class="edge"><title>59543920&#45;&gt;59581664</title>
<path fill="none" stroke="black" d="M1344.56,-153.224C1327.65,-158.218 1310.36,-163.282 1294,-168 1246.56,-181.68 1193.27,-196.576 1150.8,-208.338"/>
<polygon fill="black" stroke="black" points="1149.79,-204.988 1141.08,-211.028 1151.65,-211.734 1149.79,-204.988"/>
</g>
<!-- 58863744 -->
<g id="node9" class="node"><title>58863744</title>
<ellipse fill="gold" stroke="black" cx="1731" cy="-989" rx="789.838" ry="46.669"/>
<text text-anchor="middle" x="1731" y="-996.4" font-family="Times Roman,serif" font-size="24.00">exp: (branch_exp (lt x 1.000000) (quote (gamma x 2.000000)) (quote (normal x 2.000000)))</text>
<text text-anchor="middle" x="1731" y="-967.4" font-family="Times Roman,serif" font-size="24.00">value: </text>
</g>
<!-- 59718352 -->
<g id="node23" class="node"><title>59718352</title>
<ellipse fill="gold" stroke="black" cx="2029" cy="-1119" rx="68.7979" ry="46.669"/>
<text text-anchor="middle" x="2029" y="-1126.4" font-family="Times Roman,serif" font-size="24.00">exp: y</text>
<text text-anchor="middle" x="2029" y="-1097.4" font-family="Times Roman,serif" font-size="24.00">value: </text>
</g>
<!-- 58863744&#45;&gt;59718352 -->
<g id="edge77" class="edge"><title>58863744&#45;&gt;59718352</title>
<path fill="none" stroke="black" d="M1836.9,-1035.2C1878.21,-1053.22 1924.36,-1073.35 1961.07,-1089.36"/>
<polygon fill="black" stroke="black" points="1960.11,-1092.76 1970.67,-1093.55 1962.91,-1086.35 1960.11,-1092.76"/>
</g>
<!-- 61024240 -->
<g id="node10" class="node"><title>61024240</title>
<ellipse fill="#8f8f8f" stroke="black" cx="1252" cy="-859" rx="451.134" ry="26.163"/>
<text text-anchor="middle" x="1252" y="-851.9" font-family="Times Roman,serif" font-size="24.00">request: [(61024240, (normal x 2.000000), &lt;env&gt;)]</text>
</g>
<!-- 61024240&#45;&gt;58863744 -->
<g id="edge43" class="edge"><title>61024240&#45;&gt;58863744</title>
<path fill="none" stroke="black" d="M1345.78,-884.451C1404.83,-900.477 1482.94,-921.677 1553.38,-940.795"/>
<polygon fill="black" stroke="black" points="1552.7,-944.237 1563.27,-943.478 1554.54,-937.481 1552.7,-944.237"/>
</g>
<!-- 59392624 -->
<g id="node26" class="node"><title>59392624</title>
<ellipse fill="firebrick" stroke="black" cx="2085" cy="-859" rx="225.775" ry="46.669"/>
<text text-anchor="middle" x="2085" y="-866.4" font-family="Times Roman,serif" font-size="24.00">exp: (normal x 2.000000)</text>
<text text-anchor="middle" x="2085" y="-837.4" font-family="Times Roman,serif" font-size="24.00">value: </text>
</g>
<!-- 61024240&#45;&gt;59392624 -->
<g id="edge47" class="edge"><title>61024240&#45;&gt;59392624</title>
<path fill="none" stroke="black" stroke-dasharray="1,5" d="M1703.07,-859C1751.69,-859 1800.31,-859 1848.93,-859"/>
<polygon fill="black" stroke="black" points="1848.98,-862.5 1858.98,-859 1848.98,-855.5 1848.98,-862.5"/>
</g>
<!-- 58995920 -->
<g id="node11" class="node"><title>58995920</title>
<ellipse fill="#8f8f8f" stroke="black" cx="1261" cy="-729" rx="154.149" ry="46.669"/>
<text text-anchor="middle" x="1261" y="-736.4" font-family="Times Roman,serif" font-size="24.00">exp: branch_exp</text>
<text text-anchor="middle" x="1261" y="-707.4" font-family="Times Roman,serif" font-size="24.00">value: sp:branch</text>
</g>
<!-- 58995920&#45;&gt;58863744 -->
<g id="edge7" class="edge"><title>58995920&#45;&gt;58863744</title>
<path fill="none" stroke="black" d="M1368.25,-762.497C1386.72,-767.526 1405.82,-772.268 1424,-776 1487.18,-788.974 1666.79,-765.997 1712,-812 1742.42,-842.959 1745.18,-893.224 1741.48,-932.293"/>
<polygon fill="black" stroke="black" points="1737.97,-932.151 1740.34,-942.477 1744.93,-932.925 1737.97,-932.151"/>
</g>
<!-- 58995920&#45;&gt;61024240 -->
<g id="edge9" class="edge"><title>58995920&#45;&gt;61024240</title>
<path fill="none" stroke="black" d="M1257.78,-775.566C1256.7,-791.043 1255.53,-808.04 1254.52,-822.632"/>
<polygon fill="black" stroke="black" points="1251.01,-822.558 1253.82,-832.776 1258,-823.041 1251.01,-822.558"/>
</g>
<!-- 58799440 -->
<g id="node12" class="node"><title>58799440</title>
<ellipse fill="#8f8f8f" stroke="black" cx="297" cy="-729" rx="178.191" ry="46.669"/>
<text text-anchor="middle" x="297" y="-736.4" font-family="Times Roman,serif" font-size="24.00">exp: (lt x 1.000000)</text>
<text text-anchor="middle" x="297" y="-707.4" font-family="Times Roman,serif" font-size="24.00">value: #f</text>
</g>
<!-- 58799440&#45;&gt;58863744 -->
<g id="edge13" class="edge"><title>58799440&#45;&gt;58863744</title>
<path fill="none" stroke="black" d="M382.982,-769.871C475.019,-811.631 626.412,-874.661 764,-906 845.196,-924.494 1007.85,-941.081 1176.96,-954.475"/>
<polygon fill="black" stroke="black" points="1176.82,-957.976 1187.07,-955.272 1177.37,-950.997 1176.82,-957.976"/>
</g>
<!-- 58799440&#45;&gt;61024240 -->
<g id="edge15" class="edge"><title>58799440&#45;&gt;61024240</title>
<path fill="none" stroke="black" d="M420.453,-762.592C441.546,-767.594 463.322,-772.303 484,-776 641.929,-804.24 819.965,-824.212 964.83,-837.476"/>
<polygon fill="black" stroke="black" points="964.926,-840.999 975.202,-838.419 965.56,-834.028 964.926,-840.999"/>
</g>
<!-- 58598656 -->
<g id="node13" class="node"><title>58598656</title>
<ellipse fill="#8f8f8f" stroke="black" cx="425" cy="-599" rx="99.9096" ry="26.163"/>
<text text-anchor="middle" x="425" y="-591.9" font-family="Times Roman,serif" font-size="24.00">request: []</text>
</g>
<!-- 58598656&#45;&gt;58799440 -->
<g id="edge33" class="edge"><title>58598656&#45;&gt;58799440</title>
<path fill="none" stroke="black" d="M400.016,-624.374C385.438,-639.18 366.493,-658.422 348.831,-676.359"/>
<polygon fill="black" stroke="black" points="345.878,-674.369 341.356,-683.951 350.866,-679.28 345.878,-674.369"/>
</g>
<!-- 58682784 -->
<g id="node14" class="node"><title>58682784</title>
<ellipse fill="#8f8f8f" stroke="black" cx="425" cy="-469" rx="109.101" ry="46.669"/>
<text text-anchor="middle" x="425" y="-476.4" font-family="Times Roman,serif" font-size="24.00">exp: lt</text>
<text text-anchor="middle" x="425" y="-447.4" font-family="Times Roman,serif" font-size="24.00">value: sp:&lt;</text>
</g>
<!-- 58682784&#45;&gt;58799440 -->
<g id="edge17" class="edge"><title>58682784&#45;&gt;58799440</title>
<path fill="none" stroke="black" d="M358.784,-505.978C342.191,-518.439 326.223,-533.872 316,-552 295.463,-588.418 291.326,-635.774 291.99,-672.338"/>
<polygon fill="black" stroke="black" points="288.492,-672.458 292.295,-682.346 295.489,-672.244 288.492,-672.458"/>
</g>
<!-- 58682784&#45;&gt;58598656 -->
<g id="edge19" class="edge"><title>58682784&#45;&gt;58598656</title>
<path fill="none" stroke="black" d="M425,-515.566C425,-531.043 425,-548.04 425,-562.632"/>
<polygon fill="black" stroke="black" points="421.5,-562.776 425,-572.776 428.5,-562.776 421.5,-562.776"/>
</g>
<!-- 58846304&#45;&gt;58799440 -->
<g id="edge23" class="edge"><title>58846304&#45;&gt;58799440</title>
<path fill="none" stroke="black" d="M668.284,-514.425C637.603,-554.092 588.399,-610.696 534,-646 503.832,-665.579 468.497,-681.158 434.457,-693.282"/>
<polygon fill="black" stroke="black" points="433.189,-690.017 424.896,-696.611 435.491,-696.628 433.189,-690.017"/>
</g>
<!-- 58846304&#45;&gt;58598656 -->
<g id="edge25" class="edge"><title>58846304&#45;&gt;58598656</title>
<path fill="none" stroke="black" d="M618.565,-507.828C574.743,-528.469 521.946,-553.337 482.57,-571.884"/>
<polygon fill="black" stroke="black" points="480.926,-568.789 473.37,-576.217 483.908,-575.122 480.926,-568.789"/>
</g>
<!-- 59036848 -->
<g id="node16" class="node"><title>59036848</title>
<ellipse fill="#8f8f8f" stroke="black" cx="149" cy="-469" rx="149.2" ry="46.669"/>
<text text-anchor="middle" x="149" y="-476.4" font-family="Times Roman,serif" font-size="24.00">exp: 1.000000</text>
<text text-anchor="middle" x="149" y="-447.4" font-family="Times Roman,serif" font-size="24.00">value: 1.000000</text>
</g>
<!-- 59036848&#45;&gt;58799440 -->
<g id="edge29" class="edge"><title>59036848&#45;&gt;58799440</title>
<path fill="none" stroke="black" d="M175.119,-514.884C200.378,-559.258 238.68,-626.546 265.59,-673.82"/>
<polygon fill="black" stroke="black" points="262.656,-675.741 270.645,-682.7 268.739,-672.278 262.656,-675.741"/>
</g>
<!-- 59036848&#45;&gt;58598656 -->
<g id="edge31" class="edge"><title>59036848&#45;&gt;58598656</title>
<path fill="none" stroke="black" d="M231.435,-507.828C275.257,-528.469 328.054,-553.337 367.43,-571.884"/>
<polygon fill="black" stroke="black" points="366.092,-575.122 376.63,-576.217 369.074,-568.789 366.092,-575.122"/>
</g>
<!-- 58570656 -->
<g id="node17" class="node"><title>58570656</title>
<ellipse fill="#8f8f8f" stroke="black" cx="791" cy="-729" rx="297.899" ry="46.669"/>
<text text-anchor="middle" x="791" y="-736.4" font-family="Times Roman,serif" font-size="24.00">exp: (quote (gamma x 2.000000))</text>
<text text-anchor="middle" x="791" y="-707.4" font-family="Times Roman,serif" font-size="24.00">value: (gamma x 2.000000)</text>
</g>
<!-- 58570656&#45;&gt;58863744 -->
<g id="edge35" class="edge"><title>58570656&#45;&gt;58863744</title>
<path fill="none" stroke="black" d="M775.793,-775.495C765.979,-815.313 760.258,-871.525 792,-906 815.731,-931.775 928.652,-949.593 1068.44,-961.894"/>
<polygon fill="black" stroke="black" points="1068.28,-965.393 1078.55,-962.77 1068.89,-958.42 1068.28,-965.393"/>
</g>
<!-- 58570656&#45;&gt;61024240 -->
<g id="edge37" class="edge"><title>58570656&#45;&gt;61024240</title>
<path fill="none" stroke="black" d="M935.283,-769.687C1005.48,-789.483 1088.14,-812.793 1151.42,-830.635"/>
<polygon fill="black" stroke="black" points="1150.82,-834.105 1161.4,-833.451 1152.72,-827.368 1150.82,-834.105"/>
</g>
<!-- 59044160 -->
<g id="node18" class="node"><title>59044160</title>
<ellipse fill="#8f8f8f" stroke="black" cx="1726" cy="-729" rx="292.949" ry="46.669"/>
<text text-anchor="middle" x="1726" y="-736.4" font-family="Times Roman,serif" font-size="24.00">exp: (quote (normal x 2.000000))</text>
<text text-anchor="middle" x="1726" y="-707.4" font-family="Times Roman,serif" font-size="24.00">value: (normal x 2.000000)</text>
</g>
<!-- 59044160&#45;&gt;58863744 -->
<g id="edge39" class="edge"><title>59044160&#45;&gt;58863744</title>
<path fill="none" stroke="black" d="M1738.61,-775.65C1741.26,-787.424 1743.66,-800.102 1745,-812 1749.69,-853.514 1748.49,-864.368 1745,-906 1744.29,-914.478 1743.18,-923.393 1741.89,-932.107"/>
<polygon fill="black" stroke="black" points="1738.39,-931.784 1740.3,-942.206 1745.31,-932.871 1738.39,-931.784"/>
</g>
<!-- 59044160&#45;&gt;61024240 -->
<g id="edge41" class="edge"><title>59044160&#45;&gt;61024240</title>
<path fill="none" stroke="black" d="M1578.95,-769.331C1506.29,-789.258 1420.39,-812.816 1354.88,-830.784"/>
<polygon fill="black" stroke="black" points="1353.68,-827.485 1344.96,-833.505 1355.53,-834.236 1353.68,-827.485"/>
</g>
<!-- 59642864 -->
<g id="node20" class="node"><title>59642864</title>
<ellipse fill="#63b8ff" stroke="black" cx="2254" cy="-1337" rx="225.775" ry="46.669"/>
<text text-anchor="middle" x="2254" y="-1344.4" font-family="Times Roman,serif" font-size="24.00">exp: (normal y 5.000000)</text>
<text text-anchor="middle" x="2254" y="-1315.4" font-family="Times Roman,serif" font-size="24.00">value: 10.000000</text>
</g>
<!-- 59605120 -->
<g id="node21" class="node"><title>59605120</title>
<ellipse fill="#63b8ff" stroke="black" cx="2318" cy="-1228" rx="99.9096" ry="26.163"/>
<text text-anchor="middle" x="2318" y="-1220.9" font-family="Times Roman,serif" font-size="24.00">request: []</text>
</g>
<!-- 59605120&#45;&gt;59642864 -->
<g id="edge83" class="edge"><title>59605120&#45;&gt;59642864</title>
<path fill="none" stroke="black" d="M2302.83,-1253.83C2297.91,-1262.22 2292.24,-1271.87 2286.55,-1281.56"/>
<polygon fill="black" stroke="black" points="2283.38,-1280.05 2281.34,-1290.44 2289.42,-1283.59 2283.38,-1280.05"/>
</g>
<!-- 59680608 -->
<g id="node22" class="node"><title>59680608</title>
<ellipse fill="#8f8f8f" stroke="black" cx="2270" cy="-1119" rx="154.149" ry="46.669"/>
<text text-anchor="middle" x="2270" y="-1126.4" font-family="Times Roman,serif" font-size="24.00">exp: normal</text>
<text text-anchor="middle" x="2270" y="-1097.4" font-family="Times Roman,serif" font-size="24.00">value: sp:normal</text>
</g>
<!-- 59680608&#45;&gt;59642864 -->
<g id="edge67" class="edge"><title>59680608&#45;&gt;59642864</title>
<path fill="none" stroke="black" d="M2229.16,-1163.91C2220.9,-1175.53 2213.4,-1188.58 2209,-1202 2201.8,-1223.96 2203.32,-1231.6 2209,-1254 2211.36,-1263.32 2215,-1272.72 2219.21,-1281.68"/>
<polygon fill="black" stroke="black" points="2216.18,-1283.45 2223.78,-1290.83 2222.45,-1280.32 2216.18,-1283.45"/>
</g>
<!-- 59680608&#45;&gt;59605120 -->
<g id="edge69" class="edge"><title>59680608&#45;&gt;59605120</title>
<path fill="none" stroke="black" d="M2290.36,-1165.23C2294.41,-1174.43 2298.6,-1183.96 2302.46,-1192.72"/>
<polygon fill="black" stroke="black" points="2299.27,-1194.14 2306.5,-1201.88 2305.67,-1191.32 2299.27,-1194.14"/>
</g>
<!-- 59718352&#45;&gt;59642864 -->
<g id="edge73" class="edge"><title>59718352&#45;&gt;59642864</title>
<path fill="none" stroke="black" d="M2068.45,-1157.22C2104.76,-1192.4 2158.95,-1244.9 2199.4,-1284.1"/>
<polygon fill="black" stroke="black" points="2197.17,-1286.81 2206.79,-1291.26 2202.04,-1281.79 2197.17,-1286.81"/>
</g>
<!-- 59718352&#45;&gt;59605120 -->
<g id="edge75" class="edge"><title>59718352&#45;&gt;59605120</title>
<path fill="none" stroke="black" d="M2078.76,-1151.54C2087.93,-1156.8 2097.59,-1161.87 2107,-1166 2147.12,-1183.63 2193.68,-1197.91 2232.83,-1208.31"/>
<polygon fill="black" stroke="black" points="2232.06,-1211.72 2242.62,-1210.87 2233.83,-1204.95 2232.06,-1211.72"/>
</g>
<!-- 59756096 -->
<g id="node24" class="node"><title>59756096</title>
<ellipse fill="#8f8f8f" stroke="black" cx="2591" cy="-1119" rx="149.2" ry="46.669"/>
<text text-anchor="middle" x="2591" y="-1126.4" font-family="Times Roman,serif" font-size="24.00">exp: 5.000000</text>
<text text-anchor="middle" x="2591" y="-1097.4" font-family="Times Roman,serif" font-size="24.00">value: 5.000000</text>
</g>
<!-- 59756096&#45;&gt;59642864 -->
<g id="edge79" class="edge"><title>59756096&#45;&gt;59642864</title>
<path fill="none" stroke="black" d="M2543.5,-1163.33C2511.96,-1191.41 2468.81,-1227.32 2427,-1254 2406.51,-1267.07 2383.66,-1279.44 2361.44,-1290.43"/>
<polygon fill="black" stroke="black" points="2359.75,-1287.36 2352.3,-1294.9 2362.83,-1293.65 2359.75,-1287.36"/>
</g>
<!-- 59756096&#45;&gt;59605120 -->
<g id="edge81" class="edge"><title>59756096&#45;&gt;59605120</title>
<path fill="none" stroke="black" d="M2498.96,-1155.75C2460.61,-1171.06 2417.01,-1188.47 2382.22,-1202.36"/>
<polygon fill="black" stroke="black" points="2380.64,-1199.22 2372.65,-1206.18 2383.24,-1205.72 2380.64,-1199.22"/>
</g>
<!-- 59392624&#45;&gt;58863744 -->
<g id="edge45" class="edge"><title>59392624&#45;&gt;58863744</title>
<path fill="none" stroke="black" d="M1974.45,-899.598C1940,-912.25 1901.62,-926.344 1865.7,-939.533"/>
<polygon fill="black" stroke="black" points="1864.32,-936.312 1856.14,-943.045 1866.73,-942.883 1864.32,-936.312"/>
</g>
<!-- 59356448 -->
<g id="node27" class="node"><title>59356448</title>
<ellipse fill="#8f8f8f" stroke="black" cx="2213" cy="-729" rx="99.9096" ry="26.163"/>
<text text-anchor="middle" x="2213" y="-721.9" font-family="Times Roman,serif" font-size="24.00">request: []</text>
</g>
<!-- 59356448&#45;&gt;59392624 -->
<g id="edge65" class="edge"><title>59356448&#45;&gt;59392624</title>
<path fill="none" stroke="black" d="M2188.02,-754.374C2173.63,-768.986 2154.99,-787.918 2137.53,-805.654"/>
<polygon fill="black" stroke="black" points="2134.65,-803.584 2130.13,-813.165 2139.64,-808.495 2134.65,-803.584"/>
</g>
<!-- 59443824 -->
<g id="node28" class="node"><title>59443824</title>
<ellipse fill="#8f8f8f" stroke="black" cx="2386" cy="-599" rx="154.149" ry="46.669"/>
<text text-anchor="middle" x="2386" y="-606.4" font-family="Times Roman,serif" font-size="24.00">exp: normal</text>
<text text-anchor="middle" x="2386" y="-577.4" font-family="Times Roman,serif" font-size="24.00">value: sp:normal</text>
</g>
<!-- 59443824&#45;&gt;59392624 -->
<g id="edge49" class="edge"><title>59443824&#45;&gt;59392624</title>
<path fill="none" stroke="black" d="M2380.37,-645.6C2373.24,-685.21 2357.3,-741.057 2322,-776 2302.41,-795.395 2278.04,-810.272 2252.44,-821.681"/>
<polygon fill="black" stroke="black" points="2250.78,-818.583 2242.96,-825.729 2253.53,-825.02 2250.78,-818.583"/>
</g>
<!-- 59443824&#45;&gt;59356448 -->
<g id="edge51" class="edge"><title>59443824&#45;&gt;59356448</title>
<path fill="none" stroke="black" d="M2328.39,-642.288C2304.08,-660.561 2276.32,-681.42 2254.12,-698.1"/>
<polygon fill="black" stroke="black" points="2251.8,-695.469 2245.9,-704.274 2256,-701.065 2251.8,-695.469"/>
</g>
<!-- 59480000&#45;&gt;59392624 -->
<g id="edge55" class="edge"><title>59480000&#45;&gt;59392624</title>
<path fill="none" stroke="black" d="M2068.6,-645.783C2071.97,-689.642 2077.02,-755.302 2080.63,-802.16"/>
<polygon fill="black" stroke="black" points="2077.14,-802.453 2081.4,-812.155 2084.12,-801.916 2077.14,-802.453"/>
</g>
<!-- 59480000&#45;&gt;59356448 -->
<g id="edge57" class="edge"><title>59480000&#45;&gt;59356448</title>
<path fill="none" stroke="black" d="M2115.11,-643.012C2135.36,-660.801 2158.28,-680.939 2176.86,-697.253"/>
<polygon fill="black" stroke="black" points="2174.71,-700.023 2184.53,-703.992 2179.33,-694.763 2174.71,-700.023"/>
</g>
<!-- 59531200 -->
<g id="node30" class="node"><title>59531200</title>
<ellipse fill="#8f8f8f" stroke="black" cx="1749" cy="-599" rx="149.2" ry="46.669"/>
<text text-anchor="middle" x="1749" y="-606.4" font-family="Times Roman,serif" font-size="24.00">exp: 2.000000</text>
<text text-anchor="middle" x="1749" y="-577.4" font-family="Times Roman,serif" font-size="24.00">value: 2.000000</text>
</g>
<!-- 59531200&#45;&gt;59392624 -->
<g id="edge61" class="edge"><title>59531200&#45;&gt;59392624</title>
<path fill="none" stroke="black" d="M1856.87,-631.09C1935.38,-654.446 2028,-682 2028,-682 2045.38,-698.997 2062.04,-757.257 2072.81,-802.346"/>
<polygon fill="black" stroke="black" points="2069.46,-803.39 2075.15,-812.327 2076.28,-801.792 2069.46,-803.39"/>
</g>
<!-- 59531200&#45;&gt;59356448 -->
<g id="edge63" class="edge"><title>59531200&#45;&gt;59356448</title>
<path fill="none" stroke="black" d="M1855.42,-631.596C1872.62,-636.592 1890.27,-641.559 1907,-646 1974.94,-664.029 1993.16,-663.606 2061,-682 2087.12,-689.083 2115.52,-697.63 2140.62,-705.482"/>
<polygon fill="black" stroke="black" points="2139.84,-708.906 2150.43,-708.568 2141.94,-702.228 2139.84,-708.906"/>
</g>
<!-- 54033488 -->
<g id="node33" class="node"><title>54033488</title>
<ellipse fill="none" stroke="black" cx="1261" cy="-599" rx="62.9325" ry="18.3848"/>
<text text-anchor="middle" x="1261" y="-595.4" font-family="Times Roman,serif" font-size="14.00">54033488</text>
</g>
<!-- 54033488&#45;&gt;58995920 -->
<g id="edge11" class="edge"><title>54033488&#45;&gt;58995920</title>
<path fill="none" stroke="black" d="M1261,-617.626C1261,-631.974 1261,-652.614 1261,-672.236"/>
<polygon fill="black" stroke="black" points="1257.5,-672.365 1261,-682.365 1264.5,-672.365 1257.5,-672.365"/>
</g>
<!-- 54474816 -->
<g id="node39" class="node"><title>54474816</title>
<ellipse fill="none" stroke="black" cx="425" cy="-339" rx="62.9325" ry="18.3848"/>
<text text-anchor="middle" x="425" y="-335.4" font-family="Times Roman,serif" font-size="14.00">54474816</text>
</g>
<!-- 54474816&#45;&gt;58682784 -->
<g id="edge21" class="edge"><title>54474816&#45;&gt;58682784</title>
<path fill="none" stroke="black" d="M425,-357.626C425,-371.974 425,-392.614 425,-412.236"/>
<polygon fill="black" stroke="black" points="421.5,-412.365 425,-422.365 428.5,-412.365 421.5,-412.365"/>
</g>
<!-- 52690128 -->
<g id="node56" class="node"><title>52690128</title>
<ellipse fill="none" stroke="black" cx="2477" cy="-469" rx="62.9325" ry="18.3848"/>
<text text-anchor="middle" x="2477" y="-465.4" font-family="Times Roman,serif" font-size="14.00">52690128</text>
</g>
<!-- 52690128&#45;&gt;59680608 -->
<g id="edge71" class="edge"><title>52690128&#45;&gt;59680608</title>
<path fill="none" stroke="black" d="M2498.27,-486.721C2515.12,-502.099 2537.65,-525.941 2549,-552 2580.59,-624.538 2568,-649.881 2568,-729 2568,-729 2568,-729 2568,-859 2568,-939.459 2584.05,-976.401 2530,-1036 2524.75,-1041.79 2455.78,-1063.68 2390.2,-1083.52"/>
<polygon fill="black" stroke="black" points="2389.12,-1080.19 2380.56,-1086.44 2391.14,-1086.9 2389.12,-1080.19"/>
</g>
<!-- 52690128&#45;&gt;59443824 -->
<g id="edge53" class="edge"><title>52690128&#45;&gt;59443824</title>
<path fill="none" stroke="black" d="M2464.15,-487.35C2453.65,-502.36 2438.23,-524.383 2423.86,-544.912"/>
<polygon fill="black" stroke="black" points="2420.86,-543.09 2418,-553.29 2426.6,-547.104 2420.86,-543.09"/>
</g>
<!-- 52712560 -->
<g id="node75" class="node"><title>52712560</title>
<ellipse fill="none" stroke="black" cx="809" cy="-19" rx="62.9325" ry="18.3848"/>
<text text-anchor="middle" x="809" y="-15.4" font-family="Times Roman,serif" font-size="14.00">52712560</text>
</g>
<!-- 52712560&#45;&gt;60730192 -->
<g id="edge89" class="edge"><title>52712560&#45;&gt;60730192</title>
<path fill="none" stroke="black" d="M809,-37.7084C809,-45.3917 809,-54.7362 809,-64.3518"/>
<polygon fill="black" stroke="black" points="805.5,-64.4121 809,-74.4121 812.5,-64.4122 805.5,-64.4121"/>
</g>
</g>
</svg>
