<?xml version="1.0" encoding="UTF-8" standalone="no"?>
<!DOCTYPE svg PUBLIC "-//W3C//DTD SVG 1.1//EN"
 "http://www.w3.org/Graphics/SVG/1.1/DTD/svg11.dtd">
<!-- Generated by graphviz version 2.26.3 (20100126.1600)
 -->
<!-- Title: _anonymous_0 Pages: 1 -->
<svg width="2208pt" height="1444pt"
 viewBox="0.00 0.00 2208.00 1444.00" xmlns="http://www.w3.org/2000/svg" xmlns:xlink="http://www.w3.org/1999/xlink">
<g id="graph1" class="graph" transform="scale(1 1) rotate(0) translate(4 1440)">
<title>_anonymous_0</title>
<polygon fill="white" stroke="white" points="-4,5 -4,-1440 2205,-1440 2205,5 -4,5"/>
<g id="graph2" class="cluster"><title>cluster1</title>
<polygon fill="none" stroke="black" points="134,-46 134,-1428 2066,-1428 2066,-46 134,-46"/>
<text text-anchor="middle" x="1100" y="-57.4" font-family="Times Roman,serif" font-size="24.00">Venture Families</text>
</g>
<g id="graph3" class="cluster"><title>cluster2</title>
<polygon fill="none" stroke="black" points="956,-91 956,-456 1924,-456 1924,-91 956,-91"/>
<text text-anchor="middle" x="1440" y="-102.4" font-family="Times Roman,serif" font-size="24.00">1</text>
</g>
<g id="graph4" class="cluster"><title>cluster3</title>
<polygon fill="none" stroke="black" points="142,-464 142,-1047 2058,-1047 2058,-464 142,-464"/>
<text text-anchor="middle" x="1100" y="-475.4" font-family="Times Roman,serif" font-size="24.00">2</text>
</g>
<g id="graph5" class="cluster"><title>cluster4</title>
<polygon fill="none" stroke="black" points="224,-1055 224,-1420 1180,-1420 1180,-1055 224,-1055"/>
<text text-anchor="middle" x="702" y="-1066.4" font-family="Times Roman,serif" font-size="24.00">3</text>
</g>
<!-- 58182000 -->
<g id="node3" class="node"><title>58182000</title>
<ellipse fill="firebrick" stroke="black" cx="1429" cy="-401" rx="300.02" ry="46.669"/>
<text text-anchor="middle" x="1429" y="-408.4" font-family="Times Roman,serif" font-size="24.00">exp: (gamma 1.000000 1.000000)</text>
<text text-anchor="middle" x="1429" y="-379.4" font-family="Times Roman,serif" font-size="24.00">value: </text>
</g>
<!-- 56497664 -->
<g id="node15" class="node"><title>56497664</title>
<ellipse fill="gold" stroke="black" cx="1429" cy="-556" rx="68.7979" ry="46.669"/>
<text text-anchor="middle" x="1429" y="-563.4" font-family="Times Roman,serif" font-size="24.00">exp: x</text>
<text text-anchor="middle" x="1429" y="-534.4" font-family="Times Roman,serif" font-size="24.00">value: </text>
</g>
<!-- 58182000&#45;&gt;56497664 -->
<g id="edge60" class="edge"><title>58182000&#45;&gt;56497664</title>
<path fill="none" stroke="black" d="M1429,-447.505C1429,-463.677 1429,-482.005 1429,-498.933"/>
<polygon fill="black" stroke="black" points="1425.5,-499.26 1429,-509.26 1432.5,-499.26 1425.5,-499.26"/>
</g>
<!-- 57820576 -->
<g id="node4" class="node"><title>57820576</title>
<ellipse fill="#8f8f8f" stroke="black" cx="1369" cy="-292" rx="99.9096" ry="26.163"/>
<text text-anchor="middle" x="1369" y="-284.9" font-family="Times Roman,serif" font-size="24.00">request: []</text>
</g>
<!-- 57820576&#45;&gt;58182000 -->
<g id="edge38" class="edge"><title>57820576&#45;&gt;58182000</title>
<path fill="none" stroke="black" d="M1383.22,-317.831C1387.84,-326.218 1393.15,-335.871 1398.48,-345.564"/>
<polygon fill="black" stroke="black" points="1395.48,-347.368 1403.37,-354.441 1401.61,-343.992 1395.48,-347.368"/>
</g>
<!-- 56189504 -->
<g id="node5" class="node"><title>56189504</title>
<ellipse fill="#8f8f8f" stroke="black" cx="1756" cy="-183" rx="159.806" ry="46.669"/>
<text text-anchor="middle" x="1756" y="-190.4" font-family="Times Roman,serif" font-size="24.00">exp: gamma</text>
<text text-anchor="middle" x="1756" y="-161.4" font-family="Times Roman,serif" font-size="24.00">value: sp:gamma</text>
</g>
<!-- 56189504&#45;&gt;58182000 -->
<g id="edge24" class="edge"><title>56189504&#45;&gt;58182000</title>
<path fill="none" stroke="black" d="M1691.79,-225.81C1638.36,-261.429 1562.16,-312.225 1505.57,-349.956"/>
<polygon fill="black" stroke="black" points="1503.39,-347.2 1497.01,-355.66 1507.27,-353.025 1503.39,-347.2"/>
</g>
<!-- 56189504&#45;&gt;57820576 -->
<g id="edge26" class="edge"><title>56189504&#45;&gt;57820576</title>
<path fill="none" stroke="black" d="M1640.94,-215.408C1578.3,-233.05 1502.46,-254.409 1446.81,-270.085"/>
<polygon fill="black" stroke="black" points="1445.69,-266.765 1437.01,-272.845 1447.58,-273.503 1445.69,-266.765"/>
</g>
<!-- 56908640 -->
<g id="node6" class="node"><title>56908640</title>
<ellipse fill="#8f8f8f" stroke="black" cx="1429" cy="-183" rx="149.2" ry="46.669"/>
<text text-anchor="middle" x="1429" y="-190.4" font-family="Times Roman,serif" font-size="24.00">exp: 1.000000</text>
<text text-anchor="middle" x="1429" y="-161.4" font-family="Times Roman,serif" font-size="24.00">value: 1.000000</text>
</g>
<!-- 56908640&#45;&gt;58182000 -->
<g id="edge30" class="edge"><title>56908640&#45;&gt;58182000</title>
<path fill="none" stroke="black" d="M1461.63,-228.438C1468.36,-240.138 1474.47,-253.086 1478,-266 1484.09,-288.294 1484.09,-295.706 1478,-318 1475.45,-327.345 1471.54,-336.708 1467.03,-345.602"/>
<polygon fill="black" stroke="black" points="1463.8,-344.218 1462.14,-354.682 1469.96,-347.539 1463.8,-344.218"/>
</g>
<!-- 56908640&#45;&gt;57820576 -->
<g id="edge32" class="edge"><title>56908640&#45;&gt;57820576</title>
<path fill="none" stroke="black" d="M1403.73,-228.91C1398.55,-238.323 1393.17,-248.088 1388.24,-257.041"/>
<polygon fill="black" stroke="black" points="1385.05,-255.581 1383.3,-266.029 1391.18,-258.957 1385.05,-255.581"/>
</g>
<!-- 57045648 -->
<g id="node7" class="node"><title>57045648</title>
<ellipse fill="#8f8f8f" stroke="black" cx="1113" cy="-183" rx="149.2" ry="46.669"/>
<text text-anchor="middle" x="1113" y="-190.4" font-family="Times Roman,serif" font-size="24.00">exp: 1.000000</text>
<text text-anchor="middle" x="1113" y="-161.4" font-family="Times Roman,serif" font-size="24.00">value: 1.000000</text>
</g>
<!-- 57045648&#45;&gt;58182000 -->
<g id="edge34" class="edge"><title>57045648&#45;&gt;58182000</title>
<path fill="none" stroke="black" d="M1155.22,-227.903C1183.19,-256.035 1221.67,-291.795 1260,-318 1278.14,-330.399 1298.4,-342.008 1318.42,-352.388"/>
<polygon fill="black" stroke="black" points="1317.09,-355.641 1327.59,-357.069 1320.27,-349.406 1317.09,-355.641"/>
</g>
<!-- 57045648&#45;&gt;57820576 -->
<g id="edge36" class="edge"><title>57045648&#45;&gt;57820576</title>
<path fill="none" stroke="black" d="M1201.1,-220.512C1235.97,-235.357 1275.22,-252.07 1307,-265.602"/>
<polygon fill="black" stroke="black" points="1306.04,-268.996 1316.61,-269.694 1308.78,-262.556 1306.04,-268.996"/>
</g>
<!-- 58525680 -->
<g id="node9" class="node"><title>58525680</title>
<ellipse fill="gold" stroke="black" cx="1105" cy="-992" rx="789.838" ry="46.669"/>
<text text-anchor="middle" x="1105" y="-999.4" font-family="Times Roman,serif" font-size="24.00">exp: (branch_exp (lt x 1.000000) (quote (gamma x 2.000000)) (quote (normal x 2.000000)))</text>
<text text-anchor="middle" x="1105" y="-970.4" font-family="Times Roman,serif" font-size="24.00">value: </text>
</g>
<!-- 57032928 -->
<g id="node23" class="node"><title>57032928</title>
<ellipse fill="gold" stroke="black" cx="1023" cy="-1147" rx="149.2" ry="46.669"/>
<text text-anchor="middle" x="1023" y="-1154.4" font-family="Times Roman,serif" font-size="24.00">exp: y</text>
<text text-anchor="middle" x="1023" y="-1125.4" font-family="Times Roman,serif" font-size="24.00">value: 0.000000</text>
</g>
<!-- 58525680&#45;&gt;57032928 -->
<g id="edge16" class="edge"><title>58525680&#45;&gt;57032928</title>
<path fill="none" stroke="black" d="M1080.4,-1038.51C1071.48,-1055.36 1061.32,-1074.56 1052.06,-1092.08"/>
<polygon fill="black" stroke="black" points="1048.89,-1090.59 1047.3,-1101.06 1055.07,-1093.86 1048.89,-1090.59"/>
</g>
<!-- 57759056 -->
<g id="node10" class="node"><title>57759056</title>
<ellipse fill="gold" stroke="black" cx="1158" cy="-883" rx="87.1802" ry="26.163"/>
<text text-anchor="middle" x="1158" y="-875.9" font-family="Times Roman,serif" font-size="24.00">request: </text>
</g>
<!-- 57759056&#45;&gt;58525680 -->
<g id="edge76" class="edge"><title>57759056&#45;&gt;58525680</title>
<path fill="none" stroke="black" d="M1145.44,-908.831C1141.4,-917.133 1136.76,-926.674 1132.1,-936.267"/>
<polygon fill="black" stroke="black" points="1128.86,-934.917 1127.64,-945.441 1135.16,-937.978 1128.86,-934.917"/>
</g>
<!-- 57083392 -->
<g id="node11" class="node"><title>57083392</title>
<ellipse fill="#8f8f8f" stroke="black" cx="1896" cy="-774" rx="154.149" ry="46.669"/>
<text text-anchor="middle" x="1896" y="-781.4" font-family="Times Roman,serif" font-size="24.00">exp: branch_exp</text>
<text text-anchor="middle" x="1896" y="-752.4" font-family="Times Roman,serif" font-size="24.00">value: sp:branch</text>
</g>
<!-- 57083392&#45;&gt;58525680 -->
<g id="edge40" class="edge"><title>57083392&#45;&gt;58525680</title>
<path fill="none" stroke="black" d="M1784.71,-806.33C1767.41,-811.286 1749.73,-816.31 1733,-821 1582.02,-863.319 1410.21,-910.001 1284.5,-943.883"/>
<polygon fill="black" stroke="black" points="1283.52,-940.523 1274.78,-946.505 1285.34,-947.282 1283.52,-940.523"/>
</g>
<!-- 57083392&#45;&gt;57759056 -->
<g id="edge42" class="edge"><title>57083392&#45;&gt;57759056</title>
<path fill="none" stroke="black" d="M1789.24,-807.641C1770.63,-812.684 1751.35,-817.393 1733,-821 1566.36,-853.752 1368.91,-870.291 1254.11,-877.743"/>
<polygon fill="black" stroke="black" points="1253.7,-874.262 1243.94,-878.393 1254.14,-881.247 1253.7,-874.262"/>
</g>
<!-- 57534240 -->
<g id="node12" class="node"><title>57534240</title>
<ellipse fill="gold" stroke="black" cx="1546" cy="-774" rx="178.191" ry="46.669"/>
<text text-anchor="middle" x="1546" y="-781.4" font-family="Times Roman,serif" font-size="24.00">exp: (lt x 1.000000)</text>
<text text-anchor="middle" x="1546" y="-752.4" font-family="Times Roman,serif" font-size="24.00">value: </text>
</g>
<!-- 57534240&#45;&gt;58525680 -->
<g id="edge46" class="edge"><title>57534240&#45;&gt;58525680</title>
<path fill="none" stroke="black" d="M1462.79,-815.132C1390.48,-850.881 1285.44,-902.805 1207.86,-941.152"/>
<polygon fill="black" stroke="black" points="1205.96,-938.19 1198.54,-945.759 1209.06,-944.465 1205.96,-938.19"/>
</g>
<!-- 57534240&#45;&gt;57759056 -->
<g id="edge48" class="edge"><title>57534240&#45;&gt;57759056</title>
<path fill="none" stroke="black" d="M1424.56,-808.115C1361.26,-825.899 1285.91,-847.066 1231.5,-862.352"/>
<polygon fill="black" stroke="black" points="1230.27,-859.061 1221.59,-865.135 1232.17,-865.8 1230.27,-859.061"/>
</g>
<!-- 57499296 -->
<g id="node13" class="node"><title>57499296</title>
<ellipse fill="#8f8f8f" stroke="black" cx="1645" cy="-665" rx="99.9096" ry="26.163"/>
<text text-anchor="middle" x="1645" y="-657.9" font-family="Times Roman,serif" font-size="24.00">request: []</text>
</g>
<!-- 57499296&#45;&gt;57534240 -->
<g id="edge66" class="edge"><title>57499296&#45;&gt;57534240</title>
<path fill="none" stroke="black" d="M1621.79,-690.556C1613.51,-699.67 1603.85,-710.305 1594.25,-720.872"/>
<polygon fill="black" stroke="black" points="1591.43,-718.776 1587.3,-728.531 1596.61,-723.482 1591.43,-718.776"/>
</g>
<!-- 56365488 -->
<g id="node14" class="node"><title>56365488</title>
<ellipse fill="#8f8f8f" stroke="black" cx="1625" cy="-556" rx="109.101" ry="46.669"/>
<text text-anchor="middle" x="1625" y="-563.4" font-family="Times Roman,serif" font-size="24.00">exp: lt</text>
<text text-anchor="middle" x="1625" y="-534.4" font-family="Times Roman,serif" font-size="24.00">value: sp:&lt;</text>
</g>
<!-- 56365488&#45;&gt;57534240 -->
<g id="edge50" class="edge"><title>56365488&#45;&gt;57534240</title>
<path fill="none" stroke="black" d="M1568.04,-596.014C1555.09,-608.193 1543.08,-622.724 1536,-639 1525.42,-663.341 1526.12,-692.481 1530.21,-717.447"/>
<polygon fill="black" stroke="black" points="1526.81,-718.309 1532.07,-727.505 1533.69,-717.035 1526.81,-718.309"/>
</g>
<!-- 56365488&#45;&gt;57499296 -->
<g id="edge52" class="edge"><title>56365488&#45;&gt;57499296</title>
<path fill="none" stroke="black" d="M1633.54,-602.542C1635.16,-611.345 1636.82,-620.432 1638.37,-628.856"/>
<polygon fill="black" stroke="black" points="1634.93,-629.535 1640.18,-638.739 1641.82,-628.271 1634.93,-629.535"/>
</g>
<!-- 56497664&#45;&gt;57534240 -->
<g id="edge56" class="edge"><title>56497664&#45;&gt;57534240</title>
<path fill="none" stroke="black" d="M1452.54,-599.853C1470.87,-634.01 1496.44,-681.649 1516.2,-718.468"/>
<polygon fill="black" stroke="black" points="1513.27,-720.425 1521.09,-727.581 1519.44,-717.115 1513.27,-720.425"/>
</g>
<!-- 56497664&#45;&gt;57499296 -->
<g id="edge58" class="edge"><title>56497664&#45;&gt;57499296</title>
<path fill="none" stroke="black" d="M1479.69,-587.737C1488.68,-593.023 1498.04,-598.307 1507,-603 1531.24,-615.69 1558.6,-628.319 1582.53,-638.834"/>
<polygon fill="black" stroke="black" points="1581.3,-642.115 1591.87,-642.906 1584.1,-635.699 1581.3,-642.115"/>
</g>
<!-- 56100400 -->
<g id="node16" class="node"><title>56100400</title>
<ellipse fill="#8f8f8f" stroke="black" cx="1901" cy="-556" rx="149.2" ry="46.669"/>
<text text-anchor="middle" x="1901" y="-563.4" font-family="Times Roman,serif" font-size="24.00">exp: 1.000000</text>
<text text-anchor="middle" x="1901" y="-534.4" font-family="Times Roman,serif" font-size="24.00">value: 1.000000</text>
</g>
<!-- 56100400&#45;&gt;57534240 -->
<g id="edge62" class="edge"><title>56100400&#45;&gt;57534240</title>
<path fill="none" stroke="black" d="M1860.37,-600.964C1832.6,-629.653 1793.75,-666.01 1754,-691 1727.42,-707.713 1696.91,-722.141 1667.59,-734.063"/>
<polygon fill="black" stroke="black" points="1666.11,-730.886 1658.12,-737.845 1668.71,-737.386 1666.11,-730.886"/>
</g>
<!-- 56100400&#45;&gt;57499296 -->
<g id="edge64" class="edge"><title>56100400&#45;&gt;57499296</title>
<path fill="none" stroke="black" d="M1812.9,-593.512C1778.03,-608.357 1738.78,-625.07 1707,-638.602"/>
<polygon fill="black" stroke="black" points="1705.22,-635.556 1697.39,-642.694 1707.96,-641.996 1705.22,-635.556"/>
</g>
<!-- 56301184 -->
<g id="node17" class="node"><title>56301184</title>
<ellipse fill="#8f8f8f" stroke="black" cx="1052" cy="-774" rx="297.899" ry="46.669"/>
<text text-anchor="middle" x="1052" y="-781.4" font-family="Times Roman,serif" font-size="24.00">exp: (quote (gamma x 2.000000))</text>
<text text-anchor="middle" x="1052" y="-752.4" font-family="Times Roman,serif" font-size="24.00">value: (gamma x 2.000000)</text>
</g>
<!-- 56301184&#45;&gt;58525680 -->
<g id="edge68" class="edge"><title>56301184&#45;&gt;58525680</title>
<path fill="none" stroke="black" d="M1050.87,-820.727C1051.36,-847.096 1053.9,-880.395 1062,-909 1064.59,-918.155 1068.25,-927.471 1072.36,-936.393"/>
<polygon fill="black" stroke="black" points="1069.27,-938.042 1076.77,-945.525 1075.57,-934.998 1069.27,-938.042"/>
</g>
<!-- 56301184&#45;&gt;57759056 -->
<g id="edge70" class="edge"><title>56301184&#45;&gt;57759056</title>
<path fill="none" stroke="black" d="M1096.95,-820.226C1106.84,-830.39 1117.1,-840.947 1126.33,-850.439"/>
<polygon fill="black" stroke="black" points="1124.01,-853.065 1133.49,-857.794 1129.03,-848.185 1124.01,-853.065"/>
</g>
<!-- 56184528 -->
<g id="node18" class="node"><title>56184528</title>
<ellipse fill="#8f8f8f" stroke="black" cx="443" cy="-774" rx="292.949" ry="46.669"/>
<text text-anchor="middle" x="443" y="-781.4" font-family="Times Roman,serif" font-size="24.00">exp: (quote (normal x 2.000000))</text>
<text text-anchor="middle" x="443" y="-752.4" font-family="Times Roman,serif" font-size="24.00">value: (normal x 2.000000)</text>
</g>
<!-- 56184528&#45;&gt;58525680 -->
<g id="edge72" class="edge"><title>56184528&#45;&gt;58525680</title>
<path fill="none" stroke="black" d="M570.248,-815.904C680.481,-852.204 840.055,-904.752 956.18,-942.993"/>
<polygon fill="black" stroke="black" points="955.275,-946.38 965.868,-946.183 957.465,-939.731 955.275,-946.38"/>
</g>
<!-- 56184528&#45;&gt;57759056 -->
<g id="edge74" class="edge"><title>56184528&#45;&gt;57759056</title>
<path fill="none" stroke="black" d="M651.738,-806.636C682.993,-811.479 714.84,-816.389 745,-821 857.09,-838.136 986.362,-857.474 1069.99,-869.928"/>
<polygon fill="black" stroke="black" points="1069.55,-873.401 1079.96,-871.412 1070.58,-866.477 1069.55,-873.401"/>
</g>
<!-- 56266672 -->
<g id="node20" class="node"><title>56266672</title>
<ellipse fill="#63b8ff" stroke="black" cx="692" cy="-1365" rx="225.775" ry="46.669"/>
<text text-anchor="middle" x="692" y="-1372.4" font-family="Times Roman,serif" font-size="24.00">exp: (normal y 5.000000)</text>
<text text-anchor="middle" x="692" y="-1343.4" font-family="Times Roman,serif" font-size="24.00">value: 10.000000</text>
</g>
<!-- 58535664 -->
<g id="node21" class="node"><title>58535664</title>
<ellipse fill="#8f8f8f" stroke="black" cx="752" cy="-1256" rx="99.9096" ry="26.163"/>
<text text-anchor="middle" x="752" y="-1248.9" font-family="Times Roman,serif" font-size="24.00">request: []</text>
</g>
<!-- 58535664&#45;&gt;56266672 -->
<g id="edge22" class="edge"><title>58535664&#45;&gt;56266672</title>
<path fill="none" stroke="black" d="M737.781,-1281.83C733.164,-1290.22 727.851,-1299.87 722.515,-1309.56"/>
<polygon fill="black" stroke="black" points="719.385,-1307.99 717.629,-1318.44 725.517,-1311.37 719.385,-1307.99"/>
</g>
<!-- 56981728 -->
<g id="node22" class="node"><title>56981728</title>
<ellipse fill="#8f8f8f" stroke="black" cx="702" cy="-1147" rx="154.149" ry="46.669"/>
<text text-anchor="middle" x="702" y="-1154.4" font-family="Times Roman,serif" font-size="24.00">exp: normal</text>
<text text-anchor="middle" x="702" y="-1125.4" font-family="Times Roman,serif" font-size="24.00">value: sp:normal</text>
</g>
<!-- 56981728&#45;&gt;56266672 -->
<g id="edge6" class="edge"><title>56981728&#45;&gt;56266672</title>
<path fill="none" stroke="black" d="M662.479,-1192.08C654.492,-1203.7 647.247,-1216.69 643,-1230 635.972,-1252.02 636.91,-1259.71 643,-1282 645.553,-1291.34 649.456,-1300.71 653.97,-1309.6"/>
<polygon fill="black" stroke="black" points="651.038,-1311.54 658.863,-1318.68 657.2,-1308.22 651.038,-1311.54"/>
</g>
<!-- 56981728&#45;&gt;58535664 -->
<g id="edge8" class="edge"><title>56981728&#45;&gt;58535664</title>
<path fill="none" stroke="black" d="M723.205,-1193.23C727.426,-1202.43 731.796,-1211.96 735.817,-1220.72"/>
<polygon fill="black" stroke="black" points="732.669,-1222.25 740.02,-1229.88 739.032,-1219.33 732.669,-1222.25"/>
</g>
<!-- 57032928&#45;&gt;56266672 -->
<g id="edge12" class="edge"><title>57032928&#45;&gt;56266672</title>
<path fill="none" stroke="black" d="M976.078,-1191.25C944.926,-1219.29 902.306,-1255.19 861,-1282 841.086,-1294.92 818.87,-1307.19 797.26,-1318.14"/>
<polygon fill="black" stroke="black" points="795.422,-1315.15 788.044,-1322.75 798.554,-1321.41 795.422,-1315.15"/>
</g>
<!-- 57032928&#45;&gt;58535664 -->
<g id="edge14" class="edge"><title>57032928&#45;&gt;58535664</title>
<path fill="none" stroke="black" d="M931.63,-1183.75C893.707,-1199 850.607,-1216.34 816.132,-1230.21"/>
<polygon fill="black" stroke="black" points="814.62,-1227.04 806.649,-1234.02 817.232,-1233.54 814.62,-1227.04"/>
</g>
<!-- 57069104 -->
<g id="node24" class="node"><title>57069104</title>
<ellipse fill="#8f8f8f" stroke="black" cx="381" cy="-1147" rx="149.2" ry="46.669"/>
<text text-anchor="middle" x="381" y="-1154.4" font-family="Times Roman,serif" font-size="24.00">exp: 5.000000</text>
<text text-anchor="middle" x="381" y="-1125.4" font-family="Times Roman,serif" font-size="24.00">value: 5.000000</text>
</g>
<!-- 57069104&#45;&gt;56266672 -->
<g id="edge18" class="edge"><title>57069104&#45;&gt;56266672</title>
<path fill="none" stroke="black" d="M441.702,-1189.55C492.712,-1225.31 565.729,-1276.49 619.744,-1314.35"/>
<polygon fill="black" stroke="black" points="618.046,-1317.44 628.244,-1320.31 622.064,-1311.7 618.046,-1317.44"/>
</g>
<!-- 57069104&#45;&gt;58535664 -->
<g id="edge20" class="edge"><title>57069104&#45;&gt;58535664</title>
<path fill="none" stroke="black" d="M488.915,-1179.19C505.678,-1184.17 522.802,-1189.23 539,-1194 584.056,-1207.26 634.518,-1221.95 675.013,-1233.71"/>
<polygon fill="black" stroke="black" points="674.239,-1237.13 684.818,-1236.55 676.19,-1230.41 674.239,-1237.13"/>
</g>
<!-- 55960192 -->
<g id="node27" class="node"><title>55960192</title>
<ellipse fill="none" stroke="black" cx="63" cy="-992" rx="62.9325" ry="18.3848"/>
<text text-anchor="middle" x="63" y="-988.4" font-family="Times Roman,serif" font-size="14.00">55960192</text>
</g>
<!-- 55960192&#45;&gt;56981728 -->
<g id="edge10" class="edge"><title>55960192&#45;&gt;56981728</title>
<path fill="none" stroke="black" d="M80.5651,-1009.82C94.7071,-1022.85 115.823,-1039.49 138,-1047 180.212,-1061.29 496.013,-1043.25 539,-1055 572.235,-1064.09 605.902,-1081.43 633.941,-1098.63"/>
<polygon fill="black" stroke="black" points="632.121,-1101.62 642.455,-1103.95 635.832,-1095.68 632.121,-1101.62"/>
</g>
<!-- 49756480 -->
<g id="node37" class="node"><title>49756480</title>
<ellipse fill="none" stroke="black" cx="1756" cy="-19" rx="62.9325" ry="18.3848"/>
<text text-anchor="middle" x="1756" y="-15.4" font-family="Times Roman,serif" font-size="14.00">49756480</text>
</g>
<!-- 49756480&#45;&gt;56189504 -->
<g id="edge28" class="edge"><title>49756480&#45;&gt;56189504</title>
<path fill="none" stroke="black" d="M1756,-37.8129C1756,-59.2806 1756,-95.4093 1756,-126.255"/>
<polygon fill="black" stroke="black" points="1752.5,-126.484 1756,-136.484 1759.5,-126.484 1752.5,-126.484"/>
</g>
<!-- 50723968 -->
<g id="node46" class="node"><title>50723968</title>
<ellipse fill="none" stroke="black" cx="2137" cy="-665" rx="62.9325" ry="18.3848"/>
<text text-anchor="middle" x="2137" y="-661.4" font-family="Times Roman,serif" font-size="14.00">50723968</text>
</g>
<!-- 50723968&#45;&gt;57083392 -->
<g id="edge44" class="edge"><title>50723968&#45;&gt;57083392</title>
<path fill="none" stroke="black" d="M2102.47,-680.617C2073.37,-693.778 2030.32,-713.252 1991.04,-731.015"/>
<polygon fill="black" stroke="black" points="1989.35,-727.94 1981.68,-735.25 1992.23,-734.318 1989.35,-727.94"/>
</g>
<!-- 48582672 -->
<g id="node52" class="node"><title>48582672</title>
<ellipse fill="none" stroke="black" cx="2137" cy="-401" rx="62.9325" ry="18.3848"/>
<text text-anchor="middle" x="2137" y="-397.4" font-family="Times Roman,serif" font-size="14.00">48582672</text>
</g>
<!-- 48582672&#45;&gt;56365488 -->
<g id="edge54" class="edge"><title>48582672&#45;&gt;56365488</title>
<path fill="none" stroke="black" d="M2095.13,-414.858C2053.32,-428.015 1986.98,-447.069 1928,-456 1887.31,-462.16 1781.62,-449.785 1743,-464 1718.04,-473.19 1694.16,-489.749 1674.5,-506.311"/>
<polygon fill="black" stroke="black" points="1672.17,-503.699 1666.9,-512.89 1676.75,-508.991 1672.17,-503.699"/>
</g>
</g>
</svg>
