<?xml version="1.0" encoding="UTF-8" standalone="no"?>
<!DOCTYPE svg PUBLIC "-//W3C//DTD SVG 1.1//EN"
 "http://www.w3.org/Graphics/SVG/1.1/DTD/svg11.dtd">
<!-- Generated by graphviz version 2.26.3 (20100126.1600)
 -->
<!-- Title: _anonymous_0 Pages: 1 -->
<svg width="473pt" height="764pt"
 viewBox="0.00 0.00 473.00 764.00" xmlns="http://www.w3.org/2000/svg" xmlns:xlink="http://www.w3.org/1999/xlink">
<g id="graph1" class="graph" transform="scale(1 1) rotate(0) translate(4 760)">
<title>_anonymous_0</title>
<polygon fill="white" stroke="white" points="-4,5 -4,-760 470,-760 470,5 -4,5"/>
<!-- 60032512 -->
<g id="node3" class="node"><title>60032512</title>
<ellipse fill="firebrick" stroke="black" cx="207" cy="-162" rx="27" ry="18"/>
</g>
<!-- 58846304 -->
<g id="node15" class="node"><title>58846304</title>
<ellipse fill="gold" stroke="black" cx="315" cy="-234" rx="27" ry="18"/>
</g>
<!-- 60032512&#45;&gt;58846304 -->
<g id="edge23" class="edge"><title>60032512&#45;&gt;58846304</title>
<path fill="none" stroke="black" d="M226.308,-174.872C243.355,-186.237 268.402,-202.935 287.534,-215.69"/>
<polygon fill="black" stroke="black" points="285.597,-218.604 295.859,-221.239 289.48,-212.78 285.597,-218.604"/>
</g>
<!-- 59480000 -->
<g id="node29" class="node"><title>59480000</title>
<ellipse fill="gold" stroke="black" cx="99" cy="-234" rx="27" ry="18"/>
</g>
<!-- 60032512&#45;&gt;59480000 -->
<g id="edge53" class="edge"><title>60032512&#45;&gt;59480000</title>
<path fill="none" stroke="black" d="M187.692,-174.872C170.645,-186.237 145.598,-202.935 126.466,-215.69"/>
<polygon fill="black" stroke="black" points="124.52,-212.78 118.141,-221.239 128.403,-218.604 124.52,-212.78"/>
</g>
<!-- 59581664 -->
<g id="node4" class="node"><title>59581664</title>
<ellipse fill="#8f8f8f" stroke="black" cx="180" cy="-90" rx="27" ry="18"/>
</g>
<!-- 59581664&#45;&gt;60032512 -->
<g id="edge89" class="edge"><title>59581664&#45;&gt;60032512</title>
<path fill="none" stroke="black" d="M186.674,-107.798C189.748,-115.994 193.462,-125.898 196.87,-134.985"/>
<polygon fill="black" stroke="black" points="193.614,-136.273 200.403,-144.407 200.168,-133.815 193.614,-136.273"/>
</g>
<!-- 60730192 -->
<g id="node5" class="node"><title>60730192</title>
<ellipse fill="#8f8f8f" stroke="black" cx="127" cy="-18" rx="27" ry="18"/>
</g>
<!-- 60730192&#45;&gt;60032512 -->
<g id="edge77" class="edge"><title>60730192&#45;&gt;60032512</title>
<path fill="none" stroke="black" d="M126.962,-36.1202C127.679,-55.212 131.022,-85.5642 144,-108 152.322,-122.387 165.939,-134.774 178.388,-144.042"/>
<polygon fill="black" stroke="black" points="176.555,-147.032 186.741,-149.946 180.595,-141.316 176.555,-147.032"/>
</g>
<!-- 60730192&#45;&gt;59581664 -->
<g id="edge79" class="edge"><title>60730192&#45;&gt;59581664</title>
<path fill="none" stroke="black" d="M139.027,-34.3379C145.803,-43.5436 154.401,-55.2236 161.969,-65.5047"/>
<polygon fill="black" stroke="black" points="159.274,-67.7482 168.021,-73.7267 164.912,-63.5985 159.274,-67.7482"/>
</g>
<!-- 58687760 -->
<g id="node6" class="node"><title>58687760</title>
<ellipse fill="#8f8f8f" stroke="black" cx="200" cy="-18" rx="27" ry="18"/>
</g>
<!-- 58687760&#45;&gt;60032512 -->
<g id="edge81" class="edge"><title>58687760&#45;&gt;60032512</title>
<path fill="none" stroke="black" d="M206.653,-35.7104C210.204,-46.1139 214.204,-59.6139 216,-72 219,-92.6881 216.447,-116.198 213.304,-134"/>
<polygon fill="black" stroke="black" points="209.83,-133.531 211.369,-144.013 216.702,-134.859 209.83,-133.531"/>
</g>
<!-- 58687760&#45;&gt;59581664 -->
<g id="edge83" class="edge"><title>58687760&#45;&gt;59581664</title>
<path fill="none" stroke="black" d="M195.056,-35.7978C192.821,-43.8459 190.127,-53.5412 187.641,-62.4933"/>
<polygon fill="black" stroke="black" points="184.26,-61.5855 184.956,-72.1575 191.005,-63.459 184.26,-61.5855"/>
</g>
<!-- 59543920 -->
<g id="node7" class="node"><title>59543920</title>
<ellipse fill="#8f8f8f" stroke="black" cx="272" cy="-18" rx="27" ry="18"/>
</g>
<!-- 59543920&#45;&gt;60032512 -->
<g id="edge85" class="edge"><title>59543920&#45;&gt;60032512</title>
<path fill="none" stroke="black" d="M264.159,-35.3698C252.935,-60.2362 232.191,-106.193 219.02,-135.371"/>
<polygon fill="black" stroke="black" points="215.792,-134.014 214.868,-144.569 222.173,-136.894 215.792,-134.014"/>
</g>
<!-- 59543920&#45;&gt;59581664 -->
<g id="edge87" class="edge"><title>59543920&#45;&gt;59581664</title>
<path fill="none" stroke="black" d="M254.261,-31.8823C240.516,-42.6398 221.273,-57.6991 205.82,-69.7928"/>
<polygon fill="black" stroke="black" points="203.402,-67.2409 197.684,-76.1603 207.716,-72.7534 203.402,-67.2409"/>
</g>
<!-- 58863744 -->
<g id="node9" class="node"><title>58863744</title>
<ellipse fill="gold" stroke="black" cx="287" cy="-522" rx="27" ry="18"/>
</g>
<!-- 59718352 -->
<g id="node23" class="node"><title>59718352</title>
<ellipse fill="gold" stroke="black" cx="287" cy="-594" rx="27" ry="18"/>
</g>
<!-- 58863744&#45;&gt;59718352 -->
<g id="edge69" class="edge"><title>58863744&#45;&gt;59718352</title>
<path fill="none" stroke="black" d="M287,-540.169C287,-547.869 287,-557.026 287,-565.583"/>
<polygon fill="black" stroke="black" points="283.5,-565.587 287,-575.587 290.5,-565.587 283.5,-565.587"/>
</g>
<!-- 61024240 -->
<g id="node10" class="node"><title>61024240</title>
<ellipse fill="gold" stroke="black" cx="315" cy="-450" rx="27" ry="18"/>
</g>
<!-- 61024240&#45;&gt;58863744 -->
<g id="edge39" class="edge"><title>61024240&#45;&gt;58863744</title>
<path fill="none" stroke="black" d="M308.222,-467.429C305.013,-475.681 301.106,-485.726 297.524,-494.938"/>
<polygon fill="black" stroke="black" points="294.175,-493.893 293.813,-504.482 300.699,-496.43 294.175,-493.893"/>
</g>
<!-- 59392624 -->
<g id="node26" class="node"><title>59392624</title>
<ellipse fill="#63b8ff" stroke="black" cx="137" cy="-378" rx="27" ry="18"/>
</g>
<!-- 61024240&#45;&gt;59392624 -->
<g id="edge43" class="edge"><title>61024240&#45;&gt;59392624</title>
<path fill="none" stroke="black" stroke-dasharray="1,5" d="M291.724,-440.585C260.539,-427.971 205.035,-405.52 169.673,-391.216"/>
<polygon fill="black" stroke="black" points="170.853,-387.918 160.27,-387.413 168.228,-394.407 170.853,-387.918"/>
</g>
<!-- 58995920 -->
<g id="node11" class="node"><title>58995920</title>
<ellipse fill="#8f8f8f" stroke="black" cx="222" cy="-378" rx="27" ry="18"/>
</g>
<!-- 58995920&#45;&gt;58863744 -->
<g id="edge7" class="edge"><title>58995920&#45;&gt;58863744</title>
<path fill="none" stroke="black" d="M229.841,-395.37C241.065,-420.236 261.809,-466.193 274.98,-495.371"/>
<polygon fill="black" stroke="black" points="271.827,-496.894 279.132,-504.569 278.208,-494.014 271.827,-496.894"/>
</g>
<!-- 58995920&#45;&gt;61024240 -->
<g id="edge9" class="edge"><title>58995920&#45;&gt;61024240</title>
<path fill="none" stroke="black" d="M239.931,-391.882C253.826,-402.64 273.278,-417.699 288.899,-429.793"/>
<polygon fill="black" stroke="black" points="287.074,-432.806 297.124,-436.16 291.359,-427.271 287.074,-432.806"/>
</g>
<!-- 58799440 -->
<g id="node12" class="node"><title>58799440</title>
<ellipse fill="gold" stroke="black" cx="294" cy="-378" rx="27" ry="18"/>
</g>
<!-- 58799440&#45;&gt;58863744 -->
<g id="edge11" class="edge"><title>58799440&#45;&gt;58863744</title>
<path fill="none" stroke="black" d="M287.762,-395.745C284.432,-406.16 280.682,-419.66 279,-432 276.18,-452.691 278.456,-476.201 281.291,-494.002"/>
<polygon fill="black" stroke="black" points="277.871,-494.766 283.039,-504.015 284.767,-493.562 277.871,-494.766"/>
</g>
<!-- 58799440&#45;&gt;61024240 -->
<g id="edge13" class="edge"><title>58799440&#45;&gt;61024240</title>
<path fill="none" stroke="black" d="M299.191,-395.798C301.538,-403.846 304.366,-413.541 306.977,-422.493"/>
<polygon fill="black" stroke="black" points="303.636,-423.537 309.796,-432.157 310.356,-421.577 303.636,-423.537"/>
</g>
<!-- 58598656 -->
<g id="node13" class="node"><title>58598656</title>
<ellipse fill="#63b8ff" stroke="black" cx="294" cy="-306" rx="27" ry="18"/>
</g>
<!-- 58598656&#45;&gt;58799440 -->
<g id="edge29" class="edge"><title>58598656&#45;&gt;58799440</title>
<path fill="none" stroke="black" d="M294,-324.169C294,-331.869 294,-341.026 294,-349.583"/>
<polygon fill="black" stroke="black" points="290.5,-349.587 294,-359.587 297.5,-349.587 290.5,-349.587"/>
</g>
<!-- 58682784 -->
<g id="node14" class="node"><title>58682784</title>
<ellipse fill="#8f8f8f" stroke="black" cx="243" cy="-234" rx="27" ry="18"/>
</g>
<!-- 58682784&#45;&gt;58799440 -->
<g id="edge15" class="edge"><title>58682784&#45;&gt;58799440</title>
<path fill="none" stroke="black" d="M243.789,-252.185C245.107,-270.801 248.621,-300.284 258,-324 262.102,-334.373 268.415,-344.799 274.616,-353.686"/>
<polygon fill="black" stroke="black" points="271.966,-355.992 280.693,-362 277.618,-351.861 271.966,-355.992"/>
</g>
<!-- 58682784&#45;&gt;58598656 -->
<g id="edge17" class="edge"><title>58682784&#45;&gt;58598656</title>
<path fill="none" stroke="black" d="M254.573,-250.338C260.937,-259.323 268.972,-270.666 276.124,-280.764"/>
<polygon fill="black" stroke="black" points="273.483,-283.09 282.119,-289.227 279.195,-279.044 273.483,-283.09"/>
</g>
<!-- 58846304&#45;&gt;58799440 -->
<g id="edge19" class="edge"><title>58846304&#45;&gt;58799440</title>
<path fill="none" stroke="black" d="M322.59,-251.558C329.454,-269.923 337.436,-299.439 330,-324 326.734,-334.787 320.524,-345.389 314.169,-354.304"/>
<polygon fill="black" stroke="black" points="311.372,-352.2 308.123,-362.284 316.951,-356.427 311.372,-352.2"/>
</g>
<!-- 58846304&#45;&gt;58598656 -->
<g id="edge21" class="edge"><title>58846304&#45;&gt;58598656</title>
<path fill="none" stroke="black" d="M309.809,-251.798C307.462,-259.846 304.634,-269.541 302.023,-278.493"/>
<polygon fill="black" stroke="black" points="298.644,-277.577 299.204,-288.157 305.364,-279.537 298.644,-277.577"/>
</g>
<!-- 59036848 -->
<g id="node16" class="node"><title>59036848</title>
<ellipse fill="#8f8f8f" stroke="black" cx="387" cy="-234" rx="27" ry="18"/>
</g>
<!-- 59036848&#45;&gt;58799440 -->
<g id="edge25" class="edge"><title>59036848&#45;&gt;58799440</title>
<path fill="none" stroke="black" d="M380.652,-251.799C373.502,-270.622 360.794,-300.752 345,-324 337.109,-335.615 326.704,-347.119 317.351,-356.505"/>
<polygon fill="black" stroke="black" points="314.855,-354.05 310.144,-363.54 319.745,-359.06 314.855,-354.05"/>
</g>
<!-- 59036848&#45;&gt;58598656 -->
<g id="edge27" class="edge"><title>59036848&#45;&gt;58598656</title>
<path fill="none" stroke="black" d="M369.069,-247.882C355.174,-258.64 335.722,-273.699 320.101,-285.793"/>
<polygon fill="black" stroke="black" points="317.641,-283.271 311.876,-292.16 321.926,-288.806 317.641,-283.271"/>
</g>
<!-- 58570656 -->
<g id="node17" class="node"><title>58570656</title>
<ellipse fill="#8f8f8f" stroke="black" cx="366" cy="-378" rx="27" ry="18"/>
</g>
<!-- 58570656&#45;&gt;58863744 -->
<g id="edge31" class="edge"><title>58570656&#45;&gt;58863744</title>
<path fill="none" stroke="black" d="M366.557,-396.119C366.363,-415.21 363.774,-445.561 351,-468 342.702,-482.576 328.884,-494.982 316.207,-504.213"/>
<polygon fill="black" stroke="black" points="313.939,-501.526 307.695,-510.085 317.914,-507.288 313.939,-501.526"/>
</g>
<!-- 58570656&#45;&gt;61024240 -->
<g id="edge33" class="edge"><title>58570656&#45;&gt;61024240</title>
<path fill="none" stroke="black" d="M354.427,-394.338C348.063,-403.323 340.028,-414.666 332.876,-424.764"/>
<polygon fill="black" stroke="black" points="329.805,-423.044 326.881,-433.227 335.517,-427.09 329.805,-423.044"/>
</g>
<!-- 59044160 -->
<g id="node18" class="node"><title>59044160</title>
<ellipse fill="#8f8f8f" stroke="black" cx="438" cy="-378" rx="27" ry="18"/>
</g>
<!-- 59044160&#45;&gt;58863744 -->
<g id="edge35" class="edge"><title>59044160&#45;&gt;58863744</title>
<path fill="none" stroke="black" d="M427.958,-395.02C416.045,-414.264 394.778,-445.8 371,-468 354.962,-482.974 334.251,-496.341 317.407,-506.029"/>
<polygon fill="black" stroke="black" points="315.514,-503.078 308.502,-511.02 318.936,-509.185 315.514,-503.078"/>
</g>
<!-- 59044160&#45;&gt;61024240 -->
<g id="edge37" class="edge"><title>59044160&#45;&gt;61024240</title>
<path fill="none" stroke="black" d="M417.689,-389.889C397.659,-401.614 366.84,-419.654 344.189,-432.914"/>
<polygon fill="black" stroke="black" points="342.203,-430.021 335.341,-438.093 345.739,-436.062 342.203,-430.021"/>
</g>
<!-- 59642864 -->
<g id="node20" class="node"><title>59642864</title>
<ellipse fill="#63b8ff" stroke="black" cx="296" cy="-738" rx="27" ry="18"/>
</g>
<!-- 59605120 -->
<g id="node21" class="node"><title>59605120</title>
<ellipse fill="#63b8ff" stroke="black" cx="269" cy="-666" rx="27" ry="18"/>
</g>
<!-- 59605120&#45;&gt;59642864 -->
<g id="edge75" class="edge"><title>59605120&#45;&gt;59642864</title>
<path fill="none" stroke="black" d="M275.674,-683.798C278.748,-691.994 282.462,-701.898 285.87,-710.985"/>
<polygon fill="black" stroke="black" points="282.614,-712.273 289.403,-720.407 289.168,-709.815 282.614,-712.273"/>
</g>
<!-- 59680608 -->
<g id="node22" class="node"><title>59680608</title>
<ellipse fill="#8f8f8f" stroke="black" cx="214" cy="-594" rx="27" ry="18"/>
</g>
<!-- 59680608&#45;&gt;59642864 -->
<g id="edge61" class="edge"><title>59680608&#45;&gt;59642864</title>
<path fill="none" stroke="black" d="M214.445,-612.138C215.653,-631.244 219.726,-661.609 233,-684 241.475,-698.297 255.108,-710.675 267.527,-719.961"/>
<polygon fill="black" stroke="black" points="265.675,-722.938 275.853,-725.88 269.731,-717.233 265.675,-722.938"/>
</g>
<!-- 59680608&#45;&gt;59605120 -->
<g id="edge63" class="edge"><title>59680608&#45;&gt;59605120</title>
<path fill="none" stroke="black" d="M226.48,-610.338C233.512,-619.544 242.435,-631.224 250.288,-641.505"/>
<polygon fill="black" stroke="black" points="247.717,-643.905 256.569,-649.727 253.28,-639.655 247.717,-643.905"/>
</g>
<!-- 59718352&#45;&gt;59642864 -->
<g id="edge65" class="edge"><title>59718352&#45;&gt;59642864</title>
<path fill="none" stroke="black" d="M294.48,-611.636C298.474,-622.014 302.974,-635.514 305,-648 308.349,-668.635 305.781,-692.146 302.544,-709.963"/>
<polygon fill="black" stroke="black" points="299.069,-709.495 300.546,-719.986 305.934,-710.864 299.069,-709.495"/>
</g>
<!-- 59718352&#45;&gt;59605120 -->
<g id="edge67" class="edge"><title>59718352&#45;&gt;59605120</title>
<path fill="none" stroke="black" d="M282.551,-611.798C280.56,-619.759 278.167,-629.333 275.949,-638.204"/>
<polygon fill="black" stroke="black" points="272.491,-637.607 273.461,-648.157 279.282,-639.305 272.491,-637.607"/>
</g>
<!-- 59756096 -->
<g id="node24" class="node"><title>59756096</title>
<ellipse fill="#8f8f8f" stroke="black" cx="361" cy="-594" rx="27" ry="18"/>
</g>
<!-- 59756096&#45;&gt;59642864 -->
<g id="edge71" class="edge"><title>59756096&#45;&gt;59642864</title>
<path fill="none" stroke="black" d="M353.159,-611.37C341.935,-636.236 321.191,-682.193 308.02,-711.371"/>
<polygon fill="black" stroke="black" points="304.792,-710.014 303.868,-720.569 311.173,-712.894 304.792,-710.014"/>
</g>
<!-- 59756096&#45;&gt;59605120 -->
<g id="edge73" class="edge"><title>59756096&#45;&gt;59605120</title>
<path fill="none" stroke="black" d="M343.261,-607.882C329.516,-618.64 310.273,-633.699 294.82,-645.793"/>
<polygon fill="black" stroke="black" points="292.402,-643.241 286.684,-652.16 296.716,-648.753 292.402,-643.241"/>
</g>
<!-- 59392624&#45;&gt;58863744 -->
<g id="edge41" class="edge"><title>59392624&#45;&gt;58863744</title>
<path fill="none" stroke="black" d="M152.488,-392.868C178.986,-418.306 233.145,-470.299 264.047,-499.965"/>
<polygon fill="black" stroke="black" points="261.734,-502.597 271.372,-506.997 266.582,-497.547 261.734,-502.597"/>
</g>
<!-- 59356448 -->
<g id="node27" class="node"><title>59356448</title>
<ellipse fill="#63b8ff" stroke="black" cx="82" cy="-306" rx="27" ry="18"/>
</g>
<!-- 59356448&#45;&gt;59392624 -->
<g id="edge59" class="edge"><title>59356448&#45;&gt;59392624</title>
<path fill="none" stroke="black" d="M94.4804,-322.338C101.512,-331.544 110.435,-343.224 118.288,-353.505"/>
<polygon fill="black" stroke="black" points="115.717,-355.905 124.569,-361.727 121.28,-351.655 115.717,-355.905"/>
</g>
<!-- 59443824 -->
<g id="node28" class="node"><title>59443824</title>
<ellipse fill="#8f8f8f" stroke="black" cx="27" cy="-234" rx="27" ry="18"/>
</g>
<!-- 59443824&#45;&gt;59392624 -->
<g id="edge45" class="edge"><title>59443824&#45;&gt;59392624</title>
<path fill="none" stroke="black" d="M26.6883,-252.267C27.2398,-271.762 30.7477,-302.71 46,-324 60.0671,-343.636 83.6896,-357.346 103.341,-366.038"/>
<polygon fill="black" stroke="black" points="102.033,-369.285 112.61,-369.906 104.729,-362.825 102.033,-369.285"/>
</g>
<!-- 59443824&#45;&gt;59356448 -->
<g id="edge47" class="edge"><title>59443824&#45;&gt;59356448</title>
<path fill="none" stroke="black" d="M39.4804,-250.338C46.5124,-259.544 55.4347,-271.224 63.2883,-281.505"/>
<polygon fill="black" stroke="black" points="60.7172,-283.905 69.569,-289.727 66.28,-279.655 60.7172,-283.905"/>
</g>
<!-- 59480000&#45;&gt;59392624 -->
<g id="edge49" class="edge"><title>59480000&#45;&gt;59392624</title>
<path fill="none" stroke="black" d="M105.926,-251.813C109.818,-262.251 114.568,-275.751 118,-288 123.736,-308.471 128.644,-331.989 132.035,-349.849"/>
<polygon fill="black" stroke="black" points="128.634,-350.708 133.897,-359.903 135.517,-349.433 128.634,-350.708"/>
</g>
<!-- 59480000&#45;&gt;59356448 -->
<g id="edge51" class="edge"><title>59480000&#45;&gt;59356448</title>
<path fill="none" stroke="black" d="M94.7978,-251.798C92.9179,-259.759 90.6575,-269.333 88.5629,-278.204"/>
<polygon fill="black" stroke="black" points="85.1045,-277.621 86.2128,-288.157 91.9172,-279.229 85.1045,-277.621"/>
</g>
<!-- 59531200 -->
<g id="node30" class="node"><title>59531200</title>
<ellipse fill="#8f8f8f" stroke="black" cx="171" cy="-234" rx="27" ry="18"/>
</g>
<!-- 59531200&#45;&gt;59392624 -->
<g id="edge55" class="edge"><title>59531200&#45;&gt;59392624</title>
<path fill="none" stroke="black" d="M167.2,-251.972C163.307,-270.17 156.992,-299.101 151,-324 148.938,-332.569 146.573,-341.869 144.381,-350.298"/>
<polygon fill="black" stroke="black" points="140.977,-349.479 141.825,-360.039 147.748,-351.255 140.977,-349.479"/>
</g>
<!-- 59531200&#45;&gt;59356448 -->
<g id="edge57" class="edge"><title>59531200&#45;&gt;59356448</title>
<path fill="none" stroke="black" d="M153.416,-248.225C140.166,-258.944 121.815,-273.79 107.034,-285.748"/>
<polygon fill="black" stroke="black" points="104.817,-283.039 99.2442,-292.05 109.22,-288.481 104.817,-283.039"/>
</g>
</g>
</svg>
