<?xml version="1.0" encoding="UTF-8" standalone="no"?>
<!DOCTYPE svg PUBLIC "-//W3C//DTD SVG 1.1//EN"
 "http://www.w3.org/Graphics/SVG/1.1/DTD/svg11.dtd">
<!-- Generated by graphviz version 2.26.3 (20100126.1600)
 -->
<!-- Title: _anonymous_0 Pages: 1 -->
<svg width="3192pt" height="1444pt"
 viewBox="0.00 0.00 3192.00 1444.00" xmlns="http://www.w3.org/2000/svg" xmlns:xlink="http://www.w3.org/1999/xlink">
<g id="graph1" class="graph" transform="scale(1 1) rotate(0) translate(4 1440)">
<title>_anonymous_0</title>
<polygon fill="white" stroke="white" points="-4,5 -4,-1440 3189,-1440 3189,5 -4,5"/>
<g id="graph2" class="cluster"><title>cluster1</title>
<polygon fill="none" stroke="black" points="134,-46 134,-1428 2066,-1428 2066,-46 134,-46"/>
<text text-anchor="middle" x="1100" y="-57.4" font-family="Times Roman,serif" font-size="24.00">Venture Families</text>
</g>
<g id="graph3" class="cluster"><title>cluster2</title>
<polygon fill="none" stroke="black" points="1090,-91 1090,-456 2058,-456 2058,-91 1090,-91"/>
<text text-anchor="middle" x="1574" y="-102.4" font-family="Times Roman,serif" font-size="24.00">1</text>
</g>
<g id="graph4" class="cluster"><title>cluster3</title>
<polygon fill="none" stroke="black" points="142,-464 142,-1047 2058,-1047 2058,-464 142,-464"/>
<text text-anchor="middle" x="1100" y="-475.4" font-family="Times Roman,serif" font-size="24.00">2</text>
</g>
<g id="graph5" class="cluster"><title>cluster4</title>
<polygon fill="none" stroke="black" points="242,-1055 242,-1420 1198,-1420 1198,-1055 242,-1055"/>
<text text-anchor="middle" x="720" y="-1066.4" font-family="Times Roman,serif" font-size="24.00">3</text>
</g>
<g id="graph6" class="cluster"><title>cluster5</title>
<polygon fill="none" stroke="black" points="2208,-501 2208,-829 3176,-829 3176,-501 2208,-501"/>
</g>
<!-- 58182000 -->
<g id="node3" class="node"><title>58182000</title>
<ellipse fill="#8f8f8f" stroke="black" cx="1566" cy="-401" rx="300.02" ry="46.669"/>
<text text-anchor="middle" x="1566" y="-408.4" font-family="Times Roman,serif" font-size="24.00">exp: (gamma 1.000000 1.000000)</text>
<text text-anchor="middle" x="1566" y="-379.4" font-family="Times Roman,serif" font-size="24.00">value: 0.000671</text>
</g>
<!-- 56497664 -->
<g id="node15" class="node"><title>56497664</title>
<ellipse fill="#8f8f8f" stroke="black" cx="953" cy="-556" rx="149.2" ry="46.669"/>
<text text-anchor="middle" x="953" y="-563.4" font-family="Times Roman,serif" font-size="24.00">exp: x</text>
<text text-anchor="middle" x="953" y="-534.4" font-family="Times Roman,serif" font-size="24.00">value: 0.000671</text>
</g>
<!-- 58182000&#45;&gt;56497664 -->
<g id="edge79" class="edge"><title>58182000&#45;&gt;56497664</title>
<path fill="none" stroke="black" d="M1383.3,-437.907C1343.46,-444.875 1301.42,-451.408 1262,-456 1228.62,-459.888 1143.2,-454.388 1111,-464 1079.16,-473.504 1046.95,-490.617 1019.98,-507.527"/>
<polygon fill="black" stroke="black" points="1017.96,-504.665 1011.42,-513 1021.73,-510.563 1017.96,-504.665"/>
</g>
<!-- 56858176 -->
<g id="node29" class="node"><title>56858176</title>
<ellipse fill="#8f8f8f" stroke="black" cx="2365" cy="-556" rx="149.2" ry="46.669"/>
<text text-anchor="middle" x="2365" y="-563.4" font-family="Times Roman,serif" font-size="24.00">exp: x</text>
<text text-anchor="middle" x="2365" y="-534.4" font-family="Times Roman,serif" font-size="24.00">value: 0.000671</text>
</g>
<!-- 58182000&#45;&gt;56858176 -->
<g id="edge35" class="edge"><title>58182000&#45;&gt;56858176</title>
<path fill="none" stroke="black" d="M1747.45,-438.033C1787.66,-445.061 1830.15,-451.586 1870,-456 1954.89,-465.403 1977.8,-449.701 2062,-464 2129.26,-475.421 2202.51,-497.387 2260.13,-516.991"/>
<polygon fill="black" stroke="black" points="2259.01,-520.307 2269.61,-520.241 2261.29,-513.686 2259.01,-520.307"/>
</g>
<!-- 57820576 -->
<g id="node4" class="node"><title>57820576</title>
<ellipse fill="#8f8f8f" stroke="black" cx="1626" cy="-292" rx="99.9096" ry="26.163"/>
<text text-anchor="middle" x="1626" y="-284.9" font-family="Times Roman,serif" font-size="24.00">request: []</text>
</g>
<!-- 57820576&#45;&gt;58182000 -->
<g id="edge57" class="edge"><title>57820576&#45;&gt;58182000</title>
<path fill="none" stroke="black" d="M1611.78,-317.831C1607.16,-326.218 1601.85,-335.871 1596.52,-345.564"/>
<polygon fill="black" stroke="black" points="1593.39,-343.992 1591.63,-354.441 1599.52,-347.368 1593.39,-343.992"/>
</g>
<!-- 56189504 -->
<g id="node5" class="node"><title>56189504</title>
<ellipse fill="#8f8f8f" stroke="black" cx="1574" cy="-183" rx="159.806" ry="46.669"/>
<text text-anchor="middle" x="1574" y="-190.4" font-family="Times Roman,serif" font-size="24.00">exp: gamma</text>
<text text-anchor="middle" x="1574" y="-161.4" font-family="Times Roman,serif" font-size="24.00">value: sp:gamma</text>
</g>
<!-- 56189504&#45;&gt;58182000 -->
<g id="edge43" class="edge"><title>56189504&#45;&gt;58182000</title>
<path fill="none" stroke="black" d="M1535.8,-228.251C1528.09,-239.858 1521.09,-252.811 1517,-266 1510.15,-288.073 1510.91,-295.706 1517,-318 1519.55,-327.345 1523.46,-336.708 1527.97,-345.602"/>
<polygon fill="black" stroke="black" points="1525.04,-347.539 1532.86,-354.682 1531.2,-344.218 1525.04,-347.539"/>
</g>
<!-- 56189504&#45;&gt;57820576 -->
<g id="edge45" class="edge"><title>56189504&#45;&gt;57820576</title>
<path fill="none" stroke="black" d="M1596.05,-229.226C1600.48,-238.515 1605.07,-248.133 1609.29,-256.965"/>
<polygon fill="black" stroke="black" points="1606.22,-258.669 1613.69,-266.188 1612.54,-255.655 1606.22,-258.669"/>
</g>
<!-- 56908640 -->
<g id="node6" class="node"><title>56908640</title>
<ellipse fill="#8f8f8f" stroke="black" cx="1247" cy="-183" rx="149.2" ry="46.669"/>
<text text-anchor="middle" x="1247" y="-190.4" font-family="Times Roman,serif" font-size="24.00">exp: 1.000000</text>
<text text-anchor="middle" x="1247" y="-161.4" font-family="Times Roman,serif" font-size="24.00">value: 1.000000</text>
</g>
<!-- 56908640&#45;&gt;58182000 -->
<g id="edge49" class="edge"><title>56908640&#45;&gt;58182000</title>
<path fill="none" stroke="black" d="M1309.26,-225.55C1361.35,-261.144 1435.8,-312.024 1491.13,-349.835"/>
<polygon fill="black" stroke="black" points="1489.26,-352.798 1499.49,-355.551 1493.21,-347.019 1489.26,-352.798"/>
</g>
<!-- 56908640&#45;&gt;57820576 -->
<g id="edge51" class="edge"><title>56908640&#45;&gt;57820576</title>
<path fill="none" stroke="black" d="M1354.87,-215.334C1371.64,-220.289 1388.78,-225.312 1405,-230 1452.24,-243.651 1505.28,-258.546 1547.56,-270.315"/>
<polygon fill="black" stroke="black" points="1546.66,-273.698 1557.23,-273.006 1548.54,-266.954 1546.66,-273.698"/>
</g>
<!-- 57045648 -->
<g id="node7" class="node"><title>57045648</title>
<ellipse fill="#8f8f8f" stroke="black" cx="1901" cy="-183" rx="149.2" ry="46.669"/>
<text text-anchor="middle" x="1901" y="-190.4" font-family="Times Roman,serif" font-size="24.00">exp: 1.000000</text>
<text text-anchor="middle" x="1901" y="-161.4" font-family="Times Roman,serif" font-size="24.00">value: 1.000000</text>
</g>
<!-- 57045648&#45;&gt;58182000 -->
<g id="edge53" class="edge"><title>57045648&#45;&gt;58182000</title>
<path fill="none" stroke="black" d="M1852.75,-227.153C1820.76,-255.157 1777.07,-291.054 1735,-318 1715.94,-330.209 1694.82,-341.886 1674.16,-352.426"/>
<polygon fill="black" stroke="black" points="1672.38,-349.404 1665.02,-357.029 1675.53,-355.655 1672.38,-349.404"/>
</g>
<!-- 57045648&#45;&gt;57820576 -->
<g id="edge55" class="edge"><title>57045648&#45;&gt;57820576</title>
<path fill="none" stroke="black" d="M1808.66,-219.599C1770.01,-234.919 1726,-252.362 1690.87,-266.288"/>
<polygon fill="black" stroke="black" points="1689.21,-263.179 1681.21,-270.118 1691.79,-269.687 1689.21,-263.179"/>
</g>
<!-- 58525680 -->
<g id="node9" class="node"><title>58525680</title>
<ellipse fill="gold" stroke="black" cx="1142" cy="-992" rx="789.838" ry="46.669"/>
<text text-anchor="middle" x="1142" y="-999.4" font-family="Times Roman,serif" font-size="24.00">exp: (branch_exp (lt x 1.000000) (quote (gamma x 2.000000)) (quote (normal x 2.000000)))</text>
<text text-anchor="middle" x="1142" y="-970.4" font-family="Times Roman,serif" font-size="24.00">value: 0.000000</text>
</g>
<!-- 57032928 -->
<g id="node23" class="node"><title>57032928</title>
<ellipse fill="gold" stroke="black" cx="1041" cy="-1147" rx="149.2" ry="46.669"/>
<text text-anchor="middle" x="1041" y="-1154.4" font-family="Times Roman,serif" font-size="24.00">exp: y</text>
<text text-anchor="middle" x="1041" y="-1125.4" font-family="Times Roman,serif" font-size="24.00">value: 0.000000</text>
</g>
<!-- 58525680&#45;&gt;57032928 -->
<g id="edge17" class="edge"><title>58525680&#45;&gt;57032928</title>
<path fill="none" stroke="black" d="M1111.7,-1038.51C1100.56,-1055.59 1087.86,-1075.09 1076.32,-1092.8"/>
<polygon fill="black" stroke="black" points="1073.29,-1091.04 1070.76,-1101.33 1079.15,-1094.86 1073.29,-1091.04"/>
</g>
<!-- 57759056 -->
<g id="node10" class="node"><title>57759056</title>
<ellipse fill="#8f8f8f" stroke="black" cx="1142" cy="-883" rx="456.791" ry="26.163"/>
<text text-anchor="middle" x="1142" y="-875.9" font-family="Times Roman,serif" font-size="24.00">request: [(57759056, (gamma x 2.000000), &lt;env&gt;)]</text>
</g>
<!-- 57759056&#45;&gt;58525680 -->
<g id="edge95" class="edge"><title>57759056&#45;&gt;58525680</title>
<path fill="none" stroke="black" d="M1142,-909.108C1142,-916.979 1142,-925.946 1142,-935.005"/>
<polygon fill="black" stroke="black" points="1138.5,-935.218 1142,-945.218 1145.5,-935.218 1138.5,-935.218"/>
</g>
<!-- 57083392 -->
<g id="node11" class="node"><title>57083392</title>
<ellipse fill="#8f8f8f" stroke="black" cx="1292" cy="-774" rx="154.149" ry="46.669"/>
<text text-anchor="middle" x="1292" y="-781.4" font-family="Times Roman,serif" font-size="24.00">exp: branch_exp</text>
<text text-anchor="middle" x="1292" y="-752.4" font-family="Times Roman,serif" font-size="24.00">value: sp:branch</text>
</g>
<!-- 57083392&#45;&gt;58525680 -->
<g id="edge59" class="edge"><title>57083392&#45;&gt;58525680</title>
<path fill="none" stroke="black" d="M1390.44,-809.761C1411.57,-816.719 1433.89,-823.538 1455,-829 1521.92,-846.318 1563.74,-803.9 1608,-857 1622.8,-874.752 1622.84,-891.283 1608,-909 1594.59,-925.015 1568.12,-937.943 1534.31,-948.378"/>
<polygon fill="black" stroke="black" points="1533.18,-945.062 1524.58,-951.255 1535.17,-951.774 1533.18,-945.062"/>
</g>
<!-- 57083392&#45;&gt;57759056 -->
<g id="edge61" class="edge"><title>57083392&#45;&gt;57759056</title>
<path fill="none" stroke="black" d="M1232.72,-817.08C1217.25,-828.322 1200.84,-840.243 1186.3,-850.811"/>
<polygon fill="black" stroke="black" points="1184,-848.152 1177.97,-856.861 1188.12,-853.814 1184,-848.152"/>
</g>
<!-- 57534240 -->
<g id="node12" class="node"><title>57534240</title>
<ellipse fill="#8f8f8f" stroke="black" cx="942" cy="-774" rx="178.191" ry="46.669"/>
<text text-anchor="middle" x="942" y="-781.4" font-family="Times Roman,serif" font-size="24.00">exp: (lt x 1.000000)</text>
<text text-anchor="middle" x="942" y="-752.4" font-family="Times Roman,serif" font-size="24.00">value: #t</text>
</g>
<!-- 57534240&#45;&gt;58525680 -->
<g id="edge65" class="edge"><title>57534240&#45;&gt;58525680</title>
<path fill="none" stroke="black" d="M824.595,-808.967C754.462,-830.127 678.454,-853.663 676,-857 662.306,-875.617 661.16,-891.283 676,-909 689.415,-925.015 715.883,-937.943 749.69,-948.378"/>
<polygon fill="black" stroke="black" points="748.834,-951.774 759.416,-951.255 750.82,-945.062 748.834,-951.774"/>
</g>
<!-- 57534240&#45;&gt;57759056 -->
<g id="edge67" class="edge"><title>57534240&#45;&gt;57759056</title>
<path fill="none" stroke="black" d="M1019.04,-815.986C1041.18,-828.054 1064.91,-840.987 1085.56,-852.241"/>
<polygon fill="black" stroke="black" points="1084.06,-855.407 1094.51,-857.119 1087.41,-849.26 1084.06,-855.407"/>
</g>
<!-- 57499296 -->
<g id="node13" class="node"><title>57499296</title>
<ellipse fill="#8f8f8f" stroke="black" cx="1002" cy="-665" rx="99.9096" ry="26.163"/>
<text text-anchor="middle" x="1002" y="-657.9" font-family="Times Roman,serif" font-size="24.00">request: []</text>
</g>
<!-- 57499296&#45;&gt;57534240 -->
<g id="edge85" class="edge"><title>57499296&#45;&gt;57534240</title>
<path fill="none" stroke="black" d="M987.781,-690.831C983.111,-699.315 977.728,-709.093 972.331,-718.898"/>
<polygon fill="black" stroke="black" points="969.147,-717.425 967.391,-727.873 975.28,-720.8 969.147,-717.425"/>
</g>
<!-- 56365488 -->
<g id="node14" class="node"><title>56365488</title>
<ellipse fill="#8f8f8f" stroke="black" cx="677" cy="-556" rx="109.101" ry="46.669"/>
<text text-anchor="middle" x="677" y="-563.4" font-family="Times Roman,serif" font-size="24.00">exp: lt</text>
<text text-anchor="middle" x="677" y="-534.4" font-family="Times Roman,serif" font-size="24.00">value: sp:&lt;</text>
</g>
<!-- 56365488&#45;&gt;57534240 -->
<g id="edge69" class="edge"><title>56365488&#45;&gt;57534240</title>
<path fill="none" stroke="black" d="M727.468,-597.517C770.907,-633.252 833.74,-684.941 880.187,-723.15"/>
<polygon fill="black" stroke="black" points="878.13,-725.99 888.076,-729.64 882.577,-720.584 878.13,-725.99"/>
</g>
<!-- 56365488&#45;&gt;57499296 -->
<g id="edge71" class="edge"><title>56365488&#45;&gt;57499296</title>
<path fill="none" stroke="black" d="M755.663,-588.444C768.728,-593.512 782.192,-598.541 795,-603 836.97,-617.612 884.422,-631.977 923.295,-643.194"/>
<polygon fill="black" stroke="black" points="922.407,-646.581 932.985,-645.977 924.339,-639.853 922.407,-646.581"/>
</g>
<!-- 56497664&#45;&gt;57534240 -->
<g id="edge75" class="edge"><title>56497664&#45;&gt;57534240</title>
<path fill="none" stroke="black" d="M912.817,-601C904.694,-612.616 897.325,-625.636 893,-639 885.885,-660.989 886.91,-668.706 893,-691 895.613,-700.564 899.64,-710.147 904.289,-719.228"/>
<polygon fill="black" stroke="black" points="901.269,-721.002 909.114,-728.122 907.422,-717.664 901.269,-721.002"/>
</g>
<!-- 56497664&#45;&gt;57499296 -->
<g id="edge77" class="edge"><title>56497664&#45;&gt;57499296</title>
<path fill="none" stroke="black" d="M973.78,-602.226C977.918,-611.43 982.2,-620.956 986.141,-629.722"/>
<polygon fill="black" stroke="black" points="982.967,-631.197 990.259,-638.883 989.351,-628.327 982.967,-631.197"/>
</g>
<!-- 56100400 -->
<g id="node16" class="node"><title>56100400</title>
<ellipse fill="#8f8f8f" stroke="black" cx="1269" cy="-556" rx="149.2" ry="46.669"/>
<text text-anchor="middle" x="1269" y="-563.4" font-family="Times Roman,serif" font-size="24.00">exp: 1.000000</text>
<text text-anchor="middle" x="1269" y="-534.4" font-family="Times Roman,serif" font-size="24.00">value: 1.000000</text>
</g>
<!-- 56100400&#45;&gt;57534240 -->
<g id="edge81" class="edge"><title>56100400&#45;&gt;57534240</title>
<path fill="none" stroke="black" d="M1223.41,-600.342C1193.1,-628.423 1151.54,-664.333 1111,-691 1089.78,-704.955 1065.88,-718.084 1042.88,-729.603"/>
<polygon fill="black" stroke="black" points="1041.18,-726.534 1033.77,-734.103 1044.29,-732.81 1041.18,-726.534"/>
</g>
<!-- 56100400&#45;&gt;57499296 -->
<g id="edge83" class="edge"><title>56100400&#45;&gt;57499296</title>
<path fill="none" stroke="black" d="M1178.23,-593.055C1141.06,-608.23 1098.95,-625.422 1065.21,-639.195"/>
<polygon fill="black" stroke="black" points="1063.86,-635.964 1055.93,-642.984 1066.51,-642.445 1063.86,-635.964"/>
</g>
<!-- 56301184 -->
<g id="node17" class="node"><title>56301184</title>
<ellipse fill="#8f8f8f" stroke="black" cx="448" cy="-774" rx="297.899" ry="46.669"/>
<text text-anchor="middle" x="448" y="-781.4" font-family="Times Roman,serif" font-size="24.00">exp: (quote (gamma x 2.000000))</text>
<text text-anchor="middle" x="448" y="-752.4" font-family="Times Roman,serif" font-size="24.00">value: (gamma x 2.000000)</text>
</g>
<!-- 56301184&#45;&gt;58525680 -->
<g id="edge87" class="edge"><title>56301184&#45;&gt;58525680</title>
<path fill="none" stroke="black" d="M506.421,-819.741C547.651,-849.718 605.417,-887.248 662,-909 702.73,-924.658 746.541,-937.375 790.536,-947.702"/>
<polygon fill="black" stroke="black" points="789.99,-951.168 800.521,-950.004 791.563,-944.347 789.99,-951.168"/>
</g>
<!-- 56301184&#45;&gt;57759056 -->
<g id="edge89" class="edge"><title>56301184&#45;&gt;57759056</title>
<path fill="none" stroke="black" d="M640.232,-809.615C678.224,-816.321 717.836,-823.08 755,-829 818.433,-839.104 887.884,-849.121 950.223,-857.733"/>
<polygon fill="black" stroke="black" points="949.781,-861.205 960.165,-859.103 950.737,-854.27 949.781,-861.205"/>
</g>
<!-- 56184528 -->
<g id="node18" class="node"><title>56184528</title>
<ellipse fill="#8f8f8f" stroke="black" cx="1757" cy="-774" rx="292.949" ry="46.669"/>
<text text-anchor="middle" x="1757" y="-781.4" font-family="Times Roman,serif" font-size="24.00">exp: (quote (normal x 2.000000))</text>
<text text-anchor="middle" x="1757" y="-752.4" font-family="Times Roman,serif" font-size="24.00">value: (normal x 2.000000)</text>
</g>
<!-- 56184528&#45;&gt;58525680 -->
<g id="edge91" class="edge"><title>56184528&#45;&gt;58525680</title>
<path fill="none" stroke="black" d="M1722.03,-820.495C1696.78,-850.605 1660.02,-887.992 1619,-909 1590.96,-923.36 1538.45,-936.427 1478.21,-947.726"/>
<polygon fill="black" stroke="black" points="1477.27,-944.339 1468.07,-949.596 1478.54,-951.222 1477.27,-944.339"/>
</g>
<!-- 56184528&#45;&gt;57759056 -->
<g id="edge93" class="edge"><title>56184528&#45;&gt;57759056</title>
<path fill="none" stroke="black" d="M1565.34,-809.183C1528.72,-815.826 1490.68,-822.673 1455,-829 1403.59,-838.116 1347.39,-847.876 1296.97,-856.557"/>
<polygon fill="black" stroke="black" points="1296.23,-853.133 1286.97,-858.278 1297.42,-860.031 1296.23,-853.133"/>
</g>
<!-- 56266672 -->
<g id="node20" class="node"><title>56266672</title>
<ellipse fill="#63b8ff" stroke="black" cx="710" cy="-1365" rx="225.775" ry="46.669"/>
<text text-anchor="middle" x="710" y="-1372.4" font-family="Times Roman,serif" font-size="24.00">exp: (normal y 5.000000)</text>
<text text-anchor="middle" x="710" y="-1343.4" font-family="Times Roman,serif" font-size="24.00">value: 10.000000</text>
</g>
<!-- 58535664 -->
<g id="node21" class="node"><title>58535664</title>
<ellipse fill="#63b8ff" stroke="black" cx="770" cy="-1256" rx="99.9096" ry="26.163"/>
<text text-anchor="middle" x="770" y="-1248.9" font-family="Times Roman,serif" font-size="24.00">request: []</text>
</g>
<!-- 58535664&#45;&gt;56266672 -->
<g id="edge23" class="edge"><title>58535664&#45;&gt;56266672</title>
<path fill="none" stroke="black" d="M755.781,-1281.83C751.164,-1290.22 745.851,-1299.87 740.515,-1309.56"/>
<polygon fill="black" stroke="black" points="737.385,-1307.99 735.629,-1318.44 743.517,-1311.37 737.385,-1307.99"/>
</g>
<!-- 56981728 -->
<g id="node22" class="node"><title>56981728</title>
<ellipse fill="#8f8f8f" stroke="black" cx="720" cy="-1147" rx="154.149" ry="46.669"/>
<text text-anchor="middle" x="720" y="-1154.4" font-family="Times Roman,serif" font-size="24.00">exp: normal</text>
<text text-anchor="middle" x="720" y="-1125.4" font-family="Times Roman,serif" font-size="24.00">value: sp:normal</text>
</g>
<!-- 56981728&#45;&gt;56266672 -->
<g id="edge7" class="edge"><title>56981728&#45;&gt;56266672</title>
<path fill="none" stroke="black" d="M680.479,-1192.08C672.492,-1203.7 665.247,-1216.69 661,-1230 653.972,-1252.02 654.91,-1259.71 661,-1282 663.553,-1291.34 667.456,-1300.71 671.97,-1309.6"/>
<polygon fill="black" stroke="black" points="669.038,-1311.54 676.863,-1318.68 675.2,-1308.22 669.038,-1311.54"/>
</g>
<!-- 56981728&#45;&gt;58535664 -->
<g id="edge9" class="edge"><title>56981728&#45;&gt;58535664</title>
<path fill="none" stroke="black" d="M741.205,-1193.23C745.426,-1202.43 749.796,-1211.96 753.817,-1220.72"/>
<polygon fill="black" stroke="black" points="750.669,-1222.25 758.02,-1229.88 757.032,-1219.33 750.669,-1222.25"/>
</g>
<!-- 57032928&#45;&gt;56266672 -->
<g id="edge13" class="edge"><title>57032928&#45;&gt;56266672</title>
<path fill="none" stroke="black" d="M994.078,-1191.25C962.926,-1219.29 920.306,-1255.19 879,-1282 859.086,-1294.92 836.87,-1307.19 815.26,-1318.14"/>
<polygon fill="black" stroke="black" points="813.422,-1315.15 806.044,-1322.75 816.554,-1321.41 813.422,-1315.15"/>
</g>
<!-- 57032928&#45;&gt;58535664 -->
<g id="edge15" class="edge"><title>57032928&#45;&gt;58535664</title>
<path fill="none" stroke="black" d="M949.63,-1183.75C911.707,-1199 868.607,-1216.34 834.132,-1230.21"/>
<polygon fill="black" stroke="black" points="832.62,-1227.04 824.649,-1234.02 835.232,-1233.54 832.62,-1227.04"/>
</g>
<!-- 57069104 -->
<g id="node24" class="node"><title>57069104</title>
<ellipse fill="#8f8f8f" stroke="black" cx="399" cy="-1147" rx="149.2" ry="46.669"/>
<text text-anchor="middle" x="399" y="-1154.4" font-family="Times Roman,serif" font-size="24.00">exp: 5.000000</text>
<text text-anchor="middle" x="399" y="-1125.4" font-family="Times Roman,serif" font-size="24.00">value: 5.000000</text>
</g>
<!-- 57069104&#45;&gt;56266672 -->
<g id="edge19" class="edge"><title>57069104&#45;&gt;56266672</title>
<path fill="none" stroke="black" d="M459.702,-1189.55C510.712,-1225.31 583.729,-1276.49 637.744,-1314.35"/>
<polygon fill="black" stroke="black" points="636.046,-1317.44 646.244,-1320.31 640.064,-1311.7 636.046,-1317.44"/>
</g>
<!-- 57069104&#45;&gt;58535664 -->
<g id="edge21" class="edge"><title>57069104&#45;&gt;58535664</title>
<path fill="none" stroke="black" d="M506.915,-1179.19C523.678,-1184.17 540.802,-1189.23 557,-1194 602.056,-1207.26 652.518,-1221.95 693.013,-1233.71"/>
<polygon fill="black" stroke="black" points="692.239,-1237.13 702.818,-1236.55 694.19,-1230.41 692.239,-1237.13"/>
</g>
<!-- 56538592 -->
<g id="node26" class="node"><title>56538592</title>
<ellipse fill="firebrick" stroke="black" cx="2573" cy="-774" rx="231.224" ry="46.669"/>
<text text-anchor="middle" x="2573" y="-781.4" font-family="Times Roman,serif" font-size="24.00">exp: (gamma x 2.000000)</text>
<text text-anchor="middle" x="2573" y="-752.4" font-family="Times Roman,serif" font-size="24.00">value: 0.000000</text>
</g>
<!-- 56538592&#45;&gt;58525680 -->
<g id="edge97" class="edge"><title>56538592&#45;&gt;58525680</title>
<path fill="none" stroke="black" d="M2388.49,-802.109C2147.51,-838.82 1722.75,-903.528 1436.88,-947.077"/>
<polygon fill="black" stroke="black" points="1436.13,-943.651 1426.77,-948.618 1437.18,-950.572 1436.13,-943.651"/>
</g>
<!-- 56348048 -->
<g id="node27" class="node"><title>56348048</title>
<ellipse fill="#8f8f8f" stroke="black" cx="2692" cy="-665" rx="99.9096" ry="26.163"/>
<text text-anchor="middle" x="2692" y="-657.9" font-family="Times Roman,serif" font-size="24.00">request: []</text>
</g>
<!-- 56348048&#45;&gt;56538592 -->
<g id="edge41" class="edge"><title>56348048&#45;&gt;56538592</title>
<path fill="none" stroke="black" d="M2664.4,-690.281C2654.17,-699.655 2642.14,-710.667 2630.24,-721.569"/>
<polygon fill="black" stroke="black" points="2627.87,-718.991 2622.86,-728.327 2632.6,-724.153 2627.87,-718.991"/>
</g>
<!-- 56072400 -->
<g id="node28" class="node"><title>56072400</title>
<ellipse fill="#8f8f8f" stroke="black" cx="2692" cy="-556" rx="159.806" ry="46.669"/>
<text text-anchor="middle" x="2692" y="-563.4" font-family="Times Roman,serif" font-size="24.00">exp: gamma</text>
<text text-anchor="middle" x="2692" y="-534.4" font-family="Times Roman,serif" font-size="24.00">value: sp:gamma</text>
</g>
<!-- 56072400&#45;&gt;56538592 -->
<g id="edge25" class="edge"><title>56072400&#45;&gt;56538592</title>
<path fill="none" stroke="black" d="M2619.18,-597.603C2604.9,-609.158 2591.68,-623.005 2583,-639 2570.25,-662.513 2566.86,-691.804 2567.03,-717.087"/>
<polygon fill="black" stroke="black" points="2563.53,-717.375 2567.28,-727.284 2570.53,-717.199 2563.53,-717.375"/>
</g>
<!-- 56072400&#45;&gt;56348048 -->
<g id="edge27" class="edge"><title>56072400&#45;&gt;56348048</title>
<path fill="none" stroke="black" d="M2692,-602.542C2692,-611.249 2692,-620.232 2692,-628.578"/>
<polygon fill="black" stroke="black" points="2688.5,-628.739 2692,-638.739 2695.5,-628.739 2688.5,-628.739"/>
</g>
<!-- 56858176&#45;&gt;56538592 -->
<g id="edge31" class="edge"><title>56858176&#45;&gt;56538592</title>
<path fill="none" stroke="black" d="M2413.86,-599.959C2427.13,-612.332 2441.33,-625.973 2454,-639 2479.27,-664.984 2506.07,-695.138 2527.83,-720.349"/>
<polygon fill="black" stroke="black" points="2525.24,-722.704 2534.41,-728.004 2530.54,-718.14 2525.24,-722.704"/>
</g>
<!-- 56858176&#45;&gt;56348048 -->
<g id="edge33" class="edge"><title>56858176&#45;&gt;56348048</title>
<path fill="none" stroke="black" d="M2467.12,-590.04C2516.88,-606.625 2575.5,-626.168 2620.42,-641.14"/>
<polygon fill="black" stroke="black" points="2619.48,-644.518 2630.08,-644.36 2621.7,-637.877 2619.48,-644.518"/>
</g>
<!-- 56894352 -->
<g id="node30" class="node"><title>56894352</title>
<ellipse fill="#8f8f8f" stroke="black" cx="3019" cy="-556" rx="149.2" ry="46.669"/>
<text text-anchor="middle" x="3019" y="-563.4" font-family="Times Roman,serif" font-size="24.00">exp: 2.000000</text>
<text text-anchor="middle" x="3019" y="-534.4" font-family="Times Roman,serif" font-size="24.00">value: 2.000000</text>
</g>
<!-- 56894352&#45;&gt;56538592 -->
<g id="edge37" class="edge"><title>56894352&#45;&gt;56538592</title>
<path fill="none" stroke="black" d="M2957.98,-598.511C2915.3,-627.045 2856.27,-664.18 2801,-691 2770.65,-705.73 2736.97,-719.367 2705.02,-731.154"/>
<polygon fill="black" stroke="black" points="2703.8,-727.871 2695.61,-734.59 2706.2,-734.446 2703.8,-727.871"/>
</g>
<!-- 56894352&#45;&gt;56348048 -->
<g id="edge39" class="edge"><title>56894352&#45;&gt;56348048</title>
<path fill="none" stroke="black" d="M2916.88,-590.04C2867.12,-606.625 2808.5,-626.168 2763.58,-641.14"/>
<polygon fill="black" stroke="black" points="2762.3,-637.877 2753.92,-644.36 2764.52,-644.518 2762.3,-637.877"/>
</g>
<!-- 55960192 -->
<g id="node33" class="node"><title>55960192</title>
<ellipse fill="none" stroke="black" cx="63" cy="-992" rx="62.9325" ry="18.3848"/>
<text text-anchor="middle" x="63" y="-988.4" font-family="Times Roman,serif" font-size="14.00">55960192</text>
</g>
<!-- 55960192&#45;&gt;56981728 -->
<g id="edge11" class="edge"><title>55960192&#45;&gt;56981728</title>
<path fill="none" stroke="black" d="M80.5633,-1009.83C94.7043,-1022.85 115.82,-1039.5 138,-1047 182.113,-1061.91 512.079,-1042.74 557,-1055 590.239,-1064.07 623.906,-1081.41 651.945,-1098.61"/>
<polygon fill="black" stroke="black" points="650.125,-1101.6 660.459,-1103.94 653.836,-1095.67 650.125,-1101.6"/>
</g>
<!-- 49756480 -->
<g id="node43" class="node"><title>49756480</title>
<ellipse fill="none" stroke="black" cx="1981" cy="-19" rx="62.9325" ry="18.3848"/>
<text text-anchor="middle" x="1981" y="-15.4" font-family="Times Roman,serif" font-size="14.00">49756480</text>
</g>
<!-- 49756480&#45;&gt;56189504 -->
<g id="edge47" class="edge"><title>49756480&#45;&gt;56189504</title>
<path fill="none" stroke="black" d="M1918.64,-22.1153C1858.98,-25.804 1773.68,-33.1345 1743,-46 1697.21,-65.2021 1653.88,-100.81 1622.56,-130.911"/>
<polygon fill="black" stroke="black" points="1619.98,-128.543 1615.27,-138.033 1624.87,-133.552 1619.98,-128.543"/>
</g>
<!-- 49756480&#45;&gt;56072400 -->
<g id="edge29" class="edge"><title>49756480&#45;&gt;56072400</title>
<path fill="none" stroke="black" d="M2028.04,-31.5148C2039.49,-35.4106 2051.47,-40.2317 2062,-46 2301.3,-177.086 2539.52,-402.173 2641.01,-503.666"/>
<polygon fill="black" stroke="black" points="2638.83,-506.438 2648.37,-511.05 2643.79,-501.497 2638.83,-506.438"/>
</g>
<!-- 50723968 -->
<g id="node61" class="node"><title>50723968</title>
<ellipse fill="none" stroke="black" cx="2137" cy="-665" rx="62.9325" ry="18.3848"/>
<text text-anchor="middle" x="2137" y="-661.4" font-family="Times Roman,serif" font-size="14.00">50723968</text>
</g>
<!-- 50723968&#45;&gt;57083392 -->
<g id="edge63" class="edge"><title>50723968&#45;&gt;57083392</title>
<path fill="none" stroke="black" d="M2100.17,-680.02C2088.19,-684.294 2074.7,-688.471 2062,-691 1796.95,-743.756 1721.36,-681.282 1455,-727 1439.38,-729.682 1423.11,-733.314 1407.18,-737.378"/>
<polygon fill="black" stroke="black" points="1406.09,-734.044 1397.3,-739.959 1407.86,-740.816 1406.09,-734.044"/>
</g>
<!-- 48582672 -->
<g id="node67" class="node"><title>48582672</title>
<ellipse fill="none" stroke="black" cx="63" cy="-401" rx="62.9325" ry="18.3848"/>
<text text-anchor="middle" x="63" y="-397.4" font-family="Times Roman,serif" font-size="14.00">48582672</text>
</g>
<!-- 48582672&#45;&gt;56365488 -->
<g id="edge73" class="edge"><title>48582672&#45;&gt;56365488</title>
<path fill="none" stroke="black" d="M110.924,-413.098C209.841,-438.069 438.587,-495.814 573.068,-529.763"/>
<polygon fill="black" stroke="black" points="572.431,-533.212 582.984,-532.266 574.144,-526.425 572.431,-533.212"/>
</g>
</g>
</svg>
