<?xml version="1.0" encoding="UTF-8" standalone="no"?>
<!DOCTYPE svg PUBLIC "-//W3C//DTD SVG 1.1//EN"
 "http://www.w3.org/Graphics/SVG/1.1/DTD/svg11.dtd">
<!-- Generated by graphviz version 2.26.3 (20100126.1600)
 -->
<!-- Title: _anonymous_0 Pages: 1 -->
<svg width="295pt" height="764pt"
 viewBox="0.00 0.00 295.00 764.00" xmlns="http://www.w3.org/2000/svg" xmlns:xlink="http://www.w3.org/1999/xlink">
<g id="graph1" class="graph" transform="scale(1 1) rotate(0) translate(4 760)">
<title>_anonymous_0</title>
<polygon fill="white" stroke="white" points="-4,5 -4,-760 292,-760 292,5 -4,5"/>
<!-- 60032512 -->
<g id="node3" class="node"><title>60032512</title>
<ellipse fill="firebrick" stroke="black" cx="107" cy="-162" rx="27" ry="18"/>
</g>
<!-- 58846304 -->
<g id="node15" class="node"><title>58846304</title>
<ellipse fill="gold" stroke="black" cx="107" cy="-234" rx="27" ry="18"/>
</g>
<!-- 60032512&#45;&gt;58846304 -->
<g id="edge22" class="edge"><title>60032512&#45;&gt;58846304</title>
<path fill="none" stroke="black" d="M107,-180.169C107,-187.869 107,-197.026 107,-205.583"/>
<polygon fill="black" stroke="black" points="103.5,-205.587 107,-215.587 110.5,-205.587 103.5,-205.587"/>
</g>
<!-- 59581664 -->
<g id="node4" class="node"><title>59581664</title>
<ellipse fill="#8f8f8f" stroke="black" cx="80" cy="-90" rx="27" ry="18"/>
</g>
<!-- 59581664&#45;&gt;60032512 -->
<g id="edge68" class="edge"><title>59581664&#45;&gt;60032512</title>
<path fill="none" stroke="black" d="M86.6742,-107.798C89.7476,-115.994 93.4616,-125.898 96.8695,-134.985"/>
<polygon fill="black" stroke="black" points="93.6142,-136.273 100.403,-144.407 100.168,-133.815 93.6142,-136.273"/>
</g>
<!-- 60730192 -->
<g id="node5" class="node"><title>60730192</title>
<ellipse fill="#8f8f8f" stroke="black" cx="27" cy="-18" rx="27" ry="18"/>
</g>
<!-- 60730192&#45;&gt;60032512 -->
<g id="edge56" class="edge"><title>60730192&#45;&gt;60032512</title>
<path fill="none" stroke="black" d="M26.9622,-36.1202C27.6785,-55.212 31.0218,-85.5642 44,-108 52.3222,-122.387 65.9393,-134.774 78.3883,-144.042"/>
<polygon fill="black" stroke="black" points="76.5546,-147.032 86.7408,-149.946 80.5952,-141.316 76.5546,-147.032"/>
</g>
<!-- 60730192&#45;&gt;59581664 -->
<g id="edge58" class="edge"><title>60730192&#45;&gt;59581664</title>
<path fill="none" stroke="black" d="M39.0265,-34.3379C45.8029,-43.5436 54.4007,-55.2236 61.9687,-65.5047"/>
<polygon fill="black" stroke="black" points="59.2742,-67.7482 68.0211,-73.7267 64.9115,-63.5985 59.2742,-67.7482"/>
</g>
<!-- 58687760 -->
<g id="node6" class="node"><title>58687760</title>
<ellipse fill="#8f8f8f" stroke="black" cx="100" cy="-18" rx="27" ry="18"/>
</g>
<!-- 58687760&#45;&gt;60032512 -->
<g id="edge60" class="edge"><title>58687760&#45;&gt;60032512</title>
<path fill="none" stroke="black" d="M106.653,-35.7104C110.204,-46.1139 114.204,-59.6139 116,-72 119,-92.6881 116.447,-116.198 113.304,-134"/>
<polygon fill="black" stroke="black" points="109.83,-133.531 111.369,-144.013 116.702,-134.859 109.83,-133.531"/>
</g>
<!-- 58687760&#45;&gt;59581664 -->
<g id="edge62" class="edge"><title>58687760&#45;&gt;59581664</title>
<path fill="none" stroke="black" d="M95.0562,-35.7978C92.8206,-43.8459 90.1274,-53.5412 87.6407,-62.4933"/>
<polygon fill="black" stroke="black" points="84.2605,-61.5855 84.9563,-72.1575 91.0051,-63.459 84.2605,-61.5855"/>
</g>
<!-- 59543920 -->
<g id="node7" class="node"><title>59543920</title>
<ellipse fill="#8f8f8f" stroke="black" cx="172" cy="-18" rx="27" ry="18"/>
</g>
<!-- 59543920&#45;&gt;60032512 -->
<g id="edge64" class="edge"><title>59543920&#45;&gt;60032512</title>
<path fill="none" stroke="black" d="M164.159,-35.3698C152.935,-60.2362 132.191,-106.193 119.02,-135.371"/>
<polygon fill="black" stroke="black" points="115.792,-134.014 114.868,-144.569 122.173,-136.894 115.792,-134.014"/>
</g>
<!-- 59543920&#45;&gt;59581664 -->
<g id="edge66" class="edge"><title>59543920&#45;&gt;59581664</title>
<path fill="none" stroke="black" d="M154.261,-31.8823C140.516,-42.6398 121.273,-57.6991 105.82,-69.7928"/>
<polygon fill="black" stroke="black" points="103.402,-67.2409 97.6841,-76.1603 107.716,-72.7534 103.402,-67.2409"/>
</g>
<!-- 58863744 -->
<g id="node9" class="node"><title>58863744</title>
<ellipse fill="gold" stroke="black" cx="159" cy="-522" rx="27" ry="18"/>
</g>
<!-- 59718352 -->
<g id="node23" class="node"><title>59718352</title>
<ellipse fill="gold" stroke="black" cx="159" cy="-594" rx="27" ry="18"/>
</g>
<!-- 58863744&#45;&gt;59718352 -->
<g id="edge48" class="edge"><title>58863744&#45;&gt;59718352</title>
<path fill="none" stroke="black" d="M159,-540.169C159,-547.869 159,-557.026 159,-565.583"/>
<polygon fill="black" stroke="black" points="155.5,-565.587 159,-575.587 162.5,-565.587 155.5,-565.587"/>
</g>
<!-- 61024240 -->
<g id="node10" class="node"><title>61024240</title>
<ellipse fill="gold" stroke="black" cx="159" cy="-450" rx="27" ry="18"/>
</g>
<!-- 61024240&#45;&gt;58863744 -->
<g id="edge38" class="edge"><title>61024240&#45;&gt;58863744</title>
<path fill="none" stroke="black" d="M159,-468.169C159,-475.869 159,-485.026 159,-493.583"/>
<polygon fill="black" stroke="black" points="155.5,-493.587 159,-503.587 162.5,-493.587 155.5,-493.587"/>
</g>
<!-- 58995920 -->
<g id="node11" class="node"><title>58995920</title>
<ellipse fill="#8f8f8f" stroke="black" cx="44" cy="-378" rx="27" ry="18"/>
</g>
<!-- 58995920&#45;&gt;58863744 -->
<g id="edge6" class="edge"><title>58995920&#45;&gt;58863744</title>
<path fill="none" stroke="black" d="M55.687,-394.583C68.7405,-412.892 90.708,-443.075 111,-468 119.414,-478.335 129.112,-489.393 137.579,-498.794"/>
<polygon fill="black" stroke="black" points="135.033,-501.197 144.347,-506.248 140.216,-496.492 135.033,-501.197"/>
</g>
<!-- 58995920&#45;&gt;61024240 -->
<g id="edge8" class="edge"><title>58995920&#45;&gt;61024240</title>
<path fill="none" stroke="black" d="M63.7692,-390.377C82.1178,-401.865 109.644,-419.099 130.391,-432.088"/>
<polygon fill="black" stroke="black" points="128.771,-435.203 139.104,-437.543 132.485,-429.27 128.771,-435.203"/>
</g>
<!-- 58799440 -->
<g id="node12" class="node"><title>58799440</title>
<ellipse fill="gold" stroke="black" cx="116" cy="-378" rx="27" ry="18"/>
</g>
<!-- 58799440&#45;&gt;58863744 -->
<g id="edge10" class="edge"><title>58799440&#45;&gt;58863744</title>
<path fill="none" stroke="black" d="M114.771,-396.131C114.113,-414.703 114.757,-444.152 123,-468 126.644,-478.543 132.854,-489.007 139.099,-497.877"/>
<polygon fill="black" stroke="black" points="136.485,-500.227 145.264,-506.159 142.101,-496.047 136.485,-500.227"/>
</g>
<!-- 58799440&#45;&gt;61024240 -->
<g id="edge12" class="edge"><title>58799440&#45;&gt;61024240</title>
<path fill="none" stroke="black" d="M126.19,-395.063C131.385,-403.761 137.811,-414.52 143.595,-424.205"/>
<polygon fill="black" stroke="black" points="140.75,-426.269 148.883,-433.059 146.76,-422.679 140.75,-426.269"/>
</g>
<!-- 58598656 -->
<g id="node13" class="node"><title>58598656</title>
<ellipse fill="#63b8ff" stroke="black" cx="89" cy="-306" rx="27" ry="18"/>
</g>
<!-- 58598656&#45;&gt;58799440 -->
<g id="edge28" class="edge"><title>58598656&#45;&gt;58799440</title>
<path fill="none" stroke="black" d="M95.6742,-323.798C98.7476,-331.994 102.462,-341.898 105.87,-350.985"/>
<polygon fill="black" stroke="black" points="102.614,-352.273 109.403,-360.407 109.168,-349.815 102.614,-352.273"/>
</g>
<!-- 58682784 -->
<g id="node14" class="node"><title>58682784</title>
<ellipse fill="#8f8f8f" stroke="black" cx="34" cy="-234" rx="27" ry="18"/>
</g>
<!-- 58682784&#45;&gt;58799440 -->
<g id="edge14" class="edge"><title>58682784&#45;&gt;58799440</title>
<path fill="none" stroke="black" d="M34.4453,-252.138C35.653,-271.244 39.7263,-301.609 53,-324 61.4754,-338.297 75.1076,-350.675 87.527,-359.961"/>
<polygon fill="black" stroke="black" points="85.6748,-362.938 95.853,-365.88 89.731,-357.233 85.6748,-362.938"/>
</g>
<!-- 58682784&#45;&gt;58598656 -->
<g id="edge16" class="edge"><title>58682784&#45;&gt;58598656</title>
<path fill="none" stroke="black" d="M46.4804,-250.338C53.5124,-259.544 62.4347,-271.224 70.2883,-281.505"/>
<polygon fill="black" stroke="black" points="67.7172,-283.905 76.569,-289.727 73.28,-279.655 67.7172,-283.905"/>
</g>
<!-- 58846304&#45;&gt;58799440 -->
<g id="edge18" class="edge"><title>58846304&#45;&gt;58799440</title>
<path fill="none" stroke="black" d="M114.48,-251.636C118.474,-262.014 122.974,-275.514 125,-288 128.349,-308.635 125.781,-332.146 122.544,-349.963"/>
<polygon fill="black" stroke="black" points="119.069,-349.495 120.546,-359.986 125.934,-350.864 119.069,-349.495"/>
</g>
<!-- 58846304&#45;&gt;58598656 -->
<g id="edge20" class="edge"><title>58846304&#45;&gt;58598656</title>
<path fill="none" stroke="black" d="M102.551,-251.798C100.56,-259.759 98.1668,-269.333 95.9489,-278.204"/>
<polygon fill="black" stroke="black" points="92.4906,-277.607 93.4606,-288.157 99.2816,-279.305 92.4906,-277.607"/>
</g>
<!-- 59036848 -->
<g id="node16" class="node"><title>59036848</title>
<ellipse fill="#8f8f8f" stroke="black" cx="181" cy="-234" rx="27" ry="18"/>
</g>
<!-- 59036848&#45;&gt;58799440 -->
<g id="edge24" class="edge"><title>59036848&#45;&gt;58799440</title>
<path fill="none" stroke="black" d="M173.159,-251.37C161.935,-276.236 141.191,-322.193 128.02,-351.371"/>
<polygon fill="black" stroke="black" points="124.792,-350.014 123.868,-360.569 131.173,-352.894 124.792,-350.014"/>
</g>
<!-- 59036848&#45;&gt;58598656 -->
<g id="edge26" class="edge"><title>59036848&#45;&gt;58598656</title>
<path fill="none" stroke="black" d="M163.261,-247.882C149.516,-258.64 130.273,-273.699 114.82,-285.793"/>
<polygon fill="black" stroke="black" points="112.402,-283.241 106.684,-292.16 116.716,-288.753 112.402,-283.241"/>
</g>
<!-- 58570656 -->
<g id="node17" class="node"><title>58570656</title>
<ellipse fill="#8f8f8f" stroke="black" cx="188" cy="-378" rx="27" ry="18"/>
</g>
<!-- 58570656&#45;&gt;58863744 -->
<g id="edge30" class="edge"><title>58570656&#45;&gt;58863744</title>
<path fill="none" stroke="black" d="M193.197,-396.006C197.658,-414.479 202.312,-443.85 195,-468 191.734,-478.787 185.524,-489.389 179.169,-498.304"/>
<polygon fill="black" stroke="black" points="176.372,-496.2 173.123,-506.284 181.951,-500.427 176.372,-496.2"/>
</g>
<!-- 58570656&#45;&gt;61024240 -->
<g id="edge32" class="edge"><title>58570656&#45;&gt;61024240</title>
<path fill="none" stroke="black" d="M180.98,-395.429C177.656,-403.681 173.61,-413.726 169.9,-422.938"/>
<polygon fill="black" stroke="black" points="166.546,-421.898 166.056,-432.482 173.039,-424.514 166.546,-421.898"/>
</g>
<!-- 59044160 -->
<g id="node18" class="node"><title>59044160</title>
<ellipse fill="#8f8f8f" stroke="black" cx="260" cy="-378" rx="27" ry="18"/>
</g>
<!-- 59044160&#45;&gt;58863744 -->
<g id="edge34" class="edge"><title>59044160&#45;&gt;58863744</title>
<path fill="none" stroke="black" d="M251.978,-395.352C242.966,-414.064 227.317,-444.348 210,-468 201.705,-479.33 191.24,-490.791 181.951,-500.222"/>
<polygon fill="black" stroke="black" points="179.445,-497.779 174.817,-507.31 184.378,-502.744 179.445,-497.779"/>
</g>
<!-- 59044160&#45;&gt;61024240 -->
<g id="edge36" class="edge"><title>59044160&#45;&gt;61024240</title>
<path fill="none" stroke="black" d="M241.475,-391.206C225.912,-402.3 203.466,-418.301 185.919,-430.81"/>
<polygon fill="black" stroke="black" points="183.861,-427.979 177.75,-436.634 187.924,-433.679 183.861,-427.979"/>
</g>
<!-- 59642864 -->
<g id="node20" class="node"><title>59642864</title>
<ellipse fill="#63b8ff" stroke="black" cx="168" cy="-738" rx="27" ry="18"/>
</g>
<!-- 59605120 -->
<g id="node21" class="node"><title>59605120</title>
<ellipse fill="#63b8ff" stroke="black" cx="141" cy="-666" rx="27" ry="18"/>
</g>
<!-- 59605120&#45;&gt;59642864 -->
<g id="edge54" class="edge"><title>59605120&#45;&gt;59642864</title>
<path fill="none" stroke="black" d="M147.674,-683.798C150.748,-691.994 154.462,-701.898 157.87,-710.985"/>
<polygon fill="black" stroke="black" points="154.614,-712.273 161.403,-720.407 161.168,-709.815 154.614,-712.273"/>
</g>
<!-- 59680608 -->
<g id="node22" class="node"><title>59680608</title>
<ellipse fill="#8f8f8f" stroke="black" cx="86" cy="-594" rx="27" ry="18"/>
</g>
<!-- 59680608&#45;&gt;59642864 -->
<g id="edge40" class="edge"><title>59680608&#45;&gt;59642864</title>
<path fill="none" stroke="black" d="M86.4453,-612.138C87.653,-631.244 91.7263,-661.609 105,-684 113.475,-698.297 127.108,-710.675 139.527,-719.961"/>
<polygon fill="black" stroke="black" points="137.675,-722.938 147.853,-725.88 141.731,-717.233 137.675,-722.938"/>
</g>
<!-- 59680608&#45;&gt;59605120 -->
<g id="edge42" class="edge"><title>59680608&#45;&gt;59605120</title>
<path fill="none" stroke="black" d="M98.4804,-610.338C105.512,-619.544 114.435,-631.224 122.288,-641.505"/>
<polygon fill="black" stroke="black" points="119.717,-643.905 128.569,-649.727 125.28,-639.655 119.717,-643.905"/>
</g>
<!-- 59718352&#45;&gt;59642864 -->
<g id="edge44" class="edge"><title>59718352&#45;&gt;59642864</title>
<path fill="none" stroke="black" d="M166.48,-611.636C170.474,-622.014 174.974,-635.514 177,-648 180.349,-668.635 177.781,-692.146 174.544,-709.963"/>
<polygon fill="black" stroke="black" points="171.069,-709.495 172.546,-719.986 177.934,-710.864 171.069,-709.495"/>
</g>
<!-- 59718352&#45;&gt;59605120 -->
<g id="edge46" class="edge"><title>59718352&#45;&gt;59605120</title>
<path fill="none" stroke="black" d="M154.551,-611.798C152.56,-619.759 150.167,-629.333 147.949,-638.204"/>
<polygon fill="black" stroke="black" points="144.491,-637.607 145.461,-648.157 151.282,-639.305 144.491,-637.607"/>
</g>
<!-- 59756096 -->
<g id="node24" class="node"><title>59756096</title>
<ellipse fill="#8f8f8f" stroke="black" cx="233" cy="-594" rx="27" ry="18"/>
</g>
<!-- 59756096&#45;&gt;59642864 -->
<g id="edge50" class="edge"><title>59756096&#45;&gt;59642864</title>
<path fill="none" stroke="black" d="M225.159,-611.37C213.935,-636.236 193.191,-682.193 180.02,-711.371"/>
<polygon fill="black" stroke="black" points="176.792,-710.014 175.868,-720.569 183.173,-712.894 176.792,-710.014"/>
</g>
<!-- 59756096&#45;&gt;59605120 -->
<g id="edge52" class="edge"><title>59756096&#45;&gt;59605120</title>
<path fill="none" stroke="black" d="M215.261,-607.882C201.516,-618.64 182.273,-633.699 166.82,-645.793"/>
<polygon fill="black" stroke="black" points="164.402,-643.241 158.684,-652.16 168.716,-648.753 164.402,-643.241"/>
</g>
</g>
</svg>
