<?xml version="1.0" encoding="UTF-8" standalone="no"?>
<!DOCTYPE svg PUBLIC "-//W3C//DTD SVG 1.1//EN"
 "http://www.w3.org/Graphics/SVG/1.1/DTD/svg11.dtd">
<!-- Generated by graphviz version 2.26.3 (20100126.1600)
 -->
<!-- Title: _anonymous_0 Pages: 1 -->
<svg width="2058pt" height="1308pt"
 viewBox="0.00 0.00 2058.00 1308.00" xmlns="http://www.w3.org/2000/svg" xmlns:xlink="http://www.w3.org/1999/xlink">
<g id="graph1" class="graph" transform="scale(1 1) rotate(0) translate(4 1304)">
<title>_anonymous_0</title>
<polygon fill="white" stroke="white" points="-4,5 -4,-1304 2055,-1304 2055,5 -4,5"/>
<!-- 60032512 -->
<g id="node3" class="node"><title>60032512</title>
<ellipse fill="firebrick" stroke="black" cx="667" cy="-339" rx="300.02" ry="46.669"/>
<text text-anchor="middle" x="667" y="-346.4" font-family="Times Roman,serif" font-size="24.00">exp: (gamma 1.000000 1.000000)</text>
<text text-anchor="middle" x="667" y="-317.4" font-family="Times Roman,serif" font-size="24.00">value: </text>
</g>
<!-- 58846304 -->
<g id="node15" class="node"><title>58846304</title>
<ellipse fill="gold" stroke="black" cx="574" cy="-469" rx="68.7979" ry="46.669"/>
<text text-anchor="middle" x="574" y="-476.4" font-family="Times Roman,serif" font-size="24.00">exp: x</text>
<text text-anchor="middle" x="574" y="-447.4" font-family="Times Roman,serif" font-size="24.00">value: </text>
</g>
<!-- 60032512&#45;&gt;58846304 -->
<g id="edge26" class="edge"><title>60032512&#45;&gt;58846304</title>
<path fill="none" stroke="black" d="M633.688,-385.566C625.962,-396.364 617.708,-407.903 609.878,-418.848"/>
<polygon fill="black" stroke="black" points="606.961,-416.911 603.989,-427.08 612.654,-420.983 606.961,-416.911"/>
</g>
<!-- 59581664 -->
<g id="node4" class="node"><title>59581664</title>
<ellipse fill="#8f8f8f" stroke="black" cx="603" cy="-230" rx="99.9096" ry="26.163"/>
<text text-anchor="middle" x="603" y="-222.9" font-family="Times Roman,serif" font-size="24.00">request: []</text>
</g>
<!-- 59581664&#45;&gt;60032512 -->
<g id="edge76" class="edge"><title>59581664&#45;&gt;60032512</title>
<path fill="none" stroke="black" d="M618.167,-255.831C623.091,-264.218 628.759,-273.871 634.45,-283.564"/>
<polygon fill="black" stroke="black" points="631.581,-285.589 639.662,-292.441 637.617,-282.045 631.581,-285.589"/>
</g>
<!-- 60730192 -->
<g id="node5" class="node"><title>60730192</title>
<ellipse fill="#8f8f8f" stroke="black" cx="340" cy="-121" rx="159.806" ry="46.669"/>
<text text-anchor="middle" x="340" y="-128.4" font-family="Times Roman,serif" font-size="24.00">exp: gamma</text>
<text text-anchor="middle" x="340" y="-99.4" font-family="Times Roman,serif" font-size="24.00">value: sp:gamma</text>
</g>
<!-- 60730192&#45;&gt;60032512 -->
<g id="edge62" class="edge"><title>60730192&#45;&gt;60032512</title>
<path fill="none" stroke="black" d="M384.501,-165.872C413.911,-193.992 454.241,-229.749 494,-256 512.889,-268.471 533.938,-280.169 554.669,-290.626"/>
<polygon fill="black" stroke="black" points="553.331,-293.869 563.844,-295.185 556.446,-287.6 553.331,-293.869"/>
</g>
<!-- 60730192&#45;&gt;59581664 -->
<g id="edge64" class="edge"><title>60730192&#45;&gt;59581664</title>
<path fill="none" stroke="black" d="M431.985,-159.123C467.847,-173.986 508.031,-190.64 540.432,-204.069"/>
<polygon fill="black" stroke="black" points="539.21,-207.351 549.788,-207.946 541.89,-200.884 539.21,-207.351"/>
</g>
<!-- 58687760 -->
<g id="node6" class="node"><title>58687760</title>
<ellipse fill="#8f8f8f" stroke="black" cx="667" cy="-121" rx="149.2" ry="46.669"/>
<text text-anchor="middle" x="667" y="-128.4" font-family="Times Roman,serif" font-size="24.00">exp: 1.000000</text>
<text text-anchor="middle" x="667" y="-99.4" font-family="Times Roman,serif" font-size="24.00">value: 1.000000</text>
</g>
<!-- 58687760&#45;&gt;60032512 -->
<g id="edge68" class="edge"><title>58687760&#45;&gt;60032512</title>
<path fill="none" stroke="black" d="M696.992,-166.726C703.173,-178.418 708.776,-191.289 712,-204 717.682,-226.402 717.682,-233.598 712,-256 709.667,-265.198 706.088,-274.48 701.946,-283.338"/>
<polygon fill="black" stroke="black" points="698.762,-281.881 697.454,-292.395 705.033,-284.991 698.762,-281.881"/>
</g>
<!-- 58687760&#45;&gt;59581664 -->
<g id="edge70" class="edge"><title>58687760&#45;&gt;59581664</title>
<path fill="none" stroke="black" d="M640.044,-166.91C634.458,-176.423 628.663,-186.293 623.36,-195.324"/>
<polygon fill="black" stroke="black" points="620.294,-193.634 618.249,-204.029 626.33,-197.178 620.294,-193.634"/>
</g>
<!-- 59543920 -->
<g id="node7" class="node"><title>59543920</title>
<ellipse fill="#8f8f8f" stroke="black" cx="983" cy="-121" rx="149.2" ry="46.669"/>
<text text-anchor="middle" x="983" y="-128.4" font-family="Times Roman,serif" font-size="24.00">exp: 1.000000</text>
<text text-anchor="middle" x="983" y="-99.4" font-family="Times Roman,serif" font-size="24.00">value: 1.000000</text>
</g>
<!-- 59543920&#45;&gt;60032512 -->
<g id="edge72" class="edge"><title>59543920&#45;&gt;60032512</title>
<path fill="none" stroke="black" d="M921.322,-163.55C869.727,-199.144 795.974,-250.024 741.166,-287.835"/>
<polygon fill="black" stroke="black" points="739.124,-284.991 732.88,-293.551 743.099,-290.753 739.124,-284.991"/>
</g>
<!-- 59543920&#45;&gt;59581664 -->
<g id="edge74" class="edge"><title>59543920&#45;&gt;59581664</title>
<path fill="none" stroke="black" d="M875.557,-153.224C858.652,-158.218 841.361,-163.282 825,-168 777.557,-181.68 724.275,-196.576 681.804,-208.338"/>
<polygon fill="black" stroke="black" points="680.788,-204.988 672.083,-211.028 682.655,-211.734 680.788,-204.988"/>
</g>
<!-- 58863744 -->
<g id="node9" class="node"><title>58863744</title>
<ellipse fill="gold" stroke="black" cx="934" cy="-905" rx="789.838" ry="46.669"/>
<text text-anchor="middle" x="934" y="-912.4" font-family="Times Roman,serif" font-size="24.00">exp: (branch_exp (lt x 1.000000) (quote (gamma x 2.000000)) (quote (normal x 2.000000)))</text>
<text text-anchor="middle" x="934" y="-883.4" font-family="Times Roman,serif" font-size="24.00">value: </text>
</g>
<!-- 59718352 -->
<g id="node23" class="node"><title>59718352</title>
<ellipse fill="gold" stroke="black" cx="659" cy="-1035" rx="149.2" ry="46.669"/>
<text text-anchor="middle" x="659" y="-1042.4" font-family="Times Roman,serif" font-size="24.00">exp: y</text>
<text text-anchor="middle" x="659" y="-1013.4" font-family="Times Roman,serif" font-size="24.00">value: 1.157948</text>
</g>
<!-- 58863744&#45;&gt;59718352 -->
<g id="edge54" class="edge"><title>58863744&#45;&gt;59718352</title>
<path fill="none" stroke="black" d="M836.271,-951.199C808.392,-964.378 778.126,-978.686 750.626,-991.686"/>
<polygon fill="black" stroke="black" points="748.958,-988.603 741.413,-996.041 751.95,-994.932 748.958,-988.603"/>
</g>
<!-- 61024240 -->
<g id="node10" class="node"><title>61024240</title>
<ellipse fill="gold" stroke="black" cx="934" cy="-796" rx="87.1802" ry="26.163"/>
<text text-anchor="middle" x="934" y="-788.9" font-family="Times Roman,serif" font-size="24.00">request: </text>
</g>
<!-- 61024240&#45;&gt;58863744 -->
<g id="edge42" class="edge"><title>61024240&#45;&gt;58863744</title>
<path fill="none" stroke="black" d="M934,-822.108C934,-829.979 934,-838.946 934,-848.005"/>
<polygon fill="black" stroke="black" points="930.5,-848.218 934,-858.218 937.5,-848.218 930.5,-848.218"/>
</g>
<!-- 58995920 -->
<g id="node11" class="node"><title>58995920</title>
<ellipse fill="#8f8f8f" stroke="black" cx="304" cy="-687" rx="154.149" ry="46.669"/>
<text text-anchor="middle" x="304" y="-694.4" font-family="Times Roman,serif" font-size="24.00">exp: branch_exp</text>
<text text-anchor="middle" x="304" y="-665.4" font-family="Times Roman,serif" font-size="24.00">value: sp:branch</text>
</g>
<!-- 58995920&#45;&gt;58863744 -->
<g id="edge6" class="edge"><title>58995920&#45;&gt;58863744</title>
<path fill="none" stroke="black" d="M405.57,-722.147C510.173,-758.343 674.058,-815.052 791.582,-855.719"/>
<polygon fill="black" stroke="black" points="790.787,-859.147 801.382,-859.11 793.076,-852.532 790.787,-859.147"/>
</g>
<!-- 58995920&#45;&gt;61024240 -->
<g id="edge8" class="edge"><title>58995920&#45;&gt;61024240</title>
<path fill="none" stroke="black" d="M411.277,-720.379C429.745,-725.421 448.839,-730.198 467,-734 595.022,-760.8 745.34,-778.312 840.137,-787.681"/>
<polygon fill="black" stroke="black" points="839.981,-791.182 850.274,-788.673 840.662,-784.216 839.981,-791.182"/>
</g>
<!-- 58799440 -->
<g id="node12" class="node"><title>58799440</title>
<ellipse fill="gold" stroke="black" cx="654" cy="-687" rx="178.191" ry="46.669"/>
<text text-anchor="middle" x="654" y="-694.4" font-family="Times Roman,serif" font-size="24.00">exp: (lt x 1.000000)</text>
<text text-anchor="middle" x="654" y="-665.4" font-family="Times Roman,serif" font-size="24.00">value: </text>
</g>
<!-- 58799440&#45;&gt;58863744 -->
<g id="edge12" class="edge"><title>58799440&#45;&gt;58863744</title>
<path fill="none" stroke="black" d="M710.662,-731.116C755.527,-766.046 818.344,-814.954 865.935,-852.006"/>
<polygon fill="black" stroke="black" points="863.994,-854.931 874.035,-858.313 868.295,-849.408 863.994,-854.931"/>
</g>
<!-- 58799440&#45;&gt;61024240 -->
<g id="edge14" class="edge"><title>58799440&#45;&gt;61024240</title>
<path fill="none" stroke="black" d="M753.506,-725.736C792.73,-741.006 836.595,-758.082 871.259,-771.576"/>
<polygon fill="black" stroke="black" points="870.192,-774.916 880.781,-775.283 872.732,-768.393 870.192,-774.916"/>
</g>
<!-- 58598656 -->
<g id="node13" class="node"><title>58598656</title>
<ellipse fill="#63b8ff" stroke="black" cx="542" cy="-578" rx="99.9096" ry="26.163"/>
<text text-anchor="middle" x="542" y="-570.9" font-family="Times Roman,serif" font-size="24.00">request: []</text>
</g>
<!-- 58598656&#45;&gt;58799440 -->
<g id="edge32" class="edge"><title>58598656&#45;&gt;58799440</title>
<path fill="none" stroke="black" d="M567.977,-603.281C577.624,-612.67 588.96,-623.702 600.179,-634.62"/>
<polygon fill="black" stroke="black" points="597.908,-637.294 607.515,-641.761 602.79,-632.278 597.908,-637.294"/>
</g>
<!-- 58682784 -->
<g id="node14" class="node"><title>58682784</title>
<ellipse fill="#8f8f8f" stroke="black" cx="378" cy="-469" rx="109.101" ry="46.669"/>
<text text-anchor="middle" x="378" y="-476.4" font-family="Times Roman,serif" font-size="24.00">exp: lt</text>
<text text-anchor="middle" x="378" y="-447.4" font-family="Times Roman,serif" font-size="24.00">value: sp:&lt;</text>
</g>
<!-- 58682784&#45;&gt;58799440 -->
<g id="edge16" class="edge"><title>58682784&#45;&gt;58799440</title>
<path fill="none" stroke="black" d="M387.006,-515.646C394.762,-544.474 408.691,-580.353 433,-604 454.577,-624.99 481.965,-640.767 510.052,-652.596"/>
<polygon fill="black" stroke="black" points="509.014,-655.951 519.597,-656.458 511.64,-649.462 509.014,-655.951"/>
</g>
<!-- 58682784&#45;&gt;58598656 -->
<g id="edge18" class="edge"><title>58682784&#45;&gt;58598656</title>
<path fill="none" stroke="black" d="M437.208,-508.352C456.762,-521.348 478.194,-535.593 496.553,-547.795"/>
<polygon fill="black" stroke="black" points="495.032,-550.986 505.297,-553.606 498.906,-545.156 495.032,-550.986"/>
</g>
<!-- 58846304&#45;&gt;58799440 -->
<g id="edge22" class="edge"><title>58846304&#45;&gt;58799440</title>
<path fill="none" stroke="black" d="M618.331,-505.245C631.312,-518.469 643.912,-534.512 651,-552 660.907,-576.442 662.685,-605.473 661.567,-630.34"/>
<polygon fill="black" stroke="black" points="658.072,-630.162 660.954,-640.358 665.058,-630.59 658.072,-630.162"/>
</g>
<!-- 58846304&#45;&gt;58598656 -->
<g id="edge24" class="edge"><title>58846304&#45;&gt;58598656</title>
<path fill="none" stroke="black" d="M560.522,-514.91C557.846,-524.026 555.073,-533.471 552.513,-542.191"/>
<polygon fill="black" stroke="black" points="549.083,-541.448 549.624,-552.029 555.8,-543.42 549.083,-541.448"/>
</g>
<!-- 59036848 -->
<g id="node16" class="node"><title>59036848</title>
<ellipse fill="#8f8f8f" stroke="black" cx="810" cy="-469" rx="149.2" ry="46.669"/>
<text text-anchor="middle" x="810" y="-476.4" font-family="Times Roman,serif" font-size="24.00">exp: 1.000000</text>
<text text-anchor="middle" x="810" y="-447.4" font-family="Times Roman,serif" font-size="24.00">value: 1.000000</text>
</g>
<!-- 59036848&#45;&gt;58799440 -->
<g id="edge28" class="edge"><title>59036848&#45;&gt;58799440</title>
<path fill="none" stroke="black" d="M777.487,-514.435C752.852,-548.86 718.912,-596.29 692.847,-632.714"/>
<polygon fill="black" stroke="black" points="689.712,-631.08 686.739,-641.249 695.405,-635.154 689.712,-631.08"/>
</g>
<!-- 59036848&#45;&gt;58598656 -->
<g id="edge30" class="edge"><title>59036848&#45;&gt;58598656</title>
<path fill="none" stroke="black" d="M719.267,-505.902C681.791,-521.145 639.255,-538.445 605.246,-552.277"/>
<polygon fill="black" stroke="black" points="603.836,-549.072 595.891,-556.082 606.473,-555.556 603.836,-549.072"/>
</g>
<!-- 58570656 -->
<g id="node17" class="node"><title>58570656</title>
<ellipse fill="#8f8f8f" stroke="black" cx="1148" cy="-687" rx="297.899" ry="46.669"/>
<text text-anchor="middle" x="1148" y="-694.4" font-family="Times Roman,serif" font-size="24.00">exp: (quote (gamma x 2.000000))</text>
<text text-anchor="middle" x="1148" y="-665.4" font-family="Times Roman,serif" font-size="24.00">value: (gamma x 2.000000)</text>
</g>
<!-- 58570656&#45;&gt;58863744 -->
<g id="edge34" class="edge"><title>58570656&#45;&gt;58863744</title>
<path fill="none" stroke="black" d="M1110.19,-733.426C1087.75,-760.152 1058.25,-793.902 1030,-822 1019.97,-831.973 1008.94,-842.163 998.034,-851.833"/>
<polygon fill="black" stroke="black" points="995.72,-849.207 990.518,-858.437 1000.34,-854.466 995.72,-849.207"/>
</g>
<!-- 58570656&#45;&gt;61024240 -->
<g id="edge36" class="edge"><title>58570656&#45;&gt;61024240</title>
<path fill="none" stroke="black" d="M1060.65,-731.492C1035.76,-744.168 1009.41,-757.591 987.221,-768.892"/>
<polygon fill="black" stroke="black" points="985.625,-765.777 978.303,-773.435 988.802,-772.015 985.625,-765.777"/>
</g>
<!-- 59044160 -->
<g id="node18" class="node"><title>59044160</title>
<ellipse fill="#8f8f8f" stroke="black" cx="1757" cy="-687" rx="292.949" ry="46.669"/>
<text text-anchor="middle" x="1757" y="-694.4" font-family="Times Roman,serif" font-size="24.00">exp: (quote (normal x 2.000000))</text>
<text text-anchor="middle" x="1757" y="-665.4" font-family="Times Roman,serif" font-size="24.00">value: (normal x 2.000000)</text>
</g>
<!-- 59044160&#45;&gt;58863744 -->
<g id="edge38" class="edge"><title>59044160&#45;&gt;58863744</title>
<path fill="none" stroke="black" d="M1606.05,-726.985C1467.81,-763.603 1262.92,-817.875 1115.74,-856.86"/>
<polygon fill="black" stroke="black" points="1114.46,-853.579 1105.69,-859.523 1116.25,-860.346 1114.46,-853.579"/>
</g>
<!-- 59044160&#45;&gt;61024240 -->
<g id="edge40" class="edge"><title>59044160&#45;&gt;61024240</title>
<path fill="none" stroke="black" d="M1550.83,-720.098C1518.78,-724.951 1486.02,-729.742 1455,-734 1305.22,-754.56 1130.66,-774.522 1026.41,-786.018"/>
<polygon fill="black" stroke="black" points="1025.79,-782.565 1016.23,-787.138 1026.55,-789.523 1025.79,-782.565"/>
</g>
<!-- 59642864 -->
<g id="node20" class="node"><title>59642864</title>
<ellipse fill="#63b8ff" stroke="black" cx="659" cy="-1253" rx="225.775" ry="46.669"/>
<text text-anchor="middle" x="659" y="-1260.4" font-family="Times Roman,serif" font-size="24.00">exp: (normal y 5.000000)</text>
<text text-anchor="middle" x="659" y="-1231.4" font-family="Times Roman,serif" font-size="24.00">value: 10.000000</text>
</g>
<!-- 59605120 -->
<g id="node21" class="node"><title>59605120</title>
<ellipse fill="#63b8ff" stroke="black" cx="595" cy="-1144" rx="99.9096" ry="26.163"/>
<text text-anchor="middle" x="595" y="-1136.9" font-family="Times Roman,serif" font-size="24.00">request: []</text>
</g>
<!-- 59605120&#45;&gt;59642864 -->
<g id="edge60" class="edge"><title>59605120&#45;&gt;59642864</title>
<path fill="none" stroke="black" d="M610.167,-1169.83C615.091,-1178.22 620.759,-1187.87 626.45,-1197.56"/>
<polygon fill="black" stroke="black" points="623.581,-1199.59 631.662,-1206.44 629.617,-1196.05 623.581,-1199.59"/>
</g>
<!-- 59680608 -->
<g id="node22" class="node"><title>59680608</title>
<ellipse fill="#8f8f8f" stroke="black" cx="338" cy="-1035" rx="154.149" ry="46.669"/>
<text text-anchor="middle" x="338" y="-1042.4" font-family="Times Roman,serif" font-size="24.00">exp: normal</text>
<text text-anchor="middle" x="338" y="-1013.4" font-family="Times Roman,serif" font-size="24.00">value: sp:normal</text>
</g>
<!-- 59680608&#45;&gt;59642864 -->
<g id="edge44" class="edge"><title>59680608&#45;&gt;59642864</title>
<path fill="none" stroke="black" d="M380.477,-1080C408.626,-1108.17 447.365,-1143.94 486,-1170 505.904,-1183.43 528.312,-1195.87 550.237,-1206.82"/>
<polygon fill="black" stroke="black" points="548.746,-1209.99 559.264,-1211.26 551.836,-1203.71 548.746,-1209.99"/>
</g>
<!-- 59680608&#45;&gt;59605120 -->
<g id="edge46" class="edge"><title>59680608&#45;&gt;59605120</title>
<path fill="none" stroke="black" d="M427.525,-1072.97C462.315,-1087.73 501.315,-1104.27 532.921,-1117.67"/>
<polygon fill="black" stroke="black" points="531.907,-1121.04 542.479,-1121.72 534.64,-1114.6 531.907,-1121.04"/>
</g>
<!-- 59718352&#45;&gt;59642864 -->
<g id="edge50" class="edge"><title>59718352&#45;&gt;59642864</title>
<path fill="none" stroke="black" d="M688.992,-1080.73C695.173,-1092.42 700.776,-1105.29 704,-1118 709.682,-1140.4 709.682,-1147.6 704,-1170 701.637,-1179.32 697.996,-1188.72 693.786,-1197.68"/>
<polygon fill="black" stroke="black" points="690.551,-1196.32 689.223,-1206.83 696.816,-1199.45 690.551,-1196.32"/>
</g>
<!-- 59718352&#45;&gt;59605120 -->
<g id="edge52" class="edge"><title>59718352&#45;&gt;59605120</title>
<path fill="none" stroke="black" d="M632.044,-1080.91C626.458,-1090.42 620.663,-1100.29 615.36,-1109.32"/>
<polygon fill="black" stroke="black" points="612.294,-1107.63 610.249,-1118.03 618.33,-1111.18 612.294,-1107.63"/>
</g>
<!-- 59756096 -->
<g id="node24" class="node"><title>59756096</title>
<ellipse fill="#8f8f8f" stroke="black" cx="975" cy="-1035" rx="149.2" ry="46.669"/>
<text text-anchor="middle" x="975" y="-1042.4" font-family="Times Roman,serif" font-size="24.00">exp: 5.000000</text>
<text text-anchor="middle" x="975" y="-1013.4" font-family="Times Roman,serif" font-size="24.00">value: 5.000000</text>
</g>
<!-- 59756096&#45;&gt;59642864 -->
<g id="edge56" class="edge"><title>59756096&#45;&gt;59642864</title>
<path fill="none" stroke="black" d="M913.322,-1077.55C861.386,-1113.38 786.996,-1164.7 732.079,-1202.58"/>
<polygon fill="black" stroke="black" points="730.025,-1199.75 723.781,-1208.31 734,-1205.51 730.025,-1199.75"/>
</g>
<!-- 59756096&#45;&gt;59605120 -->
<g id="edge58" class="edge"><title>59756096&#45;&gt;59605120</title>
<path fill="none" stroke="black" d="M867.557,-1067.22C850.652,-1072.22 833.361,-1077.28 817,-1082 769.557,-1095.68 716.275,-1110.58 673.804,-1122.34"/>
<polygon fill="black" stroke="black" points="672.788,-1118.99 664.083,-1125.03 674.655,-1125.73 672.788,-1118.99"/>
</g>
<!-- 54033488 -->
<g id="node27" class="node"><title>54033488</title>
<ellipse fill="none" stroke="black" cx="304" cy="-578" rx="62.9325" ry="18.3848"/>
<text text-anchor="middle" x="304" y="-574.4" font-family="Times Roman,serif" font-size="14.00">54033488</text>
</g>
<!-- 54033488&#45;&gt;58995920 -->
<g id="edge10" class="edge"><title>54033488&#45;&gt;58995920</title>
<path fill="none" stroke="black" d="M304,-596.986C304,-606.326 304,-618.131 304,-630.09"/>
<polygon fill="black" stroke="black" points="300.5,-630.122 304,-640.122 307.5,-630.122 300.5,-630.122"/>
</g>
<!-- 54474816 -->
<g id="node33" class="node"><title>54474816</title>
<ellipse fill="none" stroke="black" cx="286" cy="-339" rx="62.9325" ry="18.3848"/>
<text text-anchor="middle" x="286" y="-335.4" font-family="Times Roman,serif" font-size="14.00">54474816</text>
</g>
<!-- 54474816&#45;&gt;58682784 -->
<g id="edge20" class="edge"><title>54474816&#45;&gt;58682784</title>
<path fill="none" stroke="black" d="M298.986,-357.35C309.83,-372.673 325.848,-395.307 340.632,-416.198"/>
<polygon fill="black" stroke="black" points="337.806,-418.263 346.439,-424.403 343.52,-414.219 337.806,-418.263"/>
</g>
<!-- 52690128 -->
<g id="node48" class="node"><title>52690128</title>
<ellipse fill="none" stroke="black" cx="63" cy="-905" rx="62.9325" ry="18.3848"/>
<text text-anchor="middle" x="63" y="-901.4" font-family="Times Roman,serif" font-size="14.00">52690128</text>
</g>
<!-- 52690128&#45;&gt;59680608 -->
<g id="edge48" class="edge"><title>52690128&#45;&gt;59680608</title>
<path fill="none" stroke="black" d="M86.959,-922.29C100.643,-931.739 118.345,-943.261 135,-952 165.02,-967.752 198.715,-982.587 229.896,-995.238"/>
<polygon fill="black" stroke="black" points="228.902,-998.61 239.486,-999.092 231.513,-992.115 228.902,-998.61"/>
</g>
<!-- 52712560 -->
<g id="node58" class="node"><title>52712560</title>
<ellipse fill="none" stroke="black" cx="340" cy="-19" rx="62.9325" ry="18.3848"/>
<text text-anchor="middle" x="340" y="-15.4" font-family="Times Roman,serif" font-size="14.00">52712560</text>
</g>
<!-- 52712560&#45;&gt;60730192 -->
<g id="edge66" class="edge"><title>52712560&#45;&gt;60730192</title>
<path fill="none" stroke="black" d="M340,-37.7084C340,-45.3917 340,-54.7362 340,-64.3518"/>
<polygon fill="black" stroke="black" points="336.5,-64.4121 340,-74.4121 343.5,-64.4122 336.5,-64.4121"/>
</g>
</g>
</svg>
