<?xml version="1.0" encoding="UTF-8" standalone="no"?>
<!DOCTYPE svg PUBLIC "-//W3C//DTD SVG 1.1//EN"
 "http://www.w3.org/Graphics/SVG/1.1/DTD/svg11.dtd">
<!-- Generated by graphviz version 2.26.3 (20100126.1600)
 -->
<!-- Title: _anonymous_0 Pages: 1 -->
<svg width="2484pt" height="1381pt"
 viewBox="0.00 0.00 2484.00 1381.00" xmlns="http://www.w3.org/2000/svg" xmlns:xlink="http://www.w3.org/1999/xlink">
<g id="graph1" class="graph" transform="scale(1 1) rotate(0) translate(4 1377)">
<title>_anonymous_0</title>
<polygon fill="white" stroke="white" points="-4,5 -4,-1377 2481,-1377 2481,5 -4,5"/>
<g id="graph2" class="cluster"><title>cluster1</title>
<polygon fill="none" stroke="black" points="134,-46 134,-1365 2342,-1365 2342,-46 134,-46"/>
<text text-anchor="middle" x="1238" y="-57.4" font-family="Times Roman,serif" font-size="24.00">Venture Families</text>
</g>
<g id="graph3" class="cluster"><title>cluster2</title>
<polygon fill="none" stroke="black" points="1046,-91 1046,-456 1728,-456 1728,-91 1046,-91"/>
<text text-anchor="middle" x="1387" y="-102.4" font-family="Times Roman,serif" font-size="24.00">1</text>
</g>
<g id="graph4" class="cluster"><title>cluster3</title>
<polygon fill="none" stroke="black" points="1254,-464 1254,-829 2334,-829 2334,-464 1254,-464"/>
<text text-anchor="middle" x="1794" y="-475.4" font-family="Times Roman,serif" font-size="24.00">2</text>
</g>
<g id="graph5" class="cluster"><title>cluster4</title>
<polygon fill="none" stroke="black" points="1585,-837 1585,-984 1765,-984 1765,-837 1585,-837"/>
<text text-anchor="middle" x="1675" y="-848.4" font-family="Times Roman,serif" font-size="24.00">3</text>
</g>
<g id="graph6" class="cluster"><title>cluster5</title>
<polygon fill="none" stroke="black" points="1322,-992 1322,-1357 1558,-1357 1558,-992 1322,-992"/>
<text text-anchor="middle" x="1440" y="-1003.4" font-family="Times Roman,serif" font-size="24.00">4</text>
</g>
<g id="graph7" class="cluster"><title>cluster6</title>
<polygon fill="none" stroke="black" points="1566,-992 1566,-1357 1802,-1357 1802,-992 1566,-992"/>
<text text-anchor="middle" x="1684" y="-1003.4" font-family="Times Roman,serif" font-size="24.00">5</text>
</g>
<g id="graph8" class="cluster"><title>cluster7</title>
<polygon fill="none" stroke="black" points="1810,-992 1810,-1357 2046,-1357 2046,-992 1810,-992"/>
<text text-anchor="middle" x="1928" y="-1003.4" font-family="Times Roman,serif" font-size="24.00">6</text>
</g>
<g id="graph9" class="cluster"><title>cluster8</title>
<polygon fill="none" stroke="black" points="142,-464 142,-829 1246,-829 1246,-464 142,-464"/>
<text text-anchor="middle" x="694" y="-475.4" font-family="Times Roman,serif" font-size="24.00">7</text>
</g>
<!-- 37356800 -->
<g id="node3" class="node"><title>37356800</title>
<ellipse fill="firebrick" stroke="black" cx="1408" cy="-401" rx="241.123" ry="46.669"/>
<text text-anchor="middle" x="1408" y="-408.4" font-family="Times Roman,serif" font-size="24.00">exp: (snormal 100.000000)</text>
<text text-anchor="middle" x="1408" y="-379.4" font-family="Times Roman,serif" font-size="24.00">value: </text>
</g>
<!-- 32504208 -->
<g id="node11" class="node"><title>32504208</title>
<ellipse fill="gold" stroke="black" cx="1679" cy="-556" rx="101.116" ry="46.669"/>
<text text-anchor="middle" x="1679" y="-563.4" font-family="Times Roman,serif" font-size="24.00">exp: alpha</text>
<text text-anchor="middle" x="1679" y="-534.4" font-family="Times Roman,serif" font-size="24.00">value: </text>
</g>
<!-- 37356800&#45;&gt;32504208 -->
<g id="edge80" class="edge"><title>37356800&#45;&gt;32504208</title>
<path fill="none" stroke="black" d="M1525.34,-441.724C1540.39,-448.442 1555.31,-455.893 1569,-464 1589.43,-476.103 1609.91,-491.96 1627.56,-507.093"/>
<polygon fill="black" stroke="black" points="1625.63,-510.048 1635.47,-513.979 1630.23,-504.771 1625.63,-510.048"/>
</g>
<!-- 30372512 -->
<g id="node31" class="node"><title>30372512</title>
<ellipse fill="gold" stroke="black" cx="1137" cy="-556" rx="101.116" ry="46.669"/>
<text text-anchor="middle" x="1137" y="-563.4" font-family="Times Roman,serif" font-size="24.00">exp: alpha</text>
<text text-anchor="middle" x="1137" y="-534.4" font-family="Times Roman,serif" font-size="24.00">value: </text>
</g>
<!-- 37356800&#45;&gt;30372512 -->
<g id="edge20" class="edge"><title>37356800&#45;&gt;30372512</title>
<path fill="none" stroke="black" d="M1292.97,-442.057C1278.17,-448.722 1263.49,-456.069 1250,-464 1229.01,-476.338 1207.83,-492.403 1189.57,-507.649"/>
<polygon fill="black" stroke="black" points="1187.3,-504.985 1181.93,-514.12 1191.82,-510.326 1187.3,-504.985"/>
</g>
<!-- 38779248 -->
<g id="node4" class="node"><title>38779248</title>
<ellipse fill="#999999" stroke="black" cx="1408" cy="-292" rx="99.9096" ry="26.163"/>
<text text-anchor="middle" x="1408" y="-284.9" font-family="Times Roman,serif" font-size="24.00">request: []</text>
</g>
<!-- 38779248&#45;&gt;37356800 -->
<g id="edge68" class="edge"><title>38779248&#45;&gt;37356800</title>
<path fill="none" stroke="black" d="M1408,-318.108C1408,-325.979 1408,-334.946 1408,-344.005"/>
<polygon fill="black" stroke="black" points="1404.5,-344.218 1408,-354.218 1411.5,-344.218 1404.5,-344.218"/>
</g>
<!-- 37253632 -->
<g id="node5" class="node"><title>37253632</title>
<ellipse fill="#999999" stroke="black" cx="1566" cy="-183" rx="154.149" ry="46.669"/>
<text text-anchor="middle" x="1566" y="-190.4" font-family="Times Roman,serif" font-size="24.00">exp: snormal</text>
<text text-anchor="middle" x="1566" y="-161.4" font-family="Times Roman,serif" font-size="24.00">value: sp:normal</text>
</g>
<!-- 37253632&#45;&gt;37356800 -->
<g id="edge58" class="edge"><title>37253632&#45;&gt;37356800</title>
<path fill="none" stroke="black" d="M1556.12,-229.623C1548.63,-257.217 1536.28,-291.787 1517,-318 1508.47,-329.599 1497.88,-340.353 1486.68,-350.014"/>
<polygon fill="black" stroke="black" points="1484.3,-347.44 1478.85,-356.524 1488.78,-352.823 1484.3,-347.44"/>
</g>
<!-- 37253632&#45;&gt;38779248 -->
<g id="edge60" class="edge"><title>37253632&#45;&gt;38779248</title>
<path fill="none" stroke="black" d="M1504.01,-225.767C1486.65,-237.744 1468.14,-250.514 1452.05,-261.614"/>
<polygon fill="black" stroke="black" points="1449.62,-259.033 1443.38,-267.592 1453.6,-264.795 1449.62,-259.033"/>
</g>
<!-- 31215360 -->
<g id="node6" class="node"><title>31215360</title>
<ellipse fill="#999999" stroke="black" cx="1224" cy="-183" rx="169.913" ry="46.669"/>
<text text-anchor="middle" x="1224" y="-190.4" font-family="Times Roman,serif" font-size="24.00">exp: 100.000000</text>
<text text-anchor="middle" x="1224" y="-161.4" font-family="Times Roman,serif" font-size="24.00">value: 100.000000</text>
</g>
<!-- 31215360&#45;&gt;37356800 -->
<g id="edge64" class="edge"><title>31215360&#45;&gt;37356800</title>
<path fill="none" stroke="black" d="M1243.89,-229.45C1257.06,-256.982 1276.1,-291.547 1299,-318 1308.83,-329.359 1320.45,-340.165 1332.37,-350"/>
<polygon fill="black" stroke="black" points="1330.25,-352.783 1340.23,-356.319 1334.63,-347.326 1330.25,-352.783"/>
</g>
<!-- 31215360&#45;&gt;38779248 -->
<g id="edge66" class="edge"><title>31215360&#45;&gt;38779248</title>
<path fill="none" stroke="black" d="M1295.4,-225.298C1316.69,-237.909 1339.53,-251.438 1359.03,-262.993"/>
<polygon fill="black" stroke="black" points="1357.36,-266.067 1367.74,-268.153 1360.92,-260.045 1357.36,-266.067"/>
</g>
<!-- 37497584 -->
<g id="node8" class="node"><title>37497584</title>
<ellipse fill="#ffaeb9" stroke="black" cx="1675" cy="-774" rx="372.145" ry="46.669"/>
<text text-anchor="middle" x="1675" y="-781.4" font-family="Times Roman,serif" font-size="24.00">exp: (make_sym_dir_mult alpha 2.000000)</text>
<text text-anchor="middle" x="1675" y="-752.4" font-family="Times Roman,serif" font-size="24.00">value: </text>
</g>
<!-- 31227776 -->
<g id="node14" class="node"><title>31227776</title>
<ellipse fill="#999999" stroke="black" cx="1675" cy="-929" rx="82.0244" ry="46.669"/>
<text text-anchor="middle" x="1675" y="-936.4" font-family="Times Roman,serif" font-size="24.00">exp: f</text>
<text text-anchor="middle" x="1675" y="-907.4" font-family="Times Roman,serif" font-size="24.00">value: []</text>
</g>
<!-- 37497584&#45;&gt;31227776 -->
<g id="edge32" class="edge"><title>37497584&#45;&gt;31227776</title>
<path fill="none" stroke="black" d="M1675,-820.505C1675,-836.677 1675,-855.005 1675,-871.933"/>
<polygon fill="black" stroke="black" points="1671.5,-872.26 1675,-882.26 1678.5,-872.26 1671.5,-872.26"/>
</g>
<!-- 36008416 -->
<g id="node9" class="node"><title>36008416</title>
<ellipse fill="#63b8ff" stroke="black" cx="1716" cy="-665" rx="99.9096" ry="26.163"/>
<text text-anchor="middle" x="1716" y="-657.9" font-family="Times Roman,serif" font-size="24.00">request: []</text>
</g>
<!-- 36008416&#45;&gt;37497584 -->
<g id="edge86" class="edge"><title>36008416&#45;&gt;37497584</title>
<path fill="none" stroke="black" d="M1706.18,-691.108C1703.16,-699.148 1699.7,-708.332 1696.22,-717.589"/>
<polygon fill="black" stroke="black" points="1692.84,-716.626 1692.6,-727.218 1699.39,-719.091 1692.84,-716.626"/>
</g>
<!-- 35758960 -->
<g id="node10" class="node"><title>35758960</title>
<ellipse fill="#999999" stroke="black" cx="2062" cy="-556" rx="263.958" ry="46.669"/>
<text text-anchor="middle" x="2062" y="-563.4" font-family="Times Roman,serif" font-size="24.00">exp: make_sym_dir_mult</text>
<text text-anchor="middle" x="2062" y="-534.4" font-family="Times Roman,serif" font-size="24.00">value: sp:make_sym_dir_mult</text>
</g>
<!-- 35758960&#45;&gt;37497584 -->
<g id="edge70" class="edge"><title>35758960&#45;&gt;37497584</title>
<path fill="none" stroke="black" d="M1984.48,-600.476C1938.26,-626.917 1878.37,-661.037 1825,-691 1806.1,-701.614 1785.8,-712.908 1766.45,-723.635"/>
<polygon fill="black" stroke="black" points="1764.68,-720.613 1757.63,-728.52 1768.07,-726.737 1764.68,-720.613"/>
</g>
<!-- 35758960&#45;&gt;36008416 -->
<g id="edge72" class="edge"><title>35758960&#45;&gt;36008416</title>
<path fill="none" stroke="black" d="M1933.16,-596.588C1884.78,-611.829 1831.46,-628.627 1789.76,-641.763"/>
<polygon fill="black" stroke="black" points="1788.45,-638.506 1779.97,-644.849 1790.56,-645.182 1788.45,-638.506"/>
</g>
<!-- 32504208&#45;&gt;37497584 -->
<g id="edge76" class="edge"><title>32504208&#45;&gt;37497584</title>
<path fill="none" stroke="black" d="M1632.76,-597.726C1622.28,-609.891 1612.6,-623.988 1607,-639 1598.92,-660.652 1599.22,-669.237 1607,-691 1610.52,-700.837 1615.75,-710.347 1621.79,-719.202"/>
<polygon fill="black" stroke="black" points="1619.09,-721.439 1627.79,-727.479 1624.76,-717.329 1619.09,-721.439"/>
</g>
<!-- 32504208&#45;&gt;36008416 -->
<g id="edge78" class="edge"><title>32504208&#45;&gt;36008416</title>
<path fill="none" stroke="black" d="M1694.69,-602.226C1697.75,-611.234 1700.91,-620.551 1703.83,-629.161"/>
<polygon fill="black" stroke="black" points="1700.61,-630.539 1707.13,-638.883 1707.23,-628.289 1700.61,-630.539"/>
</g>
<!-- 32794384 -->
<g id="node12" class="node"><title>32794384</title>
<ellipse fill="#999999" stroke="black" cx="1411" cy="-556" rx="149.2" ry="46.669"/>
<text text-anchor="middle" x="1411" y="-563.4" font-family="Times Roman,serif" font-size="24.00">exp: 2.000000</text>
<text text-anchor="middle" x="1411" y="-534.4" font-family="Times Roman,serif" font-size="24.00">value: 2.000000</text>
</g>
<!-- 32794384&#45;&gt;37497584 -->
<g id="edge82" class="edge"><title>32794384&#45;&gt;37497584</title>
<path fill="none" stroke="black" d="M1463.79,-599.592C1506.23,-634.639 1566.01,-684.004 1611.15,-721.273"/>
<polygon fill="black" stroke="black" points="1609.17,-724.182 1619.11,-727.85 1613.63,-718.784 1609.17,-724.182"/>
</g>
<!-- 32794384&#45;&gt;36008416 -->
<g id="edge84" class="edge"><title>32794384&#45;&gt;36008416</title>
<path fill="none" stroke="black" d="M1509.18,-591.088C1554.32,-607.221 1606.77,-625.963 1647.55,-640.538"/>
<polygon fill="black" stroke="black" points="1646.53,-643.89 1657.13,-643.959 1648.89,-637.298 1646.53,-643.89"/>
</g>
<!-- 34460816 -->
<g id="node18" class="node"><title>34460816</title>
<ellipse fill="#999999" stroke="black" cx="1450" cy="-1084" rx="82.0244" ry="46.669"/>
<text text-anchor="middle" x="1450" y="-1091.4" font-family="Times Roman,serif" font-size="24.00">exp: g</text>
<text text-anchor="middle" x="1450" y="-1062.4" font-family="Times Roman,serif" font-size="24.00">value: []</text>
</g>
<!-- 31227776&#45;&gt;34460816 -->
<g id="edge46" class="edge"><title>31227776&#45;&gt;34460816</title>
<path fill="none" stroke="black" d="M1613.98,-960.405C1596.79,-969.947 1578.33,-980.87 1562,-992 1541.53,-1005.95 1520.24,-1022.77 1501.79,-1038.2"/>
<polygon fill="black" stroke="black" points="1499.46,-1035.59 1494.07,-1044.71 1503.97,-1040.94 1499.46,-1035.59"/>
</g>
<!-- 31959104 -->
<g id="node22" class="node"><title>31959104</title>
<ellipse fill="#999999" stroke="black" cx="1675" cy="-1084" rx="82.0244" ry="46.669"/>
<text text-anchor="middle" x="1675" y="-1091.4" font-family="Times Roman,serif" font-size="24.00">exp: g</text>
<text text-anchor="middle" x="1675" y="-1062.4" font-family="Times Roman,serif" font-size="24.00">value: []</text>
</g>
<!-- 31227776&#45;&gt;31959104 -->
<g id="edge54" class="edge"><title>31227776&#45;&gt;31959104</title>
<path fill="none" stroke="black" d="M1675,-975.505C1675,-991.677 1675,-1010.01 1675,-1026.93"/>
<polygon fill="black" stroke="black" points="1671.5,-1027.26 1675,-1037.26 1678.5,-1027.26 1671.5,-1027.26"/>
</g>
<!-- 30473984 -->
<g id="node26" class="node"><title>30473984</title>
<ellipse fill="#999999" stroke="black" cx="1900" cy="-1084" rx="82.0244" ry="46.669"/>
<text text-anchor="middle" x="1900" y="-1091.4" font-family="Times Roman,serif" font-size="24.00">exp: g</text>
<text text-anchor="middle" x="1900" y="-1062.4" font-family="Times Roman,serif" font-size="24.00">value: []</text>
</g>
<!-- 31227776&#45;&gt;30473984 -->
<g id="edge38" class="edge"><title>31227776&#45;&gt;30473984</title>
<path fill="none" stroke="black" d="M1741.98,-956.081C1763.27,-966.013 1786.37,-978.237 1806,-992 1823.68,-1004.39 1841.11,-1020.18 1856.08,-1035.16"/>
<polygon fill="black" stroke="black" points="1853.72,-1037.75 1863.22,-1042.43 1858.71,-1032.84 1853.72,-1037.75"/>
</g>
<!-- 34163504 -->
<g id="node16" class="node"><title>34163504</title>
<ellipse fill="#999999" stroke="black" cx="1430" cy="-1302" rx="79.9031" ry="46.669"/>
<text text-anchor="middle" x="1430" y="-1309.4" font-family="Times Roman,serif" font-size="24.00">exp: (g)</text>
<text text-anchor="middle" x="1430" y="-1280.4" font-family="Times Roman,serif" font-size="24.00">value: 1</text>
</g>
<!-- 32454352 -->
<g id="node17" class="node"><title>32454352</title>
<ellipse fill="#999999" stroke="black" cx="1450" cy="-1193" rx="99.9096" ry="26.163"/>
<text text-anchor="middle" x="1450" y="-1185.9" font-family="Times Roman,serif" font-size="24.00">request: []</text>
</g>
<!-- 32454352&#45;&gt;34163504 -->
<g id="edge48" class="edge"><title>32454352&#45;&gt;34163504</title>
<path fill="none" stroke="black" d="M1445.21,-1219.11C1443.73,-1227.16 1442.05,-1236.35 1440.35,-1245.62"/>
<polygon fill="black" stroke="black" points="1436.87,-1245.18 1438.5,-1255.65 1443.75,-1246.45 1436.87,-1245.18"/>
</g>
<!-- 34460816&#45;&gt;34163504 -->
<g id="edge42" class="edge"><title>34460816&#45;&gt;34163504</title>
<path fill="none" stroke="black" d="M1389.38,-1115.36C1370.31,-1128.53 1351.51,-1145.79 1341,-1167 1330.74,-1187.71 1331.78,-1197.81 1341,-1219 1347.56,-1234.08 1358.36,-1247.67 1370.21,-1259.27"/>
<polygon fill="black" stroke="black" points="1367.99,-1261.99 1377.7,-1266.23 1372.76,-1256.86 1367.99,-1261.99"/>
</g>
<!-- 34460816&#45;&gt;32454352 -->
<g id="edge44" class="edge"><title>34460816&#45;&gt;32454352</title>
<path fill="none" stroke="black" d="M1450,-1130.54C1450,-1139.25 1450,-1148.23 1450,-1156.58"/>
<polygon fill="black" stroke="black" points="1446.5,-1156.74 1450,-1166.74 1453.5,-1156.74 1446.5,-1156.74"/>
</g>
<!-- 34491664 -->
<g id="node20" class="node"><title>34491664</title>
<ellipse fill="#999999" stroke="black" cx="1674" cy="-1302" rx="79.9031" ry="46.669"/>
<text text-anchor="middle" x="1674" y="-1309.4" font-family="Times Roman,serif" font-size="24.00">exp: (g)</text>
<text text-anchor="middle" x="1674" y="-1280.4" font-family="Times Roman,serif" font-size="24.00">value: 1</text>
</g>
<!-- 31841312 -->
<g id="node21" class="node"><title>31841312</title>
<ellipse fill="#999999" stroke="black" cx="1694" cy="-1193" rx="99.9096" ry="26.163"/>
<text text-anchor="middle" x="1694" y="-1185.9" font-family="Times Roman,serif" font-size="24.00">request: []</text>
</g>
<!-- 31841312&#45;&gt;34491664 -->
<g id="edge56" class="edge"><title>31841312&#45;&gt;34491664</title>
<path fill="none" stroke="black" d="M1689.21,-1219.11C1687.73,-1227.16 1686.05,-1236.35 1684.35,-1245.62"/>
<polygon fill="black" stroke="black" points="1680.87,-1245.18 1682.5,-1255.65 1687.75,-1246.45 1680.87,-1245.18"/>
</g>
<!-- 31959104&#45;&gt;34491664 -->
<g id="edge50" class="edge"><title>31959104&#45;&gt;34491664</title>
<path fill="none" stroke="black" d="M1622.12,-1119.66C1607.28,-1132.65 1593.02,-1148.7 1585,-1167 1575.73,-1188.17 1575.78,-1197.81 1585,-1219 1591.56,-1234.08 1602.36,-1247.67 1614.21,-1259.27"/>
<polygon fill="black" stroke="black" points="1611.99,-1261.99 1621.7,-1266.23 1616.76,-1256.86 1611.99,-1261.99"/>
</g>
<!-- 31959104&#45;&gt;31841312 -->
<g id="edge52" class="edge"><title>31959104&#45;&gt;31841312</title>
<path fill="none" stroke="black" d="M1683.11,-1130.54C1684.65,-1139.35 1686.23,-1148.43 1687.7,-1156.86"/>
<polygon fill="black" stroke="black" points="1684.26,-1157.49 1689.42,-1166.74 1691.15,-1156.29 1684.26,-1157.49"/>
</g>
<!-- 32219424 -->
<g id="node24" class="node"><title>32219424</title>
<ellipse fill="#999999" stroke="black" cx="1918" cy="-1302" rx="79.9031" ry="46.669"/>
<text text-anchor="middle" x="1918" y="-1309.4" font-family="Times Roman,serif" font-size="24.00">exp: (g)</text>
<text text-anchor="middle" x="1918" y="-1280.4" font-family="Times Roman,serif" font-size="24.00">value: 1</text>
</g>
<!-- 30766480 -->
<g id="node25" class="node"><title>30766480</title>
<ellipse fill="#999999" stroke="black" cx="1938" cy="-1193" rx="99.9096" ry="26.163"/>
<text text-anchor="middle" x="1938" y="-1185.9" font-family="Times Roman,serif" font-size="24.00">request: []</text>
</g>
<!-- 30766480&#45;&gt;32219424 -->
<g id="edge40" class="edge"><title>30766480&#45;&gt;32219424</title>
<path fill="none" stroke="black" d="M1933.21,-1219.11C1931.73,-1227.16 1930.05,-1236.35 1928.35,-1245.62"/>
<polygon fill="black" stroke="black" points="1924.87,-1245.18 1926.5,-1255.65 1931.75,-1246.45 1924.87,-1245.18"/>
</g>
<!-- 30473984&#45;&gt;32219424 -->
<g id="edge34" class="edge"><title>30473984&#45;&gt;32219424</title>
<path fill="none" stroke="black" d="M1856.24,-1123.67C1845.21,-1136.31 1834.85,-1151.17 1829,-1167 1820.99,-1188.68 1819.78,-1197.81 1829,-1219 1835.56,-1234.08 1846.36,-1247.67 1858.21,-1259.27"/>
<polygon fill="black" stroke="black" points="1855.99,-1261.99 1865.7,-1266.23 1860.76,-1256.86 1855.99,-1261.99"/>
</g>
<!-- 30473984&#45;&gt;30766480 -->
<g id="edge36" class="edge"><title>30473984&#45;&gt;30766480</title>
<path fill="none" stroke="black" d="M1916.01,-1129.91C1919.22,-1139.13 1922.55,-1148.68 1925.61,-1157.47"/>
<polygon fill="black" stroke="black" points="1922.35,-1158.74 1928.95,-1167.03 1928.96,-1156.43 1922.35,-1158.74"/>
</g>
<!-- 31015344 -->
<g id="node28" class="node"><title>31015344</title>
<ellipse fill="gold" stroke="black" cx="723" cy="-774" rx="382.752" ry="46.669"/>
<text text-anchor="middle" x="723" y="-781.4" font-family="Times Roman,serif" font-size="24.00">exp: (branch_exp alpha (quote g) (quote g))</text>
<text text-anchor="middle" x="723" y="-752.4" font-family="Times Roman,serif" font-size="24.00">value: </text>
</g>
<!-- 32878672 -->
<g id="node29" class="node"><title>32878672</title>
<ellipse fill="gold" stroke="black" cx="723" cy="-665" rx="87.1802" ry="26.163"/>
<text text-anchor="middle" x="723" y="-657.9" font-family="Times Roman,serif" font-size="24.00">request: </text>
</g>
<!-- 32878672&#45;&gt;31015344 -->
<g id="edge30" class="edge"><title>32878672&#45;&gt;31015344</title>
<path fill="none" stroke="black" d="M723,-691.108C723,-698.979 723,-707.946 723,-717.005"/>
<polygon fill="black" stroke="black" points="719.5,-717.218 723,-727.218 726.5,-717.218 719.5,-717.218"/>
</g>
<!-- 31225584 -->
<g id="node30" class="node"><title>31225584</title>
<ellipse fill="#999999" stroke="black" cx="864" cy="-556" rx="154.149" ry="46.669"/>
<text text-anchor="middle" x="864" y="-563.4" font-family="Times Roman,serif" font-size="24.00">exp: branch_exp</text>
<text text-anchor="middle" x="864" y="-534.4" font-family="Times Roman,serif" font-size="24.00">value: sp:branch</text>
</g>
<!-- 31225584&#45;&gt;31015344 -->
<g id="edge10" class="edge"><title>31225584&#45;&gt;31015344</title>
<path fill="none" stroke="black" d="M855.01,-602.521C848.189,-629.914 836.864,-664.31 819,-691 811.871,-701.651 803.025,-711.747 793.611,-720.991"/>
<polygon fill="black" stroke="black" points="791.179,-718.474 786.319,-727.888 795.989,-723.559 791.179,-718.474"/>
</g>
<!-- 31225584&#45;&gt;32878672 -->
<g id="edge12" class="edge"><title>31225584&#45;&gt;32878672</title>
<path fill="none" stroke="black" d="M807.868,-599.393C792.717,-611.105 776.642,-623.532 762.604,-634.384"/>
<polygon fill="black" stroke="black" points="760.368,-631.689 754.597,-640.574 764.649,-637.227 760.368,-631.689"/>
</g>
<!-- 30372512&#45;&gt;31015344 -->
<g id="edge16" class="edge"><title>30372512&#45;&gt;31015344</title>
<path fill="none" stroke="black" d="M1070.48,-591.025C1002.28,-626.937 895.566,-683.132 818.382,-723.774"/>
<polygon fill="black" stroke="black" points="816.338,-720.895 809.121,-728.651 819.6,-727.089 816.338,-720.895"/>
</g>
<!-- 30372512&#45;&gt;32878672 -->
<g id="edge18" class="edge"><title>30372512&#45;&gt;32878672</title>
<path fill="none" stroke="black" d="M1065.6,-588.975C1052.91,-594.123 1039.69,-599.041 1027,-603 955.766,-625.23 872.602,-641.557 811.281,-651.86"/>
<polygon fill="black" stroke="black" points="810.541,-648.435 801.249,-653.524 811.687,-655.34 810.541,-648.435"/>
</g>
<!-- 33378608 -->
<g id="node32" class="node"><title>33378608</title>
<ellipse fill="#999999" stroke="black" cx="561" cy="-556" rx="131.022" ry="46.669"/>
<text text-anchor="middle" x="561" y="-563.4" font-family="Times Roman,serif" font-size="24.00">exp: (quote g)</text>
<text text-anchor="middle" x="561" y="-534.4" font-family="Times Roman,serif" font-size="24.00">value: g</text>
</g>
<!-- 33378608&#45;&gt;31015344 -->
<g id="edge22" class="edge"><title>33378608&#45;&gt;31015344</title>
<path fill="none" stroke="black" d="M578.187,-602.391C589.609,-629.738 606.305,-664.131 627,-691 635.088,-701.502 644.677,-711.651 654.615,-721.035"/>
<polygon fill="black" stroke="black" points="652.529,-723.871 662.263,-728.054 657.262,-718.714 652.529,-723.871"/>
</g>
<!-- 33378608&#45;&gt;32878672 -->
<g id="edge24" class="edge"><title>33378608&#45;&gt;32878672</title>
<path fill="none" stroke="black" d="M622.245,-597.208C641.187,-609.953 661.665,-623.731 679.18,-635.516"/>
<polygon fill="black" stroke="black" points="677.27,-638.449 687.52,-641.128 681.177,-632.642 677.27,-638.449"/>
</g>
<!-- 32496912 -->
<g id="node33" class="node"><title>32496912</title>
<ellipse fill="#999999" stroke="black" cx="281" cy="-556" rx="131.022" ry="46.669"/>
<text text-anchor="middle" x="281" y="-563.4" font-family="Times Roman,serif" font-size="24.00">exp: (quote g)</text>
<text text-anchor="middle" x="281" y="-534.4" font-family="Times Roman,serif" font-size="24.00">value: g</text>
</g>
<!-- 32496912&#45;&gt;31015344 -->
<g id="edge26" class="edge"><title>32496912&#45;&gt;31015344</title>
<path fill="none" stroke="black" d="M357.738,-593.848C430.934,-629.949 541.626,-684.544 621.967,-724.169"/>
<polygon fill="black" stroke="black" points="620.601,-727.398 631.117,-728.682 623.697,-721.12 620.601,-727.398"/>
</g>
<!-- 32496912&#45;&gt;32878672 -->
<g id="edge28" class="edge"><title>32496912&#45;&gt;32878672</title>
<path fill="none" stroke="black" d="M373.899,-588.94C389.526,-593.975 405.651,-598.864 421,-603 493.21,-622.456 576.558,-639.143 637.376,-650.288"/>
<polygon fill="black" stroke="black" points="636.853,-653.75 647.318,-652.098 638.107,-646.864 636.853,-653.75"/>
</g>
<!-- 36311504 -->
<g id="node36" class="node"><title>36311504</title>
<ellipse fill="none" stroke="black" cx="63" cy="-401" rx="62.9325" ry="18.3848"/>
<text text-anchor="middle" x="63" y="-397.4" font-family="Times Roman,serif" font-size="14.00">36311504</text>
</g>
<!-- 36311504&#45;&gt;31225584 -->
<g id="edge14" class="edge"><title>36311504&#45;&gt;31225584</title>
<path fill="none" stroke="black" d="M125.475,-403.884C264.34,-410.823 594.74,-430.414 701,-464 733.152,-474.162 766.021,-491.202 793.742,-507.875"/>
<polygon fill="black" stroke="black" points="792.198,-511.033 802.554,-513.266 795.851,-505.062 792.198,-511.033"/>
</g>
<!-- 37917872 -->
<g id="node61" class="node"><title>37917872</title>
<ellipse fill="none" stroke="black" cx="1566" cy="-19" rx="62.9325" ry="18.3848"/>
<text text-anchor="middle" x="1566" y="-15.4" font-family="Times Roman,serif" font-size="14.00">37917872</text>
</g>
<!-- 37917872&#45;&gt;37253632 -->
<g id="edge62" class="edge"><title>37917872&#45;&gt;37253632</title>
<path fill="none" stroke="black" d="M1566,-37.8129C1566,-59.2806 1566,-95.4093 1566,-126.255"/>
<polygon fill="black" stroke="black" points="1562.5,-126.484 1566,-136.484 1569.5,-126.484 1562.5,-126.484"/>
</g>
<!-- 35896960 -->
<g id="node68" class="node"><title>35896960</title>
<ellipse fill="none" stroke="black" cx="2413" cy="-401" rx="62.9325" ry="18.3848"/>
<text text-anchor="middle" x="2413" y="-397.4" font-family="Times Roman,serif" font-size="14.00">35896960</text>
</g>
<!-- 35896960&#45;&gt;35758960 -->
<g id="edge74" class="edge"><title>35896960&#45;&gt;35758960</title>
<path fill="none" stroke="black" d="M2378.06,-416.429C2329.85,-437.717 2240.81,-477.039 2169.49,-508.533"/>
<polygon fill="black" stroke="black" points="2167.73,-505.484 2160,-512.726 2170.56,-511.888 2167.73,-505.484"/>
</g>
</g>
</svg>
