<?xml version="1.0" encoding="UTF-8" standalone="no"?>
<!DOCTYPE svg PUBLIC "-//W3C//DTD SVG 1.1//EN"
 "http://www.w3.org/Graphics/SVG/1.1/DTD/svg11.dtd">
<!-- Generated by graphviz version 2.26.3 (20100126.1600)
 -->
<!-- Title: _anonymous_0 Pages: 1 -->
<svg width="405pt" height="620pt"
 viewBox="0.00 0.00 405.00 620.00" xmlns="http://www.w3.org/2000/svg" xmlns:xlink="http://www.w3.org/1999/xlink">
<g id="graph1" class="graph" transform="scale(1 1) rotate(0) translate(4 616)">
<title>_anonymous_0</title>
<polygon fill="white" stroke="white" points="-4,5 -4,-616 402,-616 402,5 -4,5"/>
<!-- 32801712 -->
<g id="node3" class="node"><title>32801712</title>
<ellipse fill="firebrick" stroke="black" cx="306" cy="-162" rx="27" ry="18"/>
</g>
<!-- 30638576 -->
<g id="node14" class="node"><title>30638576</title>
<ellipse fill="gold" stroke="black" cx="243" cy="-306" rx="27" ry="18"/>
</g>
<!-- 32801712&#45;&gt;30638576 -->
<g id="edge34" class="edge"><title>32801712&#45;&gt;30638576</title>
<path fill="none" stroke="black" d="M290.307,-177.142C280.716,-187.27 268.988,-201.38 262,-216 252.674,-235.512 247.898,-259.565 245.468,-277.895"/>
<polygon fill="black" stroke="black" points="241.977,-277.61 244.291,-287.949 248.93,-278.424 241.977,-277.61"/>
</g>
<!-- 30787232 -->
<g id="node21" class="node"><title>30787232</title>
<ellipse fill="darkseagreen" stroke="black" cx="370" cy="-234" rx="27" ry="18"/>
</g>
<!-- 32801712&#45;&gt;30787232 -->
<g id="edge14" class="edge"><title>32801712&#45;&gt;30787232</title>
<path fill="none" stroke="black" d="M319.887,-177.623C328.525,-187.341 339.789,-200.013 349.45,-210.881"/>
<polygon fill="black" stroke="black" points="346.88,-213.259 356.14,-218.408 352.112,-208.608 346.88,-213.259"/>
</g>
<!-- 32752080 -->
<g id="node4" class="node"><title>32752080</title>
<ellipse fill="#999999" stroke="black" cx="306" cy="-90" rx="27" ry="18"/>
</g>
<!-- 32752080&#45;&gt;32801712 -->
<g id="edge60" class="edge"><title>32752080&#45;&gt;32801712</title>
<path fill="none" stroke="black" d="M306,-108.169C306,-115.869 306,-125.026 306,-133.583"/>
<polygon fill="black" stroke="black" points="302.5,-133.587 306,-143.587 309.5,-133.587 302.5,-133.587"/>
</g>
<!-- 31366272 -->
<g id="node5" class="node"><title>31366272</title>
<ellipse fill="#999999" stroke="black" cx="270" cy="-18" rx="27" ry="18"/>
</g>
<!-- 31366272&#45;&gt;32801712 -->
<g id="edge52" class="edge"><title>31366272&#45;&gt;32801712</title>
<path fill="none" stroke="black" d="M266.988,-36.0363C264.59,-54.5334 262.71,-83.9232 270,-108 273.266,-118.787 279.476,-129.389 285.831,-138.304"/>
<polygon fill="black" stroke="black" points="283.049,-140.427 291.877,-146.284 288.628,-136.2 283.049,-140.427"/>
</g>
<!-- 31366272&#45;&gt;32752080 -->
<g id="edge54" class="edge"><title>31366272&#45;&gt;32752080</title>
<path fill="none" stroke="black" d="M278.715,-35.4292C282.96,-43.9193 288.154,-54.3071 292.866,-63.7326"/>
<polygon fill="black" stroke="black" points="289.763,-65.3523 297.366,-72.7313 296.024,-62.2218 289.763,-65.3523"/>
</g>
<!-- 31615728 -->
<g id="node6" class="node"><title>31615728</title>
<ellipse fill="#999999" stroke="black" cx="351" cy="-18" rx="27" ry="18"/>
</g>
<!-- 31615728&#45;&gt;32801712 -->
<g id="edge56" class="edge"><title>31615728&#45;&gt;32801712</title>
<path fill="none" stroke="black" d="M351.723,-36.1499C351.885,-54.7374 350.522,-84.1981 342,-108 338.24,-118.502 332.004,-128.957 325.77,-137.831"/>
<polygon fill="black" stroke="black" points="322.768,-136.002 319.628,-146.121 328.393,-140.169 322.768,-136.002"/>
</g>
<!-- 31615728&#45;&gt;32752080 -->
<g id="edge58" class="edge"><title>31615728&#45;&gt;32752080</title>
<path fill="none" stroke="black" d="M340.563,-34.6992C335.077,-43.4776 328.231,-54.4297 322.084,-64.2661"/>
<polygon fill="black" stroke="black" points="319.025,-62.5564 316.693,-72.8914 324.961,-66.2664 319.025,-62.5564"/>
</g>
<!-- 32104320 -->
<g id="node8" class="node"><title>32104320</title>
<ellipse fill="#63b8ff" stroke="black" cx="132" cy="-594" rx="27" ry="18"/>
</g>
<!-- 32069376 -->
<g id="node9" class="node"><title>32069376</title>
<ellipse fill="#63b8ff" stroke="black" cx="132" cy="-522" rx="27" ry="18"/>
</g>
<!-- 32069376&#45;&gt;32104320 -->
<g id="edge50" class="edge"><title>32069376&#45;&gt;32104320</title>
<path fill="none" stroke="black" d="M132,-540.169C132,-547.869 132,-557.026 132,-565.583"/>
<polygon fill="black" stroke="black" points="128.5,-565.587 132,-575.587 135.5,-565.587 128.5,-565.587"/>
</g>
<!-- 32591296 -->
<g id="node10" class="node"><title>32591296</title>
<ellipse fill="#999999" stroke="black" cx="86" cy="-450" rx="27" ry="18"/>
</g>
<!-- 32591296&#45;&gt;32104320 -->
<g id="edge18" class="edge"><title>32591296&#45;&gt;32104320</title>
<path fill="none" stroke="black" d="M85.5302,-468.158C85.6151,-486.752 87.3368,-516.218 96,-540 99.8179,-550.481 106.067,-560.931 112.295,-569.807"/>
<polygon fill="black" stroke="black" points="109.668,-572.14 118.426,-578.101 115.297,-567.979 109.668,-572.14"/>
</g>
<!-- 32591296&#45;&gt;32069376 -->
<g id="edge20" class="edge"><title>32591296&#45;&gt;32069376</title>
<path fill="none" stroke="black" d="M96.6689,-466.699C102.359,-475.605 109.478,-486.748 115.832,-496.693"/>
<polygon fill="black" stroke="black" points="113.056,-498.849 121.389,-505.391 118.954,-495.08 113.056,-498.849"/>
</g>
<!-- 31197024 -->
<g id="node11" class="node"><title>31197024</title>
<ellipse fill="gold" stroke="black" cx="177" cy="-450" rx="27" ry="18"/>
</g>
<!-- 31197024&#45;&gt;32104320 -->
<g id="edge22" class="edge"><title>31197024&#45;&gt;32104320</title>
<path fill="none" stroke="black" d="M177.723,-468.15C177.885,-486.737 176.522,-516.198 168,-540 164.24,-550.502 158.004,-560.957 151.77,-569.831"/>
<polygon fill="black" stroke="black" points="148.768,-568.002 145.628,-578.121 154.393,-572.169 148.768,-568.002"/>
</g>
<!-- 31197024&#45;&gt;32069376 -->
<g id="edge24" class="edge"><title>31197024&#45;&gt;32069376</title>
<path fill="none" stroke="black" d="M166.563,-466.699C161.077,-475.478 154.231,-486.43 148.084,-496.266"/>
<polygon fill="black" stroke="black" points="145.025,-494.556 142.693,-504.891 150.961,-498.266 145.025,-494.556"/>
</g>
<!-- 32652816 -->
<g id="node12" class="node"><title>32652816</title>
<ellipse fill="gold" stroke="black" cx="150" cy="-378" rx="27" ry="18"/>
</g>
<!-- 32652816&#45;&gt;31197024 -->
<g id="edge44" class="edge"><title>32652816&#45;&gt;31197024</title>
<path fill="none" stroke="black" d="M156.674,-395.798C159.748,-403.994 163.462,-413.898 166.87,-422.985"/>
<polygon fill="black" stroke="black" points="163.614,-424.273 170.403,-432.407 170.168,-421.815 163.614,-424.273"/>
</g>
<!-- 31327504 -->
<g id="node18" class="node"><title>31327504</title>
<ellipse fill="darkseagreen" stroke="black" cx="325" cy="-378" rx="27" ry="18"/>
</g>
<!-- 32652816&#45;&gt;31327504 -->
<g id="edge48" class="edge"><title>32652816&#45;&gt;31327504</title>
<path fill="none" stroke="black" stroke-dasharray="1,5" d="M177.002,-378C213.816,-378 250.631,-378 287.445,-378"/>
<polygon fill="black" stroke="black" points="287.829,-381.5 297.828,-378 287.828,-374.5 287.829,-381.5"/>
</g>
<!-- 31653472 -->
<g id="node13" class="node"><title>31653472</title>
<ellipse fill="#999999" stroke="black" cx="27" cy="-306" rx="27" ry="18"/>
</g>
<!-- 31653472&#45;&gt;31197024 -->
<g id="edge26" class="edge"><title>31653472&#45;&gt;31197024</title>
<path fill="none" stroke="black" d="M37.9699,-322.845C50.8963,-341.927 73.7095,-373.315 98,-396 113.022,-410.029 131.975,-423.11 147.551,-432.883"/>
<polygon fill="black" stroke="black" points="145.923,-435.99 156.277,-438.237 149.584,-430.024 145.923,-435.99"/>
</g>
<!-- 31653472&#45;&gt;32652816 -->
<g id="edge28" class="edge"><title>31653472&#45;&gt;32652816</title>
<path fill="none" stroke="black" d="M47.3109,-317.889C67.3412,-329.614 98.1596,-347.654 120.811,-360.914"/>
<polygon fill="black" stroke="black" points="119.261,-364.062 129.659,-366.093 122.797,-358.021 119.261,-364.062"/>
</g>
<!-- 30638576&#45;&gt;31197024 -->
<g id="edge30" class="edge"><title>30638576&#45;&gt;31197024</title>
<path fill="none" stroke="black" d="M235.039,-323.37C223.642,-348.236 202.578,-394.193 189.205,-423.371"/>
<polygon fill="black" stroke="black" points="185.974,-422.02 184.989,-432.569 192.338,-424.936 185.974,-422.02"/>
</g>
<!-- 30638576&#45;&gt;32652816 -->
<g id="edge32" class="edge"><title>30638576&#45;&gt;32652816</title>
<path fill="none" stroke="black" d="M225.069,-319.882C211.174,-330.64 191.722,-345.699 176.101,-357.793"/>
<polygon fill="black" stroke="black" points="173.641,-355.271 167.876,-364.16 177.926,-360.806 173.641,-355.271"/>
</g>
<!-- 31365216 -->
<g id="node15" class="node"><title>31365216</title>
<ellipse fill="#999999" stroke="black" cx="99" cy="-306" rx="27" ry="18"/>
</g>
<!-- 31365216&#45;&gt;31197024 -->
<g id="edge36" class="edge"><title>31365216&#45;&gt;31197024</title>
<path fill="none" stroke="black" d="M98.4774,-324.1C98.7008,-343.174 101.313,-373.512 114,-396 122.167,-410.476 135.769,-422.872 148.248,-432.122"/>
<polygon fill="black" stroke="black" points="146.433,-435.125 156.627,-438.011 150.458,-429.398 146.433,-435.125"/>
</g>
<!-- 31365216&#45;&gt;32652816 -->
<g id="edge38" class="edge"><title>31365216&#45;&gt;32652816</title>
<path fill="none" stroke="black" d="M110.573,-322.338C116.937,-331.323 124.972,-342.666 132.124,-352.764"/>
<polygon fill="black" stroke="black" points="129.483,-355.09 138.119,-361.227 135.195,-351.044 129.483,-355.09"/>
</g>
<!-- 31287392 -->
<g id="node16" class="node"><title>31287392</title>
<ellipse fill="#999999" stroke="black" cx="171" cy="-306" rx="27" ry="18"/>
</g>
<!-- 31287392&#45;&gt;31197024 -->
<g id="edge40" class="edge"><title>31287392&#45;&gt;31197024</title>
<path fill="none" stroke="black" d="M177.238,-323.745C180.568,-334.16 184.318,-347.66 186,-360 188.823,-380.713 186.277,-404.221 183.181,-422.017"/>
<polygon fill="black" stroke="black" points="179.708,-421.548 181.279,-432.026 186.585,-422.855 179.708,-421.548"/>
</g>
<!-- 31287392&#45;&gt;32652816 -->
<g id="edge42" class="edge"><title>31287392&#45;&gt;32652816</title>
<path fill="none" stroke="black" d="M165.809,-323.798C163.462,-331.846 160.634,-341.541 158.023,-350.493"/>
<polygon fill="black" stroke="black" points="154.644,-349.577 155.204,-360.157 161.364,-351.537 154.644,-349.577"/>
</g>
<!-- 31327504&#45;&gt;31197024 -->
<g id="edge46" class="edge"><title>31327504&#45;&gt;31197024</title>
<path fill="none" stroke="black" d="M303.162,-388.624C278.022,-400.854 236.54,-421.035 208.049,-434.895"/>
<polygon fill="black" stroke="black" points="206.389,-431.811 198.928,-439.333 209.451,-438.105 206.389,-431.811"/>
</g>
<!-- 30798016 -->
<g id="node19" class="node"><title>30798016</title>
<ellipse fill="darkseagreen" stroke="black" cx="353" cy="-306" rx="27" ry="18"/>
</g>
<!-- 30798016&#45;&gt;31327504 -->
<g id="edge16" class="edge"><title>30798016&#45;&gt;31327504</title>
<path fill="none" stroke="black" d="M346.222,-323.429C343.013,-331.681 339.106,-341.726 335.524,-350.938"/>
<polygon fill="black" stroke="black" points="332.175,-349.893 331.813,-360.482 338.699,-352.43 332.175,-349.893"/>
</g>
<!-- 30834080 -->
<g id="node20" class="node"><title>30834080</title>
<ellipse fill="darkseagreen" stroke="black" cx="298" cy="-234" rx="27" ry="18"/>
</g>
<!-- 30834080&#45;&gt;31327504 -->
<g id="edge6" class="edge"><title>30834080&#45;&gt;31327504</title>
<path fill="none" stroke="black" d="M301.365,-251.947C305.973,-276.523 314.294,-320.899 319.732,-349.903"/>
<polygon fill="black" stroke="black" points="316.31,-350.644 321.593,-359.827 323.19,-349.354 316.31,-350.644"/>
</g>
<!-- 30834080&#45;&gt;30798016 -->
<g id="edge8" class="edge"><title>30834080&#45;&gt;30798016</title>
<path fill="none" stroke="black" d="M310.48,-250.338C317.512,-259.544 326.435,-271.224 334.288,-281.505"/>
<polygon fill="black" stroke="black" points="331.717,-283.905 340.569,-289.727 337.28,-279.655 331.717,-283.905"/>
</g>
<!-- 30787232&#45;&gt;31327504 -->
<g id="edge10" class="edge"><title>30787232&#45;&gt;31327504</title>
<path fill="none" stroke="black" d="M379.705,-250.973C389.001,-269.624 400.103,-300.104 389,-324 381.814,-339.466 367.776,-352.096 354.674,-361.242"/>
<polygon fill="black" stroke="black" points="352.725,-358.335 346.28,-366.744 356.562,-364.189 352.725,-358.335"/>
</g>
<!-- 30787232&#45;&gt;30798016 -->
<g id="edge12" class="edge"><title>30787232&#45;&gt;30798016</title>
<path fill="none" stroke="black" d="M365.798,-251.798C363.918,-259.759 361.658,-269.333 359.563,-278.204"/>
<polygon fill="black" stroke="black" points="356.104,-277.621 357.213,-288.157 362.917,-279.229 356.104,-277.621"/>
</g>
</g>
</svg>
