<?xml version="1.0" encoding="UTF-8" standalone="no"?>
<!DOCTYPE svg PUBLIC "-//W3C//DTD SVG 1.1//EN"
 "http://www.w3.org/Graphics/SVG/1.1/DTD/svg11.dtd">
<!-- Generated by graphviz version 2.26.3 (20100126.1600)
 -->
<!-- Title: _anonymous_0 Pages: 1 -->
<svg width="2434pt" height="1113pt"
 viewBox="0.00 0.00 2434.00 1113.00" xmlns="http://www.w3.org/2000/svg" xmlns:xlink="http://www.w3.org/1999/xlink">
<g id="graph1" class="graph" transform="scale(1 1) rotate(0) translate(4 1109)">
<title>_anonymous_0</title>
<polygon fill="white" stroke="white" points="-4,5 -4,-1109 2431,-1109 2431,5 -4,5"/>
<g id="graph2" class="cluster"><title>cluster1</title>
<polygon fill="none" stroke="black" points="8,-46 8,-1097 1584,-1097 1584,-46 8,-46"/>
<text text-anchor="middle" x="796" y="-57.4" font-family="Times Roman,serif" font-size="24.00">Venture Families</text>
</g>
<g id="graph3" class="cluster"><title>cluster2</title>
<polygon fill="none" stroke="black" points="936,-91 936,-456 1576,-456 1576,-91 936,-91"/>
<text text-anchor="middle" x="1256" y="-102.4" font-family="Times Roman,serif" font-size="24.00">1</text>
</g>
<g id="graph4" class="cluster"><title>cluster3</title>
<polygon fill="none" stroke="black" points="16,-464 16,-1089 1576,-1089 1576,-464 16,-464"/>
<text text-anchor="middle" x="796" y="-475.4" font-family="Times Roman,serif" font-size="24.00">2</text>
</g>
<g id="graph5" class="cluster"><title>cluster4</title>
<polygon fill="none" stroke="black" points="1766,-346 1766,-741 2418,-741 2418,-346 1766,-346"/>
</g>
<!-- 24797728 -->
<g id="node3" class="node"><title>24797728</title>
<ellipse fill="firebrick" stroke="black" cx="1263" cy="-401" rx="219.91" ry="46.669"/>
<text text-anchor="middle" x="1263" y="-408.4" font-family="Times Roman,serif" font-size="24.00">exp: (snormal 1.000000)</text>
<text text-anchor="middle" x="1263" y="-379.4" font-family="Times Roman,serif" font-size="24.00">value: &#45;1.064426</text>
</g>
<!-- 24278240 -->
<g id="node14" class="node"><title>24278240</title>
<ellipse fill="gold" stroke="black" cx="1087" cy="-556" rx="155.063" ry="46.669"/>
<text text-anchor="middle" x="1087" y="-563.4" font-family="Times Roman,serif" font-size="24.00">exp: x</text>
<text text-anchor="middle" x="1087" y="-534.4" font-family="Times Roman,serif" font-size="24.00">value: &#45;1.064426</text>
</g>
<!-- 24797728&#45;&gt;24278240 -->
<g id="edge38" class="edge"><title>24797728&#45;&gt;24278240</title>
<path fill="none" stroke="black" d="M1211.62,-446.249C1190.65,-464.713 1166.31,-486.15 1144.74,-505.153"/>
<polygon fill="black" stroke="black" points="1142.42,-502.528 1137.23,-511.764 1147.05,-507.781 1142.42,-502.528"/>
</g>
<!-- 24312720 -->
<g id="node21" class="node"><title>24312720</title>
<ellipse fill="darkseagreen" stroke="black" cx="1929" cy="-401" rx="155.063" ry="46.669"/>
<text text-anchor="middle" x="1929" y="-408.4" font-family="Times Roman,serif" font-size="24.00">exp: x</text>
<text text-anchor="middle" x="1929" y="-379.4" font-family="Times Roman,serif" font-size="24.00">value: &#45;1.064426</text>
</g>
<!-- 24797728&#45;&gt;24312720 -->
<g id="edge66" class="edge"><title>24797728&#45;&gt;24312720</title>
<path fill="none" stroke="black" d="M1374.72,-360.823C1412.69,-349.082 1455.71,-337.84 1496,-332 1554.28,-323.552 1703.23,-320.598 1761,-332 1787.47,-337.224 1815.01,-346.665 1839.96,-356.92"/>
<polygon fill="black" stroke="black" points="1838.81,-360.233 1849.38,-360.883 1841.52,-353.78 1838.81,-360.233"/>
</g>
<!-- 24548272 -->
<g id="node4" class="node"><title>24548272</title>
<ellipse fill="#999999" stroke="black" cx="1263" cy="-292" rx="99.9096" ry="26.163"/>
<text text-anchor="middle" x="1263" y="-284.9" font-family="Times Roman,serif" font-size="24.00">request: []</text>
</g>
<!-- 24548272&#45;&gt;24797728 -->
<g id="edge16" class="edge"><title>24548272&#45;&gt;24797728</title>
<path fill="none" stroke="black" d="M1263,-318.108C1263,-325.979 1263,-334.946 1263,-344.005"/>
<polygon fill="black" stroke="black" points="1259.5,-344.218 1263,-354.218 1266.5,-344.218 1259.5,-344.218"/>
</g>
<!-- 24835472 -->
<g id="node5" class="node"><title>24835472</title>
<ellipse fill="#999999" stroke="black" cx="1414" cy="-183" rx="154.149" ry="46.669"/>
<text text-anchor="middle" x="1414" y="-190.4" font-family="Times Roman,serif" font-size="24.00">exp: snormal</text>
<text text-anchor="middle" x="1414" y="-161.4" font-family="Times Roman,serif" font-size="24.00">value: sp:normal</text>
</g>
<!-- 24835472&#45;&gt;24797728 -->
<g id="edge6" class="edge"><title>24835472&#45;&gt;24797728</title>
<path fill="none" stroke="black" d="M1406.86,-229.604C1400.93,-257.191 1390.37,-291.76 1372,-318 1363.74,-329.794 1353.3,-340.651 1342.16,-350.355"/>
<polygon fill="black" stroke="black" points="1339.78,-347.784 1334.35,-356.886 1344.27,-353.152 1339.78,-347.784"/>
</g>
<!-- 24835472&#45;&gt;24548272 -->
<g id="edge8" class="edge"><title>24835472&#45;&gt;24548272</title>
<path fill="none" stroke="black" d="M1354.32,-226.08C1337.91,-237.929 1320.45,-250.532 1305.24,-261.511"/>
<polygon fill="black" stroke="black" points="1303.1,-258.737 1297.04,-267.428 1307.2,-264.413 1303.1,-258.737"/>
</g>
<!-- 24948704 -->
<g id="node6" class="node"><title>24948704</title>
<ellipse fill="#999999" stroke="black" cx="1093" cy="-183" rx="149.2" ry="46.669"/>
<text text-anchor="middle" x="1093" y="-190.4" font-family="Times Roman,serif" font-size="24.00">exp: 1.000000</text>
<text text-anchor="middle" x="1093" y="-161.4" font-family="Times Roman,serif" font-size="24.00">value: 1.000000</text>
</g>
<!-- 24948704&#45;&gt;24797728 -->
<g id="edge12" class="edge"><title>24948704&#45;&gt;24797728</title>
<path fill="none" stroke="black" d="M1107.54,-229.588C1117.66,-257.17 1133.1,-291.738 1154,-318 1163.29,-329.679 1174.58,-340.62 1186.33,-350.482"/>
<polygon fill="black" stroke="black" points="1184.13,-353.207 1194.1,-356.805 1188.55,-347.778 1184.13,-353.207"/>
</g>
<!-- 24948704&#45;&gt;24548272 -->
<g id="edge14" class="edge"><title>24948704&#45;&gt;24548272</title>
<path fill="none" stroke="black" d="M1158.24,-224.831C1177.71,-237.316 1198.65,-250.741 1216.65,-262.282"/>
<polygon fill="black" stroke="black" points="1214.92,-265.333 1225.23,-267.784 1218.7,-259.44 1214.92,-265.333"/>
</g>
<!-- 25983136 -->
<g id="node8" class="node"><title>25983136</title>
<ellipse fill="#63b8ff" stroke="black" cx="933" cy="-1034" rx="604.076" ry="46.669"/>
<text text-anchor="middle" x="933" y="-1041.4" font-family="Times Roman,serif" font-size="24.00">exp: (snormal (branch_exp x (quote (snormal x)) (quote (snormal x))))</text>
<text text-anchor="middle" x="933" y="-1012.4" font-family="Times Roman,serif" font-size="24.00">value: 10.000000</text>
</g>
<!-- 25933504 -->
<g id="node9" class="node"><title>25933504</title>
<ellipse fill="#63b8ff" stroke="black" cx="933" cy="-925" rx="99.9096" ry="26.163"/>
<text text-anchor="middle" x="933" y="-917.9" font-family="Times Roman,serif" font-size="24.00">request: []</text>
</g>
<!-- 25933504&#45;&gt;25983136 -->
<g id="edge54" class="edge"><title>25933504&#45;&gt;25983136</title>
<path fill="none" stroke="black" d="M933,-951.108C933,-958.979 933,-967.946 933,-977.005"/>
<polygon fill="black" stroke="black" points="929.5,-977.218 933,-987.218 936.5,-977.218 929.5,-977.218"/>
</g>
<!-- 25152112 -->
<g id="node10" class="node"><title>25152112</title>
<ellipse fill="#999999" stroke="black" cx="1414" cy="-816" rx="154.149" ry="46.669"/>
<text text-anchor="middle" x="1414" y="-823.4" font-family="Times Roman,serif" font-size="24.00">exp: snormal</text>
<text text-anchor="middle" x="1414" y="-794.4" font-family="Times Roman,serif" font-size="24.00">value: sp:normal</text>
</g>
<!-- 25152112&#45;&gt;25983136 -->
<g id="edge18" class="edge"><title>25152112&#45;&gt;25983136</title>
<path fill="none" stroke="black" d="M1328.56,-854.723C1249.12,-890.728 1130.32,-944.569 1043.66,-983.848"/>
<polygon fill="black" stroke="black" points="1041.98,-980.767 1034.31,-988.083 1044.87,-987.142 1041.98,-980.767"/>
</g>
<!-- 25152112&#45;&gt;25933504 -->
<g id="edge20" class="edge"><title>25152112&#45;&gt;25933504</title>
<path fill="none" stroke="black" d="M1304.75,-848.935C1286.86,-853.915 1268.46,-858.788 1251,-863 1176.13,-881.056 1090.38,-897.534 1026.8,-908.956"/>
<polygon fill="black" stroke="black" points="1026.02,-905.54 1016.79,-910.746 1027.25,-912.431 1026.02,-905.54"/>
</g>
<!-- 24547216 -->
<g id="node11" class="node"><title>24547216</title>
<ellipse fill="gold" stroke="black" cx="724" cy="-816" rx="517.809" ry="46.669"/>
<text text-anchor="middle" x="724" y="-823.4" font-family="Times Roman,serif" font-size="24.00">exp: (branch_exp x (quote (snormal x)) (quote (snormal x)))</text>
<text text-anchor="middle" x="724" y="-794.4" font-family="Times Roman,serif" font-size="24.00">value: &#45;2.403890</text>
</g>
<!-- 24547216&#45;&gt;25983136 -->
<g id="edge24" class="edge"><title>24547216&#45;&gt;25983136</title>
<path fill="none" stroke="black" d="M753.687,-862.62C772.191,-889.885 797.469,-924.115 824,-951 834.317,-961.454 845.998,-971.694 857.786,-981.215"/>
<polygon fill="black" stroke="black" points="855.937,-984.216 865.948,-987.685 860.286,-978.731 855.937,-984.216"/>
</g>
<!-- 24547216&#45;&gt;25933504 -->
<g id="edge26" class="edge"><title>24547216&#45;&gt;25933504</title>
<path fill="none" stroke="black" d="M812.029,-861.91C834.764,-873.767 858.565,-886.18 878.982,-896.828"/>
<polygon fill="black" stroke="black" points="877.624,-900.067 888.109,-901.588 880.861,-893.86 877.624,-900.067"/>
</g>
<!-- 23820576 -->
<g id="node12" class="node"><title>23820576</title>
<ellipse fill="gold" stroke="black" cx="724" cy="-686" rx="374.974" ry="26.163"/>
<text text-anchor="middle" x="724" y="-678.9" font-family="Times Roman,serif" font-size="24.00">request: [(23820576, (snormal x), &lt;env&gt;)]</text>
</g>
<!-- 23820576&#45;&gt;24547216 -->
<g id="edge48" class="edge"><title>23820576&#45;&gt;24547216</title>
<path fill="none" stroke="black" d="M724,-712.307C724,-725.886 724,-743.006 724,-759.401"/>
<polygon fill="black" stroke="black" points="720.5,-759.477 724,-769.477 727.5,-759.477 720.5,-759.477"/>
</g>
<!-- 26044912 -->
<g id="node18" class="node"><title>26044912</title>
<ellipse fill="darkseagreen" stroke="black" cx="1988" cy="-686" rx="155.063" ry="46.669"/>
<text text-anchor="middle" x="1988" y="-693.4" font-family="Times Roman,serif" font-size="24.00">exp: (snormal x)</text>
<text text-anchor="middle" x="1988" y="-664.4" font-family="Times Roman,serif" font-size="24.00">value: &#45;2.403890</text>
</g>
<!-- 23820576&#45;&gt;26044912 -->
<g id="edge52" class="edge"><title>23820576&#45;&gt;26044912</title>
<path fill="none" stroke="black" stroke-dasharray="1,5" d="M1099.25,-686C1340.37,-686 1581.49,-686 1822.62,-686"/>
<polygon fill="black" stroke="black" points="1822.64,-689.5 1832.64,-686 1822.64,-682.5 1822.64,-689.5"/>
</g>
<!-- 24544256 -->
<g id="node13" class="node"><title>24544256</title>
<ellipse fill="#999999" stroke="black" cx="1414" cy="-556" rx="154.149" ry="46.669"/>
<text text-anchor="middle" x="1414" y="-563.4" font-family="Times Roman,serif" font-size="24.00">exp: branch_exp</text>
<text text-anchor="middle" x="1414" y="-534.4" font-family="Times Roman,serif" font-size="24.00">value: sp:branch</text>
</g>
<!-- 24544256&#45;&gt;24547216 -->
<g id="edge28" class="edge"><title>24544256&#45;&gt;24547216</title>
<path fill="none" stroke="black" d="M1346.56,-597.811C1325.52,-610.929 1302.26,-625.508 1281,-639 1210.43,-683.794 1200.64,-710.034 1123,-741 1089.35,-754.424 1053.12,-765.481 1016.71,-774.58"/>
<polygon fill="black" stroke="black" points="1015.82,-771.193 1006.94,-776.973 1017.49,-777.992 1015.82,-771.193"/>
</g>
<!-- 24544256&#45;&gt;23820576 -->
<g id="edge30" class="edge"><title>24544256&#45;&gt;23820576</title>
<path fill="none" stroke="black" d="M1305.76,-589.247C1287.58,-594.245 1268.83,-599.042 1251,-603 1140.52,-627.527 1015.46,-647.548 914.894,-661.778"/>
<polygon fill="black" stroke="black" points="914.345,-658.321 904.931,-663.18 915.321,-665.252 914.345,-658.321"/>
</g>
<!-- 24278240&#45;&gt;24547216 -->
<g id="edge34" class="edge"><title>24278240&#45;&gt;24547216</title>
<path fill="none" stroke="black" d="M1109.42,-602.404C1125.62,-643.433 1139.65,-702.575 1108,-741 1096.51,-754.957 1073.18,-766.353 1043.45,-775.649"/>
<polygon fill="black" stroke="black" points="1042.16,-772.381 1033.58,-778.594 1044.16,-779.089 1042.16,-772.381"/>
</g>
<!-- 24278240&#45;&gt;23820576 -->
<g id="edge36" class="edge"><title>24278240&#45;&gt;23820576</title>
<path fill="none" stroke="black" d="M987.329,-591.695C930.008,-612.223 858.915,-637.683 805.051,-656.973"/>
<polygon fill="black" stroke="black" points="803.777,-653.712 795.542,-660.379 806.137,-660.302 803.777,-653.712"/>
</g>
<!-- 24454080 -->
<g id="node15" class="node"><title>24454080</title>
<ellipse fill="#999999" stroke="black" cx="696" cy="-556" rx="217.789" ry="46.669"/>
<text text-anchor="middle" x="696" y="-563.4" font-family="Times Roman,serif" font-size="24.00">exp: (quote (snormal x))</text>
<text text-anchor="middle" x="696" y="-534.4" font-family="Times Roman,serif" font-size="24.00">value: (snormal x)</text>
</g>
<!-- 24454080&#45;&gt;24547216 -->
<g id="edge40" class="edge"><title>24454080&#45;&gt;24547216</title>
<path fill="none" stroke="black" d="M538.323,-588.206C446.209,-607.779 346.689,-630.573 340,-639 311.818,-674.509 311.18,-706.007 340,-741 351.495,-754.957 374.816,-766.353 404.548,-775.649"/>
<polygon fill="black" stroke="black" points="403.836,-779.089 414.419,-778.594 405.837,-772.381 403.836,-779.089"/>
</g>
<!-- 24454080&#45;&gt;23820576 -->
<g id="edge42" class="edge"><title>24454080&#45;&gt;23820576</title>
<path fill="none" stroke="black" d="M706.03,-602.566C709.363,-618.043 713.024,-635.04 716.167,-649.632"/>
<polygon fill="black" stroke="black" points="712.825,-650.737 718.352,-659.776 719.668,-649.263 712.825,-650.737"/>
</g>
<!-- 24469392 -->
<g id="node16" class="node"><title>24469392</title>
<ellipse fill="#999999" stroke="black" cx="242" cy="-556" rx="217.789" ry="46.669"/>
<text text-anchor="middle" x="242" y="-563.4" font-family="Times Roman,serif" font-size="24.00">exp: (quote (snormal x))</text>
<text text-anchor="middle" x="242" y="-534.4" font-family="Times Roman,serif" font-size="24.00">value: (snormal x)</text>
</g>
<!-- 24469392&#45;&gt;24547216 -->
<g id="edge44" class="edge"><title>24469392&#45;&gt;24547216</title>
<path fill="none" stroke="black" d="M247.595,-602.563C255.273,-645.183 273.261,-706.681 315,-741 332.128,-755.084 364.59,-766.727 404.039,-776.29"/>
<polygon fill="black" stroke="black" points="403.4,-779.735 413.935,-778.614 405,-772.921 403.4,-779.735"/>
</g>
<!-- 24469392&#45;&gt;23820576 -->
<g id="edge46" class="edge"><title>24469392&#45;&gt;23820576</title>
<path fill="none" stroke="black" d="M377.547,-592.558C454.668,-613.359 549.736,-638.999 620.765,-658.157"/>
<polygon fill="black" stroke="black" points="620.057,-661.591 630.624,-660.816 621.88,-654.832 620.057,-661.591"/>
</g>
<!-- 26044912&#45;&gt;24547216 -->
<g id="edge50" class="edge"><title>26044912&#45;&gt;24547216</title>
<path fill="none" stroke="black" d="M1848.47,-706.534C1769.75,-717.686 1669.52,-731.163 1580,-741 1434.13,-757.03 1397.2,-756.26 1251,-769 1202.31,-773.243 1151.1,-777.752 1100.52,-782.234"/>
<polygon fill="black" stroke="black" points="1100.06,-778.76 1090.41,-783.13 1100.68,-785.733 1100.06,-778.76"/>
</g>
<!-- 25834208 -->
<g id="node19" class="node"><title>25834208</title>
<ellipse fill="darkseagreen" stroke="black" cx="2048" cy="-556" rx="99.9096" ry="26.163"/>
<text text-anchor="middle" x="2048" y="-548.9" font-family="Times Roman,serif" font-size="24.00">request: []</text>
</g>
<!-- 25834208&#45;&gt;26044912 -->
<g id="edge68" class="edge"><title>25834208&#45;&gt;26044912</title>
<path fill="none" stroke="black" d="M2036,-581.995C2029.57,-595.937 2021.38,-613.677 2013.6,-630.542"/>
<polygon fill="black" stroke="black" points="2010.34,-629.245 2009.33,-639.792 2016.7,-632.179 2010.34,-629.245"/>
</g>
<!-- 23849776 -->
<g id="node20" class="node"><title>23849776</title>
<ellipse fill="darkseagreen" stroke="black" cx="2256" cy="-401" rx="154.149" ry="46.669"/>
<text text-anchor="middle" x="2256" y="-408.4" font-family="Times Roman,serif" font-size="24.00">exp: snormal</text>
<text text-anchor="middle" x="2256" y="-379.4" font-family="Times Roman,serif" font-size="24.00">value: sp:normal</text>
</g>
<!-- 23849776&#45;&gt;26044912 -->
<g id="edge56" class="edge"><title>23849776&#45;&gt;26044912</title>
<path fill="none" stroke="black" d="M2242.9,-447.528C2228.28,-492.211 2200.75,-559.211 2157,-603 2139.94,-620.072 2118.67,-634.2 2097.03,-645.662"/>
<polygon fill="black" stroke="black" points="2095.38,-642.575 2088.07,-650.249 2098.57,-648.805 2095.38,-642.575"/>
</g>
<!-- 23849776&#45;&gt;25834208 -->
<g id="edge58" class="edge"><title>23849776&#45;&gt;25834208</title>
<path fill="none" stroke="black" d="M2198.06,-444.176C2163.41,-469.996 2120.22,-502.185 2089.08,-525.389"/>
<polygon fill="black" stroke="black" points="2086.96,-522.602 2081.03,-531.384 2091.14,-528.215 2086.96,-522.602"/>
</g>
<!-- 24312720&#45;&gt;26044912 -->
<g id="edge62" class="edge"><title>24312720&#45;&gt;26044912</title>
<path fill="none" stroke="black" d="M1925.06,-447.797C1923.01,-489.44 1923.57,-551.543 1939,-603 1941.88,-612.617 1946.11,-622.285 1950.89,-631.452"/>
<polygon fill="black" stroke="black" points="1947.94,-633.353 1955.82,-640.432 1954.07,-629.982 1947.94,-633.353"/>
</g>
<!-- 24312720&#45;&gt;25834208 -->
<g id="edge64" class="edge"><title>24312720&#45;&gt;25834208</title>
<path fill="none" stroke="black" d="M1964.06,-446.667C1982.66,-470.897 2005.12,-500.152 2022.13,-522.3"/>
<polygon fill="black" stroke="black" points="2019.49,-524.615 2028.36,-530.416 2025.04,-520.352 2019.49,-524.615"/>
</g>
<!-- 23729536 -->
<g id="node24" class="node"><title>23729536</title>
<ellipse fill="none" stroke="black" cx="1746" cy="-19" rx="62.9325" ry="18.3848"/>
<text text-anchor="middle" x="1746" y="-15.4" font-family="Times Roman,serif" font-size="14.00">23729536</text>
</g>
<!-- 23729536&#45;&gt;24835472 -->
<g id="edge10" class="edge"><title>23729536&#45;&gt;24835472</title>
<path fill="none" stroke="black" d="M1685.81,-24.7638C1643.8,-29.4588 1591.83,-36.8061 1572,-46 1529.19,-65.8505 1489.11,-100.863 1460.04,-130.523"/>
<polygon fill="black" stroke="black" points="1457.31,-128.308 1452.89,-137.935 1462.35,-133.168 1457.31,-128.308"/>
</g>
<!-- 23729536&#45;&gt;25152112 -->
<g id="edge22" class="edge"><title>23729536&#45;&gt;25152112</title>
<path fill="none" stroke="black" d="M1746,-37.5369C1746,-81.6347 1746,-196.26 1746,-292 1746,-292 1746,-292 1746,-556 1746,-668.653 1626.05,-739.816 1530.35,-778.666"/>
<polygon fill="black" stroke="black" points="1528.87,-775.488 1520.87,-782.44 1531.46,-781.991 1528.87,-775.488"/>
</g>
<!-- 23729536&#45;&gt;23849776 -->
<g id="edge60" class="edge"><title>23729536&#45;&gt;23849776</title>
<path fill="none" stroke="black" d="M1769.24,-36.4064C1843.26,-91.8532 2075.41,-265.731 2190.28,-351.775"/>
<polygon fill="black" stroke="black" points="2188.24,-354.622 2198.35,-357.815 2192.44,-349.019 2188.24,-354.622"/>
</g>
<!-- 19090464 -->
<g id="node36" class="node"><title>19090464</title>
<ellipse fill="none" stroke="black" cx="1655" cy="-401" rx="62.9325" ry="18.3848"/>
<text text-anchor="middle" x="1655" y="-397.4" font-family="Times Roman,serif" font-size="14.00">19090464</text>
</g>
<!-- 19090464&#45;&gt;24544256 -->
<g id="edge32" class="edge"><title>19090464&#45;&gt;24544256</title>
<path fill="none" stroke="black" d="M1632.41,-418.397C1617.71,-429.501 1598.01,-444.008 1580,-456 1552.58,-474.257 1521.86,-493.176 1494.36,-509.579"/>
<polygon fill="black" stroke="black" points="1492.37,-506.695 1485.56,-514.813 1495.94,-512.712 1492.37,-506.695"/>
</g>
</g>
</svg>
