<?xml version="1.0" encoding="UTF-8" standalone="no"?>
<!DOCTYPE svg PUBLIC "-//W3C//DTD SVG 1.1//EN"
 "http://www.w3.org/Graphics/SVG/1.1/DTD/svg11.dtd">
<!-- Generated by graphviz version 2.26.3 (20100126.1600)
 -->
<!-- Title: _anonymous_0 Pages: 1 -->
<svg width="278pt" height="548pt"
 viewBox="0.00 0.00 278.00 548.00" xmlns="http://www.w3.org/2000/svg" xmlns:xlink="http://www.w3.org/1999/xlink">
<g id="graph1" class="graph" transform="scale(1 1) rotate(0) translate(4 544)">
<title>_anonymous_0</title>
<polygon fill="white" stroke="white" points="-4,5 -4,-544 275,-544 275,5 -4,5"/>
<!-- 57853120 -->
<g id="node3" class="node"><title>57853120</title>
<ellipse fill="firebrick" stroke="black" cx="99" cy="-162" rx="27" ry="18"/>
</g>
<!-- 58029104 -->
<g id="node14" class="node"><title>58029104</title>
<ellipse fill="gold" stroke="black" cx="99" cy="-234" rx="27" ry="18"/>
</g>
<!-- 57853120&#45;&gt;58029104 -->
<g id="edge31" class="edge"><title>57853120&#45;&gt;58029104</title>
<path fill="none" stroke="black" d="M99,-180.169C99,-187.869 99,-197.026 99,-205.583"/>
<polygon fill="black" stroke="black" points="95.5001,-205.587 99,-215.587 102.5,-205.587 95.5001,-205.587"/>
</g>
<!-- 59845616 -->
<g id="node4" class="node"><title>59845616</title>
<ellipse fill="#999999" stroke="black" cx="99" cy="-90" rx="27" ry="18"/>
</g>
<!-- 59845616&#45;&gt;57853120 -->
<g id="edge13" class="edge"><title>59845616&#45;&gt;57853120</title>
<path fill="none" stroke="black" d="M99,-108.169C99,-115.869 99,-125.026 99,-133.583"/>
<polygon fill="black" stroke="black" points="95.5001,-133.587 99,-143.587 102.5,-133.587 95.5001,-133.587"/>
</g>
<!-- 58709264 -->
<g id="node5" class="node"><title>58709264</title>
<ellipse fill="#999999" stroke="black" cx="63" cy="-18" rx="27" ry="18"/>
</g>
<!-- 58709264&#45;&gt;57853120 -->
<g id="edge5" class="edge"><title>58709264&#45;&gt;57853120</title>
<path fill="none" stroke="black" d="M59.9883,-36.0363C57.5895,-54.5334 55.7101,-83.9232 63,-108 66.2661,-118.787 72.4764,-129.389 78.8313,-138.304"/>
<polygon fill="black" stroke="black" points="76.0487,-140.427 84.8771,-146.284 81.6285,-136.2 76.0487,-140.427"/>
</g>
<!-- 58709264&#45;&gt;59845616 -->
<g id="edge7" class="edge"><title>58709264&#45;&gt;59845616</title>
<path fill="none" stroke="black" d="M71.7146,-35.4292C75.9597,-43.9193 81.1536,-54.3071 85.8663,-63.7326"/>
<polygon fill="black" stroke="black" points="82.763,-65.3523 90.3657,-72.7313 89.024,-62.2218 82.763,-65.3523"/>
</g>
<!-- 58747008 -->
<g id="node6" class="node"><title>58747008</title>
<ellipse fill="#999999" stroke="black" cx="144" cy="-18" rx="27" ry="18"/>
</g>
<!-- 58747008&#45;&gt;57853120 -->
<g id="edge9" class="edge"><title>58747008&#45;&gt;57853120</title>
<path fill="none" stroke="black" d="M144.723,-36.1499C144.885,-54.7374 143.522,-84.1981 135,-108 131.24,-118.502 125.004,-128.957 118.77,-137.831"/>
<polygon fill="black" stroke="black" points="115.768,-136.002 112.628,-146.121 121.393,-140.169 115.768,-136.002"/>
</g>
<!-- 58747008&#45;&gt;59845616 -->
<g id="edge11" class="edge"><title>58747008&#45;&gt;59845616</title>
<path fill="none" stroke="black" d="M133.563,-34.6992C128.077,-43.4776 121.231,-54.4297 115.084,-64.2661"/>
<polygon fill="black" stroke="black" points="112.025,-62.5564 109.693,-72.8914 117.961,-66.2664 112.025,-62.5564"/>
</g>
<!-- 59422672 -->
<g id="node8" class="node"><title>59422672</title>
<ellipse fill="#63b8ff" stroke="black" cx="97" cy="-522" rx="27" ry="18"/>
</g>
<!-- 59197856 -->
<g id="node9" class="node"><title>59197856</title>
<ellipse fill="#63b8ff" stroke="black" cx="97" cy="-450" rx="27" ry="18"/>
</g>
<!-- 59197856&#45;&gt;59422672 -->
<g id="edge43" class="edge"><title>59197856&#45;&gt;59422672</title>
<path fill="none" stroke="black" d="M97,-468.169C97,-475.869 97,-485.026 97,-493.583"/>
<polygon fill="black" stroke="black" points="93.5001,-493.587 97,-503.587 100.5,-493.587 93.5001,-493.587"/>
</g>
<!-- 59746352 -->
<g id="node10" class="node"><title>59746352</title>
<ellipse fill="#999999" stroke="black" cx="51" cy="-378" rx="27" ry="18"/>
</g>
<!-- 59746352&#45;&gt;59422672 -->
<g id="edge15" class="edge"><title>59746352&#45;&gt;59422672</title>
<path fill="none" stroke="black" d="M50.5302,-396.158C50.6151,-414.752 52.3368,-444.218 61,-468 64.8179,-478.481 71.0667,-488.931 77.2954,-497.807"/>
<polygon fill="black" stroke="black" points="74.6676,-500.14 83.4265,-506.101 80.2966,-495.979 74.6676,-500.14"/>
</g>
<!-- 59746352&#45;&gt;59197856 -->
<g id="edge17" class="edge"><title>59746352&#45;&gt;59197856</title>
<path fill="none" stroke="black" d="M61.6689,-394.699C67.3586,-403.605 74.4777,-414.748 80.8316,-424.693"/>
<polygon fill="black" stroke="black" points="78.0555,-426.849 86.3889,-433.391 83.9544,-423.08 78.0555,-426.849"/>
</g>
<!-- 59162912 -->
<g id="node11" class="node"><title>59162912</title>
<ellipse fill="gold" stroke="black" cx="142" cy="-378" rx="27" ry="18"/>
</g>
<!-- 59162912&#45;&gt;59422672 -->
<g id="edge19" class="edge"><title>59162912&#45;&gt;59422672</title>
<path fill="none" stroke="black" d="M142.723,-396.15C142.885,-414.737 141.522,-444.198 133,-468 129.24,-478.502 123.004,-488.957 116.77,-497.831"/>
<polygon fill="black" stroke="black" points="113.768,-496.002 110.628,-506.121 119.393,-500.169 113.768,-496.002"/>
</g>
<!-- 59162912&#45;&gt;59197856 -->
<g id="edge21" class="edge"><title>59162912&#45;&gt;59197856</title>
<path fill="none" stroke="black" d="M131.563,-394.699C126.077,-403.478 119.231,-414.43 113.084,-424.266"/>
<polygon fill="black" stroke="black" points="110.025,-422.556 107.693,-432.891 115.961,-426.266 110.025,-422.556"/>
</g>
<!-- 60205760 -->
<g id="node12" class="node"><title>60205760</title>
<ellipse fill="gold" stroke="black" cx="142" cy="-306" rx="27" ry="18"/>
</g>
<!-- 60205760&#45;&gt;59162912 -->
<g id="edge41" class="edge"><title>60205760&#45;&gt;59162912</title>
<path fill="none" stroke="black" d="M142,-324.169C142,-331.869 142,-341.026 142,-349.583"/>
<polygon fill="black" stroke="black" points="138.5,-349.587 142,-359.587 145.5,-349.587 138.5,-349.587"/>
</g>
<!-- 57694784 -->
<g id="node13" class="node"><title>57694784</title>
<ellipse fill="#999999" stroke="black" cx="27" cy="-234" rx="27" ry="18"/>
</g>
<!-- 57694784&#45;&gt;59162912 -->
<g id="edge23" class="edge"><title>57694784&#45;&gt;59162912</title>
<path fill="none" stroke="black" d="M38.687,-250.583C51.7405,-268.892 73.708,-299.075 94,-324 102.414,-334.335 112.112,-345.393 120.579,-354.794"/>
<polygon fill="black" stroke="black" points="118.033,-357.197 127.347,-362.248 123.216,-352.492 118.033,-357.197"/>
</g>
<!-- 57694784&#45;&gt;60205760 -->
<g id="edge25" class="edge"><title>57694784&#45;&gt;60205760</title>
<path fill="none" stroke="black" d="M46.7692,-246.377C65.1178,-257.865 92.6439,-275.099 113.391,-288.088"/>
<polygon fill="black" stroke="black" points="111.771,-291.203 122.104,-293.543 115.485,-285.27 111.771,-291.203"/>
</g>
<!-- 58029104&#45;&gt;59162912 -->
<g id="edge27" class="edge"><title>58029104&#45;&gt;59162912</title>
<path fill="none" stroke="black" d="M97.7709,-252.131C97.1132,-270.703 97.7566,-300.152 106,-324 109.644,-334.543 115.854,-345.007 122.099,-353.877"/>
<polygon fill="black" stroke="black" points="119.485,-356.227 128.264,-362.159 125.101,-352.047 119.485,-356.227"/>
</g>
<!-- 58029104&#45;&gt;60205760 -->
<g id="edge29" class="edge"><title>58029104&#45;&gt;60205760</title>
<path fill="none" stroke="black" d="M109.19,-251.063C114.385,-259.761 120.811,-270.52 126.595,-280.205"/>
<polygon fill="black" stroke="black" points="123.75,-282.269 131.883,-289.059 129.76,-278.679 123.75,-282.269"/>
</g>
<!-- 58459264 -->
<g id="node15" class="node"><title>58459264</title>
<ellipse fill="#999999" stroke="black" cx="171" cy="-234" rx="27" ry="18"/>
</g>
<!-- 58459264&#45;&gt;59162912 -->
<g id="edge33" class="edge"><title>58459264&#45;&gt;59162912</title>
<path fill="none" stroke="black" d="M176.197,-252.006C180.658,-270.479 185.312,-299.85 178,-324 174.734,-334.787 168.524,-345.389 162.169,-354.304"/>
<polygon fill="black" stroke="black" points="159.372,-352.2 156.123,-362.284 164.951,-356.427 159.372,-352.2"/>
</g>
<!-- 58459264&#45;&gt;60205760 -->
<g id="edge35" class="edge"><title>58459264&#45;&gt;60205760</title>
<path fill="none" stroke="black" d="M163.98,-251.429C160.656,-259.681 156.61,-269.726 152.9,-278.938"/>
<polygon fill="black" stroke="black" points="149.546,-277.898 149.056,-288.482 156.039,-280.514 149.546,-277.898"/>
</g>
<!-- 58161280 -->
<g id="node16" class="node"><title>58161280</title>
<ellipse fill="#999999" stroke="black" cx="243" cy="-234" rx="27" ry="18"/>
</g>
<!-- 58161280&#45;&gt;59162912 -->
<g id="edge37" class="edge"><title>58161280&#45;&gt;59162912</title>
<path fill="none" stroke="black" d="M234.978,-251.352C225.966,-270.064 210.317,-300.348 193,-324 184.705,-335.33 174.24,-346.791 164.951,-356.222"/>
<polygon fill="black" stroke="black" points="162.445,-353.779 157.817,-363.31 167.378,-358.744 162.445,-353.779"/>
</g>
<!-- 58161280&#45;&gt;60205760 -->
<g id="edge39" class="edge"><title>58161280&#45;&gt;60205760</title>
<path fill="none" stroke="black" d="M224.475,-247.206C208.912,-258.3 186.466,-274.301 168.919,-286.81"/>
<polygon fill="black" stroke="black" points="166.861,-283.979 160.75,-292.634 170.924,-289.679 166.861,-283.979"/>
</g>
</g>
</svg>
