<?xml version="1.0" encoding="UTF-8" standalone="no"?>
<!DOCTYPE svg PUBLIC "-//W3C//DTD SVG 1.1//EN"
 "http://www.w3.org/Graphics/SVG/1.1/DTD/svg11.dtd">
<!-- Generated by graphviz version 2.26.3 (20100126.1600)
 -->
<!-- Title: _anonymous_0 Pages: 1 -->
<svg width="2410pt" height="1113pt"
 viewBox="0.00 0.00 2410.00 1113.00" xmlns="http://www.w3.org/2000/svg" xmlns:xlink="http://www.w3.org/1999/xlink">
<g id="graph1" class="graph" transform="scale(1 1) rotate(0) translate(4 1109)">
<title>_anonymous_0</title>
<polygon fill="white" stroke="white" points="-4,5 -4,-1109 2407,-1109 2407,5 -4,5"/>
<g id="graph2" class="cluster"><title>cluster1</title>
<polygon fill="none" stroke="black" points="8,-46 8,-1097 1572,-1097 1572,-46 8,-46"/>
<text text-anchor="middle" x="790" y="-57.4" font-family="Times Roman,serif" font-size="24.00">Venture Families</text>
</g>
<g id="graph3" class="cluster"><title>cluster2</title>
<polygon fill="none" stroke="black" points="924,-91 924,-456 1564,-456 1564,-91 924,-91"/>
<text text-anchor="middle" x="1244" y="-102.4" font-family="Times Roman,serif" font-size="24.00">1</text>
</g>
<g id="graph4" class="cluster"><title>cluster3</title>
<polygon fill="none" stroke="black" points="16,-464 16,-1089 1564,-1089 1564,-464 16,-464"/>
<text text-anchor="middle" x="790" y="-475.4" font-family="Times Roman,serif" font-size="24.00">2</text>
</g>
<g id="graph5" class="cluster"><title>cluster4</title>
<polygon fill="none" stroke="black" points="1754,-346 1754,-741 2394,-741 2394,-346 1754,-346"/>
</g>
<!-- 38144880 -->
<g id="node3" class="node"><title>38144880</title>
<ellipse fill="#999999" stroke="black" cx="1251" cy="-401" rx="219.91" ry="46.669"/>
<text text-anchor="middle" x="1251" y="-408.4" font-family="Times Roman,serif" font-size="24.00">exp: (snormal 1.000000)</text>
<text text-anchor="middle" x="1251" y="-379.4" font-family="Times Roman,serif" font-size="24.00">value: 0.463641</text>
</g>
<!-- 36649536 -->
<g id="node14" class="node"><title>36649536</title>
<ellipse fill="#999999" stroke="black" cx="1081" cy="-556" rx="149.2" ry="46.669"/>
<text text-anchor="middle" x="1081" y="-563.4" font-family="Times Roman,serif" font-size="24.00">exp: x</text>
<text text-anchor="middle" x="1081" y="-534.4" font-family="Times Roman,serif" font-size="24.00">value: 0.463641</text>
</g>
<!-- 38144880&#45;&gt;36649536 -->
<g id="edge52" class="edge"><title>38144880&#45;&gt;36649536</title>
<path fill="none" stroke="black" d="M1200.91,-446.667C1180.76,-465.039 1157.45,-486.299 1136.76,-505.161"/>
<polygon fill="black" stroke="black" points="1134.3,-502.667 1129.27,-511.991 1139.02,-507.84 1134.3,-502.667"/>
</g>
<!-- 38417072 -->
<g id="node21" class="node"><title>38417072</title>
<ellipse fill="#999999" stroke="black" cx="1911" cy="-401" rx="149.2" ry="46.669"/>
<text text-anchor="middle" x="1911" y="-408.4" font-family="Times Roman,serif" font-size="24.00">exp: x</text>
<text text-anchor="middle" x="1911" y="-379.4" font-family="Times Roman,serif" font-size="24.00">value: 0.463641</text>
</g>
<!-- 38144880&#45;&gt;38417072 -->
<g id="edge16" class="edge"><title>38144880&#45;&gt;38417072</title>
<path fill="none" stroke="black" d="M1362.72,-360.823C1400.69,-349.082 1443.71,-337.84 1484,-332 1542.28,-323.552 1691.3,-320.224 1749,-332 1774.52,-337.208 1800.99,-346.591 1824.96,-356.793"/>
<polygon fill="black" stroke="black" points="1823.8,-360.105 1834.36,-360.892 1826.59,-353.688 1823.8,-360.105"/>
</g>
<!-- 37657616 -->
<g id="node4" class="node"><title>37657616</title>
<ellipse fill="#999999" stroke="black" cx="1251" cy="-292" rx="99.9096" ry="26.163"/>
<text text-anchor="middle" x="1251" y="-284.9" font-family="Times Roman,serif" font-size="24.00">request: []</text>
</g>
<!-- 37657616&#45;&gt;38144880 -->
<g id="edge30" class="edge"><title>37657616&#45;&gt;38144880</title>
<path fill="none" stroke="black" d="M1251,-318.108C1251,-325.979 1251,-334.946 1251,-344.005"/>
<polygon fill="black" stroke="black" points="1247.5,-344.218 1251,-354.218 1254.5,-344.218 1247.5,-344.218"/>
</g>
<!-- 38305664 -->
<g id="node5" class="node"><title>38305664</title>
<ellipse fill="#999999" stroke="black" cx="1402" cy="-183" rx="154.149" ry="46.669"/>
<text text-anchor="middle" x="1402" y="-190.4" font-family="Times Roman,serif" font-size="24.00">exp: snormal</text>
<text text-anchor="middle" x="1402" y="-161.4" font-family="Times Roman,serif" font-size="24.00">value: sp:normal</text>
</g>
<!-- 38305664&#45;&gt;38144880 -->
<g id="edge20" class="edge"><title>38305664&#45;&gt;38144880</title>
<path fill="none" stroke="black" d="M1394.86,-229.604C1388.93,-257.191 1378.37,-291.76 1360,-318 1351.74,-329.794 1341.3,-340.651 1330.16,-350.355"/>
<polygon fill="black" stroke="black" points="1327.78,-347.784 1322.35,-356.886 1332.27,-353.152 1327.78,-347.784"/>
</g>
<!-- 38305664&#45;&gt;37657616 -->
<g id="edge22" class="edge"><title>38305664&#45;&gt;37657616</title>
<path fill="none" stroke="black" d="M1342.32,-226.08C1325.91,-237.929 1308.45,-250.532 1293.24,-261.511"/>
<polygon fill="black" stroke="black" points="1291.1,-258.737 1285.04,-267.428 1295.2,-264.413 1291.1,-258.737"/>
</g>
<!-- 38355296 -->
<g id="node6" class="node"><title>38355296</title>
<ellipse fill="#999999" stroke="black" cx="1081" cy="-183" rx="149.2" ry="46.669"/>
<text text-anchor="middle" x="1081" y="-190.4" font-family="Times Roman,serif" font-size="24.00">exp: 1.000000</text>
<text text-anchor="middle" x="1081" y="-161.4" font-family="Times Roman,serif" font-size="24.00">value: 1.000000</text>
</g>
<!-- 38355296&#45;&gt;38144880 -->
<g id="edge26" class="edge"><title>38355296&#45;&gt;38144880</title>
<path fill="none" stroke="black" d="M1095.54,-229.588C1105.66,-257.17 1121.1,-291.738 1142,-318 1151.29,-329.679 1162.58,-340.62 1174.33,-350.482"/>
<polygon fill="black" stroke="black" points="1172.13,-353.207 1182.1,-356.805 1176.55,-347.778 1172.13,-353.207"/>
</g>
<!-- 38355296&#45;&gt;37657616 -->
<g id="edge28" class="edge"><title>38355296&#45;&gt;37657616</title>
<path fill="none" stroke="black" d="M1146.24,-224.831C1165.71,-237.316 1186.65,-250.741 1204.65,-262.282"/>
<polygon fill="black" stroke="black" points="1202.92,-265.333 1213.23,-267.784 1206.7,-259.44 1202.92,-265.333"/>
</g>
<!-- 38516368 -->
<g id="node8" class="node"><title>38516368</title>
<ellipse fill="#63b8ff" stroke="black" cx="921" cy="-1034" rx="604.076" ry="46.669"/>
<text text-anchor="middle" x="921" y="-1041.4" font-family="Times Roman,serif" font-size="24.00">exp: (snormal (branch_exp x (quote (snormal x)) (quote (snormal x))))</text>
<text text-anchor="middle" x="921" y="-1012.4" font-family="Times Roman,serif" font-size="24.00">value: 10.000000</text>
</g>
<!-- 36919568 -->
<g id="node9" class="node"><title>36919568</title>
<ellipse fill="#63b8ff" stroke="black" cx="921" cy="-925" rx="99.9096" ry="26.163"/>
<text text-anchor="middle" x="921" y="-917.9" font-family="Times Roman,serif" font-size="24.00">request: []</text>
</g>
<!-- 36919568&#45;&gt;38516368 -->
<g id="edge68" class="edge"><title>36919568&#45;&gt;38516368</title>
<path fill="none" stroke="black" d="M921,-951.108C921,-958.979 921,-967.946 921,-977.005"/>
<polygon fill="black" stroke="black" points="917.5,-977.218 921,-987.218 924.5,-977.218 917.5,-977.218"/>
</g>
<!-- 36191872 -->
<g id="node10" class="node"><title>36191872</title>
<ellipse fill="#999999" stroke="black" cx="1402" cy="-816" rx="154.149" ry="46.669"/>
<text text-anchor="middle" x="1402" y="-823.4" font-family="Times Roman,serif" font-size="24.00">exp: snormal</text>
<text text-anchor="middle" x="1402" y="-794.4" font-family="Times Roman,serif" font-size="24.00">value: sp:normal</text>
</g>
<!-- 36191872&#45;&gt;38516368 -->
<g id="edge32" class="edge"><title>36191872&#45;&gt;38516368</title>
<path fill="none" stroke="black" d="M1316.56,-854.723C1237.12,-890.728 1118.32,-944.569 1031.66,-983.848"/>
<polygon fill="black" stroke="black" points="1029.98,-980.767 1022.31,-988.083 1032.87,-987.142 1029.98,-980.767"/>
</g>
<!-- 36191872&#45;&gt;36919568 -->
<g id="edge34" class="edge"><title>36191872&#45;&gt;36919568</title>
<path fill="none" stroke="black" d="M1292.75,-848.935C1274.86,-853.915 1256.46,-858.788 1239,-863 1164.13,-881.056 1078.38,-897.534 1014.8,-908.956"/>
<polygon fill="black" stroke="black" points="1014.02,-905.54 1004.79,-910.746 1015.25,-912.431 1014.02,-905.54"/>
</g>
<!-- 36901776 -->
<g id="node11" class="node"><title>36901776</title>
<ellipse fill="gold" stroke="black" cx="712" cy="-816" rx="517.809" ry="46.669"/>
<text text-anchor="middle" x="712" y="-823.4" font-family="Times Roman,serif" font-size="24.00">exp: (branch_exp x (quote (snormal x)) (quote (snormal x)))</text>
<text text-anchor="middle" x="712" y="-794.4" font-family="Times Roman,serif" font-size="24.00">value: 0.191668</text>
</g>
<!-- 36901776&#45;&gt;38516368 -->
<g id="edge38" class="edge"><title>36901776&#45;&gt;38516368</title>
<path fill="none" stroke="black" d="M741.687,-862.62C760.191,-889.885 785.469,-924.115 812,-951 822.317,-961.454 833.998,-971.694 845.786,-981.215"/>
<polygon fill="black" stroke="black" points="843.937,-984.216 853.948,-987.685 848.286,-978.731 843.937,-984.216"/>
</g>
<!-- 36901776&#45;&gt;36919568 -->
<g id="edge40" class="edge"><title>36901776&#45;&gt;36919568</title>
<path fill="none" stroke="black" d="M800.029,-861.91C822.764,-873.767 846.565,-886.18 866.982,-896.828"/>
<polygon fill="black" stroke="black" points="865.624,-900.067 876.109,-901.588 868.861,-893.86 865.624,-900.067"/>
</g>
<!-- 36918512 -->
<g id="node12" class="node"><title>36918512</title>
<ellipse fill="#999999" stroke="black" cx="712" cy="-686" rx="374.974" ry="26.163"/>
<text text-anchor="middle" x="712" y="-678.9" font-family="Times Roman,serif" font-size="24.00">request: [(36918512, (snormal x), &lt;env&gt;)]</text>
</g>
<!-- 36918512&#45;&gt;36901776 -->
<g id="edge62" class="edge"><title>36918512&#45;&gt;36901776</title>
<path fill="none" stroke="black" d="M712,-712.307C712,-725.886 712,-743.006 712,-759.401"/>
<polygon fill="black" stroke="black" points="708.5,-759.477 712,-769.477 715.5,-759.477 708.5,-759.477"/>
</g>
<!-- 38021808 -->
<g id="node18" class="node"><title>38021808</title>
<ellipse fill="firebrick" stroke="black" cx="1971" cy="-686" rx="149.907" ry="46.669"/>
<text text-anchor="middle" x="1971" y="-693.4" font-family="Times Roman,serif" font-size="24.00">exp: (snormal x)</text>
<text text-anchor="middle" x="1971" y="-664.4" font-family="Times Roman,serif" font-size="24.00">value: 0.191668</text>
</g>
<!-- 36918512&#45;&gt;38021808 -->
<g id="edge66" class="edge"><title>36918512&#45;&gt;38021808</title>
<path fill="none" stroke="black" stroke-dasharray="1,5" d="M1087.3,-686C1328.47,-686 1569.64,-686 1810.81,-686"/>
<polygon fill="black" stroke="black" points="1810.84,-689.5 1820.84,-686 1810.84,-682.5 1810.84,-689.5"/>
</g>
<!-- 36627744 -->
<g id="node13" class="node"><title>36627744</title>
<ellipse fill="#999999" stroke="black" cx="1402" cy="-556" rx="154.149" ry="46.669"/>
<text text-anchor="middle" x="1402" y="-563.4" font-family="Times Roman,serif" font-size="24.00">exp: branch_exp</text>
<text text-anchor="middle" x="1402" y="-534.4" font-family="Times Roman,serif" font-size="24.00">value: sp:branch</text>
</g>
<!-- 36627744&#45;&gt;36901776 -->
<g id="edge42" class="edge"><title>36627744&#45;&gt;36901776</title>
<path fill="none" stroke="black" d="M1334.56,-597.811C1313.52,-610.929 1290.26,-625.508 1269,-639 1198.43,-683.794 1188.64,-710.034 1111,-741 1077.35,-754.424 1041.12,-765.481 1004.71,-774.58"/>
<polygon fill="black" stroke="black" points="1003.82,-771.193 994.944,-776.973 1005.49,-777.992 1003.82,-771.193"/>
</g>
<!-- 36627744&#45;&gt;36918512 -->
<g id="edge44" class="edge"><title>36627744&#45;&gt;36918512</title>
<path fill="none" stroke="black" d="M1293.76,-589.247C1275.58,-594.245 1256.83,-599.042 1239,-603 1128.52,-627.527 1003.46,-647.548 902.894,-661.778"/>
<polygon fill="black" stroke="black" points="902.345,-658.321 892.931,-663.18 903.321,-665.252 902.345,-658.321"/>
</g>
<!-- 36649536&#45;&gt;36901776 -->
<g id="edge48" class="edge"><title>36649536&#45;&gt;36901776</title>
<path fill="none" stroke="black" d="M1101.27,-602.461C1115.71,-643.528 1127.55,-702.695 1096,-741 1084.51,-754.957 1061.18,-766.353 1031.45,-775.649"/>
<polygon fill="black" stroke="black" points="1030.16,-772.381 1021.58,-778.594 1032.16,-779.089 1030.16,-772.381"/>
</g>
<!-- 36649536&#45;&gt;36918512 -->
<g id="edge50" class="edge"><title>36649536&#45;&gt;36918512</title>
<path fill="none" stroke="black" d="M982.115,-590.838C923.288,-611.562 849.541,-637.544 793.974,-657.12"/>
<polygon fill="black" stroke="black" points="792.788,-653.827 784.519,-660.451 795.114,-660.43 792.788,-653.827"/>
</g>
<!-- 36840688 -->
<g id="node15" class="node"><title>36840688</title>
<ellipse fill="#999999" stroke="black" cx="696" cy="-556" rx="217.789" ry="46.669"/>
<text text-anchor="middle" x="696" y="-563.4" font-family="Times Roman,serif" font-size="24.00">exp: (quote (snormal x))</text>
<text text-anchor="middle" x="696" y="-534.4" font-family="Times Roman,serif" font-size="24.00">value: (snormal x)</text>
</g>
<!-- 36840688&#45;&gt;36901776 -->
<g id="edge54" class="edge"><title>36840688&#45;&gt;36901776</title>
<path fill="none" stroke="black" d="M540.797,-588.754C441.89,-609.99 331.588,-634.512 328,-639 299.69,-674.407 299.18,-706.007 328,-741 339.495,-754.957 362.816,-766.353 392.548,-775.649"/>
<polygon fill="black" stroke="black" points="391.836,-779.089 402.419,-778.594 393.837,-772.381 391.836,-779.089"/>
</g>
<!-- 36840688&#45;&gt;36918512 -->
<g id="edge56" class="edge"><title>36840688&#45;&gt;36918512</title>
<path fill="none" stroke="black" d="M701.731,-602.566C703.636,-618.043 705.728,-635.04 707.524,-649.632"/>
<polygon fill="black" stroke="black" points="704.077,-650.278 708.772,-659.776 711.025,-649.423 704.077,-650.278"/>
</g>
<!-- 36661424 -->
<g id="node16" class="node"><title>36661424</title>
<ellipse fill="#999999" stroke="black" cx="242" cy="-556" rx="217.789" ry="46.669"/>
<text text-anchor="middle" x="242" y="-563.4" font-family="Times Roman,serif" font-size="24.00">exp: (quote (snormal x))</text>
<text text-anchor="middle" x="242" y="-534.4" font-family="Times Roman,serif" font-size="24.00">value: (snormal x)</text>
</g>
<!-- 36661424&#45;&gt;36901776 -->
<g id="edge58" class="edge"><title>36661424&#45;&gt;36901776</title>
<path fill="none" stroke="black" d="M244.445,-602.766C249.275,-645.223 263.226,-706.339 303,-741 319.369,-755.265 350.626,-766.967 388.872,-776.523"/>
<polygon fill="black" stroke="black" points="388.2,-779.961 398.742,-778.906 389.843,-773.157 388.2,-779.961"/>
</g>
<!-- 36661424&#45;&gt;36918512 -->
<g id="edge60" class="edge"><title>36661424&#45;&gt;36918512</title>
<path fill="none" stroke="black" d="M375.426,-592.905C450.182,-613.582 541.918,-638.956 610.728,-657.988"/>
<polygon fill="black" stroke="black" points="610.137,-661.457 620.709,-660.749 612.004,-654.71 610.137,-661.457"/>
</g>
<!-- 38021808&#45;&gt;36901776 -->
<g id="edge64" class="edge"><title>38021808&#45;&gt;36901776</title>
<path fill="none" stroke="black" d="M1835.5,-706.238C1757.41,-717.464 1657.31,-731.112 1568,-741 1422.14,-757.149 1385.2,-756.26 1239,-769 1190.31,-773.243 1139.1,-777.752 1088.52,-782.234"/>
<polygon fill="black" stroke="black" points="1088.06,-778.76 1078.41,-783.13 1088.68,-785.733 1088.06,-778.76"/>
</g>
<!-- 37031984 -->
<g id="node19" class="node"><title>37031984</title>
<ellipse fill="#999999" stroke="black" cx="2030" cy="-556" rx="99.9096" ry="26.163"/>
<text text-anchor="middle" x="2030" y="-548.9" font-family="Times Roman,serif" font-size="24.00">request: []</text>
</g>
<!-- 37031984&#45;&gt;38021808 -->
<g id="edge18" class="edge"><title>37031984&#45;&gt;38021808</title>
<path fill="none" stroke="black" d="M2018.2,-581.995C2011.87,-595.937 2003.82,-613.677 1996.17,-630.542"/>
<polygon fill="black" stroke="black" points="1992.92,-629.239 1991.97,-639.792 1999.29,-632.132 1992.92,-629.239"/>
</g>
<!-- 38206368 -->
<g id="node20" class="node"><title>38206368</title>
<ellipse fill="#999999" stroke="black" cx="2232" cy="-401" rx="154.149" ry="46.669"/>
<text text-anchor="middle" x="2232" y="-408.4" font-family="Times Roman,serif" font-size="24.00">exp: snormal</text>
<text text-anchor="middle" x="2232" y="-379.4" font-family="Times Roman,serif" font-size="24.00">value: sp:normal</text>
</g>
<!-- 38206368&#45;&gt;38021808 -->
<g id="edge6" class="edge"><title>38206368&#45;&gt;38021808</title>
<path fill="none" stroke="black" d="M2220.38,-447.498C2207.16,-492.158 2181.67,-559.141 2139,-603 2122.05,-620.419 2100.69,-634.74 2078.93,-646.288"/>
<polygon fill="black" stroke="black" points="2077.23,-643.227 2069.92,-650.904 2080.42,-649.457 2077.23,-643.227"/>
</g>
<!-- 38206368&#45;&gt;37031984 -->
<g id="edge8" class="edge"><title>38206368&#45;&gt;37031984</title>
<path fill="none" stroke="black" d="M2175.46,-444.382C2142.07,-470.005 2100.58,-501.845 2070.46,-524.953"/>
<polygon fill="black" stroke="black" points="2068.09,-522.362 2062.29,-531.226 2072.35,-527.916 2068.09,-522.362"/>
</g>
<!-- 38417072&#45;&gt;38021808 -->
<g id="edge12" class="edge"><title>38417072&#45;&gt;38021808</title>
<path fill="none" stroke="black" d="M1906.95,-447.83C1904.83,-489.495 1905.34,-551.612 1921,-603 1923.94,-612.655 1928.25,-622.344 1933.13,-631.52"/>
<polygon fill="black" stroke="black" points="1930.22,-633.49 1938.16,-640.504 1936.33,-630.069 1930.22,-633.49"/>
</g>
<!-- 38417072&#45;&gt;37031984 -->
<g id="edge14" class="edge"><title>38417072&#45;&gt;37031984</title>
<path fill="none" stroke="black" d="M1945.74,-446.249C1964.35,-470.495 1986.9,-499.866 2003.99,-522.12"/>
<polygon fill="black" stroke="black" points="2001.38,-524.475 2010.25,-530.276 2006.94,-520.212 2001.38,-524.475"/>
</g>
<!-- 36061008 -->
<g id="node24" class="node"><title>36061008</title>
<ellipse fill="none" stroke="black" cx="1734" cy="-19" rx="62.9325" ry="18.3848"/>
<text text-anchor="middle" x="1734" y="-15.4" font-family="Times Roman,serif" font-size="14.00">36061008</text>
</g>
<!-- 36061008&#45;&gt;38305664 -->
<g id="edge24" class="edge"><title>36061008&#45;&gt;38305664</title>
<path fill="none" stroke="black" d="M1673.81,-24.7638C1631.8,-29.4588 1579.83,-36.8061 1560,-46 1517.19,-65.8505 1477.11,-100.863 1448.04,-130.523"/>
<polygon fill="black" stroke="black" points="1445.31,-128.308 1440.89,-137.935 1450.35,-133.168 1445.31,-128.308"/>
</g>
<!-- 36061008&#45;&gt;36191872 -->
<g id="edge36" class="edge"><title>36061008&#45;&gt;36191872</title>
<path fill="none" stroke="black" d="M1734,-37.5369C1734,-81.6347 1734,-196.26 1734,-292 1734,-292 1734,-292 1734,-556 1734,-668.653 1614.05,-739.816 1518.35,-778.666"/>
<polygon fill="black" stroke="black" points="1516.87,-775.488 1508.87,-782.44 1519.46,-781.991 1516.87,-775.488"/>
</g>
<!-- 36061008&#45;&gt;38206368 -->
<g id="edge10" class="edge"><title>36061008&#45;&gt;38206368</title>
<path fill="none" stroke="black" d="M1756.69,-36.4064C1828.81,-91.7266 2054.62,-264.938 2167.06,-351.184"/>
<polygon fill="black" stroke="black" points="2165.22,-354.183 2175.28,-357.492 2169.48,-348.629 2165.22,-354.183"/>
</g>
<!-- 31341232 -->
<g id="node43" class="node"><title>31341232</title>
<ellipse fill="none" stroke="black" cx="1643" cy="-401" rx="62.9325" ry="18.3848"/>
<text text-anchor="middle" x="1643" y="-397.4" font-family="Times Roman,serif" font-size="14.00">31341232</text>
</g>
<!-- 31341232&#45;&gt;36627744 -->
<g id="edge46" class="edge"><title>31341232&#45;&gt;36627744</title>
<path fill="none" stroke="black" d="M1620.41,-418.397C1605.71,-429.501 1586.01,-444.008 1568,-456 1540.58,-474.257 1509.86,-493.176 1482.36,-509.579"/>
<polygon fill="black" stroke="black" points="1480.37,-506.695 1473.56,-514.813 1483.94,-512.712 1480.37,-506.695"/>
</g>
</g>
</svg>
