<?xml version="1.0" encoding="UTF-8" standalone="no"?>
<!DOCTYPE svg PUBLIC "-//W3C//DTD SVG 1.1//EN"
 "http://www.w3.org/Graphics/SVG/1.1/DTD/svg11.dtd">
<!-- Generated by graphviz version 2.26.3 (20100126.1600)
 -->
<!-- Title: _anonymous_0 Pages: 1 -->
<svg width="1752pt" height="481pt"
 viewBox="0.00 0.00 1752.00 481.00" xmlns="http://www.w3.org/2000/svg" xmlns:xlink="http://www.w3.org/1999/xlink">
<g id="graph1" class="graph" transform="scale(1 1) rotate(0) translate(4 477)">
<title>_anonymous_0</title>
<polygon fill="white" stroke="white" points="-4,5 -4,-477 1749,-477 1749,5 -4,5"/>
<g id="graph2" class="cluster"><title>clusterRHO</title>
<polygon fill="none" stroke="black" points="8,-8 8,-465 584,-465 584,-8 8,-8"/>
<text text-anchor="middle" x="296" y="-19.4" font-family="Times Roman,serif" font-size="24.00">1. We start with a full trace, rho</text>
</g>
<g id="graph3" class="cluster"><title>clusterRHO1</title>
<polygon fill="none" stroke="black" points="16,-133 16,-377 544,-377 544,-133 16,-133"/>
</g>
<g id="graph4" class="cluster"><title>clusterTORUS</title>
<polygon fill="none" stroke="black" points="592,-8 592,-465 1003,-465 1003,-8 592,-8"/>
<text text-anchor="middle" x="797.5" y="-19.4" font-family="Times Roman,serif" font-size="24.00">2. We detach rho to yield a torus</text>
</g>
<g id="graph5" class="cluster"><title>clusterTORUS1</title>
<polygon fill="none" stroke="black" points="616,-133 616,-377 946,-377 946,-133 616,-133"/>
</g>
<g id="graph6" class="cluster"><title>clusterXI</title>
<polygon fill="none" stroke="black" points="1011,-8 1011,-465 1736,-465 1736,-8 1011,-8"/>
<text text-anchor="middle" x="1373.5" y="-19.4" font-family="Times Roman,serif" font-size="24.00">3. We regenerate along the scaffold to yield a new trace xi</text>
</g>
<g id="graph7" class="cluster"><title>clusterXI1</title>
<polygon fill="none" stroke="black" points="1084,-133 1084,-377 1630,-377 1630,-133 1084,-133"/>
</g>
<!-- rho_nd -->
<g id="node2" class="node"><title>rho_nd</title>
<ellipse fill="#5c5c5c" stroke="black" cx="208" cy="-79" rx="60.1041" ry="26.163"/>
<text text-anchor="middle" x="208" y="-71.9" font-family="Times Roman,serif" font-size="24.00">prefix</text>
</g>
<!-- rho_parents -->
<g id="node4" class="node"><title>rho_parents</title>
<ellipse fill="plum" stroke="black" cx="208" cy="-167" rx="75.8684" ry="26.163"/>
<text text-anchor="middle" x="208" y="-159.9" font-family="Times Roman,serif" font-size="24.00">parents</text>
</g>
<!-- rho_nd&#45;&gt;rho_parents -->
<g id="edge4" class="edge"><title>rho_nd&#45;&gt;rho_parents</title>
<path fill="none" stroke="black" d="M208,-105.403C208,-113.393 208,-122.311 208,-130.824"/>
<polygon fill="black" stroke="black" points="204.5,-130.919 208,-140.919 211.5,-130.919 204.5,-130.919"/>
</g>
<!-- rho_insulated -->
<g id="node8" class="node"><title>rho_insulated</title>
<ellipse fill="#5c5c5c" stroke="black" cx="379" cy="-431" rx="90.0096" ry="26.163"/>
<text text-anchor="middle" x="379" y="-423.9" font-family="Times Roman,serif" font-size="24.00">insulated</text>
</g>
<!-- rho_nd&#45;&gt;rho_insulated -->
<g id="edge20" class="edge"><title>rho_nd&#45;&gt;rho_insulated</title>
<path fill="none" stroke="black" d="M266.957,-84.3243C359.318,-93.2543 529.55,-112.316 548,-133 620.225,-213.971 620.566,-289.798 556,-377 544.456,-392.591 504.414,-405.489 465.331,-414.766"/>
<polygon fill="black" stroke="black" points="464.392,-411.39 455.433,-417.046 465.963,-418.212 464.392,-411.39"/>
</g>
<!-- rho_drg -->
<g id="node5" class="node"><title>rho_drg</title>
<ellipse fill="gold" stroke="black" cx="208" cy="-255" rx="152.028" ry="26.163"/>
<text text-anchor="middle" x="208" y="-247.9" font-family="Times Roman,serif" font-size="24.00">old values in drg</text>
</g>
<!-- rho_parents&#45;&gt;rho_drg -->
<g id="edge6" class="edge"><title>rho_parents&#45;&gt;rho_drg</title>
<path fill="none" stroke="black" d="M208,-193.403C208,-201.393 208,-210.311 208,-218.824"/>
<polygon fill="black" stroke="black" points="204.5,-218.919 208,-228.919 211.5,-218.919 204.5,-218.919"/>
</g>
<!-- rho_brush -->
<g id="node6" class="node"><title>rho_brush</title>
<ellipse fill="darkseagreen" stroke="black" cx="114" cy="-343" rx="90.0096" ry="26.163"/>
<text text-anchor="middle" x="114" y="-335.9" font-family="Times Roman,serif" font-size="24.00">old brush</text>
</g>
<!-- rho_parents&#45;&gt;rho_brush -->
<g id="edge8" class="edge"><title>rho_parents&#45;&gt;rho_brush</title>
<path fill="none" stroke="black" d="M146.957,-182.754C106.578,-194.551 58.9511,-211.591 47,-229 33.9199,-248.053 37.7439,-259.823 47,-281 52.1587,-292.802 60.7948,-303.36 70.1804,-312.273"/>
<polygon fill="black" stroke="black" points="68.0169,-315.033 77.816,-319.061 72.6679,-309.801 68.0169,-315.033"/>
</g>
<!-- rho_absorbing -->
<g id="node7" class="node"><title>rho_absorbing</title>
<ellipse fill="saddlebrown" stroke="black" cx="379" cy="-343" rx="156.978" ry="26.163"/>
<text text-anchor="middle" x="379" y="-335.9" font-family="Times Roman,serif" font-size="24.00">absorbing border</text>
</g>
<!-- rho_parents&#45;&gt;rho_absorbing -->
<g id="edge10" class="edge"><title>rho_parents&#45;&gt;rho_absorbing</title>
<path fill="none" stroke="black" d="M263.169,-185.028C307.043,-199.887 362.177,-219.937 369,-229 377.967,-240.91 379.857,-278.032 379.886,-306.714"/>
<polygon fill="black" stroke="black" points="376.386,-306.815 379.822,-316.837 383.385,-306.859 376.386,-306.815"/>
</g>
<!-- rho_parents&#45;&gt;rho_insulated -->
<g id="edge22" class="edge"><title>rho_parents&#45;&gt;rho_insulated</title>
<path fill="none" stroke="black" d="M263.796,-184.838C297.849,-196.282 341.998,-212.122 380,-229 455.957,-262.735 502.24,-245.733 545,-317 558.72,-339.866 560.671,-355.424 545,-377 534.5,-391.457 498.455,-404.052 462.625,-413.434"/>
<polygon fill="black" stroke="black" points="461.377,-410.14 452.546,-415.994 463.1,-416.924 461.377,-410.14"/>
</g>
<!-- rho_drg&#45;&gt;rho_brush -->
<g id="edge12" class="edge"><title>rho_drg&#45;&gt;rho_brush</title>
<path fill="none" stroke="black" d="M174.625,-280.453C163.984,-289.848 152.356,-300.624 142.119,-310.554"/>
<polygon fill="black" stroke="black" points="139.625,-308.098 134.945,-317.604 144.531,-313.091 139.625,-308.098"/>
</g>
<!-- rho_drg&#45;&gt;rho_absorbing -->
<g id="edge16" class="edge"><title>rho_drg&#45;&gt;rho_absorbing</title>
<path fill="none" stroke="black" d="M256.088,-279.747C276.487,-290.245 300.425,-302.564 321.729,-313.527"/>
<polygon fill="black" stroke="black" points="320.187,-316.67 330.68,-318.134 323.39,-310.446 320.187,-316.67"/>
</g>
<!-- rho_brush&#45;&gt;rho_drg -->
<g id="edge14" class="edge"><title>rho_brush&#45;&gt;rho_drg</title>
<path fill="none" stroke="black" d="M146.333,-318.465C157.026,-309.059 168.807,-298.166 179.218,-288.088"/>
<polygon fill="black" stroke="black" points="181.831,-290.427 186.521,-280.927 176.931,-285.429 181.831,-290.427"/>
</g>
<!-- rho_absorbing&#45;&gt;rho_insulated -->
<g id="edge18" class="edge"><title>rho_absorbing&#45;&gt;rho_insulated</title>
<path fill="none" stroke="black" d="M379,-369.403C379,-377.393 379,-386.311 379,-394.824"/>
<polygon fill="black" stroke="black" points="375.5,-394.919 379,-404.919 382.5,-394.919 375.5,-394.919"/>
</g>
<!-- nd -->
<g id="node20" class="node"><title>nd</title>
<ellipse fill="#5c5c5c" stroke="black" cx="791" cy="-79" rx="60.1041" ry="26.163"/>
<text text-anchor="middle" x="791" y="-71.9" font-family="Times Roman,serif" font-size="24.00">prefix</text>
</g>
<!-- parents -->
<g id="node22" class="node"><title>parents</title>
<ellipse fill="plum" stroke="black" cx="791" cy="-167" rx="75.8684" ry="26.163"/>
<text text-anchor="middle" x="791" y="-159.9" font-family="Times Roman,serif" font-size="24.00">parents</text>
</g>
<!-- nd&#45;&gt;parents -->
<g id="edge26" class="edge"><title>nd&#45;&gt;parents</title>
<path fill="none" stroke="black" d="M791,-105.403C791,-113.393 791,-122.311 791,-130.824"/>
<polygon fill="black" stroke="black" points="787.5,-130.919 791,-140.919 794.5,-130.919 787.5,-130.919"/>
</g>
<!-- insulated -->
<g id="node25" class="node"><title>insulated</title>
<ellipse fill="#5c5c5c" stroke="black" cx="781" cy="-431" rx="90.0096" ry="26.163"/>
<text text-anchor="middle" x="781" y="-423.9" font-family="Times Roman,serif" font-size="24.00">insulated</text>
</g>
<!-- nd&#45;&gt;insulated -->
<g id="edge36" class="edge"><title>nd&#45;&gt;insulated</title>
<path fill="none" stroke="black" d="M845.083,-90.5267C885.898,-100.419 937.011,-115.776 950,-133 1015.34,-219.643 1023.64,-289.837 959,-377 947.34,-392.722 906.808,-405.663 867.363,-414.932"/>
<polygon fill="black" stroke="black" points="866.348,-411.573 857.376,-417.208 867.904,-418.398 866.348,-411.573"/>
</g>
<!-- drg -->
<g id="node23" class="node"><title>drg</title>
<ellipse fill="gold" stroke="black" cx="742" cy="-255" rx="79.196" ry="26.163"/>
<text text-anchor="middle" x="742" y="-247.9" font-family="Times Roman,serif" font-size="24.00">(empty)</text>
</g>
<!-- parents&#45;&gt;drg -->
<g id="edge28" class="edge"><title>parents&#45;&gt;drg</title>
<path fill="none" stroke="black" d="M776.563,-192.927C771.778,-201.52 766.374,-211.227 761.284,-220.368"/>
<polygon fill="black" stroke="black" points="758.14,-218.819 756.333,-229.258 764.256,-222.224 758.14,-218.819"/>
</g>
<!-- absorbing -->
<g id="node24" class="node"><title>absorbing</title>
<ellipse fill="saddlebrown" stroke="black" cx="781" cy="-343" rx="156.978" ry="26.163"/>
<text text-anchor="middle" x="781" y="-335.9" font-family="Times Roman,serif" font-size="24.00">absorbing border</text>
</g>
<!-- parents&#45;&gt;absorbing -->
<g id="edge30" class="edge"><title>parents&#45;&gt;absorbing</title>
<path fill="none" stroke="black" d="M811.424,-192.274C818.798,-202.95 826.23,-215.926 830,-229 836.403,-251.206 837.585,-259.169 830,-281 826.485,-291.116 820.559,-300.827 814.017,-309.439"/>
<polygon fill="black" stroke="black" points="811.194,-307.365 807.616,-317.337 816.632,-311.772 811.194,-307.365"/>
</g>
<!-- parents&#45;&gt;insulated -->
<g id="edge38" class="edge"><title>parents&#45;&gt;insulated</title>
<path fill="none" stroke="black" d="M829.767,-189.567C890.665,-227.904 996.909,-308.282 947,-377 936.5,-391.457 900.455,-404.052 864.625,-413.434"/>
<polygon fill="black" stroke="black" points="863.377,-410.14 854.546,-415.994 865.1,-416.924 863.377,-410.14"/>
</g>
<!-- drg&#45;&gt;absorbing -->
<g id="edge32" class="edge"><title>drg&#45;&gt;absorbing</title>
<path fill="none" stroke="black" d="M753.49,-280.927C757.186,-289.267 761.347,-298.655 765.293,-307.558"/>
<polygon fill="black" stroke="black" points="762.205,-309.23 769.457,-316.954 768.605,-306.394 762.205,-309.23"/>
</g>
<!-- absorbing&#45;&gt;insulated -->
<g id="edge34" class="edge"><title>absorbing&#45;&gt;insulated</title>
<path fill="none" stroke="black" d="M781,-369.403C781,-377.393 781,-386.311 781,-394.824"/>
<polygon fill="black" stroke="black" points="777.5,-394.919 781,-404.919 784.5,-394.919 777.5,-394.919"/>
</g>
<!-- xi_nd -->
<g id="node34" class="node"><title>xi_nd</title>
<ellipse fill="#5c5c5c" stroke="black" cx="1285" cy="-79" rx="60.1041" ry="26.163"/>
<text text-anchor="middle" x="1285" y="-71.9" font-family="Times Roman,serif" font-size="24.00">prefix</text>
</g>
<!-- xi_parents -->
<g id="node36" class="node"><title>xi_parents</title>
<ellipse fill="plum" stroke="black" cx="1285" cy="-167" rx="75.8684" ry="26.163"/>
<text text-anchor="middle" x="1285" y="-159.9" font-family="Times Roman,serif" font-size="24.00">parents</text>
</g>
<!-- xi_nd&#45;&gt;xi_parents -->
<g id="edge42" class="edge"><title>xi_nd&#45;&gt;xi_parents</title>
<path fill="none" stroke="black" d="M1285,-105.403C1285,-113.393 1285,-122.311 1285,-130.824"/>
<polygon fill="black" stroke="black" points="1281.5,-130.919 1285,-140.919 1288.5,-130.919 1281.5,-130.919"/>
</g>
<!-- xi_insulated -->
<g id="node40" class="node"><title>xi_insulated</title>
<ellipse fill="#5c5c5c" stroke="black" cx="1465" cy="-431" rx="90.0096" ry="26.163"/>
<text text-anchor="middle" x="1465" y="-423.9" font-family="Times Roman,serif" font-size="24.00">insulated</text>
</g>
<!-- xi_nd&#45;&gt;xi_insulated -->
<g id="edge58" class="edge"><title>xi_nd&#45;&gt;xi_insulated</title>
<path fill="none" stroke="black" d="M1344,-84.059C1438.45,-92.7498 1614.99,-111.654 1634,-133 1706.16,-214.013 1705.49,-289.758 1641,-377 1629.53,-392.52 1589.71,-405.414 1550.85,-414.706"/>
<polygon fill="black" stroke="black" points="1549.96,-411.32 1541.01,-416.99 1551.54,-418.139 1549.96,-411.32"/>
</g>
<!-- xi_drg -->
<g id="node37" class="node"><title>xi_drg</title>
<ellipse fill="gold" stroke="black" cx="1285" cy="-255" rx="161.22" ry="26.163"/>
<text text-anchor="middle" x="1285" y="-247.9" font-family="Times Roman,serif" font-size="24.00">new values in drg</text>
</g>
<!-- xi_parents&#45;&gt;xi_drg -->
<g id="edge44" class="edge"><title>xi_parents&#45;&gt;xi_drg</title>
<path fill="none" stroke="black" d="M1285,-193.403C1285,-201.393 1285,-210.311 1285,-218.824"/>
<polygon fill="black" stroke="black" points="1281.5,-218.919 1285,-228.919 1288.5,-218.919 1281.5,-218.919"/>
</g>
<!-- xi_brush -->
<g id="node38" class="node"><title>xi_brush</title>
<ellipse fill="darkseagreen" stroke="black" cx="1191" cy="-343" rx="99.201" ry="26.163"/>
<text text-anchor="middle" x="1191" y="-335.9" font-family="Times Roman,serif" font-size="24.00">new brush</text>
</g>
<!-- xi_parents&#45;&gt;xi_brush -->
<g id="edge46" class="edge"><title>xi_parents&#45;&gt;xi_brush</title>
<path fill="none" stroke="black" d="M1222.4,-181.818C1179.41,-193.407 1127.88,-210.596 1115,-229 1101.75,-247.936 1105.09,-260.122 1115,-281 1120.82,-293.258 1130.38,-303.892 1140.79,-312.726"/>
<polygon fill="black" stroke="black" points="1138.85,-315.659 1148.87,-319.127 1143.2,-310.173 1138.85,-315.659"/>
</g>
<!-- xi_absorbing -->
<g id="node39" class="node"><title>xi_absorbing</title>
<ellipse fill="saddlebrown" stroke="black" cx="1465" cy="-343" rx="156.978" ry="26.163"/>
<text text-anchor="middle" x="1465" y="-335.9" font-family="Times Roman,serif" font-size="24.00">absorbing border</text>
</g>
<!-- xi_parents&#45;&gt;xi_absorbing -->
<g id="edge48" class="edge"><title>xi_parents&#45;&gt;xi_absorbing</title>
<path fill="none" stroke="black" d="M1339.46,-185.293C1387.76,-201.756 1451.24,-224.092 1455,-229 1464.07,-240.829 1465.94,-277.965 1465.94,-306.672"/>
<polygon fill="black" stroke="black" points="1462.44,-306.779 1465.86,-316.805 1469.44,-306.832 1462.44,-306.779"/>
</g>
<!-- xi_parents&#45;&gt;xi_insulated -->
<g id="edge60" class="edge"><title>xi_parents&#45;&gt;xi_insulated</title>
<path fill="none" stroke="black" d="M1340.65,-184.979C1384.94,-199.491 1443.15,-219.07 1466,-229 1542.22,-262.128 1588.24,-245.733 1631,-317 1644.72,-339.866 1646.67,-355.424 1631,-377 1620.5,-391.457 1584.46,-404.052 1548.63,-413.434"/>
<polygon fill="black" stroke="black" points="1547.38,-410.14 1538.55,-415.994 1549.1,-416.924 1547.38,-410.14"/>
</g>
<!-- xi_drg&#45;&gt;xi_brush -->
<g id="edge50" class="edge"><title>xi_drg&#45;&gt;xi_brush</title>
<path fill="none" stroke="black" d="M1251.63,-280.453C1241.18,-289.676 1229.78,-300.229 1219.68,-310.008"/>
<polygon fill="black" stroke="black" points="1216.94,-307.797 1212.25,-317.299 1221.84,-312.794 1216.94,-307.797"/>
</g>
<!-- xi_drg&#45;&gt;xi_absorbing -->
<g id="edge54" class="edge"><title>xi_drg&#45;&gt;xi_absorbing</title>
<path fill="none" stroke="black" d="M1335.62,-279.747C1357.28,-290.336 1382.73,-302.779 1405.3,-313.814"/>
<polygon fill="black" stroke="black" points="1403.93,-317.039 1414.45,-318.286 1407,-310.75 1403.93,-317.039"/>
</g>
<!-- xi_brush&#45;&gt;xi_drg -->
<g id="edge52" class="edge"><title>xi_brush&#45;&gt;xi_drg</title>
<path fill="none" stroke="black" d="M1223.67,-318.165C1234.3,-308.808 1245.97,-298.014 1256.28,-288.025"/>
<polygon fill="black" stroke="black" points="1258.83,-290.428 1263.52,-280.927 1253.93,-285.43 1258.83,-290.428"/>
</g>
<!-- xi_absorbing&#45;&gt;xi_insulated -->
<g id="edge56" class="edge"><title>xi_absorbing&#45;&gt;xi_insulated</title>
<path fill="none" stroke="black" d="M1465,-369.403C1465,-377.393 1465,-386.311 1465,-394.824"/>
<polygon fill="black" stroke="black" points="1461.5,-394.919 1465,-404.919 1468.5,-394.919 1461.5,-394.919"/>
</g>
</g>
</svg>
