<?xml version="1.0" encoding="UTF-8" standalone="no"?>
<!DOCTYPE svg PUBLIC "-//W3C//DTD SVG 1.1//EN"
 "http://www.w3.org/Graphics/SVG/1.1/DTD/svg11.dtd">
<!-- Generated by graphviz version 2.26.3 (20100126.1600)
 -->
<!-- Title: _anonymous_0 Pages: 1 -->
<svg width="1692pt" height="481pt"
 viewBox="0.00 0.00 1692.00 481.00" xmlns="http://www.w3.org/2000/svg" xmlns:xlink="http://www.w3.org/1999/xlink">
<g id="graph1" class="graph" transform="scale(1 1) rotate(0) translate(4 477)">
<title>_anonymous_0</title>
<polygon fill="white" stroke="white" points="-4,5 -4,-477 1689,-477 1689,5 -4,5"/>
<g id="graph2" class="cluster"><title>clusterRHO</title>
<polygon fill="none" stroke="black" points="8,-8 8,-465 584,-465 584,-8 8,-8"/>
<text text-anchor="middle" x="296" y="-19.4" font-family="Times Roman,serif" font-size="24.00">We start with a full trace, rho</text>
</g>
<g id="graph3" class="cluster"><title>clusterRHO1</title>
<polygon fill="none" stroke="black" points="16,-133 16,-377 544,-377 544,-133 16,-133"/>
</g>
<g id="graph4" class="cluster"><title>clusterTORUS</title>
<polygon fill="none" stroke="black" points="592,-8 592,-465 973,-465 973,-8 592,-8"/>
<text text-anchor="middle" x="782.5" y="-19.4" font-family="Times Roman,serif" font-size="24.00">We detach rho to yield a torus</text>
</g>
<g id="graph5" class="cluster"><title>clusterTORUS1</title>
<polygon fill="none" stroke="black" points="601,-133 601,-377 931,-377 931,-133 601,-133"/>
</g>
<g id="graph6" class="cluster"><title>clusterXI</title>
<polygon fill="none" stroke="black" points="981,-8 981,-465 1676,-465 1676,-8 981,-8"/>
<text text-anchor="middle" x="1328.5" y="-19.4" font-family="Times Roman,serif" font-size="24.00">We regenerate along the scaffold to yield a new trace xi</text>
</g>
<g id="graph7" class="cluster"><title>clusterXI1</title>
<polygon fill="none" stroke="black" points="1039,-133 1039,-377 1585,-377 1585,-133 1039,-133"/>
</g>
<!-- rho_nd -->
<g id="node2" class="node"><title>rho_nd</title>
<ellipse fill="#5c5c5c" stroke="black" cx="208" cy="-79" rx="60.1041" ry="26.163"/>
<text text-anchor="middle" x="208" y="-71.9" font-family="Times Roman,serif" font-size="24.00">prefix</text>
</g>
<!-- rho_parents -->
<g id="node4" class="node"><title>rho_parents</title>
<ellipse fill="plum" stroke="black" cx="208" cy="-167" rx="75.8684" ry="26.163"/>
<text text-anchor="middle" x="208" y="-159.9" font-family="Times Roman,serif" font-size="24.00">parents</text>
</g>
<!-- rho_nd&#45;&gt;rho_parents -->
<g id="edge4" class="edge"><title>rho_nd&#45;&gt;rho_parents</title>
<path fill="none" stroke="black" d="M208,-105.403C208,-113.393 208,-122.311 208,-130.824"/>
<polygon fill="black" stroke="black" points="204.5,-130.919 208,-140.919 211.5,-130.919 204.5,-130.919"/>
</g>
<!-- rho_insulated -->
<g id="node8" class="node"><title>rho_insulated</title>
<ellipse fill="#5c5c5c" stroke="black" cx="379" cy="-431" rx="90.0096" ry="26.163"/>
<text text-anchor="middle" x="379" y="-423.9" font-family="Times Roman,serif" font-size="24.00">insulated</text>
</g>
<!-- rho_nd&#45;&gt;rho_insulated -->
<g id="edge20" class="edge"><title>rho_nd&#45;&gt;rho_insulated</title>
<path fill="none" stroke="black" d="M266.957,-84.3243C359.318,-93.2543 529.55,-112.316 548,-133 584.113,-173.486 588.283,-333.399 556,-377 544.456,-392.591 504.414,-405.489 465.331,-414.766"/>
<polygon fill="black" stroke="black" points="464.392,-411.39 455.433,-417.046 465.963,-418.212 464.392,-411.39"/>
</g>
<!-- rho_drg -->
<g id="node5" class="node"><title>rho_drg</title>
<ellipse fill="gold" stroke="black" cx="208" cy="-255" rx="152.028" ry="26.163"/>
<text text-anchor="middle" x="208" y="-247.9" font-family="Times Roman,serif" font-size="24.00">old values in drg</text>
</g>
<!-- rho_parents&#45;&gt;rho_drg -->
<g id="edge6" class="edge"><title>rho_parents&#45;&gt;rho_drg</title>
<path fill="none" stroke="black" d="M208,-193.403C208,-201.393 208,-210.311 208,-218.824"/>
<polygon fill="black" stroke="black" points="204.5,-218.919 208,-228.919 211.5,-218.919 204.5,-218.919"/>
</g>
<!-- rho_brush -->
<g id="node6" class="node"><title>rho_brush</title>
<ellipse fill="darkseagreen" stroke="black" cx="114" cy="-343" rx="90.0096" ry="26.163"/>
<text text-anchor="middle" x="114" y="-335.9" font-family="Times Roman,serif" font-size="24.00">old brush</text>
</g>
<!-- rho_parents&#45;&gt;rho_brush -->
<g id="edge8" class="edge"><title>rho_parents&#45;&gt;rho_brush</title>
<path fill="none" stroke="black" d="M146.957,-182.754C106.578,-194.551 58.9511,-211.591 47,-229 33.9199,-248.053 37.7439,-259.823 47,-281 52.1587,-292.802 60.7948,-303.36 70.1804,-312.273"/>
<polygon fill="black" stroke="black" points="68.0169,-315.033 77.816,-319.061 72.6679,-309.801 68.0169,-315.033"/>
</g>
<!-- rho_absorbing -->
<g id="node7" class="node"><title>rho_absorbing</title>
<ellipse fill="saddlebrown" stroke="black" cx="379" cy="-343" rx="156.978" ry="26.163"/>
<text text-anchor="middle" x="379" y="-335.9" font-family="Times Roman,serif" font-size="24.00">absorbing border</text>
</g>
<!-- rho_parents&#45;&gt;rho_absorbing -->
<g id="edge10" class="edge"><title>rho_parents&#45;&gt;rho_absorbing</title>
<path fill="none" stroke="black" d="M263.169,-185.028C307.043,-199.887 362.177,-219.937 369,-229 377.967,-240.91 379.857,-278.032 379.886,-306.714"/>
<polygon fill="black" stroke="black" points="376.386,-306.815 379.822,-316.837 383.385,-306.859 376.386,-306.815"/>
</g>
<!-- rho_parents&#45;&gt;rho_insulated -->
<g id="edge22" class="edge"><title>rho_parents&#45;&gt;rho_insulated</title>
<path fill="none" stroke="black" d="M263.796,-184.838C297.849,-196.282 341.998,-212.122 380,-229 455.957,-262.735 502.24,-245.733 545,-317 558.72,-339.866 560.671,-355.424 545,-377 534.5,-391.457 498.455,-404.052 462.625,-413.434"/>
<polygon fill="black" stroke="black" points="461.377,-410.14 452.546,-415.994 463.1,-416.924 461.377,-410.14"/>
</g>
<!-- rho_drg&#45;&gt;rho_brush -->
<g id="edge12" class="edge"><title>rho_drg&#45;&gt;rho_brush</title>
<path fill="none" stroke="black" d="M174.625,-280.453C163.984,-289.848 152.356,-300.624 142.119,-310.554"/>
<polygon fill="black" stroke="black" points="139.625,-308.098 134.945,-317.604 144.531,-313.091 139.625,-308.098"/>
</g>
<!-- rho_drg&#45;&gt;rho_absorbing -->
<g id="edge16" class="edge"><title>rho_drg&#45;&gt;rho_absorbing</title>
<path fill="none" stroke="black" d="M256.088,-279.747C276.487,-290.245 300.425,-302.564 321.729,-313.527"/>
<polygon fill="black" stroke="black" points="320.187,-316.67 330.68,-318.134 323.39,-310.446 320.187,-316.67"/>
</g>
<!-- rho_brush&#45;&gt;rho_drg -->
<g id="edge14" class="edge"><title>rho_brush&#45;&gt;rho_drg</title>
<path fill="none" stroke="black" d="M146.333,-318.465C157.026,-309.059 168.807,-298.166 179.218,-288.088"/>
<polygon fill="black" stroke="black" points="181.831,-290.427 186.521,-280.927 176.931,-285.429 181.831,-290.427"/>
</g>
<!-- rho_absorbing&#45;&gt;rho_insulated -->
<g id="edge18" class="edge"><title>rho_absorbing&#45;&gt;rho_insulated</title>
<path fill="none" stroke="black" d="M379,-369.403C379,-377.393 379,-386.311 379,-394.824"/>
<polygon fill="black" stroke="black" points="375.5,-394.919 379,-404.919 382.5,-394.919 375.5,-394.919"/>
</g>
<!-- nd -->
<g id="node20" class="node"><title>nd</title>
<ellipse fill="#5c5c5c" stroke="black" cx="776" cy="-79" rx="60.1041" ry="26.163"/>
<text text-anchor="middle" x="776" y="-71.9" font-family="Times Roman,serif" font-size="24.00">prefix</text>
</g>
<!-- parents -->
<g id="node22" class="node"><title>parents</title>
<ellipse fill="plum" stroke="black" cx="776" cy="-167" rx="75.8684" ry="26.163"/>
<text text-anchor="middle" x="776" y="-159.9" font-family="Times Roman,serif" font-size="24.00">parents</text>
</g>
<!-- nd&#45;&gt;parents -->
<g id="edge26" class="edge"><title>nd&#45;&gt;parents</title>
<path fill="none" stroke="black" d="M776,-105.403C776,-113.393 776,-122.311 776,-130.824"/>
<polygon fill="black" stroke="black" points="772.5,-130.919 776,-140.919 779.5,-130.919 772.5,-130.919"/>
</g>
<!-- insulated -->
<g id="node25" class="node"><title>insulated</title>
<ellipse fill="#5c5c5c" stroke="black" cx="766" cy="-431" rx="90.0096" ry="26.163"/>
<text text-anchor="middle" x="766" y="-423.9" font-family="Times Roman,serif" font-size="24.00">insulated</text>
</g>
<!-- nd&#45;&gt;insulated -->
<g id="edge36" class="edge"><title>nd&#45;&gt;insulated</title>
<path fill="none" stroke="black" d="M830.083,-90.5267C870.898,-100.419 922.011,-115.776 935,-133 1000.34,-219.643 1008.64,-289.837 944,-377 932.34,-392.722 891.808,-405.663 852.363,-414.932"/>
<polygon fill="black" stroke="black" points="851.348,-411.573 842.376,-417.208 852.904,-418.398 851.348,-411.573"/>
</g>
<!-- drg -->
<g id="node23" class="node"><title>drg</title>
<ellipse fill="gold" stroke="black" cx="727" cy="-255" rx="79.196" ry="26.163"/>
<text text-anchor="middle" x="727" y="-247.9" font-family="Times Roman,serif" font-size="24.00">(empty)</text>
</g>
<!-- parents&#45;&gt;drg -->
<g id="edge28" class="edge"><title>parents&#45;&gt;drg</title>
<path fill="none" stroke="black" d="M761.563,-192.927C756.778,-201.52 751.374,-211.227 746.284,-220.368"/>
<polygon fill="black" stroke="black" points="743.14,-218.819 741.333,-229.258 749.256,-222.224 743.14,-218.819"/>
</g>
<!-- absorbing -->
<g id="node24" class="node"><title>absorbing</title>
<ellipse fill="saddlebrown" stroke="black" cx="766" cy="-343" rx="156.978" ry="26.163"/>
<text text-anchor="middle" x="766" y="-335.9" font-family="Times Roman,serif" font-size="24.00">absorbing border</text>
</g>
<!-- parents&#45;&gt;absorbing -->
<g id="edge30" class="edge"><title>parents&#45;&gt;absorbing</title>
<path fill="none" stroke="black" d="M796.424,-192.274C803.798,-202.95 811.23,-215.926 815,-229 821.403,-251.206 822.585,-259.169 815,-281 811.485,-291.116 805.559,-300.827 799.017,-309.439"/>
<polygon fill="black" stroke="black" points="796.194,-307.365 792.616,-317.337 801.632,-311.772 796.194,-307.365"/>
</g>
<!-- parents&#45;&gt;insulated -->
<g id="edge38" class="edge"><title>parents&#45;&gt;insulated</title>
<path fill="none" stroke="black" d="M814.767,-189.567C875.665,-227.904 981.909,-308.282 932,-377 921.5,-391.457 885.455,-404.052 849.625,-413.434"/>
<polygon fill="black" stroke="black" points="848.377,-410.14 839.546,-415.994 850.1,-416.924 848.377,-410.14"/>
</g>
<!-- drg&#45;&gt;absorbing -->
<g id="edge32" class="edge"><title>drg&#45;&gt;absorbing</title>
<path fill="none" stroke="black" d="M738.49,-280.927C742.186,-289.267 746.347,-298.655 750.293,-307.558"/>
<polygon fill="black" stroke="black" points="747.205,-309.23 754.457,-316.954 753.605,-306.394 747.205,-309.23"/>
</g>
<!-- absorbing&#45;&gt;insulated -->
<g id="edge34" class="edge"><title>absorbing&#45;&gt;insulated</title>
<path fill="none" stroke="black" d="M766,-369.403C766,-377.393 766,-386.311 766,-394.824"/>
<polygon fill="black" stroke="black" points="762.5,-394.919 766,-404.919 769.5,-394.919 762.5,-394.919"/>
</g>
<!-- xi_nd -->
<g id="node34" class="node"><title>xi_nd</title>
<ellipse fill="#5c5c5c" stroke="black" cx="1240" cy="-79" rx="60.1041" ry="26.163"/>
<text text-anchor="middle" x="1240" y="-71.9" font-family="Times Roman,serif" font-size="24.00">prefix</text>
</g>
<!-- xi_parents -->
<g id="node36" class="node"><title>xi_parents</title>
<ellipse fill="plum" stroke="black" cx="1240" cy="-167" rx="75.8684" ry="26.163"/>
<text text-anchor="middle" x="1240" y="-159.9" font-family="Times Roman,serif" font-size="24.00">parents</text>
</g>
<!-- xi_nd&#45;&gt;xi_parents -->
<g id="edge42" class="edge"><title>xi_nd&#45;&gt;xi_parents</title>
<path fill="none" stroke="black" d="M1240,-105.403C1240,-113.393 1240,-122.311 1240,-130.824"/>
<polygon fill="black" stroke="black" points="1236.5,-130.919 1240,-140.919 1243.5,-130.919 1236.5,-130.919"/>
</g>
<!-- xi_insulated -->
<g id="node40" class="node"><title>xi_insulated</title>
<ellipse fill="#5c5c5c" stroke="black" cx="1420" cy="-431" rx="90.0096" ry="26.163"/>
<text text-anchor="middle" x="1420" y="-423.9" font-family="Times Roman,serif" font-size="24.00">insulated</text>
</g>
<!-- xi_nd&#45;&gt;xi_insulated -->
<g id="edge58" class="edge"><title>xi_nd&#45;&gt;xi_insulated</title>
<path fill="none" stroke="black" d="M1299,-84.059C1393.45,-92.7498 1569.99,-111.654 1589,-133 1661.16,-214.013 1660.49,-289.758 1596,-377 1584.53,-392.52 1544.71,-405.414 1505.85,-414.706"/>
<polygon fill="black" stroke="black" points="1504.96,-411.32 1496.01,-416.99 1506.54,-418.139 1504.96,-411.32"/>
</g>
<!-- xi_drg -->
<g id="node37" class="node"><title>xi_drg</title>
<ellipse fill="gold" stroke="black" cx="1240" cy="-255" rx="161.22" ry="26.163"/>
<text text-anchor="middle" x="1240" y="-247.9" font-family="Times Roman,serif" font-size="24.00">new values in drg</text>
</g>
<!-- xi_parents&#45;&gt;xi_drg -->
<g id="edge44" class="edge"><title>xi_parents&#45;&gt;xi_drg</title>
<path fill="none" stroke="black" d="M1240,-193.403C1240,-201.393 1240,-210.311 1240,-218.824"/>
<polygon fill="black" stroke="black" points="1236.5,-218.919 1240,-228.919 1243.5,-218.919 1236.5,-218.919"/>
</g>
<!-- xi_brush -->
<g id="node38" class="node"><title>xi_brush</title>
<ellipse fill="darkseagreen" stroke="black" cx="1146" cy="-343" rx="99.201" ry="26.163"/>
<text text-anchor="middle" x="1146" y="-335.9" font-family="Times Roman,serif" font-size="24.00">new brush</text>
</g>
<!-- xi_parents&#45;&gt;xi_brush -->
<g id="edge46" class="edge"><title>xi_parents&#45;&gt;xi_brush</title>
<path fill="none" stroke="black" d="M1177.4,-181.818C1134.41,-193.407 1082.88,-210.596 1070,-229 1056.75,-247.936 1060.09,-260.122 1070,-281 1075.82,-293.258 1085.38,-303.892 1095.79,-312.726"/>
<polygon fill="black" stroke="black" points="1093.85,-315.659 1103.87,-319.127 1098.2,-310.173 1093.85,-315.659"/>
</g>
<!-- xi_absorbing -->
<g id="node39" class="node"><title>xi_absorbing</title>
<ellipse fill="saddlebrown" stroke="black" cx="1420" cy="-343" rx="156.978" ry="26.163"/>
<text text-anchor="middle" x="1420" y="-335.9" font-family="Times Roman,serif" font-size="24.00">absorbing border</text>
</g>
<!-- xi_parents&#45;&gt;xi_absorbing -->
<g id="edge48" class="edge"><title>xi_parents&#45;&gt;xi_absorbing</title>
<path fill="none" stroke="black" d="M1294.46,-185.293C1342.76,-201.756 1406.24,-224.092 1410,-229 1419.07,-240.829 1420.94,-277.965 1420.94,-306.672"/>
<polygon fill="black" stroke="black" points="1417.44,-306.779 1420.86,-316.805 1424.44,-306.832 1417.44,-306.779"/>
</g>
<!-- xi_parents&#45;&gt;xi_insulated -->
<g id="edge60" class="edge"><title>xi_parents&#45;&gt;xi_insulated</title>
<path fill="none" stroke="black" d="M1295.65,-184.979C1339.94,-199.491 1398.15,-219.07 1421,-229 1497.22,-262.128 1543.24,-245.733 1586,-317 1599.72,-339.866 1601.67,-355.424 1586,-377 1575.5,-391.457 1539.46,-404.052 1503.63,-413.434"/>
<polygon fill="black" stroke="black" points="1502.38,-410.14 1493.55,-415.994 1504.1,-416.924 1502.38,-410.14"/>
</g>
<!-- xi_drg&#45;&gt;xi_brush -->
<g id="edge50" class="edge"><title>xi_drg&#45;&gt;xi_brush</title>
<path fill="none" stroke="black" d="M1206.63,-280.453C1196.18,-289.676 1184.78,-300.229 1174.68,-310.008"/>
<polygon fill="black" stroke="black" points="1171.94,-307.797 1167.25,-317.299 1176.84,-312.794 1171.94,-307.797"/>
</g>
<!-- xi_drg&#45;&gt;xi_absorbing -->
<g id="edge54" class="edge"><title>xi_drg&#45;&gt;xi_absorbing</title>
<path fill="none" stroke="black" d="M1290.62,-279.747C1312.28,-290.336 1337.73,-302.779 1360.3,-313.814"/>
<polygon fill="black" stroke="black" points="1358.93,-317.039 1369.45,-318.286 1362,-310.75 1358.93,-317.039"/>
</g>
<!-- xi_brush&#45;&gt;xi_drg -->
<g id="edge52" class="edge"><title>xi_brush&#45;&gt;xi_drg</title>
<path fill="none" stroke="black" d="M1178.67,-318.165C1189.3,-308.808 1200.97,-298.014 1211.28,-288.025"/>
<polygon fill="black" stroke="black" points="1213.83,-290.428 1218.52,-280.927 1208.93,-285.43 1213.83,-290.428"/>
</g>
<!-- xi_absorbing&#45;&gt;xi_insulated -->
<g id="edge56" class="edge"><title>xi_absorbing&#45;&gt;xi_insulated</title>
<path fill="none" stroke="black" d="M1420,-369.403C1420,-377.393 1420,-386.311 1420,-394.824"/>
<polygon fill="black" stroke="black" points="1416.5,-394.919 1420,-404.919 1423.5,-394.919 1416.5,-394.919"/>
</g>
</g>
</svg>
