<?xml version="1.0" encoding="UTF-8" standalone="no"?>
<!DOCTYPE svg PUBLIC "-//W3C//DTD SVG 1.1//EN"
 "http://www.w3.org/Graphics/SVG/1.1/DTD/svg11.dtd">
<!-- Generated by graphviz version 2.26.3 (20100126.1600)
 -->
<!-- Title: _anonymous_0 Pages: 1 -->
<svg width="698pt" height="449pt"
 viewBox="0.00 0.00 697.59 449.00" xmlns="http://www.w3.org/2000/svg" xmlns:xlink="http://www.w3.org/1999/xlink">
<g id="graph1" class="graph" transform="scale(1 1) rotate(0) translate(4 445)">
<title>_anonymous_0</title>
<polygon fill="white" stroke="white" points="-4,5 -4,-445 694.591,-445 694.591,5 -4,5"/>
<text text-anchor="middle" x="344.795" y="-11.4" font-family="Times Roman,serif" font-size="24.00">Source trace</text>
<g id="graph3" class="cluster"><title>cluster1</title>
<polygon fill="none" stroke="black" points="8,-117 8,-361 618,-361 618,-117 8,-117"/>
</g>
<!-- nd -->
<g id="node2" class="node"><title>nd</title>
<ellipse fill="#5c5c5c" stroke="black" cx="313" cy="-63" rx="60.1041" ry="26.163"/>
<text text-anchor="middle" x="313" y="-55.9" font-family="Times Roman,serif" font-size="24.00">prefix</text>
</g>
<!-- parents -->
<g id="node4" class="node"><title>parents</title>
<ellipse fill="plum" stroke="black" cx="313" cy="-151" rx="75.8684" ry="26.163"/>
<text text-anchor="middle" x="313" y="-143.9" font-family="Times Roman,serif" font-size="24.00">parents</text>
</g>
<!-- nd&#45;&gt;parents -->
<g id="edge5" class="edge"><title>nd&#45;&gt;parents</title>
<path fill="none" stroke="black" d="M313,-89.4029C313,-97.3932 313,-106.311 313,-114.824"/>
<polygon fill="black" stroke="black" points="309.5,-114.919 313,-124.919 316.5,-114.919 309.5,-114.919"/>
</g>
<!-- insulated -->
<g id="node9" class="node"><title>insulated</title>
<ellipse fill="#5c5c5c" stroke="black" cx="453" cy="-415" rx="90.0096" ry="26.163"/>
<text text-anchor="middle" x="453" y="-407.9" font-family="Times Roman,serif" font-size="24.00">insulated</text>
</g>
<!-- nd&#45;&gt;insulated -->
<g id="edge21" class="edge"><title>nd&#45;&gt;insulated</title>
<path fill="none" stroke="black" d="M372.983,-65.5575C452.741,-70.246 587.662,-83.0833 622,-117 699.557,-193.606 712.943,-274.195 647,-361 633.753,-378.438 587.014,-391.74 542.734,-400.779"/>
<polygon fill="black" stroke="black" points="541.875,-397.381 532.745,-402.757 543.234,-404.248 541.875,-397.381"/>
</g>
<!-- drg -->
<g id="node5" class="node"><title>drg</title>
<ellipse fill="gold" stroke="black" cx="313" cy="-239" rx="277.186" ry="26.163"/>
<text text-anchor="middle" x="313" y="-231.9" font-family="Times Roman,serif" font-size="24.00">old definite regeneration graph</text>
</g>
<!-- parents&#45;&gt;drg -->
<g id="edge7" class="edge"><title>parents&#45;&gt;drg</title>
<path fill="none" stroke="black" d="M313,-177.403C313,-185.393 313,-194.311 313,-202.824"/>
<polygon fill="black" stroke="black" points="309.5,-202.919 313,-212.919 316.5,-202.919 309.5,-202.919"/>
</g>
<!-- brush -->
<g id="node6" class="node"><title>brush</title>
<ellipse fill="darkseagreen" stroke="black" cx="188" cy="-327" rx="90.0096" ry="26.163"/>
<text text-anchor="middle" x="188" y="-319.9" font-family="Times Roman,serif" font-size="24.00">old brush</text>
</g>
<!-- parents&#45;&gt;brush -->
<g id="edge9" class="edge"><title>parents&#45;&gt;brush</title>
<path fill="none" stroke="black" d="M238.524,-156.736C162.837,-164.296 53.1128,-180.62 27,-213 12.492,-230.99 13.9199,-245.947 27,-265 37.4261,-280.188 75.0044,-295.094 111.234,-306.484"/>
<polygon fill="black" stroke="black" points="110.308,-309.86 120.894,-309.451 112.363,-303.169 110.308,-309.86"/>
</g>
<!-- absorbing -->
<g id="node7" class="node"><title>absorbing</title>
<ellipse fill="saddlebrown" stroke="black" cx="453" cy="-327" rx="156.978" ry="26.163"/>
<text text-anchor="middle" x="453" y="-319.9" font-family="Times Roman,serif" font-size="24.00">absorbing border</text>
</g>
<!-- parents&#45;&gt;absorbing -->
<g id="edge11" class="edge"><title>parents&#45;&gt;absorbing</title>
<path fill="none" stroke="black" d="M387.476,-156.736C463.163,-164.296 572.887,-180.62 599,-213 613.508,-230.99 611.754,-245.727 599,-265 588.453,-280.938 572.894,-292.791 555.815,-301.603"/>
<polygon fill="black" stroke="black" points="554.271,-298.462 546.765,-305.939 557.295,-304.775 554.271,-298.462"/>
</g>
<!-- parents&#45;&gt;insulated -->
<g id="edge23" class="edge"><title>parents&#45;&gt;insulated</title>
<path fill="none" stroke="black" d="M387.522,-156.661C465.589,-164.244 580.865,-180.669 610,-213 654.116,-261.954 657.725,-307.68 619,-361 608.5,-375.457 572.455,-388.052 536.625,-397.434"/>
<polygon fill="black" stroke="black" points="535.377,-394.14 526.546,-399.994 537.1,-400.924 535.377,-394.14"/>
</g>
<!-- drg&#45;&gt;brush -->
<g id="edge13" class="edge"><title>drg&#45;&gt;brush</title>
<path fill="none" stroke="black" d="M270.308,-264.69C255.582,-274.613 239.25,-286.049 225.011,-296.393"/>
<polygon fill="black" stroke="black" points="222.896,-293.605 216.898,-302.338 227.033,-299.251 222.896,-293.605"/>
</g>
<!-- drg&#45;&gt;absorbing -->
<g id="edge17" class="edge"><title>drg&#45;&gt;absorbing</title>
<path fill="none" stroke="black" d="M354.247,-264.927C369.764,-274.68 387.562,-285.867 403.736,-296.034"/>
<polygon fill="black" stroke="black" points="402.201,-299.203 412.53,-301.562 405.926,-293.277 402.201,-299.203"/>
</g>
<!-- brush&#45;&gt;drg -->
<g id="edge15" class="edge"><title>brush&#45;&gt;drg</title>
<path fill="none" stroke="black" d="M227.642,-303.36C242.452,-293.441 259.211,-281.751 273.964,-271.075"/>
<polygon fill="black" stroke="black" points="276.374,-273.649 282.388,-264.927 272.247,-267.995 276.374,-273.649"/>
</g>
<!-- absorbing&#45;&gt;insulated -->
<g id="edge19" class="edge"><title>absorbing&#45;&gt;insulated</title>
<path fill="none" stroke="black" d="M453,-353.403C453,-361.393 453,-370.311 453,-378.824"/>
<polygon fill="black" stroke="black" points="449.5,-378.919 453,-388.919 456.5,-378.919 449.5,-378.919"/>
</g>
</g>
</svg>
