<?xml version="1.0" encoding="UTF-8" standalone="no"?>
<!DOCTYPE svg PUBLIC "-//W3C//DTD SVG 1.1//EN"
 "http://www.w3.org/Graphics/SVG/1.1/DTD/svg11.dtd">
<!-- Generated by graphviz version 2.26.3 (20100126.1600)
 -->
<!-- Title: _anonymous_0 Pages: 1 -->
<svg width="410pt" height="449pt"
 viewBox="0.00 0.00 409.92 449.00" xmlns="http://www.w3.org/2000/svg" xmlns:xlink="http://www.w3.org/1999/xlink">
<g id="graph1" class="graph" transform="scale(1 1) rotate(0) translate(4 445)">
<title>_anonymous_0</title>
<polygon fill="white" stroke="white" points="-4,5 -4,-445 406.92,-445 406.92,5 -4,5"/>
<text text-anchor="middle" x="200.96" y="-11.4" font-family="Times Roman,serif" font-size="24.00">Torus</text>
<g id="graph3" class="cluster"><title>cluster1</title>
<polygon fill="none" stroke="black" points="8,-117 8,-361 338,-361 338,-117 8,-117"/>
</g>
<!-- nd -->
<g id="node2" class="node"><title>nd</title>
<ellipse fill="#5c5c5c" stroke="black" cx="183" cy="-63" rx="60.1041" ry="26.163"/>
<text text-anchor="middle" x="183" y="-55.9" font-family="Times Roman,serif" font-size="24.00">prefix</text>
</g>
<!-- parents -->
<g id="node4" class="node"><title>parents</title>
<ellipse fill="plum" stroke="black" cx="183" cy="-151" rx="75.8684" ry="26.163"/>
<text text-anchor="middle" x="183" y="-143.9" font-family="Times Roman,serif" font-size="24.00">parents</text>
</g>
<!-- nd&#45;&gt;parents -->
<g id="edge5" class="edge"><title>nd&#45;&gt;parents</title>
<path fill="none" stroke="black" d="M183,-89.4029C183,-97.3932 183,-106.311 183,-114.824"/>
<polygon fill="black" stroke="black" points="179.5,-114.919 183,-124.919 186.5,-114.919 179.5,-114.919"/>
</g>
<!-- insulated -->
<g id="node8" class="node"><title>insulated</title>
<ellipse fill="#5c5c5c" stroke="black" cx="173" cy="-415" rx="90.0096" ry="26.163"/>
<text text-anchor="middle" x="173" y="-407.9" font-family="Times Roman,serif" font-size="24.00">insulated</text>
</g>
<!-- nd&#45;&gt;insulated -->
<g id="edge15" class="edge"><title>nd&#45;&gt;insulated</title>
<path fill="none" stroke="black" d="M236.862,-74.6981C277.548,-84.6895 328.596,-100.097 342,-117 409.564,-202.201 425.36,-274.096 360,-361 347.446,-377.693 303.41,-390.856 261.226,-400.006"/>
<polygon fill="black" stroke="black" points="260.481,-396.586 251.417,-402.071 261.924,-403.435 260.481,-396.586"/>
</g>
<!-- drg -->
<g id="node5" class="node"><title>drg</title>
<ellipse fill="gold" stroke="black" cx="134" cy="-239" rx="79.196" ry="26.163"/>
<text text-anchor="middle" x="134" y="-231.9" font-family="Times Roman,serif" font-size="24.00">(empty)</text>
</g>
<!-- parents&#45;&gt;drg -->
<g id="edge7" class="edge"><title>parents&#45;&gt;drg</title>
<path fill="none" stroke="black" d="M168.563,-176.927C163.778,-185.52 158.374,-195.227 153.284,-204.368"/>
<polygon fill="black" stroke="black" points="150.14,-202.819 148.333,-213.258 156.256,-206.224 150.14,-202.819"/>
</g>
<!-- absorbing -->
<g id="node6" class="node"><title>absorbing</title>
<ellipse fill="saddlebrown" stroke="black" cx="173" cy="-327" rx="156.978" ry="26.163"/>
<text text-anchor="middle" x="173" y="-319.9" font-family="Times Roman,serif" font-size="24.00">absorbing border</text>
</g>
<!-- parents&#45;&gt;absorbing -->
<g id="edge9" class="edge"><title>parents&#45;&gt;absorbing</title>
<path fill="none" stroke="black" d="M203.424,-176.274C210.798,-186.95 218.23,-199.926 222,-213 228.403,-235.206 229.585,-243.169 222,-265 218.485,-275.116 212.559,-284.827 206.017,-293.439"/>
<polygon fill="black" stroke="black" points="203.194,-291.365 199.616,-301.337 208.632,-295.772 203.194,-291.365"/>
</g>
<!-- parents&#45;&gt;insulated -->
<g id="edge17" class="edge"><title>parents&#45;&gt;insulated</title>
<path fill="none" stroke="black" d="M221.767,-173.567C282.665,-211.904 388.909,-292.282 339,-361 328.5,-375.457 292.455,-388.052 256.625,-397.434"/>
<polygon fill="black" stroke="black" points="255.377,-394.14 246.546,-399.994 257.1,-400.924 255.377,-394.14"/>
</g>
<!-- drg&#45;&gt;absorbing -->
<g id="edge11" class="edge"><title>drg&#45;&gt;absorbing</title>
<path fill="none" stroke="black" d="M145.49,-264.927C149.186,-273.267 153.347,-282.655 157.293,-291.558"/>
<polygon fill="black" stroke="black" points="154.205,-293.23 161.457,-300.954 160.605,-290.394 154.205,-293.23"/>
</g>
<!-- absorbing&#45;&gt;insulated -->
<g id="edge13" class="edge"><title>absorbing&#45;&gt;insulated</title>
<path fill="none" stroke="black" d="M173,-353.403C173,-361.393 173,-370.311 173,-378.824"/>
<polygon fill="black" stroke="black" points="169.5,-378.919 173,-388.919 176.5,-378.919 169.5,-378.919"/>
</g>
</g>
</svg>
