<?xml version="1.0" encoding="UTF-8" standalone="no"?>
<!DOCTYPE svg PUBLIC "-//W3C//DTD SVG 1.1//EN"
 "http://www.w3.org/Graphics/SVG/1.1/DTD/svg11.dtd">
<!-- Generated by graphviz version 2.26.3 (20100126.1600)
 -->
<!-- Title: _anonymous_0 Pages: 1 -->
<svg width="716pt" height="449pt"
 viewBox="0.00 0.00 715.65 449.00" xmlns="http://www.w3.org/2000/svg" xmlns:xlink="http://www.w3.org/1999/xlink">
<g id="graph1" class="graph" transform="scale(1 1) rotate(0) translate(4 445)">
<title>_anonymous_0</title>
<polygon fill="white" stroke="white" points="-4,5 -4,-445 712.647,-445 712.647,5 -4,5"/>
<text text-anchor="middle" x="353.823" y="-11.4" font-family="Times Roman,serif" font-size="24.00">Proposal trace</text>
<g id="graph3" class="cluster"><title>cluster1</title>
<polygon fill="none" stroke="black" points="8,-117 8,-361 636,-361 636,-117 8,-117"/>
</g>
<!-- nd -->
<g id="node2" class="node"><title>nd</title>
<ellipse fill="#5c5c5c" stroke="black" cx="322" cy="-63" rx="60.1041" ry="26.163"/>
<text text-anchor="middle" x="322" y="-55.9" font-family="Times Roman,serif" font-size="24.00">prefix</text>
</g>
<!-- parents -->
<g id="node4" class="node"><title>parents</title>
<ellipse fill="plum" stroke="black" cx="322" cy="-151" rx="75.8684" ry="26.163"/>
<text text-anchor="middle" x="322" y="-143.9" font-family="Times Roman,serif" font-size="24.00">parents</text>
</g>
<!-- nd&#45;&gt;parents -->
<g id="edge5" class="edge"><title>nd&#45;&gt;parents</title>
<path fill="none" stroke="black" d="M322,-89.4029C322,-97.3932 322,-106.311 322,-114.824"/>
<polygon fill="black" stroke="black" points="318.5,-114.919 322,-124.919 325.5,-114.919 318.5,-114.919"/>
</g>
<!-- insulated -->
<g id="node9" class="node"><title>insulated</title>
<ellipse fill="#5c5c5c" stroke="black" cx="471" cy="-415" rx="90.0096" ry="26.163"/>
<text text-anchor="middle" x="471" y="-407.9" font-family="Times Roman,serif" font-size="24.00">insulated</text>
</g>
<!-- nd&#45;&gt;insulated -->
<g id="edge21" class="edge"><title>nd&#45;&gt;insulated</title>
<path fill="none" stroke="black" d="M381.987,-65.2175C463.815,-69.533 604.358,-81.9638 640,-117 717.741,-193.42 730.943,-274.195 665,-361 651.753,-378.438 605.014,-391.74 560.734,-400.779"/>
<polygon fill="black" stroke="black" points="559.875,-397.381 550.745,-402.757 561.234,-404.248 559.875,-397.381"/>
</g>
<!-- drg -->
<g id="node5" class="node"><title>drg</title>
<ellipse fill="gold" stroke="black" cx="322" cy="-239" rx="285.878" ry="26.163"/>
<text text-anchor="middle" x="322" y="-231.9" font-family="Times Roman,serif" font-size="24.00">new definite regeneration graph</text>
</g>
<!-- parents&#45;&gt;drg -->
<g id="edge7" class="edge"><title>parents&#45;&gt;drg</title>
<path fill="none" stroke="black" d="M322,-177.403C322,-185.393 322,-194.311 322,-202.824"/>
<polygon fill="black" stroke="black" points="318.5,-202.919 322,-212.919 325.5,-202.919 318.5,-202.919"/>
</g>
<!-- brush -->
<g id="node6" class="node"><title>brush</title>
<ellipse fill="darkseagreen" stroke="black" cx="197" cy="-327" rx="99.201" ry="26.163"/>
<text text-anchor="middle" x="197" y="-319.9" font-family="Times Roman,serif" font-size="24.00">new brush</text>
</g>
<!-- parents&#45;&gt;brush -->
<g id="edge9" class="edge"><title>parents&#45;&gt;brush</title>
<path fill="none" stroke="black" d="M247.343,-156.193C169.241,-163.363 54.2509,-179.426 27,-213 12.4352,-230.944 13.7502,-246.064 27,-265 37.8707,-280.536 76.2882,-295.206 113.857,-306.372"/>
<polygon fill="black" stroke="black" points="113.309,-309.857 123.888,-309.279 115.258,-303.134 113.309,-309.857"/>
</g>
<!-- absorbing -->
<g id="node7" class="node"><title>absorbing</title>
<ellipse fill="saddlebrown" stroke="black" cx="471" cy="-327" rx="156.978" ry="26.163"/>
<text text-anchor="middle" x="471" y="-319.9" font-family="Times Roman,serif" font-size="24.00">absorbing border</text>
</g>
<!-- parents&#45;&gt;absorbing -->
<g id="edge11" class="edge"><title>parents&#45;&gt;absorbing</title>
<path fill="none" stroke="black" d="M396.657,-156.193C474.759,-163.363 589.749,-179.426 617,-213 631.565,-230.944 629.754,-245.727 617,-265 606.453,-280.938 590.894,-292.791 573.815,-301.603"/>
<polygon fill="black" stroke="black" points="572.271,-298.462 564.765,-305.939 575.295,-304.775 572.271,-298.462"/>
</g>
<!-- parents&#45;&gt;insulated -->
<g id="edge23" class="edge"><title>parents&#45;&gt;insulated</title>
<path fill="none" stroke="black" d="M396.577,-156.144C477.007,-163.348 597.647,-179.517 628,-213 672.26,-261.824 675.725,-307.68 637,-361 626.5,-375.457 590.455,-388.052 554.625,-397.434"/>
<polygon fill="black" stroke="black" points="553.377,-394.14 544.546,-399.994 555.1,-400.924 553.377,-394.14"/>
</g>
<!-- drg&#45;&gt;brush -->
<g id="edge13" class="edge"><title>drg&#45;&gt;brush</title>
<path fill="none" stroke="black" d="M278.956,-264.927C264.636,-274.583 248.83,-285.646 234.923,-295.731"/>
<polygon fill="black" stroke="black" points="232.545,-293.135 226.54,-301.864 236.677,-298.785 232.545,-293.135"/>
</g>
<!-- drg&#45;&gt;absorbing -->
<g id="edge17" class="edge"><title>drg&#45;&gt;absorbing</title>
<path fill="none" stroke="black" d="M365.899,-264.927C382.712,-274.857 402.042,-286.273 419.502,-296.585"/>
<polygon fill="black" stroke="black" points="418.049,-299.792 428.44,-301.864 421.609,-293.765 418.049,-299.792"/>
</g>
<!-- brush&#45;&gt;drg -->
<g id="edge15" class="edge"><title>brush&#45;&gt;drg</title>
<path fill="none" stroke="black" d="M237.085,-303.063C251.81,-293.192 268.413,-281.607 283.036,-271.023"/>
<polygon fill="black" stroke="black" points="285.374,-273.649 291.388,-264.927 281.247,-267.995 285.374,-273.649"/>
</g>
<!-- absorbing&#45;&gt;insulated -->
<g id="edge19" class="edge"><title>absorbing&#45;&gt;insulated</title>
<path fill="none" stroke="black" d="M471,-353.403C471,-361.393 471,-370.311 471,-378.824"/>
<polygon fill="black" stroke="black" points="467.5,-378.919 471,-388.919 474.5,-378.919 467.5,-378.919"/>
</g>
</g>
</svg>
