<?xml version="1.0" encoding="UTF-8" standalone="no"?>
<!DOCTYPE svg PUBLIC "-//W3C//DTD SVG 1.1//EN"
 "http://www.w3.org/Graphics/SVG/1.1/DTD/svg11.dtd">
<!-- Generated by graphviz version 2.26.3 (20100126.1600)
 -->
<!-- Title: _anonymous_0 Pages: 1 -->
<svg width="286pt" height="548pt"
 viewBox="0.00 0.00 286.00 548.00" xmlns="http://www.w3.org/2000/svg" xmlns:xlink="http://www.w3.org/1999/xlink">
<g id="graph1" class="graph" transform="scale(1 1) rotate(0) translate(4 544)">
<title>_anonymous_0</title>
<polygon fill="white" stroke="white" points="-4,5 -4,-544 283,-544 283,5 -4,5"/>
<!-- 38822832 -->
<g id="node3" class="node"><title>38822832</title>
<ellipse fill="firebrick" stroke="black" cx="107" cy="-162" rx="27" ry="18"/>
</g>
<!-- 38733728 -->
<g id="node15" class="node"><title>38733728</title>
<ellipse fill="gold" stroke="black" cx="107" cy="-234" rx="27" ry="18"/>
</g>
<!-- 38822832&#45;&gt;38733728 -->
<g id="edge35" class="edge"><title>38822832&#45;&gt;38733728</title>
<path fill="none" stroke="black" d="M107,-180.169C107,-187.869 107,-197.026 107,-205.583"/>
<polygon fill="black" stroke="black" points="103.5,-205.587 107,-215.587 110.5,-205.587 103.5,-205.587"/>
</g>
<!-- 40815120 -->
<g id="node4" class="node"><title>40815120</title>
<ellipse fill="#8f8f8f" stroke="black" cx="80" cy="-90" rx="27" ry="18"/>
</g>
<!-- 40815120&#45;&gt;38822832 -->
<g id="edge17" class="edge"><title>40815120&#45;&gt;38822832</title>
<path fill="none" stroke="black" d="M86.6742,-107.798C89.7476,-115.994 93.4616,-125.898 96.8695,-134.985"/>
<polygon fill="black" stroke="black" points="93.6142,-136.273 100.403,-144.407 100.168,-133.815 93.6142,-136.273"/>
</g>
<!-- 39678768 -->
<g id="node5" class="node"><title>39678768</title>
<ellipse fill="#8f8f8f" stroke="black" cx="27" cy="-18" rx="27" ry="18"/>
</g>
<!-- 39678768&#45;&gt;38822832 -->
<g id="edge5" class="edge"><title>39678768&#45;&gt;38822832</title>
<path fill="none" stroke="black" d="M26.9622,-36.1202C27.6785,-55.212 31.0218,-85.5642 44,-108 52.3222,-122.387 65.9393,-134.774 78.3883,-144.042"/>
<polygon fill="black" stroke="black" points="76.5546,-147.032 86.7408,-149.946 80.5952,-141.316 76.5546,-147.032"/>
</g>
<!-- 39678768&#45;&gt;40815120 -->
<g id="edge7" class="edge"><title>39678768&#45;&gt;40815120</title>
<path fill="none" stroke="black" d="M39.0265,-34.3379C45.8029,-43.5436 54.4007,-55.2236 61.9687,-65.5047"/>
<polygon fill="black" stroke="black" points="59.2742,-67.7482 68.0211,-73.7267 64.9115,-63.5985 59.2742,-67.7482"/>
</g>
<!-- 39716512 -->
<g id="node6" class="node"><title>39716512</title>
<ellipse fill="#8f8f8f" stroke="black" cx="100" cy="-18" rx="27" ry="18"/>
</g>
<!-- 39716512&#45;&gt;38822832 -->
<g id="edge9" class="edge"><title>39716512&#45;&gt;38822832</title>
<path fill="none" stroke="black" d="M106.653,-35.7104C110.204,-46.1139 114.204,-59.6139 116,-72 119,-92.6881 116.447,-116.198 113.304,-134"/>
<polygon fill="black" stroke="black" points="109.83,-133.531 111.369,-144.013 116.702,-134.859 109.83,-133.531"/>
</g>
<!-- 39716512&#45;&gt;40815120 -->
<g id="edge11" class="edge"><title>39716512&#45;&gt;40815120</title>
<path fill="none" stroke="black" d="M95.0562,-35.7978C92.8206,-43.8459 90.1274,-53.5412 87.6407,-62.4933"/>
<polygon fill="black" stroke="black" points="84.2605,-61.5855 84.9563,-72.1575 91.0051,-63.459 84.2605,-61.5855"/>
</g>
<!-- 40132416 -->
<g id="node7" class="node"><title>40132416</title>
<ellipse fill="#8f8f8f" stroke="black" cx="172" cy="-18" rx="27" ry="18"/>
</g>
<!-- 40132416&#45;&gt;38822832 -->
<g id="edge13" class="edge"><title>40132416&#45;&gt;38822832</title>
<path fill="none" stroke="black" d="M164.159,-35.3698C152.935,-60.2362 132.191,-106.193 119.02,-135.371"/>
<polygon fill="black" stroke="black" points="115.792,-134.014 114.868,-144.569 122.173,-136.894 115.792,-134.014"/>
</g>
<!-- 40132416&#45;&gt;40815120 -->
<g id="edge15" class="edge"><title>40132416&#45;&gt;40815120</title>
<path fill="none" stroke="black" d="M154.261,-31.8823C140.516,-42.6398 121.273,-57.6991 105.82,-69.7928"/>
<polygon fill="black" stroke="black" points="103.402,-67.2409 97.6841,-76.1603 107.716,-72.7534 103.402,-67.2409"/>
</g>
<!-- 40392176 -->
<g id="node9" class="node"><title>40392176</title>
<ellipse fill="#63b8ff" stroke="black" cx="159" cy="-522" rx="27" ry="18"/>
</g>
<!-- 40167360 -->
<g id="node10" class="node"><title>40167360</title>
<ellipse fill="#63b8ff" stroke="black" cx="132" cy="-450" rx="27" ry="18"/>
</g>
<!-- 40167360&#45;&gt;40392176 -->
<g id="edge51" class="edge"><title>40167360&#45;&gt;40392176</title>
<path fill="none" stroke="black" d="M138.674,-467.798C141.748,-475.994 145.462,-485.898 148.87,-494.985"/>
<polygon fill="black" stroke="black" points="145.614,-496.273 152.403,-504.407 152.168,-493.815 145.614,-496.273"/>
</g>
<!-- 40453696 -->
<g id="node11" class="node"><title>40453696</title>
<ellipse fill="#8f8f8f" stroke="black" cx="77" cy="-378" rx="27" ry="18"/>
</g>
<!-- 40453696&#45;&gt;40392176 -->
<g id="edge19" class="edge"><title>40453696&#45;&gt;40392176</title>
<path fill="none" stroke="black" d="M77.4453,-396.138C78.653,-415.244 82.7263,-445.609 96,-468 104.475,-482.297 118.108,-494.675 130.527,-503.961"/>
<polygon fill="black" stroke="black" points="128.675,-506.938 138.853,-509.88 132.731,-501.233 128.675,-506.938"/>
</g>
<!-- 40453696&#45;&gt;40167360 -->
<g id="edge21" class="edge"><title>40453696&#45;&gt;40167360</title>
<path fill="none" stroke="black" d="M89.4804,-394.338C96.5124,-403.544 105.435,-415.224 113.288,-425.505"/>
<polygon fill="black" stroke="black" points="110.717,-427.905 119.569,-433.727 116.28,-423.655 110.717,-427.905"/>
</g>
<!-- 38998608 -->
<g id="node12" class="node"><title>38998608</title>
<ellipse fill="gold" stroke="black" cx="150" cy="-378" rx="27" ry="18"/>
</g>
<!-- 38998608&#45;&gt;40392176 -->
<g id="edge23" class="edge"><title>38998608&#45;&gt;40392176</title>
<path fill="none" stroke="black" d="M157.48,-395.636C161.474,-406.014 165.974,-419.514 168,-432 171.349,-452.635 168.781,-476.146 165.544,-493.963"/>
<polygon fill="black" stroke="black" points="162.069,-493.495 163.546,-503.986 168.934,-494.864 162.069,-493.495"/>
</g>
<!-- 38998608&#45;&gt;40167360 -->
<g id="edge25" class="edge"><title>38998608&#45;&gt;40167360</title>
<path fill="none" stroke="black" d="M145.551,-395.798C143.56,-403.759 141.167,-413.333 138.949,-422.204"/>
<polygon fill="black" stroke="black" points="135.491,-421.607 136.461,-432.157 142.282,-423.305 135.491,-421.607"/>
</g>
<!-- 38704528 -->
<g id="node13" class="node"><title>38704528</title>
<ellipse fill="gold" stroke="black" cx="150" cy="-306" rx="27" ry="18"/>
</g>
<!-- 38704528&#45;&gt;38998608 -->
<g id="edge45" class="edge"><title>38704528&#45;&gt;38998608</title>
<path fill="none" stroke="black" d="M150,-324.169C150,-331.869 150,-341.026 150,-349.583"/>
<polygon fill="black" stroke="black" points="146.5,-349.587 150,-359.587 153.5,-349.587 146.5,-349.587"/>
</g>
<!-- 39130784 -->
<g id="node14" class="node"><title>39130784</title>
<ellipse fill="#8f8f8f" stroke="black" cx="35" cy="-234" rx="27" ry="18"/>
</g>
<!-- 39130784&#45;&gt;38998608 -->
<g id="edge27" class="edge"><title>39130784&#45;&gt;38998608</title>
<path fill="none" stroke="black" d="M46.687,-250.583C59.7405,-268.892 81.708,-299.075 102,-324 110.414,-334.335 120.112,-345.393 128.579,-354.794"/>
<polygon fill="black" stroke="black" points="126.033,-357.197 135.347,-362.248 131.216,-352.492 126.033,-357.197"/>
</g>
<!-- 39130784&#45;&gt;38704528 -->
<g id="edge29" class="edge"><title>39130784&#45;&gt;38704528</title>
<path fill="none" stroke="black" d="M54.7692,-246.377C73.1178,-257.865 100.644,-275.099 121.391,-288.088"/>
<polygon fill="black" stroke="black" points="119.771,-291.203 130.104,-293.543 123.485,-285.27 119.771,-291.203"/>
</g>
<!-- 38733728&#45;&gt;38998608 -->
<g id="edge31" class="edge"><title>38733728&#45;&gt;38998608</title>
<path fill="none" stroke="black" d="M105.771,-252.131C105.113,-270.703 105.757,-300.152 114,-324 117.644,-334.543 123.854,-345.007 130.099,-353.877"/>
<polygon fill="black" stroke="black" points="127.485,-356.227 136.264,-362.159 133.101,-352.047 127.485,-356.227"/>
</g>
<!-- 38733728&#45;&gt;38704528 -->
<g id="edge33" class="edge"><title>38733728&#45;&gt;38704528</title>
<path fill="none" stroke="black" d="M117.19,-251.063C122.385,-259.761 128.811,-270.52 134.595,-280.205"/>
<polygon fill="black" stroke="black" points="131.75,-282.269 139.883,-289.059 137.76,-278.679 131.75,-282.269"/>
</g>
<!-- 38934512 -->
<g id="node16" class="node"><title>38934512</title>
<ellipse fill="#8f8f8f" stroke="black" cx="179" cy="-234" rx="27" ry="18"/>
</g>
<!-- 38934512&#45;&gt;38998608 -->
<g id="edge37" class="edge"><title>38934512&#45;&gt;38998608</title>
<path fill="none" stroke="black" d="M184.197,-252.006C188.658,-270.479 193.312,-299.85 186,-324 182.734,-334.787 176.524,-345.389 170.169,-354.304"/>
<polygon fill="black" stroke="black" points="167.372,-352.2 164.123,-362.284 172.951,-356.427 167.372,-352.2"/>
</g>
<!-- 38934512&#45;&gt;38704528 -->
<g id="edge39" class="edge"><title>38934512&#45;&gt;38704528</title>
<path fill="none" stroke="black" d="M171.98,-251.429C168.656,-259.681 164.61,-269.726 160.9,-278.938"/>
<polygon fill="black" stroke="black" points="157.546,-277.898 157.056,-288.482 164.039,-280.514 157.546,-277.898"/>
</g>
<!-- 38817856 -->
<g id="node17" class="node"><title>38817856</title>
<ellipse fill="#8f8f8f" stroke="black" cx="251" cy="-234" rx="27" ry="18"/>
</g>
<!-- 38817856&#45;&gt;38998608 -->
<g id="edge41" class="edge"><title>38817856&#45;&gt;38998608</title>
<path fill="none" stroke="black" d="M242.978,-251.352C233.966,-270.064 218.317,-300.348 201,-324 192.705,-335.33 182.24,-346.791 172.951,-356.222"/>
<polygon fill="black" stroke="black" points="170.445,-353.779 165.817,-363.31 175.378,-358.744 170.445,-353.779"/>
</g>
<!-- 38817856&#45;&gt;38704528 -->
<g id="edge43" class="edge"><title>38817856&#45;&gt;38704528</title>
<path fill="none" stroke="black" d="M232.475,-247.206C216.912,-258.3 194.466,-274.301 176.919,-286.81"/>
<polygon fill="black" stroke="black" points="174.861,-283.979 168.75,-292.634 178.924,-289.679 174.861,-283.979"/>
</g>
<!-- 39578672 -->
<g id="node18" class="node"><title>39578672</title>
<ellipse fill="#8f8f8f" stroke="black" cx="224" cy="-378" rx="27" ry="18"/>
</g>
<!-- 39578672&#45;&gt;40392176 -->
<g id="edge47" class="edge"><title>39578672&#45;&gt;40392176</title>
<path fill="none" stroke="black" d="M216.159,-395.37C204.935,-420.236 184.191,-466.193 171.02,-495.371"/>
<polygon fill="black" stroke="black" points="167.792,-494.014 166.868,-504.569 174.173,-496.894 167.792,-494.014"/>
</g>
<!-- 39578672&#45;&gt;40167360 -->
<g id="edge49" class="edge"><title>39578672&#45;&gt;40167360</title>
<path fill="none" stroke="black" d="M206.261,-391.882C192.516,-402.64 173.273,-417.699 157.82,-429.793"/>
<polygon fill="black" stroke="black" points="155.402,-427.241 149.684,-436.16 159.716,-432.753 155.402,-427.241"/>
</g>
</g>
</svg>
