<?xml version="1.0" encoding="UTF-8" standalone="no"?>
<!DOCTYPE svg PUBLIC "-//W3C//DTD SVG 1.1//EN"
 "http://www.w3.org/Graphics/SVG/1.1/DTD/svg11.dtd">
<!-- Generated by graphviz version 2.26.3 (20100126.1600)
 -->
<!-- Title: _anonymous_0 Pages: 1 -->
<svg width="479pt" height="692pt"
 viewBox="0.00 0.00 479.00 692.00" xmlns="http://www.w3.org/2000/svg" xmlns:xlink="http://www.w3.org/1999/xlink">
<g id="graph1" class="graph" transform="scale(1 1) rotate(0) translate(4 688)">
<title>_anonymous_0</title>
<polygon fill="white" stroke="white" points="-4,5 -4,-688 476,-688 476,5 -4,5"/>
<!-- 41613888 -->
<g id="node3" class="node"><title>41613888</title>
<ellipse fill="firebrick" stroke="black" cx="188" cy="-162" rx="27" ry="18"/>
</g>
<!-- 43507120 -->
<g id="node12" class="node"><title>43507120</title>
<ellipse fill="gold" stroke="black" cx="305" cy="-234" rx="27" ry="18"/>
</g>
<!-- 41613888&#45;&gt;43507120 -->
<g id="edge69" class="edge"><title>41613888&#45;&gt;43507120</title>
<path fill="none" stroke="black" d="M207.847,-174.214C226.673,-185.799 255.165,-203.332 276.432,-216.42"/>
<polygon fill="black" stroke="black" points="274.704,-219.466 285.055,-221.726 278.373,-213.504 274.704,-219.466"/>
</g>
<!-- 41922048 -->
<g id="node18" class="node"><title>41922048</title>
<ellipse fill="gold" stroke="black" cx="99" cy="-522" rx="27" ry="18"/>
</g>
<!-- 41613888&#45;&gt;41922048 -->
<g id="edge15" class="edge"><title>41613888&#45;&gt;41922048</title>
<path fill="none" stroke="black" d="M175.553,-178.268C157.193,-203.936 125,-256.063 125,-306 125,-306 125,-306 125,-378 125,-418.952 114.69,-465.429 107.055,-494.233"/>
<polygon fill="black" stroke="black" points="103.645,-493.434 104.387,-504.003 110.398,-495.278 103.645,-493.434"/>
</g>
<!-- 43606384 -->
<g id="node4" class="node"><title>43606384</title>
<ellipse fill="#8f8f8f" stroke="black" cx="161" cy="-90" rx="27" ry="18"/>
</g>
<!-- 43606384&#45;&gt;41613888 -->
<g id="edge59" class="edge"><title>43606384&#45;&gt;41613888</title>
<path fill="none" stroke="black" d="M167.674,-107.798C170.748,-115.994 174.462,-125.898 177.87,-134.985"/>
<polygon fill="black" stroke="black" points="174.614,-136.273 181.403,-144.407 181.168,-133.815 174.614,-136.273"/>
</g>
<!-- 41960816 -->
<g id="node5" class="node"><title>41960816</title>
<ellipse fill="#8f8f8f" stroke="black" cx="108" cy="-18" rx="27" ry="18"/>
</g>
<!-- 41960816&#45;&gt;41613888 -->
<g id="edge47" class="edge"><title>41960816&#45;&gt;41613888</title>
<path fill="none" stroke="black" d="M107.962,-36.1202C108.679,-55.212 112.022,-85.5642 125,-108 133.322,-122.387 146.939,-134.774 159.388,-144.042"/>
<polygon fill="black" stroke="black" points="157.555,-147.032 167.741,-149.946 161.595,-141.316 157.555,-147.032"/>
</g>
<!-- 41960816&#45;&gt;43606384 -->
<g id="edge49" class="edge"><title>41960816&#45;&gt;43606384</title>
<path fill="none" stroke="black" d="M120.027,-34.3379C126.803,-43.5436 135.401,-55.2236 142.969,-65.5047"/>
<polygon fill="black" stroke="black" points="140.274,-67.7482 149.021,-73.7267 145.912,-63.5985 140.274,-67.7482"/>
</g>
<!-- 42470032 -->
<g id="node6" class="node"><title>42470032</title>
<ellipse fill="#8f8f8f" stroke="black" cx="181" cy="-18" rx="27" ry="18"/>
</g>
<!-- 42470032&#45;&gt;41613888 -->
<g id="edge51" class="edge"><title>42470032&#45;&gt;41613888</title>
<path fill="none" stroke="black" d="M187.653,-35.7104C191.204,-46.1139 195.204,-59.6139 197,-72 200,-92.6881 197.447,-116.198 194.304,-134"/>
<polygon fill="black" stroke="black" points="190.83,-133.531 192.369,-144.013 197.702,-134.859 190.83,-133.531"/>
</g>
<!-- 42470032&#45;&gt;43606384 -->
<g id="edge53" class="edge"><title>42470032&#45;&gt;43606384</title>
<path fill="none" stroke="black" d="M176.056,-35.7978C173.821,-43.8459 171.127,-53.5412 168.641,-62.4933"/>
<polygon fill="black" stroke="black" points="165.26,-61.5855 165.956,-72.1575 172.005,-63.459 165.26,-61.5855"/>
</g>
<!-- 42507776 -->
<g id="node7" class="node"><title>42507776</title>
<ellipse fill="#8f8f8f" stroke="black" cx="253" cy="-18" rx="27" ry="18"/>
</g>
<!-- 42507776&#45;&gt;41613888 -->
<g id="edge55" class="edge"><title>42507776&#45;&gt;41613888</title>
<path fill="none" stroke="black" d="M245.159,-35.3698C233.935,-60.2362 213.191,-106.193 200.02,-135.371"/>
<polygon fill="black" stroke="black" points="196.792,-134.014 195.868,-144.569 203.173,-136.894 196.792,-134.014"/>
</g>
<!-- 42507776&#45;&gt;43606384 -->
<g id="edge57" class="edge"><title>42507776&#45;&gt;43606384</title>
<path fill="none" stroke="black" d="M235.261,-31.8823C221.516,-42.6398 202.273,-57.6991 186.82,-69.7928"/>
<polygon fill="black" stroke="black" points="184.402,-67.2409 178.684,-76.1603 188.716,-72.7534 184.402,-67.2409"/>
</g>
<!-- 42958624 -->
<g id="node9" class="node"><title>42958624</title>
<ellipse fill="#63b8ff" stroke="black" cx="343" cy="-378" rx="27" ry="18"/>
</g>
<!-- 43938064 -->
<g id="node25" class="node"><title>43938064</title>
<ellipse fill="darkseagreen" stroke="black" cx="370" cy="-450" rx="27" ry="18"/>
</g>
<!-- 42958624&#45;&gt;43938064 -->
<g id="edge39" class="edge"><title>42958624&#45;&gt;43938064</title>
<path fill="none" stroke="black" d="M349.674,-395.798C352.748,-403.994 356.462,-413.898 359.87,-422.985"/>
<polygon fill="black" stroke="black" points="356.614,-424.273 363.403,-432.407 363.168,-421.815 356.614,-424.273"/>
</g>
<!-- 42923680 -->
<g id="node10" class="node"><title>42923680</title>
<ellipse fill="#63b8ff" stroke="black" cx="288" cy="-306" rx="27" ry="18"/>
</g>
<!-- 42923680&#45;&gt;42958624 -->
<g id="edge75" class="edge"><title>42923680&#45;&gt;42958624</title>
<path fill="none" stroke="black" d="M300.48,-322.338C307.512,-331.544 316.435,-343.224 324.288,-353.505"/>
<polygon fill="black" stroke="black" points="321.717,-355.905 330.569,-361.727 327.28,-351.655 321.717,-355.905"/>
</g>
<!-- 43183440 -->
<g id="node11" class="node"><title>43183440</title>
<ellipse fill="#8f8f8f" stroke="black" cx="233" cy="-234" rx="27" ry="18"/>
</g>
<!-- 43183440&#45;&gt;42958624 -->
<g id="edge61" class="edge"><title>43183440&#45;&gt;42958624</title>
<path fill="none" stroke="black" d="M232.688,-252.267C233.24,-271.762 236.748,-302.71 252,-324 266.067,-343.636 289.69,-357.346 309.341,-366.038"/>
<polygon fill="black" stroke="black" points="308.033,-369.285 318.61,-369.906 310.729,-362.825 308.033,-369.285"/>
</g>
<!-- 43183440&#45;&gt;42923680 -->
<g id="edge63" class="edge"><title>43183440&#45;&gt;42923680</title>
<path fill="none" stroke="black" d="M245.48,-250.338C252.512,-259.544 261.435,-271.224 269.288,-281.505"/>
<polygon fill="black" stroke="black" points="266.717,-283.905 275.569,-289.727 272.28,-279.655 266.717,-283.905"/>
</g>
<!-- 43507120&#45;&gt;42958624 -->
<g id="edge65" class="edge"><title>43507120&#45;&gt;42958624</title>
<path fill="none" stroke="black" d="M311.926,-251.813C315.818,-262.251 320.568,-275.751 324,-288 329.736,-308.471 334.644,-331.989 338.035,-349.849"/>
<polygon fill="black" stroke="black" points="334.634,-350.708 339.897,-359.903 341.517,-349.433 334.634,-350.708"/>
</g>
<!-- 43507120&#45;&gt;42923680 -->
<g id="edge67" class="edge"><title>43507120&#45;&gt;42923680</title>
<path fill="none" stroke="black" d="M300.798,-251.798C298.918,-259.759 296.658,-269.333 294.563,-278.204"/>
<polygon fill="black" stroke="black" points="291.104,-277.621 292.213,-288.157 297.917,-279.229 291.104,-277.621"/>
</g>
<!-- 43960928 -->
<g id="node13" class="node"><title>43960928</title>
<ellipse fill="#8f8f8f" stroke="black" cx="379" cy="-234" rx="27" ry="18"/>
</g>
<!-- 43960928&#45;&gt;42958624 -->
<g id="edge71" class="edge"><title>43960928&#45;&gt;42958624</title>
<path fill="none" stroke="black" d="M374.691,-251.948C370.308,-270.126 363.285,-299.043 357,-324 354.848,-332.546 352.457,-341.84 350.268,-350.27"/>
<polygon fill="black" stroke="black" points="346.863,-349.457 347.729,-360.016 353.637,-351.221 346.863,-349.457"/>
</g>
<!-- 43960928&#45;&gt;42923680 -->
<g id="edge73" class="edge"><title>43960928&#45;&gt;42923680</title>
<path fill="none" stroke="black" d="M361.454,-247.882C347.858,-258.64 328.825,-273.699 313.54,-285.793"/>
<polygon fill="black" stroke="black" points="311.162,-283.211 305.492,-292.16 315.506,-288.7 311.162,-283.211"/>
</g>
<!-- 35217200 -->
<g id="node15" class="node"><title>35217200</title>
<ellipse fill="gold" stroke="black" cx="177" cy="-666" rx="27" ry="18"/>
</g>
<!-- 42382640 -->
<g id="node16" class="node"><title>42382640</title>
<ellipse fill="gold" stroke="black" cx="150" cy="-594" rx="27" ry="18"/>
</g>
<!-- 42382640&#45;&gt;35217200 -->
<g id="edge25" class="edge"><title>42382640&#45;&gt;35217200</title>
<path fill="none" stroke="black" d="M156.674,-611.798C159.748,-619.994 163.462,-629.898 166.87,-638.985"/>
<polygon fill="black" stroke="black" points="163.614,-640.273 170.403,-648.407 170.168,-637.815 163.614,-640.273"/>
</g>
<!-- 41608912 -->
<g id="node22" class="node"><title>41608912</title>
<ellipse fill="darkseagreen" stroke="black" cx="353" cy="-594" rx="27" ry="18"/>
</g>
<!-- 42382640&#45;&gt;41608912 -->
<g id="edge29" class="edge"><title>42382640&#45;&gt;41608912</title>
<path fill="none" stroke="black" stroke-dasharray="1,5" d="M177.357,-594C223.487,-594 269.616,-594 315.745,-594"/>
<polygon fill="black" stroke="black" points="315.899,-597.5 325.899,-594 315.899,-590.5 315.899,-597.5"/>
</g>
<!-- 41655024 -->
<g id="node17" class="node"><title>41655024</title>
<ellipse fill="#8f8f8f" stroke="black" cx="27" cy="-522" rx="27" ry="18"/>
</g>
<!-- 41655024&#45;&gt;35217200 -->
<g id="edge7" class="edge"><title>41655024&#45;&gt;35217200</title>
<path fill="none" stroke="black" d="M37.9699,-538.845C50.8963,-557.927 73.7095,-589.315 98,-612 113.022,-626.029 131.975,-639.11 147.551,-648.883"/>
<polygon fill="black" stroke="black" points="145.923,-651.99 156.277,-654.237 149.584,-646.024 145.923,-651.99"/>
</g>
<!-- 41655024&#45;&gt;42382640 -->
<g id="edge9" class="edge"><title>41655024&#45;&gt;42382640</title>
<path fill="none" stroke="black" d="M47.3109,-533.889C67.3412,-545.614 98.1596,-563.654 120.811,-576.914"/>
<polygon fill="black" stroke="black" points="119.261,-580.062 129.659,-582.093 122.797,-574.021 119.261,-580.062"/>
</g>
<!-- 41922048&#45;&gt;35217200 -->
<g id="edge11" class="edge"><title>41922048&#45;&gt;35217200</title>
<path fill="none" stroke="black" d="M98.4774,-540.1C98.7008,-559.174 101.313,-589.512 114,-612 122.167,-626.476 135.769,-638.872 148.248,-648.122"/>
<polygon fill="black" stroke="black" points="146.433,-651.125 156.627,-654.011 150.458,-645.398 146.433,-651.125"/>
</g>
<!-- 41922048&#45;&gt;42382640 -->
<g id="edge13" class="edge"><title>41922048&#45;&gt;42382640</title>
<path fill="none" stroke="black" d="M110.573,-538.338C116.937,-547.323 124.972,-558.666 132.124,-568.764"/>
<polygon fill="black" stroke="black" points="129.483,-571.09 138.119,-577.227 135.195,-567.044 129.483,-571.09"/>
</g>
<!-- 41495584 -->
<g id="node19" class="node"><title>41495584</title>
<ellipse fill="#8f8f8f" stroke="black" cx="171" cy="-522" rx="27" ry="18"/>
</g>
<!-- 41495584&#45;&gt;35217200 -->
<g id="edge17" class="edge"><title>41495584&#45;&gt;35217200</title>
<path fill="none" stroke="black" d="M177.238,-539.745C180.568,-550.16 184.318,-563.66 186,-576 188.823,-596.713 186.277,-620.221 183.181,-638.017"/>
<polygon fill="black" stroke="black" points="179.708,-637.548 181.279,-648.026 186.585,-638.855 179.708,-637.548"/>
</g>
<!-- 41495584&#45;&gt;42382640 -->
<g id="edge19" class="edge"><title>41495584&#45;&gt;42382640</title>
<path fill="none" stroke="black" d="M165.809,-539.798C163.462,-547.846 160.634,-557.541 158.023,-566.493"/>
<polygon fill="black" stroke="black" points="154.644,-565.577 155.204,-576.157 161.364,-567.537 154.644,-565.577"/>
</g>
<!-- 41524784 -->
<g id="node20" class="node"><title>41524784</title>
<ellipse fill="#8f8f8f" stroke="black" cx="243" cy="-522" rx="27" ry="18"/>
</g>
<!-- 41524784&#45;&gt;35217200 -->
<g id="edge21" class="edge"><title>41524784&#45;&gt;35217200</title>
<path fill="none" stroke="black" d="M235.039,-539.37C223.642,-564.236 202.578,-610.193 189.205,-639.371"/>
<polygon fill="black" stroke="black" points="185.974,-638.02 184.989,-648.569 192.338,-640.936 185.974,-638.02"/>
</g>
<!-- 41524784&#45;&gt;42382640 -->
<g id="edge23" class="edge"><title>41524784&#45;&gt;42382640</title>
<path fill="none" stroke="black" d="M225.069,-535.882C211.174,-546.64 191.722,-561.699 176.101,-573.793"/>
<polygon fill="black" stroke="black" points="173.641,-571.271 167.876,-580.16 177.926,-576.806 173.641,-571.271"/>
</g>
<!-- 41608912&#45;&gt;35217200 -->
<g id="edge27" class="edge"><title>41608912&#45;&gt;35217200</title>
<path fill="none" stroke="black" d="M329.629,-603.561C298.774,-616.184 244.294,-638.471 209.457,-652.722"/>
<polygon fill="black" stroke="black" points="208.118,-649.488 200.188,-656.514 210.768,-655.967 208.118,-649.488"/>
</g>
<!-- 41725568 -->
<g id="node23" class="node"><title>41725568</title>
<ellipse fill="darkseagreen" stroke="black" cx="353" cy="-522" rx="27" ry="18"/>
</g>
<!-- 41725568&#45;&gt;41608912 -->
<g id="edge45" class="edge"><title>41725568&#45;&gt;41608912</title>
<path fill="none" stroke="black" d="M353,-540.169C353,-547.869 353,-557.026 353,-565.583"/>
<polygon fill="black" stroke="black" points="349.5,-565.587 353,-575.587 356.5,-565.587 349.5,-565.587"/>
</g>
<!-- 41668864 -->
<g id="node24" class="node"><title>41668864</title>
<ellipse fill="darkseagreen" stroke="black" cx="298" cy="-450" rx="27" ry="18"/>
</g>
<!-- 41668864&#45;&gt;41608912 -->
<g id="edge31" class="edge"><title>41668864&#45;&gt;41608912</title>
<path fill="none" stroke="black" d="M299.79,-468.192C302.089,-486.812 307.034,-516.299 317,-540 321.324,-550.283 327.687,-560.688 333.866,-569.584"/>
<polygon fill="black" stroke="black" points="331.2,-571.87 339.901,-577.915 336.869,-567.763 331.2,-571.87"/>
</g>
<!-- 41668864&#45;&gt;41725568 -->
<g id="edge33" class="edge"><title>41668864&#45;&gt;41725568</title>
<path fill="none" stroke="black" d="M310.48,-466.338C317.512,-475.544 326.435,-487.224 334.288,-497.505"/>
<polygon fill="black" stroke="black" points="331.717,-499.905 340.569,-505.727 337.28,-495.655 331.717,-499.905"/>
</g>
<!-- 43938064&#45;&gt;41608912 -->
<g id="edge35" class="edge"><title>43938064&#45;&gt;41608912</title>
<path fill="none" stroke="black" d="M378.687,-467.139C386.778,-485.412 396.543,-515.087 389,-540 385.734,-550.787 379.524,-561.389 373.169,-570.304"/>
<polygon fill="black" stroke="black" points="370.372,-568.2 367.123,-578.284 375.951,-572.427 370.372,-568.2"/>
</g>
<!-- 43938064&#45;&gt;41725568 -->
<g id="edge37" class="edge"><title>43938064&#45;&gt;41725568</title>
<path fill="none" stroke="black" d="M365.798,-467.798C363.918,-475.759 361.658,-485.333 359.563,-494.204"/>
<polygon fill="black" stroke="black" points="356.104,-493.621 357.213,-504.157 362.917,-495.229 356.104,-493.621"/>
</g>
<!-- 43963792 -->
<g id="node26" class="node"><title>43963792</title>
<ellipse fill="darkseagreen" stroke="black" cx="444" cy="-450" rx="27" ry="18"/>
</g>
<!-- 43963792&#45;&gt;41608912 -->
<g id="edge41" class="edge"><title>43963792&#45;&gt;41608912</title>
<path fill="none" stroke="black" d="M438.115,-467.819C431.441,-486.659 419.449,-516.803 404,-540 396.217,-551.687 385.827,-563.202 376.457,-572.576"/>
<polygon fill="black" stroke="black" points="373.964,-570.119 369.231,-579.598 378.842,-575.14 373.964,-570.119"/>
</g>
<!-- 43963792&#45;&gt;41725568 -->
<g id="edge43" class="edge"><title>43963792&#45;&gt;41725568</title>
<path fill="none" stroke="black" d="M426.454,-463.882C412.858,-474.64 393.825,-489.699 378.54,-501.793"/>
<polygon fill="black" stroke="black" points="376.162,-499.211 370.492,-508.16 380.506,-504.7 376.162,-499.211"/>
</g>
</g>
</svg>
