<?xml version="1.0" encoding="UTF-8" standalone="no"?>
<!DOCTYPE svg PUBLIC "-//W3C//DTD SVG 1.1//EN"
 "http://www.w3.org/Graphics/SVG/1.1/DTD/svg11.dtd">
<!-- Generated by graphviz version 2.26.3 (20100126.1600)
 -->
<!-- Title: _anonymous_0 Pages: 1 -->
<svg width="2909pt" height="1268pt"
 viewBox="0.00 0.00 2908.75 1268.00" xmlns="http://www.w3.org/2000/svg" xmlns:xlink="http://www.w3.org/1999/xlink">
<g id="graph1" class="graph" transform="scale(1 1) rotate(0) translate(4 1264)">
<title>_anonymous_0</title>
<polygon fill="white" stroke="white" points="-4,5 -4,-1264 2905.75,-1264 2905.75,5 -4,5"/>
<g id="graph2" class="cluster"><title>cluster1</title>
<polygon fill="none" stroke="black" points="8,-46 8,-1252 1822,-1252 1822,-46 8,-46"/>
<text text-anchor="middle" x="915" y="-57.4" font-family="Times Roman,serif" font-size="24.00">Venture Families</text>
</g>
<g id="graph3" class="cluster"><title>cluster2</title>
<polygon fill="none" stroke="black" points="1101,-91 1101,-456 1771,-456 1771,-91 1101,-91"/>
<text text-anchor="middle" x="1436" y="-102.4" font-family="Times Roman,serif" font-size="24.00">1</text>
</g>
<g id="graph4" class="cluster"><title>cluster3</title>
<polygon fill="none" stroke="black" points="16,-464 16,-871 1814,-871 1814,-464 16,-464"/>
<text text-anchor="middle" x="915" y="-475.4" font-family="Times Roman,serif" font-size="24.00">2</text>
</g>
<g id="graph5" class="cluster"><title>cluster4</title>
<polygon fill="none" stroke="black" points="1032,-879 1032,-1244 1702,-1244 1702,-879 1032,-879"/>
<text text-anchor="middle" x="1367" y="-890.4" font-family="Times Roman,serif" font-size="24.00">3</text>
</g>
<g id="graph6" class="cluster"><title>cluster5</title>
<polygon fill="none" stroke="black" points="1966,-346 1966,-741 2880,-741 2880,-346 1966,-346"/>
</g>
<!-- 49832560 -->
<g id="node3" class="node"><title>49832560</title>
<ellipse fill="dodgerblue" stroke="black" cx="1355" cy="-401" rx="224.86" ry="46.669"/>
<text text-anchor="middle" x="1355" y="-408.4" font-family="Times Roman,serif" font-size="24.00">exp: (bernoulli 0.100000)</text>
<text text-anchor="middle" x="1355" y="-379.4" font-family="Times Roman,serif" font-size="24.00">value: #t</text>
</g>
<!-- 51433840 -->
<g id="node11" class="node"><title>51433840</title>
<ellipse fill="khaki" stroke="black" cx="1313" cy="-556" rx="167.084" ry="46.669"/>
<text text-anchor="middle" x="1313" y="-563.4" font-family="Times Roman,serif" font-size="24.00">exp: coin_is_tricky</text>
<text text-anchor="middle" x="1313" y="-534.4" font-family="Times Roman,serif" font-size="24.00">value: #t</text>
</g>
<!-- 49832560&#45;&gt;51433840 -->
<g id="edge59" class="edge"><title>49832560&#45;&gt;51433840</title>
<path fill="none" stroke="black" d="M1342.4,-447.505C1337.95,-463.904 1332.91,-482.521 1328.27,-499.645"/>
<polygon fill="black" stroke="black" points="1324.83,-498.96 1325.59,-509.528 1331.59,-500.791 1324.83,-498.96"/>
</g>
<!-- 49914976 -->
<g id="node4" class="node"><title>49914976</title>
<ellipse fill="#6e8b3d" stroke="black" cx="1377" cy="-292" rx="99.9096" ry="26.163"/>
<text text-anchor="middle" x="1377" y="-284.9" font-family="Times Roman,serif" font-size="24.00">request: []</text>
</g>
<!-- 49914976&#45;&gt;49832560 -->
<g id="edge33" class="edge"><title>49914976&#45;&gt;49832560</title>
<path fill="none" stroke="black" d="M1371.73,-318.108C1370.12,-326.064 1368.29,-335.139 1366.44,-344.297"/>
<polygon fill="black" stroke="black" points="1362.99,-343.723 1364.44,-354.218 1369.85,-345.108 1362.99,-343.723"/>
</g>
<!-- 50659200 -->
<g id="node5" class="node"><title>50659200</title>
<ellipse fill="khaki" stroke="black" cx="1594" cy="-183" rx="168.999" ry="46.669"/>
<text text-anchor="middle" x="1594" y="-190.4" font-family="Times Roman,serif" font-size="24.00">exp: bernoulli</text>
<text text-anchor="middle" x="1594" y="-161.4" font-family="Times Roman,serif" font-size="24.00">value: sp:bernoulli</text>
</g>
<!-- 50659200&#45;&gt;49832560 -->
<g id="edge23" class="edge"><title>50659200&#45;&gt;49832560</title>
<path fill="none" stroke="black" d="M1563.3,-228.732C1543.3,-256.501 1515.51,-291.567 1486,-318 1472.63,-329.973 1457.34,-341.338 1442.04,-351.601"/>
<polygon fill="black" stroke="black" points="1439.98,-348.765 1433.55,-357.185 1443.83,-354.614 1439.98,-348.765"/>
</g>
<!-- 50659200&#45;&gt;49914976 -->
<g id="edge25" class="edge"><title>50659200&#45;&gt;49914976</title>
<path fill="none" stroke="black" d="M1512.58,-223.898C1485.81,-237.343 1456.7,-251.967 1432.33,-264.206"/>
<polygon fill="black" stroke="black" points="1430.61,-261.156 1423.24,-268.772 1433.75,-267.411 1430.61,-261.156"/>
</g>
<!-- 50696944 -->
<g id="node6" class="node"><title>50696944</title>
<ellipse fill="#eead0e" stroke="black" cx="1258" cy="-183" rx="149.2" ry="46.669"/>
<text text-anchor="middle" x="1258" y="-190.4" font-family="Times Roman,serif" font-size="24.00">exp: 0.100000</text>
<text text-anchor="middle" x="1258" y="-161.4" font-family="Times Roman,serif" font-size="24.00">value: 0.100000</text>
</g>
<!-- 50696944&#45;&gt;49832560 -->
<g id="edge29" class="edge"><title>50696944&#45;&gt;49832560</title>
<path fill="none" stroke="black" d="M1253.37,-229.786C1252.63,-256.788 1255.1,-290.695 1268,-318 1273.16,-328.912 1280.42,-339.128 1288.58,-348.406"/>
<polygon fill="black" stroke="black" points="1286.24,-351.033 1295.61,-355.974 1291.37,-346.267 1286.24,-351.033"/>
</g>
<!-- 50696944&#45;&gt;49914976 -->
<g id="edge31" class="edge"><title>50696944&#45;&gt;49914976</title>
<path fill="none" stroke="black" d="M1306.06,-227.02C1318.11,-238.062 1330.82,-249.7 1342.09,-260.028"/>
<polygon fill="black" stroke="black" points="1339.91,-262.772 1349.65,-266.945 1344.64,-257.61 1339.91,-262.772"/>
</g>
<!-- 51013584 -->
<g id="node8" class="node"><title>51013584</title>
<ellipse fill="dodgerblue" stroke="black" cx="1077" cy="-816" rx="729.234" ry="46.669"/>
<text text-anchor="middle" x="1077" y="-823.4" font-family="Times Roman,serif" font-size="24.00">exp: (branch_exp coin_is_tricky (quote (beta 1.000000 1.000000)) (quote 0.500000))</text>
<text text-anchor="middle" x="1077" y="-794.4" font-family="Times Roman,serif" font-size="24.00">value: 0.695349</text>
</g>
<!-- 50595280 -->
<g id="node18" class="node"><title>50595280</title>
<ellipse fill="khaki" stroke="black" cx="1189" cy="-971" rx="149.2" ry="46.669"/>
<text text-anchor="middle" x="1189" y="-978.4" font-family="Times Roman,serif" font-size="24.00">exp: weight</text>
<text text-anchor="middle" x="1189" y="-949.4" font-family="Times Roman,serif" font-size="24.00">value: 0.695349</text>
</g>
<!-- 51013584&#45;&gt;50595280 -->
<g id="edge45" class="edge"><title>51013584&#45;&gt;50595280</title>
<path fill="none" stroke="black" d="M1110.6,-862.505C1123.01,-879.671 1137.17,-899.265 1150.01,-917.036"/>
<polygon fill="black" stroke="black" points="1147.5,-919.539 1156.19,-925.594 1153.17,-915.439 1147.5,-919.539"/>
</g>
<!-- 51795264 -->
<g id="node9" class="node"><title>51795264</title>
<ellipse fill="#6e8b3d" stroke="black" cx="1077" cy="-686" rx="499.924" ry="26.163"/>
<text text-anchor="middle" x="1077" y="-678.9" font-family="Times Roman,serif" font-size="24.00">request: [(51795264, (beta 1.000000 1.000000), &lt;env&gt;)]</text>
</g>
<!-- 51795264&#45;&gt;51013584 -->
<g id="edge69" class="edge"><title>51795264&#45;&gt;51013584</title>
<path fill="none" stroke="black" d="M1077,-712.307C1077,-725.886 1077,-743.006 1077,-759.401"/>
<polygon fill="black" stroke="black" points="1073.5,-759.477 1077,-769.477 1080.5,-759.477 1073.5,-759.477"/>
</g>
<!-- 51372320 -->
<g id="node10" class="node"><title>51372320</title>
<ellipse fill="khaki" stroke="black" cx="1652" cy="-556" rx="154.149" ry="46.669"/>
<text text-anchor="middle" x="1652" y="-563.4" font-family="Times Roman,serif" font-size="24.00">exp: branch_exp</text>
<text text-anchor="middle" x="1652" y="-534.4" font-family="Times Roman,serif" font-size="24.00">value: sp:branch</text>
</g>
<!-- 51372320&#45;&gt;51013584 -->
<g id="edge49" class="edge"><title>51372320&#45;&gt;51013584</title>
<path fill="none" stroke="black" d="M1652.87,-602.889C1650.93,-645.433 1640.87,-706.607 1602,-741 1588.61,-752.848 1535.01,-764.412 1466.83,-774.772"/>
<polygon fill="black" stroke="black" points="1466.04,-771.352 1456.67,-776.292 1467.07,-778.275 1466.04,-771.352"/>
</g>
<!-- 51372320&#45;&gt;51795264 -->
<g id="edge51" class="edge"><title>51372320&#45;&gt;51795264</title>
<path fill="none" stroke="black" d="M1542.73,-588.84C1524.84,-593.832 1506.45,-598.734 1489,-603 1402.34,-624.186 1304.47,-644.068 1225.88,-659.059"/>
<polygon fill="black" stroke="black" points="1225.07,-655.65 1215.9,-660.956 1226.38,-662.527 1225.07,-655.65"/>
</g>
<!-- 51433840&#45;&gt;51013584 -->
<g id="edge55" class="edge"><title>51433840&#45;&gt;51013584</title>
<path fill="none" stroke="black" d="M1431.85,-588.712C1503.12,-608.893 1580.95,-632.185 1586,-639 1612.99,-675.421 1615.63,-706.688 1586,-741 1575.36,-753.328 1529.46,-764.72 1469.26,-774.707"/>
<polygon fill="black" stroke="black" points="1468.38,-771.304 1459.07,-776.362 1469.5,-778.213 1468.38,-771.304"/>
</g>
<!-- 51433840&#45;&gt;51795264 -->
<g id="edge57" class="edge"><title>51433840&#45;&gt;51795264</title>
<path fill="none" stroke="black" d="M1237.35,-597.669C1203.49,-616.325 1164.25,-637.938 1133.07,-655.115"/>
<polygon fill="black" stroke="black" points="1131.15,-652.174 1124.08,-660.065 1134.53,-658.305 1131.15,-652.174"/>
</g>
<!-- 49684960 -->
<g id="node12" class="node"><title>49684960</title>
<ellipse fill="#eead0e" stroke="black" cx="786" cy="-556" rx="342.24" ry="46.669"/>
<text text-anchor="middle" x="786" y="-563.4" font-family="Times Roman,serif" font-size="24.00">exp: (quote (beta 1.000000 1.000000))</text>
<text text-anchor="middle" x="786" y="-534.4" font-family="Times Roman,serif" font-size="24.00">value: (beta 1.000000 1.000000)</text>
</g>
<!-- 49684960&#45;&gt;51013584 -->
<g id="edge61" class="edge"><title>49684960&#45;&gt;51013584</title>
<path fill="none" stroke="black" d="M638.921,-598.009C606.052,-610.427 577.94,-624.579 568,-639 542.272,-676.325 538.373,-706.688 568,-741 578.645,-753.328 624.544,-764.72 684.744,-774.707"/>
<polygon fill="black" stroke="black" points="684.495,-778.213 694.927,-776.362 685.618,-771.304 684.495,-778.213"/>
</g>
<!-- 49684960&#45;&gt;51795264 -->
<g id="edge63" class="edge"><title>49684960&#45;&gt;51795264</title>
<path fill="none" stroke="black" d="M885.739,-600.557C926.691,-618.852 973.028,-639.552 1009.84,-655.995"/>
<polygon fill="black" stroke="black" points="1008.42,-659.197 1018.98,-660.08 1011.28,-652.805 1008.42,-659.197"/>
</g>
<!-- 43408464 -->
<g id="node13" class="node"><title>43408464</title>
<ellipse fill="#eead0e" stroke="black" cx="225" cy="-556" rx="200.818" ry="46.669"/>
<text text-anchor="middle" x="225" y="-563.4" font-family="Times Roman,serif" font-size="24.00">exp: (quote 0.500000)</text>
<text text-anchor="middle" x="225" y="-534.4" font-family="Times Roman,serif" font-size="24.00">value: 0.500000</text>
</g>
<!-- 43408464&#45;&gt;51013584 -->
<g id="edge65" class="edge"><title>43408464&#45;&gt;51013584</title>
<path fill="none" stroke="black" d="M285.088,-600.423C346.777,-643.646 447.182,-707.549 544,-741 577.515,-752.58 638.002,-763.885 706.523,-774.061"/>
<polygon fill="black" stroke="black" points="706.287,-777.564 716.689,-775.554 707.304,-770.638 706.287,-777.564"/>
</g>
<!-- 43408464&#45;&gt;51795264 -->
<g id="edge67" class="edge"><title>43408464&#45;&gt;51795264</title>
<path fill="none" stroke="black" d="M365.562,-589.323C388.69,-594.269 412.464,-599.03 435,-603 570.915,-626.943 724.158,-647.014 846.832,-661.418"/>
<polygon fill="black" stroke="black" points="846.765,-664.934 857.104,-662.62 847.579,-657.982 846.765,-664.934"/>
</g>
<!-- 50507904 -->
<g id="node15" class="node"><title>50507904</title>
<ellipse fill="#8b008b" stroke="black" cx="1369" cy="-1189" rx="202.94" ry="46.669"/>
<text text-anchor="middle" x="1369" y="-1196.4" font-family="Times Roman,serif" font-size="24.00">exp: (bernoulli weight)</text>
<text text-anchor="middle" x="1369" y="-1167.4" font-family="Times Roman,serif" font-size="24.00">value: #t</text>
</g>
<!-- 50209568 -->
<g id="node16" class="node"><title>50209568</title>
<ellipse fill="#6e8b3d" stroke="black" cx="1369" cy="-1080" rx="99.9096" ry="26.163"/>
<text text-anchor="middle" x="1369" y="-1072.9" font-family="Times Roman,serif" font-size="24.00">request: []</text>
</g>
<!-- 50209568&#45;&gt;50507904 -->
<g id="edge47" class="edge"><title>50209568&#45;&gt;50507904</title>
<path fill="none" stroke="black" d="M1369,-1106.11C1369,-1113.98 1369,-1122.95 1369,-1132"/>
<polygon fill="black" stroke="black" points="1365.5,-1132.22 1369,-1142.22 1372.5,-1132.22 1365.5,-1132.22"/>
</g>
<!-- 50559104 -->
<g id="node17" class="node"><title>50559104</title>
<ellipse fill="khaki" stroke="black" cx="1525" cy="-971" rx="168.999" ry="46.669"/>
<text text-anchor="middle" x="1525" y="-978.4" font-family="Times Roman,serif" font-size="24.00">exp: bernoulli</text>
<text text-anchor="middle" x="1525" y="-949.4" font-family="Times Roman,serif" font-size="24.00">value: sp:bernoulli</text>
</g>
<!-- 50559104&#45;&gt;50507904 -->
<g id="edge35" class="edge"><title>50559104&#45;&gt;50507904</title>
<path fill="none" stroke="black" d="M1515.9,-1017.62C1508.86,-1045.21 1497.02,-1079.78 1478,-1106 1469.38,-1117.89 1458.57,-1128.87 1447.14,-1138.69"/>
<polygon fill="black" stroke="black" points="1444.62,-1136.24 1439.14,-1145.31 1449.08,-1141.63 1444.62,-1136.24"/>
</g>
<!-- 50559104&#45;&gt;50209568 -->
<g id="edge37" class="edge"><title>50559104&#45;&gt;50209568</title>
<path fill="none" stroke="black" d="M1462.9,-1014.39C1445.98,-1026.21 1428.02,-1038.76 1412.38,-1049.69"/>
<polygon fill="black" stroke="black" points="1410.15,-1046.98 1403.96,-1055.57 1414.16,-1052.72 1410.15,-1046.98"/>
</g>
<!-- 50595280&#45;&gt;50507904 -->
<g id="edge41" class="edge"><title>50595280&#45;&gt;50507904</title>
<path fill="none" stroke="black" d="M1207.23,-1017.18C1219.53,-1044.78 1237.6,-1079.51 1260,-1106 1269.83,-1117.62 1281.55,-1128.62 1293.61,-1138.57"/>
<polygon fill="black" stroke="black" points="1291.58,-1141.43 1301.57,-1144.96 1295.96,-1135.97 1291.58,-1141.43"/>
</g>
<!-- 50595280&#45;&gt;50209568 -->
<g id="edge43" class="edge"><title>50595280&#45;&gt;50209568</title>
<path fill="none" stroke="black" d="M1257.31,-1012.36C1278.44,-1025.16 1301.26,-1038.98 1320.74,-1050.78"/>
<polygon fill="black" stroke="black" points="1319.07,-1053.86 1329.44,-1056.04 1322.69,-1047.87 1319.07,-1053.86"/>
</g>
<!-- 49714160 -->
<g id="node20" class="node"><title>49714160</title>
<ellipse fill="dodgerblue" stroke="black" cx="2288" cy="-686" rx="275.065" ry="46.669"/>
<text text-anchor="middle" x="2288" y="-693.4" font-family="Times Roman,serif" font-size="24.00">exp: (beta 1.000000 1.000000)</text>
<text text-anchor="middle" x="2288" y="-664.4" font-family="Times Roman,serif" font-size="24.00">value: 0.695349</text>
</g>
<!-- 49714160&#45;&gt;51013584 -->
<g id="edge71" class="edge"><title>49714160&#45;&gt;51013584</title>
<path fill="none" stroke="black" d="M2063.65,-712.976C1985.89,-722.135 1898.14,-732.256 1818,-741 1709.87,-752.799 1592.79,-764.942 1484.31,-775.929"/>
<polygon fill="black" stroke="black" points="1483.78,-772.465 1474.18,-776.954 1484.48,-779.43 1483.78,-772.465"/>
</g>
<!-- 50148928 -->
<g id="node21" class="node"><title>50148928</title>
<ellipse fill="#6e8b3d" stroke="black" cx="2288" cy="-556" rx="99.9096" ry="26.163"/>
<text text-anchor="middle" x="2288" y="-548.9" font-family="Times Roman,serif" font-size="24.00">request: []</text>
</g>
<!-- 50148928&#45;&gt;49714160 -->
<g id="edge21" class="edge"><title>50148928&#45;&gt;49714160</title>
<path fill="none" stroke="black" d="M2288,-582.307C2288,-595.886 2288,-613.006 2288,-629.401"/>
<polygon fill="black" stroke="black" points="2284.5,-629.477 2288,-639.477 2291.5,-629.477 2284.5,-629.477"/>
</g>
<!-- 49798288 -->
<g id="node22" class="node"><title>49798288</title>
<ellipse fill="khaki" stroke="black" cx="2107" cy="-401" rx="133.143" ry="46.669"/>
<text text-anchor="middle" x="2107" y="-408.4" font-family="Times Roman,serif" font-size="24.00">exp: beta</text>
<text text-anchor="middle" x="2107" y="-379.4" font-family="Times Roman,serif" font-size="24.00">value: sp:beta</text>
</g>
<!-- 49798288&#45;&gt;49714160 -->
<g id="edge7" class="edge"><title>49798288&#45;&gt;49714160</title>
<path fill="none" stroke="black" d="M2115.59,-447.507C2125.36,-490.942 2144.62,-555.961 2179,-603 2187.25,-614.28 2197.45,-624.753 2208.27,-634.197"/>
<polygon fill="black" stroke="black" points="2206.33,-637.14 2216.24,-640.887 2210.83,-631.778 2206.33,-637.14"/>
</g>
<!-- 49798288&#45;&gt;50148928 -->
<g id="edge9" class="edge"><title>49798288&#45;&gt;50148928</title>
<path fill="none" stroke="black" d="M2157.42,-444.176C2187.12,-469.613 2224.05,-501.232 2251.04,-524.351"/>
<polygon fill="black" stroke="black" points="2248.86,-527.089 2258.73,-530.935 2253.41,-521.772 2248.86,-527.089"/>
</g>
<!-- 49961600 -->
<g id="node23" class="node"><title>49961600</title>
<ellipse fill="#eead0e" stroke="black" cx="2723" cy="-401" rx="149.2" ry="46.669"/>
<text text-anchor="middle" x="2723" y="-408.4" font-family="Times Roman,serif" font-size="24.00">exp: 1.000000</text>
<text text-anchor="middle" x="2723" y="-379.4" font-family="Times Roman,serif" font-size="24.00">value: 1.000000</text>
</g>
<!-- 49961600&#45;&gt;49714160 -->
<g id="edge13" class="edge"><title>49961600&#45;&gt;49714160</title>
<path fill="none" stroke="black" d="M2658.81,-443.053C2580.67,-494.249 2448.81,-580.641 2365.2,-635.42"/>
<polygon fill="black" stroke="black" points="2363.21,-632.541 2356.76,-640.949 2367.04,-638.396 2363.21,-632.541"/>
</g>
<!-- 49961600&#45;&gt;50148928 -->
<g id="edge15" class="edge"><title>49961600&#45;&gt;50148928</title>
<path fill="none" stroke="black" d="M2624.56,-436.075C2542.77,-465.219 2428.51,-505.933 2356.4,-531.627"/>
<polygon fill="black" stroke="black" points="2355.2,-528.341 2346.95,-534.995 2357.54,-534.935 2355.2,-528.341"/>
</g>
<!-- 50152144 -->
<g id="node24" class="node"><title>50152144</title>
<ellipse fill="#eead0e" stroke="black" cx="2407" cy="-401" rx="149.2" ry="46.669"/>
<text text-anchor="middle" x="2407" y="-408.4" font-family="Times Roman,serif" font-size="24.00">exp: 1.000000</text>
<text text-anchor="middle" x="2407" y="-379.4" font-family="Times Roman,serif" font-size="24.00">value: 1.000000</text>
</g>
<!-- 50152144&#45;&gt;49714160 -->
<g id="edge17" class="edge"><title>50152144&#45;&gt;49714160</title>
<path fill="none" stroke="black" d="M2415.35,-447.616C2420.67,-490.539 2422.44,-554.69 2397,-603 2390.86,-614.655 2382.28,-625.153 2372.59,-634.447"/>
<polygon fill="black" stroke="black" points="2370.06,-632.015 2365,-641.319 2374.76,-637.206 2370.06,-632.015"/>
</g>
<!-- 50152144&#45;&gt;50148928 -->
<g id="edge19" class="edge"><title>50152144&#45;&gt;50148928</title>
<path fill="none" stroke="black" d="M2372.26,-446.249C2353.65,-470.495 2331.1,-499.866 2314.01,-522.12"/>
<polygon fill="black" stroke="black" points="2311.06,-520.212 2307.75,-530.276 2316.62,-524.475 2311.06,-520.212"/>
</g>
<!-- 44349568 -->
<g id="node27" class="node"><title>44349568</title>
<ellipse fill="none" stroke="black" cx="2107" cy="-292" rx="62.9325" ry="18.3848"/>
<text text-anchor="middle" x="2107" y="-288.4" font-family="Times Roman,serif" font-size="14.00">44349568</text>
</g>
<!-- 44349568&#45;&gt;49798288 -->
<g id="edge11" class="edge"><title>44349568&#45;&gt;49798288</title>
<path fill="none" stroke="black" d="M2107,-310.986C2107,-320.326 2107,-332.131 2107,-344.09"/>
<polygon fill="black" stroke="black" points="2103.5,-344.122 2107,-354.122 2110.5,-344.122 2103.5,-344.122"/>
</g>
<!-- 43380816 -->
<g id="node36" class="node"><title>43380816</title>
<ellipse fill="none" stroke="black" cx="2257" cy="-19" rx="62.9325" ry="18.3848"/>
<text text-anchor="middle" x="2257" y="-15.4" font-family="Times Roman,serif" font-size="14.00">43380816</text>
</g>
<!-- 43380816&#45;&gt;50659200 -->
<g id="edge27" class="edge"><title>43380816&#45;&gt;50659200</title>
<path fill="none" stroke="black" d="M2208.78,-30.9266C2109.45,-55.4969 1878.87,-112.534 1730.05,-149.348"/>
<polygon fill="black" stroke="black" points="1728.79,-146.054 1719.92,-151.853 1730.47,-152.849 1728.79,-146.054"/>
</g>
<!-- 43380816&#45;&gt;50559104 -->
<g id="edge39" class="edge"><title>43380816&#45;&gt;50559104</title>
<path fill="none" stroke="black" d="M2309.35,-29.4235C2462.67,-61.4383 2900,-163.977 2900,-292 2900,-292 2900,-292 2900,-686 2900,-711.458 2903.01,-724.067 2884,-741 2712.01,-894.198 2030.22,-947.051 1702.59,-963.845"/>
<polygon fill="black" stroke="black" points="1702.33,-960.353 1692.52,-964.355 1702.69,-967.344 1702.33,-960.353"/>
</g>
<!-- 45024496 -->
<g id="node50" class="node"><title>45024496</title>
<ellipse fill="none" stroke="black" cx="1893" cy="-401" rx="62.9325" ry="18.3848"/>
<text text-anchor="middle" x="1893" y="-397.4" font-family="Times Roman,serif" font-size="14.00">45024496</text>
</g>
<!-- 45024496&#45;&gt;51372320 -->
<g id="edge53" class="edge"><title>45024496&#45;&gt;51372320</title>
<path fill="none" stroke="black" d="M1866.75,-417.883C1833.26,-439.422 1773.95,-477.569 1726.13,-508.323"/>
<polygon fill="black" stroke="black" points="1724.17,-505.424 1717.65,-513.778 1727.95,-511.312 1724.17,-505.424"/>
</g>
</g>
</svg>
